<?xml version="1.0" encoding="utf-8"?>
<!-- Generator: Adobe Illustrator 27.9.0, SVG Export Plug-In . SVG Version: 6.00 Build 0)  -->
<svg version="1.1" id="svg" xmlns="http://www.w3.org/2000/svg" xmlns:xlink="http://www.w3.org/1999/xlink" x="0px" y="0px"
	 viewBox="0 0 4500 3000" enable-background="new 0 0 4500 3000" xml:space="preserve">
<g>
	<g>
		<defs>
			<rect id="SVGID_1_" width="4500" height="3000"/>
		</defs>
		<clipPath id="SVGID_00000076572235424380409040000016795093464363750832_">
			<use xlink:href="#SVGID_1_"  overflow="visible"/>
		</clipPath>
		<g clip-path="url(#SVGID_00000076572235424380409040000016795093464363750832_)">
			<path fill="#0C0C0C" d="M0,0h4500v3000H0V0z"/>
			<path fill="#FDE2AF" d="M687,1491c1.5-1.5,3-4.5,4.5-6c58.5-78,178.5-145.5,261-196.5c81-51,171-100.5,265.5-117
				c33-6,63,9,88.5,28.5c9,7.5,40.5,30,42,39l-4.5,1.5c27,1.5,78,6,87,37.5h1.5c16.5-6,49.5,18,61.5,28.5c22.5-4.5,33-6,46.5,15
				c0,10.5-1.5,12-9,21c-3,3-4.5,6-7.5,9c15,9,24,7.5,42,7.5c25.5-1.5,46.5-1.5,67.5,16.5c4.5,4.5,10.5,9,13.5,15
				c4.5,13.5,19.5,19.5,31.5,22.5c12,9,27,19.5,37.5,30c16.5,21,36,39,54,57c6,6,15,1.5,21,10.5c1.5,12,10.5,18,19.5,25.5
				c22.5,7.5,36,15,37.5,40.5h4.5c462-76.5,936-48,1384.5,84c180,52.5,402,117,454.5,321c10.5,43.5,12,67.5,19.5,108
				c90,73.5,151.5,145.5,61.5,256.5c-30,37.5-72,64.5-112.5,90c-244.5,141-610.5,204-888,226.5c-531,40.5-1081.5,24-1597.5-115.5
				c-126-33-252-78-354-159c-124.5-97.5-93-237,36-307.5c0,7.5-1.5,22.5,1.5,28.5v-12c0-46.5,13.5-123,48-156
				c97.5-142.5,295.5-213,453-262.5c-10.5-4.5-54-10.5-66-12c-96-13.5-193.5-24-291-28.5c-10.5-3-57-3-72-1.5c-69,1.5-168,3-228-36
				C661.5,1579.5,661.5,1525.5,687,1491L687,1491z"/>
			
				<linearGradient id="SVGID_00000016073736213187754080000007681375301585140872_" gradientUnits="userSpaceOnUse" x1="2280.5073" y1="3291.9038" x2="1449.3922" y2="1913.8225" gradientTransform="matrix(1 0 0 1 0 -878)">
				<stop  offset="0" style="stop-color:#FCA32B"/>
				<stop  offset="1" style="stop-color:#FEC74F"/>
			</linearGradient>
			<path fill="url(#SVGID_00000016073736213187754080000007681375301585140872_)" d="M687,1491c1.5-1.5,3-4.5,4.5-6
				c58.5-78,178.5-145.5,261-196.5c81-51,171-100.5,265.5-117c33-6,63,9,88.5,28.5c9,7.5,40.5,30,42,39l-4.5,1.5
				c27,1.5,78,6,87,37.5h1.5c16.5-6,49.5,18,61.5,28.5c22.5-4.5,33-6,46.5,15c0,10.5-1.5,12-9,21c-3,3-4.5,6-7.5,9
				c15,9,24,7.5,42,7.5c25.5-1.5,46.5-1.5,67.5,16.5c4.5,4.5,10.5,9,13.5,15c4.5,13.5,19.5,19.5,31.5,22.5c12,9,27,19.5,37.5,30
				c16.5,21,36,39,54,57c6,6,15,1.5,21,10.5c1.5,12,10.5,18,19.5,25.5c22.5,7.5,36,15,37.5,40.5h4.5c3,6,18,21,24,27
				c12,9,25.5,18,33,30c219-30,454.5-49.5,675-33c9,0,57,4.5,63,6c-9,0-15,0-24,0c18,6,19.5,19.5,24,36c1.5,0,48-13.5,58.5-15
				c0,4.5-1.5,10.5,0,15c6,16.5,12,16.5,28.5,25.5l18,3c6,0,16.5,0,21,0c22.5-3,42-9,66-12c10.5,3,22.5,7.5,33,10.5l16.5,16.5
				c12,4.5,15,6,25.5,13.5c16.5,4.5,39,9,48,25.5c-10.5,4.5-24,10.5-33,16.5c-3,3-4.5,7.5-7.5,10.5v1.5c-6,12-6,22.5-1.5,34.5
				c10.5,7.5,19.5,16.5,31.5,21c19.5,6,31.5,10.5,51,18l3,25.5c-6,4.5-12,10.5-18,15c-12,33-19.5,16.5-43.5,28.5l-7.5,4.5
				c-34.5-12-73.5-15-108-3c-7.5,1.5-24,6-30,10.5c-31.5,21-67.5,13.5-100.5,27c-24,9-39,27-66,33l6,4.5c22.5,4.5,36,7.5,54,25.5
				c9,9,7.5,10.5,21,12c19.5,10.5,33,16.5,42,39c-6,10.5-9,13.5-19.5,18l19.5,3c55.5,27,28.5,55.5-19.5,64.5l-9,1.5l10.5,9
				c-40.5,1.5-88.5,4.5-114,43.5c-4.5,12-6,16.5-6,30l-1.5,6c-18,10.5-51,15-63-6c-18,21-52.5,15-81,19.5c12,4.5,34.5,7.5,30,22.5
				c-21,21-78,15-103.5,6l-3,3l-33-1.5c0,7.5,0,15-1.5,22.5c-19.5,1.5-39,19.5-63,24c-25.5,4.5-45-9-63,4.5l-1.5-1.5
				c-18-10.5-19.5-16.5-31.5-34.5c-21,4.5-40.5,10.5-61.5,3c21-28.5,1.5-54-10.5-84l4.5,1.5l-6-6l1.5-1.5h9
				c-15-7.5-33-10.5-43.5-22.5c-3-4.5-6-9-9-13.5c-13.5-10.5-21-13.5-36-21l-15-3l-3-4.5l1.5-4.5c6-6,13.5-9,21-13.5
				c-10.5-12-70.5,39-82.5,13.5c3-15,12-19.5,24-28.5H1986c-15,6-37.5,9-52.5,4.5c-27-4.5-75-10.5-70.5-46.5l7.5-7.5
				c19.5-22.5,96-12,88.5-42c-9-10.5-25.5-16.5-39-19.5c27-16.5,34.5-9,24-48c-18-40.5-27-81-19.5-124.5c-12-1.5-42-9-51-7.5
				c-3-3-19.5-10.5-24-13.5c-10.5-4.5-21-9-33-12c-7.5,0-67.5-24-85.5-28.5l-3,1.5l-1.5-4.5c-9-4.5-36-12-46.5-13.5
				c-18-4.5-34.5-9-52.5-12c-15-1.5-37.5-9-48-3l-1.5,9c0-6,0-12-4.5-16.5c-9-6-24-9-34.5-7.5c-6-6-40.5-6-55.5-10.5
				s-108-19.5-124.5-21c-10.5-4.5-54-10.5-66-12c-96-13.5-193.5-24-291-28.5c-10.5-3-57-3-72-1.5c-69,1.5-168,3-228-36
				C661.5,1579.5,661.5,1525.5,687,1491L687,1491z"/>
			<path fill="#FCAA37" d="M1486.5,1362c15-1.5,21-3,34.5-10.5c15,9,24,7.5,42,7.5c25.5-1.5,46.5-1.5,67.5,16.5
				c4.5,4.5,10.5,9,13.5,15c4.5,13.5,19.5,19.5,31.5,22.5c12,9,27,19.5,37.5,30c16.5,21,36,39,54,57c6,6,15,1.5,21,10.5
				c1.5,12,10.5,18,19.5,25.5c22.5,7.5,36,15,37.5,40.5h4.5c3,6,18,21,24,27c12,9,25.5,18,33,30c219-30,454.5-49.5,675-33
				c9,0,57,4.5,63,6c-9,0-15,0-24,0c-10.5,12-28.5,27-30,40.5c4.5,7.5,6,9,16.5,12c3,0,6,1.5,7.5,1.5c-31.5,9-36,9-63,27l-1.5,1.5
				c-13.5,15-18,18-18,39c-10.5-3-25.5-3-36-4.5l-7.5,1.5c-10.5,1.5-24,3-34.5,1.5c-9-3-15-3-24-3c-19.5-9-31.5-15-42-33
				c-21,18-36,19.5-63,22.5c-42,10.5-82.5,25.5-124.5,19.5l-4.5,4.5c-25.5-13.5-25.5-19.5-46.5-33c-15,1.5-30,10.5-46.5,15
				c-7.5,1.5-25.5,6-33,7.5l-1.5,4.5c-36-3-75,1.5-67.5,48c-34.5,4.5-231-64.5-280.5-76.5c-106.5-25.5-213-54-322.5-73.5
				c-58.5-9-117-19.5-174-30c-31.5-6-72-12-102-19.5c42,0,103.5-7.5,117-55.5c3-15-7.5-25.5-16.5-36c-7.5-6-18-12-25.5-16.5
				c1.5-3,3-4.5,4.5-6c16.5-9,18-28.5,34.5-34.5c19.5,6,21,7.5,22.5,28.5c24,1.5,34.5-1.5,55.5-10.5c24,21,49.5,21,81,22.5
				c15,0,33-6,46.5-9c46.5-27,15-55.5-22.5-64.5c6,0,13.5,0,18-3l-3,0l3-1.5c10.5-1.5,19.5-3,25.5-12c0-9-3-9-9-18
				C1465.5,1362,1476,1362,1486.5,1362z"/>
			<path fill="#DF4120" d="M1486.5,1362c15-1.5,21-3,34.5-10.5c15,9,24,7.5,42,7.5c25.5-1.5,46.5-1.5,67.5,16.5
				c4.5,4.5,10.5,9,13.5,15c4.5,13.5,19.5,19.5,31.5,22.5c12,9,27,19.5,37.5,30c-10.5,15-15,19.5-33,24l-4.5,6
				c-34.5,33-73.5,49.5-121.5,49.5c-46.5,0-73.5-34.5-85.5-36l-1.5-16.5c-10.5,0-16.5,1.5-25.5-3c46.5-27,15-55.5-22.5-64.5
				c6,0,13.5,0,18-3l-3-4.5l3-1.5c10.5-1.5,19.5-3,25.5-12c0-9-3-9-9-18C1465.5,1362,1476,1362,1486.5,1362z"/>
			<path fill="#FB9E2F" d="M1486.5,1362c15-1.5,21-3,34.5-10.5c15,9,24,7.5,42,7.5c-6,6-7.5,4.5-9,13.5c6,7.5,22.5,9,24,16.5
				c0,4.5,0,12,1.5,18c-36,3-108,19.5-112.5,63c-10.5,0-16.5,1.5-25.5-3c46.5-27,15-55.5-22.5-64.5c6,0,13.5,0,18-3l-3-4.5l3-1.5
				c10.5-1.5,19.5-3,25.5-12c0-9-3-9-9-18C1465.5,1362,1476,1362,1486.5,1362L1486.5,1362z"/>
			<path fill="#FCD44F" d="M1453.5,1363.5c12,0,22.5,0,33,0c16.5,9,34.5,4.5,46.5,19.5c1.5,19.5-25.5,31.5-42,31.5
				c-25.5,1.5-34.5-6-55.5-15l-1.5-4.5l3-1.5c10.5-1.5,19.5-3,25.5-12C1462.5,1372.5,1461,1372.5,1453.5,1363.5z"/>
			<path fill="#FDE2AF" d="M1563,1359c25.5-1.5,46.5-1.5,67.5,16.5c4.5,4.5,10.5,9,13.5,15c-7.5,9-12,16.5-21,22.5
				c-16.5-3-27-4.5-42-6c-1.5-6,0-13.5-1.5-18c-1.5-7.5-18-9-24-16.5C1555.5,1363.5,1557,1365,1563,1359L1563,1359z"/>
			<path fill="#FDE2AF" d="M1675.5,1413c12,9,27,19.5,37.5,30c-10.5,15-15,19.5-33,24c-1.5-25.5-4.5-28.5-27-42
				C1660.5,1420.5,1668,1417.5,1675.5,1413z"/>
			<path fill="#FCAA37" d="M1644,1390.5c4.5,13.5,19.5,19.5,31.5,22.5c-7.5,4.5-15,7.5-22.5,12c-12-6-18-9-31.5-12
				C1632,1407,1636.5,1399.5,1644,1390.5z"/>
			<path fill="#CD3F1E" d="M1594.5,1435.5c13.5-1.5,28.5-4.5,30,15c-4.5,4.5-4.5,3-12,3v1.5c3,6,3,7.5,6,13.5
				c-9,24-55.5,15-76.5,13.5c-15,0-31.5,1.5-40.5-10.5c-4.5-31.5,49.5-27,69-30C1576.5,1440,1585.5,1437,1594.5,1435.5
				L1594.5,1435.5z"/>
			<path fill="#FED37C" d="M1528.5,1456.5c9,0,19.5,0,21,9c-4.5,6-9,6-16.5,7.5c-10.5,0-16.5,0-24-6v-4.5
				C1516.5,1458,1519.5,1458,1528.5,1456.5z"/>
			<path fill="#F57F23" d="M1597.5,1446c7.5,1.5,7.5,0,12,4.5l-4.5,4.5c-4.5-1.5-9-1.5-13.5-3v-3L1597.5,1446z"/>
			<path fill="#FB9E2F" d="M1788,1512c1.5,12,10.5,18,19.5,25.5c22.5,7.5,36,15,37.5,40.5h4.5c3,6,18,21,24,27c-7.5,6-6,3-9,10.5
				c1.5,7.5,3,7.5,9,13.5c7.5,1.5,12,1.5,15,7.5l-3,3c3,0-22.5-4.5-16.5-1.5c-6-3-13.5-9-21-12l7.5,9l-1.5,1.5
				c-28.5-16.5-31.5-7.5-51,10.5c-15,3-30,7.5-39,21c-15,0-19.5-7.5-46.5-4.5l10.5-10.5c21-15,6-39-9-52.5c-9-6-33-18-43.5-22.5
				c16.5,0,22.5-3,39-7.5c-6-7.5-13.5-12-16.5-21c9,0,25.5,0,34.5,0C1758,1549.5,1779,1537.5,1788,1512L1788,1512z"/>
			<path fill="#FCD44F" d="M1696.5,1549.5c9,0,25.5,0,34.5,0c16.5,3,31.5,3,42,16.5c4.5,27-36,31.5-54,34.5c-9-6-33-18-43.5-22.5
				c16.5,0,22.5-3,39-7.5C1707,1564.5,1699.5,1558.5,1696.5,1549.5z"/>
			<path fill="#FCD44F" d="M1807.5,1537.5c22.5,7.5,36,15,37.5,40.5c-24,25.5-66,3-54-31.5C1795.5,1540.5,1800,1540.5,1807.5,1537.5
				z"/>
			<path fill="#DF4120" d="M1801.5,1647c-6-12-12-36,10.5-40.5c13.5-3,25.5,10.5,34.5,19.5l7.5,9l-1.5,1.5
				C1824,1621.5,1821,1629,1801.5,1647z"/>
			<path fill="#DF4120" d="M1311,1516.5c31.5-12,45-18,78-21c16.5,4.5,28.5,9,43.5,16.5c25.5,16.5,49.5,28.5,30,61.5
				c-6,3-19.5,12-24,13.5c-6,0-34.5,7.5-43.5,9c-58.5,13.5-75-4.5-120-25.5l-1.5-1.5C1272,1539,1285.5,1530,1311,1516.5z"/>
			<path fill="#CD3F1E" d="M1330.5,1525.5c1.5-1.5,1.5-6,4.5-6c28.5,4.5,42,10.5,72,9c9,6,24,13.5,27,22.5c-1.5,6,0,4.5-4.5,7.5
				c-13.5,10.5-36,15-49.5,1.5c-18-13.5-37.5,1.5-57-18l3-1.5l-4.5-4.5v-4.5L1330.5,1525.5z"/>
			<path fill="#FCD44F" d="M1381.5,1561.5c13.5-10.5,39-21,49.5-1.5C1417.5,1570.5,1393.5,1575,1381.5,1561.5z"/>
			<path fill="#F6C03D" d="M1330.5,1525.5c9,0,13.5-1.5,21,3l1.5,4.5c-7.5,10.5-15,9-27,9l-4.5-4.5v-4.5L1330.5,1525.5z"/>
			<path fill="#DF4120" d="M1981.5,1699.5l-1.5-1.5c-6-25.5,21-39,40.5-46.5c33-13.5,78-25.5,112.5-13.5c12,4.5,16.5,21,21,31.5
				c10.5,19.5,9,24-4.5,42c-15,1.5-30,10.5-46.5,15c-7.5,1.5-25.5,6-33,7.5C2040,1732.5,2002.5,1726.5,1981.5,1699.5z"/>
			<path fill="#CD3F1E" d="M2155.5,1668c10.5,19.5,9,24-4.5,42c-15,1.5-30,10.5-46.5,15c-7.5,1.5-25.5,6-33,7.5
				c-31.5,1.5-69-6-90-31.5l4.5-1.5c4.5,1.5,9,4.5,13.5,6C2052,1722,2131.5,1732.5,2155.5,1668L2155.5,1668z"/>
			<path fill="#DF4120" d="M1633.5,1573.5c7.5,0,18,1.5,25.5,1.5l16.5,3c10.5,6,34.5,18,43.5,22.5c13.5,13.5,30,37.5,9,52.5
				l-10.5,10.5c-9,3-21,9-30,12c-37.5,4.5-64.5-3-94.5-25.5l-16.5-16.5c-4.5-10.5-4.5-13.5-4.5-25.5c6-15,9-16.5,21-25.5
				C1608,1576.5,1617,1575,1633.5,1573.5L1633.5,1573.5z"/>
			<path fill="#CD3F1E" d="M1570.5,1606.5c27,16.5,28.5,46.5,70.5,55.5c34.5,7.5,48-1.5,81-12c1.5,0,4.5,3,4.5,3l-10.5,10.5
				c-9,3-21,9-30,12c-37.5,4.5-64.5-3-94.5-25.5l-16.5-16.5C1570.5,1621.5,1570.5,1618.5,1570.5,1606.5z"/>
			<path fill="#FCD44F" d="M1674,1614c10.5,0,24-1.5,31.5,7.5c-3,7.5-3,6-10.5,10.5c-10.5,1.5-27,4.5-33-6
				C1665,1617,1666.5,1618.5,1674,1614z"/>
			<path fill="#F6C03D" d="M1600.5,1593c9,0,21,0,28.5,6c0,6,0,4.5-6,9c-9,0-25.5,1.5-28.5-9L1600.5,1593z"/>
			<path fill="#2C5D64" d="M2382,1668c31.5-33,75-31.5,117-24c15,4.5,27,9,36,24c1.5,1.5,1.5,4.5,3,7.5c0,7.5,0,15,0,22.5
				c6,1.5,7.5,0,13.5-3c-13.5,15-18,18-18,39c-10.5-3-25.5-3-36-4.5l-7.5,1.5c-10.5,1.5-24,3-34.5,1.5c-9-3-15-3-24-3
				c-19.5-9-31.5-15-42-33C2382,1684.5,2380.5,1680,2382,1668z"/>
			<path fill="#FB9E2F" d="M2536.5,1696.5c6,1.5,7.5,0,13.5-3c-13.5,15-18,18-18,39c-10.5-3-25.5-3-36-4.5
				C2518.5,1719,2526,1717.5,2536.5,1696.5L2536.5,1696.5z"/>
			<path fill="#E85727" d="M2448,1668c13.5,0,30-3,33,12c-1.5,7.5-4.5,9-10.5,16.5C2449.5,1707,2436,1687.5,2448,1668z"/>
			<path fill="#3D8B3F" d="M2250,1669.5c9,0,15,0,22.5,4.5c9,13.5,0,18,6,27c9,1.5,19.5-3,28.5-7.5c12,0,19.5-3,28.5,3
				c-3,7.5-6,15-12,21c-42,10.5-82.5,25.5-124.5,19.5c-25.5-13.5-24-16.5-27-45c15-10.5,24-13.5,40.5-18
				C2227.5,1672.5,2238,1671,2250,1669.5L2250,1669.5z"/>
			<path fill="#F6C03D" d="M2235,1690.5c9,0,25.5-1.5,33,6l-1.5,3l-6,3c-4.5,0-7.5,0-12,1.5c-7.5,0-16.5,0-22.5-4.5
				C2229,1693.5,2229,1695,2235,1690.5z"/>
			<path fill="#DF4120" d="M2268,1654.5c37.5-18,82.5-19.5,114,13.5c-1.5,13.5-1.5,16.5,6,30c-21,18-36,19.5-63,22.5
				c6-6,9-13.5,12-21c-10.5-6-16.5-4.5-28.5-3c-9,3-19.5,9-28.5,7.5c-7.5-9,3-12-6-27c-7.5-4.5-13.5-3-22.5-4.5
				C2254.5,1665,2263.5,1659,2268,1654.5L2268,1654.5z"/>
			<path fill="#FCD44F" d="M2293.5,1672.5c15-4.5,37.5-12,45,9c-6,12-15,9-27,9C2299.5,1686,2295,1686,2293.5,1672.5z"/>
			<path fill="#CD3F1E" d="M2293.5,1672.5c4.5-9,9-9,15-13.5c21-15,51,15,37.5,36c-4.5,3-4.5,3-9,3c-10.5-6-16.5-4.5-28.5-3l3-3
				c13.5,1.5,21,4.5,27-9C2331,1660.5,2310,1668,2293.5,1672.5z"/>
			<path fill="#2C5D64" d="M1801.5,1647c19.5-18,22.5-25.5,51-10.5l1.5-1.5c12,7.5,22.5,16.5,22.5,31.5c1.5,13.5,3,24-4.5,36
				c-24,1.5-34.5,0-55.5-13.5c-9-3-22.5-6-34.5-10.5l-19.5-12C1771.5,1654.5,1788,1650,1801.5,1647z"/>
			<path fill="#DF4120" d="M1854,1635c12,7.5,22.5,16.5,22.5,31.5c1.5,13.5,3,24-4.5,36c-24,1.5-34.5,0-55.5-13.5
				c51,0,67.5-9,34.5-54H1854z"/>
			<path fill="#FDE2AF" d="M1881,1675.5c21-24,46.5-15,67.5,4.5c4.5,4.5,10.5,10.5,15,15c-33,33-39,43.5-87,27l13.5-15
				c-6-1.5-12-3-18-3c7.5-12,4.5-21,4.5-36C1878,1669.5,1881,1675.5,1881,1675.5L1881,1675.5z"/>
			<path fill="#F57F23" d="M1876.5,1668c0,1.5,4.5,7.5,4.5,9c6,6,12,9,15,16.5c0,7.5-1.5,7.5-6,15c-6-1.5-12-3-18-3
				C1879.5,1690.5,1878,1681.5,1876.5,1668L1876.5,1668z"/>
			<path fill="#53A661" d="M1464,1573.5c30,4.5,54,4.5,81,18c3,24-18,37.5-39,37.5c-22.5,1.5-40.5,1.5-37.5-25.5
				c-7.5-7.5-27-7.5-37.5-7.5l7.5-10.5C1444.5,1584,1458,1576.5,1464,1573.5z"/>
			<path fill="#CD3F1E" d="M1468.5,1488c12,1.5,39,36,85.5,36c48,0,87-16.5,121.5-49.5l1.5,3c-4.5,13.5-12,21-22.5,30
				c-57,37.5-138,46.5-187.5-9L1468.5,1488z"/>
			<path fill="#3D8B3F" d="M1705.5,1513.5c19.5,1.5,39,6,58.5,4.5c7.5-1.5,18-4.5,24-6c-9,25.5-30,37.5-57,39c-9-1.5-25.5,0-34.5,0
				c-9-3-25.5-13.5-28.5-24C1681.5,1519.5,1690.5,1516.5,1705.5,1513.5z"/>
			<path fill="#FCD44F" d="M1531.5,1572c-7.5-4.5-9-4.5-12-10.5c13.5-21,76.5-15,97.5-7.5c7.5,7.5,9,9,15,19.5
				c-16.5,1.5-25.5,3-42,7.5c-13.5,0-18,3-30,6C1551,1582.5,1542,1578,1531.5,1572z"/>
			<path fill="#FDE2AF" d="M2499,1644c18-7.5,82.5-46.5,91.5-7.5c-3,6-4.5,7.5-9,12c1.5,6,1.5,6,6,10.5c-4.5,12-37.5,16.5-48,16.5
				c-1.5-3-1.5-4.5-3-7.5C2526,1653,2514,1648.5,2499,1644z"/>
			<path fill="#FCD44F" d="M1441.5,1467c9,4.5,16.5,3,25.5,3l1.5,18l-1.5,10.5c-13.5,7.5-19.5,10.5-34.5,13.5
				c-15-7.5-27-12-43.5-16.5l-1.5-1.5c4.5-6,6-9,7.5-16.5C1408.5,1476,1428,1471.5,1441.5,1467z"/>
			<path fill="#FCD44F" d="M1716,1663.5c27-3,31.5,4.5,46.5,4.5l19.5,12c-15,33-63,18-88.5,7.5c-6-3-6-6-9-12
				C1696.5,1672.5,1708.5,1666.5,1716,1663.5L1716,1663.5z"/>
			<path fill="#CD3F1E" d="M1275,1569l1.5,1.5c43.5,21,61.5,39,120,25.5c7.5-1.5,36-9,43.5-9l-7.5,10.5
				C1414.5,1623,1291.5,1626,1275,1569z"/>
			<path fill="#85AF52" d="M1236,1438.5c19.5,6,21,7.5,22.5,28.5c0,6,0,12,1.5,18c-10.5,4.5-12,7.5-21,15c-6-1.5-10.5-3-16.5-3
				c-7.5-6-18-12-25.5-16.5c1.5-3,3-4.5,4.5-6C1218,1464,1219.5,1443,1236,1438.5z"/>
			<path fill="#53A661" d="M1668,1527c3,9,19.5,21,28.5,24c3,9,10.5,13.5,16.5,21c-15,6-22.5,7.5-39,7.5l-16.5-3
				C1620,1558.5,1647,1540.5,1668,1527L1668,1527z"/>
			<path fill="#FED37C" d="M1677,1477.5c13.5-4.5,48-1.5,57,13.5c-1.5,15-15,16.5-28.5,21c-15,4.5-36,1.5-49.5-4.5
				C1665,1498.5,1672.5,1491,1677,1477.5L1677,1477.5z"/>
			<path fill="#FCD44F" d="M1258.5,1483.5c16.5,0,52.5-1.5,58.5,19.5c-4.5,9-10.5,10.5-19.5,12c-22.5,1.5-45,4.5-58.5-16.5
				C1246.5,1491,1248,1488,1258.5,1483.5z"/>
			<path fill="#FCD44F" d="M2214,1672.5c-10.5-9-36-15-39-28.5c9-7.5,43.5-3,55.5-1.5C2223,1653,2215.5,1662,2214,1672.5
				L2214,1672.5z"/>
			<path fill="#FED37C" d="M2230.5,1642.5c12,3,27,4.5,37.5,12c-4.5,4.5-13.5,10.5-18,15c-12,1.5-22.5,1.5-34.5,4.5l-1.5-3
				C2215.5,1662,2223,1653,2230.5,1642.5z"/>
			<path fill="#FCD44F" d="M1591.5,1650c-15,4.5-42,12-49.5-7.5c6-13.5,21-12,33-10.5L1591.5,1650z"/>
			<path fill="#FCAA37" d="M1261.5,1260c24-12,54-19.5,81-18s78,6,87,37.5h1.5c16.5-6,49.5,18,61.5,28.5c22.5-4.5,33-6,46.5,15
				c0,10.5-1.5,12-9,21c-3,3-4.5,6-7.5,9c-13.5,7.5-19.5,9-34.5,10.5c-12,0-22.5,0-33,0c6,9,9,9,9,18c-6,7.5-15,9-25.5,12l-4.5,1.5
				l3,4.5c-4.5,3-12,3-18,3c37.5,9,69,37.5,22.5,64.5c-13.5,4.5-33,9-46.5,9c-31.5-1.5-57,0-81-22.5c-21,9-31.5,12-55.5,10.5
				c-1.5-21-3-21-22.5-28.5c-16.5,6-18,27-34.5,34.5c-3,1.5-3,3-4.5,6c-18-9-28.5-12-48-15c-15-3-13.5-1.5-13.5-15
				c-37.5,7.5-70.5,1.5-103.5-15c-12-16.5-12-24-7.5-43.5c7.5-19.5,31.5-28.5,49.5-34.5C1101,1330.5,1224,1270.5,1261.5,1260
				L1261.5,1260z"/>
			<path fill="#DF4120" d="M1138.5,1353c40.5-58.5,78-13.5,55.5,10.5l-1.5,1.5l-1.5,1.5c18,15,43.5,18,46.5,33
				c-6,13.5-19.5,19.5-31.5,27c7.5,3,10.5,4.5,18,3l12,9c-16.5,6-18,27-34.5,34.5c-3,1.5-3,3-4.5,6c-18-9-28.5-12-48-15
				c-15-3-13.5-1.5-13.5-15c-37.5,7.5-70.5,1.5-103.5-15c-12-16.5-12-24-7.5-43.5c7.5-19.5,31.5-28.5,49.5-34.5
				C1093.5,1353,1116,1351.5,1138.5,1353L1138.5,1353z"/>
			<path fill="#C5C948" d="M1206,1425c7.5,3,10.5,4.5,18,3l12,9c-16.5,6-18,27-34.5,34.5c-3,1.5-3,3-4.5,6c-18-9-28.5-12-48-15
				c-15-3-13.5-1.5-13.5-15C1164,1443,1177.5,1437,1206,1425z"/>
			<path fill="#F6C03D" d="M1108.5,1375.5c15-1.5,28.5-3,31.5,15c-3,7.5-6,10.5-12,16.5c-13.5,1.5-27,1.5-30-15
				C1101,1383,1102.5,1381.5,1108.5,1375.5z"/>
			<path fill="#F6C03D" d="M1182,1387.5c12,0,24-1.5,33,4.5c0,6,0,4.5-4.5,9c-10.5,1.5-27,3-31.5-9L1182,1387.5z"/>
			<path fill="#DF4120" d="M1261.5,1260c24-12,54-19.5,81-18s78,6,87,37.5h1.5c3,3,13.5,12,15,15c3,7.5,3,4.5,1.5,13.5
				c-7.5,12-30,16.5-43.5,19.5c-42,10.5-90,12-132,0c-3-4.5-9-6-13.5-9C1231.5,1294.5,1239,1282.5,1261.5,1260L1261.5,1260z"/>
			<path fill="#CD3F1E" d="M1393.5,1290c0-1.5,0-4.5,0-6c9-13.5,22.5-10.5,36-6h1.5c3,3,13.5,12,15,15l-3,3c-3-3-3-3-6-7.5
				c-6,4.5-6,4.5-9,10.5l-6,6l-1.5-3C1407,1297.5,1404,1299,1393.5,1290z"/>
			<path fill="#F6C03D" d="M1393.5,1290c10.5-4.5,22.5-7.5,34.5-4.5l3,3c-1.5,6-4.5,7.5-9,12C1407,1297.5,1404,1299,1393.5,1290z"/>
			<path fill="#F6C03D" d="M1330.5,1266c13.5,0,36,1.5,39,18c-4.5,7.5-3,4.5-12,10.5c-12,0-42,1.5-40.5-16.5
				C1320,1272,1324.5,1270.5,1330.5,1266L1330.5,1266z"/>
			<path fill="#2C5D64" d="M1326,1422c37.5-18,54-21,93-19.5c37.5,9,69,37.5,22.5,64.5c-13.5,4.5-33,9-46.5,9
				c-31.5-1.5-57,0-81-22.5C1306.5,1437,1312.5,1432.5,1326,1422z"/>
			<path fill="#F57F23" d="M1383,1431c7.5-1.5,22.5-3,28.5,1.5c-3,6-4.5,6-12,9c-9,0-21,1.5-28.5-3
				C1372.5,1434,1375.5,1434,1383,1431z"/>
			<path fill="#53A661" d="M1492.5,1308c22.5-4.5,33-6,46.5,15c0,10.5-1.5,12-9,21c-3,3-4.5,6-7.5,9c-13.5,7.5-19.5,9-34.5,10.5
				c-12,0-22.5,0-33,0c6,9,9,9,9,18c-6,7.5-15,9-25.5,12c-10.5-3-25.5-4.5-33-12c-25.5-28.5,33-51,54-54c9-1.5,18,0,27,1.5
				C1482,1315.5,1483.5,1315.5,1492.5,1308L1492.5,1308z"/>
			<path fill="#F6C03D" d="M1492.5,1308c22.5-4.5,33-6,46.5,15c-19.5,7.5-33,12-54,4.5C1482,1315.5,1483.5,1315.5,1492.5,1308z"/>
			<path fill="#2C5D64" d="M1258.5,1318.5c4.5,3,10.5,4.5,13.5,9c0,7.5-1.5,10.5,1.5,16.5c18,12,48-6,63,7.5c3,6,3,7.5,0,13.5
				c-10.5,15-39,21-55.5,15c-3-1.5-4.5-10.5-6-15c-7.5-7.5-48,9-63-10.5C1210.5,1332,1240.5,1324.5,1258.5,1318.5L1258.5,1318.5z"/>
			<path fill="#FDE2AF" d="M1224,1429.5c3-1.5,4.5-4.5,7.5-6c21-12,72-9,94.5-1.5c-13.5,10.5-19.5,15-13.5,33
				c-21,9-31.5,12-55.5,10.5c-1.5-21-3-21-22.5-28.5L1224,1429.5z"/>
			<path fill="#FDE2AF" d="M687,1491c1.5-1.5,3-4.5,4.5-6c58.5-78,178.5-145.5,261-196.5c81-51,171-100.5,265.5-117
				c33-6,63,9,88.5,28.5c9,7.5,40.5,30,42,39l-4.5,1.5c-27-1.5-57,6-81,18c-37.5,10.5-160.5,70.5-189,96c-18,6-42,15-49.5,34.5
				c-31.5,25.5-84,67.5-108,100.5l-3,4.5c-52.5-25.5-129-33-186-21C712.5,1477.5,700.5,1489.5,687,1491L687,1491z"/>
			<path fill="#E85727" d="M1996.5,1812c84,18,166.5,40.5,247.5,67.5c13.5,4.5,64.5,21,73.5,27c-15,0-45-3-55.5,9
				c1.5,13.5,22.5,16.5,33,18l-7.5,6c0,6,0,6,1.5,10.5c-6,1.5-37.5,9-42,9c-12,6-21,7.5-22.5,22.5H2196c-25.5,19.5-39-1.5-60-13.5
				c-21-13.5-30,1.5-46.5,6c-7.5-6,1.5-1.5-4.5-13.5c-12-6-18-10.5-33-12c-15-3-90-1.5-114-3c-18-40.5-27-81-19.5-124.5
				C1954.5,1822.5,1966.5,1824,1996.5,1812L1996.5,1812z"/>
			<path fill="#FB9E2F" d="M2197.5,1983c15-16.5,27-21,51-22.5c-12,6-21,7.5-22.5,22.5H2197.5z"/>
			<path fill="#FDE2AF" d="M2104.5,1848c19.5,1.5,54,10.5,54,34.5c-9,19.5-36,21-54,19.5c-15-3-51-4.5-58.5-19.5
				c10.5-12,37.5-9,43.5-15S2086.5,1858.5,2104.5,1848z"/>
			<path fill="#F6C03D" d="M2209.5,1900.5c15-7.5,31.5-1.5,37.5,13.5v6c-7.5,6-6,4.5-16.5,6l-3-1.5v-1.5c-13.5-3-37.5,1.5-54-7.5
				l1.5-3C2190,1902,2194.5,1902,2209.5,1900.5z"/>
			<path fill="#CD3F1E" d="M2209.5,1900.5c15-7.5,31.5-1.5,37.5,13.5v6c-7.5,6-6,4.5-16.5,6l-3-1.5v-1.5c6-9,6-6,4.5-13.5
				C2226,1902,2218.5,1902,2209.5,1900.5z"/>
			<path fill="#FB9E2F" d="M2388,1696.5c12,18,22.5,24,42,33c9,0,15,0,24,3c7.5,6,7.5,3,10.5,10.5c-3,7.5-4.5,9-9,15
				c-15,12-19.5,16.5-39,19.5l1.5,6c-13.5,7.5-34.5,18-49.5,19.5l1.5,12l-1.5,3c-6-1.5-12,1.5-16.5,6c-25.5,24-42,10.5-67.5,16.5
				l-6-3c-7.5-6-10.5-7.5-19.5-12c-15-1.5-39-3-51,3l-3,4.5c1.5,7.5,1.5,4.5,9,10.5c-1.5,1.5-1.5,1.5-3,1.5c-12,0-66-13.5-72-21
				c-1.5-3-1.5-1.5-4.5-3c0,0-1.5,0-1.5-1.5c-36,1.5-28.5-7.5-42-22.5s-66-9-90-13.5c-7.5-46.5,33-52.5,67.5-48l1.5-4.5
				c6-3,24-6,33-7.5c16.5-4.5,31.5-13.5,46.5-15c21,13.5,21,19.5,46.5,33l4.5-4.5c42,6,82.5-9,124.5-19.5
				C2352,1716,2367,1716,2388,1696.5L2388,1696.5z"/>
			<path fill="#DF4120" d="M2184,1788c15-40.5,70.5-34.5,105-30c18,6,39,15,58.5,21c9,7.5,18,13.5,24,22.5l1.5,12l-1.5,3
				c-6-1.5-12,1.5-16.5,6c-25.5,24-42,10.5-67.5,16.5l-6-3c-7.5-6-10.5-7.5-19.5-12c-7.5-4.5-16.5-9-24-13.5c7.5-1.5,15,0,21-4.5
				c-6,0-7.5,0-12-4.5l1.5-4.5c-12,0-25.5,1.5-30-12l-4.5-6c-4.5,12-15,16.5-27,13.5l-4.5-3l1.5-4.5V1788z"/>
			<path fill="#CD3F1E" d="M2215.5,1782l3-3c21-3,67.5-6,87,0l-9,1.5c-9,0-18,0-25.5,7.5c-9,6-10.5,12-13.5,21c-6,0-7.5,0-12-4.5
				l1.5-4.5c-12,0-25.5,1.5-30-12L2215.5,1782z"/>
			<path fill="#FCD44F" d="M2218.5,1789.5c12-3,22.5-3,33,3l1.5,3c-1.5,3-1.5,3-6,4.5C2236.5,1800,2223,1801.5,2218.5,1789.5
				L2218.5,1789.5z"/>
			<path fill="#F6C03D" d="M2296.5,1780.5c7.5,1.5,13.5,1.5,21,6c-12,12-22.5,9-39,7.5l-7.5-6
				C2278.5,1780.5,2287.5,1782,2296.5,1780.5z"/>
			<path fill="#CD3F1E" d="M2317.5,1786.5h3c1.5,15-19.5,19.5-31.5,25.5c-4.5-6-10.5-10.5-10.5-16.5
				C2295,1797,2305.5,1800,2317.5,1786.5z"/>
			<path fill="#2C5D64" d="M2002.5,1785c-7.5-46.5,33-52.5,67.5-48c6,1.5,12,4.5,18,6c0,6,0,13.5-1.5,19.5c10.5,7.5,81,6,90,28.5
				c-4.5,18-28.5,21-42,30c-36,1.5-28.5-7.5-42-22.5C2079,1782,2026.5,1789.5,2002.5,1785z"/>
			<path fill="#3D8B3F" d="M2430,1729.5c9,0,15,0,24,3c7.5,6,7.5,3,10.5,10.5c-3,7.5-4.5,9-9,15c-15,12-19.5,16.5-39,19.5l1.5,6
				c-13.5,7.5-34.5,18-49.5,19.5c-6-9-15-16.5-24-22.5c-18-6-39-15-58.5-21c25.5-25.5,58.5-18,90-10.5
				C2401.5,1732.5,2404.5,1735.5,2430,1729.5z"/>
			<path fill="#FCAA37" d="M2346,1780.5c22.5,0,49.5-1.5,72-3l1.5,6c-13.5,7.5-34.5,18-49.5,19.5C2364,1794,2355,1786.5,2346,1780.5
				z"/>
			<path fill="#FDE2AF" d="M2149.5,1710c21,13.5,21,19.5,46.5,33c-16.5,10.5-48,15-67.5,16.5c-10.5-6-30-15-42-16.5
				c-4.5-1.5-12-4.5-18-6l1.5-4.5c6-3,24-6,33-7.5C2121,1720.5,2134.5,1711.5,2149.5,1710z"/>
			<path fill="#CD3F1E" d="M2215.5,1782l4.5,6c4.5,13.5,18,12,30,12l-1.5,4.5c4.5,3,6,3,12,4.5c-7.5,3-13.5,3-21,4.5
				c-21-15-51-7.5-57-19.5l3-4.5h3l-1.5,4.5l4.5,3C2200.5,1798.5,2211,1794,2215.5,1782L2215.5,1782z"/>
			<path fill="#FCAA37" d="M2911.5,1828.5c0-4.5,1.5-4.5,4.5-9c9-4.5,21-4.5,33-4.5c19.5,6,31.5,10.5,51,18l3,25.5
				c-6,4.5-12,10.5-18,15c-12,33-19.5,16.5-43.5,28.5l-7.5,4.5c-34.5-12-73.5-15-108-3c-7.5,1.5-24,6-30,10.5
				c-31.5,21-67.5,13.5-100.5,27c-24,9-39,27-66,33c-9-4.5-22.5-12-30-18c9-9,19.5-27,18-40.5c6,1.5,10.5,0,16.5-3c6-6,4.5-3,6-10.5
				c-3-9-4.5-7.5-13.5-15l6-6c-19.5-34.5,36-49.5,60-54c30-6,55.5-3,79.5,13.5c22.5-7.5,31.5-9,55.5-9c18,3,27,3,40.5,13.5l12,1.5
				C2889,1837.5,2898,1833,2911.5,1828.5L2911.5,1828.5z"/>
			<path fill="#2C5D64" d="M2631,1882.5c-19.5-34.5,36-49.5,60-54c30-6,55.5-3,79.5,13.5c9,13.5,12,19.5,6,36
				C2736,1903.5,2674.5,1902,2631,1882.5L2631,1882.5z"/>
			<path fill="#F57F23" d="M2704.5,1855.5c7.5,0,15-1.5,22.5,1.5c-3,6-6,6-13.5,7.5c-7.5,0-18,0-24-4.5
				C2694,1857,2697,1857,2704.5,1855.5L2704.5,1855.5z"/>
			<path fill="#FCD44F" d="M2911.5,1828.5c0-4.5,1.5-4.5,4.5-9c9-4.5,21-4.5,33-4.5c19.5,6,31.5,10.5,51,18l3,25.5
				c-6,4.5-12,10.5-18,15c-12,33-19.5,16.5-43.5,28.5c-4.5-7.5-7.5-9-13.5-15c-16.5-3-24-4.5-40.5-6l-16.5,3c-15-7.5-15-6-19.5-22.5
				c9-4.5,10.5-6,16.5-15l12,1.5C2889,1837.5,2898,1833,2911.5,1828.5L2911.5,1828.5z"/>
			<path fill="#F6C03D" d="M2911.5,1828.5c0-4.5,1.5-4.5,4.5-9c9-4.5,21-4.5,33-4.5c19.5,6,31.5,10.5,51,18l3,25.5
				c-6,4.5-12,10.5-18,15c-3-9-4.5-13.5-12-18l-3-7.5c9,1.5,16.5,3,25.5,0v-3C2970,1827,2937,1824,2911.5,1828.5L2911.5,1828.5z"/>
			<path fill="#85AF52" d="M2970,1854c7.5,6,9,9,12,18c-12,33-19.5,16.5-43.5,28.5c-4.5-7.5-7.5-9-13.5-15l6-9
				c12-3,13.5-4.5,24-10.5C2961,1863,2965.5,1858.5,2970,1854L2970,1854z"/>
			<path fill="#C5C948" d="M2866.5,1846.5l12,1.5c3,6,7.5,16.5,12,22.5c-1.5,4.5-3,7.5-4.5,12l-16.5,3c-15-7.5-15-6-19.5-22.5
				C2859,1855.5,2862,1855.5,2866.5,1846.5L2866.5,1846.5z"/>
			<path fill="#F57F23" d="M2956.5,1866c-13.5-1.5-31.5,0-30-18c12-13.5,25.5-7.5,40.5-1.5l3,7.5
				C2965.5,1858.5,2961,1863,2956.5,1866z"/>
			<path fill="#F6C03D" d="M2890.5,1869c13.5,3,27,6,42,7.5l-6,9c-16.5-3-24-4.5-40.5-6C2887.5,1876.5,2889,1873.5,2890.5,1869z"/>
			<path fill="#FDE2AF" d="M2826,1833c18,3,27,3,40.5,13.5c-6,9-7.5,9-16.5,15c-6,12,4.5,15-13.5,21c-16.5,6-42,0-58.5-4.5
				c6-16.5,3-22.5-6-36C2794.5,1834.5,2802,1833,2826,1833L2826,1833z"/>
			<path fill="#FDE2AF" d="M2886,1881c16.5,1.5,24,3,40.5,6c6,6,9,7.5,13.5,15l-7.5,4.5c-34.5-12-73.5-15-108-3
				c-18-3-25.5-6-43.5-15c12,1.5,21,3,33,3c19.5-1.5,37.5-10.5,55.5-9L2886,1881z"/>
			<path fill="#DF4120" d="M2620.5,1611c18,6,19.5,19.5,24,36c1.5,0,48-13.5,58.5-15c0,4.5-1.5,10.5,0,15c6,16.5,12,16.5,28.5,25.5
				c-19.5,1.5-28.5,1.5-46.5,10.5c22.5,12,37.5,18,46.5,43.5c0,4.5-1.5,10.5-1.5,15c-22.5,54-109.5,52.5-157.5,39
				c-7.5-1.5-19.5-12-27-13.5c-6-6-7.5-7.5-10.5-15l-1.5-18c0-21,3-24,18-39l1.5-1.5c27-18,31.5-18,63-27c-3,0-6-1.5-7.5-1.5
				c-10.5-3-12-4.5-16.5-12C2592,1636.5,2610,1621.5,2620.5,1611z"/>
			<path fill="#CD3F1E" d="M2533.5,1752l1.5-9c4.5-1.5,28.5,18,37.5,21c40.5,13.5,117,15,145.5-22.5c3-3,3-3,6-4.5l3,6
				c-22.5,54-109.5,52.5-157.5,39c-7.5-1.5-19.5-12-27-13.5C2538,1761,2536.5,1759.5,2533.5,1752L2533.5,1752z"/>
			<path fill="#E85727" d="M2644.5,1647c1.5,0,48-13.5,58.5-15c0,4.5-1.5,10.5,0,15c6,16.5,12,16.5,28.5,25.5
				c-19.5,1.5-28.5,1.5-46.5,10.5c-16.5-7.5-31.5-13.5-49.5-15C2635.5,1665,2641.5,1656,2644.5,1647z"/>
			<path fill="#DF4120" d="M1047,1533c-6-55.5,58.5-72,102-70.5c19.5,3,30,6,48,15c7.5,6,18,10.5,25.5,16.5c9,10.5,19.5,21,16.5,36
				c-13.5,48-75,55.5-117,55.5l-15-3C1078.5,1575,1054.5,1564.5,1047,1533L1047,1533z"/>
			<path fill="#CD3F1E" d="M1047,1533l3-3c13.5,9,10.5,18,36,30c37.5,16.5,90,12,124.5-9c6-4.5,18-21,25.5-24l3,3
				c-13.5,48-75,55.5-117,55.5l-15-3C1078.5,1575,1054.5,1564.5,1047,1533z"/>
			<path fill="#DF4120" d="M2484,1993.5l-1.5-3c9-4.5,21-9,31.5-9l7.5,4.5c4.5-3,4.5-4.5,7.5-10.5v-6c-6-4.5-7.5-4.5-13.5-6v-1.5
				c21,3,57,22.5,73.5,37.5c4.5,3,0,9-3,12c-6,13.5-3,39-1.5,54l6,4.5c19.5,24,36,48-7.5,58.5c-15,3-33,6-48,4.5
				c-22.5-3-31.5-3-51-13.5c-3-16.5,3-16.5,12-28.5c0-7.5,0-6-7.5-12c-19.5-19.5-43.5-42-24-72C2472,2002.5,2476.5,2001,2484,1993.5
				z"/>
			<path fill="#FED37C" d="M2484,1993.5l-1.5-3c9-4.5,21-9,31.5-9l7.5,4.5c4.5-3,4.5-4.5,7.5-10.5v-6c-6-4.5-7.5-4.5-13.5-6v-1.5
				c21,3,57,22.5,73.5,37.5c4.5,3,0,9-3,12c-6,13.5-3,39-1.5,54c0,19.5,4.5,46.5-16.5,55.5c-30-1.5-22.5-84-24-108
				c-12-15-15-19.5-31.5-28.5L2484,1993.5z"/>
			<path fill="#DF4120" d="M2209.5,2137.5c3-63,69-63,117-60c9,1.5,21,4.5,28.5,7.5s33,16.5,37.5,16.5c10.5,7.5,13.5,12,22.5,21
				c1.5,13.5,1.5,24,1.5,39l-3-12c-3,0-12,9-15,10.5C2343,2199,2250,2190,2209.5,2137.5z"/>
			<path fill="#CD3F1E" d="M2299.5,2113.5c13.5,0,46.5-3,54,9c-1.5,10.5-12,18-19.5,24c-18,3-40.5,3-54-13.5c-1.5-7.5-3-4.5,1.5-12
				C2289,2116.5,2290.5,2115,2299.5,2113.5L2299.5,2113.5z"/>
			<path fill="#FB9E2F" d="M1021.5,1390.5c-4.5,18-4.5,27,7.5,43.5c33,16.5,67.5,22.5,103.5,15c1.5,13.5,0,12,13.5,15
				c-43.5-1.5-108,15-102,70.5c9,30,31.5,42,60,51c-19.5,4.5-72-3-90-10.5c49.5-66-63-78-102-82.5
				C937.5,1458,990,1416,1021.5,1390.5z"/>
			<path fill="#DF4120" d="M1014,1485C1012.5,1485,1012.5,1485,1014,1485l-3-1.5c-34.5-15-7.5-49.5,19.5-49.5
				c10.5,13.5,27,28.5,19.5,46.5C1036.5,1488,1027.5,1486.5,1014,1485L1014,1485z"/>
			<path fill="#2C5D64" d="M2199,2289c-21-64.5,138-84,160.5-13.5c0,7.5,0,15-1.5,22.5c-19.5,1.5-39,19.5-63,24
				c-25.5,4.5-45-9-63,4.5l-1.5-1.5C2211,2313,2209.5,2308.5,2199,2289L2199,2289z"/>
			<path fill="#E85727" d="M2271,2263.5c10.5,0,16.5,0,25.5,6c9,15-1.5,21-12,28.5l-7.5,1.5c-13.5-4.5-18-13.5-16.5-27
				C2263.5,2265,2260.5,2268,2271,2263.5z"/>
			<path fill="#3D8B3F" d="M2770.5,1675.5c22.5-3,42-9,66-12c10.5,3,22.5,7.5,33,10.5l16.5,16.5c12,4.5,15,6,25.5,13.5
				c16.5,4.5,39,9,48,25.5c-10.5,4.5-24,10.5-33,16.5c-3,3-4.5,7.5-7.5,10.5c-13.5-7.5-34.5-6-48,1.5l-1.5-4.5l-6-3
				c-22.5,7.5-72,10.5-85.5-13.5c-3-22.5,24-30,42-36C2799,1698,2776.5,1698,2770.5,1675.5z"/>
			<path fill="#C5C948" d="M2770.5,1675.5c22.5-3,42-9,66-12c10.5,3,22.5,7.5,33,10.5l16.5,16.5c-15,1.5-52.5,6-66,12
				C2799,1698,2776.5,1698,2770.5,1675.5z"/>
			<path fill="#FB9E2F" d="M2863.5,1752c3-3,1.5-3,4.5-6l-3-9l1.5-3c25.5,9,31.5,12,60,13.5c-3,3-4.5,7.5-7.5,10.5
				c-13.5-7.5-34.5-6-48,1.5l-1.5-4.5L2863.5,1752z"/>
			<path fill="#3D8B3F" d="M2634,1980c22.5,4.5,36,7.5,54,25.5c9,9,7.5,10.5,21,12c19.5,10.5,33,16.5,42,39c-6,10.5-9,13.5-19.5,18
				c-16.5,1.5-33,1.5-49.5,4.5c-27-4.5-45,9-91.5-6l-6-4.5c-1.5-15-6-40.5,1.5-54c10.5,3,22.5,6,33,9c6-3,13.5-6,19.5-9
				c6-6,4.5-3,6-10.5C2643,1992,2638.5,1987.5,2634,1980z"/>
			<path fill="#FB9E2F" d="M2638.5,2011.5c10.5,0,21,0,28.5,4.5l1.5,4.5c-12,15-37.5,10.5-49.5-1.5
				C2625,2017.5,2631,2014.5,2638.5,2011.5z"/>
			<path fill="#3D8B3F" d="M2466,2196c19.5,4.5,34.5,9,54,13.5c7.5,3,28.5,9,31.5,15c-18,21-52.5,15-81,19.5
				c12,4.5,34.5,7.5,30,22.5c-21,21-78,15-103.5,6c-48-33,7.5-66,39-76.5C2443.5,2196,2457,2196,2466,2196z"/>
			<path fill="#F6C03D" d="M2442,2220c10.5,0,21,0,28.5,7.5c-3,6-6,6-12,10.5c-1.5,0-3,0-6,0c-9-1.5-18-1.5-24-9
				C2433,2221.5,2433,2223,2442,2220L2442,2220z"/>
			<path fill="#3D8B3F" d="M2319,1906.5c36,6,46.5,16.5,76.5,25.5l3,3c-1.5,12-1.5,15-9,25.5c-51,33-102,36-160.5,24h-3
				c1.5-15,10.5-16.5,22.5-22.5c3,0,36-7.5,42-9c-1.5-6-1.5-6-1.5-10.5l7.5-6c-10.5-3-33-6-33-18
				C2274,1903.5,2304,1906.5,2319,1906.5L2319,1906.5z"/>
			<path fill="#FB9E2F" d="M2296.5,1933.5l31.5,6l4.5,9c-18,3-25.5,3-43.5,1.5c-1.5-6-1.5-6-1.5-10.5L2296.5,1933.5z"/>
			<path fill="#207B28" d="M2328,1939.5c0-7.5-1.5-7.5,1.5-12c7.5,1.5,9,7.5,12,13.5l-1.5,6c-4.5,1.5-3,1.5-7.5,1.5L2328,1939.5z"/>
			<path fill="#FB9E2F" d="M2463,2005.5l3,4.5c-21,28.5,3,51,24,72c7.5,7.5,7.5,4.5,7.5,12c-9,12-15,13.5-12,28.5
				c-16.5,9-46.5,7.5-64.5,1.5c-1.5,0-3-1.5-4.5-1.5c-9-9-12-13.5-22.5-21c-4.5-1.5-30-13.5-37.5-16.5c21-3,51-16.5,51-42
				c-3-7.5-6-9-13.5-13.5v-7.5C2418,2031,2445,2022,2463,2005.5L2463,2005.5z"/>
			<path fill="#FDE2AF" d="M2394,2101.5c6-4.5,15-7.5,21-12c27-21,43.5-19.5,75-9c7.5,7.5,7.5,4.5,7.5,12c-9,12-15,13.5-12,28.5
				c-16.5,9-46.5,7.5-64.5,1.5c-1.5,0-3-1.5-4.5-1.5C2407.5,2113.5,2403,2110.5,2394,2101.5L2394,2101.5z"/>
			<path fill="#2C5D64" d="M2731.5,2074.5l19.5,3c55.5,27,28.5,55.5-19.5,64.5l-9,1.5c-13.5,0-39-1.5-52.5-7.5
				c-46.5-22.5-24-43.5,9-57C2698.5,2076,2715,2074.5,2731.5,2074.5z"/>
			<path fill="#E85727" d="M2713.5,2101.5c7.5,0,10.5-1.5,16.5,1.5v3l-7.5,4.5c-7.5,0-10.5,0-18-1.5v-3L2713.5,2101.5z"/>
			<path fill="#DF4120" d="M915,1491c39,4.5,151.5,16.5,102,82.5c-4.5-1.5-24-6-30-6c-16.5-31.5-31.5-24-58.5-10.5
				c-45-10.5-33-27-16.5-61.5L915,1491z"/>
			<path fill="#3D8B3F" d="M1995,2101.5c22.5-12,49.5-22.5,75-13.5c46.5,18,63,27,114,28.5c-33,13.5-64.5,19.5-99,19.5
				c-12,3-25.5,7.5-37.5,7.5l-15-3l-3-4.5l1.5-4.5c6-6,13.5-9,21-13.5c-10.5-12-70.5,39-82.5,13.5
				C1972.5,2115,1983,2112,1995,2101.5z"/>
			<path fill="#207B28" d="M2098.5,2106c-1.5,21-10.5,12-13.5,30c-12,3-25.5,7.5-37.5,7.5l-15-3l-3-4.5l1.5-4.5c6-6,13.5-9,21-13.5
				c1.5,0,7.5-3,9-3C2077.5,2104.5,2080.5,2104.5,2098.5,2106z"/>
			<path fill="#125612" d="M2061,2113.5c16.5-9,18-10.5,37.5-9c-9,10.5-21,24-34.5,13.5L2061,2113.5z"/>
			<path fill="#DF4120" d="M1867.5,2053.5c6-1.5,13.5-3,18-4.5c27-9,132,6,97.5,52.5c-15,6-37.5,9-52.5,4.5
				c-27-4.5-75-10.5-70.5-46.5L1867.5,2053.5z"/>
			<path fill="#F6C03D" d="M1912.5,2070c12,0,31.5-3,36,12c-1.5,4.5-3,4.5-6,7.5c-6,0-12,0-18,0c-9,0-13.5-1.5-18-7.5
				C1906.5,2074.5,1906.5,2077.5,1912.5,2070L1912.5,2070z"/>
			<path fill="#FB9E2F" d="M2869.5,1759.5c13.5-7.5,34.5-9,48-1.5v1.5c-6,12-6,22.5-1.5,34.5c10.5,7.5,19.5,16.5,31.5,21
				c-12,1.5-24,0-33,4.5c-3,4.5-3,4.5-4.5,9c-13.5,4.5-21,9-31.5,19.5l-12-1.5c-15-10.5-22.5-10.5-40.5-13.5l-9-6
				c28.5-1.5,42-21,22.5-43.5l-10.5-6C2841,1770,2853,1771.5,2869.5,1759.5L2869.5,1759.5z"/>
			<path fill="#FDE2AF" d="M2869.5,1759.5c13.5-7.5,34.5-9,48-1.5v1.5c-6,12-6,22.5-1.5,34.5c-21,16.5-54-6-75-10.5h-1.5l-10.5-6
				C2841,1770,2853,1771.5,2869.5,1759.5z"/>
			<path fill="#FDE2AF" d="M2539.5,1885.5l1.5-4.5c10.5-10.5,39-4.5,58.5-12c10.5,7.5,16.5,12,25.5,19.5s10.5,6,13.5,15
				c-1.5,7.5,0,6-6,10.5c-6,1.5-10.5,3-16.5,3c1.5,13.5-7.5,31.5-18,40.5c-18-1.5-22.5-1.5-36-13.5l12-7.5
				c-10.5-15-16.5-16.5-33-22.5c4.5-3,13.5-6,19.5-7.5c0-3-1.5-7.5-1.5-10.5C2554.5,1890,2548.5,1888.5,2539.5,1885.5L2539.5,1885.5
				z"/>
			<path fill="#85AF52" d="M2610,1918.5l6-1.5c1.5,13.5-7.5,31.5-18,40.5c-18-1.5-22.5-1.5-36-13.5l12-7.5
				C2590.5,1926,2598,1933.5,2610,1918.5z"/>
			<path fill="#C5C948" d="M2560.5,1906.5c13.5,3,37.5,9,49.5,10.5c-13.5,15-19.5,9-36,18c-10.5-15-16.5-16.5-33-22.5
				C2545.5,1911,2556,1908,2560.5,1906.5z"/>
			<path fill="#FDE2AF" d="M2332.5,2056.5c-12-6-22.5-6-25.5-19.5c13.5-25.5,63-18,85.5-7.5c6,4.5,10.5,6,13.5,13.5
				c1.5,24-30,39-51,42c-7.5-3-21-4.5-28.5-7.5L2332.5,2056.5z"/>
			<path fill="#DF4120" d="M2817,1827c-19.5-3-70.5-16.5-76.5-37.5c7.5-30,66-19.5,88.5-13.5l10.5,6
				C2860.5,1807.5,2845.5,1825.5,2817,1827z"/>
			<path fill="#F6C03D" d="M2788.5,1788c10.5-1.5,16.5-1.5,24,6c1.5,7.5,1.5,4.5-1.5,10.5c-7.5,4.5-12,3-21,3c-1.5,0-4.5,0-6,0
				c-9,0-15,0-21-7.5l1.5-4.5C2770.5,1789.5,2779.5,1789.5,2788.5,1788z"/>
			<path fill="#CD3F1E" d="M2209.5,2137.5c40.5,52.5,133.5,61.5,189,22.5c4.5-3,12-12,15-10.5l3,12
				C2376,2226,2211,2212.5,2209.5,2137.5z"/>
			<path fill="#FDE2AF" d="M2520,2211c30-22.5,66-31.5,102-15c-4.5,12-6,16.5-6,30l-1.5,6c-18,10.5-51,15-63-6
				C2548.5,2218.5,2527.5,2212.5,2520,2211L2520,2211z"/>
			<path fill="#FDE2AF" d="M2488.5,1729.5l7.5-1.5c10.5,1.5,25.5,1.5,36,4.5l1.5,18c3,7.5,4.5,9,10.5,15
				c-13.5,22.5-76.5,16.5-88.5-9c4.5-6,6-7.5,9-15c-3-7.5-3-6-10.5-10.5C2464.5,1732.5,2478,1731,2488.5,1729.5z"/>
			<path fill="#FB9E2F" d="M2454,1732.5c10.5,0,22.5-1.5,34.5-1.5c-12,18-12,19.5-31.5,28.5c4.5-6,6-7.5,9-15
				C2461.5,1735.5,2461.5,1737,2454,1732.5z"/>
			<path fill="#FCD44F" d="M2055,1948.5c13.5,1.5,19.5,6,33,12c-3,19.5-30,19.5-46.5,22.5c-18,3-57,10.5-69-7.5
				C1972.5,1947,2035.5,1950,2055,1948.5z"/>
			<path fill="#3D8B3F" d="M2389.5,1980c28.5-1.5,64.5-9,73.5,24c-18,16.5-45,27-69,16.5c-10.5-6-21-10.5-22.5-22.5
				C2374.5,1990.5,2382,1986,2389.5,1980z"/>
			<path fill="#FDE2AF" d="M2419.5,1783.5c13.5,1.5,54,4.5,54,22.5c-12,15-60,22.5-78,19.5c-6-1.5-16.5-6-22.5-9l-1.5-12
				C2385,1801.5,2406,1789.5,2419.5,1783.5z"/>
			<path fill="#FDE2AF" d="M2731.5,1672.5l18,3c10.5,12,13.5,18,21,31.5c-13.5,7.5-25.5,13.5-39,19.5c-9-25.5-24-31.5-46.5-43.5
				C2703,1674,2712,1674,2731.5,1672.5z"/>
			<path fill="#DF4120" d="M2434.5,2197.5c-9-3-10.5-4.5-15-12c-4.5-27,42-45,63-30c6,13.5-6,31.5-16.5,40.5
				C2457,2196,2443.5,2196,2434.5,2197.5L2434.5,2197.5z"/>
			<path fill="#FCD44F" d="M2091,2178c19.5-15,75-27,76.5,6c-6,12-19.5,13.5-33,16.5C2121,2194.5,2101.5,2191.5,2091,2178L2091,2178
				z"/>
			<path fill="#FED37C" d="M2215.5,1845c-7.5-6-7.5-4.5-9-10.5l3-4.5c12-7.5,37.5-4.5,51-3c9,4.5,12,4.5,19.5,12
				C2269.5,1864.5,2236.5,1852.5,2215.5,1845z"/>
			<path fill="#FCD44F" d="M2583,2130c7.5,3,7.5,3,13.5,9c1.5,7.5,1.5,4.5-3,10.5c-15,9-60,18-72,4.5c1.5-6,7.5-10.5,13.5-16.5
				C2550,2136,2568,2133,2583,2130L2583,2130z"/>
			<path fill="#FDE2AF" d="M2563.5,1944c-13.5,1.5-60,1.5-55.5-19.5c9-9,22.5-9,34.5-10.5c16.5,6,22.5,7.5,33,22.5L2563.5,1944z"/>
			<path fill="#FED37C" d="M2514,1878c27-22.5,55.5-22.5,87-9c-19.5,7.5-49.5,1.5-58.5,12l-1.5,4.5
				C2532,1882.5,2521.5,1879.5,2514,1878z"/>
			<path fill="#CD3F1E" d="M2286,1840.5c25.5-6,42,7.5,67.5-16.5c4.5-4.5,10.5-7.5,16.5-6C2358,1855.5,2317.5,1858.5,2286,1840.5
				L2286,1840.5z"/>
			<path fill="#F6C03D" d="M2394,1930.5l3-1.5c25.5,10.5,52.5,21,78,33c3,1.5,7.5,10.5,7.5,13.5c-12-9-46.5-10.5-61.5-16.5
				c4.5,0,19.5-3,22.5-4.5c-3-4.5-3-4.5-9-6l-36-16.5L2394,1930.5z"/>
			<path fill="#E85727" d="M2398.5,1933.5l36,16.5c-13.5,6-30,10.5-45,10.5C2397,1948.5,2397,1945.5,2398.5,1933.5z"/>
			<path fill="#53A661" d="M2055,2001c22.5-1.5,36,6,58.5,9c10.5,1.5,21-4.5,34.5-4.5l1.5,3c-12,34.5-67.5,30-94.5,30
				c3,9,13.5,13.5,15,19.5c-9,9-49.5,10.5-58.5,3C1974,2031,2037,2004,2055,2001L2055,2001z"/>
			<path fill="#3D8B3F" d="M2446.5,1860c-1.5-6-4.5-10.5-3-16.5c6-13.5,25.5-22.5,39-27c45-13.5,60,4.5,109.5-7.5
				c-30,39-48,34.5-94.5,34.5c6,6,12,10.5,12,18c-7.5,12-28.5,7.5-42,7.5L2446.5,1860z"/>
			<path fill="#2C5D64" d="M2388,1891.5c13.5-7.5,36-10.5,43.5-18c4.5-12,4.5-10.5,16.5-13.5l22.5,9c7.5,10.5,22.5,27,21,40.5
				C2475,1933.5,2407.5,1903.5,2388,1891.5z"/>
			<path fill="#DF4120" d="M2190,2019c13.5-3,19.5,1.5,33,3c-1.5,10.5-6,12-7.5,18c-4.5,13.5,18,24-3,36c-18,7.5-49.5,7.5-55.5-16.5
				C2175,2044.5,2178,2032.5,2190,2019L2190,2019z"/>
			<path fill="#CD3F1E" d="M2157,2059.5c16.5,3,49.5,1.5,55.5,16.5C2194.5,2083.5,2163,2083.5,2157,2059.5z"/>
			<path fill="#F6C03D" d="M2190,2019c-6-3-7.5-3-12-7.5l-1.5-4.5c10.5-13.5,42-15,57-12l4.5,3c-1.5,9-4.5,9-6,19.5l-9,4.5
				C2211,2019,2203.5,2016,2190,2019L2190,2019z"/>
			<path fill="#CD3F1E" d="M2352,1855.5c12-1.5,36-1.5,39,13.5c-3,6-6,6-12,9c-12,0-30-3-37.5-12l1.5-4.5L2352,1855.5z"/>
			<path fill="#FCAA37" d="M853.5,2112v-12c0-46.5,13.5-123,48-156c-12,37.5-16.5,63,1.5,99c57,114,252,192,369,228
				c558,180,1329,193.5,1897.5,51c105-27,219-55.5,315-106.5c67.5-34.5,172.5-103.5,196.5-180c6-18,6-36,6-54
				c10.5,43.5,12,67.5,19.5,108c90,73.5,151.5,145.5,61.5,256.5c-30,37.5-72,64.5-112.5,90c-244.5,141-610.5,204-888,226.5
				c-531,40.5-1081.5,24-1597.5-115.5c-126-33-252-78-354-159c-124.5-97.5-93-237,36-307.5C852,2091,850.5,2106,853.5,2112z"/>
			<path fill="#CD3F1E" d="M3706.5,2092.5c90,73.5,151.5,145.5,61.5,256.5c-30,37.5-72,64.5-112.5,90
				c-244.5,141-610.5,204-888,226.5c-531,40.5-1081.5,24-1597.5-115.5c-126-33-252-78-354-159c-124.5-97.5-93-237,36-307.5
				c0,7.5-1.5,22.5,1.5,28.5c4.5,54,13.5,91.5,48,135c58.5,90,256.5,175.5,358.5,205.5c19.5,6,57,19.5,76.5,24c3,0,4.5,1.5,7.5,1.5
				c36,13.5,76.5,21,112.5,28.5c136.5,33,274.5,49.5,414,63c166.5,16.5,333,25.5,501,22.5c319.5-4.5,1038-88.5,1269-327
				C3690,2214,3708,2161.5,3706.5,2092.5L3706.5,2092.5z"/>
			<path fill="#FB9E2F" d="M925.5,2215.5c79.5-27,103.5,34.5,165,70.5c52.5,31.5,141,37.5,184.5,76.5c4.5,13.5,4.5,24,16.5,31.5
				c27,16.5,61.5,7.5,88.5,16.5c12,4.5,21,22.5,39,25.5c6-1.5,7.5-3,13.5-7.5c27-3,51,30,75,15c1.5-3,3-6,6-9c28.5,9,72,30,102,42
				c-61.5,4.5-108,10.5-168-4.5c-9-1.5-99,0-102,3c-3,0-4.5-1.5-7.5-1.5c-19.5-4.5-57-18-76.5-24c-102-30-298.5-115.5-358.5-205.5
				C912,2239.5,912,2227.5,925.5,2215.5z"/>
			<path fill="#FB9E2F" d="M3525,2233.5l3,1.5v4.5c-22.5,52.5-100.5,69-153,70.5l-1.5-1.5v-3c33-18,51-15,76.5-45
				C3454.5,2254.5,3511.5,2235,3525,2233.5z"/>
			<path fill="#FCAA37" d="M1480.5,1704c15,4.5,49.5,4.5,55.5,10.5c10.5-1.5,25.5,0,34.5,7.5c4.5,3,3,10.5,4.5,16.5l1.5-9
				c10.5-6,33,1.5,48,3c18,4.5,34.5,9,52.5,12c10.5,3,39,9,46.5,13.5l1.5,4.5l3-1.5c18,4.5,78,27,85.5,28.5c12,4.5,21,7.5,33,12
				c4.5,1.5,21,10.5,24,13.5c9-3,40.5,4.5,51,7.5c-9,43.5,1.5,85.5,19.5,124.5c10.5,39,4.5,31.5-24,48c13.5,3,30,10.5,39,19.5
				c9,30-67.5,18-88.5,42l-7.5,7.5c-4.5,36,45,42,70.5,46.5c16.5,3,37.5,0,52.5-4.5h10.5c-12,9-22.5,13.5-24,28.5
				c12,25.5,72-25.5,82.5-13.5c-7.5,3-16.5,6-21,13.5l-1.5,4.5l3,4.5l15,3c15,7.5,22.5,9,36,21c-18,18-40.5,28.5-66,34.5
				c7.5,4.5,10.5,1.5,19.5,0l-18,7.5c0,3-1.5,1.5,0,3c-19.5,9-54,24-60,48c-1.5,12,0,16.5-10.5,24c-15,6-33-12-48-4.5
				c1.5,6,1.5,7.5,0,13.5c-9,7.5-49.5,6-60-1.5c-6-4.5-4.5-13.5-6-19.5c-13.5-24-97.5-10.5-129-18c-21-3-39-15-57-22.5
				c-16.5-6-33-7.5-51-12c-21-4.5-45-12-66-4.5c-13.5,4.5-15,15-25.5,19.5c-15-1.5-33-19.5-43.5-30c-16.5,1.5-52.5,10.5-55.5-9
				c-6-31.5-37.5-34.5-63-24l-1.5-4.5c-4.5,1.5-9,3-15,4.5c-1.5-15-9-18-12-34.5c-10.5,0-22.5,1.5-33,3l-4.5,1.5l-1.5,1.5
				c-3,6-6,9-7.5,12c-13.5-3-36-15-51-18c-12-3-45-21-36-37.5c6-4.5,27-1.5,39-4.5h1.5c16.5-1.5,25.5-4.5,33-21
				c-33-46.5-78-10.5-90-57c-31.5-10.5-31.5-1.5-55.5-27l-3,15c0-15-3-33-4.5-49.5c-10.5-6-16.5-10.5-25.5-18v-1.5
				c81-115.5,274.5-177,400.5-213C1482,1716,1480.5,1711.5,1480.5,1704L1480.5,1704z"/>
			<path fill="#E85727" d="M1575,1737l1.5-9c10.5-6,33,1.5,48,3c18,4.5,34.5,9,52.5,12c10.5,3,39,9,46.5,13.5l1.5,4.5l3-1.5
				c18,4.5,78,27,85.5,28.5c12,4.5,21,7.5,33,12c4.5,1.5,21,10.5,24,13.5c9-3,40.5,4.5,51,7.5c-9,43.5,1.5,85.5,19.5,124.5
				c10.5,39,4.5,31.5-24,48c-16.5,0-22.5-7.5-34.5-19.5c-22.5-9-46.5-4.5-69,1.5l-3-3h4.5c-16.5-12-36-16.5-51-28.5
				c-1.5-1.5,0-4.5,0-7.5c-21-6-93,4.5-109.5-7.5c-7.5,7.5-24,6-36,7.5l-21,6c-19.5-1.5-55.5-10.5-69-25.5l1.5-3
				C1584,1894.5,1576.5,1786.5,1575,1737L1575,1737z"/>
			<path fill="#FED37C" d="M1575,1737l1.5-9c10.5-6,33,1.5,48,3c-12,49.5-6,141,21,184.5c3,4.5,6,9,9,13.5c-7.5,7.5-24,6-36,7.5
				l-21,6c-19.5-1.5-55.5-10.5-69-25.5l1.5-3C1584,1894.5,1576.5,1786.5,1575,1737L1575,1737z"/>
			<path fill="#FED37C" d="M1870.5,1813.5c9-3,40.5,4.5,51,7.5c-9,43.5,1.5,85.5,19.5,124.5c10.5,39,4.5,31.5-24,48
				c-16.5,0-22.5-7.5-34.5-19.5v-31.5C1882.5,1891.5,1881,1863,1870.5,1813.5z"/>
			<path fill="#FED37C" d="M1815,1788c12,4.5,21,7.5,33,12c0,12,25.5,123-28.5,91.5C1806,1882.5,1813.5,1807.5,1815,1788L1815,1788z
				"/>
			<path fill="#F6C03D" d="M1764,1935c37.5,1.5,82.5,6,118.5,6v31.5c-22.5-9-46.5-4.5-69,1.5l-3-3h4.5c-16.5-12-36-16.5-51-28.5
				C1762.5,1942.5,1762.5,1939.5,1764,1935z"/>
			<path fill="#FED37C" d="M1677,1743c10.5,3,39,9,46.5,13.5l1.5,4.5v1.5c-1.5,15-7.5,58.5-34.5,36
				C1675.5,1786.5,1675.5,1762.5,1677,1743L1677,1743z"/>
			<path fill="#E85727" d="M1480.5,1704c15,4.5,49.5,4.5,55.5,10.5c10.5-1.5,25.5,0,34.5,7.5c4.5,3,3,10.5,4.5,16.5
				c1.5,49.5,9,157.5-46.5,177c-45-10.5-58.5-4.5-109.5-25.5c-42-30-64.5-28.5-108-6l-25.5,4.5c-3-10.5-6-18-10.5-28.5
				c-25.5-13.5-37.5-15-66-18c90-52.5,180-78,279-108c-3-9,0-6-7.5-10.5C1482,1716,1480.5,1711.5,1480.5,1704z"/>
			<path fill="#FED37C" d="M1480.5,1704c15,4.5,49.5,4.5,55.5,10.5c0,24,10.5,117-37.5,84c-10.5-7.5-13.5-52.5-13.5-66
				c-3-9,0-6-7.5-10.5C1482,1716,1480.5,1711.5,1480.5,1704L1480.5,1704z"/>
			<path fill="#DF4120" d="M1771.5,2151c49.5-58.5,124.5-31.5,177,6c4.5,7.5,7.5,12,10.5,19.5c-1.5,64.5-82.5,61.5-129,63
				c-37.5,0-64.5-21-66-58.5C1765.5,2167.5,1767,2163,1771.5,2151z"/>
			<path fill="#CD3F1E" d="M1845,2130c15,0,25.5,1.5,33,15c0,16.5-12,18-25.5,19.5c-15,0-36,1.5-36-18
				C1822.5,2136,1831.5,2134.5,1845,2130z"/>
			<path fill="#F6C03D" d="M1831.5,2140.5c4.5,0,7.5,0,12,0c7.5,0,16.5,0,22.5,6v4.5l-7.5,6c-10.5,1.5-25.5,3-34.5-4.5l1.5-4.5
				L1831.5,2140.5z"/>
			<path fill="#F6C03D" d="M1876.5,2185.5c6-21,33-19.5,46.5-9c1.5,7.5,1.5,4.5-1.5,10.5l-1.5-1.5
				C1911,2197.5,1887,2196,1876.5,2185.5L1876.5,2185.5z"/>
			<path fill="#CD3F1E" d="M1876.5,2185.5c6-21,33-19.5,46.5-9c1.5,7.5,1.5,4.5-1.5,10.5l-1.5-1.5
				C1902,2175,1894.5,2176.5,1876.5,2185.5L1876.5,2185.5z"/>
			<path fill="#FCD44F" d="M1819.5,2182.5c9,1.5,9,1.5,13.5,7.5l-1.5,4.5c-6,6-10.5,6-18,6c-9-1.5-9,0-15-6l1.5-4.5
				C1807.5,2185.5,1812,2184,1819.5,2182.5L1819.5,2182.5z"/>
			<path fill="#DF4120" d="M1617,1935c19.5,0,37.5-1.5,51,12c13.5,13.5,9,19.5,18,31.5v1.5c-7.5,21-4.5,28.5-33,42
				c-33,15-84,16.5-117,4.5c-12-4.5-25.5-21-36-21c7.5-43.5,60-52.5,96-63L1617,1935z"/>
			<path fill="#DF4120" d="M1102.5,1953c7.5-25.5,37.5-58.5,61.5-69c72-31.5,49.5,28.5,42,63c7.5,15,37.5,58.5,9,67.5
				c-12,4.5-37.5,1.5-49.5-1.5c-31.5-10.5-31.5-1.5-55.5-27l-3,15C1108.5,1987.5,1104,1969.5,1102.5,1953L1102.5,1953z"/>
			<path fill="#2C5D64" d="M1813.5,1974c22.5-6,46.5-9,69-1.5c10.5,10.5,18,19.5,34.5,19.5c13.5,3,30,10.5,39,19.5
				c9,30-67.5,18-88.5,42l-7.5,7.5c-16.5,6-48,6-63-7.5c-13.5-13.5-12-21-12-39c-1.5-18,3-22.5,15-34.5
				C1803,1980,1810.5,1975.5,1813.5,1974L1813.5,1974z"/>
			<path fill="#FCAA37" d="M1845,1996.5c9,0,25.5,0,28.5,7.5c-3,6-6,6-13.5,9c-10.5,1.5-25.5,1.5-30-7.5
				C1836,1998,1837.5,1999.5,1845,1996.5L1845,1996.5z"/>
			<path fill="#3D8B3F" d="M1696.5,2179.5c-28.5,3-96,4.5-111-22.5c-3-4.5-3-10.5-1.5-15c7.5-19.5,39-34.5,57-43.5
				c-3,9-6,19.5-6,28.5l3,3l10.5-1.5l4.5,4.5c0,9,13.5,12,21,15c10.5,4.5,27,10.5,34.5,18C1711.5,2173.5,1705.5,2175,1696.5,2179.5
				L1696.5,2179.5z"/>
			
				<linearGradient id="SVGID_00000067193872146088060110000017458206272415470510_" gradientUnits="userSpaceOnUse" x1="1673.641" y1="3025.2297" x2="1714.6089" y2="2968.1787" gradientTransform="matrix(1 0 0 1 0 -878)">
				<stop  offset="0" style="stop-color:#287D2D"/>
				<stop  offset="1" style="stop-color:#419342"/>
			</linearGradient>
			<path fill="url(#SVGID_00000067193872146088060110000017458206272415470510_)" d="M1641,2095.5c24-6,45-7.5,69,0
				c13.5,3,46.5,12,51,27c-6,12-31.5,12-45,12h-6c-10.5,3-25.5,4.5-36,10.5c-7.5-1.5-21-6-21-15l-4.5-4.5l-10.5,1.5l-3-3
				C1635,2115,1639.5,2104.5,1641,2095.5z"/>
			<path fill="#F6C03D" d="M1653,2130c19.5,0,37.5,0,57,4.5c-10.5,3-25.5,4.5-36,10.5C1666.5,2142,1653,2137.5,1653,2130L1653,2130z
				"/>
			<path fill="#FDE2AF" d="M2032.5,2140.5l15,3c15,7.5,22.5,9,36,21c-18,18-40.5,28.5-66,34.5c-22.5-6-33-9-51-24c6-7.5,9-9,18-12
				C2008.5,2155.5,2017.5,2139,2032.5,2140.5L2032.5,2140.5z"/>
			<path fill="#FDE2AF" d="M1698,1989c24-21,76.5-33,103.5-7.5c-13.5,12-16.5,16.5-15,34.5c-13.5,4.5-48,16.5-54,3
				C1723.5,1995,1717.5,2001,1698,1989L1698,1989z"/>
			<path fill="#FCD44F" d="M1315.5,2136c-3-22.5-27-16.5-39-30l-1.5-6c28.5-28.5,132,15,67.5,64.5c-4.5,1.5-9,3-15,4.5
				C1326,2154,1320,2151,1315.5,2136z"/>
			<path fill="#FDE2AF" d="M1710,2134.5h6c18,3,40.5,6,55.5,16.5c-4.5,12-6,16.5-7.5,28.5c-21,9-49.5,18-67.5-1.5
				c9-4.5,15-6,12-16.5c-7.5-7.5-24-13.5-34.5-18C1683,2139,1698,2136,1710,2134.5L1710,2134.5z"/>
			<path fill="#CD3F1E" d="M1686,1978.5l6,15c-1.5,49.5-72,57-109.5,55.5c-30-1.5-75-10.5-84-45c10.5,0,24,16.5,36,21
				c34.5,12,85.5,12,117-4.5C1680,2008.5,1677,2001,1686,1978.5L1686,1978.5z"/>
			<path fill="#FCD44F" d="M1309.5,1881c45-22.5,66-22.5,108,6C1399.5,1920,1332,1899,1309.5,1881z"/>
			<path fill="#F6C03D" d="M1948.5,2157c15-1.5,22.5-4.5,34.5,6c-9,3-12,4.5-18,12c-1.5,0-6,1.5-7.5,1.5
				C1956,2169,1953,2163,1948.5,2157z"/>
			<path fill="#3D8B3F" d="M1278,1966.5c-10.5-4.5-27-9-34.5-18c4.5-4.5,33-16.5,40.5-19.5c22.5-9,57-21,57,16.5c30,27,4.5,45,12,60
				c13.5,6,31.5,4.5,46.5,7.5c87,19.5,19.5,61.5-21,84c-28.5-13.5-30-18-16.5-46.5l-3-1.5c-33-12-87,0-106.5-28.5
				C1236,2001,1263,1977,1278,1966.5L1278,1966.5z"/>
			<path fill="#FDE2AF" d="M1278,1966.5c-10.5-4.5-27-9-34.5-18c4.5-4.5,33-16.5,40.5-19.5c22.5-9,57-21,57,16.5
				C1312.5,1950,1302,1954.5,1278,1966.5L1278,1966.5z"/>
			<path fill="#125612" d="M1320,2020.5c13.5-1.5,30,1.5,40.5,10.5C1348.5,2031,1324.5,2034,1320,2020.5z"/>
			<path fill="#DF4120" d="M1375.5,2134.5c0-1.5,1.5-3,1.5-3c10.5-18,37.5-34.5,58.5-30c10.5,1.5,21,9,28.5,7.5c0-6,0-7.5,3-12
				c27-18,84-18,82.5,24c-6,16.5-10.5,19.5-27,25.5c-13.5,0-46.5,15-67.5,18C1431,2163,1375.5,2172,1375.5,2134.5L1375.5,2134.5z"/>
			<path fill="#CD3F1E" d="M1375.5,2134.5c58.5,31.5,117,16.5,171-18l4.5,1.5c-6,16.5-10.5,19.5-27,25.5c-13.5,0-46.5,15-67.5,18
				C1431,2163,1375.5,2172,1375.5,2134.5L1375.5,2134.5z"/>
			<path fill="#FDE2AF" d="M1456.5,2163c21-4.5,54-18,67.5-18c13.5,7.5,19.5,19.5,31.5,28.5c6,4.5,15,9,22.5,12
				c-30,12-48,15-81,16.5c-13.5-7.5-46.5-19.5-49.5-30C1450.5,2166,1450.5,2167.5,1456.5,2163z"/>
			<path fill="#DF4120" d="M1408.5,1926c18,4.5,37.5,36,25.5,55.5c-6,6-10.5,6-19.5,6C1360.5,1983,1387.5,1954.5,1408.5,1926z"/>
			<path fill="#FCD44F" d="M1726.5,2035.5c21-1.5,61.5,7.5,61.5,33c-6,4.5-7.5,3-16.5,4.5c-15,0-70.5-7.5-64.5-28.5
				C1714.5,2038.5,1717.5,2038.5,1726.5,2035.5L1726.5,2035.5z"/>
			<path fill="#FCD44F" d="M1464,2016c15-1.5,52.5,6,43.5,28.5c-6,6-9,6-16.5,9c-16.5,3-30,3-42-9
				C1441.5,2026.5,1452,2023.5,1464,2016z"/>
			<path fill="#FCD44F" d="M1702.5,2203.5c7.5-1.5,10.5-1.5,18,0c13.5,6,16.5,13.5,10.5,25.5c-7.5,4.5-6,3-18,4.5
				c-10.5-3-34.5-7.5-30-22.5C1690.5,2203.5,1693.5,2203.5,1702.5,2203.5L1702.5,2203.5z"/>
			<path fill="#DF4120" d="M1588.5,2190c12-1.5,39,0,37.5,15l-7.5,6c-13.5,0-30,0-39-10.5C1581,2193,1579.5,2196,1588.5,2190z"/>
			<path fill="#DF4120" d="M1852.5,2272.5c10.5,0,25.5-3,34.5,4.5v4.5l-6,6c-10.5,1.5-31.5,4.5-34.5-9L1852.5,2272.5z"/>
			<path fill="#FB9E2F" d="M2868,1636.5h1.5c1.5,1.5,3,3,4.5,4.5c24,4.5,54,10.5,78,15c49.5,10.5,100.5,24,150,36
				c72,19.5,139.5,40.5,208.5,69c60,25.5,94.5,52.5,145.5,91.5c42,33,66,15,72,88.5c9,108-115.5,177-202.5,208.5
				c-172.5,70.5-442.5,138-627,157.5c1.5-7.5,13.5-12,19.5-15l-1.5-3l-12-3c-10.5,0-24-4.5-34.5-7.5c-24-10.5-33-16.5-48-36
				c-3-10.5-3-12-3-22.5h-1.5c0-13.5,1.5-18,6-30c24-39,72-42,114-43.5l-10.5-9l9-1.5c46.5-9,73.5-37.5,19.5-64.5l-19.5-3
				c10.5-6,13.5-9,19.5-18c-9-21-24-27-42-39c-12-1.5-12-3-21-12c-16.5-18-30-21-54-25.5l-6-4.5c27-6,42-24,66-33
				c33-13.5,69-6,100.5-27c6-4.5,22.5-9,30-10.5c34.5-12,75-9,108,3l7.5-4.5c24-12,30,3,43.5-28.5c6-4.5,12-9,18-15l-3-25.5
				c-18-7.5-31.5-12-51-18c-12-4.5-21-12-31.5-21c-4.5-12-4.5-22.5,1.5-34.5v-1.5c3-3,4.5-6,7.5-10.5c9-6,22.5-12,33-16.5
				c-9-15-31.5-21-48-25.5c-10.5-7.5-13.5-9-25.5-13.5l-16.5-16.5c-9-4.5-22.5-7.5-33-10.5C2851.5,1659,2866.5,1654.5,2868,1636.5
				L2868,1636.5z"/>
			<path fill="#E85727" d="M3084,2133c73.5-19.5,66,7.5,130.5,16.5c4.5,0,12,1.5,16.5-3c-3-24,25.5-24,34.5-12c-3,6-1.5,4.5-10.5,9
				c16.5,9,60,3,69,7.5c-172.5,70.5-442.5,138-627,157.5c1.5-7.5,13.5-12,19.5-15l-1.5-3l-12-3c-10.5,0-24-4.5-34.5-7.5
				c-24-10.5-33-16.5-48-36c-3-10.5-3-12-3-22.5h-1.5c0-13.5,1.5-18,6-30c24-39,72-42,114-43.5c37.5,6,55.5,22.5,88.5,21l-10.5,3v3
				c15,13.5,22.5,18,22.5,37.5c0,1.5,0,3,0,4.5c0,6,0,7.5,1.5,13.5c13.5,3,30-22.5,43.5-28.5c30-13.5,88.5,13.5,111-10.5
				c6-28.5,21-28.5,45-34.5h1.5c12,0,18-3,28.5-6L3084,2133z"/>
			<path fill="#DF4120" d="M2734.5,2151c37.5,6,55.5,22.5,88.5,21l-10.5,3v3c15,13.5,22.5,18,22.5,37.5c0,1.5,0,3,0,4.5l-1.5,4.5
				c4.5,51-52.5,63-93,69c-13.5,1.5-25.5-1.5-39,0c-10.5,0-24-4.5-34.5-7.5c-24-10.5-33-16.5-48-36c-3-10.5-3-12-3-22.5h-1.5
				c0-13.5,1.5-18,6-30C2646,2155.5,2694,2152.5,2734.5,2151L2734.5,2151z"/>
			<path fill="#CD3F1E" d="M2617.5,2224.5h4.5l1.5,1.5c42,60,169.5,61.5,211.5-4.5c4.5,51-52.5,63-93,69c-13.5,1.5-25.5-1.5-39,0
				c-10.5,0-24-4.5-34.5-7.5c-24-10.5-33-16.5-48-36C2617.5,2236.5,2617.5,2233.5,2617.5,2224.5L2617.5,2224.5z"/>
			<path fill="#CD3F1E" d="M2758.5,2185.5c18,0,33,4.5,45,18c4.5,21-57,24-75,27c-15,0-57,0-48-27
				C2697,2187,2728.5,2193,2758.5,2185.5L2758.5,2185.5z"/>
			<path fill="#F6C03D" d="M2758.5,2194.5c10.5,0,25.5,0,31.5,10.5c-4.5,7.5-3,4.5-12,9c-16.5,0-22.5,1.5-36-7.5v-4.5
				C2746.5,2196,2751,2196,2758.5,2194.5L2758.5,2194.5z"/>
			<path fill="#DF4120" d="M2824.5,1905c34.5-12,75-9,108,3c19.5,10.5,33,16.5,45,37.5c0,4.5,0,12,0,16.5c-10.5,6-18,16.5-28.5,24
				c-45,27-88.5,27-138,21v16.5c-6,4.5-10.5,7.5-10.5,15c-9,12-34.5,15-49.5,16.5c-9-21-24-27-42-39c-12-1.5-12-3-21-12
				c-16.5-18-30-21-54-25.5l-6-4.5c27-6,42-24,66-33c33-13.5,69-6,100.5-27C2800.5,1911,2815.5,1906.5,2824.5,1905z"/>
			<path fill="#FDE2AF" d="M2707.5,2016c30-22.5,70.5-30,103.5-10.5v16.5c-6,4.5-10.5,7.5-10.5,15c-9,12-34.5,15-49.5,16.5
				C2742,2034,2727,2028,2707.5,2016z"/>
			<path fill="#CD3F1E" d="M2898,1932c6,0,6,1.5,10.5,4.5c3,7.5,3,9,3,16.5c-9,21-37.5,16.5-55.5,21c-9,1.5-12,12-25.5,10.5
				c0-16.5,55.5-9,70.5-27c1.5-7.5,1.5-4.5-3-13.5c-19.5-7.5-75,4.5-103.5,6c7.5-4.5,58.5-9,70.5-13.5c4.5-1.5,27,1.5,33,3V1932z"/>
			<path fill="#FCD44F" d="M2800.5,1957.5c10.5,0,34.5-3,40.5,9c-3,6-6,6-10.5,9c-12,1.5-31.5,3-40.5-7.5
				C2793,1960.5,2793,1962,2800.5,1957.5z"/>
			<path fill="#DF4120" d="M2958,1731c21-4.5,45-4.5,66-1.5c30,6,100.5,19.5,102,57c-3,55.5-88.5,54-127.5,45c-18-7.5-31.5-12-51-18
				c-12-4.5-21-12-31.5-21c-4.5-12-4.5-22.5,1.5-34.5v-1.5c3-3,4.5-6,7.5-10.5C2934,1741.5,2947.5,1735.5,2958,1731z"/>
			<path fill="#CD3F1E" d="M2917.5,1759.5c4.5,6,15,24,19.5,28.5c19.5,18,54,30,81,34.5c37.5,4.5,81-6,106.5-34.5
				c-3,55.5-88.5,54-127.5,45c-18-7.5-31.5-12-51-18c-12-4.5-21-12-31.5-21C2911.5,1782,2911.5,1771.5,2917.5,1759.5z"/>
			<path fill="#F6C03D" d="M2961,1762.5h3c9,0,25.5,1.5,33,9l-1.5,3l-6,3c-10.5,1.5-28.5,1.5-37.5-7.5
				C2953.5,1765.5,2953.5,1767,2961,1762.5z"/>
			<path fill="#F6C03D" d="M3037.5,1779c7.5,0,16.5-1.5,22.5,4.5c-1.5,6,0,4.5-6,9c-9,0-18,1.5-24-4.5
				C3030,1780.5,3030,1782,3037.5,1779L3037.5,1779z"/>
			<path fill="#DF4120" d="M2800.5,2038.5c21,3,45-9,61.5,6c3,7.5,3,16.5-1.5,24c10.5,10.5,27,28.5,33,42c10.5,43.5-34.5,57-69,60
				c-33,1.5-51-15-88.5-21l-10.5-9l9-1.5c46.5-9,73.5-37.5,19.5-64.5l-19.5-3c10.5-6,13.5-9,19.5-18
				C2764.5,2053.5,2791.5,2052,2800.5,2038.5L2800.5,2038.5z"/>
			
				<linearGradient id="SVGID_00000066486816445811391880000011981308440844611479_" gradientUnits="userSpaceOnUse" x1="2760.5142" y1="2971.9143" x2="2847.2185" y2="2910.2642" gradientTransform="matrix(1 0 0 1 0 -878)">
				<stop  offset="0" style="stop-color:#FFAF2F"/>
				<stop  offset="1" style="stop-color:#EAD448"/>
			</linearGradient>
			<path fill="url(#SVGID_00000066486816445811391880000011981308440844611479_)" d="M2800.5,2038.5c21,3,45-9,61.5,6
				c3,7.5,3,16.5-1.5,24c-39-16.5-72-7.5-109.5,7.5l-19.5-3c10.5-6,13.5-9,19.5-18C2764.5,2053.5,2791.5,2052,2800.5,2038.5z"/>
			<path fill="#CD3F1E" d="M2733,2140.5c31.5,25.5,117,21,147-9c3-3,9-15,13.5-21c10.5,43.5-34.5,57-69,60c-33,1.5-51-15-88.5-21
				l-10.5-9H2733z"/>
			<path fill="#FDE2AF" d="M3037.5,2155.5c-22.5,1.5-42,4.5-61.5-10.5c-10.5-9-15-19.5-6-31.5c12-6,19.5,0,30,7.5
				c18-3,55.5-7.5,67.5,9c0,19.5-19.5,16.5-28.5,24L3037.5,2155.5z"/>
			<path fill="#FDE2AF" d="M2977.5,1944c25.5,6,78,7.5,94.5,22.5c9,24-48,27-63,18c-12-7.5-19.5-18-31.5-25.5
				C2977.5,1956,2977.5,1950,2977.5,1944z"/>
			<path fill="#CD3F1E" d="M2977.5,1960.5c3,55.5-126,72-166.5,63V2007c49.5,6,93,6,138-21
				C2959.5,1978.5,2965.5,1966.5,2977.5,1960.5z"/>
			<path fill="#DF4120" d="M2869.5,1674c16.5-33,57-6,61.5,16.5c-1.5,9,0,6-6,12c-6,1.5-9,3-15,3c-10.5-7.5-13.5-9-25.5-13.5
				L2869.5,1674z"/>
			<path fill="#DF4120" d="M3318,1894.5c12-9,21-6,31.5-16.5c-6-4.5-10.5-7.5-12-13.5c1.5-6,27-25.5,34.5-28.5c15-6,22.5,18,24,25.5
				c0,1.5,1.5,4.5,1.5,6c37.5,18,114,4.5,112.5,73.5c-22.5,51-111,49.5-156,34.5c-19.5-7.5-30-12-43.5-27c-3-10.5-4.5-13.5-4.5-25.5
				v-9C3306,1911,3313.5,1900.5,3318,1894.5z"/>
			<path fill="#CD3F1E" d="M3304.5,1924.5c9,6,15,18,22.5,22.5c46.5,28.5,109.5,31.5,157.5,4.5c7.5-4.5,15-18,22.5-19.5
				c1.5,4.5,3,6,3,9c-22.5,51-111,49.5-156,34.5c-19.5-7.5-30-12-43.5-27C3306,1939.5,3306,1936.5,3304.5,1924.5z"/>
			<path fill="#DF4120" d="M3088.5,2059.5c-4.5-63,297-9,298.5,43.5c-3,3-6,4.5-9,7.5c-24,12-63-1.5-88.5,1.5
				c-16.5,1.5-25.5,15-45,12c-12-1.5-22.5-12-34.5-13.5C3174,2100,3106.5,2097,3088.5,2059.5z"/>
			<path fill="#CD3F1E" d="M3088.5,2059.5l3-3c4.5,1.5,24,16.5,42,22.5c46.5,16.5,63,7.5,106.5,36c7.5-4.5,24-18,31.5-18
				c12,0,109.5,3,114,6c-3,3-6,4.5-9,7.5c-24,12-63-1.5-88.5,1.5c-16.5,1.5-25.5,15-45,12c-12-1.5-22.5-12-34.5-13.5
				C3174,2100,3106.5,2097,3088.5,2059.5z"/>
			<path fill="#DF4120" d="M3151.5,1773L3151.5,1773c4.5-12,1.5-21,12-27c15-9,36-9,52.5-6c31.5,10.5,90,27,109.5,54
				c4.5,6,4.5,13.5,4.5,19.5c-9,21-30,19.5-51,21c-4.5-1.5-90-9-103.5-10.5C3159,1807.5,3133.5,1810.5,3151.5,1773z"/>
			<path fill="#CD3F1E" d="M3175.5,1825.5c-16.5-18-42-15-24-52.5c3,13.5,6,24,19.5,31.5c33,18,100.5,19.5,138,12c9-1.5,12-6,19.5-3
				c-9,21-30,19.5-51,21C3273,1833,3187.5,1827,3175.5,1825.5z"/>
			<path fill="#3D8B3F" d="M3175.5,1825.5c13.5,1.5,99,7.5,103.5,10.5c13.5,7.5,63,28.5,52.5,46.5c-7.5,6-16.5,6-25.5,7.5l10.5,4.5
				c-3,4.5-12,16.5-13.5,21c-1.5,24-16.5,21-37.5,24c-10.5-4.5-52.5-15-52.5-24c10.5-9,21-7.5,31.5-16.5c-19.5,0-60,4.5-63-21
				c0-12-12-27-24-31.5C3160.5,1833,3163.5,1830,3175.5,1825.5z"/>
			<path fill="#FDE2AF" d="M3265.5,1884c16.5,1.5,24,1.5,40.5,6l10.5,4.5c-3,4.5-12,16.5-13.5,21c-1.5,24-16.5,21-37.5,24
				c-10.5-4.5-52.5-15-52.5-24c10.5-9,21-7.5,31.5-16.5C3252,1891.5,3256.5,1890,3265.5,1884z"/>
			<path fill="#F6C03D" d="M3237,1851c12-1.5,19.5-3,30,1.5l1.5,3c-3,4.5-7.5,6-12,7.5c-9,0-24,1.5-30-6
				C3228,1852.5,3228,1854,3237,1851z"/>
			<path fill="#2C5D64" d="M3111,1885.5c49.5,22.5,34.5,57-15,63c-15,1.5-124.5,4.5-90-45c12-18,73.5-21,99-21L3111,1885.5z"/>
			<path fill="#E85727" d="M3073.5,1911c7.5,0,9-1.5,16.5,1.5c-3,6-4.5,4.5-12,7.5c-6,0-16.5,0-21-3
				C3060,1911,3067.5,1911,3073.5,1911z"/>
			<path fill="#2C5D64" d="M3243,1999.5c-25.5,15-100.5,24-123,3c-33-31.5,46.5-60,72-55.5c24,4.5,33,3,52.5,24
				C3250.5,1983,3252,1989,3243,1999.5z"/>
			<path fill="#E85727" d="M3180,1975.5c7.5,0,10.5-1.5,18,1.5l-1.5,3l-9,4.5c-9,0-12,1.5-19.5-1.5
				C3171,1978.5,3172.5,1978.5,3180,1975.5L3180,1975.5z"/>
			<path fill="#FDE2AF" d="M3247.5,1962c19.5-13.5,39-16.5,61.5-12c13.5,15,25.5,19.5,43.5,27c-19.5,21-61.5,25.5-88.5,25.5
				c-6,0-9-1.5-13.5-4.5l-1.5-1.5l-9,3c9-10.5,9-16.5,3-28.5L3247.5,1962z"/>
			<path fill="#FCAA37" d="M3244.5,1971l3-9c9,6,13.5,6,16.5,13.5c-3,6-4.5,9-6,16.5c3,7.5,4.5,7.5,7.5,10.5c-6,0-9-1.5-13.5-4.5
				l-1.5-1.5l-9,3C3252,1989,3250.5,1983,3244.5,1971z"/>
			<path fill="#2C5D64" d="M3016.5,1998c24,0,34.5,18,45,37.5c3,6,1.5,12-1.5,18c-9,9-19.5,7.5-33,9c-13.5-1.5-52.5-9-49.5-27
				c7.5-10.5,19.5-12,24-18C3009,2008.5,3003,2005.5,3016.5,1998z"/>
			<path fill="#FDE2AF" d="M3132,1846.5h25.5c12,4.5,24,19.5,24,31.5c-28.5,9-42,12-70.5,7.5l-6-1.5c-10.5-7.5-16.5-3-24-15
				c0-1.5,1.5-1.5,1.5-3C3105,1858.5,3112.5,1860,3132,1846.5z"/>
			<path fill="#DF4120" d="M3388.5,2034c-7.5-3-10.5-4.5-16.5-10.5c-4.5-13.5,1.5-27,15-31.5c16.5-6,55.5,25.5,49.5,45
				C3418.5,2047.5,3408,2041.5,3388.5,2034L3388.5,2034z"/>
			<path fill="#DF4120" d="M3388.5,2034c9-6,37.5,0,48,3C3418.5,2047.5,3408,2041.5,3388.5,2034z"/>
			<path fill="#DF4120" d="M2943,2115c19.5,6,55.5,52.5,3,57C2895,2166,2917.5,2139,2943,2115z"/>
			<path fill="#E85727" d="M1108.5,2004l3-15c24,24,24,16.5,55.5,27c12,48,57,12,90,57c-7.5,16.5-16.5,19.5-33,21h-1.5
				c-13.5,1.5-33,0-39,4.5c-9,16.5,24,34.5,36,37.5c16.5,4.5,37.5,15,51,18c1.5-3,4.5-6,7.5-12l1.5-1.5l4.5-1.5
				c10.5-1.5,22.5-1.5,33-3c4.5,16.5,10.5,18,12,34.5c4.5-1.5,9-3,15-4.5l1.5,4.5c25.5-10.5,57-7.5,63,24c4.5,19.5,39,9,55.5,9
				c10.5,10.5,28.5,28.5,43.5,30c10.5-4.5,13.5-15,25.5-19.5c21-7.5,45,0,66,4.5c18,3,34.5,4.5,51,12c19.5,7.5,37.5,19.5,57,22.5
				c31.5,6,115.5-6,129,18c0,6,0,16.5,6,19.5c10.5,7.5,51,9,60,1.5c0-6,0-7.5,0-13.5c15-9,34.5,9,48,4.5c9-7.5,9-12,10.5-24
				c6-22.5,40.5-37.5,60-48c-1.5-1.5,0,0,0-3l18-7.5c-9,1.5-13.5,4.5-19.5,0c25.5-6,46.5-16.5,66-34.5c3,6,6,9,9,13.5
				c10.5,13.5,28.5,16.5,43.5,22.5h-9l-1.5,1.5l6,6l-4.5-1.5c12,28.5,31.5,55.5,10.5,84c21,9,40.5,1.5,61.5-3
				c10.5,19.5,13.5,24,31.5,34.5l1.5,1.5c18-13.5,37.5,0,63-4.5c24-4.5,43.5-22.5,63-24c1.5-6,1.5-15,1.5-22.5l33,1.5l3-3
				c25.5,10.5,82.5,15,103.5-6c4.5-16.5-16.5-19.5-30-22.5c28.5-6,63,1.5,81-19.5c12,21,43.5,16.5,63,6l1.5-6h1.5
				c0,10.5,0,12,3,22.5c15,21,24,27,48,36c10.5,3,24,7.5,34.5,7.5l12,3l1.5,3c-6,3-18,7.5-19.5,15c-15,3-39,6-55.5,7.5
				c-178.5,22.5-406.5,27-585,19.5c-267-12-766.5-69-958.5-267C1089,2034,1102.5,2038.5,1108.5,2004L1108.5,2004z"/>
			<path fill="#DF4120" d="M2083.5,2164.5c3,6,6,9,9,13.5c10.5,13.5,28.5,16.5,43.5,22.5h-9l-1.5,1.5l6,6l-4.5-1.5
				c12,28.5,31.5,55.5,10.5,84c-30,16.5-57,24-93,24c-25.5,0-60-4.5-76.5-24c-10.5-12-9-18-9-33c6-22.5,40.5-37.5,60-48
				c-1.5-1.5,0,0,0-3l18-7.5c-9,1.5-13.5,4.5-19.5,0C2041.5,2193,2064,2182.5,2083.5,2164.5z"/>
			<path fill="#FB9E2F" d="M2083.5,2164.5c3,6,6,9,9,13.5c10.5,13.5,28.5,16.5,43.5,22.5h-9l-1.5,1.5l6,6l-4.5-1.5
				c-6-3-10.5-7.5-16.5-9c-31.5-10.5-61.5,0-91.5,10.5c-1.5-1.5,0,0,0-3l18-7.5c-9,1.5-13.5,4.5-19.5,0
				C2041.5,2193,2064,2182.5,2083.5,2164.5L2083.5,2164.5z"/>
			<path fill="#FB9E2F" d="M2614.5,2224.5h1.5c0,10.5,0,12,3,22.5c15,21,24,27,48,36c10.5,3,24,7.5,34.5,7.5l12,3l1.5,3
				c-6,3-18,7.5-19.5,15c-15,3-39,6-55.5,7.5c-18-12-97.5-3-117-6c9-3,13.5-4.5,16.5-15l-3-4.5c-12-6-36-4.5-42,7.5l1.5,4.5
				c6,6,7.5,4.5,16.5,6c-9,4.5-45,12-52.5,6c3-4.5,7.5-7.5,12-10.5v-3c-10.5-7.5-31.5-1.5-51-6c-9-12-13.5-18-28.5-22.5l3-3
				c25.5,10.5,82.5,15,103.5-6c4.5-16.5-16.5-19.5-30-22.5c28.5-6,63,1.5,81-19.5c12,21,43.5,16.5,63,6L2614.5,2224.5z"/>
			<path fill="#FDE2AF" d="M2620.5,2245.5c15,21,24,27,48,36c-21,22.5-105,0-106.5-16.5C2569.5,2254.5,2605.5,2247,2620.5,2245.5z"
				/>
			<path fill="#FCD44F" d="M1282.5,2139c10.5-1.5,22.5-1.5,33-3c4.5,16.5,10.5,18,12,34.5c4.5-1.5,9-3,15-4.5l1.5,4.5
				c-18,18-52.5,22.5-70.5,3c0-9,0-12-4.5-19.5c1.5-3,4.5-6,7.5-12l1.5-1.5L1282.5,2139z"/>
			<path fill="#C5C948" d="M1282.5,2139c10.5-1.5,22.5-1.5,33-3c4.5,16.5,10.5,18,12,34.5c-13.5-7.5-31.5-9-43.5-19.5
				C1281,2148,1282.5,2143.5,1282.5,2139z"/>
			<path fill="#2B4F50" d="M2232,2325c18-13.5,37.5,0,63-4.5c24-4.5,43.5-22.5,63-24c-9,18-19.5,25.5-37.5,31.5
				C2292,2340,2259,2338.5,2232,2325z"/>
			<path fill="#CD3F1E" d="M1222.5,2092.5c-19.5-1.5-27,3-48-6v-3c16.5-6,34.5-3,51-6c13.5-3,16.5-4.5,31.5-6
				C1248,2088,1240.5,2091,1222.5,2092.5z"/>
			<path fill="#DF4120" d="M2737.5,1620c30-13.5,30,1.5,51,3c6-12,1.5-15,18-19.5c25.5-6,70.5-3,63,33h-1.5
				c-1.5,16.5-16.5,22.5-31.5,25.5c-24,3-43.5,9-66,12c-6,0-16.5,0-21,0l-18-3c-16.5-7.5-22.5-9-28.5-25.5c-1.5-4.5,0-10.5,0-15
				C2716.5,1629,2725.5,1627.5,2737.5,1620L2737.5,1620z"/>
			<path fill="#CD3F1E" d="M2703,1647c6,0,18,9,25.5,12c33,10.5,66,1.5,99-6c12-3,27-18,39-15c-1.5,16.5-16.5,22.5-31.5,25.5
				c-24,3-43.5,9-66,12c-6,0-16.5,0-21,0l-18-3C2715,1663.5,2709,1663.5,2703,1647L2703,1647z"/>
			<path fill="#FB9E2F" d="M1077,1935c9,7.5,15,12,25.5,18c1.5,16.5,4.5,34.5,4.5,49.5c-4.5,36-18,30-10.5,67.5
				C1057.5,2026.5,1045.5,1987.5,1077,1935z"/>
			<path fill="#F57F23" d="M2620.5,1611c9,0,15,0,24,0c28.5,1.5,63,6,91.5,9c-10.5,7.5-21,9-33,12c-10.5,1.5-58.5,15-58.5,15
				C2640,1630.5,2637,1617,2620.5,1611z"/>
			<path fill="#DF4120" d="M1101,577.5c-1.5-7.5-3-13.5,0-19.5c13.5-3,27,22.5,31.5,33c54,6,96,27,126,75l4.5,1.5
				c13.5,3,51,54,60,67.5c24,40.5,42,72,33,120c7.5,42-45,72-81,73.5c-70.5,4.5-135-28.5-187.5-72c-28.5-24-84-82.5-87-120V735
				c-16.5-19.5-7.5-76.5,10.5-97.5c9,3,25.5,7.5,31.5,10.5c6,0,12,0,16.5-1.5h1.5c1.5-1.5,6-7.5,9-10.5c22.5-21,33-25.5,40.5-55.5
				l-3-4.5L1101,577.5z"/>
			<path fill="#E85727" d="M1101,577.5c-1.5-7.5-3-13.5,0-19.5c13.5-3,27,22.5,31.5,33c54,6,96,27,126,75l4.5,1.5
				c25.5,40.5,46.5,82.5,54,130.5c7.5,42-10.5,52.5-48,52.5c-6-6-24-12-31.5-13.5c-60-21-75-46.5-102-100.5c-4.5-7.5-13.5-24-24-27
				c-36,9-43.5-18-60-45l6-15c1.5-1.5,6-7.5,9-10.5c22.5-21,33-25.5,40.5-55.5l-3-4.5L1101,577.5z"/>
			<path fill="#DF4120" d="M1101,577.5c-1.5-7.5-3-13.5,0-19.5c13.5-3,27,22.5,31.5,33c54,6,96,27,126,75c-1.5,0-3,0-6,0
				c-18-19.5-39-42-66-51c-13.5-4.5-45-4.5-61.5-6c-6-9-9-21-18-25.5l-3-4.5L1101,577.5z"/>
			<path fill="#F97950" d="M1263,667.5c13.5,3,51,54,60,67.5c24,40.5,42,72,33,120c-1.5,3-4.5,6-6,9c-40.5,43.5-162-9-193.5-45
				c-16.5-19.5-52.5-63-52.5-90c4.5-6,1.5-4.5,9-6c30,12,42,121.5,159,127.5c39,0,55.5-10.5,48-52.5
				C1309.5,750,1288.5,708,1263,667.5z"/>
			<path fill="#53A661" d="M997.5,735c-16.5-19.5-7.5-76.5,10.5-97.5c9,3,25.5,7.5,31.5,10.5c6,0,12,0,16.5-1.5h1.5l-6,15
				c1.5,39,1.5,63-13.5,100.5c-3-10.5-13.5-49.5-19.5-55.5c-4.5,6-13.5,25.5-18,28.5L997.5,735L997.5,735z"/>
			<path fill="#DF4120" d="M997.5,735c-16.5-19.5-7.5-76.5,10.5-97.5c9,3,25.5,7.5,31.5,10.5c-15,9-25.5,16.5-33,34.5l3,12
				c1.5,7.5,3,9,9,13.5c-4.5,6-13.5,25.5-18,28.5h-3V735z"/>
			<path fill="#3D8B3F" d="M997.5,735c0-21,3-31.5,9-51l3,12c1.5,7.5,3,9,9,13.5c-4.5,6-13.5,25.5-18,28.5h-3V735z"/>
			<path fill="#53A661" d="M3417,460.5c-9-16.5-46.5-54-33-69c28.5-4.5,52.5,42,61.5,63c21,6,37.5,16.5,48,37.5
				c31.5,63,13.5,123-25.5,177c-42,58.5-186,102-249,58.5c-6-4.5-12-13.5-10.5-21c13.5-63,103.5-75,136.5-121.5
				C3378,541.5,3373.5,502.5,3417,460.5z"/>
			<path fill="#3D8B3F" d="M3445.5,454.5c21,6,37.5,16.5,48,37.5c31.5,63,13.5,123-25.5,177c-42,58.5-186,102-249,58.5
				c108-9,228-96,228-210C3447,501,3442.5,469.5,3445.5,454.5z"/>
			<path fill="#85AF52" d="M778.5,1036.5c-34.5-37.5-39-69-54-115.5c-6-19.5-43.5-54-24-70.5c45-9,76.5,40.5,108,61.5
				c13.5,9,46.5,22.5,63,28.5C933,963,969,1029,1032,1041c21,4.5,87,12,69,48c-18,25.5-96,28.5-124.5,27c-4.5,0-7.5,0-12,0
				C898.5,1113,822,1084.5,778.5,1036.5L778.5,1036.5z"/>
			<path fill="#3D8B3F" d="M778.5,1036.5h1.5c25.5,6,49.5,21,78,24c21,3,48-4.5,66-1.5l3-3c7.5,3,13.5,3,18,7.5v1.5l-15-1.5
				c3,6,15,13.5,19.5,19.5c10.5,10.5,16.5,21,24,33c-4.5,0-7.5,0-12,0C898.5,1113,822,1084.5,778.5,1036.5z"/>
			<path fill="#3D8B3F" d="M924,1060.5L924,1060.5c-19.5-13.5-43.5-25.5-61.5-39c-25.5-18-85.5-70.5-102-96l1.5-3
				c9,0,28.5,18,36,25.5c52.5,54,114,93,183,124.5c7.5,3,27,9,33,13.5v4.5c-12,6-55.5-15-67.5-22.5v-1.5c-6-4.5-12-6-18-7.5
				L924,1060.5z"/>
			<path fill="#85AF52" d="M3847.5,1329c37.5,10.5,34.5,57,36,87c6,156-150,201-277.5,178.5c-16.5-4.5-42-15-42-34.5
				c10.5-24,66-24,91.5-39c22.5-13.5,31.5-34.5,51-48c36-27,79.5-40.5,109.5-76.5C3837,1371,3822,1350,3847.5,1329z"/>
			<path fill="#53A661" d="M3841.5,1392l3,3c1.5,7.5,1.5,12-1.5,18c-24,73.5-78,129-145.5,163.5l-4.5-3c3-7.5,21-16.5,28.5-22.5
				c16.5-12,31.5-25.5,45-39C3807,1471.5,3820.5,1441.5,3841.5,1392z"/>
			<path fill="#85AF52" d="M405,2364c33,3,28.5,42,57,67.5c33,30,67.5,16.5,111,40.5c21,10.5,37.5,27,58.5,37.5
				c33,16.5,135-9,156,22.5c4.5,19.5-19.5,33-33,40.5c-48,22.5-160.5,39-213,27c-58.5-12-121.5-78-105-142.5
				C417,2433,396,2397,405,2364z"/>
			<path fill="#53A661" d="M463.5,2470.5c9,1.5,30,19.5,43.5,30c36,27,84,48,127.5,61.5c7.5,3,49.5,12,51,13.5c1.5,6,1.5,3-1.5,10.5
				c-7.5,0-13.5-1.5-21-1.5c-63-9-123-40.5-172.5-81c-9-7.5-21-16.5-28.5-25.5L463.5,2470.5z"/>
			<path fill="#FED37C" d="M927,1639.5c13.5,0,60-1.5,72,1.5c6,24,16.5,64.5,0,85.5c-10.5,13.5-31.5,6-42-4.5
				C934.5,1699.5,927,1669.5,927,1639.5z"/>
			<path fill="#85AF52" d="M1008,637.5c-22.5-10.5-63-45-66-70.5l3-1.5c18,4.5,48,42,73.5,55.5l3,1.5c19.5-16.5,48-31.5,75-34.5
				l4.5-10.5l4.5,1.5l3,4.5c-7.5,30-18,34.5-40.5,55.5c-3,3-6,9-9,10.5h-1.5c-4.5,0-12,0-16.5,1.5C1033.5,645,1017,640.5,1008,637.5
				z"/>
			<path fill="#DF4120" d="M1021.5,622.5c19.5-16.5,48-31.5,75-34.5C1075.5,618,1059,637.5,1021.5,622.5z"/>
		</g>
	</g>
</g>
</svg>
