<?xml version="1.0" encoding="utf-8"?>
<!-- Generator: Adobe Illustrator 27.9.0, SVG Export Plug-In . SVG Version: 6.00 Build 0)  -->
<svg version="1.1" id="svg" xmlns="http://www.w3.org/2000/svg" xmlns:xlink="http://www.w3.org/1999/xlink" x="0px" y="0px"
	 viewBox="0 0 4811.914 3000" enable-background="new 0 0 4811.914 3000" xml:space="preserve">
<g>
	<g>
		<defs>
			<rect id="SVGID_1_" x="1.083" width="4810.83" height="3000"/>
		</defs>
		<clipPath id="SVGID_00000129171718346879202560000011365985132358390146_">
			<use xlink:href="#SVGID_1_"  overflow="visible"/>
		</clipPath>
		<g clip-path="url(#SVGID_00000129171718346879202560000011365985132358390146_)">
			<path fill="#BB1E29" d="M1.083,0h4810.831v2075.09v765.704V3000h-171.119H3206.859h-683.394h-94.224H0V0H1.083z"/>
			
				<linearGradient id="SVGID_00000011024574649465801400000008747862098548383638_" gradientUnits="userSpaceOnUse" x1="3777.1416" y1="1950.9504" x2="3748.6643" y2="1704.9114" gradientTransform="matrix(1 0 0 1 0 -778)">
				<stop  offset="0" style="stop-color:#FEBF12"/>
				<stop  offset="1" style="stop-color:#FFE958"/>
			</linearGradient>
			<path fill="url(#SVGID_00000011024574649465801400000008747862098548383638_)" d="M3839.35,912.996
				c-3.249,7.581-6.498,12.996-4.332,22.744c4.332,16.245,42.238,30.325,56.318,27.076c2.166,3.249,2.166,3.249,3.249,6.498
				l2.166,1.083c-15.163,17.328-31.408,34.657-45.487,50.903c-22.744,24.91-46.571,50.903-70.397,75.812
				c15.162-4.332,28.159,1.083,43.321-3.249l4.332,2.166c-18.411,15.162-38.989,43.321-42.238,68.231c0,2.166,0,4.332-1.083,6.498
				c-7.581,0-7.581-1.083-11.913,2.166c-1.083,4.332-1.083,5.415-1.083,9.747c0,12.996-1.083,31.408,0,44.404
				c-12.996-5.415-35.74-19.495-47.653-25.993l-22.744-12.996c-16.246-9.747-57.401-36.823-71.48-47.653l83.394-92.058
				c17.328-19.495,42.238-44.404,57.401-63.899c10.83-9.747,22.744-24.91,33.574-35.74
				C3813.357,945.487,3830.686,921.661,3839.35,912.996z"/>
			<path fill="#FE9F01" d="M3824.188,1093.863l4.332,2.166c-18.411,15.162-38.989,43.321-42.238,68.231c0,2.166,0,4.332-1.083,6.498
				c-7.581,0-7.581-1.083-11.913,2.166c-1.083,4.332-1.083,5.415-1.083,9.747c0,12.996-1.083,31.408,0,44.404
				c-12.996-5.415-35.74-19.495-47.653-25.993l-22.744-12.996c9.747-14.079,42.238-48.736,54.152-61.733
				c6.498-10.83,17.329-20.578,25.993-29.242C3796.029,1092.78,3809.025,1098.195,3824.188,1093.863z"/>
			<path fill="#FB7C25" d="M3754.874,1126.354c1.083,28.159-10.83,55.235-31.408,73.646l-22.744-12.996
				C3710.469,1174.007,3742.96,1139.35,3754.874,1126.354L3754.874,1126.354z"/>
			<path fill="#BB1E29" d="M3963.899,1547.653c7.581-1.083,20.577-3.249,28.159-5.415c55.235-16.245,145.126-17.329,191.697-48.736
				c-8.664,188.448,49.82,324.91,194.946,446.209c8.664,6.498,36.823,23.827,42.238,30.325c9.748,10.83,27.076,40.072,34.657,54.152
				l73.646,123.466c9.747,16.245,33.574,58.484,45.488,71.48c45.487-32.491,90.975-68.231,135.379-101.805
				c11.914-8.664,23.827-18.412,34.657-28.159c10.83-6.498,27.076-22.744,35.74-32.491c19.495-3.249,20.578,1.083,30.325,17.328
				v765.704V3000h-171.119H3206.859c-2.166-7.581-9.747-25.993-12.997-34.657c-9.747-25.993-18.411-51.985-28.159-76.895
				c-9.747-25.993-40.072-114.802-55.235-136.462c-8.664-11.913-73.646-9.747-94.224-8.664
				c-5.415-33.574-14.079-92.058-16.245-125.632c0-9.747,17.329-68.231,19.495-88.809c9.747-68.231,20.577-151.625,19.495-220.939
				c-2.166-106.137-32.491-224.188-51.986-329.242c-2.166-12.996-3.249-30.325-4.332-44.404c-2.166-23.827-5.415-46.57-9.747-69.314
				c-1.083-16.245-11.913-108.303-17.329-115.885L3963.899,1547.653z"/>
			<path fill="#EBDBDF" d="M4781.588,2057.762c19.495-3.249,20.578,1.083,30.325,17.329v765.704V3000h-171.119
				c-21.661-41.155-53.069-94.224-76.896-135.379l-154.874-269.675l-76.896-134.296c-8.664-16.245-34.657-62.816-44.404-74.729
				c-14.079-16.246,14.08-55.235,23.827-71.48c3.249,5.415,11.914,28.159,14.08,30.325c14.079-1.083,40.072-8.664,53.068-11.913
				c9.748-4.332,22.744-7.581,34.657-14.079c27.076-12.996,50.903-25.993,75.812-42.238c30.325-17.329,57.4-36.823,86.643-57.401
				c45.487-32.491,90.975-68.231,135.379-101.805c11.914-8.664,23.827-18.411,34.657-28.159
				C4756.679,2082.671,4772.924,2067.509,4781.588,2057.762z"/>
			<path fill="#F7F6F6" d="M4781.588,2057.762c19.495-3.249,20.578,1.083,30.325,17.329v765.704
				c-21.661-31.408-44.405-74.729-63.899-109.386l-97.473-171.119l-112.635-194.946c-12.997-22.744-38.989-64.982-49.819-87.726
				c30.325-17.329,57.4-36.823,86.643-57.401c45.487-32.491,90.975-68.231,135.379-101.805
				c11.914-8.664,23.827-18.412,34.657-28.159C4756.679,2082.671,4772.924,2067.509,4781.588,2057.762z"/>
			<path fill="#F7F6F6" d="M4311.552,2314.44c3.249,5.415,11.914,28.159,14.08,30.325c14.079-1.083,40.072-8.664,53.068-11.914
				v3.249c-21.661,17.329-66.065,34.657-90.975,50.902C4273.646,2368.592,4301.805,2329.603,4311.552,2314.44z"/>
			<path fill="#F78E63" d="M3963.899,1547.653c7.581-1.083,20.577-3.249,28.159-5.415c55.235-16.245,145.126-17.329,191.697-48.736
				c-8.664,188.448,49.82,324.91,194.946,446.209c8.664,6.498,36.823,23.827,42.238,30.325c9.748,10.83,27.076,40.072,34.657,54.152
				l73.646,123.466c9.747,16.245,33.574,58.484,45.488,71.48c-28.159,20.578-56.318,38.989-86.643,57.401
				c-24.91,16.246-48.737,29.242-75.812,42.238c-11.914,5.415-24.91,8.664-34.657,14.079c-14.079,4.332-38.989,10.83-53.068,11.914
				c-2.166-2.166-10.831-23.827-14.08-30.325c-33.574-72.563-67.148-145.126-99.639-218.772
				c-70.397-30.325-109.386-89.892-139.711-157.04c-35.74-81.227-58.484-167.87-80.144-253.43
				C3983.394,1651.625,3968.231,1580.144,3963.899,1547.653z"/>
			<path fill="#E6623C" d="M3963.899,1547.653c7.581-1.083,20.577-3.249,28.159-5.415c55.235-16.245,145.126-17.329,191.697-48.736
				c-8.664,188.448,49.82,324.91,194.946,446.209c-4.332,4.332-10.83,6.498-17.329,7.581c-36.823,9.747-75.812,4.332-108.303-15.162
				c-82.311-47.653-123.465-192.78-146.209-278.339c-44.405,29.242-66.065,23.827-111.552,30.325h-3.249
				C3983.394,1651.625,3968.231,1580.144,3963.899,1547.653z"/>
			<path fill="#2F2441" d="M3945.487,775.451c19.495-5.415,41.155-8.664,59.567-12.996c61.733-15.162,96.39-15.162,148.375,23.827
				c34.657,37.906,35.74,59.567,47.653,108.303l1.083,1.083c5.415,19.495,41.155,142.96,36.823,153.791
				c-44.405-69.314-48.737-152.707-99.639-216.606c-32.491-40.072-82.311-38.989-119.134-5.415
				c-15.162,17.328-20.578,30.325-29.242,51.985c0,1.083-1.083,8.664-1.083,9.747c-4.332,4.332-7.581,8.664-12.996,11.913
				c-25.993,16.245-44.404,27.076-62.816,53.069c-5.415,6.498-11.913,11.913-17.329,18.411l-2.166-1.083
				c-1.083-3.249-1.083-4.332-3.249-6.498c-14.08,3.249-51.986-10.83-56.318-27.076c-2.166-9.747,1.083-15.163,4.332-22.744
				c-8.664,9.747-24.91,33.574-35.74,35.74c-10.83,10.83-22.744,25.993-33.574,35.74c-15.163,19.495-40.072,45.487-57.401,63.899
				l-83.393,92.058c14.079,10.83,56.317,37.906,71.48,47.653l22.744,12.996c11.913,7.581,34.657,20.578,47.653,25.993
				c-1.083-12.996,0-30.325,0-44.404c0-5.415,0-5.415,1.083-9.747c5.415-3.249,5.415-2.166,11.914-2.166
				c0-2.166,0-4.332,1.083-6.498c3.249-24.91,23.827-53.069,42.238-68.231c45.487,5.415,172.202,24.91,207.942,54.152l3.249-7.581
				h2.166l5.415,5.415c0-8.664,0-10.83-3.249-19.495l3.249-3.249c11.914,19.495,18.412,28.159,34.657,44.404
				c5.415,6.498,27.076,45.487,30.325,53.069c1.083,1.083,5.415,9.747,6.498,10.83c15.163,24.91,64.982,109.386,71.48,134.296
				c5.415,17.329-2.166,101.805-3.25,123.466c-46.57,31.408-136.462,33.574-191.697,48.737c-7.581,2.166-20.578,4.332-28.159,5.415
				l-1008.303,200.361c-40.072,7.581-99.639,24.91-138.628,16.245l-19.495-5.415c-2.166,23.827-2.166,50.903-2.166,74.729
				c-9.747-12.996-12.997-16.245-28.159-18.411c-20.578-5.415-60.65-7.581-82.311-9.747c-10.83-1.083-20.578-2.166-31.408-3.249
				c-8.664-2.166-16.245-3.249-24.91-5.415c-3.249,2.166-2.166,2.166-6.498,3.249l-2.166-2.166
				c-2.166,5.415-2.166,8.664-5.415,14.079c-2.166-2.166-64.982-114.802-70.397-126.715c-3.249-7.581-5.415-10.83-9.747-17.328
				c-8.664-9.747-17.328-12.996-27.076-21.661c5.415-54.152,10.831-107.22,14.08-161.372l28.159-151.625l4.332,2.166
				c0,21.661,0,44.404-2.166,66.065c1.083,5.415,0,4.332,3.249,6.498c27.076-10.83,87.726,2.166,95.307-3.249l-38.989-153.79
				c-5.415-22.744-19.495-70.397-20.578-90.975c5.415-10.83,3.249-34.657,12.996-53.069c28.159-54.152,77.978-56.318,131.047-67.148
				c53.069-11.913,105.054-22.744,158.123-33.574c76.895-15.163,158.123-35.74,233.935-49.82
				c12.996-5.415,44.404-10.83,58.484-14.079c42.238-9.747,85.56-18.411,127.798-27.076l152.708-33.574
				c25.993-5.415,58.484-12.996,84.476-15.163c10.831-2.166,20.578-4.332,31.408-7.581c29.242-8.664,73.646-16.245,103.971-22.744
				c29.242-4.332,73.646-16.245,103.971-22.744L3945.487,775.451z"/>
			<path fill="#BB1E29" d="M2663.177,1244.404c-19.495-79.061-44.404-135.379,62.816-150.542c6.498-1.083,16.246-3.249,22.744-5.415
				l107.22-22.744l364.982-77.978c34.657-7.581,70.397-14.079,105.054-22.744l2.166,5.415v10.83l2.166,2.166
				c7.581,1.083,23.827,0,29.242,1.083l-2.166,2.166c-6.498,0-15.162-1.083-20.578,1.083c-1.083,5.415,0,7.581,3.249,11.913
				c-9.747,6.498-15.162,15.162-22.744,24.91c-6.498,11.913-23.827,38.989-24.91,51.986l2.166,5.415
				c-8.664,2.166-19.495,2.166-28.159,3.249c-22.744,3.249-29.242,23.827-42.238,38.989c-7.581,0-8.664,0-16.246-2.166
				c-12.996,9.747-20.578,32.491-27.076,46.57c7.581,3.249,19.495,11.913,27.076,17.329c7.581,4.332,11.914,6.498,18.412,11.913
				l16.245,8.664c9.747,5.415,20.578,10.83,31.408,16.245c4.332,5.415,8.664,10.83,12.996,16.245
				c24.91,38.989,43.321,55.235,68.231,88.809c-25.993-1.083-51.986-3.249-76.896-4.332c-5.415,28.159-16.246,46.57-20.577,77.978
				c3.249,3.249,6.498,7.581,9.747,10.83c15.162,0,59.567-1.083,72.563,2.166c-37.906,1.083-64.982-2.166-102.888,3.249l2.166,2.166
				c-6.498,2.166-11.913,0-16.245,3.249c1.083,5.415,0,3.249,4.332,7.581c2.166,0,4.332,0,6.498,2.166
				c-8.664,5.415-20.577,8.664-30.325,10.83c-15.163-6.498-38.989-16.245-55.235-20.577c-4.332-2.166-6.498-3.249-10.83-5.415
				l-16.245-7.581c-1.083,16.245-1.083,16.245-11.914,27.076c-23.827,5.415-36.823,4.332-60.65,4.332
				c6.498,3.249,6.498,2.166,8.664,7.581c12.996,9.747,35.74,19.495,49.82,30.325c-11.913,6.498-23.827,14.08-34.657,20.578
				c-19.495,9.747-38.989,20.578-59.567,29.242c-24.91,10.83-123.466,45.487-131.047,66.065c-1.083,2.166-1.083,4.332-1.083,7.581
				c-6.498,24.91-18.411,19.495-8.664,55.235c-22.744-2.166-75.812-3.249-80.145,27.076c-4.332-1.083-8.664-2.166-12.996,0
				c-8.664-17.329-20.578-70.397-27.076-92.058c8.664-8.664,36.823-20.578,33.574-35.74
				c-20.578-93.141-46.57-186.281-70.397-279.422C2707.581,1245.487,2692.419,1243.321,2663.177,1244.404L2663.177,1244.404z"/>
			<path fill="#FEC923" d="M3227.437,1197.834l16.246,8.664c9.747,5.415,20.577,10.83,31.408,16.245
				c4.332,5.415,8.664,10.83,12.996,16.245c24.91,38.989,43.321,55.235,68.231,88.809c-25.993-1.083-51.986-3.249-76.896-4.332
				c-5.415,28.159-16.245,46.57-20.577,77.978c3.249,3.249,6.498,7.581,9.747,10.83c15.163,0,59.567-1.083,72.563,2.166
				c-37.906,1.083-64.982-2.166-102.888,3.249l2.166,2.166c-6.498,2.166-11.913,0-16.245,3.249c1.083,5.415,0,3.249,4.332,7.581
				c2.166,0,4.332,0,6.498,2.166c-8.664,5.415-20.578,8.664-30.325,10.83c-15.162-6.498-38.989-16.245-55.235-20.577
				c-4.332-2.166-6.498-3.249-10.831-5.415l5.415-6.498l2.166-10.83c-4.332,0-7.581,1.083-12.996,2.166
				c3.249-32.491,19.495-51.986,34.657-82.311c12.996-10.83,30.325-27.076,47.653-18.411l9.747-2.166
				c-4.332-2.166-7.581-5.415-10.83-7.581c3.249-1.083,5.415-3.249,8.664-4.332c28.159-17.329,21.661-54.152,6.498-77.978
				L3227.437,1197.834z"/>
			
				<linearGradient id="SVGID_00000054960585043357516630000005331322773912721330_" gradientUnits="userSpaceOnUse" x1="3143.6721" y1="2126.0913" x2="3247.9119" y2="2144.5103" gradientTransform="matrix(1 0 0 1 0 -778)">
				<stop  offset="0" style="stop-color:#FF8C00"/>
				<stop  offset="1" style="stop-color:#F56514"/>
			</linearGradient>
			<path fill="url(#SVGID_00000054960585043357516630000005331322773912721330_)" d="M3167.87,1319.134
				c12.997-10.83,30.325-27.076,47.654-18.411c8.664,5.415,40.072,20.577,41.155,24.91c-17.329,5.415-55.235,15.162-69.314,21.661
				l-19.495,40.072l-3.249,10.83c-7.581,8.664-9.747-1.083-21.661,10.83l2.166-10.83c-4.332,0-7.581,1.083-12.996,2.166
				C3136.462,1368.953,3152.708,1349.458,3167.87,1319.134z"/>
			<path fill="#FE9600" d="M3146.209,1399.278c8.664-6.498,14.079-2.166,21.66-11.913l-3.249,10.83
				c-7.581,8.664-9.747-1.083-21.661,10.83L3146.209,1399.278z"/>
			<path fill="#FE9F01" d="M3142.96,1410.108c11.914-11.913,12.996-2.166,21.661-10.83c0,4.332,0,10.83,3.249,12.996
				c15.163,11.913,53.069,7.581,70.397,4.332l2.166,2.166c-6.498,2.166-11.913,0-16.245,3.249c1.083,5.415,0,3.249,4.332,7.581
				c2.166,0,4.332,0,6.498,2.166c-8.664,5.415-20.578,8.664-30.325,10.83c-15.162-6.498-38.989-16.245-55.235-20.578
				c-4.332-2.166-6.498-3.249-10.83-5.415L3142.96,1410.108z"/>
			<path fill="#FC8300" d="M3225.271,1298.556c14.079,7.581,32.491,18.411,47.653,24.91c-3.249,1.083-11.913,2.166-15.162,3.249
				c-1.083-4.332-32.491-19.495-41.155-24.91L3225.271,1298.556z"/>
			<path fill="#FEE35B" d="M3087.726,1218.412c-7.581-12.996,8.664-86.643,19.495-87.726c18.412-1.083,56.318,28.159,75.812,37.906
				c7.581,3.249,19.494,11.913,27.076,17.329c7.581,4.332,11.913,6.498,18.411,11.913l2.166,9.747
				c15.163,23.827,20.578,60.65-6.498,77.978c-3.249,2.166-5.415,3.249-8.664,4.332c3.249,3.249,6.498,5.415,10.83,7.581
				l-9.747,2.166c-17.329-8.664-34.657,7.581-47.653,18.411c-5.415-5.415-2.166-8.664-8.664-17.328
				c-10.83-9.747-24.91-18.412-33.574-31.408l7.581-11.913C3119.134,1247.653,3094.224,1233.574,3087.726,1218.412
				L3087.726,1218.412z"/>
			
				<linearGradient id="SVGID_00000080176623927497745940000005820784005063967649_" gradientUnits="userSpaceOnUse" x1="3167.9902" y1="2092.9099" x2="3148.2097" y2="1995.7869" gradientTransform="matrix(1 0 0 1 0 -778)">
				<stop  offset="0" style="stop-color:#FF8700"/>
				<stop  offset="1" style="stop-color:#FFA804"/>
			</linearGradient>
			<path fill="url(#SVGID_00000080176623927497745940000005820784005063967649_)" d="M3087.726,1218.412
				c37.906,18.411,88.809,49.819,126.715,72.563c3.249,3.249,6.498,5.415,10.83,7.581l-9.747,2.166
				c-17.328-8.664-34.657,7.581-47.653,18.411c-5.415-5.415-2.166-8.664-8.664-17.328c-10.83-9.747-24.91-18.412-33.574-31.408
				l7.581-11.913C3119.134,1247.653,3094.224,1233.574,3087.726,1218.412L3087.726,1218.412z"/>
			<path fill="#FED332" d="M3209.025,1187.004c7.581,4.332,11.913,6.498,18.411,11.913l2.166,9.747
				C3216.606,1205.415,3213.357,1197.834,3209.025,1187.004z"/>
			<path fill="#FEE35B" d="M2966.426,1437.184c1.083-2.166,2.166-3.249,3.249-5.415c55.235-90.975,77.978-69.314,151.624-22.744
				c-1.083,16.246-1.083,16.246-11.913,27.076c-23.827,5.415-36.823,4.332-60.65,4.332c-17.328-4.332-35.74-12.996-54.152-8.664
				C2985.92,1433.935,2976.173,1437.184,2966.426,1437.184L2966.426,1437.184z"/>
			<path fill="#FE9600" d="M3328.159,981.227l2.166,2.166c7.581,1.083,23.827,0,29.242,1.083l-2.166,2.166
				c-6.498,0-15.162-1.083-20.578,1.083c-1.083,5.415,0,7.581,3.249,11.913c-9.747,6.498-15.162,15.162-22.744,24.91
				c-6.498,11.913-23.827,38.989-24.91,51.986l2.166,5.415c-8.664,2.166-19.495,2.166-28.159,3.249
				c-22.744,3.249-29.242,23.827-42.238,38.989c-7.581,0-8.664,0-16.246-2.166c-6.498-5.415-20.578-1.083-27.076-10.83l2.166-2.166
				c27.076,0,99.639-75.812,112.635-99.639c2.166-3.249,3.249-4.332,5.415-8.664l-3.249-5.415
				C3308.664,993.141,3323.827,990.975,3328.159,981.227L3328.159,981.227z"/>
			<path fill="#FEB809" d="M3328.159,981.227l2.166,2.166c7.581,1.083,23.827,0,29.242,1.083l-2.166,2.166
				c-6.498,0-15.162-1.083-20.578,1.083c-1.083,5.415,0,7.581,3.249,11.913c-9.747,6.498-15.162,15.162-22.744,24.91
				c3.249-11.913,19.495-27.076,14.08-35.74c-6.498-1.083-18.411,5.415-24.91,7.581c-3.249,8.664-2.166,6.498-9.747,11.913
				c2.166-3.249,3.249-4.332,5.415-8.664l-3.249-5.415C3308.664,993.141,3323.827,990.975,3328.159,981.227z"/>
			<path fill="#FEB809" d="M3197.112,1053.791c19.495-22.744,72.563-45.487,100.722-58.484l3.249,5.415
				c-2.166,4.332-2.166,4.332-5.415,8.664c-11.914,23.827-84.477,99.639-112.635,99.639c2.166-4.332,5.415-8.664,8.664-11.913
				C3193.863,1080.866,3193.863,1068.953,3197.112,1053.791z"/>
			
				<linearGradient id="SVGID_00000083080436742088564100000011218862518539122828_" gradientUnits="userSpaceOnUse" x1="3156.6118" y1="2141.55" x2="3108.1082" y2="2102.2307" gradientTransform="matrix(1 0 0 1 0 -778)">
				<stop  offset="0" style="stop-color:#FFA600"/>
				<stop  offset="1" style="stop-color:#FFBD09"/>
			</linearGradient>
			<path fill="url(#SVGID_00000083080436742088564100000011218862518539122828_)" d="M3158.123,1301.805
				c6.498,8.664,3.249,11.913,8.664,17.329c-14.08,30.325-31.408,49.82-34.657,82.31c-31.408-3.249-27.076-54.152-30.325-77.978
				C3122.383,1323.466,3141.877,1310.469,3158.123,1301.805L3158.123,1301.805z"/>
			<path fill="#FEC923" d="M2966.426,1437.184c9.747,0,19.495-3.249,28.159-5.415c17.329-3.249,36.823,4.332,54.152,8.664
				c6.498,3.249,6.498,2.166,8.664,7.581c-12.996,0-60.65,23.827-73.646,31.408c-4.332,2.166,0,3.249-9.747,5.415
				c-8.664-2.166-14.079-3.249-16.245-12.996C2954.513,1461.011,2961.011,1446.932,2966.426,1437.184L2966.426,1437.184z"/>
			<path fill="#FC8300" d="M2974.007,1485.921c9.747-2.166,5.415-3.249,9.747-5.415c12.996-8.664,60.65-31.408,73.646-31.408
				c12.996,9.747,35.74,19.495,49.82,30.325c-11.913,6.498-23.827,14.08-34.657,20.578c-7.581-6.498-25.993-17.329-34.657-21.661
				C3015.163,1478.339,3002.166,1488.087,2974.007,1485.921z"/>
			<path fill="#FED332" d="M3125.632,1269.314c8.664,12.996,21.661,21.661,33.574,31.408c-16.245,9.747-35.74,21.661-55.235,21.661
				c0-6.498,0-15.162,0-21.661C3111.552,1288.809,3116.968,1281.228,3125.632,1269.314L3125.632,1269.314z"/>
			<path fill="#FEC923" d="M3542.599,919.495c5.415-2.166,18.411-5.415,25.993-6.498l-1.083,6.498l-3.249,24.91
				c-2.166,8.664-4.332,21.661-6.498,30.325c25.993,0,56.318-2.166,81.228-3.249h18.411c21.661,0,58.484-1.083,77.979,2.166
				c14.079,1.083,18.411,3.249,30.325,9.747l3.249,1.083c-15.162,19.495-40.072,45.487-57.401,63.899l-83.393,92.058
				c14.079,10.83,56.318,37.906,71.48,47.653l22.744,12.996c11.913,7.581,34.657,20.578,47.653,25.993
				c-1.083-12.996,0-30.325,0-44.404c0-5.415,0-5.415,1.083-9.747c5.415-3.249,5.415-2.166,11.913-2.166
				c0-2.166,0-4.332,1.083-6.498c3.249-24.91,23.827-53.069,42.238-68.231c45.487,5.415,172.202,24.91,207.942,54.152
				c1.083,8.664,12.997,23.827,8.664,33.574l9.747,1.083l-1.083,10.83c8.664,0,8.664,0,14.079-5.415
				c3.249,7.581,4.332,10.83,3.249,19.495c7.581,36.823,22.744,60.65-17.328,84.476c21.661,0,43.321-8.664,41.155,21.661
				c0,19.495,1.083,56.318-11.914,69.314c-6.498,3.249-17.329,2.166-24.91,1.083c-8.664,0-19.495-1.083-28.159-1.083
				c-2.166,7.581-3.249,15.162-10.83,19.495c-16.246,8.664-55.235,1.083-72.563-2.166c4.332,8.664,7.581,14.079,7.581,23.827
				c-7.581,6.498-9.747,9.747-19.495,14.079c-7.581-1.083-15.162-1.083-22.744-3.249c-16.245-2.166-25.993-4.332-42.238-4.332
				c24.91-2.166,22.744-16.246,22.744-36.823c-6.498-14.08-17.329-22.744-25.993-35.74l-12.996-10.83
				c-14.079-2.166-88.809-1.083-108.303-1.083c-17.329,0-109.386-2.166-123.466-4.332c-14.079-1.083-28.159-2.166-42.238-3.249
				c-14.079,0-27.076-1.083-41.155-2.166c-58.484-2.166-120.217-7.581-178.7-12.996c-24.91-33.574-43.321-49.82-68.231-88.809
				c-4.332-5.415-8.664-10.83-12.996-16.245c-10.831-5.415-20.578-10.83-31.408-16.245l-16.246-8.664
				c-6.498-5.415-11.913-7.581-18.411-11.913c-7.581-5.415-18.412-14.079-27.076-17.328c6.498-15.162,14.079-37.906,27.076-46.571
				c7.581,1.083,8.664,2.166,16.245,2.166c12.996-15.162,19.495-35.74,42.238-38.989c8.664-1.083,20.578-1.083,28.159-3.249
				l-2.166-5.415c1.083-11.913,18.412-38.989,24.91-51.986c6.498-9.747,11.914-18.411,22.744-24.91
				c-3.249-4.332-5.415-6.498-3.249-11.913c4.332-2.166,14.08-1.083,20.578-1.083l2.166-2.166
				c-4.332-1.083-21.661-1.083-29.242-1.083l-2.166-2.166v-10.83l-2.166-5.415c46.571-8.664,93.141-19.495,139.711-29.242
				c10.83-2.166,22.744-5.415,34.657-5.415C3514.44,924.91,3527.437,921.661,3542.599,919.495z"/>
			<path fill="#FEDB44" d="M3654.152,1253.069c-8.664-8.664-20.577-18.412-29.242-25.993c-40.072-34.657-60.65-71.48-74.729-122.383
				c-2.166-7.581-5.415-16.245-6.498-22.744l0,0c7.581,3.249,8.664,8.664,18.412,8.664c10.83,7.581,60.65,42.238,67.148,49.819
				c14.079,10.83,56.318,37.906,71.48,47.653l22.744,12.996c11.914,7.581,34.657,20.578,47.653,25.993
				c-1.083-12.996,0-30.325,0-44.404c0-5.415,0-5.415,1.083-9.747c5.415-3.249,5.415-2.166,11.913-2.166
				c0-2.166,0-4.332,1.083-6.498c3.249-24.91,23.826-53.069,42.238-68.231c45.487,5.415,172.202,24.91,207.942,54.152
				c1.083,8.664,12.996,23.827,8.664,33.574l9.747,1.083l-1.083,10.83c8.664,0,8.664,0,14.079-5.415
				c3.249,7.581,4.332,10.83,3.249,19.495c7.581,36.823,22.744,60.65-17.329,84.476c21.661,0,43.321-8.664,41.155,21.661
				c0,19.495,1.083,56.318-11.914,69.314c-6.498,3.249-17.329,2.166-24.91,1.083c-8.664,0-19.495-1.083-28.159-1.083
				c-2.166,7.581-3.249,15.162-10.83,19.495c-16.246,8.664-55.235,1.083-72.563-2.166c4.332,8.664,7.581,14.079,7.581,23.827
				c-7.581,6.498-9.747,9.747-19.495,14.079c-7.581-1.083-15.162-1.083-22.744-3.249c-16.245-2.166-25.993-4.332-42.238-4.332
				c24.91-2.166,22.744-16.246,22.744-36.823c-6.498-14.08-17.329-22.744-25.993-35.74l-12.996-10.83
				c-14.08-2.166-88.809-1.083-108.303-1.083c-19.495-15.162-37.906-32.491-56.318-47.653
				c-17.329-14.08-37.906-28.159-56.318-41.155c15.162-3.249,24.91,8.664,34.657,6.498c1.083-2.166,1.083-2.166,2.166-4.332
				L3654.152,1253.069z"/>
			<path fill="#FEC923" d="M3827.437,1097.112c45.487,5.415,172.202,24.91,207.942,54.152c1.083,8.664,12.996,23.827,8.664,33.574
				l9.747,1.083l-1.083,10.83c8.664,0,8.664,0,14.08-5.415c3.249,7.581,4.332,10.83,3.249,19.495
				c7.581,36.823,22.744,60.65-17.329,84.477c-20.578,8.664-27.076,4.332-40.072,7.581c-10.831-1.083-41.156-7.581-53.069-9.747
				c-33.574-11.913-128.881-29.242-154.874-53.069c-12.996-3.249-21.661-8.664-32.491-14.079c-1.083-12.996,0-30.325,0-44.404
				c0-5.415,0-5.415,1.083-9.747c5.415-3.249,5.415-2.166,11.913-2.166c0-2.166,0-4.332,1.083-6.498
				C3788.448,1140.433,3809.025,1111.191,3827.437,1097.112L3827.437,1097.112z"/>
			<path fill="#FEC923" d="M3827.437,1097.112c45.487,5.415,172.202,24.91,207.942,54.152c1.083,8.664,12.996,23.827,8.664,33.574
				l-166.787-7.581c-21.661-1.083-73.646-2.166-93.141-6.498c0-2.166,0-4.332,1.083-6.498
				C3788.448,1140.433,3809.025,1111.191,3827.437,1097.112z"/>
			<path fill="#F4712C" d="M3785.198,1170.758c19.495,4.332,70.397,5.415,93.141,6.498l166.787,7.581l9.747,1.083l-1.083,10.83
				c8.664,0,8.664,0,14.079-5.415c3.249,7.581,4.332,10.83,3.249,19.495c-5.415-5.415-11.913-3.249-18.411-2.166
				c-12.996,1.083-24.91,2.166-36.823,5.415c-69.314,18.411-140.794,18.411-211.191,27.076
				c-12.996-3.249-21.661-8.664-32.491-14.079c-1.083-12.996,0-30.325,0-44.404c0-5.415,0-5.415,1.083-9.747
				C3777.617,1169.675,3777.617,1170.758,3785.198,1170.758L3785.198,1170.758z"/>
			<path fill="#FC8300" d="M3785.198,1170.758c19.495,4.332,70.397,5.415,93.141,6.498l166.787,7.581l9.747,1.083l-1.083,10.83
				c-33.574,3.249-95.307-3.249-129.964-5.415c-50.903-3.249-100.722-5.415-151.625-7.581c0-5.415,0-5.415,1.083-9.747
				C3777.617,1169.675,3777.617,1170.758,3785.198,1170.758L3785.198,1170.758z"/>
			<path fill="#FC8300" d="M4051.625,1208.664c6.498-1.083,12.996-2.166,18.412,2.166c7.581,36.823,22.744,60.65-17.329,84.476
				c-20.578,8.664-27.076,4.332-40.072,7.581c-10.831-1.083-41.156-7.581-53.069-9.747c8.664-4.332,62.816-4.332,89.892-14.079
				C4047.292,1251.986,4048.375,1234.657,4051.625,1208.664z"/>
			<path fill="#FEC923" d="M4080.866,1314.801c4.332,0,7.581,1.083,11.913,2.166c0,19.495,1.083,56.318-11.913,69.314
				c-6.498,3.249-17.329,2.166-24.91,1.083c-8.664,0-19.495-1.083-28.159-1.083c-2.166,7.581-3.249,15.162-10.83,19.495
				c-16.245,8.664-55.235,1.083-72.563-2.166c4.332,8.664,7.581,14.079,7.581,23.827c-7.581,6.498-9.747,9.747-19.495,14.079
				c-7.581-1.083-15.162-1.083-22.744-3.249c-16.245-2.166-25.993-4.332-42.238-4.332c24.91-2.166,22.744-16.246,22.744-36.823
				c-6.498-14.079-17.329-22.744-25.993-35.74l-12.996-10.83l1.083-5.415c9.747,3.249,21.661,5.415,31.408,8.664
				c14.079-1.083,19.495-3.249,36.823-4.332c12.996,0,37.906,7.581,55.235,9.747c27.076-1.083,74.729-2.166,95.307-22.744
				C4072.202,1324.549,4072.202,1324.549,4080.866,1314.801L4080.866,1314.801z"/>
			<path fill="#FEC923" d="M3862.094,1362.455c15.162,2.166,53.068,15.162,60.65,15.162c5.415,6.498,16.245,22.744,19.494,25.993
				c4.332,8.664,7.581,14.079,7.581,23.827c-7.581,6.498-9.747,9.747-19.495,14.079c-7.581-1.083-15.162-1.083-22.744-3.249
				c-16.246-2.166-25.993-4.332-42.238-4.332c24.91-2.166,22.744-16.246,22.744-36.823
				C3882.671,1383.032,3870.758,1375.451,3862.094,1362.455z"/>
			<path fill="#FED332" d="M3889.17,1397.112c11.913,6.498,24.91,21.661,23.827,35.74c-1.083,2.166-2.166,3.249-3.249,4.332
				c-16.246-2.166-25.993-4.332-42.238-4.332C3890.253,1431.769,3889.17,1417.689,3889.17,1397.112z"/>
			<path fill="#F4712C" d="M3923.827,1377.617c25.993-3.249,72.563,8.664,103.971,9.747c-2.166,7.581-3.249,15.162-10.83,19.495
				c-16.245,8.664-55.235,1.083-72.563-2.166C3938.989,1400.361,3928.159,1384.116,3923.827,1377.617z"/>
			<path fill="#FC8300" d="M3850.18,1346.209c9.747,3.249,21.661,5.415,31.408,8.664c33.574,8.664,70.397,14.08,105.054,19.495
				c21.66,4.332,47.653,6.498,68.231,14.079c-8.664,0-19.495-1.083-28.159-1.083c-31.408,0-77.978-11.913-103.971-9.747
				c-8.664,0-46.57-12.996-60.65-15.162l-12.996-10.83L3850.18,1346.209z"/>
			<path fill="#FED332" d="M4068.953,1336.462c3.249,5.415,3.249,5.415,3.249,11.913c-9.747,20.578-82.311,16.245-98.556,10.83
				C4001.805,1359.206,4049.458,1357.04,4068.953,1336.462L4068.953,1336.462z"/>
			<path fill="#FE9600" d="M3628.159,1260.65c15.163-3.249,24.91,8.664,34.657,6.498c1.083-2.166,1.083-2.166,2.166-4.332
				c10.83,5.415,25.993,19.495,33.574,22.744c10.83,8.664,23.827,15.162,36.823,21.661c20.578,10.83,42.238,18.412,63.899,23.827
				c18.411,6.498,32.491,9.747,50.903,15.162l-1.083,5.415c-14.079-2.166-88.809-1.083-108.303-1.083
				c-19.495-15.162-37.906-32.491-56.318-47.653C3667.148,1287.726,3646.57,1273.646,3628.159,1260.65L3628.159,1260.65z"/>
			<path fill="#FED332" d="M3698.556,1285.559c5.415,1.083,7.581,2.166,11.914,4.332c11.913,5.415,24.91,8.664,36.823,11.913
				c23.827,8.664,40.072,18.411,66.065,18.411c29.242,20.578,41.155,29.242,77.978,25.993c7.581-1.083,20.578,0,27.076,3.249
				c-17.329,1.083-22.744,3.249-36.823,4.332c-9.747-3.249-21.66-6.498-31.408-8.664c-19.495-4.332-32.491-8.664-50.902-15.162
				c-22.744-5.415-43.322-12.996-63.899-23.827C3722.383,1300.722,3709.386,1294.224,3698.556,1285.559z"/>
			<path fill="#FEC923" d="M3735.379,1307.22c11.913-5.415,56.318,12.996,63.899,23.827
				C3776.534,1325.632,3754.874,1316.968,3735.379,1307.22z"/>
			<path fill="#E6623C" d="M4011.552,1303.971c12.996-4.332,19.495,1.083,40.072-7.581c21.661,0,43.321-8.664,41.155,21.661
				c-4.332-1.083-7.581-1.083-11.913-2.166C4058.123,1312.635,4034.296,1308.303,4011.552,1303.971z"/>
			
				<linearGradient id="SVGID_00000020363869298042232560000001505127538793516457_" gradientUnits="userSpaceOnUse" x1="3450.5837" y1="2073.095" x2="3480.1245" y2="1964.4244" gradientTransform="matrix(1 0 0 1 0 -778)">
				<stop  offset="0" style="stop-color:#FEC523"/>
				<stop  offset="1" style="stop-color:#FFE764"/>
			</linearGradient>
			<path fill="url(#SVGID_00000020363869298042232560000001505127538793516457_)" d="M3295.668,1081.949
				c11.913,4.332,23.827,4.332,33.574,7.581c24.91,6.498,37.906,11.913,61.733,21.661c25.993,16.245,36.823,17.328,58.484,29.242
				c19.495,8.664,62.816,29.242,82.311,32.491c5.415,2.166,3.249,0,6.498,5.415c0,8.664-1.083,14.079-3.249,22.744l-2.166,8.664
				c8.664,5.415,23.827,11.913,33.574,16.245c3.249,2.166,35.74,19.495,37.906,20.578c8.664,4.332,15.162,7.581,23.827,12.996
				c18.412,12.996,38.989,27.076,56.318,41.155c19.495,15.162,36.823,32.491,56.318,47.653c-17.328,0-109.386-2.166-123.466-4.332
				c-14.079-1.083-28.159-2.166-42.238-3.249c-14.08,0-27.076-1.083-41.155-2.166c-58.484-2.166-120.217-7.581-178.7-12.996
				c-24.91-33.574-43.321-49.82-68.231-88.809c-4.332-5.415-8.664-10.83-12.996-16.245c-10.83-5.415-20.578-10.83-31.408-16.245
				l-16.245-8.664c-6.498-5.415-11.913-7.581-18.412-11.913c-7.581-5.415-18.411-14.079-27.076-17.328
				c6.498-15.162,14.08-37.906,27.076-46.571c7.581,1.083,8.664,2.166,16.246,2.166c12.996-15.162,19.495-35.74,42.238-38.989
				C3276.173,1084.115,3287.004,1084.115,3295.668,1081.949L3295.668,1081.949z"/>
			<path fill="#FE9F01" d="M3310.83,1156.679c4.332,0,6.498,0,9.747,1.083c6.498,6.498,17.329,8.664,25.993,15.162l4.332,3.249
				c7.581,15.162,30.325,36.823,45.487,45.487c11.913,16.245,45.487,29.242,47.653,36.823c8.664,6.498,18.412,8.664,24.91,14.079
				l-2.166,3.249c8.664,7.581,11.914,11.913,19.495,21.661l3.249-2.166c11.913,4.332,10.83,16.245,24.91,14.079l6.498-5.415
				c7.581,6.498,10.83,7.581,19.495,12.996c-3.249,3.249-6.498,18.411-6.498,22.744c-58.484-2.166-120.217-7.581-178.7-12.996
				c-24.91-33.574-43.322-49.82-68.231-88.809c-4.332-5.415-8.664-10.83-12.996-16.245c1.083-6.498-3.249-17.328-5.415-24.91
				c-8.664-20.578,17.329-32.491,32.491-35.74C3305.415,1162.094,3307.581,1158.845,3310.83,1156.679L3310.83,1156.679z"/>
			<path fill="#FC8300" d="M3287.004,1238.989c10.83,0,56.318,23.827,70.397,29.242c37.906,16.245,80.144,27.076,115.885,44.404
				c0,0,1.083,0,1.083,1.083c7.581,3.249,11.914,6.498,21.661,8.664l1.083-2.166c-4.332-8.664-3.249-14.079-10.83-21.661v-2.166
				l3.249-2.166c11.913,4.332,10.83,16.245,24.91,14.079l6.498-5.415c7.581,6.498,10.831,7.581,19.495,12.996
				c-3.249,3.249-6.498,18.412-6.498,22.744c-58.484-2.166-120.217-7.581-178.7-12.996
				C3330.325,1294.224,3311.913,1277.978,3287.004,1238.989z"/>
			<path fill="#FEC923" d="M3310.83,1156.679c4.332,0,6.498,0,9.747,1.083c6.498,6.498,17.329,8.664,25.993,15.162l4.332,3.249
				c7.581,15.162,30.325,36.823,45.487,45.487c11.913,16.245,45.487,29.242,47.653,36.823l-10.83-1.083
				c-24.91-15.162-70.397-36.823-99.639-35.74c-6.498,0-4.332,6.498-11.914,8.664c-19.495-11.913-24.91-44.404-28.159-47.653
				l-6.498,1.083c0-5.415,5.415-11.913,8.664-17.328c-14.08-3.249-28.159,17.328-25.993,28.159l-1.083,2.166
				c-8.664-20.577,17.329-32.491,32.491-35.74C3305.415,1162.094,3307.581,1158.845,3310.83,1156.679L3310.83,1156.679z"/>
			<path fill="#FEC923" d="M3434.296,1257.401l10.83,1.083c8.664,6.498,18.411,8.664,24.91,14.079l-2.166,3.249
				c8.664,7.581,11.914,11.913,19.495,21.661v2.166c-4.332,6.498-4.332,6.498-9.747,10.83
				c-18.411-16.245-40.072-27.076-61.733-36.823c7.581-5.415,11.913-8.664,19.495-12.996L3434.296,1257.401z"/>
			<path fill="#FEB809" d="M3434.296,1257.401l10.83,1.083c8.664,6.498,18.411,8.664,24.91,14.079l-2.166,3.249
				c-10.83-5.415-21.661-9.747-32.491-15.162L3434.296,1257.401z"/>
			<path fill="#FEC923" d="M3295.668,1081.949c11.913,4.332,23.827,4.332,33.574,7.581c-8.664,0-17.329-1.083-23.827,1.083
				c16.246,1.083,32.491,16.245,47.653,23.827c5.415,2.166,17.329,9.747,20.578,14.079c5.415,1.083,15.162,2.166,19.495,3.249
				c-5.415,2.166-6.498,2.166-11.914,3.249c-12.996,8.664-18.411,25.993-29.242,27.076l4.332,1.083
				c-3.249,4.332-4.332,4.332-7.581,8.664l-2.166,1.083c-9.747-6.498-19.495-8.664-25.993-15.162
				c-4.332-1.083-5.415-1.083-9.747-1.083c-2.166,2.166-4.332,5.415-7.581,5.415c-16.246,2.166-41.155,15.162-32.491,35.74
				c2.166,7.581,5.415,18.411,5.415,24.91c-10.83-5.415-20.577-10.83-31.408-16.245l-16.246-8.664
				c-6.498-5.415-11.913-7.581-18.412-11.914c-7.581-5.415-18.411-14.079-27.076-17.328c6.498-15.162,14.079-37.906,27.076-46.57
				c7.581,1.083,8.664,2.166,16.246,2.166c12.996-15.163,19.495-35.74,42.238-38.989
				C3276.173,1084.115,3287.004,1084.115,3295.668,1081.949L3295.668,1081.949z"/>
			<path fill="#FE9F01" d="M3181.949,1169.675c6.498-15.162,14.079-37.906,27.076-46.57c7.581,1.083,8.664,2.166,16.245,2.166
				c-3.249,5.415-5.415,7.581-5.415,12.996c4.332,7.581,10.83,8.664,19.494,11.914c-1.083,5.415,5.415,12.996,9.747,20.578
				c0,15.162-1.083,21.661-5.415,36.823l-16.246-8.664c-6.498-5.415-11.913-7.581-18.411-11.914
				C3201.444,1181.589,3190.614,1172.924,3181.949,1169.675z"/>
			<path fill="#FC8300" d="M3239.35,1149.098c15.163,2.166,29.242,3.249,44.405,4.332c16.245,4.332,12.996,2.166,25.993,3.249
				c-2.166,2.166-4.332,5.415-7.581,5.415c-16.245,2.166-41.155,15.162-32.491,35.74c2.166,7.581,5.415,18.411,5.415,24.91
				c-10.83-5.415-20.578-10.83-31.408-16.245c5.415-14.079,5.415-21.661,5.415-36.823
				C3245.848,1163.177,3238.267,1155.596,3239.35,1149.098z"/>
			<path fill="#FE9600" d="M3283.754,1153.43c17.329,0,38.989,2.166,54.152-6.498c11.914-6.498,22.744-12.996,34.657-18.411
				c5.415,1.083,15.163,2.166,19.495,3.249c-5.415,2.166-6.498,2.166-11.913,3.249c-12.996,8.664-18.411,25.993-29.242,27.076
				l4.332,1.083c-3.249,4.332-4.332,4.332-7.581,8.664l-2.166,1.083c-9.747-6.498-19.495-8.664-25.993-15.162
				c-4.332-1.083-5.415-1.083-9.747-1.083C3296.751,1155.596,3300,1157.762,3283.754,1153.43L3283.754,1153.43z"/>
			<path fill="#FEDB44" d="M3320.578,1157.762l31.408,4.332l4.332,1.083c-3.249,4.332-4.332,4.332-7.581,8.664l-2.166,1.083
				C3337.906,1166.426,3327.076,1165.343,3320.578,1157.762z"/>
			<path fill="#FE9F01" d="M3373.646,1128.52c-3.249-4.332-15.162-11.913-20.578-14.079c-15.162-7.581-31.408-22.744-47.653-23.827
				c6.498-2.166,16.246-1.083,23.827-1.083c24.91,6.498,37.906,11.913,61.733,21.661c25.993,16.245,36.823,17.328,58.484,29.242
				c19.495,8.664,62.816,29.242,82.311,32.491c5.415,2.166,3.249,0,6.498,5.415c0,8.664-1.083,14.079-3.249,22.744
				c-12.996-5.415-49.82-29.242-62.816-37.906c-5.415-4.332-7.581-5.415-14.079-8.664c-14.08-9.747-48.737-19.495-66.065-24.91
				C3388.809,1130.686,3377.979,1129.603,3373.646,1128.52z"/>
			
				<linearGradient id="SVGID_00000120543893296658017610000006327902954406934716_" gradientUnits="userSpaceOnUse" x1="3437.9578" y1="1924.8752" x2="3380.0037" y2="1963.3815" gradientTransform="matrix(1 0 0 1 0 -778)">
				<stop  offset="0" style="stop-color:#FB8300"/>
				<stop  offset="1" style="stop-color:#FFA504"/>
			</linearGradient>
			<path fill="url(#SVGID_00000120543893296658017610000006327902954406934716_)" d="M3392.058,1131.769
				c17.329,4.332,51.986,15.162,66.065,24.91c5.415,3.249,8.664,5.415,14.079,8.664c-6.498-2.166-6.498-3.249-11.913-1.083
				c-2.166,4.332-1.083,10.83,0,16.245c-5.415-2.166-10.83-3.249-17.329-4.332c-23.827-6.498-61.733-10.83-86.643-11.914
				l-4.332-1.083c10.83-2.166,16.245-18.411,29.242-27.076C3386.643,1133.935,3387.726,1133.935,3392.058,1131.769z"/>
			<path fill="#FB7C25" d="M3442.96,1175.09c0-5.415-1.083-12.996,1.083-17.329c4.332-3.249,8.664-2.166,14.079-1.083
				c5.415,3.249,8.664,5.415,14.08,8.664c-6.498-2.166-6.498-3.249-11.913-1.083c-2.166,4.332-1.083,10.83,0,16.245
				C3454.874,1177.256,3449.458,1176.173,3442.96,1175.09L3442.96,1175.09z"/>
			
				<linearGradient id="SVGID_00000093858549044729391460000012187585709978533266_" gradientUnits="userSpaceOnUse" x1="3567.1487" y1="2112.1633" x2="3572.2886" y2="2096.0554" gradientTransform="matrix(1 0 0 1 0 -778)">
				<stop  offset="0" style="stop-color:#FE8500"/>
				<stop  offset="1" style="stop-color:#FF9F03"/>
			</linearGradient>
			<path fill="url(#SVGID_00000093858549044729391460000012187585709978533266_)" d="M3520.939,1303.971l4.332-4.332
				c30.325,15.162,62.816,29.242,94.224,43.321v2.166l-2.166,1.083c-14.08-1.083-28.159-2.166-42.238-3.249
				c-14.08,0-27.076-1.083-41.155-2.166c0-4.332,3.249-19.495,6.498-22.744C3531.769,1312.635,3529.603,1310.469,3520.939,1303.971
				L3520.939,1303.971z"/>
			<path fill="#FB7C25" d="M3540.433,1316.968c9.747,4.332,40.072,15.162,45.487,22.744c-4.332,3.249-4.332,2.166-10.83,2.166
				c-14.08,0-27.076-1.083-41.155-2.166C3535.018,1335.379,3537.184,1320.217,3540.433,1316.968L3540.433,1316.968z"/>
			<path fill="#F4712C" d="M3460.289,1179.422c0-5.415-1.083-11.913,0-16.246c5.415-2.166,5.415,0,11.913,1.083
				c12.996,8.664,49.82,32.491,62.816,37.906l-2.166,8.664C3509.025,1200,3485.198,1189.17,3460.289,1179.422L3460.289,1179.422z"/>
			<path fill="#FE9600" d="M3470.036,1272.563c17.329,8.664,37.906,17.329,55.235,27.076l-4.332,4.332l-6.498,5.415
				c-12.997,2.166-12.997-9.747-24.91-14.079l-3.249,2.166c-7.581-9.747-10.83-14.079-19.495-21.661L3470.036,1272.563z"/>
			<path fill="#FED332" d="M3350.903,1176.173c6.498,2.166,12.996,4.332,19.495,6.498c7.581,20.578,15.162,21.661,27.076,38.989
				C3381.227,1212.996,3358.484,1190.253,3350.903,1176.173z"/>
			<path fill="#FEE35B" d="M3340.072,1000.722l4.332,1.083c38.989,16.245,96.39,45.487,134.296,64.982
				c2.166,4.332,28.159,47.653,29.242,49.82c-16.245,22.744-29.242,25.993-57.401,24.91c-21.661-11.913-32.491-14.079-58.484-29.242
				c-23.827-9.747-36.823-16.245-61.733-21.661c-10.83-3.249-21.661-3.249-33.574-7.581l-2.166-5.415
				c1.083-11.913,18.412-38.989,24.91-51.986C3324.91,1014.801,3330.325,1006.137,3340.072,1000.722L3340.072,1000.722z"/>
			<path fill="#FEDB44" d="M3340.072,1000.722l4.332,1.083c-6.498,14.079,17.329,66.065,25.993,80.144
				c4.332,7.581,18.411,24.91,20.577,30.325c-23.827-9.747-36.823-16.245-61.733-21.661c-10.83-3.249-21.661-3.249-33.574-7.581
				l-2.166-5.415c1.083-11.913,18.411-38.989,24.91-51.986C3324.91,1014.801,3330.325,1006.137,3340.072,1000.722z"/>
			<path fill="#FC8300" d="M3766.787,982.31l3.249,1.083c-15.162,19.495-40.072,45.487-57.401,63.899l-83.394,92.058
				c-6.498-6.498-56.318-42.238-67.148-49.819c-10.83-12.996-16.246-8.664-31.408-32.491l97.473-7.581h17.329
				c8.664-2.166,44.405-3.249,55.235-4.332C3721.3,1022.383,3734.296,995.307,3766.787,982.31z"/>
			<path fill="#F4712C" d="M3627.076,1049.458h17.329c6.498,0,10.83,0,16.245,2.166c4.332,14.079-17.329,44.404-33.574,47.653
				c-10.83-4.332-7.581-33.574-5.415-44.404C3621.661,1051.625,3623.827,1051.625,3627.076,1049.458z"/>
			<path fill="#FEDB44" d="M3638.989,971.48h18.412c21.661,0,58.484-1.083,77.978,2.166c-4.332,2.166-6.498,2.166-10.83,3.249
				c-25.993,1.083-43.321,37.906-53.069,59.567c-17.328-7.581-116.967-34.657-119.134-37.906c7.581,0,15.162,0,21.661,3.249
				c-2.166-10.83-29.242-16.245-38.989-20.578c-14.08-5.415-98.556,7.581-105.054,2.166c17.329-2.166,63.899-2.166,77.978-5.415
				c16.245-1.083,32.491-3.249,49.82-3.249C3583.755,974.729,3614.079,972.563,3638.989,971.48z"/>
			<path fill="#FC8300" d="M3542.599,919.495c5.415-2.166,18.411-5.415,25.993-6.498l-1.083,6.498l-3.249,24.91
				c-2.166,8.664-4.332,21.661-6.498,30.325c-17.328,0-32.491,2.166-49.82,3.249c-20.577,0-18.411-6.498-21.661-24.91
				C3499.278,946.57,3536.101,929.242,3542.599,919.495z"/>
			<path fill="#D51E21" d="M3325.993,963.899c46.571-8.664,93.141-19.495,139.711-29.242c10.83-2.166,22.744-5.415,34.657-5.415
				c-19.495,14.079-100.722,37.906-125.632,41.155c-14.079,2.166-29.242,2.166-44.404,0h-1.083L3325.993,963.899z"/>
			<path fill="#FE9600" d="M3531.769,1174.007l7.581-10.83c1.083-2.166,2.166-2.166,2.166-5.415
				c5.415,6.498,1.083,9.747-3.249,17.329v3.249l3.249,2.166c9.747-2.166,5.415-9.747,12.997-5.415
				c10.83,7.581,30.325,23.827,36.823,34.657l1.083,2.166c1.083,2.166,2.166,3.249,2.166,5.415
				c-3.249-2.166-4.332-4.332-7.581-6.498c-5.415,4.332-15.162,10.83-20.578,14.079l-1.083,2.166
				c-9.747-3.249-24.91-10.83-33.574-16.245l2.166-8.664c2.166-8.664,3.249-14.079,3.249-22.744
				C3536.101,1174.007,3537.184,1176.173,3531.769,1174.007z"/>
			<path fill="#FC8300" d="M3568.592,1224.91c-1.083-2.166-2.166-3.249-3.249-5.415c-4.332-7.581-7.581-17.329-5.415-25.993
				c3.249-3.249,1.083-2.166,7.581-3.249c8.664,3.249,16.246,12.996,21.661,20.578
				C3582.671,1215.162,3574.007,1221.661,3568.592,1224.91L3568.592,1224.91z"/>
			<path fill="#F4712C" d="M3604.332,1247.653c9.747-1.083,21.661,2.166,31.408,4.332c6.498,3.249,7.581,3.249,14.08,3.249
				l4.332-2.166l10.83,8.664c0,2.166-1.083,2.166-2.166,4.332c-9.747,2.166-19.495-8.664-34.657-6.498
				C3620.578,1255.235,3612.996,1251.986,3604.332,1247.653z"/>
			
				<linearGradient id="SVGID_00000111167323991060568480000003129466797807024001_" gradientUnits="userSpaceOnUse" x1="3510.7422" y1="2114.9846" x2="3393.7715" y2="2577.9954" gradientTransform="matrix(1 0 0 1 0 -778)">
				<stop  offset="0" style="stop-color:#FF9000"/>
				<stop  offset="1" style="stop-color:#FDC221"/>
			</linearGradient>
			<path fill="url(#SVGID_00000111167323991060568480000003129466797807024001_)" d="M3279.422,1323.466
				c24.91,1.083,50.903,3.249,76.896,4.332c58.484,5.415,120.217,9.747,178.7,12.996c14.08,1.083,28.159,2.166,41.155,2.166
				c14.08,1.083,28.159,2.166,42.238,3.249c12.996,2.166,106.137,4.332,123.466,4.332c19.495,0,94.224-1.083,108.303,1.083
				l12.996,10.83c8.664,12.996,19.495,20.578,25.993,35.74c1.083,20.578,2.166,33.574-22.744,36.823
				c16.246,0,25.993,2.166,42.238,4.332c7.581,1.083,15.162,2.166,22.744,3.249c9.747-4.332,11.914-6.498,19.495-14.079l3.249,2.166
				c31.408,9.747,83.393,31.408,82.31,71.48l-150.541,29.242l-21.661,3.249l-2.166-5.415c-9.747-7.581-27.076-3.249-40.072-5.415
				l-7.581,4.332c-70.397,5.415-111.552,20.578-153.791-50.902c-10.83,2.166-73.646,15.162-79.061,18.411
				c-9.747,2.166-23.827,5.415-33.574,6.498c-56.318,12.996-113.718,25.993-171.119,38.989
				c-22.744,4.332-58.484,12.996-80.144,15.162c-9.747,2.166-19.495,3.249-29.242,4.332c-29.242,5.415-81.227,14.079-107.22,21.661
				c-1.083-1.083-3.249-2.166-5.415-3.249c-16.246,1.083-35.74,6.498-51.986,10.83c-6.498,2.166-11.913,4.332-15.162,7.581
				l-3.249,2.166c-11.913,2.166-15.162,3.249-23.827,10.83c-25.993,8.664-55.235,23.827-80.144,35.74
				c-10.83,5.415-23.827,11.913-35.74,15.162c-14.08,8.664-30.325,23.827-47.654,17.328c-14.079-3.249-19.495-6.498-24.91-20.577
				c-9.747-35.74,2.166-30.325,8.664-55.235c0-2.166,1.083-4.332,1.083-7.581c7.581-20.578,106.137-55.235,131.047-66.065
				c20.578-8.664,40.072-19.495,59.567-29.242c10.83-5.415,22.744-14.08,34.657-20.578c-15.162-10.83-37.906-20.578-49.82-30.325
				c-3.249-5.415-3.249-5.415-8.664-7.581c24.91,0,36.823,1.083,60.65-4.332c11.913-10.83,10.83-11.913,11.913-27.076l16.246,7.581
				c4.332,2.166,6.498,3.249,10.83,5.415c15.162,5.415,40.072,14.079,55.235,20.578c9.747-2.166,21.66-5.415,30.325-10.83
				c-2.166-1.083-3.249-1.083-6.498-2.166c-4.332-4.332-3.249-2.166-4.332-7.581c5.415-3.249,9.747-1.083,16.246-3.249l-2.166-2.166
				c37.906-5.415,64.982-2.166,102.888-3.249c-12.996-2.166-57.401-1.083-72.563-2.166c-3.249-3.249-6.498-7.581-9.747-10.83
				C3262.094,1370.036,3274.007,1351.625,3279.422,1323.466L3279.422,1323.466z"/>
			<path fill="#FB7C25" d="M2944.765,1660.289c8.664-7.581,49.819-34.657,61.733-42.238
				c81.227-53.069,163.538-100.722,250.18-145.126c33.574-17.329,67.148-34.657,101.805-47.653
				c7.581-2.166,22.744-2.166,31.408-1.083c40.072,3.249,81.228,9.747,120.217,12.996c42.238,3.249,88.809,4.332,131.047,12.996
				c19.495,4.332,58.484,24.91,77.979,31.408c27.076,9.747,54.152,17.329,81.227,25.993c3.249,1.083,22.744,11.913,27.076,14.079
				v2.166l2.166-1.083l1.083,1.083c-3.249,0-6.498,1.083-9.747,1.083l-7.581,4.332c-70.397,5.415-111.552,20.578-153.791-50.902
				c-10.83,2.166-73.646,15.162-79.061,18.411c-9.747,2.166-23.827,5.415-33.574,6.498
				c-56.318,12.996-113.719,25.993-171.119,38.989c-22.744,4.332-58.484,12.996-80.145,15.162
				c-9.747,2.166-19.495,3.249-29.242,4.332c-29.242,5.415-81.228,14.079-107.22,21.661c-1.083-1.083-3.249-2.166-5.415-3.249
				c-16.245,1.083-35.74,6.498-51.986,10.83c-6.498,2.166-11.913,4.332-15.162,7.581l-3.249,2.166
				c-11.913,2.166-15.162,3.249-23.827,10.83c-25.993,8.664-55.235,23.827-80.144,35.74
				C2968.592,1649.458,2956.679,1657.04,2944.765,1660.289z"/>
			<path fill="#FEB809" d="M3338.989,1508.664c6.498-5.415,81.227-30.325,93.141-34.657c-45.487,36.823-87.726,59.567-142.96,79.061
				c-3.249,1.083-8.664,0-10.83,0l-1.083,2.166c6.498,0,14.079,0,19.495,1.083c-9.747,2.166-19.495,3.249-29.242,4.332
				c4.332-3.249,6.498-9.747,14.08-16.245C3301.083,1533.574,3323.827,1523.827,3338.989,1508.664z"/>
			<path fill="#FC8300" d="M3548.014,1502.166c12.996-12.996,58.484-45.487,77.979-45.487c4.332,0,33.574,9.747,35.74,14.079
				l-1.083,7.581c-10.83,2.166-73.646,15.162-79.062,18.411C3571.841,1497.834,3557.762,1501.083,3548.014,1502.166z"/>
			<path fill="#D51E21" d="M3253.43,1534.657c19.495-5.415,70.397-25.993,85.56-25.993c-15.163,15.162-37.906,24.91-56.318,35.74
				C3274.007,1540.072,3263.177,1537.906,3253.43,1534.657z"/>
			<path fill="#FEE35B" d="M3279.422,1323.466c24.91,1.083,50.903,3.249,76.896,4.332c58.484,5.415,120.217,9.747,178.7,12.996
				c14.08,1.083,28.159,2.166,41.155,2.166c14.08,1.083,28.159,2.166,42.238,3.249c12.996,2.166,106.137,4.332,123.466,4.332
				c19.495,0,94.224-1.083,108.303,1.083l12.996,10.83c8.664,12.996,19.495,20.578,25.993,35.74
				c1.083,20.578,2.166,33.574-22.744,36.823h-37.906c-90.975,0-183.032-2.166-274.007-8.664
				c-68.231-4.332-144.043-10.83-212.274-12.996c-12.996-2.166-57.401-1.083-72.563-2.166c-3.249-3.249-6.498-7.581-9.747-10.83
				C3262.094,1370.036,3274.007,1351.625,3279.422,1323.466L3279.422,1323.466z"/>
			
				<linearGradient id="SVGID_00000023982716045637870590000015151044191961472943_" gradientUnits="userSpaceOnUse" x1="3802.7278" y1="2314.5872" x2="3973.1311" y2="2186.1145" gradientTransform="matrix(1 0 0 1 0 -778)">
				<stop  offset="0" style="stop-color:#FFB403"/>
				<stop  offset="1" style="stop-color:#FFD53A"/>
			</linearGradient>
			<path fill="url(#SVGID_00000023982716045637870590000015151044191961472943_)" d="M3953.069,1428.52
				c31.408,9.747,83.393,31.408,82.311,71.48l-150.542,29.242c-7.581-8.664-84.477-41.155-100.722-49.819
				c-15.162-8.664-35.74-20.578-50.902-29.242c28.159,3.249,71.48,2.166,100.722,2.166c14.079,4.332,81.227,1.083,98.556-2.166
				c6.498-1.083,16.246-4.332,22.744-6.498L3953.069,1428.52z"/>
			<path fill="#FED332" d="M3122.383,1409.025l16.246,7.581c4.332,2.166,6.498,3.249,10.83,5.415
				c15.162,5.415,40.072,14.079,55.235,20.578c9.747-2.166,21.661-5.415,30.325-10.83c16.246-4.332,37.906-2.166,54.152,0
				c-62.816,22.744-128.881,38.989-189.531,70.397c-57.401,29.242-114.802,54.152-172.202,82.311
				c-9.747,7.581-28.159,16.245-40.072,20.578c-1.083,2.166-7.581,10.83-7.581,12.996c1.083,14.079,3.249,32.491,5.415,46.57
				c6.498,9.747,7.581,7.581,14.079,12.996c-14.079-3.249-19.494-6.498-24.91-20.578c-9.747-35.74,2.166-30.325,8.664-55.235
				c0-2.166,1.083-4.332,1.083-7.581c7.581-20.578,106.137-55.235,131.047-66.065c20.578-8.664,40.072-19.495,59.567-29.242
				c10.83-5.415,22.744-14.079,34.657-20.578c-15.162-10.83-37.906-20.578-49.82-30.325c-3.249-5.415-3.249-5.415-8.664-7.581
				c24.91,0,36.823,1.083,60.65-4.332C3121.3,1425.271,3121.3,1424.188,3122.383,1409.025z"/>
			<path fill="#FEC923" d="M3122.383,1409.025l16.246,7.581c4.332,2.166,6.498,3.249,10.83,5.415
				c15.162,5.415,40.072,14.079,55.235,20.578c-10.83,5.415-33.574,10.83-46.57,16.245s-37.906,19.495-49.82,20.578
				c-15.162-10.83-37.906-20.578-49.82-30.325c-3.249-5.415-3.249-5.415-8.664-7.581c24.91,0,36.823,1.083,60.65-4.332
				C3121.3,1425.271,3121.3,1424.188,3122.383,1409.025z"/>
			<path fill="#FED332" d="M3122.383,1409.025l16.246,7.581c4.332,2.166,6.498,3.249,10.83,5.415
				c-4.332,7.581-30.325,12.996-40.072,14.079C3121.3,1425.271,3121.3,1424.188,3122.383,1409.025L3122.383,1409.025z"/>
			<path fill="#FEB809" d="M3950.903,1427.437l3.249,2.166l1.083,16.245c-6.498,2.166-16.246,5.415-22.744,6.498
				c-17.329,3.249-84.477,5.415-98.556,2.166c31.408-4.332,81.227,1.083,105.054-5.415v-1.083
				c-19.495-3.249-38.989-6.498-57.401-8.664c-17.329-2.166-34.657,1.083-53.069-3.249h37.906c16.245,0,25.993,2.166,42.238,4.332
				c7.581,1.083,15.162,2.166,22.744,3.249C3940.072,1436.101,3943.321,1433.935,3950.903,1427.437z"/>
			<path fill="#FEDB44" d="M3660.65,1477.256c42.238,70.397,82.31,56.318,153.791,50.902c-7.581,8.664-7.581,8.664-11.913,18.412
				l-184.116,35.74c-24.91,4.332-49.82,11.913-74.729,15.162c-20.578,4.332-44.405,9.747-64.982,11.913
				c-16.245,2.166-28.159,1.083-46.57,4.332c-43.321,12.996-69.314,20.578-115.885,28.159
				c-15.162-5.415-83.393,9.747-105.054,12.996c-27.076,5.415-58.484,11.913-85.559,15.162c-7.581,1.083-15.162,2.166-21.661,3.249
				c-6.498-4.332-7.581-5.415-11.914-11.913h10.831c-16.246-15.162-21.661-23.827-17.329-46.57
				c-1.083-7.581,2.166-8.664,1.083-18.411c4.332-3.249,8.664-5.415,15.162-7.581c16.246-4.332,34.657-8.664,51.986-10.83
				c2.166,1.083,4.332,2.166,5.415,3.249c27.076-7.581,77.979-15.162,107.22-21.661c9.747-1.083,19.495-2.166,29.242-4.332
				c22.744-2.166,57.401-10.83,80.144-15.162c57.401-12.996,113.719-25.993,171.119-38.989c9.747-1.083,23.827-4.332,33.574-6.498
				C3587.004,1492.419,3649.82,1479.422,3660.65,1477.256z"/>
			<path fill="#FEB809" d="M3660.65,1477.256c42.238,70.397,82.31,56.318,153.791,50.902c-7.581,8.664-7.581,8.664-11.913,18.412
				l-184.116,35.74c-24.91,4.332-49.82,11.913-74.729,15.162l1.083-3.249c14.079-5.415,81.228-18.411,100.722-22.744l2.166-1.083
				v-2.166c-5.415-6.498-38.989-19.495-50.902-25.993c-12.996-4.332-54.152-12.996-62.816-21.661
				c4.332-4.332,36.823-14.079,43.321-20.578c2.166-2.166,2.166-2.166,5.415-3.249l-2.166-2.166
				C3587.004,1492.419,3649.82,1479.422,3660.65,1477.256z"/>
			<path fill="#FED332" d="M3596.751,1542.238c25.993-1.083,50.902,4.332,75.812,7.581c6.498,1.083,23.827,2.166,29.242,3.249
				c-1.083,1.083-6.498,7.581-3.249,6.498c-18.412,8.664-34.657,11.913-53.069,12.996l2.166-1.083v-2.166
				C3642.238,1561.733,3608.664,1548.736,3596.751,1542.238z"/>
			<path fill="#FEC923" d="M3211.191,1654.874c4.332-11.913,20.578-15.162,32.491-20.578
				c36.823-15.162,72.563-34.657,113.718-34.657c20.578,0,48.737,14.079,63.899,14.079c3.249,0,6.498,0,10.83,0
				c-43.321,12.996-69.314,20.578-115.885,28.159C3301.083,1636.462,3233.935,1651.625,3211.191,1654.874z"/>
			<path fill="#FEC923" d="M3087.726,1596.39c4.332-3.249,8.664-5.415,15.163-7.581c16.245-4.332,34.657-8.664,51.986-10.83
				c2.166,1.083,4.332,2.166,5.415,3.249c-28.159,7.581-50.903,12.996-74.729,32.491
				C3085.56,1607.22,3088.809,1606.137,3087.726,1596.39z"/>
			<path fill="#FE9600" d="M3092.058,1661.372h10.831c8.664,4.332,12.996,6.498,22.744,8.664
				c-7.581,1.083-15.162,2.166-21.661,3.249C3098.556,1667.87,3096.39,1666.787,3092.058,1661.372z"/>
			<path fill="#FEDB44" d="M2550.542,1332.13l4.332,2.166c0,21.661,0,44.404-2.166,66.065c1.083,5.415,0,4.332,3.249,6.498
				c27.076-10.83,87.726,2.166,95.307-3.249c6.498,24.91,12.996,49.819,19.495,74.729c2.166,9.747,8.664,33.574,9.747,43.321
				c3.249,14.079,7.581,28.159,11.913,42.238l1.083,5.415c-7.581,6.498-11.913,12.996-18.412,20.578
				c-4.332,12.996-6.498,21.661-6.498,35.74l5.415,106.137c1.083,17.329,1.083,32.491,3.249,50.902
				c1.083,10.83,5.415,16.245,6.498,23.827c-10.83-1.083-20.578-2.166-31.408-3.249c-8.664-2.166-16.246-3.249-24.91-5.415
				c-3.249,2.166-2.166,2.166-6.498,3.249l-2.166-2.166c-2.166,5.415-2.166,8.664-5.415,14.079
				c-2.166-2.166-64.982-114.802-70.397-126.715c-3.249-7.581-5.415-10.83-9.747-17.329c-8.664-9.747-17.328-12.996-27.076-21.661
				c5.415-54.152,10.831-107.22,14.08-161.372L2550.542,1332.13z"/>
			<path fill="#F78E63" d="M2550.542,1332.13l4.332,2.166c0,21.661,0,44.404-2.166,66.065c1.083,5.415,0,4.332,3.249,6.498
				c27.076-10.83,87.726,2.166,95.307-3.249c6.498,24.91,12.996,49.819,19.495,74.729c2.166,9.747,8.664,33.574,9.747,43.321
				c3.249,14.079,7.581,28.159,11.913,42.238l1.083,5.415c-7.581,6.498-11.913,12.996-18.412,20.578
				c-4.332,12.996-6.498,21.661-6.498,35.74c-1.083,5.415-1.083,7.581-3.249,14.079l-2.166-1.083
				c-3.249-16.246,2.166-30.325,4.332-45.487c-6.498,6.498-3.249,12.996-12.997,25.993h-2.166
				c-1.083-10.83,1.083-17.329-1.083-27.076c0-8.664,2.166-29.242,2.166-41.155c-18.411-49.82-100.722,3.249-105.054,19.495
				c-4.332,18.412-8.664,46.571-10.83,66.065c-1.083,10.83-1.083,21.661-2.166,32.491c-8.664-9.747-17.329-12.996-27.076-21.661
				c5.415-54.152,10.83-107.22,14.08-161.372L2550.542,1332.13z"/>
			<path fill="#BB1E29" d="M2550.542,1332.13l4.332,2.166c0,21.661,0,44.404-2.166,66.065c-1.083,5.415-1.083,9.747-1.083,15.162
				c-6.498,70.397-14.079,149.458-12.996,219.856c-1.083,10.83-1.083,21.661-2.166,32.491c-8.664-9.747-17.328-12.996-27.076-21.661
				c5.415-54.152,10.83-107.22,14.079-161.372L2550.542,1332.13z"/>
			<path fill="#E94530" d="M2680.505,1520.578c3.249,14.079,7.581,28.159,11.913,42.238l1.083,5.415
				c-7.581,6.498-11.913,12.996-18.412,20.578c-4.332,12.996-6.498,21.661-6.498,35.74c-1.083,5.415-1.083,7.581-3.249,14.079
				l-2.166-1.083c-3.249-16.245,2.166-30.325,4.332-45.487C2675.09,1571.48,2678.339,1542.238,2680.505,1520.578z"/>
			<path fill="#E6623C" d="M2675.09,1589.892c2.166-16.245-1.083-25.993,17.329-27.076l1.083,5.415
				C2684.837,1574.729,2681.588,1582.311,2675.09,1589.892z"/>
			<path fill="#FB7C25" d="M2551.625,1399.278c1.083,5.415,0,4.332,3.249,6.498c6.498,5.415,11.913,11.913,18.411,17.329
				c-5.415-2.166-17.328-7.581-22.744-8.664C2550.542,1409.025,2551.625,1405.776,2551.625,1399.278z"/>
			<path fill="#E6623C" d="M2651.263,1590.975c2.166,10.83,0,17.328,1.083,27.076h2.166c9.747-12.996,6.498-20.578,12.996-25.993
				c-2.166,15.162-6.498,29.242-4.332,45.487l2.166,1.083c2.166-6.498,2.166-8.664,3.249-14.079l5.415,106.137
				c1.083,17.328,1.083,32.491,3.249,50.902c1.083,10.83,5.415,16.245,6.498,23.827c-10.83-1.083-20.578-2.166-31.408-3.249
				c-8.664-2.166-16.245-3.249-24.91-5.415c4.332-24.91,6.498-54.152,8.664-79.061
				C2640.433,1675.451,2645.848,1633.213,2651.263,1590.975z"/>
			<path fill="#FE9F01" d="M2653.43,1549.82c0,11.913-2.166,31.408-2.166,41.155c-5.415,42.238-10.83,84.477-15.162,126.715
				c-2.166,24.91-4.332,55.235-8.664,79.061c-3.249,2.166-2.166,2.166-6.498,3.249l-2.166-2.166
				c2.166-34.657,5.415-70.397,7.581-105.054c3.249-33.574,15.162-94.224,10.83-126.715
				C2641.516,1559.567,2648.014,1555.235,2653.43,1549.82z"/>
			<path fill="#FEC923" d="M2548.375,1569.314c17.329,16.245,30.325,2.166,43.321,6.498c-17.328,6.498-27.076,14.079-35.74,30.325
				c-9.748,16.245-7.581,71.48-11.914,79.061c-3.249-7.581-5.415-10.83-9.747-17.329c1.083-10.83,2.166-21.661,2.166-32.491
				C2539.711,1615.884,2544.043,1587.726,2548.375,1569.314z"/>
			<path fill="#BB1E29" d="M4042.96,1129.603l3.249-3.249c11.913,19.495,18.411,28.159,34.657,44.404
				c5.415,6.498,27.076,45.487,30.325,53.068c1.083,1.083,5.415,9.747,6.498,10.83c-1.083,8.664,6.499,31.408,8.665,41.155
				c8.664,30.325,16.246,60.65,23.827,92.058c9.747,36.823,34.657,102.888-23.827,113.718c-28.159,6.498-60.65,14.079-89.892,19.495
				c1.083-40.072-50.902-61.733-82.311-71.48l-3.249-2.166c1.083-9.747-3.249-15.162-7.581-23.827
				c17.329,3.249,57.401,10.83,72.563,2.166c7.581-4.332,8.664-10.83,10.83-19.495c8.664,1.083,19.495,2.166,28.159,1.083
				c8.664,0,18.411,2.166,24.91-1.083c14.08-14.079,11.914-49.82,11.914-69.314c2.166-30.325-20.578-21.661-41.155-21.661
				c40.072-23.827,24.91-47.653,17.328-84.476c2.166-8.664,0-11.914-3.249-19.495c-4.332,4.332-5.415,5.415-14.079,5.415
				l1.083-10.83l-9.747-1.083c4.332-9.747-7.581-24.91-8.664-33.574l3.249-7.581h2.166l5.415,5.415
				C4045.126,1139.35,4046.209,1138.267,4042.96,1129.603z"/>
			<path fill="#7F0907" d="M4110.108,1223.827c1.083,1.083,5.415,9.747,6.498,10.83c-1.083,8.664,6.499,31.408,8.665,41.155
				c8.664,30.325,16.245,60.65,23.827,92.058c9.747,36.823,34.657,102.888-23.827,113.718c5.415-5.415,9.747-9.747,12.996-16.245
				c5.416-9.747,7.582-21.661,7.582-33.574c-1.083-36.823-33.574-134.296-46.571-172.202
				C4100.361,1255.235,4107.942,1228.159,4110.108,1223.827L4110.108,1223.827z"/>
			<path fill="#9E0E10" d="M4079.783,1170.758c5.415,6.498,27.076,45.487,30.325,53.068c-1.083,3.249-9.747,31.408-10.831,35.74
				C4090.614,1232.491,4080.866,1200,4079.783,1170.758L4079.783,1170.758z"/>
			<path fill="#FEB809" d="M4035.379,1151.264l3.249-7.581h2.166l5.415,5.415c2.166,6.498,6.498,18.412,9.747,24.91
				c0,3.249-1.083,8.664-2.166,11.913l-9.747-1.083C4048.375,1175.09,4036.462,1159.928,4035.379,1151.264z"/>
			<path fill="#FB7C25" d="M4055.957,1174.007c5.415,4.332,7.581,10.83,10.83,17.328c-4.332,4.332-5.415,5.415-14.08,5.415
				l1.083-10.83C4054.874,1182.671,4054.874,1177.256,4055.957,1174.007z"/>
			<path fill="#E94530" d="M3084.477,1599.639l3.249-2.166c1.083,9.747-3.249,10.83-1.083,18.411
				c-5.415,22.744,1.083,31.408,17.329,46.571h-10.83c4.332,5.415,5.415,7.581,11.913,11.913c-10.83,1.083-25.993,2.166-35.74,4.332
				l1.083,2.166c20.578-1.083,58.484-5.415,79.062-10.83l1.083,1.083c-15.162,7.581-72.563,12.996-79.061,20.578
				c-6.498,2.166-34.657,8.664-42.238,8.664c-42.238,4.332-152.708,37.906-187.365,30.325c-24.91-10.83-38.989-18.412-49.819-44.404
				c4.332-30.325,57.401-29.242,80.144-27.076c5.415,12.996,10.83,16.245,24.91,20.578c17.328,6.498,33.574-9.747,47.653-17.329
				c11.913-3.249,23.827-10.83,35.74-15.162c24.91-10.83,54.152-27.076,80.144-35.74
				C3069.314,1601.805,3072.563,1601.805,3084.477,1599.639L3084.477,1599.639z"/>
			<path fill="#FE9F01" d="M3084.477,1599.639l3.249-2.166c1.083,9.747-3.249,10.83-1.083,18.411
				c-5.415,22.744,1.083,31.408,17.329,46.571h-10.83c4.332,5.415,5.415,7.581,11.913,11.913c-10.83,1.083-25.993,2.166-35.74,4.332
				c-68.231,8.664-31.408-40.072-8.664-68.231C3069.314,1601.805,3072.563,1601.805,3084.477,1599.639L3084.477,1599.639z"/>
			<path fill="#FEB809" d="M3084.477,1599.639l3.249-2.166c1.083,9.747-3.249,10.83-1.083,18.411
				c-5.415,22.744,1.083,31.408,17.329,46.571h-10.83C3074.729,1638.628,3075.812,1624.549,3084.477,1599.639z"/>
			
				<linearGradient id="SVGID_00000002375077421536126410000013557481896462894778_" gradientUnits="userSpaceOnUse" x1="3854.1873" y1="1730.2069" x2="3926.9268" y2="1599.5305" gradientTransform="matrix(1 0 0 1 0 -778)">
				<stop  offset="0" style="stop-color:#FE8300"/>
				<stop  offset="1" style="stop-color:#FFD12E"/>
			</linearGradient>
			<path fill="url(#SVGID_00000002375077421536126410000013557481896462894778_)" d="M3857.762,851.264l87.726-19.495
				c29.242,8.664,36.823,18.411,47.653,46.57c0,1.083-1.083,8.664-1.083,9.747c-4.332,4.332-7.581,8.664-12.996,11.913
				c-25.993,16.246-44.404,27.076-62.816,53.069c-5.415,6.498-11.914,11.913-17.329,18.411l-2.166-1.083
				c-1.083-3.249-1.083-4.332-3.249-6.498c-14.08,3.249-51.986-10.83-56.318-27.076c-2.166-9.747,1.083-15.162,4.332-22.744
				c-8.664,9.747-24.91,33.574-35.74,35.74c3.249-4.332,9.747-10.83,14.08-15.162c-6.498-6.498-19.495-8.664-28.159-11.913
				c-5.415,1.083-6.498,2.166-11.914,2.166c2.166-12.996,18.412-28.159,20.578-59.567
				C3815.523,858.845,3838.267,854.513,3857.762,851.264z"/>
			<path fill="#FEDB44" d="M3816.607,933.574c11.913-15.162,45.487-51.986,61.733-64.982c3.249-2.166,9.747,1.083,12.996,3.249
				c7.581,10.83,6.498,33.574,8.664,49.819c14.08,12.996,2.166,21.661,14.08,30.325c-5.415,6.498-11.914,11.913-17.329,18.411
				l-2.166-1.083c-1.083-3.249-1.083-4.332-3.249-6.498c-14.079,3.249-51.986-10.83-56.318-27.076
				c-2.166-9.747,1.083-15.162,4.332-22.744c-8.664,9.747-24.91,33.574-35.74,35.74
				C3806.859,943.321,3813.357,937.906,3816.607,933.574z"/>
			<path fill="#FEC923" d="M3901.083,921.661c14.079,12.996,2.166,21.661,14.079,30.325c-5.415,6.498-11.913,11.913-17.329,18.411
				C3902.166,948.736,3902.166,944.404,3901.083,921.661z"/>
			<path fill="#FEDB44" d="M3798.195,864.26c18.412-5.415,41.155-8.664,59.567-12.996c1.083,11.913-58.484,62.816-68.231,70.397
				c-5.415,1.083-6.498,2.166-11.913,2.166C3778.7,909.747,3794.946,895.668,3798.195,864.26z"/>
			<path fill="#F4712C" d="M2693.502,1569.314c6.498,22.744,11.914,46.57,17.329,69.314c10.83,48.736,21.661,85.559,69.314,112.635
				c6.498,3.249,12.997,6.498,19.495,8.664c-2.166,23.827-2.166,50.902-2.166,74.729c-9.747-12.996-12.996-16.246-28.159-18.412
				c-20.578-5.415-60.65-7.581-82.311-9.747c-1.083-7.581-5.415-11.913-6.498-23.827c-2.166-17.329-2.166-32.491-3.249-50.902
				l-5.415-106.137c0-12.996,2.166-22.744,6.498-35.74C2681.588,1582.311,2684.837,1574.729,2693.502,1569.314z"/>
			<path fill="#F4712C" d="M3673.646,890.253c31.408-5.415,98.556-23.827,124.549-27.076c-2.166,31.408-19.495,46.57-20.578,59.567
				c5.415,0,7.581-1.083,11.914-2.166c8.664,2.166,21.661,5.415,28.159,11.913c-4.332,4.332-9.747,10.83-14.08,15.162
				c-10.83,10.83-22.744,25.993-33.574,35.74l-3.249-1.083c-11.914-6.498-16.246-9.747-30.325-9.747
				c-19.495-3.249-56.318-2.166-77.978-2.166h-18.412c2.166-15.162,9.747-45.487,14.079-60.65c0-2.166,6.498-14.08,7.581-17.328
				L3673.646,890.253z"/>
			<path fill="#FB7C25" d="M3661.733,893.502l11.913-3.249c-4.332,18.411-7.581,35.74-10.83,54.152
				c-1.083,4.332-3.249,22.744-4.332,25.993h-18.411c2.166-15.162,9.747-45.487,14.079-60.65
				C3654.152,908.664,3659.567,896.751,3661.733,893.502z"/>
			
				<linearGradient id="SVGID_00000177481206617047616370000011470612756299856814_" gradientUnits="userSpaceOnUse" x1="3140.2271" y1="1697.5898" x2="3151.4006" y2="1781.3599" gradientTransform="matrix(1 0 0 1 0 -778)">
				<stop  offset="0" style="stop-color:#7D3616"/>
				<stop  offset="1" style="stop-color:#643026"/>
			</linearGradient>
			<path fill="url(#SVGID_00000177481206617047616370000011470612756299856814_)" d="M3126.715,954.152
				c12.997-5.415,44.405-10.83,58.484-14.079c42.238-9.747,85.559-18.412,127.798-27.076l152.708-33.574
				c25.993-5.415,58.484-12.996,84.477-15.162c-29.242,19.495-170.036,48.736-212.274,58.484l-150.542,36.823
				c-17.329,4.332-35.74,9.747-53.068,14.079c-14.079,4.332-27.076,10.83-41.155,14.079c-60.65,14.079-121.3,28.159-183.032,40.072
				c-55.235,10.83-112.635,29.242-167.87,36.823c41.155-16.245,83.394-30.325,126.715-40.072
				c37.906-8.664,74.729-15.163,111.552-28.159c11.913-4.332,28.159-4.332,40.072-8.664c31.408-8.664,63.899-16.245,95.307-23.827
				c8.664-2.166,9.747-5.415,20.578-7.581C3133.213,954.152,3129.964,954.152,3126.715,954.152z"/>
			<path fill="#FEB809" d="M3568.592,912.996c29.242-7.581,62.816-12.996,93.141-19.495c-1.083,2.166-7.581,15.162-7.581,17.328
				c-4.332,15.162-11.913,45.487-14.079,60.65c-25.993,1.083-56.318,3.249-81.228,3.249c2.166-8.664,4.332-20.578,6.498-30.325
				l3.249-24.91L3568.592,912.996z"/>
			<path fill="#FED332" d="M3568.592,912.996c29.242-7.581,62.816-12.996,93.141-19.495c-1.083,2.166-7.581,15.162-7.581,17.328
				c-16.245,12.996-24.91,18.411-45.487,24.91c-8.664,2.166-36.823,11.913-43.321,9.747l-1.083-1.083l3.249-24.91L3568.592,912.996z
				"/>
			<path fill="#FEC923" d="M3564.26,944.404l3.249-24.91c0,4.332,0,7.581,2.166,9.747c6.498,6.498,29.242,6.498,38.989,6.498
				c-8.664,2.166-36.823,11.913-43.321,9.747L3564.26,944.404z"/>
			<path fill="#F4712C" d="M4009.386,818.773c4.332,2.166,7.581,4.332,11.914,7.581c-15.163,17.328-20.578,30.325-29.242,51.986
				c-10.83-27.076-18.412-37.906-47.654-46.57C3966.065,828.52,3987.726,823.105,4009.386,818.773L4009.386,818.773z"/>
			<path fill="#E6623C" d="M3211.191,1654.874c21.661-2.166,88.809-18.411,105.054-12.996
				c-50.903,12.996-113.718,21.661-165.704,33.574c-11.913,2.166-70.397,14.079-79.061,15.162
				c7.581-7.581,63.899-12.996,79.061-20.578l-1.083-1.083c-20.577,4.332-58.484,8.664-79.061,10.83l-1.083-2.166
				c9.747-2.166,24.91-3.249,35.74-4.332c6.498-1.083,15.162-2.166,21.661-3.249
				C3152.708,1666.787,3185.198,1659.206,3211.191,1654.874L3211.191,1654.874z"/>
			<path fill="#FEB809" d="M3822.022,1523.827c12.996,2.166,29.242-2.166,40.072,5.415l2.166,5.415l-61.733,12.996
				c4.332-9.747,4.332-9.747,11.913-18.412L3822.022,1523.827z"/>
			<path fill="#D51E21" d="M2780.144,1685.199c4.332-2.166,7.581-1.083,12.997,0c10.83,25.993,24.91,32.491,49.819,44.404
				C2814.801,1728.52,2792.058,1707.942,2780.144,1685.199z"/>
			<path fill="#FEB999" d="M2387.004,1469.675c8.664,3.249,17.328,6.498,24.91,9.747c18.412,3.249,83.394,11.913,96.39,6.498
				c4.332,0,8.664-1.083,12.997-1.083c-3.249,54.152-7.581,107.22-14.08,161.372c9.747,8.664,18.411,11.913,27.076,21.661
				c4.332,6.498,6.498,9.747,9.747,17.329c5.415,11.913,68.231,125.632,70.397,126.715c4.332-5.415,3.249-8.664,5.415-14.079
				l2.166,2.166c4.332-1.083,3.249-1.083,6.498-3.249c8.664,1.083,16.246,3.249,24.91,5.415c10.83,1.083,20.577,2.166,31.408,3.249
				c22.744,2.166,62.816,4.332,82.311,9.747c16.246,2.166,18.412,5.415,28.159,18.411c0-23.827,0-50.903,2.166-74.729l19.495,5.415
				c38.989,8.664,98.556-7.581,138.628-16.245c5.415,7.581,16.245,99.639,17.328,115.885c4.332,22.744,7.581,46.57,9.747,69.314
				c1.083,14.079,2.166,31.408,4.332,44.404c19.495,105.054,49.82,223.105,51.986,329.242
				c1.083,69.314-8.664,151.625-19.495,220.938c-3.249,20.578-20.577,77.979-19.495,88.809
				c1.083,33.574,9.747,92.058,16.246,125.632c20.578-1.083,86.643-3.249,94.224,8.664c14.08,21.661,45.487,110.469,55.235,136.462
				c9.747,25.993,19.495,50.903,28.159,76.895c3.249,8.664,10.83,27.076,12.996,34.657h-683.394
				c-5.415-11.914-11.913-35.74-16.245-48.737c-7.581-24.91-16.246-48.736-25.993-73.646h-1.083
				c-22.744-55.235-42.238-116.968-63.899-173.285c-105.054-44.405-229.603-201.444-285.92-298.917
				c-4.332-5.415-14.08-24.91-17.329-31.408c-31.408-56.318-57.401-115.885-80.144-176.534
				c-15.162-40.072-27.076-70.397-29.242-113.719c-1.083-16.245-4.332-36.823-5.415-54.151
				c-9.747-32.491-24.91-63.899-37.906-95.307c-4.332-10.83-12.996-24.91-4.332-33.574c27.076-36.823,84.477-32.491,116.968-6.498
				c31.408,24.91,68.231,73.646,85.56,109.386c4.332,11.913,12.996,62.816,15.163,76.895c0,5.415,0,14.079,2.166,18.412
				c9.747,4.332,62.816,90.975,68.231,106.137c8.664-9.747,36.823-28.159,48.737-33.574c1.083-2.166,2.166-10.83,2.166-14.079
				l1.083,1.083c4.332-1.083,20.578-19.495,25.993-24.91c-8.664-7.581-15.162-11.914-24.91-17.329
				c-8.664-8.664-24.91-16.246-35.74-27.076c-5.415-14.079-7.581-34.657-9.747-49.82c9.747-22.744,47.653-41.155,70.397-45.487
				c4.332-4.332,5.415-75.812,6.498-86.643c2.166-50.902,4.332-101.805,7.581-153.791c1.083-23.827,3.249-57.401,6.498-80.144
				c4.332-24.91,11.913-56.318,17.328-81.227L2387.004,1469.675z"/>
			<path fill="#FEE35B" d="M2387.004,1469.675c8.664,3.249,17.328,6.498,24.91,9.747c18.412,3.249,83.394,11.913,96.39,6.498
				c4.332,0,8.664-1.083,12.997-1.083c-3.249,54.152-7.581,107.22-14.08,161.372c9.747,8.664,18.411,11.913,27.076,21.661
				c4.332,6.498,6.498,9.747,9.747,17.329c5.415,11.913,68.231,125.632,70.397,126.715c4.332-5.415,3.249-8.664,5.415-14.079
				l2.166,2.166c4.332-1.083,3.249-1.083,6.498-3.249c8.664,1.083,16.246,3.249,24.91,5.415c10.83,1.083,20.577,2.166,31.408,3.249
				c22.744,2.166,62.816,4.332,82.311,9.747c16.246,2.166,18.412,5.415,28.159,18.411v1.083
				c8.664,21.661,17.328,28.159,14.079,51.986l-1.083,4.332c4.332,5.415,24.91,27.076,25.993,30.325
				c-21.661,0-45.488,11.913-55.235,11.913c12.997,46.571,24.91,60.65,5.415,112.635c-3.249,9.747-9.747,28.159-14.08,36.823h-2.166
				c-3.249,16.246,9.747,53.069,16.245,67.148c-7.581-2.166-14.08-4.332-21.661-6.498c5.415,17.329,15.162,49.82,21.661,66.065
				c1.083,6.498,5.415,21.661,7.581,27.076c7.581,29.242,32.491,90.974,27.076,114.801c0,5.415,1.083,16.246,0,20.578
				c-14.079,48.737-80.144,57.401-114.801,25.993c-7.581-15.162-8.664-22.744-10.831-40.072
				c-4.332-15.162-8.664-19.495-18.411-31.408c-7.581-6.498-15.163-15.162-22.744-22.744c-9.747-8.664-14.08-14.079-22.744-24.91
				c-9.747-8.664-20.578-20.578-29.242-29.242c-5.415-4.332-30.325-32.491-35.74-38.989c-7.581-7.581-12.996-12.997-20.578-21.661
				c0-14.079,1.083-19.494-11.913-27.076c-11.913-6.498-22.744-14.079-34.657-20.578c-5.415-4.332-32.491-33.574-41.155-41.155
				c-30.325-29.242-68.231-56.318-98.556-84.477c-9.747-8.664-21.661-16.245-34.657-19.495c4.332-4.332,5.415-75.812,6.498-86.643
				c2.166-50.902,4.332-101.805,7.581-153.791c1.083-23.827,3.249-57.401,6.498-80.144c4.332-24.91,11.913-56.318,17.329-81.227
				L2387.004,1469.675z"/>
			<path fill="#F78E63" d="M2387.004,1469.675c8.664,3.249,17.328,6.498,24.91,9.747c18.412,3.249,83.394,11.913,96.39,6.498
				c4.332,0,8.664-1.083,12.997-1.083c-3.249,54.152-7.581,107.22-14.08,161.372c-9.747-6.498-17.329-11.913-27.076-18.411
				c-15.162,9.747-24.91,14.079-31.408,32.491c-7.581-10.83-12.996-17.329-22.743-25.993c-1.083,9.747-2.166,17.328,1.083,25.993
				c3.249,8.664,5.415,16.245,9.747,24.91c5.415,12.996,10.83,22.744,17.329,35.74c-3.249,5.415-15.163,29.242-16.246,34.657
				l2.166-1.083c10.83,15.162,40.072,51.986,41.155,72.563c0,4.332-3.249,6.498-5.415,8.664
				c16.246,9.747,30.325,12.996,47.654,17.329c6.498,6.498,6.498,8.664,9.747,16.245c4.332,11.913,16.245,30.325,19.495,40.072
				c-9.747,7.581-19.495,14.079-29.242,21.661c-11.913,11.913-15.162,17.329-12.996,34.657c2.166,19.495,3.249,38.989,7.581,58.484
				c1.083,4.332,3.249,10.83,3.249,15.162c-12.996,17.329,15.163,106.137,9.747,120.217c-11.913-6.498-22.744-14.079-34.657-20.577
				c-5.415-4.332-32.491-33.574-41.155-41.155c-30.325-29.242-68.231-56.318-98.556-84.477
				c-9.747-8.664-21.661-16.245-34.657-19.495c4.332-4.332,5.415-75.812,6.498-86.643c2.166-50.902,4.332-101.805,7.581-153.791
				c1.083-23.827,3.249-57.401,6.498-80.144c4.332-24.91,11.913-56.318,17.328-81.227L2387.004,1469.675z"/>
			
				<linearGradient id="SVGID_00000062893355087767307160000005619084888277728428_" gradientUnits="userSpaceOnUse" x1="2509.5942" y1="2798.053" x2="2416.8953" y2="2866.8267" gradientTransform="matrix(1 0 0 1 0 -778)">
				<stop  offset="0" style="stop-color:#FFA800"/>
				<stop  offset="1" style="stop-color:#FFC001"/>
			</linearGradient>
			<path fill="url(#SVGID_00000062893355087767307160000005619084888277728428_)" d="M2421.661,1940.794
				c17.329,1.083,23.827,1.083,34.657,15.162c1.083,3.249,4.332,9.747,5.415,12.996c15.162,10.83,33.574,40.072,54.152,55.235
				l3.249-1.083c1.083,4.332,3.249,10.83,3.249,15.162c-12.996,17.329,15.162,106.137,9.747,120.217
				c-11.913-6.498-22.744-14.079-34.657-20.578c-5.415-4.332-32.491-33.574-41.155-41.155
				c-30.325-29.242-68.231-56.318-98.556-84.477l3.249-8.664c3.249-11.913,9.747-24.91,14.079-36.823l1.083,2.166
				C2382.671,1948.375,2418.412,1948.375,2421.661,1940.794z"/>
			<path fill="#FED332" d="M2421.661,1940.794c17.329,1.083,23.827,1.083,34.657,15.162c1.083,3.249,4.332,9.747,5.415,12.996
				c9.747,30.325,41.155,85.56,38.989,111.552l-2.166,1.083c-20.577-3.249-76.895-54.152-90.975-70.397
				c-10.83-11.913-21.661-28.159-31.408-41.155C2382.671,1948.375,2418.412,1948.375,2421.661,1940.794z"/>
			<path fill="#E6623C" d="M2374.007,1772.924c-6.498-46.57,41.156-27.076,63.899-18.412h2.166
				c10.83,15.162,40.072,51.986,41.155,72.563c0,4.332-3.249,6.498-5.415,8.664c16.246,9.747,30.325,12.996,47.654,17.329
				c6.498,6.498,6.498,8.664,9.747,16.245c4.332,11.913,16.245,30.325,19.495,40.072c-9.747,7.581-19.495,14.079-29.242,21.661
				h-9.747c4.332-9.747,8.664-21.661-2.166-27.076c-20.578-8.664-72.563-6.498-93.141-2.166
				c-23.827,4.332-49.819,12.996-72.563,18.411c19.495-20.577,41.155-29.242,51.986-58.484
				c-4.332-20.578-15.163-40.072-15.163-60.65C2383.755,1793.502,2377.256,1781.588,2374.007,1772.924L2374.007,1772.924z"/>
			<path fill="#FEDB44" d="M2374.007,1772.924c-6.498-46.57,41.156-27.076,63.899-18.412h2.166
				c10.83,15.162,40.072,51.986,41.155,72.563c0,4.332-3.249,6.498-5.415,8.664c-28.159-10.83-59.567-18.411-82.31-38.989
				C2387.004,1791.336,2381.588,1780.505,2374.007,1772.924z"/>
			<path fill="#FE9600" d="M2374.007,1772.924c7.581,7.581,11.914,18.411,19.495,24.91c21.661,20.578,54.152,28.159,82.31,38.989
				c16.246,9.747,30.325,12.996,47.654,17.329c6.498,6.498,6.498,8.664,9.747,16.245c-25.993-3.249-90.975-25.993-118.051-34.657
				c-20.578-6.498-24.91-15.162-32.491-33.574C2383.755,1793.502,2377.256,1781.588,2374.007,1772.924z"/>
			<path fill="#E6623C" d="M2514.802,1932.13h9.747c-11.913,11.913-15.163,17.329-12.996,34.657
				c2.166,19.495,3.249,38.989,7.581,58.484l-3.249,0c-20.578-15.162-38.989-44.404-54.152-55.235
				c-1.083-3.249-3.249-9.747-5.415-12.996c8.664,4.332,27.076,20.578,34.657,28.159
				C2498.556,1959.206,2501.805,1952.708,2514.802,1932.13z"/>
			<path fill="#FEC923" d="M2356.679,1945.126c-1.083-2.166-1.083-2.166-1.083-5.415l2.166-2.166
				c9.747-3.249,49.82,2.166,63.899,3.249c-3.249,7.581-38.989,8.664-45.487,29.242l-1.083-2.166
				C2370.758,1961.372,2362.094,1951.625,2356.679,1945.126L2356.679,1945.126z"/>
			<path fill="#E6623C" d="M2428.159,1659.206c3.249,8.664,5.415,16.245,9.747,24.91c-11.913-1.083-46.571,1.083-55.235-6.498
				v-3.249C2393.502,1663.538,2412.996,1661.372,2428.159,1659.206z"/>
			<path fill="#FEC923" d="M2427.076,1633.213c11.913-8.664,40.072-14.079,54.152-6.498c-15.163,9.747-24.91,14.079-31.408,32.491
				C2442.238,1648.375,2435.74,1641.877,2427.076,1633.213z"/>
			<path fill="#FC8300" d="M2356.679,1945.126c5.415,6.498,14.08,16.246,17.328,22.744c-4.332,12.996-10.83,25.993-14.079,36.823
				C2359.928,1985.199,2363.177,1964.621,2356.679,1945.126z"/>
			
				<linearGradient id="SVGID_00000116211506164847260270000004673492441356831119_" gradientUnits="userSpaceOnUse" x1="2504.3582" y1="2819.4368" x2="2745.4163" y2="2772.302" gradientTransform="matrix(1 0 0 1 0 -778)">
				<stop  offset="0" style="stop-color:#FFA000"/>
				<stop  offset="1" style="stop-color:#FFC604"/>
			</linearGradient>
			<path fill="url(#SVGID_00000116211506164847260270000004673492441356831119_)" d="M2427.076,1633.213
				c8.664,8.664,15.162,15.162,22.744,25.993c10.83,29.242,33.574,72.563,47.653,101.805
				c32.491,66.065,66.065,131.047,99.639,196.029c9.747,18.411,20.578,36.823,30.325,55.235
				c4.332,8.664,14.079,23.827,17.328,32.491c10.83,30.325,18.412,64.982,27.076,96.39c12.996,50.902,28.159,100.722,43.321,150.542
				c7.581,25.993,17.328,57.401,31.408,80.144c31.408,1.083,47.654-3.249,72.563-22.744h1.083c0,5.415,1.083,16.246,0,20.578
				c-14.079,48.737-80.144,57.401-114.801,25.993c-7.581-15.162-8.664-22.744-10.831-40.072
				c-4.332-15.162-8.664-19.495-18.411-31.408c-7.581-6.498-15.162-15.162-22.744-22.744c-9.747-8.664-14.08-14.079-22.744-24.91
				c-9.747-8.664-20.578-20.578-29.242-29.242c-5.415-4.332-30.325-32.491-35.74-38.989c-7.581-7.581-12.996-12.997-20.578-21.661
				c0-14.079,1.083-19.494-11.913-27.076c5.415-14.08-22.744-102.888-9.747-120.217c0-4.332-2.166-10.83-3.249-15.162
				c-4.332-19.495-5.415-38.989-7.581-58.484c-2.166-17.328,2.166-22.744,12.996-34.657c9.747-7.581,19.495-15.162,29.242-21.661
				c-3.249-9.747-15.162-27.076-19.495-40.072c-3.249-8.664-4.332-9.747-9.747-16.245c-18.411-4.332-32.491-7.581-47.653-17.329
				c2.166-2.166,5.415-5.415,5.415-8.664c-1.083-20.578-30.325-57.401-41.155-72.563l-1.083-1.083
				c1.083-4.332,14.08-28.159,16.246-34.657c-6.498-12.996-11.913-22.744-17.329-35.74c-3.249-8.664-6.498-15.162-9.747-24.91
				C2424.91,1650.542,2425.993,1642.96,2427.076,1633.213z"/>
			<path fill="#FEDB44" d="M2511.552,1965.704c40.072,0,51.986,23.827,76.895,48.736c3.249,5.415,5.415,9.747,8.664,15.162
				c5.415,17.329,10.83,35.74,15.163,54.152c5.415,29.242,43.321,144.043,27.076,164.621c-3.249,4.332-7.581,5.415-11.913,5.415
				c-8.664,1.083-18.412-2.166-25.993-4.332c-5.415-4.332-30.325-32.491-35.74-38.989c-7.581-7.581-12.997-12.996-20.578-21.661
				c0-14.08,1.083-19.495-11.913-27.076c5.415-14.08-22.744-102.888-9.747-120.217c0-4.332-2.166-10.83-3.249-15.162
				C2514.802,2004.693,2512.635,1985.199,2511.552,1965.704L2511.552,1965.704z"/>
			<path fill="#FC8300" d="M2532.13,2160.65c5.415-14.08-22.744-102.888-9.747-120.217c7.581,36.823,18.411,74.729,27.076,111.552
				c4.332,19.494,11.913,38.989,15.162,58.484c-7.581-7.581-12.996-12.996-20.578-21.661
				C2542.96,2173.646,2545.126,2168.231,2532.13,2160.65z"/>
			<path fill="#F4712C" d="M2671.841,2293.863c0-4.332,2.166-14.079,5.415-17.329c2.166-2.166,2.166-1.083,7.581-2.166
				c9.747,16.246,14.08,41.155,19.495,58.484c6.498,20.578,11.913,53.069,36.823,59.567c20.578,5.415,70.397-5.415,77.978-29.242
				c1.083-3.249,1.083-8.664,1.083-12.997h1.083c0,5.415,1.083,16.246,0,20.578c-14.079,48.736-80.144,57.401-114.801,25.993
				c-7.581-15.162-8.664-22.744-10.83-40.072c-4.332-15.163-8.664-19.495-18.412-31.408c-7.581-6.498-15.162-15.162-22.744-22.744
				C2661.011,2301.444,2665.343,2298.195,2671.841,2293.863z"/>
			<path fill="#FB7C25" d="M2671.841,2293.863c1.083,12.996,0,18.412,4.332,31.408c-7.581-6.498-15.162-15.162-22.744-22.744
				C2661.011,2301.444,2665.343,2298.195,2671.841,2293.863z"/>
			<path fill="#FEC923" d="M2553.791,1909.386c18.412,35.74,43.321,70.397,41.155,111.552l-4.332-6.498c-2.166,0-1.083,0-2.166,0
				c-24.91-23.827-36.823-47.653-76.895-48.736c-2.166-17.329,2.166-22.744,12.996-34.657
				C2534.296,1924.549,2544.043,1916.968,2553.791,1909.386L2553.791,1909.386z"/>
			<path fill="#FEB809" d="M2440.072,1754.513c10.83,1.083,25.993,4.332,36.823,6.498c6.498,6.498,44.405,81.227,46.571,92.058
				c-18.412-4.332-32.491-7.581-47.654-17.329c2.166-2.166,5.415-5.415,5.415-8.664
				C2480.144,1806.498,2450.903,1769.675,2440.072,1754.513z"/>
			<path fill="#E6623C" d="M2653.43,2259.206c12.996,4.332,19.494,11.914,31.408,14.08v1.083c-5.415,0-4.332-1.083-7.581,2.166
				c-3.249,3.249-5.415,12.996-5.415,17.329c-6.498,4.332-10.83,6.498-18.412,8.664c-9.747-8.664-14.08-14.079-22.744-24.91
				C2642.599,2273.285,2648.014,2272.202,2653.43,2259.206z"/>
			<path fill="#FE9600" d="M2600.361,2012.274c4.332,9.747,10.83,25.993,18.412,31.408c2.166,5.415,6.498,15.162,7.581,20.578
				l-3.249,3.249c1.083,8.664,4.332,19.495,5.415,27.076l-16.245-10.83c-4.332-18.411-9.747-35.74-15.163-54.152
				C2597.112,2023.105,2599.278,2017.69,2600.361,2012.274z"/>
			<path fill="#FC8300" d="M2653.43,2259.206c-1.083-7.581-1.083-20.577,4.332-27.076c18.411-4.332,27.076,27.076,27.076,41.156
				C2671.841,2271.119,2666.426,2263.538,2653.43,2259.206z"/>
			<path fill="#F4712C" d="M2455.235,1719.856c7.581,12.996,15.163,28.159,21.661,42.238c-10.83-2.166-25.993-6.498-36.823-6.498
				l-1.083-1.083C2440.072,1749.098,2451.986,1725.271,2455.235,1719.856z"/>
			<path fill="#F4712C" d="M2628.52,2093.502c-1.083-7.581-4.332-18.411-5.415-27.076l3.249-3.249
				c5.415,14.079,6.498,20.577,8.664,35.74l-1.083,2.166C2629.603,2098.917,2629.603,2098.917,2628.52,2093.502L2628.52,2093.502z"
				/>
			<path fill="#FB7C25" d="M2600.361,2012.274c-2.166-4.332-2.166-5.415-3.249-9.747c1.083,0,1.083,0,2.166,0
				c6.498,10.83,17.328,29.242,19.495,41.155C2611.191,2038.267,2604.693,2020.939,2600.361,2012.274z"/>
			<path fill="#E94530" d="M2654.513,2181.227c4.332,4.332,8.664,16.246,7.581,21.661c-5.415-2.166-6.498-3.249-10.831-7.581
				C2651.263,2189.892,2652.347,2186.643,2654.513,2181.227z"/>
			<path fill="#FEE35B" d="M2614.44,1811.913c4.332-5.415,3.249-8.664,5.415-14.08l2.166,2.166c4.332-1.083,3.249-1.083,6.498-3.249
				c8.664,1.083,16.246,3.249,24.91,5.415c10.83,1.083,20.577,2.166,31.408,3.249c22.744,2.166,62.816,4.332,82.311,9.747
				c16.246,2.166,18.412,5.415,28.159,18.411v1.083c8.664,21.661,17.328,28.159,14.079,51.986
				c-15.162-4.332-21.661,3.249-37.906-6.498c-21.66,7.581-74.729,1.083-99.639-1.083c-9.747-1.083-14.08-1.083-23.827-2.166
				C2637.184,1856.318,2626.354,1834.657,2614.44,1811.913z"/>
			<path fill="#FEC923" d="M2614.44,1811.913c4.332-5.415,3.249-8.664,5.415-14.08l2.166,2.166c4.332-1.083,3.249-1.083,6.498-3.249
				c8.664,1.083,16.246,3.249,24.91,5.415c-8.664,1.083-6.498,0-11.914,4.332c-6.498,21.661,19.495,57.401,31.408,73.646
				c-9.747-1.083-14.079-1.083-23.827-2.166C2637.184,1856.318,2626.354,1834.657,2614.44,1811.913z"/>
			<path fill="#FEB809" d="M2767.148,1815.162c16.246,2.166,18.412,5.415,28.159,18.411v1.083
				c8.664,21.661,17.328,28.159,14.079,51.986c-15.162-4.332-21.661,3.249-37.906-6.498
				C2789.892,1861.733,2783.394,1833.574,2767.148,1815.162z"/>
			
				<linearGradient id="SVGID_00000063612092758339420220000005036750065076419482_" gradientUnits="userSpaceOnUse" x1="2694.8391" y1="2715.0303" x2="2787.3474" y2="2644.7178" gradientTransform="matrix(1 0 0 1 0 -778)">
				<stop  offset="0" style="stop-color:#FF8900"/>
				<stop  offset="1" style="stop-color:#FFA800"/>
			</linearGradient>
			<path fill="url(#SVGID_00000063612092758339420220000005036750065076419482_)" d="M2650.18,1877.978
				c9.747,0,14.08,1.083,23.827,2.166c23.827,2.166,77.979,8.664,99.639,1.083c16.245,9.747,22.744,2.166,37.906,6.498l-1.083,4.332
				c4.332,5.415,24.91,27.076,25.993,30.325c-21.661,0-45.487,11.913-55.235,11.913c-2.166-1.083-2.166-2.166-4.332-4.332
				l-2.166,1.083c-1.083,6.498-2.166,12.996-4.332,18.411l-7.581,4.332c-15.162,28.159-53.069,0-74.729-4.332l-1.083-3.249
				c-5.415-7.581-7.581-10.83-10.83-19.495l-18.412-32.491C2655.596,1889.892,2652.347,1882.311,2650.18,1877.978L2650.18,1877.978z
				"/>
			<path fill="#FEDB44" d="M2676.173,1925.632c8.664-12.996,24.91-20.578,40.072-20.578c1.083,1.083,3.249,2.166,4.332,2.166
				c5.415,2.166,17.328,5.415,21.661,8.664c10.83,2.166,25.993-1.083,31.408,5.415l1.083,9.747
				c-1.083,6.498-2.166,12.996-4.332,18.411l-7.581,4.332c-15.162,28.159-53.069,0-74.729-4.332l-1.083-3.249
				C2681.588,1937.545,2679.422,1934.296,2676.173,1925.632z"/>
			<path fill="#FEB809" d="M2676.173,1925.632c8.664-12.996,24.91-20.578,40.072-20.578c1.083,1.083,3.249,2.166,4.332,2.166
				c5.415,2.166,17.328,5.415,21.661,8.664v4.332c-19.495-6.498-54.152-9.747-51.986,20.578l-2.166,4.332
				C2681.588,1937.545,2679.422,1934.296,2676.173,1925.632z"/>
			<path fill="#FEC923" d="M2741.155,1915.884c10.83,2.166,25.993-1.083,31.408,5.415l1.083,9.747
				c-1.083,6.498-2.166,12.996-4.332,18.411l-7.581,4.332c4.332-23.827,5.415-32.491-21.661-32.491L2741.155,1915.884z"/>
			<path fill="#F4712C" d="M2809.386,1892.058c4.332,5.415,24.91,27.076,25.993,30.325c-21.661,0-45.488,11.913-55.235,11.913
				c-2.166-1.083-2.166-2.166-4.332-4.332l-2.166,1.083l-1.083-9.747c-5.415-6.498-20.578-3.249-31.408-5.415
				c-4.332-3.249-16.246-6.498-21.661-8.664C2723.827,1893.141,2783.394,1913.718,2809.386,1892.058z"/>
			<path fill="#E6623C" d="M2657.762,1893.141c11.913,1.083,50.903,5.415,57.401,10.83v1.083c-15.163,0-31.408,7.581-40.072,20.578
				L2657.762,1893.141z"/>
			<path fill="#E6623C" d="M2774.729,1931.047l2.166-1.083c1.083,2.166,1.083,3.249,4.332,4.332
				c12.997,46.571,24.91,60.65,5.415,112.635c-3.249,9.747-9.747,28.159-14.079,36.823h-2.166
				c-9.747-4.332-14.079-6.498-24.91-8.664c-2.166-23.827-29.242-72.563-41.155-96.39c-6.498-9.747-9.747-18.412-15.162-29.242
				c21.661,4.332,59.567,32.491,74.729,4.332l7.581-4.332C2771.48,1942.96,2772.563,1936.462,2774.729,1931.047z"/>
			<path fill="#FE9F01" d="M2770.397,1949.458c-2.166,10.83,2.166,24.91-7.581,30.325c-17.329,8.664-42.238,3.249-58.484-2.166
				c-6.498-9.747-9.748-18.411-15.163-29.242c21.661,4.332,59.567,32.491,74.729,4.332L2770.397,1949.458z"/>
			<path fill="#FEC923" d="M2745.487,2074.007c10.83,3.249,15.163,4.332,24.91,8.664c-3.249,16.246,9.747,53.069,16.246,67.148
				c-7.581-2.166-14.079-4.332-21.661-6.498C2763.899,2130.325,2749.82,2089.17,2745.487,2074.007z"/>
			<path fill="#F7F6F6" d="M3016.245,2743.321c20.578-1.083,86.643-3.249,94.224,8.664c14.079,21.661,45.487,110.469,55.235,136.462
				c9.747,25.993,19.495,50.903,28.159,76.895c3.249,8.664,10.83,27.076,12.997,34.657h-683.394
				c-5.415-11.913-11.913-35.74-16.245-48.737c-7.581-24.909-16.246-48.736-25.993-73.646
				c46.571-22.744,97.473-40.072,147.292-55.235c19.495-7.581,58.484-18.412,79.062-23.827
				C2808.303,2771.48,2912.274,2753.069,3016.245,2743.321L3016.245,2743.321z"/>
			<path fill="#F78E63" d="M2129.242,2405.415c46.57,15.162,101.805,45.487,139.711,74.729
				c70.397,54.152,122.383,118.051,210.108,147.293c20.578,6.498,44.404,15.162,66.065,16.245
				c27.076,38.989,69.314,132.13,82.311,178.7c-49.82,15.162-100.722,32.491-147.292,55.235h-1.083
				c-22.744-55.235-42.238-116.967-63.899-173.285C2311.191,2658.845,2186.643,2502.888,2129.242,2405.415z"/>
			<path fill="#FB7C25" d="M2511.552,2654.513c5.415-1.083,8.664-1.083,12.996,1.083l-1.083,3.249
				c-16.245,21.661-44.404,37.906-70.397,41.155c-6.498-1.083-12.996-3.249-17.329-7.582l1.083-3.249
				C2451.986,2677.256,2490.975,2658.845,2511.552,2654.513z"/>
			<path fill="#FEE35B" d="M2323.105,1994.946c12.996,3.249,24.91,10.83,34.657,19.495c30.325,28.159,68.231,55.235,98.556,84.477
				c8.664,8.664,35.74,36.823,41.155,41.155c12.996,6.498,22.744,15.162,34.657,20.578c12.996,8.664,10.83,12.996,11.913,27.076
				c7.581,8.664,12.996,14.08,20.578,21.661c6.498,7.581,30.325,35.74,35.74,38.989c8.664,8.664,20.578,20.578,29.242,29.242
				c8.664,10.83,12.996,15.162,22.744,24.91c7.581,7.581,15.163,16.246,22.744,22.744c9.747,11.913,15.163,17.329,18.412,31.408
				c-22.744,23.827-50.903,30.325-83.394,21.661c3.249,18.412,7.581,36.823,11.913,55.235
				c-17.329-8.664-50.903-53.069-66.065-68.231c-62.816-66.065-158.123-185.199-235.018-232.852
				c-8.664-7.581-15.163-11.914-24.91-17.329c-8.664-8.664-24.91-16.246-35.74-27.076c-5.415-14.08-7.581-34.657-9.747-49.82
				C2262.455,2017.69,2299.278,1999.278,2323.105,1994.946L2323.105,1994.946z"/>
			<path fill="#FEB809" d="M2261.372,2090.253c-5.415-14.079-7.581-34.657-9.747-49.82c51.986,35.74,103.971,74.729,149.458,118.051
				c16.246,15.162,32.491,35.74,47.654,51.986c45.487,51.986,96.39,100.722,145.126,151.625
				c5.415,5.415,11.913,12.996,17.329,18.412c3.249,18.411,7.581,36.823,11.913,55.235c-17.329-8.664-50.903-53.069-66.065-68.231
				c-62.816-66.065-158.123-185.198-235.018-232.852c-8.664-7.581-15.162-11.914-24.91-17.329
				C2289.531,2108.664,2273.285,2101.083,2261.372,2090.253z"/>
			<path fill="#E94530" d="M2497.473,2138.989c12.996,6.498,22.744,15.162,34.657,20.577c12.996,8.664,10.83,12.996,11.913,27.076
				C2532.13,2175.812,2506.137,2150.903,2497.473,2138.989z"/>
			<path fill="#F4712C" d="M2323.105,2133.574c75.812,47.653,171.119,166.787,235.018,232.852
				c15.162,15.162,48.736,59.567,66.065,68.231c-4.332-18.411-8.664-36.823-11.913-55.235c31.408,8.664,60.65,2.166,83.393-21.661
				c2.166,17.329,3.249,23.827,10.83,40.072v6.498c0,1.083,1.083,2.166,1.083,3.249c20.578,57.401-80.144,81.227-120.217,36.823
				c-60.65-69.314-118.051-150.542-200.361-194.946c-2.166-35.74-63.899-67.148-93.141-77.979c1.083-2.166,2.166-10.83,2.166-14.079
				l1.083,1.083C2300.361,2156.318,2316.606,2138.989,2323.105,2133.574L2323.105,2133.574z"/>
			<path fill="#FED332" d="M2694.585,2357.762c2.166,17.329,3.249,23.827,10.831,40.072v6.498
				c-5.415,10.831-7.581,12.997-17.329,20.578c-12.996,9.747-50.903,22.744-63.899,11.913c-4.332-18.411-8.664-36.823-11.913-55.235
				C2643.682,2388.087,2671.841,2381.588,2694.585,2357.762z"/>
			<path fill="#FB7C25" d="M2955.596,1749.098c5.415,7.581,16.245,99.639,17.329,115.884
				c-40.072-19.495-81.228-49.82-128.881-34.657c-5.415,2.166-10.83,4.332-15.162,5.415c1.083,11.913,4.332,22.744,6.498,33.574
				c6.498,32.491,22.744,38.989,50.902,50.902c21.661,8.664,42.238,28.159,57.401,46.571c-17.328-10.83-35.74-24.91-54.152-32.491
				c-12.996-5.415-37.906-2.166-48.737-9.747l-6.498-3.249c-1.083-3.249-21.661-24.91-25.993-30.325l1.083-4.332
				c3.249-23.827-5.415-30.325-14.08-51.986v-1.083c0-23.827,0-50.902,2.166-74.729l19.495,5.415
				C2855.957,1772.924,2915.523,1756.679,2955.596,1749.098L2955.596,1749.098z"/>
			<path fill="#E6623C" d="M2798.556,1759.928l19.495,5.415c6.498,60.65,3.249,100.722,23.827,160.289l-6.498-3.249
				c-1.083-3.249-21.661-24.91-25.993-30.325l1.083-4.332c3.249-23.827-5.415-30.325-14.079-51.986v-1.083
				C2796.39,1810.83,2796.39,1783.755,2798.556,1759.928L2798.556,1759.928z"/>
			<path fill="#FEB809" d="M2870.036,2140.072c9.747,21.661,9.747,40.072,9.747,62.816c-25.993,44.404-55.235,23.827-94.224,7.581
				c-6.498-16.246-16.245-48.737-21.661-66.065c7.581,3.249,14.079,5.415,21.661,6.498
				C2818.051,2164.982,2858.123,2187.726,2870.036,2140.072z"/>
			<path fill="#FEDB44" d="M2769.314,2082.671h2.166c24.91,9.747,88.809,32.491,98.556,57.401
				c-11.913,47.653-51.986,24.91-83.394,10.83C2780.144,2135.74,2766.065,2098.917,2769.314,2082.671z"/>
			<path fill="#D51E21" d="M1996.029,2029.603c-9.747-32.491-24.91-63.899-37.906-95.307c-4.332-10.83-12.996-24.91-4.332-33.574
				c43.321,1.083,49.819,16.245,58.484,56.318C2018.773,1980.866,2026.354,2017.69,1996.029,2029.603z"/>
			<path fill="#FB7C25" d="M2292.78,2170.397c29.242,9.747,90.975,42.238,93.141,77.979c-24.91-11.914-57.401-22.744-84.477-30.325
				c-16.246-4.332-43.321-6.498-58.484-12.996C2252.708,2194.224,2279.783,2175.812,2292.78,2170.397z"/>
			<path fill="#F4712C" d="M2879.783,2202.888c-3.249,27.076-12.997,37.906-37.906,46.571c-12.996-2.166-35.74-7.581-48.736-11.914
				c-2.166-5.415-6.498-20.577-7.581-27.076C2825.632,2225.632,2853.791,2247.292,2879.783,2202.888z"/>
			<path fill="#FB7C25" d="M2172.563,2080.506c0,5.415,0,14.079,2.166,18.411c-11.913,4.332-68.231,14.08-83.394,16.246
				c24.91-12.997,51.986-21.661,79.062-32.491C2171.48,2082.671,2172.563,2081.588,2172.563,2080.506z"/>
			<path fill="#FEB999" d="M3945.487,775.451c27.076-37.906,97.473-66.065,141.877-73.646c10.83-2.166,21.661-2.166,33.574-1.083
				c30.325,2.166,60.65,8.664,89.892,14.079c31.408,5.415,64.982,8.664,95.307,17.328c8.665,2.166,18.412,5.415,25.993,10.83
				c30.325,22.744,176.534,291.336,200.361,342.238c9.747,20.578,17.329,43.321,23.827,64.982
				c19.495,67.148,28.159,160.289,36.823,230.686c10.83,93.141,19.495,186.281,25.993,279.422
				c9.747,129.964,8.664,308.664,107.22,406.137c6.498,7.581,12.997,14.08,18.412,22.744c-10.831,9.747-22.744,19.494-34.657,28.159
				c-44.404,33.574-89.892,69.314-135.379,101.805c-11.914-12.997-35.74-54.152-45.488-71.48l-73.646-123.466
				c-7.582-12.996-24.91-43.321-34.657-54.151c-5.415-6.498-33.574-23.827-42.238-30.325
				c-144.043-121.3-202.527-257.762-194.946-446.209c1.083-21.661,8.665-107.22,3.25-123.466
				c-7.582-24.91-56.318-109.386-71.48-134.296c0-1.083-5.415-9.747-6.498-10.83c-3.25-7.581-24.91-47.653-30.325-53.068
				c-15.162-16.246-22.744-24.91-34.657-44.404l-3.249,3.249c3.249,7.581,3.249,9.747,3.249,19.495l-5.415-5.415h-2.166
				l-3.249,7.581c-34.657-29.242-161.372-48.736-207.942-54.152l-4.332-2.166c-14.08,4.332-28.159-1.083-43.322,3.249
				c23.827-24.91,47.654-50.902,70.397-75.812c14.08-16.245,31.408-33.574,45.487-50.902c6.498-6.498,11.914-11.913,17.329-18.412
				c18.412-24.91,36.823-36.823,62.816-53.069c5.415-3.249,8.664-7.581,12.996-11.913c0-1.083,1.083-8.664,1.083-9.747
				c8.664-21.661,14.08-34.657,29.242-51.986c36.823-33.574,86.643-34.657,119.134,5.415
				c50.903,62.816,55.235,147.292,99.639,216.607c4.332-10.83-31.408-134.296-36.823-153.791l-1.083-1.083
				c-11.914-49.819-12.997-71.48-47.653-108.303c-51.986-40.072-86.643-40.072-148.375-23.827
				C3986.643,766.787,3964.982,770.036,3945.487,775.451z"/>
			<path fill="#FEDB44" d="M3915.162,951.986c18.412-24.91,36.823-36.823,62.816-53.069c7.581,9.747,5.415,15.162,10.83,22.744
				c3.249,16.245,4.332,36.823,7.581,54.152l7.581,33.574c5.415,15.162,12.996,38.989,17.329,55.235l4.332,12.996
				c7.581,18.412,12.997,30.325,21.661,48.737l-3.249,3.249c3.249,7.581,3.249,9.747,3.249,19.495l-5.415-5.415h-2.166l-3.249,7.581
				c-34.657-29.242-161.372-48.737-207.942-54.152l-4.332-2.166c-14.079,4.332-28.159-1.083-43.321,3.249
				c23.827-24.91,47.653-50.903,70.397-75.812c14.079-16.245,31.408-33.574,45.487-50.903
				C3903.249,964.982,3908.664,958.484,3915.162,951.986z"/>
			<path fill="#FB7C25" d="M3915.162,951.986c18.412-24.91,36.823-36.823,62.816-53.069c7.581,9.747,5.415,15.162,10.83,22.744
				c3.249,16.245,4.332,36.823,7.581,54.152l7.581,33.574c-9.747-1.083-15.163-1.083-24.91-1.083h-15.162
				c-9.747,1.083-25.993,2.166-35.74,4.332c-18.411-1.083-64.982,11.913-76.895,7.581c14.08-16.245,31.408-33.574,45.487-50.903
				C3903.249,964.982,3908.664,958.484,3915.162,951.986z"/>
			<path fill="#FC8300" d="M3996.39,976.895l7.581,33.574c-9.747-1.083-15.163-1.083-24.91-1.083h-15.162
				C3969.314,997.473,3982.31,979.061,3996.39,976.895z"/>
			<path fill="#FB7C25" d="M4014.802,1088.448c4.332-2.166,6.498-5.415,9.747-9.747c7.581,18.412,12.996,30.325,21.661,48.736
				l-3.249,3.249c3.249,7.581,3.249,9.747,3.249,19.495l-5.415-5.415h-2.166l-3.249,7.581
				c-34.657-29.242-161.372-48.737-207.942-54.152l-4.332-2.166c-7.581-2.166-19.495-2.166-28.159-4.332
				c43.321,0,87.726-2.166,131.047-3.249C3945.487,1087.365,4001.805,1079.783,4014.802,1088.448z"/>
			<path fill="#D51E21" d="M4014.802,1088.448c4.332-2.166,6.498-5.415,9.747-9.747c7.581,18.412,12.996,30.325,21.661,48.736
				l-3.249,3.249c-8.664-10.83-27.076-29.242-30.325-40.072L4014.802,1088.448z"/>
			<path fill="#FE9600" d="M3851.264,1021.3c11.913,4.332,59.567-8.664,76.895-7.581c-24.91,9.747-42.238,22.744-60.65,41.155
				c-4.332,4.332-14.079,10.83-14.079,18.412c6.498,4.332,144.043-1.083,163.538-1.083l3.249-6.498l4.332,12.996
				c-3.249,4.332-5.415,7.581-9.747,9.747c-12.996-7.581-68.231-1.083-87.726-1.083c-43.321,0-87.726,3.249-131.047,3.249
				c8.664,1.083,21.661,2.166,28.159,4.332c-14.079,4.332-28.159-1.083-43.321,3.249
				C3804.693,1072.202,3827.437,1046.209,3851.264,1021.3z"/>
			<path fill="#FEB809" d="M3979.061,1009.386c9.747,0,15.163,0,24.91,1.083c5.415,15.162,12.996,38.989,17.329,55.235l-3.249,6.498
				C4006.137,1045.126,3998.556,1029.964,3979.061,1009.386z"/>
			<path fill="#E6623C" d="M4154.513,785.199c32.491,11.913,107.22,34.657,140.794,36.823
				c-9.748,36.823-41.156,71.48-43.321,103.971c-2.166,20.578,46.57,100.722,71.48,105.054c23.827,4.332,60.65-9.747,86.643-12.996
				l-2.166,2.166c-32.491,33.574-55.235,28.159-62.816,84.477c-4.332,36.823-6.498,56.318,3.249,92.058
				c-10.83-7.581-28.159-36.823-36.823-47.653c-4.332-5.415-4.332-4.332-10.831-4.332c-5.415-5.415-34.657-53.069-38.989-60.65
				c-6.498-11.913-15.162-25.993-22.744-36.823c4.332-10.83-31.408-134.296-36.823-153.791l-1.083-1.083
				C4190.253,844.765,4189.17,823.105,4154.513,785.199L4154.513,785.199z"/>
			<path fill="#D51E21" d="M4203.249,894.585c9.748,0,18.412-1.083,20.578,9.747c-4.332,8.664-2.166,16.246,1.083,24.91
				c9.748,25.993,50.903,107.22,68.231,123.466l5.415,16.245c-11.914,5.415-23.827,9.747-35.74,16.245
				c-6.498-11.913-15.163-25.993-22.744-36.823C4244.404,1037.545,4208.664,914.079,4203.249,894.585z"/>
			<path fill="#E94530" d="M4202.166,894.585c34.657-2.166,56.318-42.238,81.228-59.567c-10.831,24.91-35.74,56.318-59.567,69.314
				c-3.249-10.83-11.914-9.747-20.578-9.747H4202.166z"/>
			<path fill="#E94530" d="M4293.141,1053.791h2.166c19.494-1.083,50.902-12.996,64.981-9.747l1.083,1.083
				c-3.249,4.332-53.068,21.661-62.816,24.91L4293.141,1053.791z"/>
			<path fill="#E6623C" d="M4352.708,1205.415c29.242-14.079,55.235-21.661,87.726-20.578c6.498,0,17.328,0,22.744,5.415
				c-3.249,9.747-25.993,12.996-34.657,16.245c-19.495,5.415-42.238,10.83-60.65,20.578
				C4357.04,1221.661,4353.791,1217.328,4352.708,1205.415z"/>
			<path fill="#E94530" d="M4301.805,1145.848c6.498,0,6.498-1.083,10.83,4.332c8.665,9.747,25.993,40.072,36.823,47.653
				l3.249,7.581c1.083,10.83,4.332,15.162,14.079,21.661c15.163,24.91,32.491,49.82,48.736,74.729
				c6.499,9.747,20.578,23.827,24.91,33.574c-1.083,5.415,0,3.249-4.332,7.581h-3.249
				C4417.689,1328.881,4319.134,1172.924,4301.805,1145.848L4301.805,1145.848z"/>
			<path fill="#D51E21" d="M3977.979,900c5.415-3.249,8.664-7.581,12.996-11.913c-1.083,10.83-2.166,23.827-2.166,34.657
				C3982.31,915.163,3985.56,908.664,3977.979,900z"/>
			<path fill="#D51E21" d="M4088.448,812.274c8.664-1.083,19.495-1.083,27.076,3.249c12.997,8.664,50.902,123.466,54.152,142.96
				c1.083,8.664-2.167,17.328-8.665,24.91c-14.08,16.245-38.989,23.827-60.65,25.993c-24.91-1.083-37.906-5.415-48.736-28.159
				c-15.163-30.325-23.827-60.65-31.408-93.141C4007.22,840.433,4049.458,819.856,4088.448,812.274L4088.448,812.274z"/>
			<path fill="#FEB999" d="M2553.791,1281.228c-3.249-48.737-10.83-95.307,36.823-124.549c1.083,20.578,15.162,68.231,20.578,90.975
				l38.989,153.791c-7.581,5.415-68.231-7.581-95.307,3.249c-3.249-2.166-2.166-1.083-3.249-6.498
				c2.166-21.661,2.166-43.321,2.166-66.065l-4.332-2.166l-28.159,151.624c-4.332,0-8.664,1.083-12.996,1.083
				c-14.079,5.415-77.978-3.249-96.39-6.498c-8.664-3.249-17.329-6.498-24.91-9.747c5.415-18.411,8.664-40.072,12.997-58.484
				c17.328-72.563,17.328-183.032,126.715-159.206C2539.711,1255.235,2548.375,1269.314,2553.791,1281.228L2553.791,1281.228z"/>
			<path fill="#FB7C25" d="M2411.913,1479.422c-3.249-3.249-6.498-6.498-6.498-10.83c12.996-8.664,93.141,0,103.971,11.913v5.415
				C2495.307,1491.336,2430.325,1482.671,2411.913,1479.422z"/>
			<path fill="#D51E21" d="M2550.542,1332.13c1.083-8.664,2.166-16.245,4.332-24.91c0,8.664,0,18.411,0,27.076L2550.542,1332.13z"/>
			<path fill="#EBDBDF" d="M2480.144,2877.617h1.083c8.664,23.827,17.329,48.737,25.993,73.646
				c4.332,12.997,10.83,36.823,16.245,48.737h-94.224c-8.664-20.578-15.163-44.404-21.661-66.065c0,0,0-1.083,1.083-1.083
				l1.083-2.166C2417.329,2905.776,2457.401,2888.448,2480.144,2877.617z"/>
			<path fill="#FEC923" d="M3653.069,809.025c14.08,7.581,21.661,11.913,32.491,23.827c-30.325,6.498-74.729,14.079-103.971,22.744
				c-2.166-5.415,1.083-18.411,2.166-24.91C3604.332,824.188,3635.74,815.523,3653.069,809.025z"/>
			<path fill="#E6623C" d="M3583.755,830.686c2.166-36.823,46.57-35.74,69.314-21.661
				C3635.74,815.523,3604.332,824.188,3583.755,830.686z"/>
			<path fill="#EBDBDF" d="M4727.437,2066.426c15.163-4.332,37.906-6.498,54.151-8.664c-8.664,9.747-24.909,24.91-35.74,32.491
				C4740.433,2080.506,4733.935,2074.007,4727.437,2066.426z"/>
			<path fill="#F78E63" d="M2298.195,2116.245c9.747,5.415,16.245,9.747,24.91,17.329c-5.415,5.415-22.744,22.744-25.993,24.91
				l-1.083-1.083C2296.029,2143.321,2297.112,2129.242,2298.195,2116.245L2298.195,2116.245z"/>
		</g>
	</g>
</g>
</svg>
