<?xml version="1.0" encoding="utf-8"?>
<!-- Generator: Adobe Illustrator 27.9.0, SVG Export Plug-In . SVG Version: 6.00 Build 0)  -->
<svg version="1.1" id="svg" xmlns="http://www.w3.org/2000/svg" xmlns:xlink="http://www.w3.org/1999/xlink" x="0px" y="0px"
	 viewBox="0 0 5416.92 3000" enable-background="new 0 0 5416.92 3000" xml:space="preserve">
<g>
	<g>
		<defs>
			<rect id="SVGID_1_" y="0" width="5415.978" height="2893.171"/>
		</defs>
		<clipPath id="SVGID_00000076591879331670577430000003866976506941211279_">
			<use xlink:href="#SVGID_1_"  overflow="visible"/>
		</clipPath>
		<g clip-path="url(#SVGID_00000076591879331670577430000003866976506941211279_)">
			<path fill="#02ABED" d="M0,0h4427.399h989.521v2256.108v637.063H4303.944H0.942V908.474V0H0z"/>
			<path fill="#0071CC" d="M5416.92,2256.108v637.063H4303.944c5.655-8.481,30.157-4.712,40.523-4.712h65.968h183.768h566.383
				c49.005,0,97.067,0,146.072,0c7.539,0,49.947,0,55.602-0.942c0.942-2.827,1.885-4.712,2.827-7.539
				c5.654-0.942,11.309,7.539,15.078,7.539c8.481,0.942,24.502,0,32.984,0V2469.09v-134.763c0-22.618,0-45.235,0-67.853
				C5413.15,2260.82,5413.15,2260.82,5416.92,2256.108z"/>
			
				<linearGradient id="SVGID_00000048465479581298152680000016424127905121573009_" gradientUnits="userSpaceOnUse" x1="4173.0557" y1="2133.7625" x2="3813.1023" y2="3456.2847" gradientTransform="matrix(1 0 0 1 0 -778)">
				<stop  offset="0" style="stop-color:#5B6878"/>
				<stop  offset="1" style="stop-color:#788A9C"/>
			</linearGradient>
			<path fill="url(#SVGID_00000048465479581298152680000016424127905121573009_)" d="M4384.049,1537.056
				c4.712-70.68,13.193-146.072,19.79-216.752l54.66-582.404c7.539-85.758,15.078-172.459,24.502-258.218
				c2.827-28.272,3.77-82.931,12.251-107.434c8.481-23.56,24.502-40.523,47.12-50.89c10.367-4.712,20.733-7.539,32.042-8.482
				c20.733-1.885,41.466-0.942,62.199-0.942c32.984,0,65.025-1.885,98.009-1.885c70.68-0.942,404.29-12.251,455.18,6.597
				c27.33,10.366,48.062,30.157,60.313,56.544c3.77,10.366,10.367,29.214,10.367,39.581c-0.942,37.696-4.712,78.219-7.539,115.915
				l-17.906,231.831l-60.313,766.172l-21.675,254.448c-3.77,46.178-9.424,105.549-10.367,151.727
				c2.827,8.482-0.942,18.848-3.77,27.33c2.827,14.136,34.869,19.79,17.906,41.466c-9.424,12.251-23.56,23.56-38.639,27.329
				c-5.654,1.885-22.618,2.827-27.33,5.655c-24.502,15.078-47.12,18.848-74.45,27.329l-131.936,37.696
				c-57.486,16.021-113.088,38.639-168.689,59.371c-59.372,21.675-71.623,63.141-107.434,109.319
				c-13.194,16.021-46.178,10.366-56.544,17.906c-12.251,27.33-24.502,53.717-36.753,80.104
				c-28.272,61.256-66.911,115.915-98.952,174.344c-219.579,394.866-701.146,480.625-1115.802,455.18
				c-11.309-0.943-22.618-0.943-32.984-2.827c10.366-1.885,47.12,0.942,59.371,0.942c36.754,1.885,73.507,2.827,110.261,3.77
				c24.502,0,214.867-10.366,222.406-16.021c-1.885,0-32.984-0.943-36.754-1.885c-48.062-3.77-96.125-2.827-143.245-12.251
				c-7.539-1.885-40.523-9.424-44.293-8.482c-43.351,5.655-73.507-3.77-114.973-14.136c-47.12-11.309-98.952-13.194-140.418-40.523
				c-10.366-6.597-32.984-45.235-42.408-48.062c-33.926-10.366-5.654-49.005,8.482-65.026c11.309-13.194,27.33-17.906,36.754-32.042
				c2.827-4.712,18.848-30.157,22.618-32.042c19.79-10.366,52.774-32.984,73.507-36.754l0.942-0.942
				c-18.848-3.77-114.973-8.481-124.397-16.963c-5.654-0.943-39.581-4.712-47.12-5.655l-113.088-12.251l-191.308-21.675
				c-34.869-3.77-73.507-10.366-107.434-13.193c0.942-18.848,0.942-37.696,0-56.544c-0.942-16.021,0-33.927,0-49.947
				c5.655,0.942,13.194,0.942,18.848,0.942c18.848-5.655,51.832-6.597,72.565-8.481c234.658-20.733,479.682-48.062,688.895-164.92
				c48.062-26.387,89.528-54.659,133.821-84.816c-2.827-61.256-4.712-122.512-6.597-184.71
				c-0.942-32.042-2.827-73.507-0.942-104.607l6.597-40.523c-12.251-65.968,0-151.727-4.712-225.234
				c-5.654-81.989-25.445-177.171-25.445-255.391c32.042-3.77,54.659-29.214,75.392-51.832
				c48.062,4.712,94.24,15.078,142.302,20.733c6.597,0.942,17.906,1.885,24.502,3.77l2.827-0.943
				c6.597,0.943,15.079,0.943,20.733,4.712c1.885,3.77,1.885,4.712,0.942,9.424c3.77,6.597,3.77,16.963,3.77,24.502
				c0.943-12.251,0.943-22.618,0.943-35.811c47.12,0.942,105.549,2.827,151.727-6.597c12.251,15.078,42.408,56.544,59.371,62.198
				c0.942,16.963-2.827,45.235-4.712,62.199c-7.539,65.968-16.963,130.994-16.963,197.904c0,12.251,1.885,26.387,0.942,37.696
				c0.942,5.655,0,6.597,2.827,11.309c4.712-0.942,95.183-120.627,105.549-132.879c10.367-12.251,20.733-24.502,32.042-35.811
				c30.157-32.042,72.565-65.026,114.973-76.334C4318.081,1533.286,4358.604,1537.056,4384.049,1537.056L4384.049,1537.056z"/>
			<path fill="#FDFDFC" d="M4384.049,1537.056c4.712-70.68,13.193-146.072,19.79-216.752l54.66-582.404
				c7.539-85.758,15.078-172.459,24.502-258.218c2.827-28.272,3.77-82.931,12.251-107.434c8.481-23.56,24.502-40.523,47.12-50.89
				c10.367-4.712,20.733-7.539,32.042-8.482c20.733-1.885,41.466-0.942,62.199-0.942c32.984,0,65.025-1.885,98.009-1.885
				c70.68-0.942,404.29-12.251,455.18,6.597c27.33,10.366,48.062,30.157,60.313,56.544c3.77,10.366,10.367,29.214,10.367,39.581
				c-0.942,37.696-4.712,78.219-7.539,115.915l-17.906,231.831l-60.313,766.172l-21.675,254.448
				c-3.77,46.178-9.424,105.549-10.367,151.727c-2.827,8.482-3.77,17.906-6.597,25.445c-5.655,15.078-18.848,28.272-28.272,41.466
				c1.885,7.539,3.77,17.906,3.77,25.445h-2.827c-3.77-10.366-9.424-42.408-12.251-55.602
				c-10.367-49.005-21.675-91.413-34.869-139.475c2.827,2.827,0.942,1.885,4.712,2.827l1.885-6.597
				c-33.927-80.104-49.947-234.658-140.418-277.066c-8.481-3.77-21.675-1.885-30.157-1.885
				c-49.947-2.827-115.916-1.885-166.805-2.827c-75.393-0.942-149.842-1.885-225.234-4.712c-18.848-0.942-86.701,0-100.837-2.827
				l-1.885-4.712l-1.885,3.77C4393.473,1537.056,4391.588,1537.056,4384.049,1537.056z"/>
			<path fill="#16212E" d="M4384.049,1537.056c4.712-70.68,13.193-146.072,19.79-216.752l54.66-582.404
				c7.539-85.758,15.078-172.459,24.502-258.218c2.827-28.272,3.77-82.931,12.251-107.434c8.481-23.56,24.502-40.523,47.12-50.89
				c10.367-4.712,20.733-7.539,32.042-8.482c20.733-1.885,41.466-0.942,62.199-0.942c32.984,0,65.025-1.885,98.009-1.885
				c70.68-0.942,404.29-12.251,455.18,6.597c27.33,10.366,48.062,30.157,60.313,56.544c3.77,10.366,10.367,29.214,10.367,39.581
				c-0.942,37.696-4.712,78.219-7.539,115.915l-17.906,231.831l-60.313,766.172l-21.675,254.448
				c-3.77,46.178-9.424,105.549-10.367,151.727c-2.827,8.482-3.77,17.906-6.597,25.445c-5.655,15.078-18.848,28.272-28.272,41.466
				c1.885,7.539,3.77,17.906,3.77,25.445h-2.827c-3.77-10.366-9.424-42.408-12.251-55.602
				c-10.367-49.005-21.675-91.413-34.869-139.475c2.827,2.827,0.942,1.885,4.712,2.827l1.885-6.597
				c7.539-30.157,10.366-81.989,13.193-114.973l12.251-147.957l46.178-549.42l33.926-394.866l13.194-145.13
				c2.827-36.754,14.136-83.874-9.424-114.031c-27.33-33.926-91.413-25.445-131.936-25.445h-188.48h-182.826
				c-32.984,0-68.795-0.942-101.779,0.942c-12.251,0.942-29.215,9.424-38.639,16.963c-12.251,9.424-20.733,22.618-23.56,37.696
				c-3.77,17.906-6.597,65.026-8.481,86.701l-21.675,232.773c-26.387,272.354-49.005,549.42-78.219,821.773l-1.885,3.77
				C4393.473,1537.056,4391.588,1537.056,4384.049,1537.056z"/>
			
				<linearGradient id="SVGID_00000168819980335528031060000001170665544201697680_" gradientUnits="userSpaceOnUse" x1="5218.7793" y1="1978.5922" x2="5135.2651" y2="1974.6943" gradientTransform="matrix(1 0 0 1 0 -778)">
				<stop  offset="0" style="stop-color:#162228"/>
				<stop  offset="1" style="stop-color:#172438"/>
			</linearGradient>
			<path fill="url(#SVGID_00000168819980335528031060000001170665544201697680_)" d="M5249.173,372.248
				c3.77,10.366,10.366,29.214,10.366,39.581c-0.942,37.696-4.712,78.219-7.539,115.915l-17.905,231.831l-60.314,766.172
				l-20.733,255.391c-3.77,46.178-9.424,105.549-10.367,151.727c-2.827,8.482-3.77,17.906-6.597,25.445
				c-5.655,15.078-18.848,28.272-28.272,41.466c1.885,7.539,3.77,17.906,3.77,25.445h-2.827
				c-3.77-10.366-9.424-42.408-12.251-55.602c19.791-16.963,23.56-89.528,26.387-114.973c2.827-35.811,6.597-70.68,10.367-106.491
				c6.597-63.141,12.251-131.936,16.963-195.077c2.827-35.811,5.655-72.565,8.481-108.376c0.943-13.194,0.943-30.157,2.827-43.35
				c0.943-10.366,2.827-16.021,3.77-28.272c2.827-46.177,8.481-91.413,10.366-137.59c0.942-6.597,3.77-13.194,3.77-19.79
				c0.942-39.581,4.712-77.277,9.424-115.915c3.77-35.811,4.712-71.623,8.482-106.491l40.523-494.761
				c2.827-35.811,7.539-81.046,10.366-117.8C5246.345,380.73,5249.173,372.248,5249.173,372.248z"/>
			<path fill="#B41E1C" d="M4621.534,719.052c-5.654-0.942-14.136-4.712-16.963-11.309c-16.963-45.235,47.12-96.125,81.989-114.973
				c110.261-60.314,308.166-44.293,376.018,72.565c16.021,27.33,23.56,70.68-16.963,82.931l7.539,7.539
				c17.905,6.597,58.429,34.869,53.717,56.544c-4.712,4.712-1.885,2.827-8.481,4.712c-13.193-2.827-23.56-8.482-36.754-9.424
				c6.597,10.366,6.597,16.021,5.655,28.272c-1.885,20.733-5.655,32.984-16.963,50.89c15.079,16.021,49.005,70.68,51.832,88.586
				l-0.942,3.77c-8.481,2.827-22.617-5.654-31.099-10.366c-1.885-0.942-4.712-1.885-6.597-3.77l-1.885,1.885
				c14.136,76.334-51.832,81.989-104.606,93.298c-13.193,9.424-17.905,0.943-35.811,4.712c-7.539,6.597-0.942,13.194-3.77,22.618
				c-0.942,2.827-6.597,8.482-8.481,8.482c-52.775,4.712-105.549-1.885-158.324-7.539c-39.581-3.77-89.528-1.885-129.109-10.366
				c-2.827-1.885-5.654-6.597-6.597-9.424c-8.481-26.387,25.445-23.56,40.523-25.445l0.942-3.77
				c-16.021-3.77-28.272-8.482-42.408-16.021c-40.523-23.56-39.581-38.639-38.638-81.047c-2.827-6.597-0.943-9.424,0.942-15.078
				c11.309-5.654,23.56-20.733,30.157-32.042l-4.712-27.33l0.942-1.885c-6.597-6.597-7.539-8.482-12.251-16.021
				c-6.597-13.194-7.539-20.733-2.827-34.869c8.481-16.963,11.309-19.79,27.33-29.214c-11.309,0-37.696,9.424-41.465-3.77
				c3.77-12.251,16.021-25.445,23.56-35.811c-8.482-0.942-13.194-0.942-17.906-7.539l0.942-3.77
				c10.367-8.482,19.791-10.366,32.984-13.194l7.539-1.885L4621.534,719.052z"/>
			<path fill="#E48338" d="M4602.686,867.951c5.655,2.827,16.963,9.424,20.733,14.136l3.77,0.942
				c40.523,20.733,106.491,23.56,150.784,17.906c3.77,0,7.539,0.942,12.251,0.942l-0.943,6.597c16.963,0,35.812-0.942,52.775,0.942
				c45.235,3.77,134.763,14.136,176.229,0.942c13.193-6.597,21.675-14.136,32.984-22.618c15.079,16.021,49.005,70.68,51.832,88.586
				l-0.942,3.77c-8.481,2.827-22.618-5.654-31.099-10.366c-1.885-0.942-4.712-1.885-6.597-3.77l-1.885,1.885
				c14.136,76.334-51.832,81.989-104.606,93.298c-13.193,9.424-17.906,0.942-35.812,4.712c-7.539,6.597-0.942,13.194-3.769,22.618
				c-0.943,2.827-6.597,8.482-8.482,8.482c-52.774,4.712-105.549-1.885-158.323-7.539c-39.581-3.77-89.528-1.885-129.109-10.366
				c-2.827-1.885-5.654-6.597-6.597-9.424c-8.482-26.387,25.445-23.56,40.523-25.445l0.943-3.77
				c-16.021-3.77-28.272-8.482-42.408-16.021c-40.523-23.56-39.581-38.638-38.639-81.046c-2.827-6.597-0.942-9.424,0.942-15.078
				c11.309-5.654,23.56-20.733,30.157-32.042l-4.712-27.33V867.951z"/>
			<path fill="#FDEF38" d="M4602.686,867.951c5.655,2.827,16.963,9.424,20.733,14.136l3.77,0.942
				c40.523,20.733,106.491,23.56,150.784,17.906c3.77,0,7.539,0.942,12.251,0.942l-0.943,6.597c16.963,0,35.812-0.942,52.775,0.942
				c45.235,3.77,134.763,14.136,176.229,0.942c-1.885,8.482,0,8.482-4.712,14.136l-5.654,0.942
				c-12.251,0.942-33.926,9.424-47.12,10.366c-35.811,2.827-71.623-10.366-103.664-15.078h-0.942c-5.654,0-10.366,0-15.079,3.77
				c-2.827,6.597-2.827,12.251-6.597,16.963c-16.021-9.424-27.33-19.79-47.12-15.078c-19.791,4.712-45.235,27.33-58.429,43.351
				l-1.885,1.885c-13.193,15.078-22.618,42.408-37.696,45.235c-12.251-3.77-20.733-22.618-26.387-33.926
				c-17.906,14.136-43.351,18.848-47.12,43.35c-40.523-23.56-39.581-38.638-38.639-81.047c-2.827-6.597-0.942-9.424,0.942-15.078
				c11.309-5.654,23.56-20.733,30.157-32.042l-4.712-27.33L4602.686,867.951z"/>
			<path fill="#F7AC4A" d="M4575.356,945.228c31.099,15.078,41.466,16.963,76.334,22.618l8.481,15.078
				c-17.905,14.136-43.35,18.848-47.12,43.35C4573.471,1002.715,4574.414,987.636,4575.356,945.228z"/>
			<path fill="#4B3B1D" d="M4606.455,898.108c15.079,26.387,27.33,34.869,45.235,69.738c-34.869-5.654-45.235-6.597-76.334-22.618
				c-2.827-6.597-0.942-9.424,0.942-15.078C4587.607,923.553,4599.858,908.474,4606.455,898.108z"/>
			<path fill="#41A54B" d="M4626.246,883.03c40.523,20.733,106.492,23.56,150.784,17.906c3.77,0,7.54,0.942,12.251,0.942
				l-0.943,6.597C4736.507,916.014,4666.769,925.438,4626.246,883.03z"/>
			
				<linearGradient id="SVGID_00000145742581664766509560000011295245596483250073_" gradientUnits="userSpaceOnUse" x1="4914.3589" y1="1760.052" x2="4915.8413" y2="1703.5447" gradientTransform="matrix(1 0 0 1 0 -778)">
				<stop  offset="0" style="stop-color:#502E1A"/>
				<stop  offset="1" style="stop-color:#32401E"/>
			</linearGradient>
			<path fill="url(#SVGID_00000145742581664766509560000011295245596483250073_)" d="M5050.326,887.742
				c15.079,16.021,49.005,70.68,51.832,88.586l-0.942,3.77c-8.481,2.827-22.618-5.654-31.099-10.366
				c-1.885-0.942-4.712-1.885-6.597-3.77l-1.885,1.885c-37.696,22.618-88.585,16.963-131.936,16.963
				c-17.906,0-45.235,0-62.199-0.942c-8.481-1.885-19.791-1.885-29.214-2.827c-32.984-1.885-64.083-4.712-96.125-10.366
				c-5.654-0.942-10.366-1.885-15.078-2.827c13.193-15.078,38.638-37.696,58.429-43.35c18.848-4.712,31.099,5.654,47.12,15.078
				c2.827-3.77,3.77-10.366,6.597-16.963c4.712-3.77,9.424-2.827,15.079-3.77h0.942c32.042,4.712,67.853,17.906,103.664,15.078
				c13.193-0.942,35.811-9.424,47.12-10.366l5.655-0.942c4.712-5.654,3.77-5.654,4.712-14.136
				C5030.536,904.705,5039.017,897.166,5050.326,887.742z"/>
			<path fill="#38BD49" d="M5050.326,887.742c15.079,16.021,49.005,70.68,51.832,88.586l-0.942,3.77
				c-8.481,2.827-22.618-5.654-31.099-10.366c-1.885-0.942-4.712-1.885-6.597-3.77c-9.424-20.733-32.984-39.581-56.544-40.523
				l5.654-0.942c4.712-5.654,3.77-5.654,4.712-14.136C5030.536,904.705,5039.017,897.166,5050.326,887.742z"/>
			<path fill="#237D2E" d="M4831.689,941.458c2.827-3.77,3.77-10.366,6.597-16.963c4.712-3.77,9.424-2.827,15.079-3.77
				c0.942,5.654,0.942,2.827,0,8.482c7.539,17.906,56.544,18.848,67.853,28.272v1.885
				C4905.196,964.076,4845.825,950.883,4831.689,941.458z"/>
			<path fill="#DAE4EA" d="M4656.402,1042.295c98.952,19.79,199.789,26.387,299.684,19.79c-13.193,9.424-17.905,0.942-35.811,4.712
				c-7.54,6.597-0.942,13.194-3.77,22.618c-0.942,2.827-6.597,8.482-8.481,8.482c-52.775,4.712-105.549-1.885-158.324-7.539
				c-39.581-3.77-89.528-1.885-129.109-10.366c-2.827-1.885-5.654-6.597-6.597-9.424c-8.481-26.387,25.445-23.56,40.523-25.445
				L4656.402,1042.295z"/>
			<path fill="#F7AC4A" d="M4741.219,972.558c32.042,4.712,64.083,8.482,96.125,10.366c9.424,0,19.791,0.942,29.215,2.827
				c0,1.885,1.885,11.309,1.885,12.251c-5.655,34.869-105.549,33.926-123.455,32.984
				C4742.161,1010.254,4742.161,992.348,4741.219,972.558z"/>
			<path fill="#F7AC4A" d="M4621.534,719.052c-5.654-0.942-14.136-4.712-16.963-11.309c-16.963-45.235,47.12-96.125,81.989-114.973
				c110.261-60.314,308.166-44.293,376.018,72.565c16.021,27.33,23.56,70.68-16.963,82.931
				c-53.717,0.942-100.837-0.942-153.611-3.77c-9.424,0-21.675,0-31.1-0.942c-5.654-0.942-49.004-3.77-58.429-3.77
				c-33.926-0.942-70.68-4.712-104.606-5.654c-20.733-1.885-38.639-2.827-59.372-6.597c-11.309-2.827-14.136-2.827-26.387-2.827
				l7.54-1.885L4621.534,719.052z"/>
			<path fill="#FDEF38" d="M4621.534,719.052c16.021-0.942,42.408,0.942,59.371,1.885c49.948,2.827,98.952,7.539,148.899,13.194
				c15.079,1.885,46.178,0,58.429,3.77c2.827,3.77,2.827,1.885,3.77,6.597c-9.424,0-21.675,0-31.1-0.942
				c-5.654-0.942-49.004-3.77-58.429-3.77c-33.926-0.942-70.68-4.712-104.606-5.654c-20.733-1.885-38.639-2.827-59.372-6.597
				c-11.309-2.827-14.136-2.827-26.387-2.827l7.54-1.885L4621.534,719.052z"/>
			<path fill="#FDFDFC" d="M4765.721,577.692c9.424,1.885,15.079,4.712,14.136,14.136c-3.77,5.654-5.654,5.654-12.251,9.424
				c-8.481-2.827-12.251-3.77-12.251-13.194C4758.182,581.461,4760.066,581.461,4765.721,577.692z"/>
			<path fill="#FDFDFC" d="M4820.38,632.351c8.481,0,12.251,0.942,16.021,8.482c-0.942,7.539,0,4.712-5.654,12.251
				c-7.539,0-10.367-0.942-15.079-7.539C4815.668,637.063,4815.668,639.89,4820.38,632.351z"/>
			<path fill="#FDFDFC" d="M4713.889,627.639c8.482,0.942,11.309,0,14.136,8.482c-1.885,7.539-0.942,5.654-6.597,12.251
				c-7.54-1.885-10.367-2.827-14.136-9.424C4709.177,631.409,4708.234,633.293,4713.889,627.639L4713.889,627.639z"/>
			<path fill="#FFF8DD" d="M4968.337,627.639c4.712-1.885,9.424,0.942,11.309,5.654s-0.942,9.424-5.655,11.309
				c-4.712,1.885-9.424-0.942-11.309-5.654C4960.798,634.236,4963.625,629.524,4968.337,627.639z"/>
			<path fill="#FFF8DD" d="M4768.548,677.586c4.712-0.942,8.481,1.885,10.366,5.654c0.942,4.712-0.942,8.482-4.712,10.366
				c-2.827,0.942-6.597,0.942-9.424-0.942c-2.828-1.885-3.77-5.654-2.828-8.482C4762.894,680.413,4765.721,678.529,4768.548,677.586
				z"/>
			<path fill="#FFF8DD" d="M4855.249,573.922c5.654,0.942,10.367,1.885,14.136,5.654c0.943,5.654,0.943,2.827-3.769,9.424
				c-7.54,0-11.309,0-16.963-4.712C4849.595,577.692,4849.595,579.577,4855.249,573.922z"/>
			<path fill="#FFF8DD" d="M4916.505,656.853c3.77-1.885,8.482,0,10.367,3.77c1.885,3.77,0,8.482-3.77,11.309
				c-2.827,0.942-5.655,0.942-8.481-0.942c-2.828-1.885-3.77-4.712-3.77-7.539C4911.793,660.623,4913.678,657.796,4916.505,656.853z
				"/>
			<path fill="#FFF8DD" d="M4900.484,604.079c6.597,3.77,6.597,2.827,9.424,8.482c-1.885,5.654-1.885,4.712-8.481,9.424
				c-5.654-1.885-6.597-2.827-9.424-7.539C4894.83,607.849,4894.83,609.733,4900.484,604.079z"/>
			<path fill="#4FD652" d="M4613.052,724.706c12.251,0,15.079,0.942,26.388,2.827c20.732,3.77,38.638,4.712,59.371,6.597
				c33.927,0.942,70.68,4.712,104.606,5.654c8.482,0,52.774,2.827,58.429,3.77c0.943,3.77,0.943,4.712,2.828,8.482
				c0,6.597,1.885,17.906,0.942,24.503c-32.042,0.942-36.753,3.77-64.083,21.675c-8.481,17.906-43.35,25.445-48.062,2.827
				c-8.481-0.942-29.214,1.885-44.293,0.942c-13.193,0-21.675,0-32.041-8.482l-5.655-1.885c-12.251,1.885-15.079,0-20.733,11.309
				c-6.597,0.942-11.309,1.885-16.021,5.654l-1.885,3.77v0.942l-0.942-5.654c-15.079-3.77-19.791,31.099-44.293,7.539
				c8.481-16.963,11.309-19.79,27.33-29.214c-11.309,0-37.696,9.424-41.466-3.77c3.77-12.251,16.021-25.445,23.56-35.811
				c-8.481-0.942-13.193-0.942-17.905-7.539l0.942-3.77C4590.435,729.418,4599.858,728.476,4613.052,724.706z"/>
			<path fill="#4B3B1D" d="M4698.811,735.073c33.927,0.942,70.68,4.712,104.606,5.654c8.482,0,52.774,2.827,58.429,3.77
				c0.943,3.77,0.943,4.712,2.828,8.482c0,6.597,1.885,17.906,0.942,24.502c-32.042,0.942-36.753,3.77-64.083,21.675
				c-2.827-7.539,0.942-23.56-3.77-27.33c-36.753-28.272-53.717-27.33-83.874-2.827c-7.539-8.482-14.136-16.021-21.675-23.56
				c0-2.827,0-1.885-1.885-5.654C4693.156,737.9,4695.983,736.958,4698.811,735.073z"/>
			<path fill="#D2221B" d="M4614.937,788.789c4.712-0.942,9.424-3.77,14.136-5.654c16.963,1.885,24.502,10.366,42.408,10.366l0,0
				c-12.251,1.885-15.079,0-20.733,11.309c-6.597,0.942-11.309,1.885-16.021,5.654l-1.885,3.77v0.942l-0.942-5.654
				c-15.078-3.77-19.791,31.099-44.292,7.539C4595.146,801.041,4597.974,797.271,4614.937,788.789z"/>
			<path fill="#237D2E" d="M4708.234,802.926c5.655-16.021,29.215-27.33,43.351-36.754c1.885,8.482,6.597,28.272,0.942,35.811
				C4744.046,801.041,4723.313,804.81,4708.234,802.926z"/>
			<path fill="#B41E1C" d="M4628.13,783.135c9.424-5.654,28.272-16.963,37.696-21.675c5.654,12.251,8.481,19.79,9.424,33.926
				l-5.654-1.885l0,0C4652.633,793.502,4645.094,785.02,4628.13,783.135z"/>
			<path fill="#095014" d="M4638.497,728.476c20.733,3.77,38.639,4.712,59.372,6.597c-2.827,1.885-5.655,3.77-8.481,4.712
				c1.885,3.77,1.885,1.885,1.885,5.654c-20.733-9.424-38.639-0.942-51.832-6.597
				C4637.555,733.188,4637.555,734.13,4638.497,728.476L4638.497,728.476z"/>
			<path fill="#38BD49" d="M4860.903,744.497c9.424,0,21.675,0.942,31.1,0.942c52.774,2.827,100.837,4.712,153.611,3.77l7.539,7.539
				c17.905,6.597,58.429,34.869,53.717,56.544c-4.712,4.712-1.885,2.827-8.481,4.712c-13.193-2.827-23.56-8.482-36.754-9.424
				c6.597,10.366,6.597,16.021,5.655,28.272c-5.655-10.366-17.906-12.251-29.214-8.482c-23.56,49.005-45.235,45.235-75.392,1.885
				c-6.597-9.424-14.136-18.848-17.906-29.214c-13.193-1.885-23.56,4.712-34.869,12.251l-16.963,8.482
				c-4.712-5.654-7.539-10.366-11.309-16.963c-5.655-7.539-6.597-10.366-13.194-16.021l-3.77-11.309
				c0-6.597-0.942-17.906-0.942-24.502C4861.846,749.209,4861.846,748.266,4860.903,744.497z"/>
			<path fill="#2B2A17" d="M4860.903,744.497c9.424,0,21.675,0.942,31.1,0.942c52.774,2.827,100.837,4.712,153.611,3.77l7.539,7.539
				c0,4.712-0.942,9.424,0,14.136c-21.675,0-34.869-1.885-44.293,19.79c-8.481-13.194-12.251-9.424-27.33-13.194
				c-1.885-0.942-3.77-1.885-6.597-2.827c-31.1-13.194-43.351-12.251-72.565,0.942c-15.079-14.136-18.848-18.848-37.696-21.675
				C4861.846,749.209,4861.846,748.266,4860.903,744.497z"/>
			<path fill="#4FD652" d="M5053.153,755.806c17.905,6.597,58.429,34.869,53.717,56.544c-4.712,4.712-1.885,2.827-8.481,4.712
				c-13.193-2.827-23.56-8.482-36.754-9.424h-0.942c3.77-0.942,2.827,0,6.597-1.885c-20.733-12.251-7.539-16.021-14.136-35.811
				C5052.211,766.172,5052.211,760.518,5053.153,755.806z"/>
			<path fill="#41A54B" d="M4881.636,805.753c20.733-2.827,42.408-23.56,54.659-18.848c4.712,4.712,5.655,7.539,7.54,14.136
				c-13.194-1.885-23.56,4.712-34.869,12.251l-16.963,8.482C4888.233,817.062,4885.406,811.407,4881.636,805.753z"/>
			<path fill="#4B3B1D" d="M4980.588,777.481c15.079,3.77,18.848,0,27.33,13.194c-3.77,11.309-3.77,14.136-5.654,25.445
				C4992.84,802.926,4987.185,792.559,4980.588,777.481z"/>
			<path fill="#FE5538" d="M5059.75,807.638h0.942c6.597,10.366,6.597,16.021,5.655,28.272
				c-5.655-10.366-17.906-12.251-29.214-8.482C5044.672,815.177,5043.729,809.522,5059.75,807.638L5059.75,807.638z"/>
			
				<linearGradient id="SVGID_00000172442531585500318650000000250283060429127066_" gradientUnits="userSpaceOnUse" x1="4989.3853" y1="1565.944" x2="4879.5728" y2="1734.5979" gradientTransform="matrix(1 0 0 1 0 -778)">
				<stop  offset="0" style="stop-color:#B2110D"/>
				<stop  offset="1" style="stop-color:#7A2D2A"/>
			</linearGradient>
			<path fill="url(#SVGID_00000172442531585500318650000000250283060429127066_)" d="M4909.908,813.292
				c10.367-7.539,20.733-14.136,34.869-12.251c4.712,10.366,12.251,19.79,17.905,29.214c30.157,43.35,51.832,47.12,75.392-1.885
				c10.367-3.77,22.618-2.827,29.214,8.482c-1.885,20.733-5.654,32.984-16.963,50.89c-11.309,8.482-19.791,16.021-32.984,22.618
				c-42.408,12.251-130.994,1.885-176.229-0.942c-16.963-0.942-35.812-0.942-52.775-0.942l0.943-6.597
				c54.659-9.424,111.203-21.675,166.805-32.042c-7.539-14.136-10.366-30.157-17.905-45.235
				C4931.583,811.407,4923.102,818.946,4909.908,813.292z"/>
			<path fill="#FDDB13" d="M4864.673,777.481l3.77,11.309c-14.136,6.597-44.292,18.848-50.889,31.099l0.942,1.885
				c0,1.885,0.942,4.712,0,6.597l-22.618,8.482c-6.597,3.77-11.309,6.597-17.906,9.424c-7.539,2.827-18.848,6.597-25.445,9.424
				l-4.712-8.482c-44.293-0.942-77.277-9.424-114.973-32.042l1.885-4.712c4.712-4.712,9.424-4.712,16.021-5.654
				c5.654-10.366,8.481-9.424,20.733-11.309l5.654,1.885c10.367,7.539,18.848,7.539,32.042,8.482
				c15.079,0.942,35.812-1.885,44.293-0.942c5.654,22.618,39.581,15.078,48.062-2.827
				C4827.919,781.25,4832.631,778.423,4864.673,777.481z"/>
			<path fill="#FDFDFC" d="M4649.806,804.81c31.099,4.712,69.738,14.136,103.664,19.79v15.078l-5.654,7.539
				c-44.293-0.942-77.277-9.424-114.973-32.042l1.885-4.712C4639.439,805.753,4643.209,805.753,4649.806,804.81z"/>
			<path fill="#F1964C" d="M4753.47,839.679c15.079,0,29.214-4.712,42.408-1.885c-6.597,3.77-11.309,6.597-17.906,9.424
				c-7.539,2.827-18.848,6.597-25.445,9.424l-4.712-8.482L4753.47,839.679z"/>
			<path fill="#FE5538" d="M4632.842,814.234c37.696,23.56,70.68,31.099,114.973,32.042l4.712,8.482
				c-21.675,3.77-48.062,1.885-69.737-1.885c-24.503-4.712-49.005-9.424-50.89-37.696L4632.842,814.234z"/>
			<path fill="#F3D29E" d="M4623.418,882.087v-3.77l1.885-1.885l10.367,1.885c31.099,12.251,74.45,11.309,107.434,14.136
				c9.424,0.942,19.791,7.539,33.926,8.482c-44.292,5.654-110.261,2.827-150.784-17.906L4623.418,882.087z"/>
			<path fill="#D2221B" d="M4848.652,821.773c9.424-1.885,10.366,1.885,16.963,8.482v2.827
				c-19.791,2.827-72.565,16.021-87.644,13.194c6.597-2.827,11.309-5.654,17.906-9.424l22.617-8.482
				C4828.862,825.543,4839.228,826.486,4848.652,821.773z"/>
			<path fill="#D2221B" d="M4590.435,851.93c11.309-0.942,41.465,16.963,46.178,25.445l-11.309-0.942l-1.885,1.885v3.77
				c-3.77-4.712-15.079-11.309-20.733-14.136C4596.089,862.297,4595.146,859.47,4590.435,851.93z"/>
			<path fill="#E48338" d="M4817.553,819.889c10.366,0.942,20.732,0.942,31.099,1.885c-9.424,4.712-18.848,3.77-29.214,5.654
				c0-1.885,0-4.712,0-6.597L4817.553,819.889z"/>
			<path fill="#DAE4EA" d="M4503.733,1305.225c36.754,0.943,78.22,5.655,114.973,7.539l202.616,15.078l128.167,8.482
				c21.675,0.942,42.408,2.827,64.083,4.712c11.309,0.942,23.561,5.654,20.733,19.79c-1.885,7.539-4.712,10.366-10.367,14.136
				c-20.733,0-50.89-2.827-71.623-3.77l-115.915-8.481l-303.453-20.733c-9.424-0.943-35.812-0.943-40.523-10.367
				C4485.828,1317.477,4492.425,1310.88,4503.733,1305.225z"/>
			<path fill="#DAE4EA" d="M4493.367,1364.597c18.848,0,58.429,3.769,79.162,5.654l146.072,11.309
				c40.523,2.827,80.104,5.655,120.627,8.482c23.56,0.942,47.12,1.885,69.738,3.77c6.597,0.943,8.481,2.827,12.251,6.597
				c0,7.539,0.942,3.77-3.77,11.309c-23.56,0-63.141-3.77-87.643-4.712l-173.402-12.251l-99.895-6.597
				c-14.136-0.943-61.256-0.943-67.853-10.366C4489.598,1368.366,4489.598,1371.193,4493.367,1364.597z"/>
			<path fill="#DAE4EA" d="M4515.985,1195.907c67.853,7.539,183.768,11.309,255.391,21.675c3.77,0.942,4.712,5.654,5.654,8.482
				c-0.942,6.597-1.885,7.539-6.597,12.251c-23.56,0-250.679-15.078-259.16-20.733
				C4504.676,1207.215,4507.503,1202.504,4515.985,1195.907z"/>
			<path fill="#DAE4EA" d="M4520.697,1139.363c22.618,0,158.323,6.597,169.632,13.194c2.827,1.885,4.712,4.712,4.712,8.482
				c0,5.654-3.77,8.482-7.54,11.309c-17.905,0-161.15-6.597-167.747-11.309c-2.828-1.885-4.712-4.712-5.655-9.424
				C4514.1,1145.959,4516.927,1143.132,4520.697,1139.363z"/>
			<path fill="#DAE4EA" d="M4482.059,1449.413c32.984-1.885,113.088,8.481,149.841,11.309c3.77,0,5.655,5.654,7.54,8.481
				c-0.943,6.597-0.943,7.539-5.655,13.194c-13.193,1.885-129.109-9.424-148.899-11.309c-3.77,0-5.655-4.712-7.54-8.482
				C4477.346,1455.067,4477.346,1456.009,4482.059,1449.413z"/>
			<path fill="#DAE4EA" d="M4957.971,1163.865c16.021,0,124.397-3.77,86.701,31.099c-22.618-1.885-45.235-1.885-66.911-2.827
				c-11.309-0.942-25.445-1.885-27.33-15.078C4951.374,1169.52,4953.259,1168.577,4957.971,1163.865z"/>
			<path fill="#DAE4EA" d="M4901.427,1226.063c19.791,0,82.931,1.885,102.722,10.366c3.77,1.885,4.712,5.654,5.655,9.424
				c-1.885,5.654-2.827,6.597-7.54,10.366c-20.732,0-78.219-5.654-100.837-7.539c-5.654-4.712-3.769-1.885-5.654-9.424
				C4895.772,1231.718,4895.772,1231.718,4901.427,1226.063L4901.427,1226.063z"/>
			<path fill="#16212E" d="M4784.569,403.348c40.523,0.942,81.989-0.942,123.455,0.942c3.77,0,5.655,3.77,6.597,6.597
				c0,5.654-0.942,6.597-3.77,11.309c-39.581-0.942-79.162,0-118.742-0.942c-7.54,0-7.54-0.942-11.309-5.654
				C4780.799,408.06,4780.799,409.944,4784.569,403.348z"/>
			<path fill="#38BD49" d="M4576.298,930.15c-9.424,0-33.926,6.597-39.581,0.942c0.942-9.424,15.078-17.906,20.732-24.502
				c16.021-16.963,23.561-25.445,44.293-35.811l4.712,27.33C4599.858,908.474,4587.607,923.553,4576.298,930.15z"/>
			<path fill="#1B3250" d="M3576.411,1444.701c32.042-3.77,54.659-29.214,75.392-51.832c48.062,4.712,94.24,15.078,142.302,20.733
				c6.597,0.943,17.906,1.885,24.502,3.77l2.827-0.943c6.597,0.943,15.079,0.943,20.733,4.712c1.885,3.77,1.885,4.712,0.942,9.424
				c3.77,6.597,3.77,16.963,3.77,24.502c0.942-12.251,0.942-22.618,0.942-35.811c47.12,0.943,105.549,2.827,151.727-6.597
				c12.251,15.078,42.408,56.544,59.371,62.198c0.942,16.963-2.827,45.235-4.712,62.198
				c-7.539,65.968-16.963,130.994-16.963,197.904c0,12.251,1.885,26.387,0.943,37.696c0.942,21.675,1.885,45.235,1.885,66.911
				c-0.943,32.984-2.827,45.235,4.712,77.277l3.77,15.078c10.366,47.12,6.597,120.627,7.539,169.632
				c0,29.214,2.827,67.853,2.827,96.125c0,17.906-1.885,41.466-0.942,57.486c-0.943,8.482-1.885,16.963-2.827,25.445l0.942,8.482
				c5.655,15.079,24.502,61.256,14.136,76.334c-28.272,2.827-39.581,6.597-66.911,15.079c-30.157,6.597-54.659,16.963-62.198-21.675
				c-10.366,10.366-17.906,16.021-29.214,25.445c13.194,2.827,24.502,4.712,37.696,6.597c0,6.597-0.943,16.021-1.885,22.618
				l-3.77,5.654c6.597,25.445,29.214,20.733,42.408,41.466c6.597,11.309,7.539,30.157,13.194,44.293
				c-27.33-9.424-46.178-17.906-75.392-24.502c-23.56-4.712-77.277-8.482-96.125-16.021c-15.078,8.482-30.157,16.963-46.177,25.445
				c-22.618,11.309-54.659,25.445-76.334,36.754c-11.309-4.712-13.194-5.655-25.445-8.482v-3.77
				c6.597-3.77,24.502-10.366,32.984-14.136c-5.654-0.942-5.654,0-9.424-2.827c0-9.424,9.424-12.251,9.424-26.387
				c-0.942-11.309-0.942-24.502,1.885-35.811l-11.309-1.885c-5.655-1.885-12.251-4.712-16.963-6.597
				c-26.387-18.848-57.487-38.639-85.759-10.367l-1.885-0.942c-4.712-27.33,17.906-60.313,3.77-88.585
				c-0.942-1.885,2.827-37.696,3.77-43.351c0.942-6.597,1.885-21.675,1.885-29.215c-2.827-61.256-4.712-122.512-6.597-184.71
				c-0.942-32.042-2.827-73.507-0.942-104.607l6.597-40.523c-12.251-65.968,0-151.727-4.712-225.234
				C3597.144,1618.102,3577.354,1523.862,3576.411,1444.701z"/>
			<path fill="#1B3250" d="M3576.411,1444.701c32.042-3.77,54.659-29.214,75.392-51.832c48.062,4.712,94.24,15.078,142.302,20.733
				c6.597,0.943,17.906,1.885,24.502,3.77c0,16.021-0.943,85.759,1.885,97.067c-27.33,13.193-49.005,19.79-77.277,35.811
				c10.366,1.885,34.869,4.712,40.523,12.251c15.079,22.617-5.654,136.648,9.424,149.842c-5.655,31.099-10.366,59.371-14.136,90.47
				l-8.482,69.738c-3.77,25.445-10.366,40.523-15.078,64.083c-2.827,15.078,1.885,37.696-1.885,56.544v9.424
				c-3.77,43.35-7.539,86.701-11.309,130.051c-0.942,10.367-1.885,17.906-1.885,28.272c-4.712,18.848-3.77,52.774-7.539,71.622
				c-2.827,38.639,0,68.795,0,106.491c-1.885,27.33-1.885,58.429-9.424,84.816c-2.827,10.367-9.424,9.424-18.848,9.424
				c-5.654-1.885-12.251-4.712-16.963-6.597c-26.387-18.848-57.486-38.638-85.758-10.366l-1.885-0.943
				c-4.712-27.329,17.906-60.313,3.77-88.585c-0.942-1.885,2.827-37.696,3.77-43.351c0.942-6.597,1.885-21.675,1.885-29.214
				c-2.827-61.256-4.712-122.512-6.597-184.711c-0.942-32.042-2.827-73.507-0.942-104.607l6.597-40.523
				c-12.251-65.968,0-151.727-4.712-225.234C3597.144,1618.102,3577.354,1523.862,3576.411,1444.701z"/>
			<path fill="#16212E" d="M3731.907,2339.981l-1.885,0.942l-3.77-0.942c-12.251-17.906-26.387-31.099-32.984-53.717
				c-5.655-18.848,9.424-49.947,29.214-55.602c3.77-0.943,6.597,0.942,9.424,3.77
				C3729.08,2272.128,3732.85,2302.285,3731.907,2339.981z"/>
			<path fill="#16212E" d="M3706.462,1891.398c16.021-16.963,29.215-32.042,41.466-51.832c4.712-7.539,22.618-41.466,28.272-42.408
				l1.885,6.597l-8.482,69.738C3749.813,1875.378,3726.253,1884.802,3706.462,1891.398z"/>
			<path fill="#16212E" d="M3752.64,1939.461c0.942,18.848-0.942,36.754,0,54.659v9.424c-7.539,4.712-15.078,5.655-25.445,12.251
				c-6.597,3.77-20.733,15.078-24.502,16.021l-0.942-2.827C3709.29,2002.602,3736.619,1962.079,3752.64,1939.461z"/>
			<path fill="#16212E" d="M3607.51,1925.325c9.424,1.885,10.366,7.539,14.136,16.963c26.387,0.943,44.293,0,71.622-3.77
				c-14.136,8.482-75.392,38.639-88.586,37.696c-2.827-3.77-2.827-6.597-3.77-11.309L3607.51,1925.325z"/>
			<path fill="#16212E" d="M3613.165,1818.834c11.309,9.424,16.021,28.272,32.984,28.272c3.77,0,7.539,0.943,10.366,1.885
				c0,6.597-11.309,17.906-16.963,23.56c-5.654,5.654-17.906,16.963-25.445,16.963
				C3614.107,1860.299,3615.992,1847.106,3613.165,1818.834z"/>
			<path fill="#718394" d="M3900.597,1977.157c4.712,34.869,5.654,98.952,10.366,139.475l13.194,118.743
				c0.943,13.194,2.827,42.408,4.712,54.659l0.942,9.424c2.827,23.56,4.712,37.696,12.251,60.313
				c-10.366,10.366-17.906,16.021-29.214,25.445c13.194,2.827,24.502,4.712,37.696,6.597c0,6.597-0.943,16.021-1.885,22.617
				l-3.77,5.655c6.597,25.445,29.215,20.733,42.408,41.466c6.597,11.309,7.539,30.157,13.194,44.293
				c-27.33-9.424-46.178-17.906-75.392-24.502c-23.56-4.712-77.277-8.481-96.125-16.021c-15.078,8.481-30.157,16.963-46.177,25.445
				c-22.618,11.309-54.659,25.445-76.334,36.753c-11.309-4.712-13.194-5.654-25.445-8.481v-3.77
				c6.597-3.77,24.502-10.366,32.984-14.136c-5.654-0.942-5.654,0-9.424-2.827c0-9.424,9.424-12.251,9.424-26.387
				c-0.942-11.309-0.942-24.502,1.885-35.811l-11.309-1.885c9.424,0,16.021,0.942,18.848-9.424
				c7.539-26.387,8.482-57.487,9.424-84.816c0.942-37.696-2.827-67.853,0-106.491c3.77-19.79,2.827-52.774,7.539-71.623
				c0-10.366,0.942-17.906,1.885-28.272c8.482-5.655,21.675-19.791,29.214-27.33c21.675-21.675,42.408-44.293,62.198-66.911
				c8.481-10.366,28.272-32.984,36.753-40.523l10.366-5.654l1.885,0.942l-1.885,6.597
				C3887.403,1992.235,3894,1984.696,3900.597,1977.157L3900.597,1977.157z"/>
			<path fill="#4D657C" d="M3944.89,2419.143c6.597,25.445,29.215,20.733,42.408,41.466c6.597,11.309,7.539,30.157,13.194,44.293
				c-27.33-9.424-46.177-17.906-75.392-24.502c-23.56-4.712-77.277-8.482-96.125-16.021c-15.079,8.481-30.157,16.963-46.178,25.445
				c-22.618,11.309-54.659,25.445-76.334,36.753c-11.309-4.712-13.194-5.655-25.445-8.481v-3.77
				c6.597-3.77,24.502-10.366,32.984-14.136c-5.654-0.943-5.654,0-9.424-2.827c0-9.424,9.424-12.251,9.424-26.387
				c-0.942-11.309-0.942-24.502,1.885-35.811l1.885,0.942c48.062-9.424,111.203-11.309,160.208-15.078
				C3898.712,2421.028,3924.157,2421.97,3944.89,2419.143z"/>
			<path fill="#DAE4EA" d="M3714.944,2436.106l1.885,0.942c11.309,15.079,48.062,15.079,65.968,22.618
				c9.424-4.712,32.984,2.827,45.235,4.712c-15.078,8.481-30.157,16.963-46.177,25.445c-22.618,11.309-54.659,25.445-76.334,36.754
				c-11.309-4.712-13.194-5.655-25.445-8.482v-3.77c6.597-3.77,24.502-10.366,32.984-14.136c-5.654-0.942-5.654,0-9.424-2.827
				c0-9.424,9.424-12.251,9.424-26.387C3712.117,2459.666,3712.117,2446.473,3714.944,2436.106z"/>
			<path fill="#718394" d="M3714.944,2436.106l1.885,0.942c11.309,15.079,48.062,15.079,65.968,22.618
				c-12.251,10.366-54.659,34.869-69.738,41.466c-5.654-0.942-5.654,0-9.424-2.827c0-9.424,9.424-12.251,9.424-26.387
				C3712.117,2459.666,3712.117,2446.473,3714.944,2436.106L3714.944,2436.106z"/>
			<path fill="#BFA17C" d="M3870.44,1998.832l10.366-5.654l1.885,0.942l-1.885,6.597
				c-15.079,18.848-126.282,160.208-139.475,163.035l-0.942-1.885c0-10.366,0.942-17.906,1.885-28.272
				c8.482-5.655,21.675-19.791,29.214-27.33c21.675-21.675,42.408-44.293,62.198-66.911
				C3842.168,2028.989,3861.016,2006.371,3870.44,1998.832z"/>
			<path fill="#04D6FC" d="M3792.221,1713.285c4.712-21.675,22.617-131.936,28.272-140.418c2.827,10.367,1.885,19.791,2.827,30.157
				c10.366,72.565,48.062,138.533,50.889,212.983c0.943,20.733,3.77,49.005,6.597,69.738c4.712,28.272,15.078,49.947,17.906,79.162
				l0.942,11.309c-6.597,7.539-13.193,16.021-19.791,23.56l1.885-6.597l-1.885-0.943l-10.366,5.654
				c-8.482,7.539-27.33,31.099-36.754,40.523c-19.791,22.618-40.523,45.235-62.198,66.91c-7.539,7.539-20.733,21.675-29.214,27.33
				c2.827-43.35,7.539-86.701,11.309-130.051v-9.424c3.77-18.848-0.942-42.408,1.885-56.544
				c3.77-22.618,11.309-37.696,15.078-64.083l8.481-69.738C3781.854,1772.656,3787.509,1745.326,3792.221,1713.285
				L3792.221,1713.285z"/>
			<path fill="#BFA17C" d="M3899.655,1965.848l0.943,11.309c-6.597,7.539-13.194,16.021-19.791,23.56l1.885-6.597l-1.885-0.942
				l-10.366,5.654C3876.094,1989.408,3891.173,1973.387,3899.655,1965.848z"/>
			<path fill="#16212E" d="M3822.378,1515.381c0.943,0,1.885,0,2.827,0c13.194,0,28.272-6.597,39.581,4.712
				c5.654,5.654,6.597,19.79,7.539,28.272c1.885,21.675,0,44.293,1.885,66.91c1.885,49.005,16.963,208.271,32.042,248.794
				c11.309,30.157,25.445,54.659,49.005,77.277c7.539,7.539,17.906,14.136,23.56,22.617l-2.827-0.942
				c-21.675-7.539-49.005-21.675-69.738-32.042l-0.943,0.943c-0.942,14.136,11.309,20.733,11.309,32.984
				c0.943,58.429,5.655,110.261,48.062,155.496c12.251,13.194,27.33,27.33,41.466,41.466c-45.235-8.481-57.487-21.675-94.24-45.235
				c-3.77-40.523-4.712-104.607-10.366-139.475l-0.943-11.309c-3.77-29.215-13.193-51.832-17.906-79.162
				c-3.77-19.791-6.597-49.005-6.597-69.738c-1.885-74.45-40.523-140.418-50.89-212.983c-1.885-10.366-0.942-19.791-2.827-30.157
				c-4.712,8.482-23.56,118.743-28.272,140.418c-14.136-14.136,6.597-127.224-9.424-149.842
				c-4.712-7.539-30.157-10.366-40.523-12.251c28.272-16.021,50.89-22.618,77.277-35.811L3822.378,1515.381z"/>
			<path fill="#1B3250" d="M3928.869,2299.458c4.712,1.885,19.791,12.251,25.445,13.194c24.502,5.655,66.91-9.424,90.47-18.848
				c8.482-3.77,9.424-5.655,12.251-12.251l0.942,8.481c5.655,15.078,24.503,61.256,14.136,76.334
				c-28.272,2.827-39.581,6.597-66.91,15.079c-30.157,6.597-54.659,16.963-62.198-21.675
				C3933.581,2336.212,3931.696,2323.018,3928.869,2299.458z"/>
			<path fill="#16212E" d="M3927.927,2290.034c0.943-5.655,0-3.77,2.827-7.539c10.366-3.77,30.157,0.942,47.12-1.885
				c35.812-7.539,54.659-28.272,67.853-61.256c3.77-9.424,4.712-22.617,9.424-30.157l1.885,0.942l1.885,9.424
				c0,17.906-1.885,41.466-0.943,57.487c-0.942,8.481-1.885,16.963-2.827,25.445c-2.827,6.597-2.827,8.481-12.251,12.251
				c-22.618,9.424-65.968,24.503-90.471,18.848c-4.712-0.942-19.79-11.309-25.445-13.194L3927.927,2290.034z"/>
			<path fill="#16212E" d="M4003.319,1860.299c9.424-18.848,28.272-80.104,35.811-86.701c0.943,21.675,1.885,45.235,1.885,66.911
				C4026.879,1848.048,4017.455,1853.703,4003.319,1860.299z"/>
			<path fill="#16212E" d="M4049.496,1932.864c-17.906,21.675-78.219,3.77-86.701-12.251c5.655-1.885,20.733,4.712,31.099,4.712
				c18.848,0,33.927-4.712,51.832-7.539L4049.496,1932.864z"/>
			<path fill="#161C20" d="M3818.608,1418.313l2.827-0.943c1.885,27.33,0.942,70.68,0,98.952h-0.942
				C3818.608,1504.072,3818.608,1434.334,3818.608,1418.313z"/>
			<path fill="#161C20" d="M3844.053,1430.565c3.77,6.597,3.77,16.963,3.77,24.502c0,12.251-0.942,24.502-1.885,36.754
				C3842.168,1477.685,3844.053,1446.585,3844.053,1430.565z"/>
			<path fill="#161C20" d="M4024.052,1989.408c1.885,0,0,0,2.827,0.942l-1.885,1.885c-17.906,7.539-30.157,7.539-49.005,3.77
				c-1.885-0.943-0.942,0-2.827-2.827C3988.24,1991.293,4005.204,1993.178,4024.052,1989.408z"/>
			<path fill="#0071CC" d="M5107.812,1999.775c10.367-12.251,22.618-26.387,28.272-41.466c2.827-7.539,3.77-16.963,6.597-25.445
				c2.827,8.482-0.942,18.848-3.77,27.33c2.827,14.136,34.869,19.79,17.905,41.466c-9.424,12.251-23.56,23.56-38.638,27.329
				c-5.655,1.885-22.618,2.827-27.33,5.655c-24.502,15.078-47.12,18.848-74.45,27.329l-131.936,37.696
				c-57.486,16.021-113.088,38.639-168.69,59.371c-59.371,21.675-71.623,63.141-107.434,109.319
				c-13.193,16.021-46.177,10.366-56.544,17.906c-12.251,27.33-24.502,53.717-36.753,80.104
				c-28.272,61.256-66.911,115.915-98.952,174.344c-219.58,394.866-701.146,480.625-1115.803,455.18
				c-11.309-0.943-22.618-0.943-32.984-2.827c10.366-1.885,47.12,0.942,59.371,0.942c36.754,1.885,73.507,2.827,110.261,3.77
				c24.502,0,214.867-10.366,222.406-16.021c-1.885,0-32.984-0.943-36.754-1.885c-48.062-3.77-96.125-2.827-143.245-12.251
				c-7.539-1.885-40.523-9.424-44.293-8.482c-43.35,5.655-73.507-3.77-114.973-14.136c-47.12-11.309-98.952-13.194-140.418-40.523
				c-10.366-6.597-32.984-45.235-42.408-48.062c-33.926-10.366-5.654-49.005,8.482-65.026c11.309-13.194,27.33-17.906,36.754-32.042
				c2.827-4.712,18.848-30.157,22.618-32.042c19.79-10.366,52.774-32.984,73.507-36.754l0.942-0.942
				c-18.848-3.77-114.973-8.481-124.397-16.963c34.869,2.827,70.68,8.482,106.491,12.251
				c151.726,16.021,303.453,32.984,454.237,50.89l150.784,17.906c16.963,1.885,57.487,7.539,73.507,6.597
				c0.942-20.733-0.942-47.12-0.942-67.853h1.885c20.733,0.942,59.371-6.597,80.104-10.367
				c93.298-17.906,191.307-47.12,274.239-93.298c28.272-15.078,55.602-40.523,80.104-60.313
				c37.696-40.523,65.026-68.795,95.183-115.915c24.502-38.638,44.293-83.874,67.853-120.627l1.885-2.827l3.77,0.942l7.539-8.481
				c7.54-11.309,13.194-23.56,18.848-35.811c16.021-39.581,39.581-85.759,57.486-126.282
				c15.079-33.927,30.157-69.738,46.178-103.664c96.125,3.77,193.192,6.597,289.317,8.481c36.754,0.943,107.434,5.655,140.418,3.77
				l6.597-1.885h2.827C5111.582,2017.68,5108.755,2007.314,5107.812,1999.775L5107.812,1999.775z"/>
			<path fill="#7A6954" d="M4399.127,2506.786c0,7.539-0.942,19.791,1.885,25.445c2.827,0,4.712,0,6.597,0
				c-3.77,10.366-15.078,13.194-17.905,26.387c-90.471,106.491-219.58,147.957-351.516,180.941
				c-32.042,8.482-67.853,11.309-98.952,19.791c0.943-20.733-0.942-47.12-0.942-67.853h1.885
				c20.733,0.943,59.371-6.597,80.104-10.366c93.298-17.906,191.308-47.12,274.239-93.298
				c28.272-15.078,55.602-40.523,80.104-60.313l3.77,0.942C4384.991,2520.922,4392.53,2513.383,4399.127,2506.786z"/>
			<path fill="#BFA17C" d="M4319.965,2575.581c5.655,8.482,3.77,24.503,2.827,34.869
				C4317.138,2603.854,4318.081,2584.063,4319.965,2575.581z"/>
			<path fill="#BFA17C" d="M4228.553,2638.722c1.884,5.655-1.885,25.445-3.77,32.042
				C4219.128,2659.455,4221.956,2648.146,4228.553,2638.722z"/>
			<path fill="#F3D29E" d="M3966.565,2706.575c5.654,5.655,2.827,23.56,1.885,31.099
				C3962.795,2729.193,3964.68,2716,3966.565,2706.575z"/>
			<path fill="#BFA17C" d="M4170.124,2655.686c4.712,6.597,2.827,22.617,1.885,31.099
				C4166.354,2675.476,4168.239,2668.879,4170.124,2655.686z"/>
			<path fill="#BFA17C" d="M4024.994,2699.036l3.77,1.885c1.885,5.655,0,13.194,0,19.791h-1.885
				C4024.052,2715.057,4024.994,2704.69,4024.994,2699.036z"/>
			<path fill="#836B52" d="M4538.603,2287.207l3.77,0.943l7.539-8.482c-22.618,64.083-111.203,234.658-159.266,279.893
				c2.827-13.194,14.136-16.021,17.906-26.387c-2.828,0-4.712,0-6.597,0c-2.827-5.654-1.885-17.906-1.885-25.445
				c-6.597,6.597-14.136,14.136-21.675,20.733l-3.77-0.942c37.696-40.523,65.026-68.795,95.183-115.915
				c24.502-38.639,44.293-83.874,67.853-120.627L4538.603,2287.207z"/>
			<path fill="#BFA17C" d="M4401.954,2509.613l1.885,1.885c1.885,6.597,1.885,13.194,1.885,20.733l-2.827-2.827
				C4401.012,2522.807,4401.954,2516.21,4401.954,2509.613z"/>
			<path fill="#BFA17C" d="M2713.172,2513.383c18.848-5.655,51.832-6.597,72.565-8.482
				c234.658-20.733,479.682-48.062,688.895-164.92c48.062-26.387,89.528-54.659,133.821-84.816c0,7.539-0.942,21.675-1.885,29.215
				c-0.942,5.655-4.712,41.466-3.77,43.351c14.136,28.272-8.482,61.256-3.77,88.585l1.885,0.943
				c29.214-28.272,59.371-8.481,85.759,10.366c4.712,1.885,12.251,5.654,16.963,6.597l11.309,1.885
				c-2.827,11.309-2.827,24.502-1.885,35.811c-0.942,14.136-10.366,16.963-9.424,26.387c4.712,2.827,3.77,1.885,9.424,2.827
				c-8.482,3.77-26.387,10.366-32.984,14.136v3.77c12.251,1.885,14.136,3.77,25.445,8.482
				c21.675-11.309,53.717-25.445,76.334-36.754c0.942,0,0.942,0.942,1.885,1.885c17.906,12.251,65.968,4.712,72.565,29.214
				c0.942,2.827,0,4.712-0.942,7.539c-0.942,1.885-4.712,3.77-6.597,5.655c-0.942,0.942-0.942,0.942-1.885,1.885
				c-32.042,25.445-220.522,28.272-267.642,28.272c-0.942,0.942-0.942,1.885-1.885,3.77c-27.33,9.424-56.544,17.906-83.874,25.445
				c-4.712,0.943-10.366,1.885-14.136,2.827c85.759,12.251,186.595,19.791,274.239,28.272l96.125,10.366
				c16.021,1.885,38.638,4.712,54.659,5.655c10.366,0.942,24.502,1.885,34.869,2.827c0.942,16.963,0.942,33.927,0.942,49.947h-1.885
				c0,20.733,1.885,47.12,0.942,67.853c-15.078,0.942-56.544-4.712-73.507-6.597l-150.784-17.906
				c-151.727-17.906-302.511-34.869-454.237-50.89c-35.811-3.77-70.68-8.481-106.491-12.251c-5.655-0.943-39.581-4.712-47.12-5.655
				l-113.088-12.251l-191.307-21.675c-34.869-3.77-73.507-10.366-107.434-13.193c0.942-18.848,0.942-37.696,0-56.544
				c-0.942-16.021,0-33.927,0-49.947C2699.978,2513.383,2707.518,2513.383,2713.172,2513.383L2713.172,2513.383z"/>
			<path fill="#718394" d="M2713.172,2513.383c18.848-5.655,51.832-6.597,72.565-8.482
				c234.658-20.733,479.682-48.062,688.895-164.92c48.062-26.387,89.528-54.659,133.821-84.816c0,7.539-0.942,21.675-1.885,29.215
				c-0.942,5.655-4.712,41.466-3.77,43.351c14.136,28.272-8.482,61.256-3.77,88.585l1.885,0.943
				c29.214-28.272,59.371-8.481,85.759,10.366c4.712,1.885,12.251,5.654,16.963,6.597l11.309,1.885
				c-2.827,11.309-2.827,24.502-1.885,35.811c-0.942,14.136-10.366,16.963-9.424,26.387c4.712,2.827,3.77,1.885,9.424,2.827
				c-8.482,3.77-26.387,10.366-32.984,14.136v3.77c12.251,1.885,14.136,3.77,25.445,8.482
				c21.675-11.309,53.717-25.445,76.334-36.754c0.942,0,0.942,0.942,1.885,1.885c17.906,12.251,65.968,4.712,72.565,29.214
				c0.942,2.827,0,4.712-0.942,7.539c-0.942,1.885-4.712,3.77-6.597,5.655c-0.942,0.942-0.942,0.942-1.885,1.885
				c-32.042,25.445-220.522,28.272-267.642,28.272c-0.942,0.942-0.942,1.885-1.885,3.77c-27.33,9.424-56.544,17.906-83.874,25.445
				c-4.712,0.943-10.366,1.885-14.136,2.827c-13.194-1.885-26.387-3.77-39.581-4.712c-15.078,0.942-46.177-2.827-62.198-4.712
				c-31.099-3.77-62.198-7.539-93.298-10.366l-320.416-32.984c-49.947-5.655-112.146-14.136-160.208-17.906
				C2773.486,2519.037,2742.386,2517.153,2713.172,2513.383z"/>
			<path fill="#F3D29E" d="M2713.172,2513.383c18.848-5.655,51.832-6.597,72.565-8.482
				c234.658-20.733,479.682-48.062,688.895-164.92c48.062-26.387,89.528-54.659,133.821-84.816c0,7.539-0.942,21.675-1.885,29.215
				c-207.328,146.072-389.212,195.077-640.833,223.349c-50.89,5.655-112.146,14.136-162.093,16.021
				C2773.486,2519.037,2742.386,2517.153,2713.172,2513.383z"/>
			<path fill="#FDFDFC" d="M3599.971,2416.316c29.214-28.272,59.371-8.482,85.758,10.366c4.712,1.885,12.251,5.655,16.963,6.597
				l11.309,1.885c-2.827,11.309-2.827,24.502-1.885,35.811c-0.942,14.136-10.366,16.963-9.424,26.387
				c4.712,2.827,3.77,1.885,9.424,2.827c-8.481,3.77-26.387,10.366-32.984,14.136v3.77l-1.885,7.539
				c-22.618,23.56-56.544,28.272-87.643,26.387c-38.638-1.885-47.12-3.769-43.35-43.35
				C3553.793,2489.823,3594.317,2447.415,3599.971,2416.316z"/>
			<path fill="#DAE4EA" d="M3686.672,2426.682c4.712,1.885,12.251,5.655,16.963,6.597l11.309,1.885
				c-2.827,11.309-2.827,24.502-1.885,35.811c-0.942,14.136-10.366,16.963-9.424,26.387c4.712,2.827,3.77,1.885,9.424,2.827
				c-8.482,3.77-26.387,10.366-32.984,14.136v3.77l-1.885,7.539c-22.618,23.56-56.544,28.272-87.643,26.387
				c-38.638-1.885-47.12-3.769-43.35-43.35c0,4.712,0,8.481,1.885,12.251c23.56,13.194,47.12,16.021,72.565,10.366
				c37.696-6.597,33.926-33.926,42.408-62.198c3.77-12.251,13.194-30.157,20.733-41.466L3686.672,2426.682z"/>
			<path fill="#4D657C" d="M3714.002,2470.975c-0.942,14.136-10.366,16.963-9.424,26.387c4.712,2.827,3.77,1.885,9.424,2.827
				c-8.482,3.77-26.387,10.366-32.984,14.136c1.885-10.366,2.827-16.963,5.655-26.387l7.539-3.77
				C3704.578,2479.457,3704.578,2479.457,3714.002,2470.975z"/>
			<path fill="#DAE4EA" d="M3601.856,2461.551c18.848-0.942,26.387-0.942,43.35,5.655l0.942,1.885h0.942l0.943,2.827
				c-3.77,0-5.655-0.942-9.424-2.827c-13.194-4.712-32.042-1.885-46.177-2.827l0.942-1.885L3601.856,2461.551z"/>
			<path fill="#DAE4EA" d="M3606.568,2445.53c12.251-0.942,40.523-3.77,48.062,6.597c-2.827,0.943-4.712-0.942-9.424-2.827
				c-3.77-1.885-37.696-0.943-46.178-0.943v-1.885L3606.568,2445.53z"/>
			<path fill="#FDFDFC" d="M3544.369,2556.733c11.309,2.827,23.56,5.655,35.811,6.597c-0.942,0.942-0.942,1.885-1.885,3.77
				c-27.33,9.424-56.544,17.906-83.874,25.445c-4.712,0.943-10.366,1.885-14.136,2.827c-13.194-1.885-26.387-3.77-39.581-4.712
				c8.481-4.712,37.696-11.309,49.005-15.079C3507.616,2569.927,3526.464,2563.33,3544.369,2556.733z"/>
			<path fill="#9FAEC3" d="M3681.018,2519.037c12.251,1.885,14.136,3.77,25.445,8.481c-10.366,5.655-19.79,12.251-27.33-0.942
				L3681.018,2519.037z"/>
			<path fill="#16212E" d="M2694.324,2512.441c5.654,0.942,13.194,0.942,18.848,0.942c29.214,3.77,60.313,5.654,90.47,9.424
				c49.005,3.77,110.261,12.251,160.208,17.906l320.416,32.984c31.099,3.77,62.198,6.597,93.298,10.366
				c16.021,1.885,47.12,5.655,62.198,4.712c13.194,0.942,26.387,2.827,39.581,4.712c85.759,12.251,186.595,19.791,274.239,28.272
				l96.125,10.366c16.021,1.885,38.638,4.712,54.659,5.655c10.366,0.942,24.502,1.885,34.869,2.827
				c0.943,16.963,0.943,33.927,0.943,49.947h-1.885c-19.791,0-60.314-5.655-81.989-8.481c-43.35-4.712-86.701-9.424-130.051-13.194
				c-181.884-17.906-367.536-39.581-549.42-56.544l-16.021-1.885c-35.811-7.539-95.183-10.366-132.879-15.079l-332.667-35.811
				C2693.382,2546.367,2694.324,2528.461,2694.324,2512.441L2694.324,2512.441z"/>
			<path fill="#F3D29E" d="M3184.372,2639.665c-13.194-13.194-29.214-16.963-34.869-24.502l0.942-2.827l9.424-0.942l16.021,1.885
				C3179.66,2621.759,3182.488,2632.125,3184.372,2639.665z"/>
			<path fill="#F3D29E" d="M3783.739,2692.439c6.597,5.654,3.77,26.387,2.827,34.869c-2.827-1.885-1.885-1.885-4.712-3.77
				C3779.027,2712.229,3779.97,2702.806,3783.739,2692.439z"/>
			<path fill="#F3D29E" d="M3274.843,2641.55l2.827,2.827c0.942,8.481,1.885,22.617-1.885,31.099
				C3269.188,2665.109,3272.958,2652.858,3274.843,2641.55z"/>
			<path fill="#F3D29E" d="M2966.678,2594.429c8.482,2.827,11.309,9.424,8.482,17.906c-4.712,0-4.712,0.943-9.424,0
				C2962.908,2605.738,2964.793,2601.969,2966.678,2594.429z"/>
			<path fill="#F3D29E" d="M2836.626,2595.372c4.712,4.712,1.885,26.387,0.942,34.869
				C2829.087,2623.644,2833.799,2603.854,2836.626,2595.372z"/>
			<path fill="#F3D29E" d="M3075.996,2617.047l3.77,3.77c1.885,11.309,0.942,16.963-1.885,28.272l-0.942-0.942
				C3073.169,2641.55,3075.054,2624.586,3075.996,2617.047L3075.996,2617.047z"/>
			<path fill="#F3D29E" d="M3497.25,2664.167c6.597,7.539,4.712,20.733,4.712,31.099c-2.827-1.885-1.885-1.885-4.712-3.77
				C3495.365,2682.073,3496.307,2674.533,3497.25,2664.167z"/>
			<path fill="#F3D29E" d="M3569.814,2668.879l2.827,2.827c2.827,9.424,0.942,17.906-1.885,27.33c-1.885,0-0.942,0-2.827-0.942
				C3566.987,2689.612,3568.872,2678.303,3569.814,2668.879z"/>
			<path fill="#F3D29E" d="M3862.901,2705.633l3.77,1.885c1.885,7.539,0,16.963-0.943,24.502h-2.827
				C3861.016,2724.481,3862.901,2713.172,3862.901,2705.633z"/>
			<path fill="#F3D29E" d="M3345.523,2650.031c7.539,6.597,3.77,16.021,1.885,24.502h-1.885
				C3340.811,2668.879,3343.638,2656.628,3345.523,2650.031z"/>
			<path fill="#F2AF6E" d="M2893.17,2615.162c2.827,7.539,1.885,16.963-2.827,23.56l-2.827-4.712
				C2887.516,2627.414,2890.343,2622.701,2893.17,2615.162z"/>
			<path fill="#F3D29E" d="M3663.112,2669.822c6.597,3.77,12.251,9.424,16.021,15.078
				C3666.882,2682.073,3664.997,2682.073,3663.112,2669.822z"/>
			<path fill="#F3D29E" d="M2762.177,2573.697l3.77,1.885c4.712,7.539,5.655,8.481,11.309,15.078
				C2764.062,2588.775,2763.119,2584.063,2762.177,2573.697z"/>
			<path fill="#161C20" d="M4671.481,2013.911c19.791-47.12,40.523-95.182,61.256-142.303
				c110.261-253.506,208.271-449.525,322.301-43.351c17.906,65.026,29.214,134.763,47.12,197.904
				c-32.984,1.885-103.664-2.827-140.417-3.77C4864.673,2020.507,4767.606,2017.68,4671.481,2013.911z"/>
			<path fill="#161C20" d="M4897.657,1546.48c9.424-0.943,22.617-1.885,30.157,1.885c90.47,41.465,106.491,196.019,140.418,277.066
				l-1.885,6.597c-3.77-0.942-1.885,0-4.712-2.827c13.193,48.062,24.502,91.413,34.869,139.475
				c2.827,13.193,7.539,45.235,12.251,55.601l-6.597,1.885c-16.963-63.141-29.214-132.879-47.12-197.904
				c-114.03-406.175-212.04-210.155-322.301,43.351c-20.733,47.12-40.523,95.183-61.256,142.303
				c-15.078,33.926-30.157,69.738-46.177,103.664c-17.906,39.581-41.466,85.759-57.487,126.282
				c-5.654,12.251-11.309,25.445-18.848,35.811l-7.54,8.482l-3.77-0.942l-1.885,2.827c-22.617,37.696-43.35,81.989-67.853,120.627
				c-30.157,48.062-57.487,76.334-95.183,115.915c-25.445,19.791-52.774,45.235-80.104,60.314
				c-83.874,46.177-180.941,75.392-274.239,93.298c-20.733,3.77-59.371,11.309-80.104,10.366c0-16.963,0-33.927-0.942-49.947
				c-10.366,0-23.56-1.885-34.869-2.827c5.654-3.77,10.366-2.827,16.963-3.77c114.031-16.963,248.794-49.947,345.861-113.088
				c52.775-33.927,101.779-88.586,138.533-136.648c9.424-16.021,22.618-31.099,32.042-47.12
				c77.277-120.627,136.648-250.678,198.847-378.845c30.157-62.198,61.256-123.454,92.355-184.711
				c6.597-12.251,58.429-111.203,65.968-115.915c1.885-1.885,15.079-22.618,17.906-27.33
				C4842.998,1586.061,4850.537,1570.982,4897.657,1546.48z"/>
			<path fill="#F3D29E" d="M4466.98,2297.573c3.77,9.424,3.77,10.366,2.827,20.733l1.885,2.827
				c5.654-0.942,7.539-1.885,12.251-4.712l1.885,0.942c-8.482,20.733-23.56,40.523-34.869,59.371
				c-3.77,6.597-16.021,20.733-17.905,26.387l0.942,1.885c-28.272,38.638-63.141,82.931-100.837,111.203
				c-107.434,79.162-264.815,109.319-393.924,124.397c-10.366,0-23.56-1.885-34.869-2.827c5.655-3.77,10.366-2.827,16.963-3.77
				c114.031-16.963,248.794-49.947,345.861-113.088c52.775-33.927,101.779-88.586,138.533-136.648
				C4425.514,2372.965,4452.844,2317.364,4466.98,2297.573z"/>
			<path fill="#BFA17C" d="M4405.724,2384.274c9.424-16.021,22.618-31.099,32.042-47.12
				c77.277-120.627,136.648-250.678,198.847-378.845c30.157-62.198,61.256-123.454,92.355-184.711
				c6.597-12.251,58.429-111.203,65.968-115.915c-22.618,46.178-46.178,88.586-65.968,135.706
				c-23.56,56.544-51.832,114.973-75.392,171.517c-56.544,138.533-114.973,276.123-194.134,403.348
				c-3.77,6.597-21.675,33.926-26.388,36.753l-0.942-1.885c1.885-5.655,14.136-19.791,17.906-26.387
				c11.309-18.848,26.387-39.581,34.869-59.371l-1.885-0.942c-4.712,2.827-6.597,3.77-12.251,4.712l-1.885-2.827
				c1.885-10.366,1.885-11.309-2.827-20.733C4452.844,2317.364,4425.514,2372.965,4405.724,2384.274z"/>
			<path fill="#F2AF6E" d="M4562.163,2240.087c30.157-67.853,61.256-135.706,90.47-204.501
				c45.235-106.491,89.528-217.695,142.303-320.416c144.188-281.778,215.81-53.717,266.699,114.973
				c13.194,48.062,24.503,91.413,34.869,139.475c2.827,13.194,7.539,45.235,12.251,55.602l-6.597,1.885
				c-16.963-63.141-29.214-132.879-47.12-197.904c-114.03-406.175-212.04-210.155-322.301,43.351
				c-20.733,47.12-40.523,95.182-61.256,142.303c-15.079,33.926-30.157,69.737-46.178,103.664
				c-17.905,39.581-41.465,85.759-57.486,126.282L4562.163,2240.087z"/>
			<path fill="#C07D41" d="M4562.163,2240.087l5.654,2.827c-5.654,12.251-11.309,25.445-18.848,35.811l-7.539,8.481l-3.77-0.942
				C4546.142,2271.186,4553.681,2255.165,4562.163,2240.087z"/>
			<path fill="#FDFDFC" d="M3911.906,2384.274c11.309-8.482,18.848-15.078,29.214-25.445c7.539,38.639,32.042,28.272,62.198,21.675
				c27.33-7.539,38.639-12.251,66.911-15.078c8.481,16.963,16.963,30.157,27.33,46.177c16.021,24.502,49.005,51.832,48.062,81.989
				c0,4.712-0.942,11.309-0.942,16.021c1.885,4.712,0.942,4.712,0.942,9.424c-9.424,17.906-42.408,16.021-59.371,15.079
				c-32.042-2.827-58.429-15.079-86.701-29.215c-5.655-14.136-6.597-32.984-13.194-44.293
				c-13.194-20.733-35.811-15.078-42.408-41.466l3.77-5.655c0.942-5.655,0.942-16.021,1.885-22.618
				C3936.408,2389.929,3926.042,2387.101,3911.906,2384.274z"/>
			<path fill="#DAE4EA" d="M3911.906,2384.274c11.309-8.482,18.848-15.078,29.214-25.445c7.539,38.639,32.042,28.272,62.198,21.675
				c9.424,17.906,20.733,35.811,27.33,55.602c2.827,8.482-1.885,14.136-2.827,22.618c1.885,21.675,30.157,36.753,47.12,41.466
				c28.272,7.539,45.235,3.77,70.68-6.597c0,4.712-0.942,11.309-0.942,16.021c1.885,4.712,0.942,4.712,0.942,9.424
				c-9.424,17.906-42.408,16.021-59.371,15.079c-32.042-2.827-58.429-15.079-86.701-29.215
				c-5.655-14.136-6.597-32.984-13.194-44.293c-13.194-20.733-35.811-15.079-42.408-41.466l3.77-5.655
				c0.943-5.655,0.943-16.021,1.885-22.617C3936.408,2389.929,3926.042,2387.101,3911.906,2384.274z"/>
			
				<linearGradient id="SVGID_00000142143453322011051840000006234886390162683312_" gradientUnits="userSpaceOnUse" x1="4050.364" y1="3204.2378" x2="4041.6797" y2="3304.9641" gradientTransform="matrix(1 0 0 1 0 -778)">
				<stop  offset="0" style="stop-color:#2D3C4E"/>
				<stop  offset="1" style="stop-color:#445569"/>
			</linearGradient>
			<path fill="url(#SVGID_00000142143453322011051840000006234886390162683312_)" d="M3948.659,2413.489
				c16.021,19.79,28.272,16.963,44.293,32.984c7.539,8.481,11.309,26.387,15.079,36.754c9.424,26.387,50.89,36.753,76.334,38.638
				c18.848,1.885,47.12,0.942,62.199-12.251c1.885,4.712,0.942,4.712,0.942,9.424c-9.424,17.906-42.408,16.021-59.371,15.079
				c-32.042-2.827-58.429-15.079-86.701-29.215c-5.655-14.136-6.597-32.984-13.194-44.293
				c-13.193-20.733-35.811-15.078-42.408-41.466L3948.659,2413.489z"/>
			<path fill="#DAE4EA" d="M4070.229,2424.797c13.194,0,23.56,1.885,35.811,3.77c-16.963,0.943-29.215,0.943-45.235,4.712
				c-5.654,1.885-13.193,4.712-18.848,2.827v-2.827C4052.323,2424.797,4057.035,2425.74,4070.229,2424.797z"/>
			<path fill="#DAE4EA" d="M4082.48,2407.834l2.827,0.942v1.885c-19.791,1.885-31.099,0.943-49.947,8.482l-3.77,1.885l-0.943-2.827
				l2.827-3.77C4046.669,2407.834,4069.287,2408.777,4082.48,2407.834z"/>
			<path fill="#FDFDFC" d="M4058.92,2256.108c8.481,1.885,13.194,2.827,21.675,3.77c-10.367,10.366-16.021,16.963-23.56,29.214
				l-0.942-8.481C4057.035,2273.071,4057.978,2264.589,4058.92,2256.108z"/>
			<path fill="#DAE4EA" d="M4177.663,2048.779c12.251,1.885,23.56,3.77,36.753,4.712c-26.387,43.35-57.487,95.183-86.701,135.706
				l-35.812-4.712c4.712-8.482,10.367-16.963,16.021-25.445C4131.485,2123.229,4153.16,2084.591,4177.663,2048.779z"/>
			<path fill="#DAE4EA" d="M4290.751,1859.357c12.251,0.943,23.56,2.827,35.811,3.77c-23.56,37.696-51.832,90.471-75.392,130.994
				c-11.309-1.885-24.503-2.827-35.812-4.712C4237.034,1949.827,4266.249,1896.11,4290.751,1859.357z"/>
			<path fill="#DAE4EA" d="M4408.551,1677.474c6.597,1.885,26.387,2.827,34.869,4.712c-27.33,35.811-51.832,72.565-75.392,111.203
				l-35.811-2.827C4357.662,1754.75,4378.395,1711.4,4408.551,1677.474z"/>
			<path fill="#DAE4EA" d="M4586.665,1546.48c4.712-0.943,1.885-0.943,5.654,0.942c-2.827,3.77-36.753,22.618-46.178,28.272
				c-15.079,11.309-24.502,17.906-39.581,31.099l-27.33-0.942c-5.655-0.943-3.77,0.942-6.597-2.827
				c6.597-16.021,60.314-47.12,76.335-56.544H4586.665z"/>
			
				<linearGradient id="SVGID_00000060742870895508062560000004007013136011742380_" gradientUnits="userSpaceOnUse" x1="3467.4934" y1="1881.5613" x2="4182.9038" y2="1639.9452" gradientTransform="matrix(1 0 0 1 0 -778)">
				<stop  offset="0" style="stop-color:#FEBF08"/>
				<stop  offset="1" style="stop-color:#FFE516"/>
			</linearGradient>
			<path fill="url(#SVGID_00000060742870895508062560000004007013136011742380_)" d="M3724.368,445.756
				c3.77,4.712,8.481,8.482,13.194,12.251c51.832,46.178,91.413,27.33,131.936-18.848c0,11.309,0.942,23.56,1.885,34.869
				c2.827,13.194,2.827,24.502,13.194,32.984c4.712,0.942,4.712,1.885,9.424,1.885c20.733,7.539,52.774,31.099,77.277,38.638
				c59.371,22.618,107.434,22.618,135.706,85.758c19.79,45.235,21.675,78.219,34.869,124.397
				c4.712,16.021,21.675,56.544,23.56,68.795c4.712,11.309,10.366,28.272,16.021,37.696c-6.597,3.77-17.905,9.424-23.56,12.251
				c-26.387,10.366-49.005,13.194-77.277,15.078h-12.251c-7.539-0.942-12.251-1.885-19.791,0.942
				c0.942,19.79,2.827,39.581,3.77,58.429c-0.942,20.733,1.885,45.235,0,65.026c-10.366,113.088,8.481,219.579,25.445,330.783
				c1.885,11.309,3.77,21.675,6.597,32.984c-11.309,6.597-14.136,7.539-26.387,11.309v6.597c2.827,21.675,0.942,50.89,3.77,74.45
				v1.885c-16.963-5.655-47.12-46.178-59.371-62.198c-46.177,9.424-104.606,7.539-151.727,6.597c0,12.251,0,22.618-0.942,35.811
				c0-8.482,0.942-17.906-3.77-24.502c0-4.712,0.942-4.712-0.942-9.424c-5.655-3.769-13.194-3.769-20.733-4.712l-2.827,0.943
				c-5.655-2.827-16.963-2.827-24.502-3.77c-48.062-6.597-94.24-16.963-142.302-20.733c-19.791,22.618-43.351,48.062-75.392,51.832
				c0-30.157,0.942-60.314,3.77-90.471c-12.251-3.769-24.502-7.539-36.754-10.366c0-19.791,4.712-44.293,6.597-64.083
				c11.309-96.125,43.351-195.077,45.235-292.144c0.942-54.659-13.194-123.455-23.56-178.114
				c-4.712-24.502-12.251-47.12-16.021-73.507c21.675-4.712,41.466-8.482,63.141-14.136c1.885-13.194-0.942-46.178-2.827-61.256
				l-12.251-100.837c-1.885-16.021-5.655-46.178-4.712-61.256c20.733,2.827,30.157,5.654,49.005,16.021
				c13.194-6.597,49.005-19.79,63.141-15.078c12.251-4.712,13.194-21.675,14.136-33.926L3724.368,445.756z"/>
			<path fill="#16212E" d="M3580.181,1354.23c135.706,32.042,294.029,61.256,434.447,46.178c8.481-0.942,33.927-5.655,41.466-8.481
				v6.597c2.827,21.675,0.942,50.89,3.77,74.45v1.885c-16.963-5.654-47.12-46.178-59.371-62.198
				c-46.177,9.424-104.606,7.539-151.727,6.597c0,12.251,0,22.618-0.942,35.811c0-8.481,0.942-17.905-3.77-24.502
				c0-4.712,0.942-4.712-0.942-9.424c-5.655-3.77-13.194-3.77-20.733-4.712l-2.827,0.942c-5.655-2.827-16.963-2.827-24.502-3.77
				c-48.062-6.597-94.24-16.963-142.302-20.733c-19.791,22.618-43.351,48.062-75.392,51.832
				C3576.411,1414.544,3577.354,1384.387,3580.181,1354.23z"/>
			<path fill="#1B3250" d="M4057.035,1398.523c2.827,21.675,0.943,50.89,3.77,74.45c-18.848-15.078-35.811-39.581-50.89-58.429
				c16.021,0,29.214,2.827,43.351-1.885C4057.978,1407.005,4056.093,1407.947,4057.035,1398.523z"/>
			<path fill="#FDDB13" d="M4163.527,831.198l2.827-4.712c4.712,11.309,10.367,28.272,16.021,37.696
				c-6.597,3.77-17.906,9.424-23.56,12.251c-26.387,10.366-49.005,13.194-77.277,15.078h-12.251
				c-1.885-10.366-2.827-21.675-4.712-32.984l-0.942-4.712c0-0.942,2.827-4.712,2.827-5.654c20.733-0.942,33.927-2.827,54.659-7.539
				C4129.601,839.679,4155.045,832.14,4163.527,831.198L4163.527,831.198z"/>
			<path fill="#FDBE0A" d="M4163.527,831.198c-8.481,9.424-61.256,19.79-76.334,20.733c-5.655,0-21.675,0.942-24.502,2.827
				c0-0.942,2.827-4.712,2.827-5.654c20.733-0.942,33.926-2.827,54.659-7.539C4129.601,839.679,4155.045,832.14,4163.527,831.198z"
				/>
			<path fill="#FDBE0A" d="M4062.69,860.412c8.481,10.366,10.366,20.733,16.963,32.042h-12.251
				C4065.517,882.087,4064.575,870.778,4062.69,860.412z"/>
			<path fill="#AC6330" d="M3724.368,445.756c3.77,4.712,8.481,8.482,13.194,12.251c51.832,46.178,91.413,27.33,131.936-18.848
				c0,11.309,0.942,23.56,1.885,34.869c-16.021,13.194-32.042,25.445-48.062,38.638c-40.523,20.733-84.816-9.424-99.895-47.12
				L3724.368,445.756z"/>
			<path fill="#F1964C" d="M3710.232,498.53c12.251-4.712,13.194-21.675,14.136-33.926c14.136,37.696,59.371,67.853,99.895,47.12
				c-0.943,13.194-1.885,24.502-4.712,37.696C3778.085,548.477,3730.965,540.938,3710.232,498.53z"/>
			<path fill="#F7AC4A" d="M3824.263,512.666c16.021-13.194,32.042-25.445,48.062-38.638c2.827,13.194,2.827,24.502,13.193,32.984
				c4.712,0.942,4.712,1.885,9.424,1.885c0,34.869-48.062,42.408-75.392,42.408C3821.435,537.169,3822.378,525.86,3824.263,512.666z
				"/>
			<path fill="#F1964C" d="M4047.612,893.396c-5.655-51.832-4.712-118.742,11.309-168.69c0.942,24.502-5.655,110.261,6.597,125.339
				c0,0.942-2.827,4.712-2.827,5.654l0.942,4.712c0.942,10.366,1.885,21.675,4.712,32.984
				C4059.863,892.454,4055.151,891.511,4047.612,893.396z"/>
			<path fill="#FDBE0A" d="M3775.258,877.375c4.712,4.712,23.56,29.214,28.272,35.811
				c65.026,81.046,118.742,170.574,159.266,266.699c-7.539-5.654-28.272-32.042-34.869-40.523
				C3861.016,1059.259,3813.896,974.443,3775.258,877.375z"/>
			<path fill="#F3D29E" d="M3421.857,276.124c6.597,3.77,12.251,8.482,19.79,7.539c5.655-2.827,7.539-3.77,13.194-7.539
				c19.791,22.618,32.042,4.712,36.754,36.754c18.848,0,77.277-2.827,91.413-1.885c2.827,4.712,1.885,11.309,0.942,16.963
				c5.655,42.408,12.251,125.339,13.194,169.632h1.885c-0.942,15.078,2.827,45.235,4.712,61.256l12.251,100.837
				c1.885,15.078,4.712,48.062,2.827,61.256c-21.675,5.654-41.466,9.424-63.141,14.136c-19.791,2.827-46.178,2.827-66.911,4.712
				c-78.219,6.597-157.381,7.539-235.6,7.539c-20.733-11.309-38.638-26.387-58.429-39.581
				c-0.942-115.915,7.539-230.888,26.387-344.919l4.712-27.33c18.848-1.885,120.627-12.251,131.936-16.963
				c3.77-16.963,5.655-22.618,24.502-21.675c17.906-20.733,21.675,0,38.638-20.733L3421.857,276.124z"/>
			<path fill="#AC6330" d="M3195.681,708.685c122.512,1.885,244.082-6.597,365.652-23.56c18.848,0,36.754,25.445,57.486,35.811
				c-21.675,5.654-41.466,9.424-63.141,14.136c-19.791,2.827-46.178,2.827-66.911,4.712c-78.219,6.597-157.381,7.539-235.6,7.539
				C3232.435,736.958,3214.529,721.879,3195.681,708.685L3195.681,708.685z"/>
			<path fill="#C07D41" d="M3571.699,493.818c0-6.597,0-13.194-0.942-19.79c5.655,7.539,16.021,24.502,26.387,22.618h1.885
				c-0.942,15.078,2.827,45.235,4.712,61.256l12.251,100.837c1.885,15.078,4.712,48.062,2.827,61.256
				c-20.733-11.309-39.581-35.811-57.486-35.811l5.654-0.942c6.597-6.597,3.77-27.33,3.77-38.638
				c-0.942-16.021-1.885-31.099-1.885-46.178l-0.942-10.366c-0.943-27.33-0.943-53.717,0-81.046
				C3568.872,500.415,3568.872,500.415,3571.699,493.818L3571.699,493.818z"/>
			<path fill="#864722" d="M3571.699,493.818c3.77,58.429,7.539,116.858,2.827,176.229l-3.77-24.502
				c-0.942-16.021-1.885-31.099-1.885-46.178l-0.942-10.366c-0.943-27.33-0.943-53.717,0-81.046
				C3568.872,500.415,3568.872,500.415,3571.699,493.818L3571.699,493.818z"/>
			<path fill="#F2AF6E" d="M3357.774,318.531c0.942,2.827,0.942,3.77,2.827,5.654c0.942,7.539,1.885,17.906,3.77,25.445
				c-36.754,3.77-74.45,5.654-111.203,11.309c-7.539,0.942-24.502,4.712-31.099,1.885l4.712-27.33
				C3245.628,334.552,3347.408,324.186,3357.774,318.531z"/>
			<path fill="#F2AF6E" d="M3490.653,312.877c18.848,0,77.277-2.827,91.413-1.885c2.827,4.712,1.885,11.309,0.942,16.963
				l-2.827,17.906c-42.408,0-85.759-3.77-128.167,0l7.539-8.482c6.597-8.482,3.77-13.194,7.539-22.618
				c5.655-3.77,5.655-2.827,13.194-2.827L3490.653,312.877z"/>
			<path fill="#F2AF6E" d="M3421.857,276.124c6.597,3.77,12.251,8.482,19.79,7.539c5.655-2.827,7.539-3.77,13.194-7.539
				c19.791,22.618,32.042,4.712,36.754,36.754l-10.366-0.942c-7.539,0-7.539-0.942-13.194,2.827
				c-2.827,9.424-0.942,14.136-7.539,22.618l-1.885-1.885c-5.654,1.885-6.597,0.942-12.251-0.942l-3.77,1.885
				c-3.77,6.597-2.827,5.654-9.424,9.424c-6.597,0-8.482,0-13.194-4.712c-1.885-9.424-0.942-33.926-4.712-39.581
				c-2.827-7.539-3.77-8.482-11.309-10.366c-12.251,2.827-9.424,8.482-21.675,7.539c17.906-20.733,21.675,0,38.639-20.733
				L3421.857,276.124z"/>
			<path fill="#F1964C" d="M3446.36,334.552c1.885-9.424,0.942-26.387,1.885-36.754c1.885,7.539,0.942,5.654,5.654,10.366
				c8.482,0.942,15.078,0,21.675,1.885l4.712,0.942c-7.539,0-7.539-0.942-13.194,2.827c-2.827,9.424-0.942,14.136-7.539,22.618
				l-1.885-1.885C3452.957,337.379,3452.014,336.437,3446.36,334.552z"/>
			<path fill="#AC6330" d="M3458.611,335.495c2.827-9.424-0.942-14.136,2.827-22.618c5.654-3.77,6.597-2.827,15.078-2.827
				l4.712,0.942c-7.539,0-7.539-0.942-13.194,2.827c-2.827,9.424-0.942,14.136-7.539,22.618L3458.611,335.495z"/>
			<path fill="#AC6330" d="M3442.59,337.379c0-7.539,0.942-36.754,4.712-41.466v2.827c0,9.424,0,27.33-1.885,36.754L3442.59,337.379
				z"/>
			<path fill="#F2AF6E" d="M3567.93,598.425c-19.791-21.675-297.799-4.712-344.919,3.77c-5.655,0.942-18.848,3.77-23.56,2.827
				c12.251-6.597,38.639-10.366,52.775-13.194c97.067-18.848,198.846-19.79,295.914-2.827c7.539,0.942,13.194,2.827,18.848-0.942
				L3567.93,598.425z"/>
			<path fill="#F7AC4A" d="M3382.276,297.799c12.251,1.885,9.424-4.712,21.675-7.539c7.539,1.885,8.482,3.77,11.309,10.366
				c3.77,5.654,2.827,30.157,4.712,39.581h-2.827c-3.77,11.309-9.424,12.251-20.733,8.482c-3.77-3.77-2.827-2.827-5.654-6.597
				l-2.827,6.597c-13.194,2.827-21.675-14.136-27.33-23.56c-1.885-1.885-1.885-3.77-2.827-5.654
				C3362.486,302.511,3363.428,295.914,3382.276,297.799L3382.276,297.799z"/>
			<path fill="#AC6330" d="M3415.26,300.626c3.77,5.654,2.827,30.157,4.712,39.581h-2.827
				C3414.318,330.783,3413.376,311.935,3415.26,300.626z"/>
			<path fill="#AC6330" d="M3387.931,348.688c0.942-14.136-1.885-23.56-0.942-37.696c2.827,10.366,4.712,21.675,3.77,32.042
				L3387.931,348.688z"/>
			<path fill="#AC6330" d="M3583.008,327.956c5.654,42.408,12.251,125.339,13.194,169.632
				c-10.366,1.885-19.791-15.078-26.387-22.618c0,6.597,0.942,13.194,0.942,19.79c-2.827,5.654-2.827,6.597-4.712,13.194
				c-0.942-45.235,8.482-115.915,14.136-162.093L3583.008,327.956z"/>
			<path fill="#864722" d="M3360.601,325.128c6.597,9.424,14.136,26.387,27.33,23.56l3.77-5.654c2.827,3.77,1.885,2.827,5.654,6.597
				c11.309,3.77,16.963,2.827,20.733-8.482h2.827c4.712,4.712,6.597,5.654,13.194,4.712c6.597-2.827,5.655-2.827,9.424-9.424
				l3.77-1.885c5.655,0.942,6.597,1.885,12.251,0.942l1.885,1.885l-7.539,8.482c-8.482,15.078-19.791,25.445-36.754,29.214
				c-12.251,2.827-24.502,0.942-34.869-5.654c-7.539-4.712-12.251-10.366-16.963-17.906
				C3362.486,343.034,3361.544,332.668,3360.601,325.128L3360.601,325.128z"/>
			<path fill="#F2AF6E" d="M3972.219,546.592c12.251-1.885,86.701,24.502,97.067,32.042c57.487,42.408,60.314,121.57,78.219,183.768
				c9.424,32.984,26.387,65.968,35.812,98.952c2.827,8.482-17.906,11.309-20.733,17.906c8.481,49.005,7.54,96.125,26.387,142.303
				c4.712,11.309,7.54,43.35,7.54,55.602c4.712,100.837,4.712,201.674,1.885,301.568c-0.943,28.272,13.193,65.026,10.366,93.298
				c-2.827,27.33-19.791,59.371-45.235,72.565c-11.309,5.654-43.351,27.329-51.832,10.366c0-7.539,0.942-16.021,7.54-21.675
				c-0.943-6.597,0-3.77-3.77-9.424c-15.079-6.597-7.54-34.869-7.54-50.89c-0.942-32.042-2.827-59.371,17.906-86.701
				c5.654-7.539,7.539-18.848,8.481-27.329c-3.77-64.083-23.56-127.224-36.753-189.423c-9.424-47.12-1.885-94.24-20.733-140.418
				c-6.597-16.021-20.733-53.717-17.906-69.738c-0.943-5.654-0.943-7.539-5.655-9.424c-0.942-18.848-2.827-38.638-3.77-58.429
				c7.539-1.885,12.251-0.942,19.791-0.942h12.251c28.272-1.885,51.832-4.712,77.277-15.078c5.655-3.77,16.963-9.424,23.56-12.251
				c-4.712-9.424-10.366-26.387-16.021-37.696c-1.885-12.251-18.848-52.774-23.56-68.795
				c-12.251-47.12-14.136-80.104-34.869-124.397C4079.653,569.21,4031.591,569.21,3972.219,546.592L3972.219,546.592z"/>
			<path fill="#04D6FC" d="M3972.219,546.592c12.251-1.885,86.701,24.502,97.067,32.042c57.487,42.408,60.314,121.57,78.219,183.768
				c9.424,32.984,26.387,65.968,35.812,98.952c2.827,8.482-17.906,11.309-20.733,17.906c8.481,49.005,7.54,96.125,26.387,142.303
				c4.712,11.309,7.54,43.35,7.54,55.602c4.712,100.837,4.712,201.674,1.885,301.568c-0.943,28.272,13.193,65.026,10.366,93.298
				c-2.827,27.33-19.791,59.371-45.235,72.565c-11.309,5.654-43.351,27.329-51.832,10.366c0-7.539,0.942-16.021,7.54-21.675
				c-0.943-6.597,0-3.77-3.77-9.424c-15.079-6.597-7.54-34.869-7.54-50.89c-0.942-32.042-2.827-59.371,17.906-86.701
				c5.654-7.539,7.539-18.848,8.481-27.329c-3.77-64.083-23.56-127.224-36.753-189.423c-9.424-47.12-1.885-94.24-20.733-140.418
				c-6.597-16.021-20.733-53.717-17.906-69.738c2.827,12.251,7.539,32.984,12.251,43.35
				c24.502,52.775,18.848,102.722,28.272,158.323c11.309,66.91,36.753,135.706,37.696,204.501c0,16.963-16.963,31.099-20.733,44.293
				c-8.481,28.272-4.712,65.026-5.655,94.24c11.309,3.77,18.848-8.481,26.388-0.942c0.942-11.309,0-39.581,7.539-46.178
				c9.424,16.021,8.481,51.832,1.885,67.853c-7.539,13.194-16.021,21.675-19.791,35.811c16.021-7.539,24.502-12.251,39.581-21.675
				l9.424-6.597c22.618-14.136,26.387-36.754,32.984-60.314c3.77-10.366-10.366-70.68-10.366-86.701
				c0.942-111.203,4.712-223.349-4.712-334.552c-2.827-30.157-16.963-54.659-20.732-81.989c-4.712-32.042-3.77-61.256-12.251-93.298
				c5.654-3.77,16.963-9.424,23.56-12.251c-4.712-9.424-10.367-26.387-16.021-37.696c-1.885-12.251-18.848-52.774-23.56-68.795
				c-12.251-47.12-14.136-80.104-34.869-124.397C4079.653,569.21,4031.591,569.21,3972.219,546.592L3972.219,546.592z"/>
			<path fill="#F7AC4A" d="M4108.868,1505.957c11.309,3.77,18.848-8.481,26.387-0.942c-2.827,11.309-9.424,25.445-23.56,16.021
				C4107.925,1515.381,4107.925,1512.553,4108.868,1505.957z"/>
			<path fill="#E48338" d="M4143.736,1527.632c-7.539,13.193-16.021,21.675-19.791,35.811c-6.597-6.597-8.481-9.424-6.597-18.848
				C4123.946,1536.113,4133.37,1532.344,4143.736,1527.632z"/>
			<path fill="#F7AC4A" d="M4181.433,1479.569c8.481-1.885,16.021-2.827,24.502-5.655c-6.597,24.502-10.367,46.178-32.984,60.314
				C4173.893,1526.689,4182.375,1483.339,4181.433,1479.569z"/>
			<path fill="#E48338" d="M4181.433,1479.569c0.942,2.827-7.54,47.12-9.424,55.602l-9.424,6.597
				C4174.835,1515.381,4170.124,1498.417,4181.433,1479.569z"/>
			<path fill="#F2AF6E" d="M3686.672,283.663c-4.712-20.733,7.539-65.968,15.078-86.701c6.597-16.963,19.79-28.272,36.754-34.869
				c43.35-16.963,68.795-18.848,112.146,0c24.502,10.366,32.042,20.733,41.466,43.35c9.424,30.157,12.251,45.235,11.309,77.277
				c0,7.539,0,19.79-0.943,27.33c-6.597,6.597-10.366,10.366-14.136,19.79l-4.712-3.77c0,12.251,0,18.848-0.943,31.099
				c2.827,3.77,3.77,5.654,4.712,10.366c0,5.654,0,12.251,0.942,17.906c-1.885,20.733-4.712,38.638-17.906,55.602
				c-40.523,46.178-80.104,65.026-131.936,18.848c-4.712-3.77-8.481-8.482-13.194-12.251c-16.021-20.733-19.79-34.869-20.733-60.314
				l-9.424-8.482c-10.366-11.309-14.136-28.272-16.963-42.408c3.77-11.309,4.712-13.194,11.309-24.502L3686.672,283.663z"/>
			<path fill="#FDDB13" d="M3686.672,283.663c-4.712-20.733,7.539-65.968,15.078-86.701c6.597-16.963,19.79-28.272,36.754-34.869
				c43.35-16.963,68.795-18.848,112.146,0c24.502,10.366,32.042,20.733,41.466,43.35c9.424,30.157,12.251,45.235,11.309,77.277
				c-6.597-3.77-6.597-3.77-11.309-9.424c-4.712-4.712-14.136-15.078-18.848-19.79c-63.141-35.811-89.528-43.35-154.554-2.827
				C3708.347,261.045,3697.981,276.124,3686.672,283.663z"/>
			<path fill="#AC6330" d="M3718.714,249.736c9.424-17.906,25.445-31.099,45.235-37.696c24.502-7.539,50.889-6.597,73.507,5.654
				c12.251,6.597,30.157,22.618,35.811,34.869C3810.126,216.752,3783.739,209.213,3718.714,249.736z"/>
			<path fill="#FDEF38" d="M3891.173,205.443c9.424,30.157,12.251,45.235,11.309,77.277c-6.597-3.77-6.597-3.77-11.309-9.424
				c-0.942-16.021-10.366-37.696-2.827-55.602C3891.173,212.983,3891.173,209.213,3891.173,205.443z"/>
			
				<linearGradient id="SVGID_00000161608728835815368460000014144373081064737951_" gradientUnits="userSpaceOnUse" x1="3828.072" y1="1249.9717" x2="3774.0347" y2="1104.1727" gradientTransform="matrix(1 0 0 1 0 -778)">
				<stop  offset="0" style="stop-color:#131011"/>
				<stop  offset="1" style="stop-color:#2C1C1A"/>
			</linearGradient>
			<path fill="url(#SVGID_00000161608728835815368460000014144373081064737951_)" d="M3688.557,310.992
				c3.77,6.597,13.194,25.445,17.906,28.272v5.655c0,31.099,8.482,53.717,34.869,70.68c4.712-30.157,3.77-35.811,37.696-38.638
				c7.539,0,10.366-0.942,17.906-1.885c5.655-2.827,4.712-2.827,11.309-1.885c8.481,3.77,19.79,4.712,28.272,8.482
				c13.194,5.654,8.481,19.79,18.848,26.387c20.733-3.77,26.387-33.926,29.214-50.89c2.827,3.77,3.77,5.654,4.712,10.366
				c0,5.654,0,12.251,0.943,17.906c-1.885,20.733-4.712,38.638-17.906,55.602c-40.523,46.178-80.104,65.026-131.936,18.848
				c-4.712-3.77-8.482-8.482-13.194-12.251c-16.021-20.733-19.791-34.869-20.733-60.314l-9.424-8.482
				c-10.366-11.309-14.136-28.272-16.963-42.408C3681.018,323.243,3681.96,321.359,3688.557,310.992L3688.557,310.992z"/>
			<path fill="#F1964C" d="M3688.557,310.992c3.77,6.597,13.194,25.445,17.906,28.272v5.655h-4.712
				c0,14.136,1.885,28.272,2.827,42.408l-9.424-8.482c-10.366-11.309-14.136-28.272-16.963-42.408
				C3681.018,323.243,3681.96,321.359,3688.557,310.992L3688.557,310.992z"/>
			<path fill="#C07D41" d="M3694.211,376.96c0.942-13.194-10.366-23.56-5.654-33.926c5.654-2.827,4.712-0.942,12.251,0
				c0,14.136,1.885,28.272,2.827,42.408L3694.211,376.96z"/>
			<path fill="#F2AF6E" d="M3760.179,390.154c13.194-4.712,54.659-3.77,65.968,0l4.712,2.827h3.77
				c10.366,10.366,0.942,34.869-5.655,46.178c0.943,25.445-48.062,24.502-62.198,13.194c-4.712-3.77-3.77-9.424-4.712-15.078
				c-13.194-15.078-16.963-25.445-9.424-44.293C3757.352,392.039,3756.41,392.039,3760.179,390.154z"/>
			<path fill="#401815" d="M3775.258,414.656h2.827c16.021,1.885,17.906,0.942,32.984-0.942c-0.943,7.539-6.597,4.712-1.885,11.309
				c3.77,5.654,14.136,11.309,20.733,13.194c0.943,25.445-48.062,24.502-62.198,13.194c-4.712-3.77-3.77-9.424-4.712-15.078
				c7.539,0.942,8.482,1.885,15.078,0c4.712-4.712,3.77-1.885,4.712-8.482C3780.912,421.253,3779.97,420.311,3775.258,414.656
				L3775.258,414.656z"/>
			<path fill="#F3D29E" d="M3760.179,390.154c13.194-4.712,54.659-3.77,65.968,0c-3.77,3.77-3.77,5.654-8.481,6.597
				c-15.078,5.654-24.502,7.539-40.523,3.77C3767.719,398.636,3765.834,397.693,3760.179,390.154z"/>
			<path fill="#864722" d="M3753.583,392.981c3.77-0.942,2.827,0,6.597-2.827c5.655,8.482,7.539,9.424,16.963,11.309
				c16.021,3.77,25.445,0.942,40.523-3.77c4.712-1.885,5.655-2.827,8.481-6.597l4.712,2.827
				C3807.299,412.772,3778.085,410.887,3753.583,392.981z"/>
			<path fill="#161C20" d="M3718.714,249.736c65.026-40.523,91.413-32.984,154.554,2.827c4.712,5.654,14.136,16.021,18.848,19.79
				c3.77,5.654,4.712,5.654,11.309,9.424c0,7.539,0,19.79-0.943,27.33c-6.597,6.597-10.366,10.366-14.136,19.79l-4.712-3.77
				l-1.885-0.942c0-20.733-3.769-31.099-10.366-50.89c-25.445-48.062-109.319-46.178-147.015-12.251
				c-16.021,14.136-16.021,28.272-16.963,48.062c-0.942,8.482-1.885,20.733-1.885,29.215c-3.77-2.827-13.194-21.675-17.906-28.272
				l-0.942-27.33C3697.981,276.124,3708.347,261.045,3718.714,249.736L3718.714,249.736z"/>
			
				<linearGradient id="SVGID_00000115507237387264845770000017678369517323516840_" gradientUnits="userSpaceOnUse" x1="3802.2847" y1="1015.3887" x2="3790.9128" y2="1067.6703" gradientTransform="matrix(1 0 0 1 0 -778)">
				<stop  offset="0" style="stop-color:#A74429"/>
				<stop  offset="1" style="stop-color:#CE6B3B"/>
			</linearGradient>
			<path fill="url(#SVGID_00000115507237387264845770000017678369517323516840_)" d="M3724.368,261.045
				c37.696-33.927,121.57-35.811,147.014,12.251c-14.136,1.885-17.906,1.885-31.099-2.827c-3.769-0.942-6.597-1.885-10.366-2.827
				c-28.272-9.424-57.487-9.424-84.816,3.77c-9.424,3.77-12.251,6.597-21.675,0.942l-3.77,2.827l-1.885-2.827
				c1.885-3.77,2.827-4.712,6.597-7.539L3724.368,261.045z"/>
			<path fill="#F1964C" d="M3840.283,270.469c13.194,4.712,16.963,4.712,31.099,2.827c6.597,18.848,10.366,29.214,10.366,50.89
				c-4.712-1.885-18.848-2.827-24.502-3.77l-1.885,0.942c-4.712-2.827-7.539-3.77-12.251-6.597c0-0.942,0-3.77,0.942-4.712
				c-6.597,0-14.136,0-20.733,0.942c-1.885-4.712-1.885-6.597-4.712-11.309c-4.712-2.827-2.827-0.942-4.712-5.654
				c4.712-7.539,14.136-8.482,23.56-10.366C3839.341,278.008,3839.341,276.124,3840.283,270.469z"/>
			<path fill="#161C20" d="M3836.514,282.72c15.078,0.942,21.675-0.942,30.157,12.251c-8.482,4.712-33.927-3.77-49.005,2.827
				c-4.712-2.827-2.827-0.942-4.712-5.654C3817.666,285.547,3827.09,284.605,3836.514,282.72z"/>
			<path fill="#401815" d="M3843.111,308.165c6.597,2.827,10.366,3.77,14.136,11.309l-1.885,0.942
				c-4.712-2.827-7.539-3.77-12.251-6.597C3843.111,312.877,3843.111,310.05,3843.111,308.165z"/>
			
				<linearGradient id="SVGID_00000065769479377031616310000001031302718756944263_" gradientUnits="userSpaceOnUse" x1="3733.4087" y1="1057.2662" x2="3723.5002" y2="1080.2137" gradientTransform="matrix(1 0 0 1 0 -778)">
				<stop  offset="0" style="stop-color:#DA8156"/>
				<stop  offset="1" style="stop-color:#F29D65"/>
			</linearGradient>
			<path fill="url(#SVGID_00000065769479377031616310000001031302718756944263_)" d="M3724.368,261.045l0.942,2.827
				c-2.827,3.77-3.77,3.77-6.597,7.539l1.885,2.827l3.77-2.827c9.424,5.654,11.309,2.827,21.675-0.942
				c0.942,8.482-0.942,9.424,7.539,13.194c-13.194,0-33.927,0.942-35.811,17.906c-5.654,2.827-5.654,1.885-10.366,7.539
				C3708.347,289.317,3708.347,275.181,3724.368,261.045L3724.368,261.045z"/>
			<path fill="#161C20" d="M3753.583,284.605c7.539,0.942,13.194,0.942,19.79,4.712c2.827,5.654,1.885,1.885,2.827,9.424
				l-1.885,1.885c-23.56-4.712-32.984-4.712-56.544,2.827C3720.598,285.547,3740.389,284.605,3753.583,284.605L3753.583,284.605z"/>
			<path fill="#E48338" d="M3776.2,297.799c14.136,24.502,9.424,43.35-4.712,65.968c5.655-19.79,11.309-43.35,2.827-64.083
				L3776.2,297.799z"/>
			<path fill="#401815" d="M3775.258,370.364v-2.827c3.77-1.885,35.811-0.942,38.638,0c-1.885,3.77-0.942,1.885-7.539,4.712
				c-6.597-0.942-5.655-0.942-11.309,1.885c-7.539,1.885-10.366,1.885-17.906,1.885L3775.258,370.364z"/>
			<path fill="#AC6330" d="M3775.258,370.364c7.539,0.942,13.194,1.885,19.79,2.827c-7.539,1.885-10.366,1.885-17.906,1.885
				L3775.258,370.364z"/>
			<path fill="#161C20" d="M3822.378,309.107c6.597-0.942,14.136-0.942,20.733-0.942c0,0.942-0.942,3.77-0.942,4.712
				c-0.943,7.539-0.943,7.539-8.482,10.366c-5.655-2.827-4.712-2.827-8.481-10.366c-2.827,0-4.712,0-7.539,1.885L3822.378,309.107z"
				/>
			<path fill="#161C20" d="M3741.331,309.107c7.539-0.942,24.502,0.942,27.33,8.482c-5.654-0.942-7.539-2.827-12.251-4.712
				c-0.942,7.539-0.942,8.482-7.539,11.309c-5.654-2.827-3.77-1.885-8.481-7.539c-3.77-0.942-4.712,0-8.482,0L3741.331,309.107z"/>
			<path fill="#F1964C" d="M3901.539,309.107c23.56,17.906,8.482,60.314-14.136,74.45c-0.942-5.654-0.942-12.251-0.942-17.906
				c-0.942-4.712-2.827-6.597-4.712-10.366c0.943-12.251,1.885-18.848,0.943-31.099l4.712,3.77
				C3892.115,319.474,3894.943,315.704,3901.539,309.107z"/>
			<path fill="#401815" d="M3883.634,325.128l4.712,3.77l-0.942,37.696c-0.942-4.712-2.827-6.597-4.712-10.366
				C3883.634,343.034,3883.634,337.379,3883.634,325.128z"/>
			<path fill="#E48338" d="M3893.058,338.322l1.885,1.885c1.885,4.712,0.942,8.482,0,14.136
				C3889.288,346.803,3891.173,345.861,3893.058,338.322z"/>
			<path fill="#0071CC" d="M5355.664,2837.569v0.942c3.77,0,7.539-0.942,12.251-0.942l0.942,2.827l-1.885,0.943
				c-3.77,2.827-14.136,3.77-17.906,0C5351.895,2837.569,5350.952,2839.454,5355.664,2837.569z"/>
		</g>
	</g>
</g>
</svg>
