<?xml version="1.0" encoding="utf-8"?>
<!-- Generator: Adobe Illustrator 27.9.0, SVG Export Plug-In . SVG Version: 6.00 Build 0)  -->
<svg version="1.1" id="svg" xmlns="http://www.w3.org/2000/svg" xmlns:xlink="http://www.w3.org/1999/xlink" x="0px" y="0px"
	 viewBox="0 0 4500 3000" enable-background="new 0 0 4500 3000" xml:space="preserve">
<g>
	<g>
		<defs>
			<rect id="SVGID_1_" width="4500" height="3000"/>
		</defs>
		<clipPath id="SVGID_00000034799902482354661600000006824459715176307846_">
			<use xlink:href="#SVGID_1_"  overflow="visible"/>
		</clipPath>
		<g clip-path="url(#SVGID_00000034799902482354661600000006824459715176307846_)">
			<path fill="#92B665" d="M0,0h4500v3000H0V0z"/>
			<path fill="#222222" d="M2653.5,2149.5V1026V711c0-36-3-132,1.5-162c4.5-33,19.5-64.5,43.5-88.5c40.5-40.5,96-45,150-54l154.5-27
				l321-58.5c45-7.5,90-16.5,135-24c24-4.5,54-7.5,78-4.5c159,19.5,135,144,133.5,262.5v279v1032v327c0,34.5-3,117,0,147
				c-1.5,22.5-3,31.5-10.5,51c-33,66-94.5,69-159,72c-37.5-3-102-15-141-22.5l-234-39l-234-39c-63-10.5-147-13.5-193.5-61.5
				C2656.5,2257.5,2653.5,2209.5,2653.5,2149.5L2653.5,2149.5z"/>
			<path fill="#FEFEFE" d="M2700,636c0-48-6-97.5,28.5-135c28.5-30,60-34.5,99-42c7.5-1.5,22.5-4.5,30-6c24-3,16.5,57,37.5,72
				c7.5,6,12,9,24,7.5c25.5-1.5,52.5-7.5,79.5-12l136.5-24l127.5-22.5c28.5-4.5,61.5-6,85.5-24c31.5-22.5,15-63,34.5-88.5
				c6-7.5,33-9,42-10.5c37.5-6,81-21,111,12c31.5,33,27,82.5,27,124.5V1740v385.5V2238c0,46.5,6,97.5-30,133.5
				c-31.5,31.5-63,39-106.5,33c-34.5-4.5-69-10.5-105-16.5l-241.5-40.5l-180-28.5c-55.5-9-123-12-163.5-52.5c-27-27-37.5-63-37.5-99
				c0-45,0-88.5,0-132V1719V636H2700z"/>
			<path fill="#FEFEFE" d="M2700,636c0-48-6-97.5,28.5-135c28.5-30,60-34.5,99-42c7.5-1.5,22.5-4.5,30-6c24-3,16.5,57,37.5,72
				c7.5,6,12,9,24,7.5c25.5-1.5,52.5-7.5,79.5-12l136.5-24l127.5-22.5c28.5-4.5,61.5-6,85.5-24c31.5-22.5,15-63,34.5-88.5
				c6-7.5,33-9,42-10.5c37.5-6,81-21,111,12c31.5,33,27,82.5,27,124.5L2700,636z"/>
			<path fill="#293644" d="M3181.5,429c4.5,0,7.5,1.5,10.5,4.5l-3,6c-15,10.5-100.5,22.5-123,25.5c-4.5,1.5-4.5,0-9,0
				c-4.5-6-3-3-1.5-10.5C3063,447,3163.5,432,3181.5,429z"/>
			<path fill="#4F4337" d="M3609,2307c6,15,3,34.5,0,51h-1.5C3604.5,2352,3607.5,2316,3609,2307z"/>
			<path fill="#EEAB6B" d="M1326,1524c66,9,160.5,9,225,4.5c34.5-3,69-7.5,103.5-15c43.5-9,175.5-51,204-6
				c31.5,48,4.5,139.5-4.5,192c-7.5,54,1.5,103.5,15,156c66-3,145.5-13.5,210-13.5c70.5,3,78,45,66,105c-13.5,63-28.5,129-48,190.5
				l120,1.5c15-51,30-103.5,43.5-156c-21-1.5-70.5-7.5-84-19.5c-3-9-3-21-3-31.5c9-42,322.5-40.5,355.5-6l1.5,6c0,10.5,0,21,0,31.5
				c-28.5,13.5-51,16.5-82.5,19.5c13.5,49.5,30,111,46.5,160.5c42-1.5,115.5,0,157.5,3c0,60,1.5,108,46.5,154.5
				c46.5,46.5,130.5,51,193.5,61.5l234,39l234,39c39,6,103.5,19.5,141,22.5c66-3,126-7.5,159-72c9-19.5,10.5-30,10.5-51
				c3-13.5,1.5-87,1.5-106.5c39,10.5,82.5,19.5,120,34.5c49.5,19.5,120,43.5,120,106.5c3,33,6,70.5-22.5,93
				c-34.5,28.5-84,51-127.5,64.5c-279,85.5-591,117-880.5,136.5c-394.5,25.5-790.5,28.5-1185,6c-213-13.5-951-70.5-1080-219
				c-19.5-22.5-13.5-57-12-84c-7.5-126,379.5-169.5,477-187.5c10.5-1.5,22.5-3,33-3c0,25.5,3,34.5-6,58.5c-33,6-61.5,12-94.5,22.5
				c-7.5,4.5-16.5,7.5-18,16.5c45,25.5,217.5,24,264-1.5c-7.5-15-40.5-22.5-55.5-25.5c-61.5-18-69,6-66-73.5
				c84-10.5,165-15,247.5-24c-45-79.5-76.5-196.5-102-285c-25.5-85.5-45-168-66-255c-13.5-58.5-10.5-103.5,58.5-118.5
				C1308,1489.5,1323,1495.5,1326,1524L1326,1524z"/>
			<path fill="#A24F18" d="M1326,1524c66,9,160.5,9,225,4.5c34.5-3,69-7.5,103.5-15c43.5-9,175.5-51,204-6
				c31.5,48,4.5,139.5-4.5,192c-7.5,54,1.5,103.5,15,156c66-3,145.5-13.5,210-13.5c70.5,3,78,45,66,105c-13.5,63-28.5,129-48,190.5
				c-13.5,22.5-19.5,24-45,28.5l-1.5,1.5c-12-1.5-40.5,3-52.5,4.5c-55.5,6-151.5,12-202.5,19.5l-39,3c-31.5,1.5-64.5,6-96,9
				l-19.5,1.5c-10.5,1.5-21,1.5-30,3l-1.5-1.5c-16.5,0-37.5-4.5-54-6c-25.5-3-52.5-7.5-78-12c-9-3-40.5-7.5-51-9c-19.5-9-21,0-39-27
				c-45-79.5-76.5-196.5-102-285c-25.5-85.5-45-168-66-255C1206,1554,1209,1509,1278,1494C1308,1489.5,1323,1495.5,1326,1524
				L1326,1524z"/>
			<path fill="#A24F18" d="M1326,1524c66,9,160.5,9,225,4.5c34.5-3,69-7.5,103.5-15c43.5-9,175.5-51,204-6
				c31.5,48,4.5,139.5-4.5,192c-7.5,54,1.5,103.5,15,156c-93,1.5-90,1.5-90,96c10.5,0,28.5,0,39,1.5c-63,3-111-4.5-181.5,4.5
				c0-1.5,0-3,0-4.5c-12-93-63-91.5-142.5-81c-36,4.5-70.5,10.5-106.5,16.5c-1.5-6-1.5-13.5-3-19.5
				C1363.5,1756.5,1341,1639.5,1326,1524z"/>
			<path fill="#7D3807" d="M1389,2152.5c-45-79.5-76.5-196.5-102-285c-25.5-85.5-45-168-66-255c-13.5-58.5-10.5-103.5,58.5-118.5
				c28.5-6,43.5,1.5,48,30c15,115.5,37.5,232.5,58.5,346.5c1.5,6,3,13.5,3,19.5l6,24c27-4.5,52.5-9,79.5-12c22.5-3,43.5-7.5,66-7.5
				c7.5,0,16.5,3,24,7.5c16.5,12,18,43.5,19.5,64.5c4.5,49.5,6,99,12,150c4.5,31.5,12,61.5,16.5,93c-16.5,0-37.5-4.5-54-6
				c-25.5-3-52.5-7.5-78-12c-9-3-40.5-7.5-51-9C1408.5,2170.5,1407,2181,1389,2152.5L1389,2152.5z"/>
			<path fill="#7D3807" d="M1872,1857c66-3,145.5-13.5,210-13.5c70.5,3,78,45,66,105c-13.5,63-28.5,129-48,190.5
				c-13.5,22.5-19.5,24-45,28.5c-7.5-19.5,1.5-150-3-177l-4.5-1.5c-72-19.5-153-30-228-33c-10.5-1.5-27-1.5-39-1.5
				C1783.5,1858.5,1780.5,1858.5,1872,1857L1872,1857z"/>
			<path fill="#A24F18" d="M2082,1843.5c70.5,3,78,45,66,105c-13.5,63-28.5,129-48,190.5c-13.5,22.5-19.5,24-45,28.5
				C2062.5,2151,2083.5,1872,2082,1843.5L2082,1843.5z"/>
			<path fill="#CD8445" d="M1389,1890c36-4.5,70.5-10.5,106.5-16.5c79.5-12,132-12,142.5,81c0,1.5,0,3,0,4.5
				c70.5-9,118.5-1.5,181.5-4.5c73.5,3,156,12,228,33c-10.5,4.5-375,33-405,34.5c0,48,3,139.5,1.5,183c-10.5,1.5-21,1.5-30,3
				l-1.5-1.5c-4.5-31.5-12-61.5-16.5-93c-6-49.5-7.5-99-12-150c-1.5-19.5-3-51-19.5-64.5c-6-4.5-15-7.5-24-7.5
				c-22.5,0-43.5,4.5-66,7.5c-27,4.5-52.5,9-79.5,12L1389,1890z"/>
			<path fill="#A24F18" d="M3913.5,2374.5c3,33,6,70.5-22.5,93c-34.5,28.5-84,51-127.5,64.5c-279,85.5-591,117-880.5,136.5
				c-394.5,25.5-790.5,28.5-1185,6c-213-13.5-951-70.5-1080-219c-19.5-22.5-13.5-57-12-84c51,115.5,459,177,580.5,193.5
				c694.5,88.5,1410,85.5,2104.5,4.5c175.5-21,361.5-54,525-118.5C3855,2434.5,3894,2410.5,3913.5,2374.5z"/>
			<path fill="#CD8445" d="M1389,2152.5c18,28.5,19.5,19.5,39,27c9,1.5,42,6,51,9c25.5,4.5,52.5,7.5,78,12c16.5,3,37.5,6,54,6
				l1.5,1.5c10.5-1.5,21-1.5,30-3l19.5-1.5c31.5-1.5,64.5-7.5,96-9l39-3c51-9,147-15,202.5-19.5c13.5-1.5,40.5-6,52.5-4.5
				c1.5,19.5,6,40.5,9,60c21,3,111,10.5,111,31.5c-7.5,12-30,19.5-42,22.5c-61.5,12-123,22.5-184.5,31.5c-123,18-264,43.5-388.5,36
				c-52.5-3-105-7.5-157.5-16.5c-13.5-1.5-94.5-15-105-13.5c-51,13.5-378,28.5-393-28.5c9-22.5,88.5-31.5,111-31.5
				c-7.5,4.5-16.5,7.5-18,16.5c45,25.5,217.5,24,264-1.5c-7.5-15-40.5-22.5-55.5-25.5c-61.5-18-69,6-66-73.5
				C1225.5,2166,1306.5,2161.5,1389,2152.5L1389,2152.5z"/>
			<path fill="#EEAB6B" d="M1389,2152.5c18,28.5,19.5,19.5,39,27v37.5c-76.5,7.5-145.5,15-220.5,31.5c-61.5-18-69,6-66-73.5
				C1225.5,2166,1306.5,2161.5,1389,2152.5z"/>
			<path fill="#222222" d="M1263,2275.5c0,10.5,0,19.5,0,30c-45,22.5-231,31.5-261-1.5c-1.5-10.5-1.5-16.5-1.5-27
				C1044,2302.5,1216.5,2301,1263,2275.5L1263,2275.5z"/>
			<path fill="#EEAB6B" d="M1798.5,2191.5c51-9,147-15,202.5-19.5c4.5,15,10.5,31.5,15,46.5c-6,3-186-15-216-16.5L1798.5,2191.5z"/>
			<path fill="#222222" d="M1644,2206.5l19.5-1.5c-1.5,19.5-4.5,115.5-10.5,126c-10.5,4.5-19.5,3-28.5,0c-7.5-9-10.5-105-10.5-121.5
				C1623,2208,1633.5,2206.5,1644,2206.5z"/>
			<path fill="#222222" d="M2001,2172c13.5-1.5,40.5-6,52.5-4.5c1.5,19.5,6,40.5,9,60c1.5,15,10.5,37.5,0,49.5c-7.5,3-21,1.5-30,0
				c-6-19.5-12-39-18-58.5C2011.5,2203.5,2005.5,2187,2001,2172L2001,2172z"/>
			<path fill="#222222" d="M1428,2179.5c9,1.5,42,6,51,9l-6,22.5c-6,27-4.5,69-36,69c-16.5-9-9-43.5-9-61.5V2179.5z"/>
			<path fill="#222222" d="M1759.5,2196l39-3l1.5,9c-3,16.5,1.5,69-31.5,51C1758,2241,1761,2212.5,1759.5,2196z"/>
			<path fill="#EEAB6B" d="M1479,2188.5c25.5,4.5,52.5,7.5,78,12c-19.5,9-61.5,9-84,10.5L1479,2188.5z"/>
			<path fill="#7D3807" d="M2178,1935c9-42,322.5-40.5,355.5-6l1.5,6c0,10.5,0,21,0,31.5c-28.5,13.5-51,16.5-82.5,19.5
				c13.5,49.5,30,111,46.5,160.5c4.5,19.5,10.5,39,16.5,58.5c57,22.5,37.5,49.5-9,63c-97.5,27-228,28.5-322.5-15c-6-3-9-4.5-12-10.5
				c-4.5-19.5,16.5-28.5,31.5-34.5c6-22.5,13.5-45,19.5-67.5c15-51,30-103.5,43.5-156c-21-1.5-70.5-7.5-84-19.5
				C2176.5,1957.5,2178,1944,2178,1935L2178,1935z"/>
			<path fill="#CD8445" d="M2256,2140.5c27,0,57,0,84,1.5v42c0,19.5-10.5,114,31.5,81c6-12,3-100.5,3-123h1.5
				c25.5,0,57,1.5,82.5,1.5l16.5,49.5c3,12,10.5,37.5,18,45c7.5,3,9,3,18,3c13.5-7.5,4.5-24,1.5-37.5c57,22.5,37.5,49.5-9,63
				c-97.5,27-228,28.5-322.5-15c-6-3-9-4.5-12-10.5c-4.5-19.5,16.5-28.5,31.5-34.5c-4.5,13.5-10.5,27,1.5,37.5
				c22.5,1.5,30-33,34.5-49.5L2256,2140.5z"/>
			<path fill="#EEAB6B" d="M2256,2140.5c27,0,57,0,84,1.5v42c-30,1.5-73.5,4.5-103.5,12L2256,2140.5z"/>
			<path fill="#EEAB6B" d="M2377.5,2143.5c25.5,0,57,1.5,82.5,1.5l16.5,49.5c-36-3-55.5-9-99-9V2143.5z"/>
			<path fill="#EEAB6B" d="M2178,1935c9-42,322.5-40.5,355.5-6l1.5,6C2469,1966.5,2241,1968,2178,1935z"/>
			<path fill="#92B665" d="M2308.5,1989h31.5v153c-27-1.5-57-1.5-84-1.5C2272.5,2091,2293.5,2038.5,2308.5,1989z"/>
			<path fill="#92B665" d="M2376,1990.5h30c15,51,34.5,105,52.5,154.5c-25.5,0-55.5-1.5-82.5-1.5h-1.5
				C2376,2091,2376,2040,2376,1990.5z"/>
			<path fill="#CD8445" d="M3661.5,2391c84,27,85.5,51-4.5,73.5c-27,6-136.5,12-156,0C3567,2461.5,3628.5,2457,3661.5,2391z"/>
			<path fill="#96C6E6" d="M1032,1072.5c40.5-3,211.5-7.5,237,9l1.5,7.5l-1.5,4.5c10.5,84,27,163.5,67.5,238.5
				c4.5,7.5,12,22.5,19.5,27c9,7.5,34.5,43.5,37.5,57c-10.5,12-220.5,13.5-252,13.5H1116c-37.5,0-238.5-1.5-262.5-12
				c-4.5-10.5,30-55.5,37.5-60c7.5-7.5,19.5-27,24-36c37.5-75,52.5-147,61.5-228l-1.5-4.5l1.5-6C988.5,1074,1017,1074,1032,1072.5
				L1032,1072.5z"/>
			<path fill="#3385C1" d="M892.5,1359c30,4.5,79.5,6,111,6c112.5,4.5,241.5,1.5,354-4.5c9,7.5,34.5,43.5,37.5,57
				c-10.5,12-220.5,13.5-252,13.5h-25.5c-37.5,0-238.5-1.5-262.5-12C850.5,1408.5,883.5,1363.5,892.5,1359L892.5,1359z"/>
			<path fill="#7FB1D7" d="M978,1093.5c19.5,3,36,4.5,55.5,6c-4.5,64.5-9,115.5-21,180c-3,15-21,73.5-21,82.5c1.5,0,12,3,12,3
				c-31.5,0-81-1.5-111-6c7.5-7.5,19.5-27,24-36C952.5,1248,969,1176,978,1093.5z"/>
			<path fill="#96C6E6" d="M1032,1072.5c40.5-3,211.5-7.5,237,9l1.5,7.5l-1.5,4.5c-60,9-174,6-237,6c-19.5-1.5-36-3-55.5-6l-1.5-4.5
				l1.5-6C988.5,1074,1017,1074,1032,1072.5z"/>
			<path fill="#3385C1" d="M976.5,1089l1.5-6c10.5-9,39-9,54-10.5c0,9-1.5,10.5,3,18c9,3,15,1.5,24,3c40.5,0,181.5,3,211.5-4.5
				l-1.5,4.5c-60,9-174,6-237,6c-19.5-1.5-36-3-55.5-6L976.5,1089z"/>
			<path fill="#7FB1D7" d="M976.5,1089l1.5-6c10.5-9,39-9,54-10.5c0,9-1.5,10.5,3,18c9,3,15,1.5,24,3
				C1038,1095,997.5,1093.5,976.5,1089z"/>
			<path fill="#293644" d="M1116,1431h25.5v501c0,75,3,171,0,244.5c-3,79.5,4.5,55.5,66,73.5c15,4.5,48,12,55.5,25.5
				c-46.5,27-217.5,27-264,1.5c1.5-9,10.5-12,18-16.5c33-10.5,60-16.5,94.5-22.5c9-24,6-33,6-58.5c0-37.5,4.5-307.5-4.5-319.5
				c-1.5-3-3-4.5-3-7.5c-1.5-6,1.5-9,4.5-15C1119,1833,1116,1470,1116,1431L1116,1431z"/>
		</g>
	</g>
</g>
</svg>
