<?xml version="1.0" encoding="utf-8"?>
<!-- Generator: Adobe Illustrator 27.9.0, SVG Export Plug-In . SVG Version: 6.00 Build 0)  -->
<svg version="1.1" id="svg" xmlns="http://www.w3.org/2000/svg" xmlns:xlink="http://www.w3.org/1999/xlink" x="0px" y="0px"
	 viewBox="0 0 2000 3000" enable-background="new 0 0 2000 3000" xml:space="preserve">
<g>
	<defs>
		<rect id="SVGID_1_" width="1999.998" height="2999.91"/>
	</defs>
	<clipPath id="SVGID_00000049906162462224838750000003658489660315459233_">
		<use xlink:href="#SVGID_1_"  overflow="visible"/>
	</clipPath>
	<g clip-path="url(#SVGID_00000049906162462224838750000003658489660315459233_)">
		<path fill="#F6980B" d="M0,0h2000v3000H0V0z"/>
		<path fill="#FEDF77" d="M1454.292,1534.79c26.133-16.436,57.577-22.969,86.133-8.101c26.886,11.543,33.641,27.744,30.432,55.942
			c-2.769,24.404-15.121,43.213-21.143,66.387c-5.949,28.433,4.176,54.492-9.026,83.994c-0.923,2.095-1.861,4.175-2.828,6.24
			c-20.381,45.557-40.249,87.48-72.146,125.801c-8.911,10.708-14.088,49.131-25.19,61.978
			c-10.538,18.267-45.798,37.617-48.07,47.109c10.292,32.637,7.629,69.316-8.523,99.624c-0.718,1.362-1.484,2.71-2.3,4.028
			c-25.352,44.297-97.72,103.828-130.725,146.865c-6.409,8.364-48.64,22.09-50.982,25.444c-4.573-8.789-14.081-12.495-21.65-6.489
			c-20.133,16.011-66.777,26.191-75.897,50.391c-7.805,20.684,12.56,81.519-31.754,67.676c-2.737,10.781-8.199,30.22-8.873,40.518
			c-12.211-71.572-46.453-110.654-110.79-143.525c-23.802-12.173-49.2-22.354-70.063-38.76
			c-36.582-28.77-41.259-56.177-39.978-99.946c0.327-11.177-0.557-27.935-4.22-38.452c-10.435-29.956-42.218-43.945-60.098-71.924
			c-23.004-36.006-5.726-64.849-17.653-98.408c-11.121-24.712-41.109-36.65-43.839-66.226c-1.87-20.259,4.47-42.451,28.494-44.927
			c-5.181,24.229,7.638,21.021,27.187,24.243c5.751,6.284,9.519,11.631,17.83,13.872c27.728,2.256,55.278-20.903,82.045-25.532
			c13.18-2.285,19.868-1.509,32.901-0.146c22.478,4.863,43.663,25.312,70.459,25.84c51.593,1.025,114.791-35.903,151.786-68.862
			l9.398-10.02c16.538-18.398,21.38-33.867,41.395-48.853c6.312-13.081,17.282-27.861,27.59-38.145
			c20.318-8.687,46.469-9.419,66.023-20.859c27.48-16.069,40.368-53.73,67.99-66.357c8.048-3.677,24.639-7.456,33.66-9.697
			c10.86,0.718,25.437-8.027,36.882-12.48c14.784,4.058,70.973,33.486,65.845-8.159
			C1473.539,1546.26,1461.257,1539.141,1454.292,1534.79L1454.292,1534.79z"/>
		<path fill="#FDBF2F" d="M1061.75,2402.197c-12.211-71.572-46.453-110.654-110.79-143.525c-23.802-12.173-49.2-22.354-70.063-38.76
			c-36.582-28.77-41.259-56.177-39.978-99.946c0.327-11.177-0.557-27.935-4.22-38.452c-10.435-29.956-42.218-43.945-60.098-71.924
			c-23.004-36.006-5.726-64.849-17.653-98.408c-11.121-24.712-41.109-36.65-43.839-66.226c-1.87-20.259,4.47-42.451,28.494-44.927
			c-5.181,24.229,7.638,21.021,27.187,24.243c5.751,6.284,9.519,11.631,17.83,13.872c-7.853,17.886,9.723,22.061,23.539,22.28
			c14.536-0.322,29.965-1.904,41.352,8.833c8.966,8.438,10.003,23.262,20.994,29.458c14.524,8.174,37.133,3.34,52.674,6.914
			c30.599,7.046,80.57,33.516,78.079,70.342c-2.508,37.075-12.866,62.446,17.458,91.743c21.453,20.728,43.023,31.011,72.995,33.516
			c48.403,4.028,77.774-70.796,111.867-37.002c17.698,17.549,28.022,43.711,61.773,44.121c27.944,0.322,53.831-14.517,79.85-22.954
			c11.524-3.735,20.774-5.493,32.431-7.603c-25.352,44.297-97.72,103.828-130.725,146.865c-6.409,8.364-48.64,22.09-50.982,25.444
			c-4.573-8.789-14.081-12.495-21.65-6.489c-20.133,16.011-66.777,26.191-75.897,50.391c-7.805,20.684,12.56,81.519-31.754,67.676
			C1067.886,2372.461,1062.424,2391.899,1061.75,2402.197L1061.75,2402.197z"/>
		<path fill="#FEDF77" d="M1061.75,2402.197c-12.211-71.572-46.453-110.654-110.79-143.525c-23.802-12.173-49.2-22.354-70.063-38.76
			c-36.582-28.77-41.259-56.177-39.978-99.946c0.327-11.177-0.557-27.935-4.22-38.452c-10.435-29.956-42.218-43.945-60.098-71.924
			c-23.004-36.006-5.726-64.849-17.653-98.408c-11.121-24.712-41.109-36.65-43.839-66.226c-1.87-20.259,4.47-42.451,28.494-44.927
			c-5.181,24.229,7.638,21.021,27.187,24.243c5.751,6.284,9.519,11.631,17.83,13.872c-7.853,17.886,9.723,22.061,23.539,22.28
			c-21.495,3.34-57.285-0.601-33.979,36.387c21.833,34.629,60.526,59.663,81.067,95.933c13.242,22.588,8.523,56.016,11.07,82.075
			c1.915,19.541,5.654,38.848,11.169,57.686c29.872,100.649,81.074,84.844,143.512,150.527
			c22.079,23.218,26.362,56.221,45.626,78.647C1067.886,2372.461,1062.424,2391.899,1061.75,2402.197z"/>
		<path fill="#FDBF2F" d="M796.548,1956.445c17.495-0.205,47.864,30.703,31.496,48.735
			C798.944,2015.508,786.196,1978.081,796.548,1956.445z"/>
		<path fill="#FEDF77" d="M928.917,2085.117c17.358,8.467,18.528,28.506,48.711,26.045c14.835-1.216,33.433,33.267,43.307,43.799
			c5.25,5.581,16.917,18.179,21.886,24.653c-20.794,2.285-70.107-18.633-86.989-32.109
			C934.602,2130.557,931.761,2109.917,928.917,2085.117z"/>
		<path fill="#FEDF77" d="M1064.705,2203.198c13.308-0.586,22.231,1.362,35.023,4.702c44.501,11.572,55.285,14.531,98.579-0.264
			l-16.337,15.791C1137.988,2259.302,1099.76,2241.255,1064.705,2203.198z"/>
		<path fill="#FDBF2F" d="M1454.292,1534.79c26.133-16.436,57.577-22.969,86.133-8.101c-14.681,1.86-33.509,7.192-39.473,19.277
			c-22.022,44.59-48.763,45.176-93.629,53.979c-16.787,3.281-43.735,15.879-56.653,28.418
			c-27.288,26.733-34.294,74.048-79.391,78.047c-31.215,4.526-66.428-4.702-94.676,4.16c6.312-13.081,17.282-27.861,27.59-38.145
			c20.318-8.687,46.469-9.419,66.023-20.859c27.48-16.069,40.368-53.73,67.99-66.357c8.048-3.677,24.639-7.456,33.66-9.697
			c10.86,0.718,25.437-8.027,36.882-12.48c14.784,4.058,70.973,33.486,65.845-8.159
			C1473.538,1546.26,1461.257,1539.141,1454.292,1534.79z"/>
		<path fill="#FDBF2F" d="M1392.454,1974.141c-14.945-32.314-54.859-63.223-40.81-106.099c4.765-14.546,30.025-3.105,40.829-6.255
			c10.122-2.944,11.023-19.292,19.131-22.661c13.713,5.449,9.789,24.434,24.229,33.032c13.228,2.871,21.963-10.4,28.629-19.57
			c21.472-29.575,14.146-62.578,23.348-94.761c5.832-20.42,31.092-10.518,48.483-17.9l1.568-0.674
			c-20.381,45.557-40.249,87.48-72.146,125.801c-8.911,10.708-14.088,49.131-25.19,61.978
			C1429.987,1945.298,1394.727,1964.648,1392.454,1974.141L1392.454,1974.141z"/>
		<path fill="#FDF1C7" d="M1142.642,1914.873c72.749-5.815,128.441,61.157,50.242,78.237c-21.281,2.065-39.056-0.586-58.706-10.737
			c-15.369-7.954-36.429-29.458-24.819-48.398C1116.114,1922.944,1130.535,1918.052,1142.642,1914.873z"/>
		<path fill="#FDF1C7" d="M1305.134,1921.934c43.964-4.263,83.892,65.361,43.487,90.132c-6.141,1.479-11.962,2.988-18.372,1.978
			C1296.075,2008.652,1273.117,1941.665,1305.134,1921.934z"/>
		<path fill="#FDF1C7" d="M1527.223,1549.937c37.612-5.464,24.542,43.696,8.322,58.535c-3.78,3.472-9.802,5.024-14.652,6.489
			c-17.319-4.102-26.374-7.881-43.839-5.493c-7.692,1.23-24.491,4.189-30.542-2.139c5.691-8.862,36.095-13.828,42.806-19.38
			C1506.286,1573.887,1505.905,1562.651,1527.223,1549.937L1527.223,1549.937z"/>
		<path fill="#FDF1C7" d="M1456.374,1622.109c15.07-1.758,36.843-1.099,41.722,17.065c1.436,5.552,0.454,11.455-2.711,16.245
			c-11.018,16.67-29.963,5.859-41.704-2.637c-21.052-16.509-44.193-3.706-53.744-11.206
			C1404.668,1631.616,1445.203,1623.354,1456.374,1622.109L1456.374,1622.109z"/>
		<path fill="#FDF1C7" d="M1238.048,1729.629c12.882,1.406,51.052,15.234,59.991,26.426c2.639,3.311,1.686,5.669,0.96,9.023
			c-3.544,4.775-5.981,5.259-11.404,7.324c-17.042,3.384-26.085,4.922-43.122,4.277
			C1224.829,1766.089,1216.437,1743.208,1238.048,1729.629z"/>
		<path fill="#FDF1C7" d="M1162.023,1841.279c19.04,0.601,87.415,26.777,44.236,45.029c-15.858,1.611-63.291,3.135-59.232-30.117
			C1147.745,1850.303,1156.462,1843.872,1162.023,1841.279z"/>
		<path fill="#FDF1C7" d="M1344.816,1792.383c25.314,0.513,54.645,44.473,23.814,54.653c-11.004,0.132-21.106,1.113-30.154-6.606
			C1324.189,1828.242,1333.512,1803.589,1344.816,1792.383z"/>
		<path fill="#FDBF2F" d="M1431.097,1738.989c21.707-1.436,48.258,16.67,23.026,33.53c-2.51,0.146-5.027,0.146-7.537,0.029
			C1429.078,1771.553,1407.603,1753.55,1431.097,1738.989L1431.097,1738.989z"/>
		<path fill="#FDBF2F" d="M975.492,1877.944c22.095-1.216,51.134,17.432,24.885,32.871
			C979.83,1911.138,949.048,1894.995,975.492,1877.944z"/>
		<path fill="#FDBF2F" d="M1242.895,1996.626c8.721-0.425,16.563-0.41,20.256,9.009c0.998,14.941-11.097,20.918-23.191,24.683
			c-9.202,0.791-14.497,0.396-19.347-7.69C1218.677,2008.242,1231.827,2001.167,1242.895,1996.626z"/>
		<path fill="#DD5D02" d="M625.899,385.273c5.329-11.017,9.527-22.225,18.841-30.102c17.615-4.688,13.015,33.1,40.541,42.069
			l1.294,0.431l1.625-0.428c4.988-1.353,12.21-4.094,16.749-6.801c10.693-6.584,26.026-8.298,28.828,7.569
			c4.535,25.692-25.557,28.29-1.159,54.838c6.113,6.652,17.329,23.832,29.033,20.859c15.443-3.92,25.087-27.995,43.537-17.43
			c5.626,3.255,17.519,15.731,17.459,22.402c-10.365,3.199-28.548,0.999-36.709,5.505c-11.587,6.398-17.335,28.412-28.333,36.872
			c-10.611,8.162-27.48,6.287-34.028,19.654c-5.972,12.189,2.464,28.604-15.102,34.769c-10.576,3.71-22.145,0.913-29.037,12.255
			c-11.166,18.378,21.477,45.924-2.393,57.526c-3.175,1.542-12.665,0.047-15.826-1.938c-12.083-7.586-14.831-24.224-32.79-22.847
			c-1.645,0.126-1.585,1.128-2.68,3.198c1.156,10.238,9.998,19.156,10.986,29.098c0.478,4.806-9.659,15.705-11.456,20.638
			c-1.807,4.958-1.874,20.763,2.5,23.32c12.352,7.222,27.571-15.448,39.16-18.029c16.169-0.798,27.549,23.322,43.018,4.019
			c4.072-4.929,9.615-18.157,13.468-22.156c6.582-6.831,20.894-12.804,28.749-18.3c4.037-2.824,9.675-11.821,13.38-15.896
			c8.739,5.118,20.029,13.616,29.874,10.188c10.905-3.795,15.875-19,28.047-16.017c6.432,8.372,6.23,18.324,18.324,19.67
			c6.218,0.691,18.721-2.962,23.467-6.954c8.337-7.011,14.248-23.871,23.467-29.111c7.412,1.648,11.008,16.575,17.683,20.725
			c7.673,4.77,18.243,0.082,26.834,4.381c7.622,12.447-7.119,34.538-17.691,28.509c-15.234-8.687-24.658-19.127-44.494-11.326
			c-11.297,3.976-34.276,18.101-39.594,29.495c-0.243,5.005-0.854,3.507,1.368,7.373c12.057,2.779,51.925-1.894,51.05,13.553
			c-19.631,30.041-70.949,5.909-73.846,33.259c5.852,17.363,25.473,7.17,38.963,15.593c11.966,7.471,14.336,17.53,19.815,25.222
			c11.418,16.031,80.166-7.78,67.735-31.617c-2.916-5.593-8.954-13.019-9.858-19.375c8.123-17.827,37.474,4.854,47.209-15.4
			c6.113-12.719,0.702-33.621,12.746-42.576c6.963-3.01,24.062,8.235,29.544,7.988c23.605-1.068,32.586-26.537,58.778-9.434
			c4.158,2.716,9.013,4.194,10.492,9.765c-5.849,6.318-28.22,2.493-34.044,10.236c-7.171,9.533-3.909,27.104-23.705,29.783
			c-9.47,1.28-23.777-5.855-32.617,2.798c-4.444,4.326-6.853,10.329-6.631,16.525c0.872,25.419,40.273,50.697,64.026,50.785
			c18.302,0.069,22.344-29.593,40.758-15.388c3.744,2.777,5.072,5.769,6.292,10.022c-1.735,9.365-29.163,15.398-35.043,23.489
			c-5.22,7.185-4.974,28.028-17.307,26.322c-13.497-2.824-30.782-22.362-44.986-15.984c-19.918,24.53,31.295,47.646,36.425,60.415
			c-0.636,16.323-23.295,23.092-32.579,14.051c-4.403-10.353,12.242-31.068-16.81-43.66c-7.568-3.25-15.071-3.835-18.765-12.144
			c-6.357-14,7.906-29.987-10.536-37.806c-27.125-11.502-32.887,20.889-48.618,32.613c-9.53,7.102-46.035-11.407-58.728-11.13
			c-1.096,0.025-8.035-5.282-9.549-6.417c-10.183-0.261-20.955,1.008-28.863-8.544c-8.96-10.824-12.423-37.014-34.145-21.363
			c-6.611,4.764-9.048,24.415-21.812,23.405c-13.955-0.472-42.12-18.081-54.275-5.464c-10.391,10.787-10.056,31.774,2.246,41.216
			c12.673,9.73,22.218,8.022,35.887,8.165l15.727,10.238c9.414-0.844,31.884-4.929,38.67,0.75
			c12.085,10.113,13.862,41.118,30.513,45.35c12.796-1.871,18.673-19.255,22.982-29.662c7.437,7.348,11.319,11.268,20.239,16.941
			c9.666,0.224,21.704-0.526,29.432,5.332c6.519,14.906-43.346,29.29-38.935,54.035c9.348,15.303,41.191,3.88,55.883,4.482
			c18.627,0.763,22.215,15.145,40.218,14.795c12.35,0.809,33.285-9.224,40.002,0.431c4.032,5.798,1.349,16.263-6.465,19.557
			c-25.949,10.939-69.256-23.647-89.024,1.34c-1.328,1.579-0.901,7.321,0.1,8.584c16.207,20.43,35.209,24.573,24.831,56.426
			c-12.084,37.093-45.772-21.021-67.158-11.729c-10.099,4.387-17.739,15.574-12.246,25.756
			c7.686,13.898,33.916,38.329,36.932,52.677c-3.593,6.517-12.397,5.228-18.004,2.224c-9.207-4.932-16.347-13.841-27.628-13.247
			c-16.714-0.662-58.314,15.378-50.062,37.263c6.321,16.762,54.144-2.461,53.451,21.6c-7.402,12.794-32.708,7.811-30.36,24.839
			c0.803,5.824,9.231,13.162,15.106,15.858c29.934,13.74,80.311,24.644,61.802,69.464c-1.036,2.511-2.993,3.746-5.264,5.151
			c-18.976,2.958-35.987-39.357-52.753-18.562c-4.777,5.924,3.966,22.087,6.589,28.444c3.177,7.701,6.974,19.106,14.687,23.328
			c15.052,7.543,33.971-3.357,44.432,14.041c1.402,12.823-26.946,27.332-4.293,43.673c6.233,4.495,19.774,13.758,27.541,10.789
			c24.366-9.315,43.653-20.32,53.459,14.172c2.951,10.378-3.647,22.898,9.436,31.002c12.258,11.218,35.72,10.708,40.86,23.367
			c-0.462,15.003-25.799,20.467-13.512,35.379c8.089,9.829,35.49,8.364,33.678,25.913c-0.193,1.875-1.446,3.516-2.969,4.966
			c-14.841,14.194-56.854-7.925-62.807,16.011c-0.516,3.574,0.939,6.665,3.512,8.921c17.286,15.176,62.555,9.697,67.202,37.471
			c1.789,10.679-10.948,29.443-23.852,29.062c-24.743-0.733-43.215-36.138-67.787-15.249c-3.054,2.827-5.386,7.28-4.971,11.528
			c2.592,26.557,41.777,39.712,17.673,67.632c-14.481,16.773-51.802,39.141-28.117,66.152c2.727,3.105,5.117,2.681,8.797,2.549
			c13.209-6.27,15.93-20.801,22.292-31.377c13.72-6.87,42.986-12.891,47.798-27.407c5.166-15.601,1.07-48.794,29.07-37.236
			c10.602,4.189,13.382,11.997,22.694,17.314c36.608,0.454,48.995-12.817,73.921,21.27c-14.343-4.57-25.398-9.756-39.698-2.065
			c-8.548,4.6-14.607,10.884-23.657,14.077c-10.048-2.402-33.225-9.053-42.016-2.622c-16.07,11.777,4.179,27.451,11.839,36.123
			c5.04,5.698,10.919,22.295,22.171,20.273c33.534-6.05,36.33-27.642,61.165,9.829l-9.398,10.02
			c-36.995,32.959-100.193,69.888-151.786,68.862c-26.796-0.527-47.981-20.976-70.459-25.84
			c-13.033-1.362-19.722-2.139-32.901,0.147c-26.768,4.629-54.318,27.788-82.045,25.532c-8.311-2.241-12.079-7.588-17.83-13.872
			c-19.549-3.223-32.368-0.015-27.187-24.243c5.004-5.61,8.384-8.701,11.014-15.747c-9.33-17.432-25.118-1.113-21.508-35.42
			c0.479-15.161-6.18-13.814-14.281-24.888c-14.258-21.152,15.131-30.63,27.336-40.811c24.992-21.899-17.625-45.19,25.412-62.446
			c14.398-5.771,12.656-66.006,0.273-75.117c-25.221-18.53-24.866-23.013-19.681-52.441c-3.119-37.995-26.992-53.102-3.153-90.794
			c5.015-7.929-7.899-26.2-13.177-34.746c-6.901-16.326,10.12-34.191,8.24-46.399c-3.352-21.763-21.294-31.452-19.045-58.897
			c2.004-24.461,11.557-34.627,28.631-50.281c2.648-4.822,3.058-8.083,4.258-13.399c-3.24-7.142-4.457-9.97-9.745-15.59
			c-11.518-13.554,5.175-26.156,7.349-41.632c1.811-12.885-16.104-42.608-31.02-31.477c-6.541,4.879-4.99,17.817-4.75,25.906
			c-16.78,17.366-36.116,19.937-15.522,46.61c3.106,4.023,6.719,11.294,8.998,15.908c-19.204-1.504-32.974-3.004-30.794-29.058
			c1.168-13.954,11.345-53.771,1.773-66.494c-5.604-7.45-26.81-8.559-34.697-18.309c-20.661-25.548,6.639-47.377,7.82-73.642
			c1.209-26.792-11.363-37.038-28.343-55.191c-16.825-17.716-22.743-45.574-17.264-68.955c2.374-10.064,9.106-24.171,9.672-34.373
			c0.703-12.713-5.751-21.056-4.968-35.136c-29.297-24.478-40.491-44.46-23.54-79.46c4.996-10.318,9.319-24.13,0.044-32.783
			c-12.561-11.717-3.215-18.842,3.147-30.022c9.607-19.816-22.512-26.643-26.503-42.914c-3.575-14.571,11.543-20.943,18.538-33.551
			l0.794-1.462c0.226-7.162,0.822-18.967-0.894-25.585l-0.267-1.008c-4.128-15.951-15.768-28.999-18.593-45.29
			c-9.355-53.943,44.736-58.988,53.708-82.213C627.789,430.178,619.906,407.168,625.899,385.273L625.899,385.273z"/>
		<path fill="#F6980B" d="M903.566,1812.466c7.974-25.063,22.985-21.636,47.209-25.532c31.621-5.083,37.323-34.351,65.701-39.141
			c17.72-2.988,25.594,20.845,40.547,24.155c23.572,1.875,43.067-3.384,68.788-2.505c-36.995,32.959-100.193,69.888-151.786,68.862
			C947.229,1837.778,926.044,1817.329,903.566,1812.466z"/>
		<path fill="#F6980B" d="M800.967,1446.303c17.059-8.914,24.199-3.038,40.185-6.642c16.139-3.637,27.01-22.799,48.784-16.918
			c14.933,3.318,14.91,31.529,30.303,32.76c13.493,1.14,47.941-15.708,56.892,2.24c9.396,18.848-27.332,34.874-37.896,40.22
			c-28.51,14.443-50.996-21.416-75.103-11.382c-19.54,8.13-62.922,42.803-69.322-0.308
			C793.102,1468.198,792.388,1462.093,800.967,1446.303z"/>
		<path fill="#DD5D02" d="M820.709,1470.586c6.883,0.674,10.18,1.304,14.483,6.973c2.045,10.957-2.866,13.345-11.85,17.959
			c-7.257-0.732-10.646-0.894-15.054-6.958C806.314,1477.69,811.752,1474.863,820.709,1470.586z"/>
		<path fill="#D35101" d="M735.839,1367.619c13.48,2.118,27.888,2.634,39.584,4.534c26.33,29.944,31.607,34.4,25.544,74.15
			c-8.579,15.79-7.865,21.895-6.157,39.971c-1.314,5.288-1.666,5.874-5.068,10.151c-11.073,2.754-14.491-10.166-25.01-8.525
			c-5.073,0.776-6.895,5.156-12.564,5.259c-3.119-37.995-26.992-53.102-3.153-90.794
			C754.031,1394.436,741.117,1376.165,735.839,1367.619z"/>
		<path fill="#D35101" d="M757.924,1198.644c0.719-10.693,0.085-33.388,9.949-39.29c6.193,2.544,27.95,25.646,32.484,32.146
			c11.518,16.513,41.169,50.871,10.567,64.636c-3.44,1.507-10.62,0.189-13.666-1.937c-24.204-17.741-8.832-32.777-43.591-42.157
			C756.314,1207.22,756.724,1203.96,757.924,1198.644L757.924,1198.644z"/>
		<path fill="#D35101" d="M733.109,1748.862l2.082-4.556c18.505-6.021,80.768,22.295,73.935,47.271
			c-10.564,15.308-39.357,2.622-53.055-2.197c-2.069-3.193-1.697-1.523-1.455-5.098
			C745.287,1766.851,729.499,1783.169,733.109,1748.862z"/>
		<path fill="#D35101" d="M625.899,385.273c5.329-11.017,9.527-22.225,18.841-30.102c17.615-4.688,13.015,33.1,40.541,42.069
			l1.294,0.431c9.736,2.184,17.928,21.034,6.823,29.445c-21.477,4.376-47.086-34.475-66.13-41.36L625.899,385.273z"/>
		<path fill="#F6980B" d="M657.574,836.637c23.238-0.744,24.047,9.003,31.071,28.028c8.886,2.889,15.933,4.55,25.187,7.925
			c22.243,30.199,21.854,19.502,55.669,16.885c19.275-1.491,20.327,16.074,20.571,30.99c11.097,13.005,30.214,18.054,36.094,32.439
			c8.255,20.19-19.812,43.916-36.992,49.261c-11.412,3.551-17.593,2.162-28.021-3.195c-5.452-3.066-18.624-8.978-19.812-14.518
			c9.05-11.845,46.766-3.032,40.907-29.436c-10.375-11.378-31.25-0.952-43.984-1.872c-2.807-0.202-21.638-10.291-25.716-12.29
			c-54.659,7.479-27.168-7.928-53.333-22.046c-34.722-18.735-56.525-11.086-13.19-53.618
			C646.019,850.064,644.092,844.925,657.574,836.637z"/>
		<path fill="#F6980B" d="M819.029,1606.816c17.575-0.557,18.1,5.361,32.16,12.744c11.228,5.391,33.875,7.939,40.396,19.629
			c4.157,7.441-9.178,36.079-12.037,44.707c3.981,17.886,12.545,24.829,19.442,40.518c13.046,29.707-9.555,83.262-48.617,67.632
			c-13.083-8.423-43.449-41.924-34.529-59.956c7.673-15.498,38.526,4.351,45.745-10.986c-1.637-28.037-40.016-11.309-53.72-29.648
			c-10.217-13.667,7.486-26.792,5.938-40.122C811.548,1631.865,798.305,1621.348,819.029,1606.816L819.029,1606.816z"/>
		<path fill="#F6980B" d="M657.415,427.71c18.741,0.828,42.615,10.926,49.389,30.396c4.617,13.271-10.051,27.105-16.694,38.653
			c16.582,40.692,0.158,25.222-15.26,41.796c-14.505,15.596,3.946,38.859-36.328,37.43c-3.78-13.947,10.4-21.061,11.647-33.532
			c3.198-32.011-57.774-28.888-47.272-65.483c6.252-21.784,32.053-2.426,46.939-10.884
			C660.845,451.113,640.617,444.084,657.415,427.71z"/>
		<path fill="#F6980B" d="M745.985,685.424c13.775,1.54,36.832,14.874,32.24,33.24c-2.7,10.806-31.395,11.876-37.522,18.21
			c-10.945,11.311-11.238,31.767-33.061,19.302l-14.854-12.267c-7.722,0.722-20.917,4.21-23.097-4.878
			c5.999-15.274,31.659-6.73,41.685-13.195C729.276,714.294,723.295,696.072,745.985,685.424L745.985,685.424z"/>
		<path fill="#F6980B" d="M801.278,1330.496c14.652-1.623,48.749,2.606,46.763,26.977c-0.356,4.381-8.132,8.843-12.248,10.8
			C807.519,1373.023,764.649,1353.73,801.278,1330.496z"/>
		<path fill="#D35101" d="M614.719,783.573c16.999-1.312,78.047,14.892,56.636,42.505
			C652.725,831.536,597.761,810.779,614.719,783.573z"/>
		<path fill="#D35101" d="M886.661,1534.043c29.76-1.86,53.007,25.576,15.162,37.573c-13.587,1.172-30.061-2.271-34.297-17.373
			c-1.048-3.618-0.482-7.5,1.551-10.664C873.065,1537.412,880.05,1535.654,886.661,1534.043z"/>
		<path fill="#D35101" d="M599.768,568.491c13.237,2.673,42.022,16.459,41.637,32.029c-1.645,4.498-2.867,4.749-7.152,7.54
			C605.934,610.128,572.078,583.39,599.768,568.491z"/>
		<path fill="#D35101" d="M792.946,1546.831c2.478-0.176,4.954-0.352,7.44-0.352c6.315,0.029,12.339,2.666,16.656,7.266
			c7.758,8.438,1.991,17.241-5.297,23.335l-0.63,0.146C790.154,1582.148,777.207,1560.601,792.946,1546.831z"/>
		<path fill="#D35101" d="M673.824,1031.584c8.677,1.345,21.206,9.521,25.512,17.402c-0.35,5.946-0.107,3.899-4.303,9.907
			C674.169,1065.015,666.086,1049.95,673.824,1031.584L673.824,1031.584z"/>
		<path fill="#D35101" d="M633.643,755.569c-5.497-6.051-7.751-9.245-4.369-16.935c9.596-5.733,13.678-1.321,19.896,6.157
			c2.586,4.74,3.412,5.708,2.714,10.963C646.113,765.095,639.877,763.08,633.643,755.569L633.643,755.569z"/>
		<path fill="#D35101" d="M649.169,744.791c2.586,4.74,3.413,5.708,2.714,10.963c-5.77,9.341-12.006,7.326-18.24-0.185
			C641.411,754.261,644.419,750.425,649.169,744.791z"/>
		<path fill="#D35101" d="M685.894,975.144c19.547,0.724,19.14,14.02,9.369,26.997C678.095,997.926,674.84,988.362,685.894,975.144z
			"/>
		<path fill="#D35101" d="M787.326,674.959c17.125,2.315,16.869,12.412,8.254,24.472
			C781.653,698.646,778.063,685.348,787.326,674.959z"/>
		<path fill="#D35101" d="M768.378,1295.808c5.059-1.688,10.576,0.71,12.794,5.559c2.218,4.85,0.422,10.591-4.164,13.312
			c-3.436,2.039-7.735,1.938-11.073-0.259c-3.336-2.199-5.124-6.11-4.605-10.071
			C761.851,1300.389,764.586,1297.072,768.378,1295.808z"/>
		<path fill="#D35101" d="M787.229,1701.65c16.4,0.806,15.045,12.861,5.651,22.734
			C778.302,1723.901,779.263,1710.923,787.229,1701.65z"/>
		<path fill="#FDBF2F" d="M876.27,298.639c19.449,1.213,31.899,13.62,38.895,30.836c-2.92,8.856-7.71,17.172-1.379,24.864
			c15.481,7.395,21.855-8.183,40.22,13.211c2.9,11.729-0.032,42.562,18.544,42.564c6.492,0,10.552-2.262,13.613-7.787
			c1.625-18.201-23.676-31.402-14.945-47.456c8.113-5.972,14.448-4.126,24.245-2.918c11.846-7.395,33.456-26.273,47.911-17.257
			c7.764,13.77-9.464,38.805,2.108,48.073c19.21,15.385,44.255-26.199,64.829-6.025c7.999,7.844-1.382,22.532-0.538,32.077
			c6.741,21.697,41.695,7.06,42.283,36.419c0.492,24.557-25.193,24.281-34.945,33.949c-4.009,11.667,6.949,18.595,10.086,30.439
			c2.992,11.297-9.659,21.17-17.574,15.489c-5.506-3.954-13.093-14.14-18.924-19.607c-9.456-0.687-32.18-3.513-40.595,0.833
			c-6.007,3.103,3.634,13.92,0.851,22.91c-3.338,15.633-22.368,8.697-29.684,13.828c-18.536,13.003,22.601,45.312,1.703,59.011
			c-10.205,0.302-27.322-7.736-33.972-7.146c-27.682,2.458-31.004,4.736-45.569-22.652c-19.055-17.238-32.916-0.138-52.895-10.676
			c-1.323-0.775-3.629-4.173-3.489-5.587c3.328-33.297,67.294-21.106,88.724-22.315c24.297-1.373,10.573-20.266,3.632-31.072
			c-5.858-9.12-6.894-23.624-16.22-30.34c-15.288-11.008-28.208,14.997-42.629,2.523c-4.816-4.449-9.062-11.962-9.269-18.545
			c6.906-16.45,30.097-4.698,40.466-15.639c3.43-8.72-1.467-28.151-10.21-32.298c-7.407,2.382-8.322,18.36-20.832,15.413
			c-7.067-0.289-24.038-14.795-24.716-21.74c-2.837-29.013-22.689-29.164-46.459-32.524c-5.146-0.728-5.651-0.628-9.909,2.741
			c-8.715,20.917,26.834,18.472,38.649,30.082c2.101,5.543,1.89,3.13,0.52,9.185c-8.982,9.189-14.456,0.938-26.258,3.381
			c-11.515,2.553-6.861,17.133-11.824,24.707c-6.06,9.252-21.369,2.987-22.448-6.549c-0.654-5.766,1.093-12.508,0.652-18.693
			c-1.303-18.211-43.417-8.991-44.154-27.157c7.663-12.044,25.162-9.816,29.619-14.281c14.709-14.739-18.929-26.629,4.81-43.567
			c18.268-4.616,42.264,29.492,50.459,2.014C863.802,317.442,862.523,307.213,876.27,298.639L876.27,298.639z"/>
		<path fill="#F6980B" d="M1011.2,392.672c22.841-2.69,21.547,6.164,40.139,14.203c17.453,7.545,48.145,9.803,51.535,34.166
			c0.974,7.001-2.923,12.558-7.346,17.197c-12.447,0.275-16.488-10.25-42.703-9.834c-11.793-33.448-13.357-18.126-42.668-34.104
			c-4.402-2.399-5.002-5.966-5.82-10.093C1005.716,397.772,1006.592,397.077,1011.2,392.672z"/>
		<path fill="#F6980B" d="M988.548,436.137c19.231,0.259,48.145,18.702,30.293,40.982
			C997.152,484.617,980.379,451.541,988.548,436.137z"/>
		<path fill="#DD5D02" d="M1352.73,1251.125c9.889,3.691,12.031,5.253,22.623,6.053c5.073-2.07,8.76-4.378,13.814-3.088l1.474,2.396
			c-2.539,5.911-4.158,6.498-10.397,10.209c-25.02,22.396,9.178,27.675,1.027,36.873c-4.16,4.693-16.207,22.762-20.684,29.871
			c-10.796,1.941-32.595,4.936-30.192,20.303c3.426,4.797,12.725,10.884,18.33,11.186c21.769,1.172,28.425-33.939,49.697-34.279
			c4.451-0.07,10.703,4.364,13.065,7.868c8.526,12.106,1.569,30.803,2.399,44.533c0.19,3.158,4.415,14.589,5.654,17.975
			c-39.178-16.708-30.028-5.648-51.363,12.249c-7.445,6.243-50.793-6.199-58.123,19.97c-1.168,2.213-0.831,4.542-0.415,7.043
			c10.161,19.106,43.016,12.41,54.334,26.799c8.145,10.342-32.104,26.938-28.851,42.891c2.755,3.384,6.281,4.585,10.608,4.731
			c13.165,0.22,33.187,1.714,43.751-7.251c13.911-11.792,12.067-33.135,35.24-31.963c10.582,0.542,22.758,14.355,23.496,24.214
			c-5.094,18.486-35.789,8.848-46.454,15.688c-1.22,0.791-9.071,14.897-10.753,17.607c-6.92,1.611-18.901,3.428-22.834,9.448
			c-5.276,8.071,4.618,25.723,3.692,33.061c-9.021,2.241-25.612,6.021-33.66,9.697c-27.622,12.627-40.51,50.288-67.99,66.357
			c-19.555,11.44-45.705,12.173-66.023,20.859c-5.588-5.449-4.169-25.342-10.986-33.003c-2.126-2.388-2.49-8.408-1.27-11.821
			c5.453-6.826,17.451-7.002,26.189-8.13c24.634-3.135,18.435-11.675,31.209-28.945c8.549-2.241,19.852,6.416,30.447,9.976
			l1.366,0.454c21.235-2.637,43.196-7.749,41.483-33.442c-12.445,5.142-31.289-0.747-42.734-5.288
			c-24.891-9.888-11.423-22.852-19.316-37.412c-8.173-7.427-21.77-13.433-26.416-23.848c-3.195-7.163,2.119-14.224,10.607-16.86
			c-2.415-6.138-2.58-7.998-3.497-14.443c14.844-2.739,51.515,4.629,54.882-12.048c1.932-9.574-14.917-17.246-19.732-22.831
			c-7.654-8.881,7.046-16.1,8.212-26.852c-4.41-15.205-35.19-18.092-39.015-32.214l1.427-1.991
			c18.067-6.25,61.764,19.901,64.683-17.596c-5.065-35.498,5.946-25.936,30.308-41.366c15.481-5.149,15.269-31.838-3.059-34.625
			c-12.717-1.933-19.251,3.693-29.127,9.908c-3.722-9.599-3.348-18.224,4.863-24.696c7.27,1.299,12.022,0.798,18.957-1.134
			C1339.909,1259.689,1346.264,1255.323,1352.73,1251.125L1352.73,1251.125z"/>
		<path fill="#FDBF2F" d="M1244.771,1484.106c10.747,3.604,33.552,8.701,38.73,19.424c3.588,7.427-4.631,17.637,1.322,26.982
			c14.003,21.987,27.824,9.551,37.808,37.002c-12.445,5.142-31.289-0.747-42.734-5.288c-24.891-9.888-11.423-22.852-19.316-37.412
			c-8.173-7.427-21.77-13.433-26.416-23.848C1230.969,1493.804,1236.283,1486.743,1244.771,1484.106z"/>
		<path fill="#D35101" d="M1375.352,1257.177c5.073-2.07,8.76-4.378,13.814-3.088l1.474,2.396
			c-2.539,5.911-4.158,6.498-10.397,10.209C1376.277,1263.622,1377.018,1262.685,1375.352,1257.177L1375.352,1257.177z"/>
		<path fill="#F6980B" d="M1326.176,1378.008c8.799,0.135,18.919-0.42,20.24,10.441c-1.711,4.854-2.311,5.345-6.104,8.881
			c-11.746,6.164-31.409,12.763-42.132,1.756C1293.03,1383.433,1315.363,1380.631,1326.176,1378.008L1326.176,1378.008z"/>
		<path fill="#FDBF2F" d="M1326.176,1378.008c8.799,0.135,18.919-0.42,20.24,10.441c-1.711,4.854-2.311,5.345-6.104,8.881
			C1330.988,1388.959,1328.58,1391.755,1326.176,1378.008L1326.176,1378.008z"/>
		<path fill="#FDBF2F" d="M1230.276,1482.627c-20.456,6.606-30.933,15.293-49.546,23.584c-12.985,5.771-33.887-10.181-48.256-9.287
			c-17.484,1.069-27.915,15.82-45.691,13.198c-5.761-0.967-12.593-2.754-11.056-9.771c6.623-4.614,13.846-1.069,22.353-5.64
			c7.645-3.369,15.319-12.773,22.74-15.952c19.979-8.584,57.933,13.125,76.374-4.893c0.856-2.622,1.695-3.589,0.513-6.416
			c-10.176-24.233-32.479-4.053-52.486-17.625c-7.603-4.474-19.739-21.003-28.743-21.229c-31.342-0.786-42.116,9.163-65.924-19.55
			c-3.612-4.356-28.505-11.407-31.311-21.35c2.144-3.803,2.627-3.953,7.228-5.496c23.326-7.814,39.376,23.045,60.577,19.129
			c4.787-0.883,11.156-6.602,13.533-11.061c3.827-26.807-56.573-30.185-46.779-58.872c-0.588,1.72,22.132-33.236,21.326-32.461
			c24.607-23.625,32.166,5.308,36.821,25.208c3.059,13.081,35.654,8.603,39.348,24.583c4.788,17.735-19.377,22.796-24.686,35.744
			c2.568,17.511,28.349,3.215,41.461,15.211c6.892,13.082-7.972,21.593-0.381,33.393c4.886,4.598,12.273,5.801,18.627,7.872
			c11.823,3.854,18.11,10.745,29.363,2.231c6.617-17.495-31.512-41.577-26.558-64.824c8.083-37.928,49.465-9.355,71.864-23.004
			c23.438-14.282,32.488-28.34,50.747,0.781c-2.919,37.497-46.615,11.345-64.683,17.596l-1.427,1.991
			c3.826,14.121,34.605,17.008,39.015,32.213c-1.166,10.752-15.867,17.971-8.213,26.852c4.815,5.585,21.665,13.257,19.732,22.831
			c-3.367,16.677-40.038,9.309-54.882,12.048C1237.351,1473.677,1233.821,1478.262,1230.276,1482.627L1230.276,1482.627z"/>
		<path fill="#FEDF77" d="M1070.623,2361.68c44.314,13.843,23.949-46.992,31.754-67.676c9.121-24.199,55.764-34.38,75.897-50.391
			c7.569-6.006,17.077-2.3,21.65,6.489c-15.219,26.851-43.131,30.615-56.847,49.658c-12.047,16.729-35.549,81.284-37.748,101.88
			c-5.141,48.179-8.004,128.672,4.398,175.547c11.481,40.02,30.488,89.004,10.467,129.463c-4.948,9.99-17.125,19.292-28.078,21.665
			c-23.333,5.054-40.986-15.352-44.614-36.519c-9.735-56.821,18.539-111.167,24.633-166.743
			c4.381-40.781-3.067-83.218-10.387-122.856C1062.423,2391.899,1067.885,2372.461,1070.623,2361.68L1070.623,2361.68z"/>
		<path fill="#FDF1C7" d="M1097.385,2596.245l4.332,1.787c10.676,11.543,20.595,70.005,8.434,84.961
			c-2.349,2.886-8.262,2.271-12.063,2.344c-8.276-2.036-15.499-3.311-18.467-11.88c0.85-7.046,7.684-14.692,10.696-26.997
			C1094.366,2629.893,1090.114,2607.993,1097.385,2596.245z"/>
		<path fill="#FDBF2F" d="M1120.988,696.87c-10.683,0.331-24.683,1.83-33.979-3.155c-3.07-4.17-2.545-2.161-1.793-7.556
			c11.415-12.016,33.943,3.425,43.423-7.298c8.807-9.959,5.303-11.634,19.87-15.854l4.24-1.235
			c65.157,15.135,28.561,50.562,4.507,65.496c-8.214,5.101,45.257,34.616,36.511,51.202c-11.884,22.538-0.91,41.477,10.201,60.647
			c6.461,12.702,10.724,40.8-4.654,49.468c-9.751,6.857-26.662,5.174-30.202,15.815c2.847,13.263,18.218,20.798,11.111,35.758
			c-9.261,6.396-23.556-0.019-32.86-3.869c-22.338-21.289-73.048,1.091-39.871-48.102c7.918-6.007,14.12-15.551,7.834-24.904
			c-15.604-8.949-43.257,13.351-57.191-7.049c-4.73-22.345,26.939-14.155,36.589-19.359c13.09-7.06,8.793-21.942,28.019-25.144
			c14.026-2.333,28.668,10.362,38.882,5.949c4.45-8.339-0.27-19.26-2.873-28.601c1.257-3.939,6.731-20.367,6.095-23.408
			c-4.777-22.831-58.712-25.496-28.535-58.033C1128.529,706.277,1126.916,702.045,1120.988,696.87L1120.988,696.87z"/>
		<path fill="#F28803" d="M1120.988,696.87c7.338-1.906,9.283-3.604,15.21-8.284l3.308-0.261c4.695,7.348,1.531,12.995-3.196,19.312
			C1128.529,706.278,1126.916,702.045,1120.988,696.87z"/>
		<path fill="#FDBF2F" d="M1151.849,1094.084c26.34,2.402,13.08,20.446,18.066,33.634c7.509,19.862,39.289-5.151,52.453,1.295
			c13.536,6.626,7.127,17.722,9.339,28.5c8.917,10.901,32.861,8.939,45.051,13.598c12.05,4.605,32.788,13.447,25.449,29.057
			c-12.166,25.873-36.195,19.792-58.841,24.157c-5.493,1.059-18.561,21.986-28.385,19.784c-14.837,0.177-29.352-13.619-42.39-9.202
			c-18.15,6.148-19.878,16.907-40.8,24.36c-9.67-2.057-25.106-8.407-36.312-11.512c-24.037,0.252-21.286,17.978-40.9,22.608
			c-2.385-0.453-4.911-0.458-5.979-2.597c-10.041-20.121,5.187-19.753,10.174-34.103c1.748-3.814-4.595-13.711-3.237-16.61
			c11.578-24.71,20.503,12.378,29.245,13.33c7.338,1.444,14.283-3.129,21.341-3.719c13.269-1.109,55.999-2.959,56.426-22.915
			c0.81-37.75-67.386,8.801-66.631-18.52c7.704-12.702,31.08-18.853,43.106-27.237
			C1169.178,1136.966,1114.89,1113.34,1151.849,1094.084L1151.849,1094.084z"/>
		<path fill="#FDBF2F" d="M1189.45,948.633c2.769,2.124,6.151,8.001,8.211,11.175c20.331,8.254,28.183,5.9,43.881,23.221
			c3.458,12.205,4.52,30.401,21.075,32.779c32.608,4.683,10.976,28.854,9.656,45.877c-0.478,6.162,18.768,23.757,19.61,31.582
			c0.608,5.651-1.295,9.33-0.381,15.264c2.694,3.179,4.589,5.307,8.885,6.044c56.821,9.732-22.208-57.186,36.469-50.427
			c6.87,0.792,12.064,9.075,15.565,14.524c-0.141,2.167-0.916,15.901-0.179,16.433c21.436,15.492,62.703,34.774,14.63,59.921
			c-16.882,3.637-20.185,20.021-32.148,21.028c-29.936,2.515-19.71-17.732-19.48-31.687c0.218-13.264-28.431-9.149-37.543-12.759
			c-16.541-6.552-13.273-20.534-24.973-30.245c-8.741-6.335-27.457-0.082-37.433,2.607c-11.783-4.712-15.328-9.442-20.308-20.748
			c-17.051-38.704,14.541-33.62,20.709-50.727c-1.174-25.255-47.014-6.741-57.071-25.211c-9.889-18.163,18.177-25.986,25.563-38.117
			C1186.567,965.263,1188.038,954.019,1189.45,948.633L1189.45,948.633z"/>
		<path fill="#FDBF2F" d="M1337.887,1217.363c9.656-0.685,21.053,1.591,29.995,0.344c14.703-2.051,15.799-22.422,28.154-31.267
			c11.391-1.994,14.366,7.419,18.686,16.22c5.342,2.461,16.853,7.217,18.239,12.549c8.053,30.983-19.779,12.685-32.868,13.759
			c-8.277,0.678-8.722,19.04-18.952,20.915c-14.98,2.742-17.24-17.446-33.56-9.992c-6.794,3.514-11.111,17.336-13.909,24.328
			c-6.935,1.932-11.686,2.433-18.957,1.134c-8.211,6.472-8.585,15.097-4.863,24.696c9.875-6.215,16.41-11.842,29.127-9.908
			c18.328,2.786,18.541,29.476,3.059,34.625c-15.285,2.202-24.385,3.967-39.873,3.359c-4.958-3.003-21.087-15.977-26.3-11.014
			c-7.269,7.248-17.421,13.506-28.091,11.979c-2.74-0.391-9.472-3.466-12.544-4.666c-4.308-2.095-11.664-4.154-16.435-1.909
			c-24.163,11.375-23.282,27.148-54.249,12.835c-13.908-6.428-42.284-27.45-9.099-34.024c11.127-2.205,22.334,5.259,33.634,3.905
			c13.591-1.349,16.848-20.208,31.61-19.919c12.888-0.145,21.745,15.054,34.988,10.998c18.042-6.379-2.894-30.665,5.795-42.809
			c6.292-8.793,28.333-14.9,38.56-17.798l20.063,4.857C1325.965,1226.078,1331.895,1221.678,1337.887,1217.363L1337.887,1217.363z"
			/>
		<path fill="#F6980B" d="M1309.852,1290.05c-16.881,12.797-26.361-18.256-15.997-27.593c8.078-3.306,12.847-0.343,20.86,2.897
			C1306.504,1271.826,1306.13,1280.451,1309.852,1290.05z"/>
		<path fill="#FDBF2F" d="M1001.511,941.824c-6.919-2.408-17.122-4.762-20.201-11.956c4.421-8.07,22.774-7.345,30.58-12.015
			c5.099-3.628,8.926-9.204,13.58-13.348c8.292-7.386,27.502,1.727,33.219,9.46c1.147,10.957-9.427,9.847-16.875,20.199
			c0.034,1.953-0.504,3.577,1.122,4.743c24.813,17.78,32.727-4.977,55.133,22.85c-2.462,30.076-29.953,44.085,13.02,70.283
			c4.577,9.484,10.23,38.846-0.851,45.894c-18.706,14.197-31.462-19.796-39.263-21.823c-31.793-8.26-39.899,17.54-50.023-30.353
			c-1.081-5.115-13.814-8.126-9.427-22.084c12.627-13.812,43.952-7.538,50.024-24.817c0.507-23.695-28.284-20.845-43.493-20.936
			C1011.481,957.882,1005.007,946.903,1001.511,941.824z"/>
		<path fill="#FDBF2F" d="M757.481,252.078c21.386-1.619,34.815,9.892,54.545,19.012c7.021-0.967,15.527-3.788,22.484-5.855
			c7.058,34.135,10.883,54.986-38.758,55.866c-16.992,0.302-14.545-23.09-29.317-24.551c-5.325-0.526-16.12,9.977-20.13,13.447
			c-5.593,2.578-15.231,3.28-20.123,5.971c-9.93,5.461-5.569,26.309-21.616,24.924c-11.371-7.084-24.215-34.636-30.461-47.166
			c-7.647-15.34,26.737-33.035,37.689-36.524C742.271,267.224,730.126,266.054,757.481,252.078z"/>
		<path fill="#FDBF2F" d="M1134.359,537.791c37.959-4.875,10.185,31.755,12.617,38.659c9.257,26.276,54.564,69.769-12.903,57.962
			c-8.375-1.465-13.965,5.311-26.057-1.759c-4.928-11.07,2.381-21.546-1.313-32.763c-2.003-7.084-11.229-10.932-18.933-12.188
			c-17.477-2.846-32.04-15.527-22.564-34.688c8.265-16.711,37.432-11.997,52.278-11.754
			C1121.811,541.333,1129.496,539.096,1134.359,537.791z"/>
		<path fill="#D35101" d="M1067.512,889.22c12.352-4.077,29.013-9.703,39.978-1.033c-33.177,49.194,17.532,26.814,39.871,48.102
			l-0.684,1.512c-8.539,18.56-43.392,31.83-33.168,51.412c13.645,26.136,73.748,49.377,19.404,83.795
			c-0.422-21.539-0.168-31.034-21.824-40.967c-42.973-26.199-15.481-40.207-13.02-70.283c-2.813-26.701-26.582-11.549-32.781-27.3
			c1.552-12.453,14.028-17.692,7.599-31.244C1071.112,899.474,1069.118,893.292,1067.512,889.22L1067.512,889.22z"/>
		<path fill="#DD5D02" d="M958.426,1053.557c3.572,1.15,3.219,1.459,5.922,3.581c27.155,21.318-14.018,35.604-12.457,54.702
			c8.095,17.588,35.896-0.208,28.277,38.55c-3.276,16.664,39.889,14.155,48.18,22.425c7.461,7.441,9.39,28.617,1.21,36.741
			c-5.295,1.608-3.084,1.406-9.404-0.584c-23.937-23.067-21.009-22.279-54.769-22.39c-41.36-0.138-33.937-16.73-25.351-43.494
			c-4.78-14.218-10.516-19.406-16.514-32.32c4.561-11.306,19.421-26.489,26.29-37.252
			C952.916,1068.649,956.317,1059.165,958.426,1053.557z"/>
		<path fill="#FDBF2F" d="M805.437,487.985c12.74,2.241,16.752,8.042,26.208,16.891c6.478,0.275,27.175,0.161,30.782,4.701
			c7.66,9.642,14.524,42.485,5.137,51.731c-5.528,1.768-18.684-1.542-24.969-2.723c-10.589,6.4-17.535,13.06-30.04,8.979
			c-6.475-6.483-6.539-13.245-10.856-20.317c-11.16-18.287-45.642,17.917-55.582-3.882c1.317-9.628,18.136-13.058,30.363-24.691
			l1.26-1.211c1.379-5.651,2.841-11.285,4.382-16.896C790.904,492.328,793.751,490.976,805.437,487.985L805.437,487.985z"/>
		<path fill="#FDBF2F" d="M1186.734,1537.09c14.926-0.308,34.217,1.86,46.782,10.547c28.369,19.614,9.146,55.312-20.177,57.7
			c-10.897,0.894-20.753-3.384-28.891-10.312c-2.207-2.285-4.539-4.453-6.989-6.489c-22.212-18.604-49.141,4.907-65.667-9.17
			l0.122-2.93C1118.927,1568.218,1175.114,1539.199,1186.734,1537.09z"/>
		<path fill="#FDBF2F" d="M1000.12,1231.79c20.434,3.656,17.155,18.129,24.917,32.506c5.619,10.105,14.889,18.425,19.919,28.866
			c10.146,21.065-2.985,44.558-27.014,44.82c-6.974-2.559-19.719-10.293-23.78-16.145c-10.226-13.673,10.62-26.342,11.852-36.76
			c1.684-14.208-25.131-22.389-23.323-39.524C986.336,1237.206,992.189,1235.065,1000.12,1231.79z"/>
		<path fill="#FDBF2F" d="M1007.449,1079.848c1.391-0.102,2.784-0.179,4.179-0.23c21.388-0.744,24.434,11.779,38.987,25.364
			c12.048,2.111,27.335,4.239,32.042,17.664c-0.923,9.375-10.254,10.573-18.558,10.844c-9.574-0.201-18.541,2.439-27.562,1.374
			c-5.155-0.864-9.471-10.594-11.162-14.931c-6.46-16.581-31.339,0.076-37.448-16.317
			C982.74,1089.693,996.725,1083.416,1007.449,1079.848L1007.449,1079.848z"/>
		<path fill="#FDBF2F" d="M941.144,1226.084c30.434-0.243,14.296,30.885,5.615,45.511c-6.933,11.681-10.494,18.111-24.16,21.442
			C879.172,1286.982,916.687,1237.118,941.144,1226.084z"/>
		<path fill="#FDBF2F" d="M1393.884,1262.963c19.666-1.941,35.224,3.072,48.495,18.433c7.238,8.379,3.83,18.68-4.791,24.393
			c-8.656,0.543-15.5,0.306-21.612-6.684C1405.225,1286.809,1370.095,1284.625,1393.884,1262.963L1393.884,1262.963z"/>
		<path fill="#DD5D02" d="M1369.256,1155.297c6.215,0.479,13.566,3.527,15.351,9.86c-2.514,7.548-9.047,12.278-15.034,18.18
			c-2.851,25.875-10.802,26.481-34.547,21.942c-7.351-1.736-15.865-3.731-18.524-11.663c4.73-8.978,25.291-7.74,29.115-11.459
			C1359.156,1168.985,1349.684,1165.57,1369.256,1155.297L1369.256,1155.297z"/>
		<path fill="#FDBF2F" d="M1435.065,1408.296c23.332,2.433,23.723,48.357-1.174,58.071c-6.749-1.598-11.767-2.708-14.378-9.854
			c0.176-9.849,6.897-15.27,13.533-22.403C1433.583,1425.208,1431.771,1416.586,1435.065,1408.296L1435.065,1408.296z"/>
		<path fill="#FDBF2F" d="M908.015,1136.799c5.425,1.516,6.009,2.06,10.248,5.821c4.774,12.27-11.458,17.862-20.671,22.783
			c-4.999,14.66-1.497,24.769-19.046,28.414c-6.256-1.529-9.574-2.522-12.999-7.679l0.85-3.495
			c3.565-4.797,9.338-6.804,14.819-9.337C886.491,1160.192,894.703,1142.779,908.015,1136.799L908.015,1136.799z"/>
		<path fill="#FDBF2F" d="M1146.195,1636.055c24.009,0.776,55.534,22.441,40.923,49.365c-9.905,0.029-10.812-18.135-16.633-24.316
			C1160.53,1650.557,1140.254,1653.955,1146.195,1636.055z"/>
		<path fill="#FDBF2F" d="M641.099,308.15c10.719,3.158,31.974,4.273,36.607,14.353c-0.113,6.139,0.368,3.735-3.247,9.746
			C658.645,337.931,632.337,332.187,641.099,308.15z"/>
		<path fill="#FDBF2F" d="M989.127,1353.066c17.972,0.831,23.234,14.858,10.292,27.967
			C980.271,1383.791,978.621,1365.116,989.127,1353.066z"/>
		<path fill="#D35101" d="M1113.638,1529.15c5.509-0.527,7.16-0.923,12.489,0.908c3.858,3.75,3.014,1.86,3.285,7.031
			c-3.653,8.818-7.418,10.049-15.676,14.429c-5.043,1.113-5.673,1.113-10.73,0.059c-3.899-3.223-2.971-1.523-3.771-6.138
			C1102.256,1535.64,1105.169,1534.336,1113.638,1529.15z"/>
		<path fill="#FDBF2F" d="M858.236,833.046c12.276,2.3,25.095,8.583,16.398,22.292C859.465,855.746,848.932,848.31,858.236,833.046z
			"/>
		<path fill="#FDBF2F" d="M1394.183,1308.22c8.139,1.484,13.73,3.732,13.029,13.112c-3.498,4.928-1.659,3.277-8.032,5.852
			c-7.889-1.812-12.793-3.431-12.989-12.196C1388.706,1310.675,1389.618,1310.41,1394.183,1308.22L1394.183,1308.22z"/>
	</g>
</g>
</svg>
