<?xml version="1.0" encoding="utf-8"?>
<!-- Generator: Adobe Illustrator 27.9.0, SVG Export Plug-In . SVG Version: 6.00 Build 0)  -->
<svg version="1.1" id="svg" xmlns="http://www.w3.org/2000/svg" xmlns:xlink="http://www.w3.org/1999/xlink" x="0px" y="0px"
	 viewBox="0 0 4500 3000" enable-background="new 0 0 4500 3000" xml:space="preserve">
<g>
	<defs>
		<rect id="SVGID_1_" width="4499.865" height="2999.997"/>
	</defs>
	<clipPath id="SVGID_00000041290926950572161040000014371258165689143984_">
		<use xlink:href="#SVGID_1_"  overflow="visible"/>
	</clipPath>
	<g clip-path="url(#SVGID_00000041290926950572161040000014371258165689143984_)">
		
			<linearGradient id="SVGID_00000127021974087312164180000011037367072347010952_" gradientUnits="userSpaceOnUse" x1="2291.9336" y1="3054.8054" x2="2237.8376" y2="1051.6273" gradientTransform="matrix(1 0 0 -1 0 3002)">
			<stop  offset="0" style="stop-color:#F96017"/>
			<stop  offset="1" style="stop-color:#FF8F15"/>
		</linearGradient>
		<path fill="url(#SVGID_00000127021974087312164180000011037367072347010952_)" d="M0,0h4500v1894.697V3000H0V1894.732V0z"/>
		<path fill="#9B2F68" d="M1426.331,1584.083c8.673,1.413,43.044,3.218,45.782,6.057c-7.462,9.123-5.434,23.224-4.199,35.165
			c0.354,3.314,0.892,6.604,1.609,9.857l-41.979-1.547c-6.548-0.18-7.036-0.167-13.177-2.24c-5.251-7.31-3.863-10.297-4.825-20.387
			L1426.331,1584.083z"/>
		<path fill="#FEC14E" d="M2026.053,1557.154c24.343-1.886,70.732,0.378,96.031,2.622c6.981,2.998,24.091,9.925,30.23,13.536
			c33.102,14.068,45.545,11.448,74.9-7.024l3.56,4.035c37.573,13.031,56.448,12.294,94.79,18.492l1.252-0.4
			c23.467,4.457,136.714,11.486,165.081,11.789c19.006,1.299,47.878-1.143,66.951-4.18c83.848,0.486,160.444,3.938,245.039-1.6
			c21.445-2.029,44.187-6.246,62.402-18.152c4.46-5.552,3.296-3.815,11.997-5.87l10.679-0.492l13.579-2.954
			c34.365,14.578,42.847,19.58,36.255,59.758c11.536,13.308,26.389,49.339,19.995,65.917c23.269,18.881,38.254,40.062,41.353,70.793
			c2.395,22.112-4.373,44.246-18.721,61.228c-3.56,4.273-5.801,6.587-10.129,10.174c23.533,17.624,47.571,32.633,36.958,65.765
			c10.679,0.651,38.584,4.024,44.78-1.246c1.89,10.147,5.867,64.98,4.79,74.354l2.922,7.044
			c59.744,43.519,341.345,44.769,404.209,1.497c0.461-12.64,1.077-25.271,1.846-37.895c0.198-16.528,0.769-33.048,1.736-49.547
			L4500,1894.696V3000H0V1894.731l567.607,0.024c29.294,0.013,193.484,3.051,209.584-2.18c9.33,22.949,18.048,42.097,28.786,64.451
			c14.141,25.512,31.502,57.686,54.105,76.558c75.711,44.512,309.05,42.16,396.552,18.743
			c56.896-15.226,61.203-30.591,91.433-79.317l9.352-17.317c5.748-11.231,11.261-23.336,16.699-34.782
			c6.651-15.189,13.047-30.486,19.191-45.888l11-31.736l13.129-45.341l4.342-20.697l8.616-45.807l2.553-17.099
			c2.696-22.172,4.489-29.209-8.33-47.62l13.014-5.664c-8.508-8.229-8.78-14.859-10.186-26.016l0.099-1.431l41.979,1.547
			c55.602,0.431,134.879,0.754,189.389-3.989c35.914-1.787,74.9-3.088,110.503-6.013c38.922-2.593,92.672-4.778,130.28-10.099
			c24.633-2.635,121.425-10.574,125.345-39.108l-3.65-4.633L2026.053,1557.154z"/>
		<path fill="#B1541C" d="M2026.053,1557.154c24.343-1.886,70.732,0.378,96.031,2.622c6.981,2.998,24.091,9.925,30.23,13.536
			c33.102,14.068,45.545,11.448,74.9-7.024l3.56,4.035c37.573,13.031,56.448,12.294,94.79,18.492l1.252-0.4
			c23.467,4.457,136.714,11.486,165.081,11.789c19.006,1.299,47.878-1.143,66.951-4.18c83.848,0.486,160.444,3.938,245.039-1.6
			c21.445-2.029,44.187-6.246,62.402-18.152c4.46-5.552,3.296-3.815,11.997-5.87l10.679-0.492l13.579-2.954
			c34.365,14.578,42.847,19.58,36.255,59.758c11.536,13.308,26.389,49.339,19.995,65.917c23.269,18.881,38.254,40.062,41.353,70.793
			c2.395,22.112-4.373,44.246-18.721,61.228c-3.56,4.273-5.801,6.587-10.129,10.174c23.533,17.624,47.571,32.633,36.958,65.765
			c10.679,0.651,38.584,4.024,44.78-1.246c1.89,10.147,5.867,64.98,4.79,74.354l2.922,7.044
			c59.744,43.519,341.345,44.769,404.209,1.497c0.461-12.64,1.077-25.271,1.846-37.895c69.082,9.945,216.255,33.299,273.56,64.822
			c16.523,8.046,46.208,20.934,51.965,40.389c6.614,22.312,2.439,297.895,1.78,339.543c-18.984,28.967-61.545,53.209-93.296,66.791
			c-27.839,12-52.8,21.275-81.189,31.561c-39.133,12.044-78.201,24.374-118.411,32.308c-69.06,17.626-129.683,27.055-199.907,37.165
			l-15.469,1.626l-22.236,2.945c-67.126,8.176-168.574,16.791-235.92,17.275c-11.602,0.506-29.29,0.725-40.364,2l-9.426,1.143
			c-53.13,10.681-137.461,10.835-193.425,15.802c-13.03,1.165-29.773-5.033-45.264-3.78c-27.444,2.22-61.458,12.286-88,13.736
			c-123.75,6.813-247.566,9.626-371.426,10.967c-187.183,2.396-374.399-0.044-561.459-7.363c-21.65-1.143-43.315-1.956-64.991-2.461
			c-55.044-3.846-127.837,3.209-174.872-27.363c-68.581,27.011-187.734,7.209-262.593-1.824
			c-15.453,0.132-54.576-5.802-71.462-7.978c-64.472-8.198-128.696-18.22-192.592-30.088c-25.396-6.813-61.117-13.429-87.68-19.121
			c-25.196-6.11-50.229-15.802-76.928-22.132c-26.947-7.319-70.196-18.33-94.447-29.472
			c-33.466-9.978-109.426-55.407-130.436-78.725c-3.118-106.703-0.571-233.222,0.167-341.09
			c10.927-16.413,16.352-21.371,33.075-31.756c47.503-30.785,154.806-52.371,210.421-62.237
			c14.142,25.512,31.502,57.686,54.106,76.558c75.711,44.512,309.05,42.16,396.551,18.743
			c56.896-15.226,61.203-30.591,91.433-79.317l9.352-17.317c5.748-11.231,11.261-23.336,16.699-34.782
			c6.651-15.189,13.047-30.486,19.191-45.888l11-31.736l13.129-45.341l4.342-20.697l8.615-45.807l2.553-17.099
			c2.696-22.172,4.489-29.209-8.33-47.62l13.015-5.664c-8.508-8.229-8.78-14.859-10.187-26.016l0.099-1.431l41.979,1.547
			c55.602,0.431,134.879,0.754,189.389-3.989c35.914-1.787,74.901-3.088,110.503-6.013c38.922-2.593,92.672-4.778,130.28-10.099
			c24.634-2.635,121.425-10.574,125.345-39.108l-3.65-4.633L2026.053,1557.154z"/>
		<path fill="#FEC14E" d="M2026.053,1557.154c24.343-1.886,70.732,0.378,96.031,2.622c6.981,2.998,24.091,9.925,30.23,13.536
			c33.102,14.068,45.545,11.448,74.9-7.024l3.56,4.035c37.573,13.031,56.448,12.294,94.79,18.492l1.252-0.4
			c23.467,4.457,136.714,11.486,165.081,11.789c19.006,1.299,47.878-1.143,66.951-4.18c83.848,0.486,160.444,3.938,245.039-1.6
			c21.445-2.029,44.187-6.246,62.402-18.152c4.46-5.552,3.296-3.815,11.997-5.87l10.679-0.492l13.579-2.954
			c34.365,14.578,42.847,19.58,36.255,59.758c11.536,13.308,26.389,49.339,19.995,65.917c23.269,18.881,38.254,40.062,41.353,70.793
			c2.395,22.112-4.373,44.246-18.721,61.228c-3.56,4.273-5.801,6.587-10.129,10.174c-26.125,14.782-38.804,15.534-69.038,16.275
			c-15.051-0.088-32.607,1.426-47.241,5.112c-20.171-6.319-37.178-3.883-55.085,7.697c-21.138,4.11-45.593,2.906-64.248,12.044
			c-31.355-16.196-57.415-14.103-83.914,10.455c-16.04-4.991-64.709-4.811-84.243-5.165c-8.108-49.495-58.052-9.018-75.696,10.562
			c-20.786,0.376-41.353,0.912-62.117,0.277c-16.479-13.965-33.354-8.994-47.922,4.24c-20.391,0.453-42.429,1.33-62.688,0.745
			c-10.701-41.33-54.646-24.29-76.443-2.701c-15.71,0.092-47.599-0.633-62.053,0.87c-18.668-20.387-82.081-11.121-100.281,9.103
			l-66.927-1.758c-11.843-13.587-55.433-15.666-67.105-4.816c-21.729,0.93-71.952-3.059-87.427,5.846
			c-18.022-14.138-46.437-20.71-68.08-11.804c-21.333,1.451-55.696-0.732-78.84-0.952c-26.69-11.752-70.611-11.923-99.112-6.789
			c-16.049-2.182-59.533-6.081-71.396-9.853c-19.219-16.466-83.894-26.272-109.817-24.943c-6.412-2.534-19.909-4.615-27.316-5.985
			l13.129-45.341l4.342-20.697l8.616-45.807l2.553-17.099c2.696-22.172,4.489-29.209-8.33-47.62l13.014-5.664
			c-8.508-8.229-8.78-14.859-10.186-26.015l0.099-1.431l41.979,1.547c55.602,0.431,134.879,0.754,189.389-3.989
			c35.914-1.787,74.9-3.088,110.503-6.013c38.922-2.593,92.672-4.778,130.28-10.099c24.633-2.635,121.425-10.574,125.345-39.108
			l-3.65-4.633L2026.053,1557.154z"/>
		<path fill="#53220B" d="M2958.794,1692.631c23.269,18.881,38.254,40.062,41.353,70.793c2.395,22.112-4.373,44.246-18.721,61.229
			c-3.56,4.273-5.801,6.587-10.129,10.174c-26.125,14.782-38.804,15.534-69.038,16.275c-15.051-0.088-32.607,1.426-47.241,5.112
			c-20.171-6.319-37.178-3.884-55.085,7.697c-21.138,4.11-45.593,2.906-64.248,12.044c-31.355-16.196-57.415-14.103-83.914,10.455
			c-16.04-4.991-64.709-4.811-84.243-5.165c-8.108-49.495-58.052-9.018-75.696,10.563c-20.786,0.376-41.353,0.912-62.117,0.277
			c-16.479-13.965-33.354-8.994-47.922,4.24c-20.391,0.453-42.429,1.329-62.688,0.745c-10.701-41.33-54.646-24.29-76.443-2.701
			c-15.71,0.092-47.599-0.633-62.053,0.87c-18.668-20.387-82.081-11.121-100.281,9.103l-66.927-1.758
			c-11.843-13.587-55.433-15.666-67.104-4.815c-21.729,0.93-71.952-3.059-87.427,5.846c-18.022-14.138-46.437-20.71-68.08-11.804
			c-21.333,1.451-55.696-0.732-78.84-0.952c-26.69-11.752-70.611-11.923-99.112-6.789c-16.049-2.182-59.533-6.081-71.396-9.853
			c-19.22-16.466-83.894-26.273-109.817-24.943c-6.411-2.534-19.909-4.615-27.316-5.985l13.129-45.341l4.342-20.697l8.616-45.807
			l2.553-17.099c106.352,10.29,239.607-17.598,340.079,14.536c82.393,26.349,162.576,146.637,190.624,152.286
			c19.002,3.826,78.269-59.688,94.869-74.145c14.722-12.822,30.237-25.297,46.589-35.991c33.113-21.661,67.05-34.826,105.583-43.402
			c120.41-26.802,457.317-29.697,574.343,3.336c29.707,8.384,58.667,19.866,84.573,36.793c12.656,8.27,41.528,33.587,54.294,35.189
			c3.362,0.42,5.559-1.446,7.954-3.519C2951.433,1782.554,2957.673,1718.09,2958.794,1692.631L2958.794,1692.631z"/>
		<path fill="#B1541C" d="M1430.394,1731.444c7.756,0.218,13.164-0.692,18.96,3.954c4.309,13.341-5.337,22.25-9.437,35.738
			c-6.866,2.912-10.679,4.914-18.139,6.114L1430.394,1731.444z"/>
		<path fill="#77320D" d="M1421.778,1777.25c7.46-1.2,11.272-3.202,18.139-6.114c3.359,19.196-6.203,22.048-22.48,26.811
			L1421.778,1777.25z"/>
		<path fill="#B1541C" d="M2318.73,1730.154c41.331-2.16,95.889,13.387,132.759,31.919c39.089,19.655,48.779,62.246-3.713,75.679
			c-33.662-3.736-36.87-21.87-65.544-31.163c-26.433-8.562-90.439,10.877-100.327-27.49
			C2273.533,1746.574,2289.639,1735.615,2318.73,1730.154z"/>
		<path fill="#B1541C" d="M2472.166,1727.681c61.479-3.378,165.63-10.352,187.954,61.523c-3.955,12.974-6.57,18.846-15.579,28.683
			c-1.165,0.712-2.351,1.398-3.538,2.055c-27.839,15.172-61.919,13.558-80.398-13.743c-6.768-9.991-18.567-31.215-28.125-37.222
			C2512.947,1756.692,2458.411,1767.53,2472.166,1727.681z"/>
		<path fill="#B1541C" d="M1562.953,1728.435c16.029-1.178,62.78-2.163,73.309,1.587c25.84,9.2,5.665,79.971-19.569,86.288
			c-16.855,4.22-18.499,2.998-31.933-3.207c-9.773-7.752-13.168-9.994-24.152-15.899c-16.559,4.086-28.964,8.73-45.743,2.683
			c-36.925-13.301-24.954-63.578,9.24-69.563C1534.777,1728.457,1551.654,1728.842,1562.953,1728.435z"/>
		<path fill="#B1541C" d="M2677.083,1734.321c31.641-1.789,54.338,2.736,84.727,7.488c39.99,6.248,72.532,55.134,36.409,85.147
			c-58.315,32.07-72.026-2.868-74.048-47.473c-0.417-9.613-42.188-11.668-51.196-29.615
			C2672.666,1739.646,2671.765,1743.747,2677.083,1734.321z"/>
		<path fill="#B1541C" d="M1720.949,1736.578c32.047-1.11,57.867,2.363,74.593,33.176c13.966,25.732,1.408,44.587-22.425,55.519
			c-9.242,1.389-23.32,3.294-32.627-0.692c-23.77-10.185-49.228-47.936-40.056-74.007
			C1703.245,1742.58,1713.329,1739.172,1720.949,1736.578L1720.949,1736.578z"/>
		<path fill="#B1541C" d="M2191.265,1749.793c4.562-0.431,15.493-1.807,19.448,0.622c35.728,21.917,82.947,79.33,9.69,91.257
			c-1.846-0.374-10.876-2.226-12.019-2.881c-16.93-9.738-67.469-48.991-60.122-70.031
			C2159.613,1756.921,2175.576,1754.136,2191.265,1749.793L2191.265,1749.793z"/>
		<path fill="#D81C0C" d="M2026.053,1557.154c24.343-1.886,70.732,0.378,96.031,2.622c6.981,2.998,24.091,9.925,30.23,13.536
			c33.102,14.068,45.545,11.448,74.9-7.024l3.56,4.035c37.573,13.031,56.448,12.294,94.79,18.492l1.252-0.4
			c23.467,4.457,136.714,11.486,165.081,11.789c19.006,1.299,47.878-1.143,66.951-4.18c83.848,0.486,160.444,3.938,245.039-1.6
			c21.445-2.029,44.187-6.246,62.402-18.152c4.46-5.552,3.296-3.815,11.997-5.87l10.679-0.492l13.579-2.954
			c34.365,14.578,42.847,19.58,36.255,59.758c-17.798,27.156-43.374,41.319-75.234,45.651
			c-87.913,11.956-194.985,3.554-285.161,1.211c-89.385-2.323-218.694,0.62-305.288-10.248c-23.862-2.855-47.109-9.547-68.84-19.815
			c-70.625,22.266-154.189,21.061-228.408,22.631c-42.752,0.945-85.484,2.587-128.184,4.925
			c-102.489,5.393-209.555,16.229-311.495,13.22c-34.82-1.029-67.129-7.584-98.556-23.226c-8.508-8.229-8.78-14.859-10.186-26.015
			l0.099-1.431l41.979,1.547c55.602,0.431,134.879,0.754,189.389-3.989c35.914-1.787,74.9-3.088,110.503-6.013
			c38.922-2.593,92.672-4.778,130.28-10.099c24.633-2.635,121.425-10.574,125.345-39.108l-3.65-4.633L2026.053,1557.154z"/>
		<path fill="#B4407B" d="M2558.848,1596.024c83.848,0.486,160.444,3.938,245.039-1.6c3.911,5.026,3.582,4.927,9.58,6.778
			c0.967,16.523,1.165,29.356,0.967,45.859l-2.241-0.193c-49.153,7.262-132.166,6.281-183.735,6.593
			c-44.956,0.356-93.977,0.141-138.735-2.87c1.011-16.782,1.736-33.58,2.175-50.387
			C2510.903,1601.503,2539.775,1599.062,2558.848,1596.024z"/>
		<path fill="#C35090" d="M2628.457,1653.462c0.044-5.956,0.154-11.912,0.33-17.866c0.264-8.134,0.088-16.048,6.196-21.765
			c20.764-5.776,155.369-9.945,175.056-4.523c2.703,9.846,2.087,26.822,2.153,37.56
			C2763.04,1654.13,2680.027,1653.149,2628.457,1653.462z"/>
		<path fill="#9B2F68" d="M2325.564,1588.815l1.252-0.4c23.467,4.457,136.714,11.486,165.081,11.789
			c-0.439,16.807-1.165,33.604-2.175,50.387c-49.548-0.094-114.236-5.75-164.751-9.101
			C2322.378,1625.842,2324.619,1605.184,2325.564,1588.815L2325.564,1588.815z"/>
		<path fill="#6D1743" d="M2230.774,1570.323c37.573,13.031,56.448,12.294,94.79,18.492c-0.945,16.369-3.186,37.026-0.593,52.675
			c-30.103-3.198-67.654-6.611-96.987-13.334C2227.434,1609.743,2229.258,1588.811,2230.774,1570.323z"/>
		<path fill="#9B2F68" d="M2888.965,1569.91c4.812,59.404-15.974,73.018-74.531,77.152c0.198-16.503,0-29.336-0.967-45.859
			c-5.999-1.85-5.669-1.752-9.58-6.778c21.445-2.029,44.187-6.246,62.402-18.152c4.46-5.552,3.296-3.815,11.997-5.87
			L2888.965,1569.91z"/>
		<path fill="#C35090" d="M2866.289,1576.273l8.503,1.301l1.274,2.96c-7.625,10.837-35.991,16.193-48.955,18.428
			c-4.526,0.782-9.075,1.53-13.645,2.24c-5.999-1.85-5.669-1.752-9.58-6.778C2825.332,1592.395,2848.074,1588.178,2866.289,1576.273
			L2866.289,1576.273z"/>
		<path fill="#4F1033" d="M2227.214,1566.288l3.56,4.035c-1.516,18.488-3.34,39.42-2.791,57.833
			c-25.752-7.512-99.826-13.756-75.669-54.844C2185.416,1587.38,2197.859,1584.76,2227.214,1566.288z"/>
		<path fill="#FDD024" d="M1891.015,1697.191c21.878-1.472,202.278,7.701,211.041,14.528l0.417,4.167
			c-7.519,11.795-38.74,22.334-53.638,28.853c-65.604,35.075-76.878,82.655-138.465-3.235
			c-8.613-12.011-29.591-14.571-31.687-32.747C1880.934,1702.431,1885.12,1700.888,1891.015,1697.191L1891.015,1697.191z"/>
		<path fill="#FDD024" d="M2902.456,1679.453c8.591-0.514,5.142-1.172,13.052,2.749c10.503,16.787-4.504,36.899-16.743,48.046
			l-43.242-18.378c-14.48-4.969-28.916-10.018-43.352-15.147C2846.448,1689.809,2866.003,1690.462,2902.456,1679.453z"/>
		
			<linearGradient id="SVGID_00000095308790995254467210000015343522524379101070_" gradientUnits="userSpaceOnUse" x1="2383.2144" y1="271.0537" x2="2226.0876" y2="872.2673" gradientTransform="matrix(1 0 0 -1 0 3002)">
			<stop  offset="0" style="stop-color:#58240C"/>
			<stop  offset="1" style="stop-color:#843C12"/>
		</linearGradient>
		<path fill="url(#SVGID_00000095308790995254467210000015343522524379101070_)" d="M2722.764,2250.308
			c-19.27-13.187-33.64-22.879-55.591-32.308c-11.909-5.121-31.794-4.11-38.958-9.341l0.417-3.846
			c17.578-15.259,142.515,30.418,168.75,39.604c8.833,19.231-2.593,70.264-11.689,89.561c-4.153,8.835-32.937,58.747-32.563,60.703
			c6.965,35.319,7.493,107.868,20.259,139.099c26.499,10.11,47.021-24.308,68.796-17.736c16.304,12.242,2.043,37.209,14.612,53.714
			c14.084,7.494,93.274,7.494,121.091,12.154c-53.13,10.681-137.461,10.835-193.425,15.802c-13.03,1.165-29.773-5.033-45.264-3.78
			c-27.444,2.22-61.458,12.286-88,13.736c-123.75,6.813-247.566,9.626-371.426,10.967c-187.183,2.396-374.399-0.044-561.458-7.363
			c-0.576-34.154-6.354-91.319,3.992-122.55c3.329-10.044,39.661-18.242,35.873-44.242c-7.17-49.253,3.992-154.022-7.838-198.176
			c15.774,6.637,117.993,7.802,141.376,8.396C2168.719,2261.363,2445.864,2259.89,2722.764,2250.308z"/>
		<path fill="#53220B" d="M1822.08,2259.011c26.723-0.703,26.273,13.583,23.922,37.759c-4.405,45.341-5.878,95.56-14.478,140.044
			l-1.756,1.758c-6.754-42.088-9.092-91.406-14.656-134.461C1812.852,2286.615,1811.285,2272.088,1822.08,2259.011L1822.08,2259.011
			z"/>
		<path fill="#53220B" d="M2350.02,2281.406c7.581-0.813,13.843-2.461,19.534,2.791c4.504,20.791,1.011,86.857-2.109,108.989
			l-5.537-1.099C2350.459,2377.296,2349.844,2302.352,2350.02,2281.406z"/>
		<path fill="#75A501" d="M2971.296,1834.826c23.533,17.624,47.571,32.633,36.958,65.765l-10.305,8.776
			c-13.799,17.87-4.307,21.598-11.799,33.022c-5.735,1.552-7.646,2.128-13.513,2.604c-0.901,7.642-2.153,14.262-1.077,21.855
			c-1.648,74.642-59.348,103.899-123.992,119.051c-109.819,25.736-226.626,31.279-339.06,36.299
			c-208.74,8.668-417.729,8.934-626.484,0.796c-102.685-3.952-436.395-9.857-501.532-79.092
			c-19.017-20.213-26.33-44.552-32.425-70.89l9.352-17.317c5.748-11.231,11.261-23.336,16.699-34.782
			c6.651-15.189,13.047-30.486,19.191-45.888l11-31.736c7.407,1.369,20.905,3.451,27.316,5.985
			c25.923-1.33,90.598,8.477,109.817,24.943c11.863,3.771,55.347,7.67,71.396,9.853c28.501-5.134,72.422-4.963,99.112,6.789
			c23.144,0.22,57.507,2.402,78.84,0.952c21.643-8.906,50.058-2.334,68.08,11.804c15.475-8.905,65.698-4.917,87.427-5.846
			c11.672-10.851,55.261-8.771,67.105,4.815l66.927,1.758c18.2-20.224,81.613-29.49,100.281-9.103
			c14.454-1.503,46.342-0.778,62.053-0.87c21.797-21.589,65.742-38.629,76.443,2.701c20.259,0.585,42.297-0.292,62.688-0.745
			c14.568-13.233,31.443-18.204,47.922-4.24c20.764,0.635,41.331,0.099,62.117-0.277c17.644-19.58,67.588-60.057,75.696-10.563
			c19.534,0.354,68.203,0.174,84.243,5.165c26.499-24.558,52.559-26.651,83.914-10.455c18.655-9.138,43.11-7.934,64.248-12.044
			c17.908-11.58,34.915-14.015,55.085-7.697c14.634-3.686,32.19-5.2,47.241-5.112
			C2932.493,1850.36,2945.171,1849.609,2971.296,1834.826L2971.296,1834.826z"/>
		<path fill="#E8620C" d="M2561.902,2006.479c25.334,14.317,66.445,12.589,94.9,7.396c25.071-4.578,15.381-29.719,25.093-47.029
			c21.951-10.897,44.275,42.323,77.52,42.187c38.342,2.714,45.527-30.958,64.885-49.793c22.039-21.442,93.669,37.152,121.509,5.89
			c13.843-15.53,0.461-29.934,11.755-39.501l6.021,1.479c2.351,4.578,7.295,13.521,9.053,17.886
			c-0.901,7.642-2.153,14.262-1.077,21.855c-1.648,74.642-59.348,103.899-123.992,119.051
			c-109.819,25.736-226.626,31.279-339.06,36.299c-208.74,8.668-417.729,8.934-626.484,0.796
			c-102.685-3.952-436.395-9.857-501.532-79.092c-19.017-20.213-26.33-44.552-32.425-70.89l9.352-17.317
			c11.663,9.796,22.113,13.758,35.279,19.631c47.786,21.314,64.8-17.866,104.629-27.664c22.928-5.642,36.773,34.75,52.987,44.734
			c15.315,10.38,14.401,9.255,32.106,11.393c46.039,5.562,56.501-30.147,92.949-37.338c23.893-4.712,24.478,36.04,40.37,46.857
			c34.26,23.312,59.79-14.826,90.461-19.798c18.776-3.042,23.673,21.253,35.743,29.125c35.567,23.202,67.61-17.464,99.51-23.444
			c10.375-1.947,22.511,9.11,30.907,15.789c24.943,19.42,48.421,28.738,80.09,25.527c39.12-3.969,33.245-50.743,64.404-56.532
			c16.04-2.98,36.8,27.729,51.049,37.09c37.162,24.407,53.356,6.657,70.759-26.253c1.67-3.114,12.019-10.02,14.832-8.837
			c32.542,13.67,61.15,40.844,99.229,38.178c17.886-0.993,26.917-24.114,32.3-30.09c18.062-20.083,62.754,34.769,104.172,27.338
			c37.441-6.719,17.512-17.952,33.662-45.811c2.263-3.916,5.713-3.306,9.404-3.514
			C2548.103,1979.121,2553.354,1991.828,2561.902,2006.479L2561.902,2006.479z"/>
		<path fill="#77320D" d="M2952.686,1883.171c9.888,15.095,9.338,26.035,10.898,43.936l-6.021-1.479
			c-11.294,9.567,2.087,23.971-11.755,39.501c-27.839,31.262-99.47-27.332-121.509-5.89c-19.358,18.835-26.543,52.508-64.885,49.793
			c-33.245,0.136-55.569-53.083-77.52-42.187c-9.712,17.31-0.022,42.451-25.093,47.029c-28.455,5.194-69.565,6.921-94.9-7.396
			c-8.547-14.651-13.799-27.358-29.641-34.402c-3.691,0.209-7.141-0.402-9.404,3.514c-16.15,27.859,3.779,39.092-33.662,45.811
			c-41.418,7.431-86.111-47.422-104.172-27.338c-5.383,5.976-14.414,29.097-32.3,30.09c-38.079,2.666-66.687-24.508-99.229-38.178
			c-2.812-1.182-13.162,5.723-14.832,8.837c-17.402,32.91-33.596,50.659-70.759,26.253c-14.249-9.36-35.009-40.07-51.049-37.09
			c-31.159,5.789-25.284,52.563-64.404,56.532c-31.669,3.211-55.147-6.108-80.09-25.527c-8.396-6.679-20.531-17.736-30.907-15.789
			c-31.9,5.98-63.943,46.646-99.51,23.444c-12.07-7.873-16.967-32.167-35.743-29.125c-30.672,4.972-56.202,43.11-90.462,19.798
			c-15.893-10.818-16.477-51.569-40.37-46.857c-36.448,7.191-46.909,42.901-92.949,37.339c-17.705-2.138-16.791-1.013-32.106-11.394
			c-16.214-9.984-30.059-50.376-52.987-44.734c-39.83,9.798-56.843,48.978-104.629,27.664c-13.166-5.872-23.616-9.835-35.279-19.631
			c5.748-11.231,11.261-23.336,16.699-34.782c91.477,53,82.835-21.829,128.834-17.347c17.013,1.659,25.618,26.919,35.369,38.593
			c8.677,10.387,19.804,15.58,33.051,17.163c53.686,6.409,79.967-41.848,107.339-38.178c20.568,2.756,19.136,30.136,29.5,43.523
			c24.522,31.668,75.015-23.055,96.607-20.042c15.631,2.18,16.418,21.631,24.77,31.989c26.332,32.666,75.103-20.868,102.092-23.558
			c22.871-2.279,49.535,41.396,96.056,47.11c68.111,8.367,48.423-39.213,75.234-57.857c28.244-19.64,52.444,45.572,86.678,51.628
			c47.147,8.345,31.568-35.479,53.211-48.842c2.329-1.431,6.46-2.266,9.229-1.912c11.426,1.457,54.25,38.409,80.706,45.002
			c49.285,12.27,33.75-28.261,57.612-42.644c16.106-2.046,26.982,11.998,42.429,21.141c19.402,11.483,44.011,22.782,67.236,17.609
			c19.534-4.352,8.657-31.086,17.776-47.339c4.043-3.059,11.184-7.47,15.688-5.204c26.147,13.119,27.532,47.912,65.215,49.094
			c15.667,0.49,53.24,3.767,65.874-5.848c15.776-12.026-0.659-37.607,17.424-50.941c45.461-9.305,46.56,82.125,134.736,21.092
			c0.044-9.169,0.022-15.075,1.165-24.222C2853.831,1883.765,2968.265,1996.297,2952.686,1883.171L2952.686,1883.171z"/>
		<path fill="#065D01" d="M2952.686,1883.171c-2.153-6.31-2.175-6.51-0.879-12.921c19.292-17.387,61.567-2.281,46.143,39.117
			c-13.799,17.87-4.307,21.598-11.799,33.022c-5.735,1.552-7.646,2.128-13.513,2.604c-1.758-4.365-6.702-13.308-9.053-17.886
			C2962.024,1909.207,2962.573,1898.266,2952.686,1883.171L2952.686,1883.171z"/>
		<path fill="#1F3C0A" d="M1711.949,1890.857c23.144,0.22,57.507,2.402,78.84,0.952
			C1760.555,1937.53,1740.491,1940.13,1711.949,1890.857z"/>
		<path fill="#1F3C0A" d="M2567.527,1881.244c19.534,0.354,68.203,0.174,84.243,5.165
			C2624.612,1909.699,2578.733,1932.18,2567.527,1881.244z"/>
		<path fill="#1F3C0A" d="M1858.869,1903.613c15.475-8.905,65.698-4.917,87.427-5.846c-21.476,35.692-42.416,38.022-75.562,14.756
			C1866.703,1909.66,1862.745,1906.688,1858.869,1903.613L1858.869,1903.613z"/>
		<path fill="#1F3C0A" d="M1541.441,1874.215c11.863,3.771,55.347,7.67,71.396,9.853
			C1585.121,1926.226,1555.638,1925.93,1541.441,1874.215z"/>
		<path fill="#1F3C0A" d="M2319.104,1897.068c20.259,0.585,42.297-0.292,62.688-0.745
			C2362.104,1939.837,2329.607,1954.894,2319.104,1897.068z"/>
		<path fill="#1F3C0A" d="M2013.401,1902.582l66.927,1.758C2057.265,1944.754,2028.672,1956.479,2013.401,1902.582z"/>
		<path fill="#1F3C0A" d="M2429.714,1892.083c20.764,0.635,41.331,0.099,62.117-0.277
			C2472.144,1928.952,2449.336,1929.963,2429.714,1892.083z"/>
		<path fill="#1F3C0A" d="M2735.684,1875.954c18.655-9.138,43.11-7.934,64.248-12.044c-5.273,12.266-7.185,19.655-20.281,26.13
			C2766.379,1896.607,2745.439,1886.108,2735.684,1875.954z"/>
		<path fill="#1F3C0A" d="M2180.608,1895.237c14.454-1.503,46.342-0.778,62.053-0.87
			C2220.996,1917.404,2201.946,1923.387,2180.608,1895.237z"/>
		<path fill="#065D01" d="M1404.308,1843.288c7.407,1.369,20.905,3.451,27.316,5.985c-8.191,13.011-19.059,35.07-38.316,25.752
			L1404.308,1843.288z"/>
		<path fill="#1F3C0A" d="M2855.017,1856.213c14.634-3.686,32.19-5.2,47.241-5.112
			C2893.03,1886.156,2875.342,1878.354,2855.017,1856.213z"/>
		<path fill="#77320D" d="M3053.035,1899.345c1.89,10.147,5.867,64.98,4.79,74.354l2.922,7.044
			c59.744,43.519,341.345,44.769,404.209,1.497l0.615,47.723l2.197-9.13c11.689-6.728,99.558,19.092,110.391,37.595
			c0.066,5.958,0.044,8.077-4.658,12.495c-28.345,26.732-185.273,48.756-230.713,54.943
			c-297.268,40.47-599.502,50.773-899.209,55.906c-394.115,6.75-791.409,0.963-1183.896-37.494
			c-71.038-6.961-378.284-37.537-413.246-81.824c-2.61-3.308-3.722-7.327-2.964-11.427c1.496-8.101,10.277-13.136,16.609-17.442
			c75.711,44.512,309.05,42.161,396.552,18.743c56.896-15.226,61.203-30.591,91.433-79.317c6.095,26.339,13.408,50.677,32.425,70.89
			c65.138,69.235,398.848,75.141,501.533,79.092c208.756,8.138,417.744,7.873,626.484-0.795
			c112.434-5.02,229.241-10.563,339.06-36.299c64.644-15.152,122.344-44.409,123.992-119.051
			c-1.077-7.593,0.176-14.213,1.077-21.855c5.867-0.477,7.778-1.053,13.513-2.604c7.493-11.424-2-15.152,11.799-33.022l10.305-8.776
			C3018.933,1901.241,3046.839,1904.615,3053.035,1899.345L3053.035,1899.345z"/>
		<path fill="#B2C7E3" d="M3465.571,2029.963c-1.033,7.69-3.538,17.437-10.195,22.24c-45.242,32.659-156.731,30.288-210.366,29.369
			c-41.111-0.703-148.997-8.24-178.748-37.956c-6.592-6.6-5.867-51.294-5.515-62.872c59.744,43.519,341.345,44.769,404.209,1.497
			L3465.571,2029.963z"/>
		
			<linearGradient id="SVGID_00000091007056572430813260000000250792970010255264_" gradientUnits="userSpaceOnUse" x1="3046.7991" y1="1096.9799" x2="3003.6667" y2="1022.7536" gradientTransform="matrix(1 0 0 -1 0 3002)">
			<stop  offset="0" style="stop-color:#B0571C"/>
			<stop  offset="1" style="stop-color:#CE6F2C"/>
		</linearGradient>
		<path fill="url(#SVGID_00000091007056572430813260000000250792970010255264_)" d="M3053.035,1899.345
			c1.89,10.147,5.867,64.98,4.79,74.354c-9.998-3.026-72.334-6.053-86.265-6.85c-1.077-7.593,0.176-14.213,1.077-21.855
			c5.867-0.477,7.778-1.053,13.513-2.604c7.493-11.424-2-15.152,11.799-33.022l10.305-8.776
			C3018.933,1901.242,3046.838,1904.615,3053.035,1899.345z"/>
		<path fill="#77320D" d="M3285.176,2209.648l4.878,1.341c10.854,24.286,20.808,209.978,22.983,246.132
			c0.923,15.143-35.31,7.583-46.56,13.626c-7.097,10.747-2.505,72.088-2.878,90.747c-67.126,8.176-168.574,16.791-235.92,17.275
			c-11.602,0.506-29.29,0.725-40.364,2l-9.426,1.143c-27.817-4.659-107.007-4.659-121.091-12.154
			c-12.568-16.506,1.692-41.473-14.612-53.714c-21.775-6.571-42.297,27.846-68.796,17.736
			c-12.766-31.231-13.293-103.78-20.259-139.099c-0.374-1.956,28.411-51.868,32.563-60.703c9.097-19.297,20.522-70.33,11.689-89.561
			C2839.9,2247.165,3264.39,2220.594,3285.176,2209.648L3285.176,2209.648z"/>
		<path fill="#53220B" d="M3018.428,2397.824c14.656,45.428,9.514,129.824,9.25,180.945c-11.602,0.506-29.29,0.725-40.364,2
			C2998.213,2519.868,3008.584,2458.879,3018.428,2397.824z"/>
		<path fill="#53220B" d="M2937.832,2245.428c5.361,1.011,15.447,2.264,16.853,8.264c6.46,27.472,2.307,92.285-8.569,116.725
			l-5.098-0.681C2926.384,2355.099,2926.692,2261.143,2937.832,2245.428L2937.832,2245.428z"/>
		<path fill="#53220B" d="M3084.104,2255.231c8.284,10.308,9.998,73.56-1.978,80.417c-7.427-16.351-14.612-55.428-9.272-73.802
			C3074.194,2257.253,3078.831,2257.055,3084.104,2255.231z"/>
		<path fill="#77320D" d="M1379.169,2231.494c45.332-11.758,151.807-41.851,193.904-36.198l2.373,2.16
			c-16.75,13.971-93.94,18.367-116.391,35.664l-0.903,0.681c4.944,31.802,9.108,118.396,10.848,152.813
			c2.547,50.396,12.463,148.462,9.453,194.835c-68.581,27.011-187.734,7.209-262.593-1.824c-15.453,0.132-54.576-5.802-71.462-7.978
			c-64.472-8.198-128.696-18.22-192.593-30.088c2.856-19.473,13.63-117.209,32.768-125.473c8.954-3.868,23.86,1.011,36.949-14.791
			c2.916-10.308-5.939-182.725-8.549-200.417C1041.783,2212.066,1345.823,2234.945,1379.169,2231.494L1379.169,2231.494z"/>
		<path fill="#53220B" d="M1379.169,2231.494c45.332-11.758,151.807-41.851,193.904-36.198l2.373,2.16
			c-16.75,13.971-93.94,18.367-116.391,35.664l-0.903,0.681c4.944,31.802,9.108,118.396,10.848,152.813
			c2.547,50.396,12.463,148.462,9.453,194.835c-68.581,27.011-187.734,7.209-262.593-1.824l1.479-2.747l36.732-1.78
			c-3.204-9.077-6.346-18.176-9.428-27.297c-2.815-8.374-9.279-25.604-5.254-33.714c13.164-8.088,34.378,12.747,50.873,13.406
			c21.788,0.857,27.084-46.989,39.847-62.242c7.519-8.989,12.599-12.857,21.294-20.066
			C1364.616,2386.505,1353.794,2285.494,1379.169,2231.494L1379.169,2231.494z"/>
		<path fill="#53220B" d="M1188.261,2299.341c36.077,14.615,26.213,63.428,21.028,95.143l-6.456,2.791
			c-10.606-1.494-12.938-8.044-13.801-17.978C1186.79,2353.429,1187.958,2325.209,1188.261,2299.341L1188.261,2299.341z"/>
		<path fill="#53220B" d="M1220.979,2385.055c3.467,0.879,5.093,2.33,8.092,4.33c10.703,17.516,8.119,51.604,3.654,70.769
			l-3.544-0.088C1215.841,2449.407,1218.269,2401.472,1220.979,2385.055L1220.979,2385.055z"/>
		<path fill="#77320D" d="M3617.666,2147.132c12.81,26.734,6.108,154.846,6.218,191.396c0.088,30.901,2.175,121.824-4.263,148.923
			c-39.133,12.044-78.201,24.374-118.411,32.308c-69.06,17.626-129.683,27.055-199.907,37.165l-15.469,1.626l-22.236,2.945
			c0.374-18.659-4.219-80,2.878-90.747c11.25-6.044,47.483,1.517,46.56-13.626c-2.175-36.154-12.129-221.846-22.983-246.132
			l-4.878-1.341c-49.197-13.675-112.654-15.901-171.562-32.983c49.57-3.343,198.391,16.051,249.39,23.202
			C3408.003,2198.439,3583.96,2167.982,3617.666,2147.132L3617.666,2147.132z"/>
		<path fill="#53220B" d="M3113.613,2176.666c49.57-3.343,198.391,16.051,249.39,23.202c4.153,30.857,23.137,219.275,34.475,229.033
			c0.571,0.483,1.187,0.901,1.78,1.341c22.302-7.978,19.731-72.461,37.903-82.857c19.116,1.868,24.126,39.802,27.62,55.429
			c6.877,1.143,22.588,3.428,25.84,10.22c7.559,15.868,14.26,91.406,10.591,106.725c-69.06,17.626-129.683,27.055-199.907,37.165
			l-15.469,1.626l-22.236,2.945c0.374-18.659-4.219-80,2.878-90.747c11.25-6.044,47.483,1.517,46.56-13.626
			c-2.175-36.154-12.129-221.846-22.983-246.132l-4.878-1.341C3235.979,2195.973,3172.522,2193.747,3113.613,2176.666
			L3113.613,2176.666z"/>
		<path fill="#77320D" d="M3285.835,2558.549c-2.571-12.637-7.251-27.912-2.241-39.494l3.472,0.198
			c7.756,9.89,11.492,25.406,14.238,37.67L3285.835,2558.549z"/>
		<path fill="#53220B" d="M3529.204,2359.253c17.007,12.066,11.294,62.747,5.01,80.439
			C3518.459,2430.286,3524.919,2375.297,3529.204,2359.253z"/>
		<path fill="#77320D" d="M1705.878,2245.824c15.585-14.352,64.077-42.879,85.917-36.418l0.275,3.429
			c-14.871,15.451-36.275,19.362-41.728,33.472c11.83,44.154,0.668,148.923,7.838,198.176c3.788,26-32.544,34.198-35.873,44.242
			c-10.347,31.231-4.568,88.396-3.992,122.549c-21.65-1.143-43.315-1.956-64.991-2.461c-55.044-3.846-127.837,3.209-174.872-27.363
			c3.01-46.374-6.906-144.439-9.453-194.835c-1.74-34.418-5.904-121.011-10.848-152.813
			C1473.387,2244.022,1672.642,2247.077,1705.878,2245.824z"/>
		<path fill="#53220B" d="M1705.878,2245.824c15.585-14.352,64.077-42.879,85.917-36.418l0.275,3.429
			c-14.871,15.451-36.275,19.362-41.728,33.472c11.83,44.154,0.668,148.923,7.838,198.176c3.788,26-32.544,34.198-35.873,44.242
			c-10.347,31.231-4.568,88.396-3.992,122.549c-21.65-1.143-43.315-1.956-64.991-2.461c19.984-19.428-8.451-184.417,1.716-199.912
			c15.633,4.835,27.644,33.429,46.531,31.934c3.015-3.055,4.474-7.648,4.271-11.912
			C1702.844,2365.868,1697.658,2308.813,1705.878,2245.824z"/>
		<path fill="#77320D" d="M595.556,2019.264c54.556,4.584,137.854,2.11,187.001,11.653c-62.187,12.36-134.925,8.09-198.15,18.859
			c-4.599,0.785-7.631,2.846-10.778,6.191c-14.208,46.565,99.661,69.242,131.531,75.527c62.884,2.534,189.516-3.49,244.925,7.132
			c-32.682,4.053-141.436,13.132-164.024,22.732c-3.094,49.851-30.959,302.817-5.726,331.235c0.455,0.506,0.936,0.989,1.393,1.517
			c1.835,2.044,3.617,4.154,5.469,6.198c-26.947-7.319-70.196-18.33-94.447-29.473c-33.466-9.978-109.426-55.406-130.436-78.725
			c-3.118-106.704-0.571-233.222,0.167-341.09C573.407,2034.607,578.832,2029.649,595.556,2019.264L595.556,2019.264z"/>
		<path fill="#53220B" d="M705.16,2131.494c62.884,2.534,189.516-3.49,244.925,7.132c-32.682,4.053-141.436,13.132-164.024,22.732
			c-3.094,49.85-30.959,302.818-5.726,331.235c0.455,0.506,0.936,0.989,1.393,1.517c1.835,2.044,3.617,4.154,5.469,6.198
			c-26.947-7.319-70.196-18.33-94.447-29.473l1.336-1.802c29.45,2.659,33.904,3.67,63.158,11.165
			c1.609-46.439,1.531-95.187,2.69-142.066c-39.144-18.725-41.131-55.165-46.024-94.286
			C709.319,2207.165,705.153,2168.35,705.16,2131.494L705.16,2131.494z"/>
		<path fill="#77320D" d="M787.197,2500.308c-1.852-2.044-3.634-4.154-5.469-6.198c-0.457-0.527-0.938-1.011-1.393-1.517
			c-25.233-28.418,2.632-281.385,5.726-331.235c20.529,16.528,146.661,31.418,177.926,33.237
			c72.323-21.356,142.187-38.945,217.74-28.132c-23.265,4.589-161.128,26.327-168.754,34.415
			c2.61,17.692,11.465,190.11,8.55,200.418c-13.089,15.802-27.996,10.923-36.949,14.791c-19.138,8.264-29.911,106-32.768,125.472
			c-25.396-6.813-61.117-13.428-87.68-19.121C838.929,2516.329,813.896,2506.637,787.197,2500.308L787.197,2500.308z"/>
		<path fill="#53220B" d="M963.987,2194.595c72.323-21.356,142.187-38.945,217.74-28.132
			c-23.265,4.589-161.128,26.327-168.754,34.415c2.61,17.692,11.465,190.11,8.55,200.418
			c-13.089,15.802-27.995,10.923-36.949,14.791c-19.138,8.264-29.911,106-32.768,125.472c-25.396-6.813-61.117-13.428-87.68-19.121
			c-0.288-26.681-17.123-199.67,1.004-209.758c20.008,10.681,21.186,104.989,23.902,130.439
			c14.111-5.363,74.977-26.923,73.868-42.461C957.742,2328.681,957.553,2267.121,963.987,2194.595z"/>
		<path fill="#77320D" d="M3740.361,2009.167c16.523,8.046,46.208,20.934,51.965,40.389c6.614,22.312,2.439,297.895,1.78,339.543
			c-18.984,28.967-61.545,53.209-93.296,66.791c-27.839,12-52.8,21.275-81.189,31.561c6.438-27.099,4.351-118.022,4.263-148.923
			c-0.11-36.55,6.592-164.662-6.218-191.396c-11.909-21.094-58.579-15.499-81.365-15.233l-7.91-6.2
			c40.583-1.009,83.694-6.013,125.464-7.262c6.021-1.207,12.129-0.745,18.259-1.558c35.266-4.672,81.584-12.563,101.975-44.958
			c4.329-6.862,5.801-12.022,4.021-19.708c-9.866-14.277-42.561-11.244-58.997-12.736c-40.781-3.705-84.463-1.947-124.607-9.646
			C3634.102,2018.705,3725.837,2015.897,3740.361,2009.167z"/>
		<path fill="#53220B" d="M3528.391,2125.699c40.583-1.009,83.694-6.013,125.464-7.262c9.844,0.222,19.644,0.561,29.487,0.227
			c5.098,107.204,15.952,231.951,17.468,337.226c-27.839,12-52.8,21.275-81.189,31.561c6.438-27.099,4.351-118.022,4.263-148.923
			c-0.11-36.55,6.592-164.661-6.218-191.396c-11.909-21.094-58.579-15.499-81.365-15.233L3528.391,2125.699z"/>
		<path fill="#77320D" d="M3536.301,2131.899c-17.029,0.053-35.266,0.679-52.053-1.58c6.636-2.686,35.991-4.413,44.143-4.62
			L3536.301,2131.899z"/>
		<path fill="#77320D" d="M1383.517,1447.686c-24.715-18.679-36.138-36.25-37.14-68.321c-2.193-70.068,34.69-136.358,82.701-186.387
			c162.167-168.987,418.986-213.976,643.489-225.033c237.771-7.284,565.317,23.84,746.284,192.187
			c56.909,52.956,107.402,129.112,109.929,209.132c1.033,32.024-5.339,52.473-26.785,75.292
			c29.048,19.079,70.84,34.943,45.374,74.064c-4.548,10.519-6.46,15.534-13.096,24.791c-8.921,13.332-17.38,16.626-31.729,23.545
			l-13.579,2.954l-10.679,0.492c-8.701,2.055-7.537,0.319-11.997,5.87c-18.215,11.906-40.957,16.123-62.402,18.152
			c-84.595,5.538-161.191,2.086-245.039,1.6c-19.072,3.037-47.944,5.479-66.951,4.18c-28.367-0.303-141.614-7.332-165.081-11.789
			l-1.252,0.4c-38.342-6.198-57.217-5.461-94.79-18.492l-3.56-4.035c-29.355,18.473-41.799,21.092-74.9,7.024
			c-6.139-3.611-23.249-10.538-30.23-13.536c-25.299-2.244-71.688-4.508-96.032-2.622l-4.663,14.167l3.65,4.633
			c-3.92,28.534-100.712,36.473-125.345,39.108c-37.609,5.321-91.358,7.506-130.28,10.099c-35.602,2.925-74.588,4.226-110.503,6.013
			c-54.51,4.743-133.787,4.42-189.389,3.989c-0.716-3.253-1.255-6.543-1.608-9.857c-1.235-11.941-3.263-26.042,4.199-35.165
			c-2.738-2.839-37.109-4.644-45.782-6.057l4.228-6.483l10.272-15.8c7.095-12.169,18.932-29.314,18.18-42.938
			c-6.486-17.051-32.964-27.431-49.298-23.677c-11.885,2.732-29.446,37.76-36.13,48.956c-17.93-8.672-48.116-18.591-50.603-40.532
			c8.326-30.396,24.941-43.376,55.611-51.4L1383.517,1447.686z"/>
		<path fill="#75A501" d="M1474.611,1444.134c76.212-5.358,172.092-0.536,250.247-0.229l579.766,6.804l263.694,2.565
			c18.171,0.253,90.593,0.178,104.48,3.717c19.775,0.508,43.286,0.534,62.512,3.187c16.633-1.202,48.494-1.763,64.731,1.172
			c40.188,1.268,68.093,5.917,101.953-16.793c29.048,19.079,70.84,34.943,45.374,74.064c-4.548,10.519-6.46,15.534-13.096,24.791
			c-8.921,13.332-17.38,16.626-31.729,23.545l-13.579,2.954l-10.679,0.492c-8.701,2.055-7.537,0.319-11.997,5.87
			c-18.215,11.906-40.957,16.123-62.402,18.152c-84.595,5.538-161.191,2.086-245.039,1.6c-19.072,3.037-47.944,5.479-66.951,4.18
			c-28.367-0.303-141.614-7.332-165.081-11.789l-1.252,0.4c-38.342-6.198-57.217-5.461-94.79-18.492l-3.56-4.035
			c-29.355,18.473-41.799,21.092-74.9,7.024c-6.139-3.611-23.249-10.538-30.23-13.536c-25.299-2.244-71.688-4.508-96.032-2.622
			l-4.663,14.167l3.65,4.633c-3.92,28.534-100.712,36.473-125.345,39.108c-37.609,5.321-91.358,7.506-130.28,10.099
			c-35.602,2.925-74.588,4.226-110.503,6.013c-54.51,4.743-133.787,4.42-189.389,3.989c-0.716-3.253-1.255-6.543-1.608-9.857
			c-1.235-11.941-3.263-26.042,4.199-35.165c-2.738-2.839-37.109-4.644-45.782-6.057l4.228-6.483l10.272-15.8
			c7.095-12.169,18.932-29.314,18.18-42.938c-6.486-17.051-32.964-27.431-49.298-23.677c-11.885,2.732-29.446,37.76-36.13,48.956
			c-17.93-8.672-48.116-18.591-50.603-40.532c8.326-30.396,24.941-43.376,55.611-51.4l4.926-4.523
			C1405.815,1443.381,1452.005,1442.809,1474.611,1444.134L1474.611,1444.134z"/>
		<path fill="#065D01" d="M1474.611,1444.134c76.212-5.358,172.092-0.536,250.247-0.229l579.766,6.804l263.694,2.565
			c18.171,0.253,90.593,0.178,104.48,3.717c-0.813,0.842-1.626,1.686-2.439,2.53c-11.821,10-10.679,32.464-24.038,41.064
			c-13.557,8.721-32.651-8.061-47.131-8.716c-15.535-1.046-26.367,17.844-41.418,15.739c-15.007-2.158-14.458-20.519-22.588-31.18
			c-12.371-16.901-37.749-14.009-56.052-13.196c-5.273,0.235-19.116,1.488-23.445,4.451c-15.425,10.558-20.874,29.956-37.266,40.637
			c-15.667,10.87-35.266,12.068-53.679,8.87c-36.321-6.312-20.347-54.404-58.206-59.78c-45.791-6.501-46.143,31.178-71.719,54.945
			c-2.637,2.453-9.734,4.259-13.206,3.25c-18.171-2.49-11.514-27.479-30.832-30.332c-20.114-2.972-24.645,22.646-42.513,17.466
			c-16.348-4.739-8.398-26.066-16.367-36.637c-11.802-13.49-35.181-9.558-50.786-10.275c-40.702-1.873-56.338,52.141-94.887,48.121
			c-15.642-1.631-19.696-20.492-27.872-32.635c-16.361-24.303-57.916-22.433-83.727-19.229
			c-24.875,5.672-3.463,67.484-48.661,59.785c-42.792-7.292-39.289-48.266-77.429-58.483c-21.795-3.721-59.452,9.657-82.369,10.747
			c-19.437,1.231-39.764-9.02-57.839-0.703c-19.101,8.787-30.259,27-48.841,38.464c-21.401,13.202-42.075,13.778-66.254,8.589
			c-8.361-1.793-12.988-3.98-17.253-11.163c-3.661-22.679,29.004-33.782,19.573-49.431c-7.328-3.596-11.138-2.705-19.321-2.396
			L1474.611,1444.134z"/>
		<path fill="#6D1743" d="M2792.439,1535.27c13.25,1.4,35.815,4.299,47.812,10.024c9.844,18.369,18.259,21.899,38.035,25.108
			c-8.701,2.055-7.537,0.319-11.997,5.87c-18.215,11.906-40.957,16.123-62.402,18.152c-84.595,5.538-161.191,2.086-245.039,1.6
			c-19.072,3.037-47.944,5.479-66.951,4.18c-28.367-0.303-141.614-7.332-165.081-11.789c1.165-3.459,1.846-3.866,3.999-7.018
			l17.952,1.193c9.316,1.743,18.303,3.824,27.729,4.02c29.377-5.545,44.231-14.4,63.149-36.917
			c14.172-0.147,34.277-0.717,47.878,0.899c9.8,67.281,62.556,22.719,88.088-2.092c23.159-2.253,20.764,2.139,39.661,14.448
			c35.046,22.835,51.57,10.268,61.238-25.706l49.702-1.323C2747.241,1555.411,2771.653,1553.807,2792.439,1535.27z"/>
		<path fill="#C35090" d="M2330.815,1581.398l17.952,1.193c9.316,1.743,18.303,3.824,27.729,4.02
			c60.71,4.248,121.509,7.387,182.351,9.413c-19.072,3.037-47.944,5.479-66.951,4.18c-28.367-0.303-141.614-7.332-165.081-11.789
			C2327.981,1584.956,2328.662,1584.55,2330.815,1581.398z"/>
		<path fill="#C35090" d="M1576.415,1578.466c16.686-0.193,41.658-1.321,57.632-0.622c4.592,0.246,18.512,0.486,21.85,2.818
			c2.05,19.123,2.984,31.323,3.015,50.512c-54.51,4.743-133.787,4.42-189.389,3.989c-0.716-3.253-1.255-6.543-1.609-9.857
			c-1.235-11.941-3.263-26.042,4.199-35.165c10.953,1.488,12.412,1.582,23.153-1.343l-14.634-0.523
			c16.174-3.198,33.392-4.22,47.815-7.682c13.14-0.393,26.273-1.009,39.395-1.846L1576.415,1578.466z"/>
		<path fill="#9B2F68" d="M1843.789,1565c13.181,0.525,43.436-1.969,56.373-3.906c-3.355,6.059-0.855,44.657-0.468,53.967
			c-37.609,5.321-91.358,7.505-130.28,10.099c-0.213-17.78-6.062-32.303-3.129-46.695c5.067-5.035,6.724-3.829,14.917-5.083
			C1808.671,1577.248,1818.218,1574.402,1843.789,1565z"/>
		<path fill="#B4407B" d="M1771.198,1566.569l10.004,6.813c-8.194,1.255-9.85,0.048-14.917,5.083
			c-2.933,14.391,2.916,28.914,3.129,46.695c-35.602,2.925-74.588,4.226-110.503,6.013c-0.031-19.189-0.965-31.389-3.015-50.512
			c7.049,1.013,22.476,1.668,27.703-3.756l-6.73-2.251C1703.795,1571.16,1742.328,1569.413,1771.198,1566.569L1771.198,1566.569z"/>
		<path fill="#6D1743" d="M1606.524,1531.237c14.843,0.105,30.393-0.138,45.099,1.378c12.803,28.242,39.601,28.372,58.533,5.87
			c13.243-3.385,33.26-4.332,46.885-4.554c2.375,13.668,5.807,21.42,14.157,32.637c-28.87,2.844-67.403,4.591-94.328,8.086
			l6.73,2.251c-5.227,5.424-20.654,4.769-27.703,3.756c-3.338-2.332-17.257-2.572-21.85-2.818
			c-15.974-0.699-40.946,0.429-57.632,0.622C1599.952,1568.275,1605.028,1555.037,1606.524,1531.237z"/>
		<path fill="#C35090" d="M1634.047,1577.844c10.468-2.094,31.405-2.591,42.822-3.189l6.73,2.251
			c-5.227,5.424-20.654,4.769-27.703,3.756C1652.559,1578.33,1638.639,1578.09,1634.047,1577.844z"/>
		<path fill="#6D1743" d="M1440.83,1561.8c44.121,8.248,45.332-27.266,78.102-22.121c15.475,2.428,14.528,26.079,48.909,39.068
			c-13.122,0.837-26.255,1.453-39.395,1.846c-14.423,3.462-31.641,4.484-47.815,7.681l14.634,0.523
			c-10.74,2.925-12.199,2.831-23.153,1.343c-2.738-2.839-37.109-4.644-45.782-6.057l4.228-6.483L1440.83,1561.8z"/>
		<path fill="#B4407B" d="M1426.331,1584.083l4.228-6.483c16.156,5.02,76.632,2.143,97.888,2.993
			c-14.423,3.462-31.641,4.484-47.815,7.681l14.634,0.523c-10.74,2.925-12.199,2.831-23.153,1.343
			C1469.375,1587.301,1435.004,1585.497,1426.331,1584.083z"/>
		<path fill="#4F1033" d="M1900.162,1561.094c9.156-0.473,26-4.062,35.589-5.815c18.543,45.747,54.365,56.919,85.638,16.042
			l3.65,4.633c-3.92,28.534-100.712,36.473-125.345,39.108C1899.308,1605.752,1896.807,1567.154,1900.162,1561.094z"/>
		<path fill="#6D1743" d="M2244.683,1549.813c21.489-1.506,54.207-4.517,75.234-1.035c8.811,17.967,12.48,22.268,28.85,33.813
			l-17.952-1.193c-2.153,3.152-2.834,3.558-3.999,7.018l-1.252,0.4c-38.342-6.198-57.217-5.461-94.79-18.492l-3.56-4.035
			c4.922-6.501,9.602-9.653,15.952-14.589L2244.683,1549.813z"/>
		<path fill="#B4407B" d="M2243.167,1551.699l11.843,0.182c3.142,4.455,3.01,10.176,2.9,10.064
			c14.392,14.917,54.36,15.661,72.905,19.453c-2.153,3.152-2.834,3.558-3.999,7.018l-1.252,0.4
			c-38.342-6.198-57.217-5.461-94.79-18.492l-3.56-4.035C2232.136,1559.787,2236.816,1556.635,2243.167,1551.699L2243.167,1551.699z
			"/>
		<path fill="#065D01" d="M2026.053,1557.154c1.312-13.679,1.65-24.15,11.483-34.506c12.114-5.171,64.457,8.04,81.916,11.2
			c8.211,7.938,4.711,15.527,2.632,25.927C2096.785,1557.532,2050.396,1555.268,2026.053,1557.154z"/>
		<path fill="#065D01" d="M2244.683,1549.813c7.778-15.754,19.006-44.209,36.035-50.275c4.614-1.646,9.69-1.389,14.128,0.714
			c16.458,7.835,21.16,32.58,25.071,48.525C2298.889,1545.297,2266.172,1548.308,2244.683,1549.813z"/>
		<path fill="#065D01" d="M2934.272,1543.411c-3.186-6.589-6.108-13.303-9.558-19.851c-5.977-11.378-29.993-27.152-22.456-39.611
			c13.381-7.094,28.564-3.615,39.265,6.941c7.427,7.323,6.218,18.092,5.845,27.729
			C2942.82,1529.139,2940.908,1534.154,2934.272,1543.411z"/>
		<path fill="#065D01" d="M2735.31,1460.178c16.633-1.202,48.494-1.763,64.731,1.172c-11.865,13.661-6.592,31.618-24.104,40.149
			C2755.371,1501.433,2750.603,1474.013,2735.31,1460.178z"/>
		<path fill="#065D01" d="M2676.511,1537.244c0.725-52.42,33.904-47.207,49.702-1.323L2676.511,1537.244z"/>
		<path fill="#B4407B" d="M1872.793,1542.631c21.16-1.02,38.687-0.422,59.913,0.345c0.839,4.086,1.455,8.565,3.046,12.303
			c-9.589,1.754-26.433,5.343-35.589,5.815c-12.938,1.936-43.192,4.431-56.373,3.906
			C1854.169,1559.523,1863.813,1550.398,1872.793,1542.631z"/>
		<path fill="#065D01" d="M2792.439,1535.27c20.94-37.85,43.901-34.171,47.812,10.024
			C2828.254,1539.569,2805.688,1536.67,2792.439,1535.27z"/>
		<path fill="#065D01" d="M2439.646,1549.695c15.908-33.033,42.253-43.07,47.878,0.899
			C2473.923,1548.978,2453.818,1549.547,2439.646,1549.695z"/>
		<path fill="#065D01" d="M1606.524,1531.237c5.179-39.317,33.913-34.405,45.099,1.378
			C1636.917,1531.099,1621.367,1531.343,1606.524,1531.237z"/>
		<path fill="#065D01" d="M1710.156,1538.486c10.573-34.552,41.26-41.576,46.885-4.554
			C1743.416,1534.154,1723.399,1535.101,1710.156,1538.486z"/>
		<path fill="#065D01" d="M1872.793,1542.631c18.123-23.36,46.365-32.38,59.913,0.345
			C1911.481,1542.209,1893.953,1541.611,1872.793,1542.631z"/>
		<path fill="#065D01" d="M1383.517,1447.686c22.298-4.305,68.489-4.877,91.094-3.552l1.624,3.358
			c-15.893,0.483-87.286,14.675-95.421,7.451c-1.481-1.317-1.351-1.299-2.224-2.734L1383.517,1447.686z"/>
		<path fill="#E8620C" d="M1376.618,1373.325c0.727-74.921,42.289-142.484,95.164-192.495
			c175.098-165.613,467.976-202.813,699.221-198.385c211.691,4.057,479.428,38.6,636.73,195.218
			c51.702,51.483,94.548,127.927,94.131,202.013c-10.305,63.677-68.445,57.694-118.389,57.604
			c-27.114-0.048-54.426-0.013-81.541-0.042l-322.383-0.701l-666.163-4.433c-89.576-0.897-179.741-0.695-269.345-1.655
			c-15.157-0.85-30.621-2.69-43.398-11.567C1383.893,1407.247,1380.309,1392.145,1376.618,1373.325L1376.618,1373.325z"/>
		<path fill="#FEC14E" d="M1376.618,1373.325l1033.014,1.767l316.472,0.778c23.401,0.04,168.618-2.266,175.759,3.807
			c-10.305,63.677-68.445,57.695-118.389,57.604c-27.114-0.048-54.426-0.013-81.541-0.042l-322.383-0.701l-666.163-4.433
			c-89.576-0.897-179.741-0.694-269.345-1.655c-15.157-0.85-30.621-2.69-43.398-11.567
			C1383.893,1407.246,1380.309,1392.145,1376.618,1373.325z"/>
		<path fill="#FFE5B1" d="M2334.001,1257.066c11.689,1.576,8.174-0.312,16.304,5.875c6.262,19.121-11.052,32.033-26.082,39.782
			c-7.668-0.982-8.701-1.103-14.502-6.11C2301.724,1277.562,2318.84,1265.031,2334.001,1257.066z"/>
		<path fill="#FFE5B1" d="M1976.052,1256.969c11.283,1.468,7.765-0.341,15.684,5.675c8.374,17.681-10.822,35.081-24.46,43.389
			c-7.009-1.624-7.196-1.974-12.777-6.811C1945.044,1281.512,1962.143,1265.64,1976.052,1256.969L1976.052,1256.969z"/>
		<path fill="#FFE5B1" d="M1490.124,1212.888c8.145-0.051,9.125-0.512,15.741,3.576c10.839,17.097-7.796,32.446-21.12,41.202
			c-9.751,0.231-11.151-0.341-17.637-5.754C1459.597,1235.013,1476.98,1220.439,1490.124,1212.888L1490.124,1212.888z"/>
		<path fill="#FFE5B1" d="M2365.269,1104.213c22.808,3.945,46.143,26.484,28.213,49.393
			C2367.114,1152.969,2349.163,1126.631,2365.269,1104.213z"/>
		<path fill="#FFE5B1" d="M1914.451,1182.712c11.793-1.347,16.642-3.277,24.774,6.178c1.464,15.883-13.687,24.101-25.55,30.697
			c-10.334,1.662-16.154,3.659-23.337-4.873C1888.488,1198.514,1902.434,1189.754,1914.451,1182.712z"/>
		<path fill="#FFE5B1" d="M2055.595,1164.965c12.197-0.16,16.965-1.615,24.188,8.976c0.459,16.593-13.478,21.393-26.453,25.908
			c-8.165-0.037-13.192,0.62-20.446-3.391c-5.19-6.294-4.113-3.255-4.056-11.391
			C2035.367,1171.451,2041.796,1170.108,2055.595,1164.965L2055.595,1164.965z"/>
		<path fill="#FFE5B1" d="M2794.373,1247.398c27.905,0.778,38.584,26.567,25.071,49.771
			C2791.362,1296.396,2780.925,1270.659,2794.373,1247.398z"/>
		<path fill="#FFE5B1" d="M2720.896,1174.013c22.852,4.222,43.352,28.945,22.896,50.079
			C2723.752,1219.457,2695.803,1189.835,2720.896,1174.013z"/>
		<path fill="#FFE5B1" d="M2475.396,1194.963c6.416,2.413,6.987,3.101,11.206,8.56c5.977,19.127-10.986,34.332-26.169,42.574
			C2431.384,1231.07,2454.39,1204.547,2475.396,1194.963z"/>
		<path fill="#FFE5B1" d="M1752.508,1269.765c7.141,1.314,8.295,1.398,13.476,6.374c6.513,18.204-9.382,31.881-23.728,40.143
			c-8.15-1.446-9.958-1.393-15.396-7.433C1718.776,1290.813,1738.171,1276.4,1752.508,1269.765z"/>
		<path fill="#FFE5B1" d="M1618.451,1219.431c7.701,2,8.431,1.824,13.166,7.719c5.495,17.552-11.654,32-25.763,38.976
			c-9.791-2.246-9.558-2.591-15.26-8.89C1585.149,1238.741,1603.83,1225.866,1618.451,1219.431L1618.451,1219.431z"/>
		<path fill="#FFE5B1" d="M2156.5,1273.791c25.488,1.217,43.996,22.497,30.401,47.565
			C2159.629,1321.556,2145.327,1298.262,2156.5,1273.791z"/>
		<path fill="#FFE5B1" d="M2595.103,1204.343c22.061-0.015,52.075,13.018,37.002,39.78
			C2609.912,1244.719,2577.48,1230.173,2595.103,1204.343z"/>
		<path fill="#FFE5B1" d="M1765.048,1142.114c25.018,0.719,45.666,18.941,36.156,45.378
			C1773.912,1189.268,1755.4,1168.108,1765.048,1142.114z"/>
		<path fill="#FFE5B1" d="M2219.919,1138.242c21.05-0.341,53.35,12.314,39.705,38.978
			C2235.652,1179.864,2207.725,1165.857,2219.919,1138.242z"/>
		<path fill="#FFE5B1" d="M1567.338,1136.503c8.172-0.717,13.669-1.899,21.318,1.332c5.533,5.455,4.392,2.765,4.981,9.811
			c-5.608,13.442-12.366,15.376-25.242,20.914c-8.545,0.565-15.319,1.883-22.702-2.53c-4.566-6.099-3.663-3.141-3.467-10.651
			C1548.729,1142.273,1553.906,1141.431,1567.338,1136.503z"/>
		<path fill="#FFE5B1" d="M2082.3,1072.675c13.043-0.024,17.699-1.053,24.194,10.167c-0.453,15.778-14.271,19.558-27.005,22.226
			c-11.92-0.429-17.773,0.473-24.493-9.989C2055.819,1079.512,2069.84,1076.317,2082.3,1072.675z"/>
		<path fill="#FFE5B1" d="M1622.248,1114.418c16.519-1.404,38.716-0.796,48.535,14.675c1.426,9.382,1.727,5.497-2.12,15.026
			C1647.573,1147.558,1611.795,1145.084,1622.248,1114.418z"/>
		<path fill="#FFE5B1" d="M1995.06,1031.07c9.149,0.317,14.01,0.949,18.903,8.791c-0.411,14.996-19.006,21.477-30.656,25.301
			c-10.701-0.483-19.222-0.013-22.584-11.503C1964.76,1038.584,1981.877,1033.989,1995.06,1031.07z"/>
		<path fill="#FFE5B1" d="M2617.932,1096.125c21.27,4.312,47.263,22.002,28.674,45.341
			C2623.469,1139.339,2598.113,1119.396,2617.932,1096.125z"/>
		<path fill="#FFE5B1" d="M1750.948,1044.299c10.123,0.712,15.111,0.354,18.881,10.073c-3.329,16.011-19.085,21.738-33.097,25.125
			c-9.954-1.042-14.311-1.662-18.664-10.747C1720.354,1053.077,1737.866,1047.543,1750.948,1044.299z"/>
		<path fill="#FFE5B1" d="M1865.316,1089.503c15.814-1.429,39.032,1.567,48.261,16.132c1.479,9.387,2.019,5.538-2.555,14.499
			C1889.339,1125.145,1856.918,1119.033,1865.316,1089.503z"/>
		<path fill="#FFE5B1" d="M2461.597,1044.154c19.292-1.448,59.084,2.796,45.681,31.433
			C2486.074,1079.073,2454.17,1072.64,2461.597,1044.154z"/>
		<path fill="#FFE5B1" d="M2177.44,1025.963c16.082-1.073,39.755,1.31,48.039,17.123c0.396,9.565,1.187,5.717-3.713,14.618
			C2200.144,1061.016,2170.052,1054.514,2177.44,1025.963z"/>
		<path fill="#FFE5B1" d="M2074.999,998.081c14.359-0.868,20.105-2.615,31.463,6.182c3.401,6.617,3.067,3.255,1.035,10.418
			c-5.186,6.358-9.892,7.646-17.332,10.789c-15.238,1.13-21.858,2.495-33.598-7.345c-2.725-6.995-2.734-3.589-0.011-10.563
			C2062.586,1001.473,2066.864,1000.829,2074.999,998.081L2074.999,998.081z"/>
		<path fill="#FFE5B1" d="M2239.915,1002.36c15.117-2.134,42.253-1.442,49.944,14.224c-0.11,8.534,0.747,5.134-4.504,13.092
			c-15.601,2.33-39.507,1.732-48.516-13.422C2235.718,1007.6,2235.278,1011.174,2239.915,1002.36z"/>
		<path fill="#FFE5B1" d="M1850.232,1018.035c10.87-0.853,18.352-3.02,26.611,5.259c2.769,15.389-10.58,19.494-22.507,24.657
			c-10.87,0.934-18.358,3.105-26.719-5.094C1824.82,1027.143,1837.874,1023.264,1850.232,1018.035z"/>
		<path fill="#53220B" d="M3102.319,1234.209c115.181-52.624,84.924,26.231,121.377,28.294
			c23.489-11.752,14.238-69.668,106.414-41.081c24.895,7.714,46.56,19.527,74.487,26.233c33.816,8.119,96.57-17.042,114.148,13.288
			c0.857,1.475,2.9,9.317,3.274,10.857c5.779-1.961,13.997-3.67,20.105-5.143c11.074,13.717,11.074,84.283,10.745,103.811
			c-1.165,70.257-27.905,135.796-42.891,203.802c-23.247,105.413-37.112,212.673-41.44,320.528
			c-0.967,16.499-1.538,33.02-1.736,49.547c-0.769,12.624-1.384,25.255-1.846,37.895c-62.864,43.273-344.465,42.022-404.209-1.497
			l-2.922-7.044c1.077-9.374-2.9-64.207-4.79-74.354c-7.8-86.332-21.665-173.04-41.462-257.479
			c-13.931-59.431-33.86-111.385-50.229-169.079c-17.974-63.347-20.039-143.701-15.535-208.879c7.427,2.82,9.954,4.207,18.018,4.712
			c7.251-5.114,5.647-8.971,9.844-19.87c17.227-18.176,47.505,2.486,74.312-0.6
			C3073.645,1245.196,3078.259,1243.121,3102.319,1234.209z"/>
		<path fill="#B1541C" d="M3102.319,1234.209c115.181-52.624,84.924,26.231,121.377,28.294
			c23.489-11.752,14.238-69.668,106.414-41.081c24.895,7.714,46.56,19.527,74.487,26.233c33.816,8.119,96.57-17.042,114.148,13.288
			c0.857,1.475,2.9,9.317,3.274,10.857c-13.447,4.18-27.224,7.141-41.177,8.848c-22.346,2.633-60.315,8.066-81.277,6.787
			c-70.378-7.842-134.209-10.453-204.763-7.167c-11.887,0.728-31.421-6.525-42.429-4.699
			c-33.926,5.635-89.868,41.934-118.938,11.193c-2.812-21.149,53.547-27.985,69.5-49.108L3102.319,1234.209z"/>
		<path fill="#E8620C" d="M3399.565,1287.435l0.571-2.266c1.34-0.6,2.659-1.198,3.999-1.798
			c18.611-1.558,61.084-10.442,76.707-2.723C3458.496,1283.281,3420.527,1288.714,3399.565,1287.435z"/>
		<path fill="#B1541C" d="M3252.019,1436.901c1.296,0.035,2.615,0.07,3.911,0.103l1.714,0.13
			c16.479,1.127,56.865,38.464,73.762,46.793c10.481,5.169,24.368,19.705,27.642,31.615c-1.604,21.679-58.579,84.547-75.674,100.044
			c-12.173,2.758-17.468,0.721-27.839-4.855c-17.6-9.49-81.475-52.941-78.135-73.431
			C3181.091,1514.615,3235.408,1451.068,3252.019,1436.901z"/>
		<path fill="#77320D" d="M3081.226,1611.275c10.305-11.666,35.486-18.277,50.911-19.49c16.963-1.334,17.556-1.121,29.817,9.209
			c19.666,7.514,40.386,15.09,59.744,23.114c10.129,105.114,42.451,108.536-88.923,126.457c-9.25,1.259-21.687,0.51-29.487-4.791
			C3094.146,1732.914,3075.271,1627.416,3081.226,1611.275z"/>
		<path fill="#B1541C" d="M3081.226,1611.275c10.305-11.666,35.486-18.277,50.911-19.49c16.963-1.334,17.556-1.121,29.817,9.209
			C3139.453,1605.75,3102.451,1615.44,3081.226,1611.275z"/>
		<path fill="#B1541C" d="M3133.63,1337.231c3.713-0.317,7.427-0.543,11.162-0.673c8.833-0.259,12.546,0.963,18.94,6.95
			c3.406,14.448,3.977,35.495,5.581,50.751c2,19.095,11.338,50.883,3.911,68.026c-14.062,8.11-79.299,17.224-98.723,20.477
			c-6.877,1.404-18.237,2.444-23.621-2.352c-19.666-17.558-25.752-118.778-13.337-134.633
			C3056.155,1337.376,3110.515,1338.064,3133.63,1337.231z"/>
		<path fill="#B1541C" d="M3340.261,1298.877c12.305-0.626,115.862,17.099,118.191,30.978c4.79,28.281-3.252,78.723-12.92,106.859
			c-2.988,8.688-8.481,11.202-16.326,14.286c-34.036-7.25-89.736-16.081-118.762-32.103
			C3297.942,1411.987,3327.649,1311.428,3340.261,1298.877z"/>
		<path fill="#77320D" d="M3327.034,1708.073c18.105,2.615,74.509,34.301,82.222,51.18c2.395,24.018-42.583,81.123-65.962,86.989
			c-12.393-4.431-76.926-43.723-83.782-58.112C3259.578,1769.396,3308.159,1713.516,3327.034,1708.073z"/>
		<path fill="#77320D" d="M3367.288,1553.743c9.866,1.36,66.951,13.418,70.972,20.754c15.645,28.692,9.426,58.56-14.502,80.719
			c-2.769,0.853-5.625,1.374-8.525,1.552c-17.007,1.187-66.907-7.444-65.984-31.081c0.352-8.721,5.823-20.892,7.559-30.101
			C3359.905,1578.925,3354.5,1567.169,3367.288,1553.743z"/>
		<path fill="#77320D" d="M3179.18,1885.139c10.195-0.618,33.091,4.899,38.474,13.695c13.711,22.488-16.106,42.273-31.003,53.853
			c-8.503,1.791-30.872-1.198-36.101-7.514C3134.663,1926.009,3166.853,1896.866,3179.18,1885.139L3179.18,1885.139z"/>
		<path fill="#FCF3E1" d="M777.19,1892.576c-18.378-44.059-49.232-157.664-48.303-203.268c0.325-10.745,4.854-20.932,12.608-28.372
			c6.976-2.163,4.513-2.543,9.868,0.211l2.393,11.949c-0.602,71.079,303.761,87.888,357.537,82.793
			c61.809-5.857,306.466-7.154,303.047-93.932l3.015-0.883l7.262,5.651c12.819,18.411,11.026,25.448,8.33,47.62l-2.553,17.099
			l-8.616,45.807l-4.342,20.697l-13.129,45.341l-10.999,31.736c-6.144,15.402-12.54,30.699-19.191,45.888
			c-5.438,11.446-10.951,23.552-16.699,34.782l-9.352,17.317c-30.23,48.725-34.536,64.09-91.433,79.317
			c-87.502,23.417-320.84,25.769-396.552-18.743c-22.603-18.873-39.964-51.046-54.105-76.558
			C795.239,1934.673,786.52,1915.526,777.19,1892.576L777.19,1892.576z"/>
		<path fill="#FD8700" d="M1259.681,1499.776c2.848-17.719,6.521-36.123,9.545-53.653c8.659-50.233,16.245-68.422,68.276-42.431
			c-5.216,31.492-11.206,62.855-17.96,94.055l3.439,5.862c2.487,21.941,32.673,31.859,50.603,40.532
			c6.684-11.195,24.245-46.224,36.13-48.956c16.334-3.754,42.812,6.626,49.298,23.677c0.752,13.624-11.085,30.769-18.18,42.938
			l-10.272,15.8l-4.228,6.483l-16.789,26.906c0.962,10.09-0.426,13.077,4.825,20.387c6.141,2.073,6.629,2.059,13.177,2.24
			l-0.099,1.431c1.406,11.156,1.679,17.787,10.187,26.015l-13.014,5.664l-7.262-5.651l-3.015,0.884
			c3.419,86.778-241.238,88.075-303.047,93.932c-53.776,5.094-358.139-11.714-357.537-82.793c4.109-24.631-14.15-34.963,4.309-72.85
			c12.834,17.057,28.523,39.062,42.754,54.306c55.54-39.367,26.479-38.644-1.149-91.372c8.78-7.756,19.982-17.464,31.537-19.84
			l3.041,0.306c13.981-6.941,35.453-16.866,46.764-27.207c1.455-1.33,0.552-5.424,0.391-8.213
			c15.166-7.165,30.876-13.903,44.615-23.448l5.183,7.167l-2.826,3.279l29.318,5.877l4.669-3.683
			c9.784,2.523,14.346,5.679,20.459-3.589c1.008-9.574-8.055-31.624-11.43-42.413l27.905-1.602
			c3.516,12.077,10.024,43.622,18.602,49.167c8.378-1.16,27.132-3.325,34.996,0.756c51.721,26.838,100.283,62.292,151.389,89.503
			c11.914,6.343,30.155-32.596,32.979-40.235c-27.275-18.317-54.521-34.378-81.112-52.031c0.235-15.921,0.547-31.602,0.145-47.532
			c8.281,2.073,12.547,2.903,20.366,6.796c-1.54,10.659-3.595,22.855-4.531,33.435c15.855,17.464,30.081,24.776,51.159,35.433
			c1.723-11.378,3.485-25.769,5.779-36.807C1240.174,1491.333,1249.75,1493.733,1259.681,1499.776L1259.681,1499.776z"/>
		<path fill="#FDD024" d="M1259.681,1499.776c2.848-17.719,6.521-36.123,9.545-53.653c8.659-50.233,16.245-68.422,68.276-42.431
			c-5.216,31.492-11.206,62.855-17.96,94.055l-4.889,31.248c-4.054,18.569-6.664,46.398-13.515,62.444
			c-6.568,5.259-6.251,3.864-15.135,5.169c-2.197,5.297,4.92,21.659,7.319,28.763c-77.801,31.472-152.855,68.532-229.922,99.171
			c-10.097-13.035-17.851-26.593-25.299-41.233c21.553-21.622,135.27-66.475,170.079-84.982
			c11.145-5.925,33.987-13.932,42.86-22.692C1248.493,1552.356,1255.553,1523.508,1259.681,1499.776L1259.681,1499.776z"/>
		<path fill="#FDD024" d="M1373.583,1544.141c6.684-11.196,24.245-46.224,36.13-48.956c16.334-3.754,42.812,6.626,49.298,23.677
			c0.751,13.624-11.085,30.769-18.18,42.938l-10.272,15.8l-4.228,6.483l-16.789,26.905c-22.3,23.888-39.702,68.829-69.893,98.728
			c-15.735,0.828-36.879,2.398-48.595-9.919c-7.374-16.791,12.86-35.727,21.603-49.433c15.192-23.82,38.58-55.051,46.817-82.196
			L1373.583,1544.141z"/>
		<path fill="#FDD024" d="M928.378,1495.224l29.318,5.877c3.237,1.44,6.702,2.974,9.081,5.693
			c10.261,11.714-4.474,108.549-5.517,130.022c-17.207-19.31-34.655-38.402-52.341-57.275
			C909.875,1558.086,909.049,1505.776,928.378,1495.224L928.378,1495.224z"/>
		<path fill="#FCA803" d="M1414.34,1661.958c-1.969-7.002,0.371-20.321,5.205-26.233l7.899-0.679
			c1.406,11.156,1.679,17.787,10.186,26.016l-13.014,5.664l-7.262-5.651L1414.34,1661.958z"/>
		<path fill="#FDD024" d="M858.032,1546.903c26.519,1.083,102.863,112,123.546,134.606c24.308,26.567,22.667,52.09-16.552,60.336
			c-21.538-4.468-45.973-41.237-56.12-59.279c-10.848-19.292-84.604-96.279-84.777-106.459
			C831.458,1562.859,845.459,1555.073,858.032,1546.903z"/>
		<path fill="#FDD024" d="M1039.504,1508.048l5.739,0.501c10.083,10.967,32.219,108.822,36.767,129.352
			c-15.269,12.571-25.879,17.859-44.051,25.418c-8.24-1.727-10.975-5.424-12.489-13.923c-7.372-41.363-22.353-83.846-29.239-124.837
			C1003.271,1514.611,1027.081,1510.989,1039.504,1508.048L1039.504,1508.048z"/>
		<path fill="#FDD024" d="M1203.66,1679.286l10.301-0.582c12.804,11.666,4.375,43.628-6.625,54.842
			c-8.657,8.828-18.927,8.991-30.089,10.064c-23.544-7.714-16.629-23.903-14.715-45.864
			C1177.086,1689.688,1188.283,1685.411,1203.66,1679.286z"/>
		<path fill="#FCF3E1" d="M3048.64,1129.666c139.746-17.528,254.993-14.967,393.354-0.273c23.73,2.897,84.792,6.462,88,37.154
			c0.989,15.69,15.469,94.321,12.129,100.11c-6.108,1.473-14.326,3.182-20.105,5.143c-0.374-1.541-2.417-9.382-3.274-10.857
			c-17.578-30.33-80.332-5.169-114.148-13.288c-27.927-6.705-49.592-18.519-74.487-26.233
			c-92.175-28.587-82.925,29.33-106.414,41.081c-36.453-2.064-6.196-80.919-121.377-28.294
			c-24.06,8.912-28.674,10.987-54.338,13.941c-26.807,3.086-57.085-17.576-74.312,0.6c-4.197,10.899-2.593,14.756-9.844,19.87
			c-8.064-0.505-10.591-1.892-18.018-4.712c0.835-32.055,7.449-68.796,7.053-99.697
			C2960.046,1134.602,3022.603,1132.481,3048.64,1129.666z"/>
		<path fill="#FCF3E1" d="M3048.64,1129.666c139.746-17.528,254.993-14.967,393.354-0.273l2.175,7.976
			c7.822,2.174,14.326,2.903,19.402,8.8l-1.472,3.558c-41.396,24.963-431.873,28.253-459.932,0.985l0.439-3.486
			c10.283-7.76,32.827-9.995,46.143-11.873L3048.64,1129.666z"/>
		<path fill="#B2C7E3" d="M3048.64,1129.666c139.746-17.528,254.993-14.967,393.354-0.273l2.175,7.976
			c-101.272-14.301-292.874-12.71-395.42-2.015L3048.64,1129.666z"/>
		<path fill="#B2C7E3" d="M2952.861,1164.211c7.185-29.609,69.741-31.73,95.779-34.545l0.11,5.688
			c-13.315,1.877-35.859,4.112-46.143,11.873l-0.439,3.486c28.059,27.268,418.535,23.978,459.932-0.985l1.472-3.558
			c-5.076-5.897-11.58-6.626-19.402-8.8l-2.175-7.976c23.73,2.897,84.792,6.462,88,37.154
			C3441.731,1187.562,3025.305,1195.415,2952.861,1164.211L2952.861,1164.211z"/>
		<path fill="#FDD024" d="M1087.269,1319.209c20.019-0.701,40.052-1.053,60.084-1.057c1.053,40.98,9.708,96.853,8.945,131.29
			c0.402,15.93,0.09,31.611-0.145,47.532c26.591,17.653,53.837,33.714,81.112,52.031c-2.823,7.64-21.065,46.578-32.979,40.235
			c-51.106-27.211-99.668-62.666-151.389-89.503c-7.864-4.081-26.618-1.917-34.996-0.756c-8.578-5.545-15.086-37.09-18.602-49.167
			c-10.78-34.273-22.142-68.358-34.082-102.244c19.327-6.163,37.681-9.523,57.527-13.519c6.33,17.785,24.497,80.466,27.519,97.996
			c21.988-5.978,29.274,4.945,44.284,0.756c5.429-5.409,3.808-6.574,4.476-15.89
			C1096.203,1386.773,1088.895,1346.655,1087.269,1319.209L1087.269,1319.209z"/>
		<path fill="#FD8700" d="M1099.022,1416.912c2.101,17.626,3.913,31.261,3.841,49.108c-9.371-5.156-46.573-23.475-51.159-28.224
			l-1.441-5.75c21.988-5.978,29.274,4.945,44.284,0.756C1099.975,1427.393,1098.354,1426.229,1099.022,1416.912z"/>
		<path fill="#FDD024" d="M700.396,1518.363c4.199-4.976,19.299-24.58,23.526-26.985c27.879-15.859,48.716,33.18,61.747,50.257
			c4.97,6.512,9.897,15.213,14.001,21.545c27.628,52.727,56.69,52.004,1.149,91.371c-14.232-15.244-29.92-37.248-42.754-54.306
			C741.276,1579.332,716.269,1541.119,700.396,1518.363z"/>
		<path fill="#FDD024" d="M879.366,1346.672c14.414-5.029,39.223-9.932,54.87-13.424c13.212,38.295,22.458,77.055,37.158,118.167
			c3.375,10.789,12.439,32.839,11.43,42.413c-6.113,9.268-10.674,6.112-20.459,3.589l-4.669,3.684l-29.318-5.877l2.826-3.279
			l-5.183-7.167C907.906,1437.659,890.877,1395.941,879.366,1346.672z"/>
		<path fill="#FCA803" d="M931.203,1491.945c8.295,1.264,23.755,3.193,31.162,5.473l-4.669,3.683l-29.318-5.877L931.203,1491.945z"
			/>
		<path fill="#FDD024" d="M1196.24,1363.527c12.795,1.303,42.407,3.198,52.398,7.275c0.85,13.668-16.57,95.628-19.567,117.497
			c-2.294,11.037-4.056,25.429-5.779,36.807c-21.078-10.657-35.303-17.969-51.159-35.433c0.936-10.58,2.991-22.776,4.531-33.435
			C1181.503,1425.62,1190.314,1394.384,1196.24,1363.527z"/>
		<path fill="#FDD024" d="M794.101,1441.382c79.337-48.495,51.104,15.196,87.304,66.844c0.16,2.789,1.064,6.883-0.391,8.213
			c-11.312,10.341-32.783,20.266-46.764,27.206l-3.041-0.306C815.821,1508.156,805.748,1478.072,794.101,1441.382L794.101,1441.382z
			"/>
	</g>
</g>
</svg>
