<?xml version="1.0" encoding="utf-8"?>
<!-- Generator: Adobe Illustrator 27.9.0, SVG Export Plug-In . SVG Version: 6.00 Build 0)  -->
<svg version="1.1" id="svg" xmlns="http://www.w3.org/2000/svg" xmlns:xlink="http://www.w3.org/1999/xlink" x="0px" y="0px"
	 viewBox="0 0 5652 3000" enable-background="new 0 0 5652 3000" xml:space="preserve">
<g>
	<g>
		<rect id="SVGID_1_" width="5652" height="3000"/>
	</g>
	<g>
		<defs>
			<rect id="SVGID_00000145040822304206399180000006287840194852421524_" width="5652" height="3000"/>
		</defs>
		<clipPath id="SVGID_00000109720241912060983640000001266821850314303112_">
			<use xlink:href="#SVGID_00000145040822304206399180000006287840194852421524_"  overflow="visible"/>
		</clipPath>
		<g clip-path="url(#SVGID_00000109720241912060983640000001266821850314303112_)">
			<path fill="#191919" d="M0,0h5652v3000H0V0z"/>
			<path fill="#FECC3E" d="M4112,213c9-16,23-46,41-50c21-4,65,6,87,10c219,43,465,155,652,275c9,6,18,12,26,17c16,10,29,18,44,29
				c192,126,437,360,534,569c20,34,39,67,54,103c4,8,9,20,13,27c6,17,21,55,8,75c-15,23-47,35-74,45c-36,15-68,26-106,40
				c-29,11-75,24-105,34c-31,35-34,3-62,30c-9,13-9,36-26,45c-17,0-25-16-33-29c-44,20-47,55-46,99c-4-14-7-12-20-13
				c0-22,0-77-35-62c-22,40-18,144-13,188c-7-10-5-9-15-11c-15,6-10,12-17,21c0-29-12-192-80-138c-19,15-18,77-16,100
				c-1,35,28,93,8,121c-13,18-55-4-45-35c3-9,5-38,8-49c2-30-3-70-21-94c-10-14-27-17-38-2c-47,65-50,169-54,247c-1,42,19,87,21,128
				c-13,32-51,42-63,12c-10-26,13-71,13-103c-1-80,2-205-59-265c-32-15-56,25-65,47c-7,18-17,50-27,58c-47,41-43,99-45,156
				c-1,15,2,37,6,52c7,43,42,80-16,99c-7,12-15,27-18,42c-24,109-38,230-23,340c4,27,35,80-13,95c-18,6-43-18-43-35
				c-3-30,8-59,10-89c6-92,25-246-45-318c-41-34-137,2-162,39c-28,41-33,96-35,145c-1,13,3,83-38,59c-15-9-10-52-15-67
				c-17-76-45-172-139-173c-70-1-105,63-105,126c-1,45,49,91,11,134c-28,32-79-4-70-34c17-61,26-114-15-170c-24-33-69-18-94,8
				c-90,102-96,264-104,394c-3,63,8,143,30,201c11,29,28,65,34,94c-3,18-7,22-25,30c-38,17-232,21-256-3l-3-11c-19-2-39,13-49,29
				c-43-3-291,13-308-24c7-29,90-31,116-34c68-8,137-15,205-16c42-1,84,1,126,3c80-52,93-171,92-258c-1-94-5-227-72-301
				c-37-41-92-27-125,11c-65,72-85,178-69,272c6,35,19,68,21,103c3,43-45,71-76,37c-16-18-5-50,1-70c23-72,17-138-33-197
				c-37-44-78-13-126-24c-34-7-29,26-43,41c-4,5-22,13-30,11c-34-12-25-71-18-96c7-11,19-17,13-32c-4-9-1-17,1-26c5-24,26-31,37-52
				c8-15,8-37,18-52c8-12,32-30,36-43c9-26,3-56,25-78c9-13,34-32,35-44l-2-2c-48-37,17-49,39-69c14-21,28-39,31-64c3-16,5-25,14-39
				c-57-24-2-72,23-98c-14-30-4-39,23-52c2-39-19-70,16-97c16-13,21-20,24-40c-20-46-40-15-55-49c-17-39,43-38,46-54
				c7-47,0-113-16-159c-12-30-30-63-55-84c-10-8-36-9-39-25c-5-16,22-31,26-41c22-74-35-64-80-80c-17-6-17-39-6-53
				c50-61,117,21,168,38c23,8,47,4,71,1c106-17,168,4,240,85c9,4,12,4,22,3c2-2,7-6,9-8c5-8,12-22,17-31c16-26,31-40,53-60
				c8-18,12-25,16-44c-1-22,2-22,7-43c10-32,36-39,36-73c0-8,20-18,28-22c-4-7-7-15-10-23c11-19,29-36,45-50c10-22,8-38,26-57
				c-15-19-12-45,16-49c16-22,18-47,29-73c7-16,13-26,22-40c-12-9-13-10-13-25c3-5,73-87,78-90c6-12,12-24,18-36c0-12,1-24,1-37
				C4080,286,4095,239,4112,213L4112,213z"/>
			<path fill="#F63010" d="M4112,213c9-16,23-46,41-50c21-4,65,6,87,10c219,43,465,155,652,275c9,6,18,12,26,17c16,10,29,18,44,29
				c192,126,437,360,534,569c20,34,39,67,54,103c4,8,9,20,13,27l-6-1c-3,6-4,11-6,18h-3l-9,9l-5,1c-45-34-96-17-143,3
				c-32,14-49,19-84,11c-4-3-34-49-39-56c-7-9-15-18-22-26c-9-12-27-27-33-39c-32-13-56-24-92-10c-8,3-28,17-33,15c-5-14-9-20-23-26
				c-15-6-66-19-80-18l-2,1c-1,21,1,33-15,48c-10,10-40,24-46,30l2,5c-8,13-31,31-48,55c-15,8-21,10-38,14c-6-5-21-18-27-22
				c2,6,7,17,8,23c-5,10-12,64-10,76c-9,14-21,28-36,35c-50,31-128,35-186,34c-14-2-27-6-41-9c-15-5-29-11-43-19c-30-18-44-37-52-70
				c-4-47,11-54,17-84c10-10,29-32,39-39c12-22,15-38,9-62l3-3c-16-21-23-28-45-42c-10-3-19-8-29-11c-53-16-95-12-147,0
				c-13-14-57-18-77-20c-39,10-94,35-127-2c-28-32-15-54-60-75c-46,9-81-5-124-9c-37-4-81,2-117,8c-1-22,2-22,7-43
				c10-32,36-39,36-73c0-8,20-18,28-22c-4-7-7-15-10-23c11-19,29-36,45-50c10-22,8-38,26-57c-15-19-12-45,16-49c16-22,18-47,29-73
				c7-16,13-26,22-40c-12-9-13-10-13-25c3-5,73-87,78-90c6-12,12-24,18-36c0-12,1-24,1-37C4080,286,4095,239,4112,213L4112,213z"/>
			<path fill="#FEA41B" d="M4112,213c9-16,23-46,41-50c21-4,65,6,87,10c219,43,465,155,652,275c9,6,18,12,26,17c16,10,29,18,44,29
				c192,126,437,360,534,569c20,34,39,67,54,103c4,8,9,20,13,27l-6-1c-3,6-4,11-6,18h-3l-9,9l-5,1c-45-34-96-17-143,3
				c-32,14-49,19-84,11c-4-3-34-49-39-56c-7-9-15-18-22-26c-9-12-27-27-33-39c-3-67-87-113-145-128c-12-5-22-10-24-24
				c2-40-11-49-41-72c-11-12-11-35-19-54c-12-16-19-22-36-32c-11,1-23,2-33,3c-34-16-46-57-77-88c-35-34-55-39-90-66
				c-25-22-46-43-81-51c-10-2-29-4-36-9c-50-36-38-55-106-65c-9,0-27,0-35,2c-11,1-15,1-25,0c-30-29-41-39-76-61c-10-6-20-11-31-16
				c-59-26-111-43-175-54l-11-2c-10-1-23-3-32-5c-12-11-50-29-65-36c0-12,1-24,1-37C4080,286,4095,239,4112,213L4112,213z"/>
			<path fill="#FECC3E" d="M4358,451c49-50-52-50-58-86c8-22,31-17,48-11c25,8,52-3,76-10c43-14,89-13,131,7c15,7,31,19,20,38
				c-8,13-29,19-33,33c17,19,47,17,65,34c13,13,15,41,33,45c21-7,21-56,37-56c70,1,8,79,42,102c17,12,40-10,56,8c16,16,16,53,45,51
				c9-1,23-25,29-32c12-16,25-25,46-17c22,10,5,50,22,63c36,16,97-26,117,30c4,12-1,40,8,55c13,23,40,19,41,49c1,12-14,42-1,49
				c24,13,82-15,93,21c6,20-36,34-39,59c10,52,97-18,111,30c8,27-43,45-19,81l6,3c20,23,28,33,45,58c6-8,14-22,23-25
				c43-1,80,140-23,146l-7,2c-7-9-15-18-22-26c-9-12-27-27-33-39c-3-67-87-113-145-128c-12-5-22-10-24-24c2-40-11-49-41-72
				c-11-12-11-35-19-54c-12-16-19-22-36-32c-11,1-23,2-33,3c-34-16-46-57-77-88c-35-34-55-39-90-66c-25-22-46-43-81-51
				c-10-2-29-4-36-9c-50-36-38-55-106-65c-9,0-27,0-35,2c-11,1-15,1-25,0c-30-29-41-39-76-61C4378,461,4368,456,4358,451L4358,451z"
				/>
			<path fill="#FF8800" d="M4749,651c34,4,39,22,65,33c37,15,67,21,104,40c16,8,51,37,59,39c8-12-13-43-5-67c6-7,3-5,12-7
				c43,7,85,100,39,129c-12,7-24,3-36,14c-12-16-19-22-36-32c-11,1-23,2-33,3c-34-16-46-57-77-88C4803,683,4784,678,4749,651
				L4749,651z"/>
			<path fill="#FFC04B" d="M4388,467c13,0,35,3,45-6c1-1,9-20,9-20c31-25,65,39,75,60c3,6,6,17,9,25c-9,0-27,0-35,2c-11,1-15,1-25,0
				C4435,499,4424,489,4388,467z"/>
			<path fill="#FEE8A0" d="M5046,960l1-2c24-41-35-59-25-96c11-3,24,19,31,25c22,20,45,72,17,97C5057,979,5047,974,5046,960
				L5046,960z"/>
			<path fill="#FECC3E" d="M4112,213c13,16,86,12,95,42c-7,21-55,24-43,44c14,24,85,84,18,98l-11-2c-10-1-23-3-32-5
				c-12-11-50-29-65-36c0-12,1-24,1-37C4080,286,4095,239,4112,213z"/>
			<path fill="#FFC04B" d="M4076,317c34,6,87,17,95,58c1,7,3,13,1,20c-10-1-23-3-32-5c-12-11-50-29-65-36
				C4075,342,4076,329,4076,317L4076,317z"/>
			<path fill="#FF8800" d="M5276,1176c9,1,13,0,18,7c19,24,32,62,67,31c30-27,51-65,96-61c37,4,69,34,83,66l-5,1c-45-34-96-17-143,3
				c-32,14-49,19-84,11c-4-3-34-49-39-56L5276,1176z"/>
			<path fill="#FE6A0F" d="M4963,495c-15,27-117,58-143,47c-6-6-5-3-6-11c8-27,77-62,106-65C4935,476,4948,484,4963,495L4963,495z"
				/>
			<path fill="#FE6A0F" d="M5225,994c6-36,74-58,91-36c0,22-66,40-85,40L5225,994z"/>
			<path fill="#FECC3E" d="M5497,1064c20,34,39,67,54,103c4,8,9,20,13,27l-6-1c-3,6-4,11-6,18h-3c0-3,0-19-1-20c-18-33-47-63-58-100
				C5488,1078,5491,1074,5497,1064z"/>
			<path fill="#FECC3E" d="M4279,730l30,10l1,1c12,7,15,10,25,19c6,9,12,17,17,26c25-7,77,9,105,12c44-1,53,13,94,20c26,4,61-7,87-9
				c27-2,55,4,83,3c26-1,58-31,82-19c10,16-6,39-20,47c-17,10-44,12-63,18c-66,17-122,69-93,141c-36,0-73,11-66,55v2c1,8,1,17,3,24
				c-6-4-7-4-13-6l-4,4c-4,7-5,9-11,12c-9,0-9-1-16-6c-16-21-23-28-45-42c-10-3-19-8-29-11c-53-16-95-12-147,0c-13-14-57-18-77-20
				c-39,10-94,35-127-2c-28-32-15-54-60-75c-26-28-5-47,17-67l-3-4c8-12,12-17,22-28c13-4,30-8,43-11c39-8,53-10,93-2l1-19
				C4208,765,4241,732,4279,730L4279,730z"/>
			<path fill="#FF8800" d="M4052,868c16-8,35-16,54-10c23,7,22,66,59,51c25-10,41-33,73-20c19,5,23,31,37,40c26,18,74,1,91,34
				c9,18-16,30-29,34c-34,11-83,5-115,17c-39,10-94,35-127-2c-28-32-15-54-60-75C4009,906,4029,888,4052,868L4052,868z"/>
			<path fill="#343857" d="M4279,730l30,10l1,1c12,7,15,10,25,19c6,9,12,17,17,26c4,14,4,19,5,33c-7,46-41,72-87,65c-6-1-11-2-17-4
				c-1-1-3-1-4-2c-27-15-35-28-43-57l1-19C4208,765,4241,732,4279,730z"/>
			<path fill="#1D1F37" d="M4310,742c12,7,15,10,25,19c6,9,12,17,17,26c4,14,4,19,5,33c-7,46-41,72-87,65c-6-1-11-2-17-4
				c-1-1-3-1-4-2c-27-15-35-28-43-57l1-19c19,40,58,68,100,42c12-7,21-19,24-33C4339,784,4325,765,4310,742L4310,742z"/>
			<path fill="#7083B6" d="M4248,746l2,4c-6,13-11,24-18,37C4219,772,4238,756,4248,746z"/>
			<path fill="#FEA41B" d="M4358,820l2,4c7,1,11,2,18,2c39,12,108,38,39,76c-11,6-45,11-58,12c-31,2-98,6-105-32c5,2,11,3,17,4
				C4316,893,4351,866,4358,820z"/>
			<path fill="#FEE8A0" d="M4353,787c25-7,77,9,105,12c3,11,6,12,3,22c-18,13-44-5-83,6c-7,0-11-1-18-2l-2-5
				C4357,806,4356,801,4353,787z"/>
			<path fill="#FEE8A0" d="M4474,1043c16-7,36-1,52,5l8,3c8,1,22,0,26,7c1,8,1,17,3,24c-6-4-7-4-13-6l-4,4c-4,7-5,9-11,12
				c-9,0-9-1-16-6C4503,1064,4496,1057,4474,1043z"/>
			<path fill="#FEE8A0" d="M4533,1051c8,1,22,0,26,7c1,8,1,17,3,24c-6-4-7-4-13-6l-4,4C4538,1068,4537,1064,4533,1051L4533,1051z"/>
			<path fill="#FF8800" d="M4529,921c30-2,65,8,41,45c-17,26-42,35-71,41C4403,1013,4456,934,4529,921z"/>
			<path fill="#FF8800" d="M4547,845c18-1,65,3,55,30c-7,7-9,8-18,12c-20,5-43,3-57-15C4523,855,4533,852,4547,845L4547,845z"/>
			<path fill="#E82511" d="M4075,354c15,7,53,25,65,36c9,3,22,4,32,5l11,2c64,11,116,28,175,54c11,5,21,10,31,16c35,22,46,32,76,61
				c-7,9-46,40-56,48c-45,34-86-22-131-29c0,21-2,32-17,48c-37,25-67,26-111,18c-15-7-19-9-31-19c-15-17-15-29-15-50c1-9,2-14,5-22
				c-48-18-71,2-117-17c-12-9-13-10-13-25c3-5,73-87,78-90C4063,377,4069,366,4075,354L4075,354z"/>
			<path fill="#343857" d="M4109,521c38-64,138-57,166,7c1,3,3,16,4,18c0,21-2,32-17,48c-37,25-67,26-111,18c-15-7-19-9-31-19
				c-15-17-15-29-15-50C4105,535,4106,530,4109,521z"/>
			<path fill="#1D1F37" d="M4104,544c29,48,69,55,124,37c27-9,37-27,47-52c1,3,3,16,4,18c0,21-2,32-17,48c-37,25-67,26-111,18
				c-15-7-19-9-31-19C4105,577,4104,565,4104,544L4104,544z"/>
			<path fill="#95948C" d="M4141,539c3-46,78-43,88-9c-1,4-1,6-4,9C4216,562,4149,573,4141,539z"/>
			<path fill="#1D1F37" d="M4141,539c3-46,78-43,88-9c-1,4-1,6-4,9C4197,521,4169,524,4141,539z"/>
			<path fill="#FECC3E" d="M4075,354c15,7,53,25,65,36c-27-4-56-6-82,0C4063,377,4069,366,4075,354z"/>
			<path fill="#FC4F1C" d="M4340,471c17,1,37,12,36,32c-5,9-2,6-12,12C4338,515,4319,495,4340,471z"/>
			<path fill="#FE6A0F" d="M4094,434c8,1,13,1,15,10c-5,10-4,7-14,14c-9-2-13-3-14-11C4084,439,4087,438,4094,434L4094,434z"/>
			<path fill="#E82511" d="M4525,526c69,11,57,29,106,65c7,5,26,7,36,9c35,8,55,29,81,51c35,27,55,31,90,66c31,30,43,72,77,88
				c11-1,23-3,33-3c17,10,23,17,36,32c8,19,8,42,19,54v4c-7,8-105,23-121,20c-6-1-12-30-14-36c-15-17-22-16-41-25c-27-13,14-48,2-76
				c-24-56-72,6-104,16c-1-1-3-1-4-2c-32-11-57-39-92-43c-20-2-35,8-54,6c-13-1-20-12-28-22c-20-1-90,11-98,4c-79-67,19-59,64-65
				c13-2,62-10,71-5c3,8,2,5,0,14l-4,6c2,16,27,18,40,19c30-1,17-13,23-31c24-27,110,17,135,33c9,6,20,16,29,22c-23-34-49-49-82-73
				c-23-16-49-32-77-37c-43-7-80,11-114-24c-15-19-29-18-51-16c-33-11-12-34,5-50C4498,526,4516,526,4525,526L4525,526z"/>
			<path fill="#E82511" d="M4687,946c2-7,6-18,10-24c39-56,140-38,168,20c6,12,9,28,12,41c-21,20-59,53-32,81c9,9,24,10,32,16
				c14,0,20,0,33,7c10-2,21-4,29,3c2,4,4,9,1,13c-32,52-122,49-168,41c-10-2-21,1-27-1c-17-6-35-13-53-19c-6-3-12-7-18-11
				c-40,1-88,6-113-31c-2-7-2-17-3-24v-2c-7-45,30-55,66-55l44,16c6-2,13-2,17-7c-6-13-18-8-26-33l-1-3C4664,957,4674,952,4687,946
				L4687,946z"/>
			<path fill="#343857" d="M4687,946c36-9,58-4,83,23l1,2c2,4,5,10,6,14c2,13,4,26,1,39v7c-12,35-30,53-64,69c-2,1-3,2-5,2l-33,10
				c-40,1-88,6-113-31c-2-7-2-17-3-24v-2c-7-45,30-55,66-55l44,16c6-2,13-2,17-7c-6-13-18-8-26-33l-1-3C4664,957,4674,952,4687,946
				L4687,946z"/>
			<path fill="#1D1F37" d="M4771,971c2,4,5,10,6,14c2,13,4,26,1,39v7c-12,35-30,53-64,69c-2,1-3,2-5,2l-33,10c-40,1-88,6-113-31
				c-2-7-2-17-3-24v-2c25,13,18,21,59,22c42,1,95-10,126-39C4768,1015,4770,1001,4771,971L4771,971z"/>
			<path fill="#1D1F37" d="M4661,973c17,2,44,1,54,12c21,58-97,81-111,51c5-26,43-14,66-21c6-2,13-2,17-7c-6-13-18-8-26-33V973z"/>
			<path fill="#FC4F1C" d="M4771,969c5-9,11-17,21-20c6-2,12-1,17,2c26,15,9,44-31,35c-1-4-4-10-6-14L4771,969z"/>
			<path fill="#FF8800" d="M4779,1024l6-4c19,5,27,28,11,35c-7-1-8-1-13-6c-3-8-3-10-4-18V1024z"/>
			<path fill="#FC4F1C" d="M4878,1081c14,0,20,0,33,7C4904,1115,4871,1109,4878,1081z"/>
			<path fill="#FC4F1C" d="M4795,1092c23-1,55,14,41,41C4813,1134,4784,1120,4795,1092z"/>
			<path fill="#FECC3E" d="M3941,617c16-22,18-47,29-73c7-16,13-26,22-40c46,19,68-1,117,17c-2,8-4,13-5,22c0,22,1,33,15,50
				c13,10,16,12,31,19c-15,12-51,24-69,35c-23,14-44,35-65,51c-22-7-47-4-69,0c-16,7-32,15-48,24c10-22,8-38,26-57
				C3911,647,3914,620,3941,617L3941,617z"/>
			<path fill="#FEE8A0" d="M3947,699c0-2,0-3,2-4c48-27,118-90,170-101c13,10,16,12,31,19c-15,12-51,24-69,35c-23,14-44,35-65,51
				C3995,692,3969,695,3947,699L3947,699z"/>
			<path fill="#F63010" d="M3941,617c54,22,27,52-16,49C3911,647,3914,620,3941,617z"/>
			<path fill="#FF8800" d="M4055,541c65-3,46,51-16,66c-14,1-30,3-38-11C3997,570,4035,548,4055,541z"/>
			<path fill="#E82511" d="M4062,775c4-52,47-84,93-102s100-18,145,4c37,18,57,43,35,84c-10-9-13-12-25-19l-1-2l-30-10
				c-38,2-71,35-71,73l-1,19c-39-8-54-6-93,2C4084,809,4078,806,4062,775z"/>
			<path fill="#FE6A0F" d="M4279,730l-3-6c8-20,49-9,34,16L4279,730z"/>
			<path fill="#FC4F1C" d="M4184,677c23,1,63,13,39,42c-16-1-42-12-46-30C4176,684,4180,681,4184,677z"/>
			<path fill="#FC4F1C" d="M4148,747c8,0,12,1,16,7c-1,14-26,27-37,32c-10,0-12,0-18-7C4109,758,4131,749,4148,747z"/>
			<path fill="#FE6A0F" d="M4097,726c5-4,12-3,15,2c4,5,3,11-2,15c-5,4-12,3-15-2C4091,737,4092,730,4097,726z"/>
			<path fill="#FECC3E" d="M4049,864l3,4c-22,20-43,39-17,67c-46,9-81-5-124-9c-37-4-81,2-117,8c-1-22,2-22,7-43c36-8,82,8,121,6
				C3968,895,4010,894,4049,864z"/>
			
				<linearGradient id="SVGID_00000078744481647462521120000008420569661545033602_" gradientUnits="userSpaceOnUse" x1="4196.1904" y1="1472.5248" x2="4131.8081" y2="1389.4728" gradientTransform="matrix(1 0 0 1 0 -778)">
				<stop  offset="0" style="stop-color:#FFAE02"/>
				<stop  offset="1" style="stop-color:#FFCB44"/>
			</linearGradient>
			<path fill="url(#SVGID_00000078744481647462521120000008420569661545033602_)" d="M4261,595c13,6,37,11,51,13c-15,17-21,20-42,30
				c-100-15-164,6-228,87c-7-12-14-19-26-27c21-16,43-37,65-51c17-11,54-22,69-35C4194,621,4224,620,4261,595z"/>
			<path fill="#FECC3E" d="M4312,608h4c34,3,71,6,89,38c1,33-5,38-30,58c-14-42-66-55-105-66C4291,628,4297,625,4312,608z"/>
			<path fill="#FEE8A0" d="M4316,609c34,3,71,6,89,38C4376,674,4319,631,4316,609z"/>
			<path fill="#D8170A" d="M4451,1274l2-11l3-1c8,10,10,21,18,33c30,40,79,55,127,60c33,4,67,3,100-1c11-2,68-17,71-15
				c-50,31-128,35-186,34c-14-2-27-6-41-9c-15-5-29-11-43-19C4474,1325,4459,1307,4451,1274L4451,1274z"/>
			<path fill="#FEE8A0" d="M4922,1152l2,5c-8,13-31,31-48,55c-15,8-21,10-38,14c-6-5-21-18-27-22c-11-13-19-22-31-34
				C4835,1181,4872,1176,4922,1152z"/>
			<path fill="#FECC3E" d="M4485,577c22-2,36-3,51,16c-2,5-4,9-8,12c-19,12-90,56-106,32C4424,621,4469,585,4485,577z"/>
			<path fill="#FECC3E" d="M4547,1079l4-4c6,2,7,3,13,6c26,37,73,32,113,31c6,4,12,8,18,11c-15,3-29-2-45-3c-56-5-92,5-142,29
				c12-22,15-38,9-62l3-3c7,5,8,6,16,6C4542,1087,4542,1085,4547,1079L4547,1079z"/>
			<path fill="#FE6A0F" d="M4586,679c14-1,24-2,37,4c5,6,4,3,5,12l-6,9c-14-1-38-3-40-19L4586,679z"/>
			<path fill="#E82511" d="M4615,1146c58-5,126,11,161,62c19,28,12,65-10,89c-27,30-60,35-98,37c-54,2-99,3-146-31
				c-55-39-39-105,15-136C4562,1153,4586,1149,4615,1146L4615,1146z"/>
			<path fill="#FC4F1C" d="M4649,1250c17,0,53,5,57,26c-4,8-4,7-12,12c-17,2-56-7-59-27C4641,1253,4640,1256,4649,1250L4649,1250z"
				/>
			<path fill="#FC4F1C" d="M4537,1207c31-5,57,14,22,40C4528,1252,4509,1231,4537,1207z"/>
			<path fill="#FC4F1C" d="M4718,1204c27,0,49,19,24,42C4718,1245,4692,1225,4718,1204z"/>
			<path fill="#FC4F1C" d="M4630,1170c13,0,26,0,29,16c-2,8-4,8-10,13c-14,1-23,0-28-14C4623,1177,4625,1176,4630,1170L4630,1170z"
				/>
			<path fill="#FC4F1C" d="M4696,1299c10-1,15-3,22,6l-1,6c-6,7-10,8-19,11c-11,1-14,1-22-5v-5C4682,1303,4687,1302,4696,1299
				L4696,1299z"/>
			<path fill="#FC4F1C" d="M4569,1274c5-3,11-2,16,1s7,9,7,15c-1,6-4,11-10,13c-8,3-17,0-20-8C4558,1286,4561,1277,4569,1274
				L4569,1274z"/>
			<path fill="#E82511" d="M3980,728c9-1,21-1,29,4c19,13,10,42,10,61c0,7,3,18,4,25c-15,46-47,36-86,41c-11,2-23,4-34,6
				c-4,0-7,0-11-1c-18-2-26-13-36-26c17-38,24-41,58-65C3937,760,3953,741,3980,728z"/>
			<path fill="#FFC04B" d="M4940,921c10,3,12,4,10,14c-11,17-31,27-50,33c-8-2-11-4-14-12C4892,937,4922,924,4940,921L4940,921z"/>
			<path fill="#FE6A0F" d="M4611,764c1,0,3,0,4,0c10-1,19-1,27,6c2,8,2,4-1,12c-10,1-20,1-28-5C4608,770,4608,773,4611,764z"/>
			<path fill="#FE6A0F" d="M5032,995c9,3,13,5,18,13c-1,7,0,5-6,11h-2c-10-2-14-3-19-11C5024,999,5024,1002,5032,995L5032,995z"/>
			<path fill="#FEA41B" d="M4624,1571c8-1,15-5,23-6c42-8,69-32,104-53c8-5,29,2,41-2c24-8,25-15,37-36c4-2,58-1,71-6
				c32-11,60-25,95-26c12,0,37-17,48-5c1,14,2,16,7,29l-3-8l3,2l-4-20l21,20c-22,40-18,144-13,188c-7-10-5-9-15-11
				c-15,6-10,12-17,21c0-29-12-192-80-138c-19,15-18,77-16,100c-1,35,28,93,8,121c-13,18-55-4-45-35c3-9,5-38,8-49c2-30-3-70-21-94
				c-10-14-27-17-38-2c-47,65-50,169-54,247c-1,42,19,87,21,128c-13,32-51,42-63,12c-10-26,13-71,13-103c-1-80,2-205-59-265
				c-32-15-56,25-65,47c-7,18-17,50-27,58c-47,41-43,99-45,156c-1,15,2,37,6,52c7,43,42,80-16,99c-7,12-15,27-18,42
				c-24,109-38,230-23,340c4,27,35,80-13,95c-18,6-43-18-43-35c-3-30,8-59,10-89c6-92,25-246-45-318c-41-34-137,2-162,39
				c-28,41-33,96-35,145c-1,13,3,83-38,59c-15-9-10-52-15-67c-17-76-45-172-139-173c-70-1-105,63-105,126c-1,45,49,91,11,134
				c-28,32-79-4-70-34c17-61,26-114-15-170c-24-33-69-18-94,8c-90,102-96,264-104,394c-3,63,8,143,30,201c11,29,28,65,34,94
				c-3,18-7,22-25,30c-38,17-232,21-256-3l-3-11c-19-2-39,13-49,29c-43-3-291,13-308-24c7-29,90-31,116-34c68-8,137-15,205-16
				c42-1,84,1,126,3c80-52,93-171,92-258c-1-94-5-227-72-301c-37-41-92-27-125,11c-65,72-85,178-69,272c6,35,19,68,21,103
				c3,43-45,71-76,37c-16-18-5-50,1-70c23-72,17-138-33-197c-37-44-78-13-126-24c-34-7-29,26-43,41c-4,5-22,13-30,11
				c-34-12-25-71-18-96c7-11,19-17,13-32c-4-9-1-17,1-26c5-24,26-31,37-52c8-15,8-37,18-52c8-12,32-30,36-43c9-26,3-56,25-78
				c9-13,34-32,35-44l-2-2c-48-37,17-49,39-69c14-21,28-39,31-64c15,20,53,13,74,8v6c10,3,15,1,24,2c27,4,41,6,68,16
				c58,21,99-3,133,5c7-25,28-27,50-32c25-2,90-4,74,40c7,1,18,3,24,5c4-8,7-23,10-32c12-23,52-15,79-26c25-11,25-11,47-28
				c19,16,39,32,60,45c59,30,120,40,179,3c30-7,62-43,72-73c8,1,23,0,31,0c12-8,26-17,36-27h2c2-17-13-28-24-40c-9-12-12-18-18-31
				c-2-19-3-31,2-50c32-52,97-48,144-19c17-13,24-12,45-13c13,8,39,24,52,8c1-9,0-10-4-18c-4,4-3,7-3,14c-4,5-2,3-8,4
				c-9-6-15-24-12-35c2-7,23-8,32-15c17,0,42,8,60,13c11-5,18-8,28-14c24,9,39,20,47,46C4593,1577,4612,1573,4624,1571L4624,1571z"
				/>
			<path fill="#FEE8A0" d="M3276,1821c15,20,53,13,74,8v6c10,3,15,1,24,2c27,4,41,6,68,16c58,21,99-3,133,5c7-25,28-27,50-32
				c25-2,90-4,74,40c7,1,18,3,24,5c22,19,106,76,40,101l4,6c-5,12-34,27-41,36c-22,31-17,68-58,86c-30,13-49-8-76-5
				c-21,2-44,22-66,29c-19,7-51,5-68,9c-35,11-75,29-103,54c-9,8-19,25-24,36c-10,27-23,75-62,71c-27-13,3-53-40-34
				c-13,6-28,20-41,22c-4-3-4-3-5-8c-8,6-12,9-21,13c-23-2-45-2-68-1c-15,1-39,5-52-3c7-11,19-17,13-32c-4-9-1-17,1-26
				c5-24,26-31,37-52c8-15,8-37,18-52c8-12,32-30,36-43c9-26,3-56,25-78c9-13,34-32,35-44l-2-2c-48-37,17-49,39-69
				C3260,1864,3274,1846,3276,1821L3276,1821z"/>
			<path fill="#FF8800" d="M3671,2008c24-23,60-27,92-36l4,6c-5,12-34,27-41,36c-22,31-17,68-58,86c-30,13-49-8-76-5
				c-21,2-44,22-66,29c-19,7-51,5-68,9c-35,11-75,29-103,54c-9,8-19,25-24,36c-10,27-23,75-62,71c-27-13,3-53-40-34
				c-13,6-28,20-41,22c-4-3-4-3-5-8c10-11,21-26,31-38c26,3,47-5,61-27l5-9c30-41,60-71,112-49c13-9,22-15,36-24c20-12,51-15,63-32
				c8-15,21-39,24-56c1-7,0-4,3-13c5,19,7,51,20,62c16,4,28-7,33-22C3597,2039,3638,2076,3671,2008z"/>
			<path fill="#DAB776" d="M3390,2142c21-84,1-66-41-118c0-13,30-11,40-11c56-2,66,37,65,83c15-9,29-18,34-35c2,14,2,20,2,35
				c-12,18-43,21-63,32c-14,8-23,14-36,24c-53-22-82,8-112,49l-5,9c-8-9-7-20-7-32c5-4,11-7,16-10c6-32-14-86,4-107
				c35-43,84,8,94,45C3385,2121,3388,2129,3390,2142z"/>
			<path fill="#FEE8A0" d="M3267,2178c5-4,11-7,16-10c-1,10-4,23-4,33l-5,9C3267,2200,3268,2190,3267,2178z"/>
			
				<linearGradient id="SVGID_00000149349253996741964960000012392210901949556410_" gradientUnits="userSpaceOnUse" x1="3274.1667" y1="2770.874" x2="3271.6409" y2="2609.8442" gradientTransform="matrix(1 0 0 1 0 -778)">
				<stop  offset="0" style="stop-color:#FFA500"/>
				<stop  offset="1" style="stop-color:#FFBE1E"/>
			</linearGradient>
			<path fill="url(#SVGID_00000149349253996741964960000012392210901949556410_)" d="M3276,1821c15,20,53,13,74,8v6c10,3,15,1,24,2
				c-7,2-15,4-22,6c-16,3-25,4-30,21c-3,7-7,14-10,21c9,47,18,100-46,106c-20,2-39,0-59,0c-9,0-27,9-35,9c9-13,34-32,35-44l-2-2
				c-48-37,17-49,39-69C3260,1864,3274,1846,3276,1821z"/>
			<path fill="#FC4F1C" d="M3245,1884c0,19-21,62-39,69C3159,1916,3224,1904,3245,1884z"/>
			<path fill="#F9C9BB" d="M3210,1908c5,1,6,0,10,4c-1,7-5,9-10,15l-7-1l-2-3C3202,1915,3205,1913,3210,1908z"/>
			<path fill="#FC4F1C" d="M3057,2225l3,1c63,14,47-127,137-36c11,20,14,26,17,48c-9,12-21,27-31,38c-8,6-12,9-21,13
				c-23-2-45-2-68-1c-15,1-39,5-52-3c7-11,19-17,13-32C3052,2242,3055,2234,3057,2225z"/>
			<path fill="#DAB776" d="M3570,2067c-5-56-14-80-38-130c-2-5,0-10,3-14c30-13,57,41,79,57l2,2c3,33,26,48,54,25l2,2
				C3638,2076,3597,2039,3570,2067z"/>
			<path fill="#FECC3E" d="M3216,2136l14-17c2,1,4,2,5,4c24,17,27,29,32,56c1,12,0,23,7,32c-14,22-35,30-61,27c-3-22-6-28-17-48
				c10-7,12-10,19-21C3216,2158,3216,2146,3216,2136z"/>
			<path fill="#FF8800" d="M3625,1826c25-2,90-4,74,40c-31,16-97,22-124-8C3582,1833,3603,1831,3625,1826z"/>
			<path fill="#FC4F1C" d="M3616,1981c3-10,5-20,15-25c4-2,10-3,14-1c22,7,26,32,24,51C3642,2030,3620,2014,3616,1981z"/>
			<path fill="#DAB776" d="M3488,2061c0-18-14-46-3-61c18-5,28,12,33,27c-3,8-2,6-3,13c-3,17-16,41-24,56
				C3490,2081,3490,2075,3488,2061z"/>
			<path fill="#FF8800" d="M3353,1842c7,4,10,5,14,12c1,21-31,16-44,9C3328,1846,3337,1845,3353,1842z"/>
			<path fill="#FF8800" d="M3369,1935c16,0,40,5,41,24c-4,7-6,7-14,10c-15,0-37-4-40-21C3360,1939,3360,1941,3369,1935z"/>
			<path fill="#F63010" d="M4199,1610c32-52,97-48,144-19c27,23,39,45,30,80l-1,1c-28,30-54,81-100,87c-13,2-30-16-34-28
				c2-17-13-28-24-40c-9-12-12-18-18-31C4195,1641,4194,1629,4199,1610L4199,1610z"/>
			<path fill="#FC4F1C" d="M4262,1610c3,0,6,0,9,0c33,0,42,32,15,56C4255,1665,4231,1636,4262,1610z"/>
			<path fill="#FFC04B" d="M4534,1535c24,9,39,20,47,46c-7,42-36,30-68,32l-2,1c-15,9-26,22-41,31c-34,23-56,30-96,26
				c9-36-3-57-30-80c17-13,24-12,45-13c13,8,39,24,52,8c1-9,0-10-4-18c-4,4-3,7-3,14c-4,5-2,3-8,4c-9-6-15-24-12-35c2-7,23-8,32-15
				c17,0,42,8,60,13C4517,1544,4524,1541,4534,1535z"/>
			<path fill="#FF8800" d="M3859,1784c19,16,39,32,60,45c-38,52-160,79-186,10c12-23,52-15,79-26C3838,1801,3837,1801,3859,1784z"/>
			<path fill="#191919" d="M4392,1740c55,1,51,93,43,129c-14,58-71,126-138,109c-34-22-34-82-7-108c17-4,15,19,31,25
				C4354,1877,4307,1779,4392,1740z"/>
			<path fill="#FECC3E" d="M3619,2135c52,10,50,98,9,109C3593,2227,3564,2148,3619,2135z"/>
			<path fill="#FECC3E" d="M4143,1889c37-2,58,56,10,73C4093,1965,4110,1912,4143,1889z"/>
			<path fill="#FECC3E" d="M3978,1881c49,1,65,72,46,111c-6,3-7,3-14,2c-17-15-5-40-12-58C3989,1916,3967,1906,3978,1881z"/>
			<path fill="#FECC3E" d="M3600,2676c9,36-23,92-57,106c-28,11-45,13-74,10l-3-4C3482,2767,3553,2788,3600,2676L3600,2676z"/>
			<path fill="#FECC3E" d="M3874,1892l6,3c22,31,1,91-26,115c-5-1-6-2-10-4c-4-12,12-42,17-57C3867,1929,3868,1910,3874,1892
				L3874,1892z"/>
			<path fill="#FECC3E" d="M4471,1680c40,3,32,54,12,77C4458,1738,4444,1705,4471,1680z"/>
			<path fill="#FECC3E" d="M4452,1872l3,3c6,41-17,87-56,103l-3-6c1-12,34-46,42-64C4445,1892,4446,1894,4452,1872z"/>
			<path fill="#FECC3E" d="M3318,2507c6,8,9,56,7,67c-3,16-1,18-14,29C3291,2586,3314,2535,3318,2507L3318,2507z"/>
			<path fill="#FECC3E" d="M4472,2367c2,6,4,54,5,63c1,6-1,6-5,10l-1-1C4453,2418,4465,2391,4472,2367L4472,2367z"/>
			<path fill="#FECC3E" d="M3689,2763c7,5,15,19,9,27c-9,13-19,14-33,17c-4-1-4-1-8-3C3679,2789,3686,2792,3689,2763z"/>
			<path fill="#FECC3E" d="M3890,2202c5,13,6,44-8,53C3874,2239,3884,2217,3890,2202z"/>
			<path fill="#FECC3E" d="M3887,2095c15,10,12,25,8,41l-5-4C3886,2119,3883,2108,3887,2095L3887,2095z"/>
			<path fill="#FECC3E" d="M4763,1881c7,15,0,32-7,46l-3-4C4749,1909,4757,1894,4763,1881L4763,1881z"/>
			<path fill="#FECC3E" d="M4179,2195c11,9,14,36,12,50C4179,2239,4180,2208,4179,2195z"/>
			<path fill="#FECC3E" d="M4232,1824c7,3,8,3,14,8c4,9,3,5,1,16c-8-1-9-1-14-7C4229,1833,4230,1832,4232,1824z"/>
			<path fill="#FFC04B" d="M4560,1943c11,9,8,18,2,30c-4-2-3-2-6-5C4555,1959,4558,1952,4560,1943L4560,1943z"/>
			<path fill="#FECC3E" d="M4907,1670c5,11,2,27-5,37C4895,1694,4902,1682,4907,1670z"/>
			<path fill="#FECC3E" d="M3310,2374c8,7,6,24,4,33C3308,2396,3307,2386,3310,2374z"/>
			<path fill="#FEE8A0" d="M4598,1657c1,1,1,3,2,5c-1,9-4,12-9,19l-4-4C4589,1670,4594,1664,4598,1657z"/>
			<path fill="#191919" d="M3376,1494c-20-46-40-15-55-49c-17-39,43-38,46-54c7-47,0-113-16-159c-12-30-30-63-55-84
				c-10-8-36-9-39-25c-5-16,22-31,26-41c22-74-35-64-80-80c-17-6-17-39-6-53c50-61,117,21,168,38c23,8,47,4,71,1
				c106-17,168,4,240,85c9,4,12,4,22,3c14,32-27,25,4,60c-8,9-16,33-22,46c-3,5-7,15-10,19l-3,21c-8,16-12,22-22,36c-3,5-8,13-12,18
				c-17,17-51,26-29,56c-5,14-64,106-71,110l-14,1l10,2c5,11-10,26-15,37c-12,18-19,31-30,51c-8,11-41,62-42,71c-15,6-20,8-34,16
				c-33,0-41,0-73,10c2-39-19-70,16-97C3368,1521,3373,1514,3376,1494L3376,1494z"/>
			<path fill="#FEA41B" d="M3376,1494c-20-46-40-15-55-49c-17-39,43-38,46-54c7-47,0-113-16-159c-12-30-30-63-55-84
				c-10-8-36-9-39-25c-5-16,22-31,26-41c22-74-35-64-80-80c-17-6-17-39-6-53c50-61,117,21,168,38c23,8,47,4,71,1l1,1
				c10,15,14,10,17,28c-25,11-69,36-76,65c-21,89,12,199,47,281c18,43,48,71,94,79l10,2c5,11-10,26-15,37c-12,18-19,31-30,51
				c-8,11-41,62-42,71c-15,6-20,8-34,16c-33,0-41,0-73,10c2-39-19-70,16-97C3368,1521,3373,1514,3376,1494L3376,1494z"/>
			<path fill="#FECC3E" d="M3224,940c7,0,10,0,13,6c-3,8-14,17-21,23c-7,2-4,2-10,0l-1-5C3209,951,3213,947,3224,940L3224,940z"/>
			<path fill="#FECC3E" d="M3369,1535l3,1c1,4-17,38-20,45C3333,1563,3354,1546,3369,1535z"/>
			<path fill="#FECC3E" d="M3315,1005c14,12,14,19,5,34C3301,1031,3308,1017,3315,1005z"/>
			<path fill="#FECC3E" d="M3347,1415c4,0,8,0,12,0l3,4c-2,8-7,13-13,19c-6,1-6,0-11-2l-1-4C3338,1423,3341,1421,3347,1415z"/>
			
				<linearGradient id="SVGID_00000140007475204897527400000003935191560608120477_" gradientUnits="userSpaceOnUse" x1="3552.8091" y1="1819.1686" x2="3566.9812" y2="1774.6954" gradientTransform="matrix(1 0 0 1 0 -778)">
				<stop  offset="0" style="stop-color:#FFB828"/>
				<stop  offset="1" style="stop-color:#FFB05F"/>
			</linearGradient>
			<path fill="url(#SVGID_00000140007475204897527400000003935191560608120477_)" d="M3436,988c106-17,168,4,240,85l-5,17
				c-6-12-14-33-28-30c-6,7-6,9-9,18c-43-72-103-86-181-60c-2-18-6-13-17-28V988z"/>
			<path fill="#FEA41B" d="M3643,1060c15-3,22,18,28,30l5-16c9,4,12,4,22,3c14,32-27,25,4,60c-8,9-16,33-22,46c-3,5-7,15-10,19
				c0-41-19-87-35-124C3637,1068,3637,1067,3643,1060L3643,1060z"/>
			<path fill="#FECC3E" d="M3643,1060c15-3,22,18,28,30C3651,1090,3648,1077,3643,1060z"/>
			<path fill="#E82511" d="M3443,1605c57-22,146-35,178,31l2,7l4,15c12,0,23,2,35,7c46,18,91,24,140,15c7,47,23,71,57,105
				c-22,17-22,17-47,28c-27,11-67,3-79,26c-2,9-6,24-10,32c-6-2-17-4-24-5c16-44-50-42-74-40c-22,5-43,7-50,32c-34-8-74,16-133-5
				c-27-10-41-12-68-16c-9-1-15,1-24-2v-6c-21,5-59,12-74-8c3-16,5-25,14-39c-57-24-2-72,23-98c-14-30-4-39,23-52c32-10,40-10,73-10
				C3422,1613,3428,1610,3443,1605L3443,1605z"/>
			<path fill="#FECC3E" d="M3627,1657c12,0,23,2,35,7c46,18,91,24,140,15c7,47,23,71,57,105c-22,17-22,17-47,28c-27,11-67,3-79,26
				c-2,9-6,24-10,32c-6-2-17-4-24-5c16-44-50-42-74-40c-9-2-17-10-18-19c16-28,137-37,99-94c-16-24-54-27-80-30L3627,1657z"/>
			<path fill="#FEA41B" d="M3626,1683c26,4,65,7,80,30c38,58-83,67-99,94c1,9,9,17,18,19c-22,5-43,7-50,32c-34-8-74,16-133-5
				c-16-22-37-34-9-57C3502,1787,3605,1755,3626,1683z"/>
			<path fill="#D8170A" d="M3294,1783c10-7,51-2,68-4c79-9,166-28,227-83c18-16,26-48,33-55l4,15v26c-22,73-125,105-193,113
				c-28,24-6,35,9,57c-27-10-41-12-68-16c-9-1-15,1-24-2v-6c-21,5-59,12-74-8c3-16,5-25,14-39L3294,1783z"/>
			
				<linearGradient id="SVGID_00000110446263053128032190000002561149005725268129_" gradientUnits="userSpaceOnUse" x1="3280.1409" y1="2596.0168" x2="3428.7659" y2="2594.2769" gradientTransform="matrix(1 0 0 1 0 -778)">
				<stop  offset="0" style="stop-color:#FE9D00"/>
				<stop  offset="1" style="stop-color:#FFCF37"/>
			</linearGradient>
			<path fill="url(#SVGID_00000110446263053128032190000002561149005725268129_)" d="M3291,1782l4,1c38,15,99,15,139,12
				c-28,24-6,35,9,57c-27-10-41-12-68-16c-9-1-15,1-24-2v-6c-21,5-59,12-74-8C3279,1804,3281,1796,3291,1782z"/>
			<path fill="#343857" d="M3336,1631c32-10,40-10,73-10c11,5,13,6,21,14c-31,58-97,35-116,48l-1,1C3299,1653,3309,1644,3336,1631z"
				/>
			<path fill="#1D1F37" d="M3361,1638c13-1,19-3,31,5v4c-7,7-7,5-18,8c-13,1-21,2-32-4l-1-4C3346,1641,3353,1640,3361,1638z"/>
			<path fill="#1D1F37" d="M3430,1635c13,36,0,53-35,65c-24,9-67,8-81-17C3333,1669,3399,1693,3430,1635z"/>
			<path fill="#FC4F1C" d="M3465,1631c8,2,8,2,14,7c5,15-6,20-18,26c-14-5-21-11-16-25C3451,1632,3456,1632,3465,1631z"/>
			<path fill="#FC4F1C" d="M3473,1699c11-1,18-4,25,5l-1,6c-5,7-11,8-19,12c-2,0-3,1-5,1c-9,2-12,1-19-3v-6
				C3459,1706,3465,1704,3473,1699z"/>
			<path fill="#FC4F1C" d="M3385,1716c8,0,9-2,13,2c-6,9-24,16-34,20c-8-2-8-1-14-6C3349,1718,3375,1717,3385,1716z"/>
			<path fill="#FC4F1C" d="M3547,1653c4,0,4,0,8,2l-1,4c-10,10-22,13-35,16c-5,0-4,0-8-2v-4C3520,1660,3535,1656,3547,1653
				L3547,1653z"/>
			<path fill="#F63010" d="M3817,1609c2-8,7-15,12-21c46-58,145-73,212-52c47,15,86,47,109,90l10,23c16-1,18,7,36,11
				c7,14,9,19,18,31c11,11,25,23,24,40h-2c-10,10-24,19-36,27c-9,0-23,1-31,0c-10,29-41,65-72,73c-60,37-120,27-179-3
				c-21-13-41-29-60-45c-35-34-50-58-57-105c0-17,1-23,4-39C3809,1626,3811,1621,3817,1609z"/>
			<path fill="#D8170A" d="M3817,1609c1,15-1,32,1,46c12,88,138,191,227,182c9-1,50-6,54-6c-60,37-120,27-179-3c-21-13-41-29-60-45
				c-35-34-50-58-57-105c0-17,1-23,4-39C3809,1626,3811,1621,3817,1609z"/>
			<path fill="#DAB776" d="M4161,1650c16-1,18,7,36,11c7,14,9,19,18,31c11,11,25,23,24,40h-2c-10,10-24,19-36,27c-9,0-23,1-31,0
				C4178,1722,4172,1685,4161,1650z"/>
			<path fill="#FFC04B" d="M4237,1731c-22,2-30-23-22-40c11,11,25,23,24,40H4237z"/>
			<path fill="#E82511" d="M3946,1558c209-21,266,232,86,260c-39,3-73-14-105-36c-37-27-78-67-86-113C3831,1604,3890,1566,3946,1558
				z"/>
			<path fill="#FC4F1C" d="M3976,1582c31,3,64,29,26,52C3970,1631,3932,1599,3976,1582z"/>
			<path fill="#FC4F1C" d="M3983,1737c25,7,46,35,27,60C3982,1791,3960,1760,3983,1737z"/>
			<path fill="#FC4F1C" d="M3874,1627c29,2,31,41,13,60C3856,1676,3855,1650,3874,1627z"/>
			<path fill="#FC4F1C" d="M4076,1627c6,0,11,0,16,4c7,5,12,13,13,22c2,13-1,19-8,29C4071,1675,4060,1649,4076,1627z"/>
			<path fill="#FC4F1C" d="M4003,1674c25,0,47,21,25,42C4003,1715,3983,1696,4003,1674z"/>
			<path fill="#FC4F1C" d="M4069,1734c10-2,20,5,21,15c2,10-5,20-15,21c-10,2-19-5-21-15C4053,1746,4060,1736,4069,1734z"/>
			<path fill="#FC4F1C" d="M3937,1670c22,7,21,20,8,37C3925,1697,3925,1686,3937,1670z"/>
			<path fill="#F63010" d="M3794,933c37-6,80-12,117-8c43,4,78,19,124,9c45,21,32,43,60,75c32,37,87,12,127,2c19,2,63,6,77,20l-23,9
				c-47,0-80,10-125,17c-19,3-55-6-75-9l-5-3c-6,11-6,25-11,38c-40,100-201,113-291,87c-10-3-42-25-49-25l-6-5l-12-3
				c-31-35,10-28-4-60c2-2,7-6,9-8c5-8,12-22,17-31c16-26,31-40,53-60C3786,959,3790,953,3794,933L3794,933z"/>
			<path fill="#FEE8A0" d="M3794,933c37-6,80-12,117-8c43,4,78,19,124,9c45,21,32,43,60,75c32,37,87,12,127,2c19,2,63,6,77,20l-23,9
				c-47,0-80,10-125,17c-19,3-55-6-75-9l-5-3c0-7-6-21-10-27c-69-101-186-101-281-42C3786,959,3790,953,3794,933L3794,933z"/>
			<path fill="#FF8800" d="M3707,1068c-4,23-9,53,7,72l-12-3c-31-35,10-28-4-60C3700,1074,3705,1071,3707,1068z"/>
			<path fill="#E82511" d="M3835,981c59-23,157-21,189,52c22,50-43,105-84,114c-64,28-247,22-193-88c13-27,70-95,103-60
				c6-10,9-10,20-11C3858,986,3848,984,3835,981L3835,981z"/>
			<path fill="#FC4F1C" d="M3871,987c17,6,40,14,33,36c-19,15-39-5-50-20c-1-1-2-3-3-4C3857,989,3860,989,3871,987z"/>
			<path fill="#FC4F1C" d="M3833,1076c8,1,10,1,17,6c8,18-15,32-29,38c-8,0-12,1-19-4C3794,1098,3819,1083,3833,1076z"/>
			<path fill="#FC4F1C" d="M3968,1016c29,0,35,27,14,47C3956,1060,3947,1035,3968,1016z"/>
			<path fill="#FC4F1C" d="M3907,1076c12,1,16,0,21,11c-2,10-1,6-9,15c-11-1-17-1-21-12C3900,1081,3900,1083,3907,1076L3907,1076z"
				/>
			<path fill="#FC4F1C" d="M3781,1040c4-1,9,1,12,4c3,3,4,8,2,12s-5,7-10,8c-7,1-13-3-14-10C3770,1048,3774,1041,3781,1040z"/>
			<path fill="#FECC3E" d="M5550,1210h3c2-7,3-11,6-18l6,1c6,17,21,55,8,75c-15,23-47,35-74,45c-36,15-68,26-106,40
				c-29,11-75,24-105,34c-31,35-34,3-62,30c-9,13-9,36-26,45c-17,0-25-16-33-29c-44,20-47,55-46,99c-4-14-7-12-20-13
				c0-22,0-77-35-62l-21-20l4,20l-3-2l3,8c-5-13-7-15-7-29c-10-12-36,5-48,5c-34,1-63,15-95,26c-13,5-68,4-71,6c-12,21-13,27-37,36
				c-12,4-33-2-41,2c-35,21-62,45-104,53c-7,1-15,5-23,6c21-12,42-15,63-25c17-8,53-31,66-44l-1-10c27-3,36-6,40-33
				c10,6,14,16,24,20l4-4c1-8,2-12,1-20v-1l3-3l1,3c1,5,1,11,5,13c11,4,32,4,42-1c30,8,57-15,88-22c-7-27-2-57-17-82c-3-5-5-10-6-16
				c5-6,4-4,12-6c6,0,11-2,16-3c19-9,32-16,52-21c20,13,38,33,66,31c18-1,22-24,32-35c18-18,43,0,64,0c33-1,25-29,41-46
				c28-11,77,52,95-7l-6-23c35,9,51,3,84-11c47-20,98-37,143-3l5-1L5550,1210z"/>
			<path fill="#FEA41B" d="M5314,1257c3,5,10,20,13,24c11,43-27,36-55,33c-13,14-29,42-47,44c-12,1-28-20-37-7c-39,54-1,95-99,55
				c-29,14-51,28-84,27c-15,5-29,9-45,8c-7-27-2-57-17-82c-3-5-5-10-6-16c5-6,4-4,12-6c6,0,11-2,16-3c19-9,32-16,52-21
				c20,13,38,33,66,31c18-1,22-24,32-35c18-18,43,0,64,0c33-1,25-29,41-46C5247,1252,5297,1315,5314,1257L5314,1257z"/>
			<path fill="#DAB776" d="M4949,1338c33,7,50,23,60,57c4,15,3,26-5,39c-15,5-29,9-45,8c-7-27-2-57-17-82c-3-5-5-10-6-16
				C4942,1338,4941,1340,4949,1338L4949,1338z"/>
			<path fill="#FFC04B" d="M5308,1234c35,9,51,3,84-11c47-20,98-37,143-3c-1,6-3,14-5,19c-7,22-21,27-41,37c-39,12-50-39-86-12v6
				c-16,4-20-1-33,10c-9,5-32,9-40-1h-3c-3-4-10-19-13-24L5308,1234z"/>
			<path fill="#FEA41B" d="M5471,1217c13-11,43-4,40,13l-7-2l-4,5c-6-5-2-23-20-17c25,18,8,33,19,48c13-1,23-15,28-26c3,0,2-1,3,0
				c-7,22-21,27-41,37c-10-7-16-9-21-20C5458,1237,5456,1233,5471,1217L5471,1217z"/>
			<path fill="#FC4F1C" d="M5471,1217c13,6,23,14,20,29c-7,10-9,9-22,9C5458,1237,5456,1233,5471,1217z"/>
			<path fill="#FEE8A0" d="M4793,1459c10,6,14,16,24,20l4-4c-3,22-36,36-56,32c-4-1-8-2-12-4l-1-10C4779,1490,4788,1487,4793,1459z"
				/>
			<path fill="#FEA41B" d="M5370,1281c13-11,17-6,33-10v-6c5,8,6,9,6,17c-9,16-26,9-38,0L5370,1281z"/>
			<path fill="#F63010" d="M4298,1032c52-12,94-16,147,0c10,3,19,8,29,11c22,14,29,21,45,42l-3,3c6,24,3,40-9,62c-10,8-29,29-39,39
				c-74,44-248,69-275-39c-15-48,46-90,82-109L4298,1032z"/>
			<path fill="#D8170A" d="M4193,1150L4193,1150c2,0,3,0,4,0c11,12,19,23,33,30c36,19,79,17,119,13c24-3,49-7,71-14
				c30-9,68-29,83-58c5-10,7-22,13-33c6,24,3,40-9,62c-10,8-29,29-39,39C4394,1233,4220,1258,4193,1150z"/>
			<path fill="#E82511" d="M4381,1043c46-4,135,25,90,88c-25,36-101,50-144,56c-50,1-140-22-91-94C4265,1049,4333,1047,4381,1043z"
				/>
			<path fill="#FC4F1C" d="M4337,1060c16,0,35,2,41,19c-2,10-1,6-8,14c-14-2-44-10-40-29L4337,1060z"/>
			<path fill="#FC4F1C" d="M4378,1132c8,0,16,1,21,6c3,14-12,17-23,19c-11,0-19,1-28-7C4347,1135,4366,1133,4378,1132L4378,1132z"/>
			<path fill="#FC4F1C" d="M4280,1113c11-1,18-3,25,6l-2,6c-5,7-13,9-21,12c-11,1-17,2-25-6l1-6C4264,1118,4271,1117,4280,1113
				L4280,1113z"/>
			<path fill="#E82511" d="M4673,1388c50-8,83,12,111,54c3,5,6,13,9,17c-4,28-14,31-40,33l1,10c-13,13-49,36-66,44
				c-21,9-42,13-63,25c-13,2-31,6-44,9c-8-26-23-37-47-46c-10,6-17,9-28,14c-18-4-43-12-60-13c-20,2-40,8-59,8c-19-25-20-47-2-74
				c23-34,72-56,111-65c19-4,48-5,65,7c19,14,1,48,4,66c1,7,3,8,8,12c33,6,34-38,45-60C4632,1403,4645,1398,4673,1388L4673,1388z"/>
			
				<linearGradient id="SVGID_00000088092462397171925400000000153144067582008494_" gradientUnits="userSpaceOnUse" x1="4653.4951" y1="2337.1069" x2="4630.354" y2="2233.8298" gradientTransform="matrix(1 0 0 1 0 -778)">
				<stop  offset="0" style="stop-color:#FFAD01"/>
				<stop  offset="1" style="stop-color:#FF9503"/>
			</linearGradient>
			<path fill="url(#SVGID_00000088092462397171925400000000153144067582008494_)" d="M4534,1535c32-20,44,1,79,6c22,3,65-12,82-25
				c24-18-1-53,0-72c2-3,3-6,7-6c32-1,23,42,51,56l1,10c-13,13-49,36-66,44c-21,9-42,13-63,25c-13,2-31,6-44,9
				C4573,1555,4558,1544,4534,1535L4534,1535z"/>
			<path fill="#FC4F1C" d="M4451,1456c7,0,8,0,14,2c6,6,4,3,5,12c-6,14-12,17-25,24c-8,2-12,2-18-4l-1-6
				C4433,1468,4439,1465,4451,1456z"/>
			<path fill="#E82511" d="M5013,1289c-6-24-28-57-18-82c14-35,72,10,86,1c26-17,32-76,64-86c40-12,71,13,102,29c7,9,16,17,22,26
				c5,7,35,53,39,56l6,23c-17,59-67-4-95,7c-15,17-8,45-41,46c-21,1-46-18-64,0c-10,11-14,34-32,35c-28,1-46-18-66-31
				c-20,6-33,12-52,21c-7-4-8-6-12-14C4956,1298,4995,1293,5013,1289L5013,1289z"/>
			<path fill="#FC4F1C" d="M5084,1237c22,4,37,22,21,42C5082,1276,5069,1258,5084,1237z"/>
			<path fill="#FEE8A0" d="M3899,1373c46-14,65-31,120-31c-3,15-4,26-2,41c-45,5-136,72-185,89c-24,9-61,34-89,45c-8,3-16,5-24,6
				l1,11c-12,55-68,60-111,38c-11-10-16-17-22-30l-1-2c-31-3-68-4-100-5c10-19,18-33,30-51c52-28,123-19,180-33c28,5,43,11,57-19
				c31,1,89-52,140-57L3899,1373z"/>
			<path fill="#343857" d="M3584,1538c-11-62,110-97,130-32l3,15l1,11c-12,55-68,60-111,38c-11-10-16-17-22-30L3584,1538z"/>
			<path fill="#1D1F37" d="M3585,1540c1-1,3-2,4-2c39,29,92,33,116-15c4-7,1-10,9-17l3,15l1,11c-12,55-68,60-111,38
				C3596,1561,3591,1554,3585,1540z"/>
			<path fill="#FC4F1C" d="M5089,1117c5,1,24-12,33-15c36-14,60-3,92,10c6,12,24,27,33,39c-31-15-62-41-102-29c-32,10-37,69-64,86
				c-14,9-72-36-86-1c-10,25,12,57,18,82c-19,4-57,9-60,32c4,7,5,10,12,14c-5,1-11,3-16,3c-9,2-8,1-12,6c1,6,3,11,6,16
				c15,25,10,55,17,82c-31,8-58,30-88,22c-11,5-31,5-42,1c-4-2-3-8-5-13l-1-3c-1-14-8-42-11-57c-24-45,52-44,73-55c4-2,3-6,4-9
				c-3-8-7-10-14-15c3-12,5-28,8-35c7-5,22-5,32-6c11-1,20-2,28-10c9-32-92-73,73-120c12-1,21-3,33-6C5068,1132,5077,1132,5089,1117
				L5089,1117z"/>
			<path fill="#DAB776" d="M4813,1393c29-43,53-42,60,11c2,16,0,43-2,60c-11,5-31,5-42,1c-4-2-3-8-5-13l-1-3
				C4824,1436,4817,1408,4813,1393L4813,1393z"/>
			<path fill="#FF8800" d="M4116,1271c17-35,95-69,133-51c13,6,23,18,36,25c17,0,90-8,86,22c-2,18-35,34-34,53c23,24,64,3,72,40
				c-1,6-2,10-7,14c-39,28-70,19-108,5c-22-19-91-46-118-39l-2,6c-3-17-4-22-12-38C4151,1285,4139,1278,4116,1271L4116,1271z"/>
			<path fill="#343857" d="M4116,1271c23,7,36,14,47,36c8,16,8,21,12,38c1,15,1,21-1,36c-8,26-20,46-44,59c-19,10-41,12-61,6
				c-12-4-20-9-29-18c-8-12-11-16-16-29c-3-4-5-13-6-18c-2-15-1-26,2-41C4032,1300,4073,1271,4116,1271L4116,1271z"/>
			<path fill="#1D1F37" d="M4023,1400c7,1,21,13,30,16c50,17,103-26,107-76c1-11-2-22,2-32c8,16,8,21,12,38c1,15,1,21-1,36
				c-8,26-20,46-44,59c-19,10-41,12-61,6c-12-4-20-9-29-18C4031,1417,4029,1413,4023,1400z"/>
			<path fill="#1D1F37" d="M4068,1372l-2,9l-3,1l-6-4c-40-57,68-111,65-50c1,25-12,52-40,60c-5,1-9-2-12-5
				C4070,1379,4069,1376,4068,1372z"/>
			<path fill="#95948C" d="M4068,1372c13-25,24-41,55-43c1,25-12,52-40,60c-5,1-9-2-12-5C4070,1379,4069,1376,4068,1372z"/>
			
				<linearGradient id="SVGID_00000133489225786341395180000016248804405616169376_" gradientUnits="userSpaceOnUse" x1="4444.106" y1="2162.6301" x2="4538.0869" y2="2296.6841" gradientTransform="matrix(1 0 0 1 0 -778)">
				<stop  offset="0" style="stop-color:#FF9800"/>
				<stop  offset="1" style="stop-color:#FE4119"/>
			</linearGradient>
			<path fill="url(#SVGID_00000133489225786341395180000016248804405616169376_)" d="M4386,1544c-24-4-119-26-73-70
				c26-21,68-29,97-46c54-32,61-63,129-58c20,5,30,7,51,9c15,4,65,9,83,9c-28,10-41,14-55,42c-11,22-12,66-45,60c-5-4-7-4-8-12
				c-3-19,15-52-4-66c-17-12-46-12-65-7c-39,9-88,31-111,65C4367,1497,4368,1519,4386,1544L4386,1544z"/>
			<path fill="#D8170A" d="M4069,1046l5,3c7,12,12,18,17,31c6,16-2,43,1,49c-3,2-9,4-11,6c-13,7-43,36-49,47c-18,2-28,8-41,0
				c-68,32-143,39-214,13c-3-1-5-2-8-3c-16-10-24-15-38-27c-6-7-9-12-13-20c7,0,39,22,49,25c90,27,252,13,291-87
				C4064,1072,4063,1058,4069,1046z"/>
			<path fill="#FFC04B" d="M4069,1046l5,3c7,12,12,18,17,31c6,16-2,43,1,49c-3,2-9,4-11,6c-13,7-43,36-49,47c-18,2-28,8-41,0
				C4035,1157,4092,1104,4069,1046z"/>
			<path fill="#FEA41B" d="M4174,1382l3,2c19,8,46,14,55,34c3,6,3,14,1,20c-19,50-214,77-194-10c9,9,17,14,29,18c20,6,43,4,61-6
				C4154,1428,4166,1408,4174,1382z"/>
			<path fill="#FC4F1C" d="M3645,1259c22-5,63-9,54,26c-15,65-36,90-96,48c-22-29,12-38,29-56C3637,1272,3642,1264,3645,1259z"/>
			<path fill="#FEE8A0" d="M3620,1635c58-20,56-2,113,6c17,2,53-2,72-2c-3,16-4,23-4,39c-49,9-94,2-140-15c-11-4-22-7-35-7l-4-15
				L3620,1635z"/>
			<path fill="#FEA41B" d="M3718,1532c35,6,97,30,38,66c-33,20-132,20-149-28C3650,1593,3706,1587,3718,1532z"/>
			<path fill="#FEE8A0" d="M4175,1346l2-6c27-7,96,20,118,39l13,10c7,5,13,11,12,20c-22,22-109-32-143-25l-3-2
				C4176,1367,4176,1361,4175,1346z"/>
			<path fill="#FF8800" d="M4092,1130c31-3,80,9,47,49c-17,20-79,31-98,12l-10-7c6-11,37-40,49-47C4083,1134,4089,1131,4092,1130
				L4092,1130z"/>
			<path fill="#FC4F1C" d="M4081,1136c6,23-28,32-40,54l-10-7C4038,1172,4069,1143,4081,1136L4081,1136z"/>
			<path fill="#FEE8A0" d="M3680,1182c6-13,14-36,22-46l12,3l4,6c5,8,7,13,13,20c14,13,21,18,38,27c-30,23-65,35-103,29l3-21
				C3673,1197,3677,1188,3680,1182L3680,1182z"/>
			<path fill="#FECC3E" d="M3680,1182c6-13,14-36,22-46l12,3l4,6c5,8,7,13,13,20C3712,1169,3698,1175,3680,1182z"/>
			<path fill="#FF8800" d="M3892,1374c-15-2-42-6-41-24c3-39,104-29,48,23L3892,1374z"/>
			<path fill="#FF8800" d="M3694,1450c-6-5-8-6-10-13c4-26,50-33,67-5C3737,1461,3722,1455,3694,1450z"/>
			<path fill="#FEE8A0" d="M4151,1627c17-11,28-16,48-17c-5,19-4,31-2,50c-18-4-20-12-36-11L4151,1627z"/>
			<path fill="#FE6A0F" d="M4876,1313c-12-6-22-9-27-21c3-25,49-22,67-21c-10,1-25,2-32,6C4881,1285,4879,1302,4876,1313L4876,1313z
				"/>
			<path fill="#FE6A0F" d="M5017,1141c-5-4-5-4-7-9c4-20,36-31,39,4C5038,1138,5029,1140,5017,1141L5017,1141z"/>
			<path fill="#D8170A" d="M4819,1227c8,24,6,45-5,67c-1,3-3,6-5,8C4808,1291,4814,1236,4819,1227L4819,1227z"/>
			<path fill="#FF8800" d="M4241,1496c28-4,66,8,40,43c-17,24-60,27-88,30c-17,0-47,1-56-15C4138,1522,4215,1501,4241,1496z"/>
			<path fill="#FEA41B" d="M3918,1237c23-3,58-2,78,8c48,23,16,43-18,50c-30,6-93,4-108-29C3871,1245,3901,1240,3918,1237L3918,1237
				z"/>
			<path fill="#FF8800" d="M3804,1273c70-7,56,50-11,63C3720,1342,3739,1285,3804,1273z"/>
			<path fill="#FF8800" d="M3937,1434c14-1,32-2,39,13c2,27-36,43-57,48C3852,1502,3878,1446,3937,1434z"/>
			<path fill="#FF8800" d="M3807,1504c10-1,16-1,24,4c9,15-3,23-13,32c-11,2-15,3-23-5C3786,1521,3796,1513,3807,1504L3807,1504z"/>
			<path fill="#FF8800" d="M4128,1074c13-1,25-1,32,10c0,9,0,5-6,13c-13,2-24,3-31-10C4124,1079,4123,1082,4128,1074z"/>
			<path fill="#FE6A0F" d="M3708,1236c11,1,19,2,23,12c-3,8-2,6-10,12c-11-1-19,0-25-9C3699,1242,3700,1244,3708,1236L3708,1236z"/>
			<path fill="#FF8800" d="M4395,2773c42-2,100,0,141,9c7,0,25,1,31,4c15,1,73,8,70,27c-24,29-123,27-158,21c-10-1-16-5-25-9h-8
				c-22-3-100,3-108-26C4346,2784,4379,2776,4395,2773z"/>
			<path fill="#FF8800" d="M4567,2786c15,1,73,8,70,27c-24,29-123,27-158,21c22-13,89,7,98-28c-2-8-4-10-10-16l-2-2L4567,2786z"/>
			<path fill="#FECC3E" d="M4535,2782c7,0,25,1,31,4l-3,2l2,2c6,6,8,8,10,16c-9,35-76,15-98,28c-10-1-16-5-25-9c21-2,103-1,99-29
				C4549,2788,4543,2786,4535,2782L4535,2782z"/>
			<path fill="#FF8800" d="M3979,2771c39-18,124-21,162,1c-1,10-3,15-14,19c-31,10-121,15-146-5C3977,2778,3978,2781,3979,2771z"/>
			<path fill="#FF8800" d="M3843,2875c25-26,140-29,169-11c5,7,4,4,3,14c-9,3-18,6-27,9c-44,4-87,4-131,0
				C3849,2883,3848,2882,3843,2875z"/>
			<path fill="#EE9C8E" d="M4340,2872c-8,0-15,1-21-4c11-13,88-16,107-15c7,2,10,1,14,6C4431,2871,4357,2872,4340,2872z"/>
			<path fill="#EE9C8E" d="M3987,2887c9-3,18-6,27-9c21,6,86-3,125,6C4106,2886,4019,2891,3987,2887z"/>
			<path fill="#EE9C8E" d="M3721,2885c-1-2-1-1-1-3c25-4,100,4,122-2v-4c5,6,6,8,13,12C3826,2890,3754,2886,3721,2885z"/>
			<path fill="#FF8800" d="M4675,2802c-9-2-17-3-24-9c-4-7-3-4-1-11c12-13,26-15,43-18c34-8,296-25,297,19c-22,30-236,23-276,22
				L4675,2802z"/>
			<path fill="#FEA41B" d="M4675,2802c3-2,5-5,7-8c7,5,16,5,25,2l7,9L4675,2802z"/>
			<path fill="#FEE8A0" d="M4682,2794c8-5,16-5,24-1v3C4699,2799,4690,2800,4682,2794L4682,2794z"/>
			<path fill="#FEA41B" d="M5021,1656c7-9,2-15,17-21c11,3,8,1,15,11c3,20,7,43,12,62c9,36,42,85,18,120c-14,18-52,21-69,7
				c-24-22-15-59-8-87C5014,1718,5018,1688,5021,1656L5021,1656z"/>
			<path fill="#FECC3E" d="M5028,1712c5,13,6,80,6,97c-4,6-3,4-12,6C5001,1788,5021,1743,5028,1712z"/>
			<path fill="#FF8800" d="M4199,2501c9,2,14,4,18,13c11,26,18,54,26,81c11,36,23,77-17,99c-17,1-36-6-45-22c-16-31,12-59,14-82
				C4198,2558,4185,2535,4199,2501z"/>
			<path fill="#FECC3E" d="M4198,2617c6,7,1,34-4,42C4181,2641,4187,2632,4198,2617z"/>
			<path fill="#FEA41B" d="M4197,2368c5,0,12,1,16,3c13,4,23,14,28,26c13,30-2,56-30,69C4150,2472,4145,2383,4197,2368z"/>
			<path fill="#FECC3E" d="M4183,2387c8,9,4,31-4,40C4169,2412,4173,2401,4183,2387z"/>
			<path fill="#FF8800" d="M3175,1509c8-9,13-9,25-11c27,11,45,48,14,63C3193,1571,3152,1542,3175,1509z"/>
			<path fill="#FEA41B" d="M3175,1509c8-9,13-9,25-11c-5,8-2,15-8,27l-4,2C3179,1522,3179,1518,3175,1509z"/>
			<path fill="#FEA41B" d="M5102,1521c13,2,16-1,20,13c2,18,19,53,3,68c-5,4-11,6-17,5c-5-1-10-3-13-7
				C5084,1586,5099,1542,5102,1521z"/>
			<path fill="#FECC3E" d="M5108,1549l3,2c5,11,3,21,0,33l-6-4C5100,1568,5104,1561,5108,1549L5108,1549z"/>
			<path fill="#FEA41B" d="M3219,1125c9-4,20-1,25,8s1,20-8,25c-6,3-13,3-19-1c-6-4-9-10-9-17C3209,1134,3213,1128,3219,1125z"/>
			<path fill="#FEA41B" d="M4482,2895c10-1,33-4,40,5l-3,4c-12,2-28,4-39-1l-1-4L4482,2895z"/>
			<path fill="#FFC04B" d="M4671,2811c10-1,15-3,23,3c-9,1-12,1-20,0L4671,2811z"/>
		</g>
	</g>
</g>
</svg>
