<?xml version="1.0" encoding="utf-8"?>
<!-- Generator: Adobe Illustrator 27.9.0, SVG Export Plug-In . SVG Version: 6.00 Build 0)  -->
<svg version="1.1" id="svg" xmlns="http://www.w3.org/2000/svg" xmlns:xlink="http://www.w3.org/1999/xlink" x="0px" y="0px"
	 viewBox="0 0 5882 3000" enable-background="new 0 0 5882 3000" xml:space="preserve">
<g>
	<g>
		<defs>
			<rect id="SVGID_1_" x="0" width="5882" height="3000"/>
		</defs>
		<clipPath id="SVGID_00000150823323530344908470000014172703160046223489_">
			<use xlink:href="#SVGID_1_"  overflow="visible"/>
		</clipPath>
		<g clip-path="url(#SVGID_00000150823323530344908470000014172703160046223489_)">
			<path fill="#FEB519" d="M0,0h5882v3000H0V0z"/>
			<path fill="#202123" d="M4831,189c34-7,73-11,108-15c82-11,155-29,229,21c90,61,94,129,94,227v108c0,102,4,210,0,311
				c1,51,1,102,1,153c0,25,3,62,1,87c2,26,1,57,1,84v136c57,14,118,26,172,50c18,8,43,30,60,37c30,13,62,22,92,34
				c60,25,102,73,140,124c15,21,31,41,44,63c-1,22-3,42-9,64c-2,14-17,65-23,76l-6,9c19,26,43,51,63,77c-13,11-33,28-44,39
				c-148,106-306,168-482,205c-1,0-3,6-3,7l1,402c0,17,0,35,0,52c-1,115,16,178-61,273c-23,28-95,69-131,64c-59,3-157,4-219,2
				c-48,2-117,0-166,0l-329-1c-81,1-164-3-219-73c-10-13-16-20-21-37c-28-54-24-95-24-154v-111v-409c0-30,2-125-2-149
				c-19-42-18-107-56-140c-22-14-63-48-85-65c-19-6-33-38-37-56c-1-3-10-15-13-18l-2-1c-22-40-28-93-46-125c-14-17-42-49-49-70
				c-2-5,2-8,5-12c2-1,30-20,34-23c9-2,17-4,26-6c8-6-17-39-16-50c0-5,1-7,3-12l20,13c-2-17-20-22-14-51c-4-9-15-25-24-30l-1,1
				c-10,7-35,23-41,30c-3,5-19,24-19,25c-6,5-8,7-15,11c-2,1-4,1-6,2c-32-9-48-63-41-94c3-15,12-33,16-50c2-6,3-12,5-19
				c18-38,68-34,102-48c9-4,27-17,35-23c7-5,15-11,22-17c20-24,69-57,96-73c3-2,14-2,18-2c26-14,62-32,86-47c-2-21-1-67-1-89V736
				V554c0-83-9-140,43-211c17-33,63-59,96-71c35-13,70-15,106-20l109-15l165-22c32-4,70-10,102-13c6-2,53-8,62-9
				C4800,192,4815,190,4831,189L4831,189z"/>
			<path fill="#EDECEC" d="M4675,1007c6-2,3-2,8-1c3,5,3,5,5,10s6,13,11,16c3,12,5,17,17,21l7-6c12-4,26-7,39-10c6,13,18,45,25,54
				c37,20,61,34,96,57c-1-12-3-26-2-38l3-2c12,1,15,5,25,6c6,3,32,17,34,21c14,11,32,26,46,36c10,0,19,1,28-3c21,17,34,38,51,58
				l-12-2c-6-1-14,0-19,4c1,11,10,8,3,17c-2,1-5,2-7,3c-2,7-2,7-5,13c22,12,68,38,60,68c-7,2-9-4-19-5c19,29,32,34,46,54
				c-7,16-18,45-13,63l11,39c5,20,8,34,10,54c7,47-19,69-36,106c18-8,34-17,51-26c0,11,0,34,1,44v47v28v121v197v174v285
				c-45,3-98,3-143,4l-275,7l-405,11c-56,1-110,4-167,4c-1-201,3-409-2-609c0-2,0-8-1-10c-13-17-31-37-43-53l-2,1l-2,11
				c0,15,1,57-2,70c-19-42-18-107-56-140c-22-14-63-48-85-65c-19-6-33-38-37-56c-1-3-10-15-13-18l-2-1c-22-40-28-93-46-125
				c-14-17-42-49-49-70c-2-5,2-8,5-12c2-1,30-20,34-23c9-2,17-4,26-6c8-6-17-39-16-50c0-5,1-7,3-12l20,13c-2-17-20-22-14-51
				c-4-9-15-25-24-30l-1,1c-10,7-35,23-41,30c-3,5-19,24-19,25c-6,5-8,7-15,11c-2,1-4,1-6,2c-32-9-48-63-41-94c3-15,12-33,16-50
				c2-6,3-12,5-19c18-38,68-34,102-48c9-4,27-17,35-23c7-5,15-11,22-17c20-24,69-57,96-73c3-2,14-2,18-2c13,6,19,9,31,17
				c7-2,18-4,24-7l2,5c5,7,5,7,12,12c9-3,17,1,28,1c-3,7-6,14-8,22c12,24,31,23,52,43c19-3,31-6,49,2l24,4c3-1,7-4,9-5
				c11-11,49-31,64-38c11-2,13-5,23-10c4-2,7-4,11-6c10-5,20-11,30-14c4,0,18-4,23-5c4,2,8,3,12,5l7-3c5-4,10-7,16-10l1-1
				c5,0,11,0,16,1l4-3c28-8,47-11,75-15l2-2l6,3l3-2l1-13c18-14,86-22,107-13C4652,1009,4663,1008,4675,1007L4675,1007z"/>
			<path fill="#F0D7CE" d="M4675,1007c6-2,3-2,8-1c3,5,3,5,5,10s6,13,11,16c3,12,5,17,17,21l7-6c12-4,26-7,39-10c6,13,18,45,25,54
				c37,20,61,34,96,57c-1-12-3-26-2-38l3-2c12,1,15,5,25,6c6,3,32,17,34,21c14,11,32,26,46,36c10,0,19,1,28-3c21,17,34,38,51,58
				l-12-2c-6-1-14,0-19,4c1,11,10,8,3,17c-2,1-5,2-7,3c-2,7-2,7-5,13c22,12,68,38,60,68c-7,2-9-4-19-5c19,29,32,34,46,54
				c-7,16-18,45-13,63l11,39c5,20,8,34,10,54c7,47-19,69-36,106c-16,8-62,31-78,35c-16-7-61,8-78,9c-21,6-44,13-65,18
				c-12,2-32,5-43,6c-28,1-56,0-84-2c-10,0-31-4-42-5l-25-5c-2-1-25-7-29-8c-21-6-38-12-59-20c-10,1-62-15-73-20c-7-6-11-14-8-23h-3
				l-4,3c-9-2-15-6-23-10c-2-4-16-20-21-26c-3-4-18-15-23-19c-23-19-44-39-65-60c-54-59-113-160-108-243c1-10,3-22,5-32l-2-4
				c-17-13-26-13-47-16c-4-33,36-66,28-78c11-11,49-31,64-38c11-2,13-5,23-10c4-2,7-4,11-6c10-5,20-11,30-14c4,0,18-4,23-5
				c4,2,8,3,12,5l7-3c5-4,10-7,16-10l1-1c5,0,11,0,16,1l4-3c28-8,47-11,75-15l2-2l6,3l3-2l1-13c18-14,86-22,107-13
				C4652,1009,4663,1008,4675,1007L4675,1007z"/>
			<path fill="#FADA8F" d="M4688,1017c2,5,6,13,11,16c3,12,5,17,17,21l7-6c12-4,26-7,39-10c6,13,18,45,25,54c37,20,61,34,96,57
				c-1-12-3-26-2-38l3-2c12,1,15,5,25,6c6,3,32,17,34,21c14,11,32,26,46,36c10,0,19,1,28-3c21,17,34,38,51,58l-12-2c-6-1-14,0-19,4
				c1,11,10,8,3,17c-2,1-5,2-7,3c-2,7-2,7-5,13c22,12,68,38,60,68c-7,2-9-4-19-5c-3-4-9-9-13-13l-2,1c-2-1-4-4-7-3
				c-11,6-41,17-46,28c3,11,3,14,4,25c1,3,1,8,4,9c3,2,2,1,4,2c-13,11-26,21-39,32l-11,9c-9-1-16-2-25,1l-4,5c-5-4-9-4-16-4
				c-9,7-27,24-37,23c-2-2-8-11-10-13c-2-10-18-43-30-46l-3,4c-5,11-7,16-13,26l-9,15c-4,4-7,7-12,9l-13,9c-26,10-27,15-44,32
				c-1,2-5,10-5,11c-13,30-23,51-32,82c-5,0-3,0-8-2c-16-1-25,0-40,2c-12,2-49,12-58,11c-5,3-7,3-12,7l-11-6c3-14,8-25,14-39
				c-44,14-41-9-33-42c-8-7-44-66-48-77c-5-10-9-20-20-23c-2-3-8-14-10-18c-3-11-4-14-4-26c-1-7,0-7,3-14c-2-25-20-44-22-59l4-3
				l-6-1c-7-5-8-8-13-16c19-3,31-14,45-26l14-13c11-10,21-20,31-31c9-7,25-26,35-36c10-14,19-16,34-25l-4-6c28-16,60-38,62-72l-4-6
				c5-4,10-12,14-17C4679,1028,4683,1022,4688,1017z"/>
			<path fill="#CFBC38" d="M4703,1400v-2c2-14,0-44,5-52c34,4,13,123,5,140c-5,18-7,34-10,53c-1,11-1,15-4,26c-16-1-25,0-40,2
				c-12,2-49,12-58,11c-5,3-7,3-12,7l-11-6c3-14,8-25,14-39c-44,14-41-9-33-42c3-12,5-23,8-35l2-6l4-1c10,5,16,9,27,6
				c10-8,15-33,24-50c10-22,10-27,12-51C4640,1408,4664,1399,4703,1400z"/>
			<path fill="#84311B" d="M4659,1493c18-9,22-14,38,0c6,0,11-3,17-7c-5,18-7,34-10,53c-1,11-1,15-4,26c-16-1-25,0-40,2
				c-12,2-49,12-58,11c27-13,38-33,62-48c5-3,10-6,15-9C4672,1509,4668,1504,4659,1493z"/>
			<path fill="#BE361F" d="M4697,1492c6,0,11-3,17-7c-5,18-7,34-10,53l-2-4c-6-1-7-1-12-4c-2-11,10-19,8-28c-3,0-5,0-8-1h-2
				C4690,1498,4694,1495,4697,1492z"/>
			<path fill="#FADA8F" d="M4518,1268c13,2,26,5,39,8c8,3,8,3,14,7c4,5,16,15,22,16c3,5,5,7,7,12c1,15,11,38-1,50c-16,15-10,10-9,29
				c10,13,16,22,34,21c-8,17-13,43-24,50c-11,3-17-1-27-6l-4,1l-2,6c-3,12-5,23-8,35c-8-7-44-66-48-77c-5-10-9-20-20-23
				c-2-3-8-14-10-18c-3-11-4-14-4-26c-1-7,0-7,3-14c-2-25-20-44-22-59l4-3c16,3,10,12,22,14c3-3,4-6,6-10c8-4,12,0,20,4
				C4513,1277,4513,1275,4518,1268L4518,1268z"/>
			<path fill="#D14D30" d="M4518,1268c13,2,26,5,39,8c8,3,8,3,14,7c4,5,16,15,22,16c3,5,5,7,7,12c1,15,11,38-1,50c-16,15-10,10-9,29
				c-8-9-22-19-28-27c-7-21-37-61-52-78C4513,1277,4513,1275,4518,1268z"/>
			<path fill="#A6361E" d="M4478,1354c-1-7,0-7,3-14c9,27,81,90,107,100c-6,4-11,9-14,16l-4,1l-2,6c-3,12-5,23-8,35
				c-8-7-44-66-48-77c-5-10-9-20-20-23c-2-3-8-14-10-18C4479,1369,4478,1366,4478,1354z"/>
			<path fill="#84311B" d="M4508,1399c10,8,58,56,60,65c-3,12-5,23-8,35c-8-7-44-66-48-77L4508,1399z"/>
			<path fill="#672515" d="M4478,1354c11,18,14,32,31,44l4,23c-5-10-9-20-20-23c-2-3-8-14-10-18C4479,1369,4478,1366,4478,1354z"/>
			
				<linearGradient id="SVGID_00000044893746433452866130000009989978582560910214_" gradientUnits="userSpaceOnUse" x1="4588.1538" y1="2237.8345" x2="4587.4116" y2="2141.0303" gradientTransform="matrix(1 0 0 1 0 -778)">
				<stop  offset="0" style="stop-color:#7D291D"/>
				<stop  offset="1" style="stop-color:#984137"/>
			</linearGradient>
			<path fill="url(#SVGID_00000044893746433452866130000009989978582560910214_)" d="M4588,1441c10-25-45-66-37-81c7,0,5,0,12,4
				c6,8,20,18,28,27c10,13,16,22,34,21c-8,17-13,43-24,50c-11,3-17-1-27-6C4577,1450,4582,1445,4588,1441z"/>
			<path fill="#672515" d="M4570,1155c15,11,27,16,43,25c2,2,6,6,8,8l3,4c10,1,18,0,25,6c-7,14-21,7-35,21l-1,2c4,5,3,4,11,5
				c13,1,26,0,39,1l-1,5c-24,2-30,4-49,20c-11,9-20,17-28,29l9,20c-6-2-18-11-22-16c-7-5-7-4-14-7c-13-3-26-5-39-8c-6,7-5,9-7,18
				c-7-4-12-9-20-4c-2,4-2,7-6,10c-12-2-6-11-22-14l-6-1c-7-5-8-8-13-16c19-3,31-14,45-26l14-13c11-10,21-20,31-31
				C4544,1184,4560,1166,4570,1155L4570,1155z"/>
			<path fill="#D14D30" d="M4570,1155c15,11,27,16,43,25c2,2,6,6,8,8l3,4c10,1,18,0,25,6c-7,14-21,7-35,21c-24-10-18-2-33,10
				c-10,8-48,3-60-1l-3-1c-5-2-9-3-14-4c11-10,21-20,31-31C4544,1184,4560,1166,4570,1155z"/>
			
				<linearGradient id="SVGID_00000061429897808273772020000008649485468919733949_" gradientUnits="userSpaceOnUse" x1="4633.2324" y1="2045.3328" x2="4593.3945" y2="2015.2806" gradientTransform="matrix(1 0 0 1 0 -778)">
				<stop  offset="0" style="stop-color:#A9320F"/>
				<stop  offset="1" style="stop-color:#B14138"/>
			</linearGradient>
			<path fill="url(#SVGID_00000061429897808273772020000008649485468919733949_)" d="M4572,1283c-3-29,20-47,41-63c4,5,3,4,11,5
				c13,1,26,0,39,1l-1,5c-24,2-30,4-49,20c-11,9-20,17-28,29l9,20C4588,1298,4576,1288,4572,1283L4572,1283z"/>
			<path fill="#A6361E" d="M4518,1268c7-8,8-20,9-30c16,2,29,16,33,31c-1,5,0,3-3,7C4544,1273,4531,1271,4518,1268z"/>
			<path fill="#EFDC72" d="M4882,1149c-1-12-3-26-2-38l3-2c12,1,15,5,25,6c6,3,32,17,34,21c14,11,32,26,46,36c10,0,19,1,28-3
				c21,17,34,38,51,58l-12-2c-6-1-14,0-19,4c1,11,10,8,3,17c-2,1-5,2-7,3c-2,7-2,7-5,13c-10-3-13-4-21-9l-10-11c-20,0-40-32-52-46
				c-21,6-47,11-66,19C4879,1203,4886,1158,4882,1149L4882,1149z"/>
			<path fill="#DA883A" d="M4942,1135c14,11,32,26,46,36C4944,1181,4952,1174,4942,1135z"/>
			<path fill="#DA883A" d="M4996,1241c13-1,24,3,37,6c-2,7-2,7-5,13c-10-3-13-4-21-9L4996,1241z"/>
			<path fill="#F0D7CE" d="M4786,1092c37,20,61,34,96,57c3,9-3,54-4,65c19-8,45-13,66-19c12,14,32,46,52,46l10,11c-16,7-70-12-81,6
				c-11,4-28,4-39,0c-22-49-47-69-92-94l-1-1C4789,1155,4785,1101,4786,1092z"/>
			<path fill="#F0D7CE" d="M4688,1017c2,5,6,13,11,16c3,12,5,17,17,21c-1,2-6,12-6,13c-4,20,4,58-3,63c-1,12,0,23-3,34l-12-1
				c-41,4-50,14-78,18c-16-8-29-13-43-25c10-14,19-16,34-25l-4-6c28-16,60-38,62-72l-4-6c5-4,10-12,14-17
				C4679,1028,4683,1022,4688,1017z"/>
			<path fill="#C3A62C" d="M4604,1131c19,9,47,29,68,15l2,2c5,6,11,9,17,13c-41,4-50,14-78,18c-16-8-29-13-43-25
				C4580,1142,4589,1139,4604,1131z"/>
			<path fill="#DA883A" d="M4688,1017c2,5,6,13,11,16c3,12,5,17,17,21c-1,2-6,12-6,13c-16-4-31-9-47-14l-4-6c5-4,10-12,14-17
				C4679,1028,4683,1022,4688,1017L4688,1017z"/>
			<path fill="#EFDC72" d="M4703,1132l4-3c-1,12,0,23-3,34l-12-1c-7-4-12-7-17-13l-2-2C4682,1138,4691,1136,4703,1132z"/>
			<path fill="#DA883A" d="M4703,1132c2,8,3,5,0,11c-12,5-16,3-28,6l-2-2C4682,1138,4691,1136,4703,1132z"/>
			<path fill="#A6361E" d="M4613,1251c19-16,25-17,49-20c2,8,4,10,8,17c4,19-3,26-13,42c-3,4-8,10-11,14c3,6,0,23-1,30l-3,1
				c-5,11-5,14-5,26c-2,24-3,30-12,51c-18,1-24-8-34-21c-1-19-7-14,9-29c12-12,2-34,1-50c-2-5-4-8-7-12l-9-20
				C4593,1267,4603,1260,4613,1251z"/>
			<path fill="#FADA8F" d="M4613,1251c19-16,25-17,49-20c2,8,4,10,8,17c4,19-3,26-13,42c-3,4-8,10-11,14h-3c-8-15,3-40-22-43
				C4619,1254,4619,1256,4613,1251z"/>
			<path fill="#F0D7CE" d="M4585,1279c8-12,18-19,28-29c6,5,5,3,7,10c-1,26,3,53,2,81c-9-11-14-18-21-30c-2-5-4-8-7-12L4585,1279z"
				/>
			<path fill="#A6361E" d="M4788,1215c3-15,2-43,6-52c45,26,71,45,92,94c5,12,6,16,9,28c-37-24-49-33-61-79c-7,7-20,18-26,25
				c0,20,0,27,5,47c1,12,4,33,7,44c-6,4-7,5-13,3c-8-10-5-30-5-44l-3-2c-6,1-11,5-16,8c-10-11-20-60-22-76
				C4771,1214,4778,1214,4788,1215L4788,1215z"/>
			<path fill="#F2DF6E" d="M4925,1258c12-18,66,1,81-6c9,5,12,6,21,9c22,12,68,38,60,68c-7,2-9-4-19-5c-3-4-9-9-13-13l-1-4
				c-39-41-92-22-130-39l3-6L4925,1258z"/>
			<path fill="#CFBC38" d="M4813,1279c31,17,79,38,96,72c4,7-2,23-12,20c-22-5-42-22-60-35c-5-4-13-15-17-13
				C4816,1312,4814,1290,4813,1279L4813,1279z"/>
			<path fill="#A6361E" d="M4686,1220c6-3,6-4,12-3c10,8,6,19,19,21c9-7,6-10,15-12c10,11,10,83,10,102c-24-20-29-35-42-63
				C4695,1250,4687,1234,4686,1220L4686,1220z"/>
			<path fill="#D14D30" d="M4686,1220c1,14,10,30,14,45c-6,16-9,55-15,75c-11-18-26-30-27-50c10-16,17-23,13-42c-4-7-6-9-8-17l1-5
				c4,0,10,0,14,0l5-1L4686,1220z"/>
			<path fill="#BE361F" d="M4663,1226c4,0,10,0,14,0c-9,10,0,12-7,22c-4-7-6-9-8-17L4663,1226z"/>
			<path fill="#C3A62C" d="M4692,1161l12,1l-2,6v18l-1,4c-15,4-31-2-51,7c-7-6-15-5-25-6l-3-4c-2-2-6-6-8-8
				C4642,1175,4651,1165,4692,1161L4692,1161z"/>
			<path fill="#B68825" d="M4692,1161l12,1l-2,6c-25,1-63-1-80,19c-2-2-6-6-8-8C4642,1175,4651,1165,4692,1161z"/>
			<path fill="#B5651C" d="M4624,1192c17-1,66-10,78-5l-1,4c-15,4-31-2-51,7C4643,1192,4634,1193,4624,1192L4624,1192z"/>
			<path fill="#CFBC38" d="M5004,1362c1,3,1,8,4,9c3,2,2,1,4,2c-13,11-26,21-39,32l-11,9c-9-1-16-2-25,1l-4,5c-5-4-9-4-16-4l13-7
				c19-10,34-32,56-42C4992,1365,4998,1363,5004,1362z"/>
			<path fill="#BE361F" d="M4657,1290c1,20,16,31,27,50c-6,12-11,23-18,35c-8-13-12-30-24-40l3-1c1-7,4-24,1-30
				C4649,1300,4654,1294,4657,1290L4657,1290z"/>
			<path fill="#AF8C21" d="M4762,1407c1-5,1-5,4-10c7-5,11-5,20-6c0,6,6,11,11,14c11,3,16,3,27,4l-9,15c-4,4-7,7-12,9
				c-9-5-18-3-24-13C4773,1411,4771,1409,4762,1407z"/>
			<path fill="#B68825" d="M4796,1405c11,3,16,3,27,4l-9,15c-8-1-25-5-22-16L4796,1405z"/>
			<path fill="#B68825" d="M4778,1420c6,9,16,8,24,13l-13,9c-26,10-27,15-44,32c5-13,9-25,13-38c2,2,1,1,5,2
				C4771,1433,4774,1427,4778,1420z"/>
			<path fill="#C3A62C" d="M4836,1383c-5,11-7,16-13,26c-11-1-16-1-27-4c-5-3-11-8-11-14C4802,1388,4819,1385,4836,1383z"/>
			<path fill="#C3A62C" d="M4986,1366c1-10-2-22,3-30c6-2,3-2,11,1c3,11,3,14,4,25C4998,1363,4992,1365,4986,1366L4986,1366z"/>
			<path fill="#B5651C" d="M4762,1407c10,2,11,5,17,13c-5,7-8,13-15,18c-4-1-2,0-5-2C4761,1424,4762,1419,4762,1407z"/>
			<path fill="#CFBC38" d="M4675,1007c6-2,3-2,8-1c3,5,3,5,5,10c-4,5-9,11-15,13c-4,5-10,13-14,17l4,6c-2,34-35,57-62,72l4,6
				c-16,8-24,11-34,25c-10,10-26,29-35,36c-10,11-20,21-31,31l-14,13c-14,12-26,23-45,26c-6,0-13,0-19,0h-10l-8-8c-21-2-45-2-66-1
				c-1-1-1-2-2-3c4-1,6-2,9-5c-1-36,33-56,58-74c5-2,12-6,16-8c7-4,19-18,25-24c-13,0-21-1-34-2c-5-3-6-5-10-9h-2c-8-18,1-41,7-60
				c5-4,10-7,16-10l1-1c5,0,11,0,16,1l4-3c28-8,47-11,75-15l2-2l6,3l3-2l1-13c18-14,86-22,107-13C4652,1009,4663,1008,4675,1007z"/>
			<path fill="#EFDC72" d="M4675,1007c6-2,3-2,8-1c3,5,3,5,5,10c-4,5-9,11-15,13c-4,5-10,13-14,17l4,6c-2,34-35,57-62,72l4,6
				c-16,8-24,11-34,25c-10,10-26,29-35,36c-10,11-20,21-31,31l-14,13c-8-4-8-9-9-17c13-12,82-85,80-99c-8-3-29,9-38,14
				c14-23,51-52,59-69l-1-3c-10,0-52,25-63,32c11-18,15-26,9-48l-4-1c0-4,0-2-2-7l2-2l6,3l3-2l1-13c18-14,86-22,107-13
				C4652,1009,4663,1008,4675,1007z"/>
			<path fill="#CFBC38" d="M4567,1138c0-1,1-4,2-5c28-24,44-49,68-77c3-3,17-8,22-9l4,6c-2,34-35,57-62,72
				C4587,1129,4580,1136,4567,1138z"/>
			<path fill="#B5651C" d="M4534,1023c18-14,86-22,107-13l-29,8c-15,6-27,11-41,19c-8-1-14-1-22-1h-16L4534,1023z"/>
			<path fill="#CFBC38" d="M4675,1007c6-2,3-2,8-1c3,5,3,5,5,10c-4,5-9,11-15,13c-13-7-32,5-43,1l6-6c-7-5-15-6-24-7l29-8
				C4652,1009,4663,1008,4675,1007z"/>
			<path fill="#EFDC72" d="M4675,1007c3-1-43,18-39,17c-7-5-15-6-24-7l29-8C4652,1009,4663,1008,4675,1007z"/>
			<path fill="#FADA8F" d="M4567,1138c13-2,19-9,33-13l4,6c-16,8-24,11-34,25c-10,10-26,29-35,36h-2c1-8,43-40,42-49c-7,2-11,3-18,3
				l-1-3C4565,1137,4558,1146,4567,1138L4567,1138z"/>
			<path fill="#F0D7CE" d="M4533,1036h16c5,0,7,0,11,3c-1,2-20,21-24,26c-3-10-4-17-6-27L4533,1036z"/>
			<path fill="#F0D7CE" d="M4521,1038c3,4,3,2,2,7c-8,15-36,61-52,67c-7,11-13,17-23,27c-13,0-21-1-34-2c-5-3-6-5-10-9h-2
				c-8-18,1-41,7-60c5-4,10-7,16-10l1-1c5,0,11,0,16,1l4-3C4474,1044,4493,1041,4521,1038L4521,1038z"/>
			<path fill="#F2DF6E" d="M4427,1054c5,0,11,0,16,1c-2,4-8,17-10,19l-1,2c-5,13-13,29-16,40l2,2c1,7-1,10-4,16c-5-3-6-5-10-9h-2
				c-8-18,1-41,7-60c5-4,10-7,16-10L4427,1054z"/>
			<path fill="#EFDC72" d="M4404,1126c6-11,17-47,28-52l-1,2c-5,13-13,29-16,40l2,2c1,7-1,10-4,16C4410,1132,4408,1130,4404,1126z"
				/>
			<path fill="#A6361E" d="M4418,1119c20-6,33-7,53-8c-7,11-13,17-23,27c-13,0-21-1-34-2C4417,1129,4419,1126,4418,1119z"/>
			<path fill="#A6361E" d="M4349,1244c11-7,29-16,41-19c36-7,68-13,93-42c4-4,1-3,7-6c4,3,2,1,3,6c-3,12-16,24-24,33l-2,11
				c4-3,8-7,13-11c1,8,1,13,9,17c-14,12-26,23-45,26c-6,0-13,0-19,0h-10l-8-8c-21-2-45-2-66-1c-1-1-1-2-2-3
				C4344,1248,4346,1247,4349,1244L4349,1244z"/>
			<path fill="#F2DF6E" d="M4468,1228c4-3,8-7,13-11c1,8,1,13,9,17c-14,12-26,23-45,26c-6,0-13,0-19,0
				C4433,1253,4457,1237,4468,1228z"/>
			<path fill="#C3A62C" d="M4470,1217l-2,11c-11,9-35,24-43,33h-10l-8-8C4430,1255,4452,1232,4470,1217z"/>
			<path fill="#A6361E" d="M4836,1383l3-4c12,3,28,37,30,46c2,3,8,11,10,13v1l2,9c5,16,8,25,14,40v1c-9,2-30,21-37,27
				c15,16,23,33,36,46c10,8,12,12,17,24c1,3,0,3,2,5c-11,4-38,13-49,15c-16,6-29,8-46,10c-17,3-27,4-44,3c-10,0-19,0-29,0
				c-13,1-22,0-35-2c-3-7-2-35-4-50c9-31,19-52,32-82c0-1,4-10,5-11c17-17,17-23,44-32l13-9c5-2,8-5,12-9l9-15
				C4829,1399,4832,1393,4836,1383z"/>
			<path fill="#D14D30" d="M4746,1474c17-17,17-23,44-32c12,6,28,2,35,12c-2,18-37,86-49,103c-9,13-31-15-37-24c-1-22,1-28,2-48
				C4741,1484,4745,1476,4746,1474z"/>
			<path fill="#BE361F" d="M4861,1516c15,16,23,33,36,46c10,8,12,12,17,24c1,3,0,3,2,5c-11,4-38,13-49,15c-16,6-29,8-46,10
				c3-24,1-41-2-65C4836,1536,4836,1527,4861,1516z"/>
			<path fill="#D14D30" d="M4866,1606c10-19,7-38,30-44c10,8,12,12,17,24c1,3,0,3,2,5C4905,1595,4878,1604,4866,1606z"/>
			<path fill="#672515" d="M4771,1597c8-18,31-33,47-45c3,23,6,41,2,65c-17,3-27,4-44,3C4769,1610,4770,1608,4771,1597z"/>
			<path fill="#84311B" d="M4870,1425c2,3,8,11,10,13v1l2,9c-14,13-25,23-39,36l-2-1c5-5,11-11,13-18c4-20,18-14,22-27
				C4871,1433,4870,1432,4870,1425z"/>
			<path fill="#864518" d="M4771,1597c-1,11-1,13,6,22c-10,0-19,0-29,0l-8-2v-1C4741,1614,4766,1600,4771,1597z"/>
			<path fill="#BE361F" d="M4335,1254l7-1c21-1,45-1,66,1l8,8h10c6,0,13,0,19,0c5,8,5,11,13,16l6,1l-4,3c2,15,20,34,22,59
				c-4,6-4,6-3,14c1,12,1,15,4,26c2,4,8,15,10,18l5,15c-5,17-19,20-35,21c0,3,1,6-1,8c-7,8-34,11-44,13c-9-12-15-21-23-34
				c-17-27-28-44-39-74c-7-21-12-39-17-61C4337,1279,4336,1262,4335,1254z"/>
			<path fill="#D14D30" d="M4434,1339c24,15,32,33,48,42c2,4,8,15,10,18l5,15c-5,17-19,20-35,21c0,3,1,6-1,8c-7,8-34,11-44,13
				c-9-12-15-21-23-34c-17-27-28-44-39-74C4394,1360,4398,1357,4434,1339z"/>
			<path fill="#672515" d="M4394,1422c10-3,20-5,29-9c8,5,31,19,38,21c0,3,1,6-1,8c-7,8-34,11-44,13C4408,1444,4402,1434,4394,1422z
				"/>
			<path fill="#AF8C21" d="M4335,1254l7-1c21-1,45-1,66,1l8,8c-13,5-16,12-25,23c-16,1-37,1-52,2C4337,1279,4336,1262,4335,1254z"/>
			<path fill="#BE361F" d="M5053,1311l2-1c4,4,10,9,13,13c19,29,32,34,46,54c-7,16-18,45-13,63l11,39c5,20,8,34,10,54
				c7,47-19,69-36,106c-16,8-62,31-78,35c-16-7-61,8-78,9c6-3,11-5,17-8c69-33,95-78,120-148C5099,1443,5090,1389,5053,1311
				L5053,1311z"/>
			<path fill="#502311" d="M4492,1398c12,3,15,13,20,23c5,11,40,70,48,77c-8,33-10,56,33,42c-5,13-11,25-14,39c-29-15-47-21-73-41
				c-32-19-68-53-90-82c10-2,37-6,44-13c2-2,1-4,1-8c16-1,30-4,35-21L4492,1398z"/>
			<path fill="#84311B" d="M4497,1413c3,18,4,38,5,57c2,22,5,46,5,67c-32-19-68-53-90-82c10-2,37-6,44-13c2-2,1-4,1-8
				C4477,1434,4491,1430,4497,1413z"/>
			<path fill="#5A2E12" d="M4933,1419l4-5c9-3,16-1,25-1l-3,6c12,7,18,14,27,25c2,46-79,84-69,137c-2,4-1,3-3,4c-6-11-8-15-17-24
				c-13-13-20-30-36-46c6-6,28-25,37-27v-1c-7-15-10-24-14-40l-2-9v-1c11,0,28-16,37-23C4924,1415,4928,1415,4933,1419z"/>
			<path fill="#C3A62C" d="M4933,1419l4-5c9-3,16-1,25-1l-3,6c-3,22-4,44-6,66c0,3-6,9-9,11c-14-1-32-4-46-9c-7-15-10-24-14-40l-2-9
				v-1c11,0,28-16,37-23C4924,1415,4928,1415,4933,1419z"/>
			<path fill="#EFDC72" d="M4917,1415c6,1,11,1,16,4c-2,11-2,19-10,27c-13,6-27-5-43-7v-1C4891,1438,4908,1422,4917,1415z"/>
			<path fill="#864518" d="M4897,1488c14,4,32,7,46,9c-12,13-20,16-35,24c-9-14-8-14-11-29V1488L4897,1488z"/>
			<path fill="#D14D30" d="M4390,1064c4,2,8,3,12,5c-20,11-35,20-52,34c-14,12-27,26-41,38c-18,13-40,42-44,64c-1,5,1,16,2,21
				c-4,5-4,5-7,11l-2-4c-17-13-26-13-47-16c-4-33,36-66,28-78c11-11,49-31,64-38c11-2,13-5,23-10c4-2,7-4,11-6c10-5,20-11,30-14
				C4371,1068,4385,1065,4390,1064L4390,1064z"/>
			<path fill="#84311B" d="M5004,1439c-1,19-2,27,5,44c-19,47-44,88-94,107c-2-2-1-2-2-5c2-2,1-1,3-4c-11-53,71-91,69-137
				c5,6,5,8,11,9c3-4,3-4,5-9C5001,1442,5002,1441,5004,1439z"/>
			<path fill="#BE361F" d="M4404,1126c4,4,5,6,10,9c12,2,21,2,34,2c-6,6-18,20-25,24c-5,2-12,6-16,8c-25,18-59,39-58,74
				c-3,3-5,4-9,5c1,1,1,2,2,3l-7,1c-1-55,6-63,38-105c6-10,19-16,29-22L4404,1126z"/>
			<path fill="#AF8C21" d="M4404,1126c4,4,5,6,10,9c12,2,21,2,34,2c-6,6-18,20-25,24c-8-5-15,4-39-9c-4-2-6-3-11-5c6-10,19-16,29-22
				L4404,1126z"/>
			<path fill="#A6361E" d="M4384,1153c25,13,31,4,39,9c-5,2-12,6-16,8c-14-3-28,3-40-2v-3C4373,1158,4376,1157,4384,1153L4384,1153z
				"/>
			<path fill="#D14D30" d="M4602,1578c9,1,46-9,58-11c15-2,24-3,40-2c5,3,3,2,8,2c2,15,1,43,4,50c-44-5-81-16-122-33
				C4595,1581,4597,1580,4602,1578z"/>
			<path fill="#A6361E" d="M5012,1373c9,8,7,37,7,49c-9,6-11,9-16,18c-2,2-3,3-3,5c-2,5-2,5-5,9c-5-1-6-3-11-9c-9-11-14-18-27-25
				l3-6l11-9C4986,1394,4999,1383,5012,1373z"/>
			<path fill="#B5651C" d="M4962,1414l11-9c15,8,23,23,28,39c-2,5-2,5-5,9c-5-1-6-3-11-9c-9-11-14-18-27-25L4962,1414z"/>
			<path fill="#84311B" d="M4308,1141c5,7,5,6,5,13c-8,11-43,69-47,72c-1-5-3-16-2-21C4269,1183,4291,1153,4308,1141L4308,1141z"/>
			<path fill="#A6361E" d="M4502,1624c28,14,53,30,82,43c-10,1-62-15-73-20C4503,1641,4499,1633,4502,1624z"/>
			<path fill="#B5651C" d="M5004,1439c5-9,7-12,16-18c-2,26-3,38-10,62C5002,1466,5003,1458,5004,1439z"/>
			<path fill="#CC7920" d="M4451,1590c12,8,38,25,48,34l-4,3c-9-2-15-6-23-10C4469,1612,4455,1596,4451,1590z"/>
			<path fill="#84311B" d="M4331,1422l8,2c9,9,5,16-1,25c-7-5-15-10-16-20C4325,1423,4323,1426,4331,1422L4331,1422z"/>
			
				<linearGradient id="SVGID_00000142856229896677899610000003301409156292027305_" gradientUnits="userSpaceOnUse" x1="4289.0708" y1="2492.9006" x2="4121.6011" y2="2054.1406" gradientTransform="matrix(1 0 0 1 0 -778)">
				<stop  offset="0" style="stop-color:#28180D"/>
				<stop  offset="1" style="stop-color:#4C1A11"/>
			</linearGradient>
			<path fill="url(#SVGID_00000142856229896677899610000003301409156292027305_)" d="M3903,1118c20-24,69-57,96-73c3-2,14-2,18-2
				c13,6,19,9,31,17c7-2,18-4,24-7l2,5c5,7,5,7,12,12c9-3,17,1,28,1c-3,7-6,14-8,22c12,24,31,23,52,43c19-3,31-6,49,2l24,4
				c3-1,7-4,9-5c7,12-32,45-28,78c21,4,30,3,47,16l2,4c-2,10-4,22-5,32c-5,83,54,184,108,243c21,21,43,41,65,60c5,4,20,15,23,19
				c4,6,18,22,21,26c8,4,14,9,23,10l4-3h3c-3,9,1,17,8,23c11,5,64,21,73,20c21,8,38,14,59,20c4,1,27,7,29,8l25,5c-10,4-11,3-15,11
				c1,9,4,13,7,22l-7,1c-28,7-73,15-102,19l-8,4c-14-2-31-8-42-17l-15,2c5,3,9,5,11,9c-5,2-6,1-11,1l1,5c-20,5-79-1-101-4
				c-5-1-24-9-31-11l-3-1c-9,13-22,5-34,1c-1,10-3,21-4,31c-11,11-15,15-30,20l2,2c18,19,40,26,29,55c-44-2-57-7-98-20c-1,3-3,6-5,9
				c3,15,30,34,42,43c4,3,8,6,13,8c-6,0-23-2-27-1c-22,2-56,18-76,29v28c-13-6-30-12-44-17c0-2,0-8-1-10c-13-17-31-37-43-53l-2,1
				l-2,11c0,15,1,57-2,70c-19-42-18-107-56-140c-22-14-63-48-85-65c-19-6-33-38-37-56c-1-3-10-15-13-18l-2-1c-22-40-28-93-46-125
				c-14-17-42-49-49-70c-2-5,2-8,5-12c2-1,30-20,34-23c9-2,17-4,26-6c8-6-17-39-16-50c0-5,1-7,3-12l20,13c-2-17-20-22-14-51
				c-4-9-15-25-24-30l-1,1c-10,7-35,23-41,30c-3,5-19,24-19,25c-6,5-8,7-15,11c-2,1-4,1-6,2c-32-9-48-63-41-94c3-15,12-33,16-50
				c2-6,3-12,5-19c18-38,68-34,102-48c9-4,27-17,35-23C3888,1129,3896,1123,3903,1118L3903,1118z"/>
			<path fill="#DA883A" d="M3903,1118c20-24,69-57,96-73c3-2,14-2,18-2c13,6,19,9,31,17c7-2,18-4,24-7l2,5c5,7,5,7,12,12
				c9-3,17,1,28,1c-3,7-6,14-8,22c12,24,31,23,52,43c19-3,31-6,49,2l24,4c3-1,7-4,9-5c7,12-32,45-28,78c21,4,30,3,47,16l2,4
				c-2,10-4,22-5,32c-5,83,54,184,108,243c-9-1-14-9-26-8c-10,17-10,24-9,44c-10,9-13,10-26,15c-4-9-31-70-33-77c-26,14-39,10-64-2
				c-3,6-3,6-3,13l4,3c-4,8-3,7-10,13c-8,4-10,5-19,3c-6-1-12-3-17-1l-2,2c-4-4-5-11-6-16c-2,6-4,8-10,9c-8-5-11-23-14-33
				c-23-21-49-44-77-57c-10-4-32-9-40-14c-38-25-78-49-116-73c-9-4-18-13-24-13v11c-4-9-15-25-24-30l-1,1c-10,7-35,23-41,30
				c-3,5-19,24-19,25c-6,5-8,7-15,11c-2,1-4,1-6,2c-32-9-48-63-41-94c3-15,12-33,16-50c2-6,3-12,5-19c18-38,68-34,102-48
				c9-4,27-17,35-23C3888,1129,3896,1123,3903,1118z"/>
			<path fill="#BE361F" d="M4230,1142c3-1,7-4,9-5c7,12-32,45-28,78c21,4,30,3,47,16l2,4c-2,10-4,22-5,32c-5,83,54,184,108,243
				c-9-1-14-9-26-8c-10,17-10,24-9,44c-10,9-13,10-26,15c-4-9-31-70-33-77c-2-13-7-23-13-35c-6-9-2-10-14-21c-16-15-32-30-49-45
				c-2-10-19-40-22-53c-5-18-7-37-12-55c-5-7-9-16-13-24c-15-6-23-11-31-25c22,2,27-7,37-25c2-7,8-3,10-12c3-13-10-13-14-22
				c16-2,31-6,45,2c7-1,8-4,11-10c-2-11-4-13,4-21L4230,1142z"/>
			<path fill="#672515" d="M4255,1449h3c14,10,64,51,78,54c-10,17-10,24-9,44c-10,9-13,10-26,15c-4-9-31-70-33-77
				C4265,1471,4260,1461,4255,1449z"/>
			<path fill="#84311B" d="M4146,1167c16-2,31-6,45,2c-1,0-6,4-6,4c-13,35-24,64-27,102c-5-7-9-16-13-24c-15-6-23-11-31-25
				c22,2,27-7,37-25c2-7,8-3,10-12C4163,1177,4150,1177,4146,1167L4146,1167z"/>
			<path fill="#672515" d="M4211,1216c21,4,30,3,47,16c-3,3-5,8-8,11C4219,1268,4209,1243,4211,1216L4211,1216z"/>
			<path fill="#5A2E12" d="M4206,1138l24,4c-12,12-16,10-28,17C4200,1148,4198,1146,4206,1138z"/>
			<path fill="#84311B" d="M4227,1298c23-1,28,4,24,27C4240,1323,4229,1310,4227,1298z"/>
			<path fill="#864518" d="M3851,1295c-12-26-16-43,2-68c44,75,135,79,182,150c16,4,50,11,64,17c8,3,39,32,47,40c18,15,42,33,58,49
				c-3,6-3,6-3,13l4,3c-4,8-3,7-10,13c-8,4-10,5-19,3c-6-1-12-3-17-1l-2,2c-4-4-5-11-6-16c-2,6-4,8-10,9c-8-5-11-23-14-33
				c-23-21-49-44-77-57c-10-4-32-9-40-14c-38-25-78-49-116-73c-9-4-18-13-24-13v11c-4-9-15-25-24-30L3851,1295z"/>
			<path fill="#84311B" d="M4127,1475c2,1,12,8,13,8c17,13,29,14,48,21c0,0,6,7,7,8c-8,4-10,5-19,3c-6-1-12-3-17-1l-2,2
				c-4-4-5-11-6-16c-2,6-4,8-10,9C4133,1503,4130,1485,4127,1475z"/>
			<path fill="#502311" d="M4151,1500c12,3,16,6,25,15c-6-1-12-3-17-1l-2,2C4153,1512,4152,1505,4151,1500z"/>
			
				<linearGradient id="SVGID_00000091013471297935610660000004255800790184916356_" gradientUnits="userSpaceOnUse" x1="4162.4346" y1="2257.2258" x2="4196.2456" y2="2258.1526" gradientTransform="matrix(1 0 0 1 0 -778)">
				<stop  offset="0" style="stop-color:#C57836"/>
				<stop  offset="1" style="stop-color:#E68F3D"/>
			</linearGradient>
			<path fill="url(#SVGID_00000091013471297935610660000004255800790184916356_)" d="M4166,1489c-15-7-8-14-22-10c3-10,9-1,8-16
				c9-1,34,15,44,20c4,2,4,6,4,10C4189,1500,4178,1493,4166,1489L4166,1489z"/>
			<path fill="#864518" d="M4140,1483c15,2,26,16,41,14l-3-1c-5-2-8-3-12-7c12,4,23,11,34,4l1,2l4,3c-4,8-3,7-10,13c-1-1-7-8-7-8
				C4169,1497,4156,1496,4140,1483z"/>
			<path fill="#84311B" d="M3851,1295c9,6,38,30,43,37c-9-4-18-13-24-13v11c-4-9-15-25-24-30L3851,1295z"/>
			<path fill="#672515" d="M3744,1206c66,4,65-34,122-23l7,1c3,10-15,32-20,42c-17,25-14,42-2,68l-4,5l-1,1c-10,7-35,23-41,30
				c-3,5-19,24-19,25c-6,5-8,7-15,11c-2,1-4,1-6,2c-32-9-48-63-41-94c3-15,12-33,16-50C3740,1219,3742,1213,3744,1206L3744,1206z"/>
			<path fill="#864518" d="M3739,1225c7-2,8-3,15-2c9,6,10,20,13,31c-9,8-13,11-23,17c16,15,43,29,53,39c-4,14-31,36-32,53h-1l1,2
				l6,1c-2,1-4,1-6,2c-32-9-48-63-41-94C3726,1260,3734,1242,3739,1225z"/>
			<path fill="#84311B" d="M3744,1206c66,4,65-34,122-23l-5,2c3,0,5,1,8,1c-7,0-28,1-34,4c-20,12-42,23-60,38c-8,7-6,16-7,25l-2,1
				c-3-11-3-25-13-31c-7-1-8-1-15,2C3740,1219,3742,1213,3744,1206L3744,1206z"/>
			<path fill="#864518" d="M3903,1118c42,20,55,6,97-4c19-5,37-5,56-5c29,1,39,20,66,25c9,2,22,0,32,0c-32,8-66,20-94,39
				c-62,41-65,66-145,43c15-20,22-27,27-52c-20-32-34-20-61-29C3888,1129,3896,1123,3903,1118L3903,1118z"/>
			<path fill="#672515" d="M4092,1196c6,15,7,19,20,30l1,1c8,14,17,19,31,25c4,8,8,16,13,24c5,18,7,37,12,55c3,13,20,43,22,53
				c-22-17-17-24-34-44c-6-7-21-18-28-24c-30-28-68-58-104-79l14-18C4050,1218,4075,1202,4092,1196L4092,1196z"/>
			<path fill="#A6361E" d="M4041,1218c28-35,65-40,102-50l3-1c4,9,17,10,14,22c-2,9-8,5-10,12c-10,18-15,27-37,25l-1-1
				c-13-10-14-14-20-30C4075,1202,4050,1218,4041,1218L4041,1218z"/>
			<path fill="#D14D30" d="M4131,1194c7-5,3-4,11-4c5,4,6,6,9,12c-10,18-15,27-37,25l-1-1c-13-10-14-14-20-30
				C4101,1195,4123,1189,4131,1194L4131,1194z"/>
			<path fill="#84311B" d="M4092,1196c9-2,31-7,38-3c-6,7-16,14-19,22v10C4099,1216,4098,1212,4092,1196z"/>
			<path fill="#672515" d="M4085,1071c9-3,17,1,28,1c-3,7-6,14-8,22C4091,1088,4091,1083,4085,1071z"/>
			<path fill="#84311B" d="M4087,1318c12,11,16,15,23,29c3,8,3,4,1,12c-6,5-2,3-10,5c-8-2-5,0-10-6c-2-6-1-6,0-12
				C4091,1337,4088,1327,4087,1318L4087,1318z"/>
			<path fill="#864518" d="M4087,1318c12,11,16,15,23,29c-4-2-9-4-13-6c-5,2-3,0-6,5C4091,1337,4088,1327,4087,1318L4087,1318z"/>
			<path fill="#864518" d="M3973,1077c10,1,16,2,20,12c0,7,1,4-4,10c-10-3-19-5-21-16L3973,1077z"/>
			<path fill="#864518" d="M4046,1306c7,0,9,0,15,4c4,7,3,4,2,13c-8-1-8-1-14-5C4045,1310,4046,1314,4046,1306z"/>
			<path fill="#FADA8F" d="M3920,1685c14,4,20,5,34,7c11,2,16,3,27,4c17,2,34,3,51,4c15,1,25,2,40,4c38,8,96,11,138,18
				c11,2,22,3,32,4c12,5,47,7,62,9h17c10,2,17,4,27,5c-1,10-3,21-4,31c-11,11-15,15-30,20l2,2c18,19,40,26,29,55c-44-2-57-7-98-20
				c-1,3-3,6-5,9c3,15,30,34,42,43c4,3,8,6,13,8c-6,0-23-2-27-1c-22,2-56,18-76,29v28c-13-6-30-12-44-17c0-2,0-8-1-10
				c-13-17-31-37-43-53l-2,1l-2,11c0,15,1,57-2,70c-19-42-18-107-56-140c-22-14-63-48-85-65C3938,1735,3924,1703,3920,1685
				L3920,1685z"/>
			<path fill="#864518" d="M3957,1741c21,5,45,9,64,15c8,2,28,4,33,9c4,5,6,9,13,13c15,1,16,3,27-6c14,0,60,8,75,12c7,9,33,30,44,33
				l1-1l10,4c6,2,15,5,21,8c-1,3-3,6-5,9c3,15,30,34,42,43c4,3,8,6,13,8c-6,0-23-2-27-1c-22,2-56,18-76,29v28c-13-6-30-12-44-17
				c0-2,0-8-1-10c-13-17-31-37-43-53l-2,1l-2,11c0,15,1,57-2,70c-19-42-18-107-56-140C4020,1792,3979,1758,3957,1741z"/>
			<path fill="#B68825" d="M4042,1806c48-13,58,31,58,69c0,15,1,57-2,70C4079,1904,4080,1839,4042,1806z"/>
			<path fill="#5A2E12" d="M4021,1756c8,2,28,4,33,9c4,5,6,9,13,13c0,6,1,4-3,8C4050,1789,4031,1766,4021,1756z"/>
			<path fill="#5A2E12" d="M4224,1820c6,2,15,5,21,8c-1,3-3,6-5,9C4231,1832,4227,1830,4224,1820L4224,1820z"/>
			<path fill="#CFBC38" d="M4286,1794c10-2,17-3,27-4l2,2c18,19,40,26,29,55c-44-2-57-7-98-20c-5-2-15-6-21-8l-10-4
				c18-16,35-7,52-16C4273,1796,4279,1796,4286,1794z"/>
			<path fill="#5A2E12" d="M4170,1783c23,4,79,10,97,16c-17,9-34,0-52,16l-1,1C4203,1813,4177,1792,4170,1783z"/>
			
				<linearGradient id="SVGID_00000112623807083789374970000002818019552155776394_" gradientUnits="userSpaceOnUse" x1="4512.7173" y1="2421.6899" x2="4482.0054" y2="2511.3608" gradientTransform="matrix(1 0 0 1 0 -778)">
				<stop  offset="0" style="stop-color:#B4A415"/>
				<stop  offset="1" style="stop-color:#F5E641"/>
			</linearGradient>
			<path fill="url(#SVGID_00000112623807083789374970000002818019552155776394_)" d="M4510,1647c11,5,64,21,73,20c21,8,38,14,59,20
				c4,1,27,7,29,8l25,5c-10,4-11,3-15,11c1,9,4,13,7,22l-7,1c-28,7-73,15-102,19l-8,4c-14-2-31-8-42-17l-15,2c-9-4-19-7-29-8
				c-4-4-7-12-10-18c-43,5-87-4-125-26c-12-7-42-24-46-38c8-2,29,15,58,4c11,10,23,1,35-2c35-10,80,10,117,15h3L4510,1647z"/>
			<path fill="#672515" d="M4530,1710c22,2,41,3,63,7c-5,8-11,16-11,26l-1,8l-8,4c-14-2-31-8-42-17c-5-6-12-13-13-20
				C4522,1711,4522,1713,4530,1710z"/>
			<path fill="#CFBC38" d="M4478,1714c1-2,3-6,4-7c8-3,39,0,47,3c-8,3-7,1-11,7c0,7,8,15,13,20l-15,2c-9-4-19-7-29-8
				C4484,1727,4481,1719,4478,1714z"/>
			<path fill="#672515" d="M4654,1722c10,6,22,7,28,10c-28,7-73,15-102,19l1-8C4609,1743,4630,1734,4654,1722z"/>
			<path fill="#A6361E" d="M4672,1695l25,5c-10,4-11,3-15,11c1,9,4,13,7,22l-7,1c-6-4-18-5-28-10c10-8,23-9,24-19L4672,1695z"/>
			<path fill="#EFDC72" d="M4336,1503c12-1,17,8,26,8c21,21,43,41,65,60c5,4,20,15,23,19c4,6,18,22,21,26c8,4,14,9,23,10l4-3h3
				c-3,9,1,17,8,23l9,20h-3c-36-5-82-25-117-15c-12,4-24,12-35,2l-19-14c-16,0-31-1-47-2c-7-12-13-18-24-27l-3-4l-18-3
				c-9-5-31-28-32-38c4-1,8-3,12-4c10,10,26,17,30,22c4-6,8-10,13-15c6-1,15-4,20-6l5-1c13-4,16-5,26-15
				C4326,1526,4325,1519,4336,1503z"/>
			<path fill="#C3A62C" d="M4336,1503c12-1,17,8,26,8c21,21,43,41,65,60c5,4,20,15,23,19c4,6,18,22,21,26c-18-8-35-16-54-23
				c-21-8-51-12-71-22c-2-1-14-20-18-24l-1-1C4326,1526,4325,1519,4336,1503z"/>
			<path fill="#CFBC38" d="M4254,1604c-9-5-31-28-32-38c4-1,8-3,12-4c10,10,26,17,30,22c32,10,76,19,110,28c-17,1-29,1-46,0
				c-11-1-49-10-53-9l-1,5L4254,1604z"/>
			<path fill="#672515" d="M3870,1330v-11c5,0,15,9,24,13c38,25,78,48,116,73c7,5,30,9,40,14c29,13,54,36,77,57c2,10,6,28,14,33
				c6,0,8-3,10-9c1,5,2,12,6,16c9,14,23,32,21,47c-4,6-2,4-7,7c-16-12-48-51-67-63c-61-37-129-66-189-104c-8-5-24-16-31-22
				C3881,1364,3864,1359,3870,1330z"/>
			<path fill="#CFBC38" d="M4254,1604l18,3l3,4c11,8,17,15,24,27c16,1,31,2,47,2l19,14c-29,11-50-6-58-4c4,14,34,31,46,38
				c38,21,82,30,125,26c3,5,6,14,10,18c10,0,20,4,29,8c5,3,9,5,11,9c-5,2-6,1-11,1l1,5c-20,5-79-1-101-4c-5-1-24-9-31-11l-3-1
				c-9,13-22,5-34,1c-10-1-18-3-27-5h-17c-15-1-50-3-62-9l1-14c31-3,58-3,93-7c-17-20-51-38-74-57v-2c5-1,12,0,16-4
				c-2-14-39-22-51-29l-1-2c9-5,15-5,25-3L4254,1604z"/>
			<path fill="#5A2E12" d="M4320,1734c14-9,47-2,62,5c-9,13-22,5-34,1C4338,1738,4330,1736,4320,1734z"/>
			<path fill="#502311" d="M4488,1731c10,0,20,4,29,8c5,3,9,5,11,9c-5,2-6,1-11,1C4508,1746,4494,1737,4488,1731z"/>
			<path fill="#AF8C21" d="M4254,1604l18,3l3,4c-6,0-18-3-24-4L4254,1604z"/>
			<path fill="#835A1E" d="M4364,1712c10,1,25,0,33,3C4385,1721,4375,1718,4364,1712z"/>
			
				<linearGradient id="SVGID_00000163072016835576078300000013183056281641814916_" gradientUnits="userSpaceOnUse" x1="3840.8235" y1="2222.2319" x2="3934.8645" y2="2420.0842" gradientTransform="matrix(1 0 0 1 0 -778)">
				<stop  offset="0" style="stop-color:#562514"/>
				<stop  offset="1" style="stop-color:#824F1C"/>
			</linearGradient>
			<path fill="url(#SVGID_00000163072016835576078300000013183056281641814916_)" d="M3851,1437c9-2,17-4,26-6c3,11,7,19-6,26
				c-9,5-16,8-24,15c19,27,77,50,71,88c-5,30-13,55,13,81c-9,7-20,15-24,26c-22-40-28-93-46-125c-14-17-42-49-49-70c-2-5,2-8,5-12
				C3818,1459,3847,1439,3851,1437z"/>
			<path fill="#502311" d="M3817,1460c12,11,62,66,43,81c-14-17-42-49-49-70C3810,1466,3813,1464,3817,1460z"/>
			<path fill="#84311B" d="M4201,1495c0-7-1-7,3-13c25,12,38,16,64,2c2,6,29,68,33,77l-5,1c-25-25-62-44-85-64l-3-2l-3,3L4201,1495z
				"/>
			<path fill="#672515" d="M4032,1672c8-5,15-7,24-9c8,16,10,30,16,42c-15-3-24-4-40-4C4035,1688,4036,1683,4032,1672z"/>
			<path fill="#84311B" d="M3981,1696c3-4,4-5,9-7c15-5,28-11,43-17c4,11,2,16-1,28C4014,1698,3998,1697,3981,1696z"/>
			<path fill="#672515" d="M3907,1667c4-1,13-2,15,1c5,8,28,20,32,24c-14-2-20-3-34-7C3919,1682,3910,1670,3907,1667z"/>
			<path fill="#F2DF6E" d="M4233,1562c12-2,27,5,42,7c-5,5-9,9-13,15C4259,1579,4243,1572,4233,1562z"/>
			<path fill="#AF8C21" d="M4210,1722c10-9,20-9,33-10l-1,14C4231,1725,4220,1723,4210,1722z"/>
			<path fill="#672515" d="M3958,1554c24,1,82,3,102-19c10-11-16-18-18-36l3-3c15-1,45,12,58,21c18,13,10,29-1,43
				c-10,17-44,27-63,28l-5,2c-1,5-2,16-3,21C3996,1597,3978,1585,3958,1554z"/>
			<path fill="#502311" d="M4038,1588c12-9,47-21,63-28C4091,1577,4057,1587,4038,1588z"/>
			<path fill="#F7BA50" d="M5088,1639c18-8,34-17,51-26c0,11,0,34,1,44v47v28v121v197v174c-234-32-453-81-668-185
				c-35-10-60-27-93-39c-23-9-70-30-91-43l5-7l43-7c-6-8-9-12-14-21c-5-9-7-23-11-28h-6c-3-1-6-4-9-5c-4-3-9-5-13-8
				c-12-9-39-28-42-43c2-3,3-6,5-9c41,13,54,18,98,20c11-30-10-36-29-55l-2-2c15-5,20-9,30-20c2-10,3-20,4-31c12,4,26,12,34-1l3,1
				c7,2,27,10,31,11c22,3,81,9,101,4l-1-5c5,0,6,1,11-1c-2-5-6-6-11-9l15-2c11,9,28,15,42,17l8-4c29-3,74-12,102-19l7-1
				c-3-9-6-13-7-22c4-8,5-6,15-11c10,2,32,5,42,5c28,2,56,3,84,2c12-1,31-4,43-6c21-5,44-12,65-18c17-1,62-16,78-9
				C5026,1670,5071,1647,5088,1639z"/>
			<path fill="#FADA8F" d="M5088,1639c18-8,34-17,51-26c0,11,0,34,1,44v47l-1,2c-148,61-289,145-436,209c-49,21-92,59-147,54
				c-23-14-23-21-6-42c2-3,4-6,7-8l-1-1c-40,1-82,3-121,9c-46,7-49,20-98,17c-6-8-9-12-14-21c-5-9-7-23-11-28h-6c-3-1-6-4-9-5
				c-4-3-9-5-13-8c-12-9-39-28-42-43c2-3,3-6,5-9c41,13,54,18,98,20c11-30-10-36-29-55l-2-2c15-5,20-9,30-20c2-10,3-20,4-31
				c12,4,26,12,34-1l3,1c7,2,27,10,31,11c22,3,81,9,101,4l-1-5c5,0,6,1,11-1c-2-5-6-6-11-9l15-2c11,9,28,15,42,17l8-4
				c29-3,74-12,102-19l7-1c-3-9-6-13-7-22c4-8,5-6,15-11c10,2,32,5,42,5c28,2,56,3,84,2c12-1,31-4,43-6c21-5,44-12,65-18
				c17-1,62-16,78-9C5026,1670,5071,1647,5088,1639z"/>
			<path fill="#AF8C21" d="M4382,1739l3,1c7,2,27,10,31,11c22,3,81,9,101,4l1,1c6,5,11,6,18,9c7,6,28,7,38,10c9,3,19-2,27,2h5
				c3,5,7,6,13,7c24,6,45,12,68,22c-17,9-60,35-58,56c3,3,3,4,7,6l-5,4c-23,17-49,37-74,49l-1-1c-40,1-82,3-121,9c-46,7-49,20-98,17
				c-6-8-9-12-14-21s-7-23-11-28h-6c-3-1-6-4-9-5c-4-3-9-5-13-8c-12-9-39-28-42-43c2-3,3-6,5-9c41,13,54,18,98,20c11-30-10-36-29-55
				l-2-2c15-5,20-9,30-20c2-10,3-20,4-31C4360,1744,4373,1752,4382,1739z"/>
			
				<linearGradient id="SVGID_00000058589880335107616230000007345268446512444603_" gradientUnits="userSpaceOnUse" x1="4414.2842" y1="2622.2598" x2="4360.8345" y2="2729.1055" gradientTransform="matrix(1 0 0 1 0 -778)">
				<stop  offset="0" style="stop-color:#3A1A0B"/>
				<stop  offset="1" style="stop-color:#5A1D16"/>
			</linearGradient>
			<path fill="url(#SVGID_00000058589880335107616230000007345268446512444603_)" d="M4245,1828c41,13,54,18,98,20l6,1
				c24,0,62,18,86,24c15,5,115,40,120,43v2c-40,1-82,3-121,9c-46,7-49,20-98,17c-6-8-9-12-14-21c-5-9-7-23-11-28h-6c-3-1-6-4-9-5
				c-4-3-9-5-13-8c-12-9-39-28-42-43C4242,1834,4243,1831,4245,1828z"/>
			<path fill="#5A2E12" d="M4349,1848c24,0,62,18,86,24c-1,6-3,17-10,19C4393,1904,4361,1874,4349,1848z"/>
			
				<linearGradient id="SVGID_00000182504706246994194410000000081475601590771114_" gradientUnits="userSpaceOnUse" x1="4543.0278" y1="2635.7117" x2="4645.3848" y2="2544.1306" gradientTransform="matrix(1 0 0 1 0 -778)">
				<stop  offset="0" style="stop-color:#7B5411"/>
				<stop  offset="1" style="stop-color:#96701C"/>
			</linearGradient>
			<path fill="url(#SVGID_00000182504706246994194410000000081475601590771114_)" d="M4601,1775h5c3,5,7,6,13,7c24,6,45,12,68,22
				c-17,9-60,35-58,56c3,3,3,4,7,6l-5,4c-46-4-99-36-138-59c35-4,55-6,87-24C4586,1783,4595,1781,4601,1775z"/>
			<path fill="#B68825" d="M4697,1699c10,2,32,5,42,5c28,2,56,3,84,2c-8,4-14,3-23,3c-34,76-125,61-194,65h-5c-9-4-18,1-27-2
				c-9-3-30-4-38-10c-7-3-12-4-18-9l-1-1l-1-5c5,0,6,1,11-1c-2-5-6-6-11-9l15-2c11,9,28,15,42,17l8-4c29-3,74-12,102-19l7-1
				c-3-9-6-13-7-22C4686,1702,4688,1704,4697,1699z"/>
			<path fill="#672515" d="M4697,1699c10,2,32,5,42,5l6,3c-2,10-44,20-55,24c-3-9-6-13-7-22C4686,1702,4688,1704,4697,1699z"/>
			<path fill="#B68825" d="M4531,1737c11,9,28,15,42,17c0,5,0,7-2,11c-6,1-27-2-35-3c-7-3-12-4-18-9l-1-1l-1-5c5,0,6,1,11-1
				c-2-5-6-6-11-9H4531z"/>
			<path fill="#5A2E12" d="M4518,1755c10-4,38,5,51,7l2,5c-6,1-27-2-35-3C4529,1761,4524,1759,4518,1755z"/>
			<path fill="#502311" d="M4823,1707c12-1,31-4,43-6c13,1,36-1,45,8c-14,6-28,13-42,19c-83,35-161,85-233,139c-3-2-4-3-7-6
				c-2-21,41-47,58-56c-23-9-44-16-68-22c-6-1-10-2-13-7c69-5,161,11,194-65C4809,1710,4815,1711,4823,1707z"/>
			<path fill="#864518" d="M4932,1683c17-1,62-16,78-9c-32,12-67,23-98,35c-9-9-32-7-45-8C4888,1696,4910,1689,4932,1683z"/>
			<path fill="#FEB519" d="M5140,1853v197c-18-10-71-34-78-48C5039,1954,5101,1870,5140,1853z"/>
			<path fill="#DA883A" d="M4384,1986c3-1,6-1,9-1c5,3,8,5,14,7l-2,6c8,9,33,10,53,24c20-1,49-3,63,14c-7,14-41,1-50,5
				c-35-10-60-27-93-39c0-6,0-7,1-13L4384,1986z"/>
			<path fill="#FEB519" d="M4384,1986c3-1,6-1,9-1c5,3,8,5,14,7l-2,6C4397,1993,4392,1991,4384,1986z"/>
			<path fill="#FEB519" d="M5140,1704v28c-14,6-20,17-29,21c-22,11-40,19-61,32c1-3,3-7,4-10c6-14,15-29,29-34c1,1,8,4,8,4
				c19-10,24-20,46-26c3-4,1-7,1-13L5140,1704z"/>
			<path fill="#DA883A" d="M4393,1984c11-4,38-7,44,5c-8,6-20,3-30,1C4401,1989,4398,1987,4393,1984z"/>
			<path fill="#FEB519" d="M4902,1898c-20-7-82,36-100,30c-2-5-2-2-1-7c14-14,53-81,77-72c6,12-11,12-14,23c12,6,20-4,30-1
				c1,6-3,10-8,18c5,1,8,1,13,1c4-6,17-25,18-31c-4-3-3-1-6-6c5-11,26-23,38-20l1,3c-2,7-8,11-14,16c10,0,20-3,25,6
				c-1,10-22,23-32,34l-2,2c-2,2-4,7-6,8c-5-1-15,0-20,0L4902,1898z"/>
			<path fill="#FEB519" d="M4902,1898c10,1,15-1,25-3c-2,2-4,7-6,8c-5-1-15,0-20,0L4902,1898z"/>
			<path fill="#FEB519" d="M4801,2087c7,0,13-1,18,4c-5,19-68,37-86,40c-8,0-12-1-16-8l1-5C4729,2108,4782,2093,4801,2087z"/>
			<path fill="#FEB519" d="M4743,2023c7,0,9,0,13,6c-5,17-52,25-67,31c0,0-14,9-16,11c-8,0-9,0-13-4v-5
				C4669,2051,4723,2033,4743,2023z"/>
			<path fill="#FEB519" d="M5021,1769c8,0,9-2,13,5c-1,16-31,37-45,43c-6,1-7,2-13-1c-1-5,3-9,6-15c0-5,0-7,1-12
				C4992,1781,5009,1773,5021,1769z"/>
			<path fill="#FEB519" d="M4694,1927c6,1,13,1,17,6l-1,4c-12,14-39,17-56,20c-5,1-9,3-13,1C4646,1949,4683,1932,4694,1927z"/>
			<path fill="#FEB519" d="M4515,1978c17-2,31-1,48,1l2,3l2-1l-1-1v2c-6,4-37,6-46,7c-13,2-41,4-52-2C4477,1978,4504,1979,4515,1978
				z"/>
			<path fill="#FEB519" d="M5049,2160c6,3,8,4,10,11c-4,10-11,12-20,16c-7-3-9-3-12-8l1-5C5035,2167,5041,2165,5049,2160z"/>
			<path fill="#FEB519" d="M4901,1904c5,0,15-1,20,0c-16,17-30,23-51,30C4879,1924,4891,1913,4901,1904z"/>
			<path fill="#DA883A" d="M4532,2003c5,0,11,0,14,5c-4,9-14,9-22,10c-7,0-11,1-16-2l1-3C4518,2007,4522,2006,4532,2003z"/>
			<path fill="#FEB519" d="M4979,2052c17,4,11,17,4,27C4963,2074,4967,2063,4979,2052z"/>
			<path fill="#FEB519" d="M4887,2077c3,0,5,0,8,0l2,3c-2,9-13,15-21,19c-7-1-5,0-9-4l1-4C4874,2084,4879,2082,4887,2077z"/>
			<path fill="#FEB519" d="M5085,2075c6,4,8,6,9,13c-2,8-1,5-7,11c-7-5-7-3-10-9C5078,2083,5081,2080,5085,2075z"/>
			<path fill="#FEB519" d="M4689,2007c7,0,13-2,18,3c-4,6-5,5-13,9c-6,2-9,3-13-2C4683,2010,4682,2012,4689,2007z"/>
			<path fill="#DA883A" d="M4776,1888c0,2,0,3-1,6c-9,10-17,15-30,19v-3C4753,1900,4765,1894,4776,1888z"/>
			<path fill="#DA883A" d="M4623,2039c6,1,6,1,9,6c-1,6-3,7-7,11c-5-2-5-2-9-6C4617,2043,4618,2045,4623,2039z"/>
			<path fill="#DA883A" d="M4192,1916c20-11,54-27,76-29c4,0,21,1,27,1c3,2,6,4,9,5h6c5,6,7,19,11,28c5,9,8,13,14,21l-43,7l-5,7
				c-21,19-42,38-64,56c-19-19-23-45-32-70L4192,1916z"/>
			<path fill="#84311B" d="M4304,1894h6c5,6,7,19,11,28c5,9,8,13,14,21l-43,7c-45,2-77-5-20-39C4286,1904,4303,1909,4304,1894
				L4304,1894z"/>
			<path fill="#EDECEC" d="M4151,613l639-86l232-31c37-5,79-10,116-16l1,788c-7-3-8-3-12-9c-24-17-35-20-58-34c-17-20-31-41-51-58
				c-10,4-18,3-28,3c-14-10-32-25-46-36c-3-3-29-18-34-21c-10-1-13-5-25-6l-3,2c-1,12,1,26,2,38c-35-23-59-37-96-57
				c-6-10-19-41-25-54c-13,3-27,6-39,10l-7,6c-13-4-14-9-17-21c-5-2-9-11-11-16c-2-6-2-5-5-10c-5-2-3-2-8,1c-11,1-23,1-34,3
				c-21-9-89-1-107,13l-1,13l-3,2l-6-3l-2,2c-28,4-47,7-75,15l-4,3c-5,0-11-1-16-1l-1,1c-6,3-11,6-16,10l-7,3c-4-2-8-3-12-5
				c-5,1-19,4-23,5c-11,4-20,9-30,14c-4,2-7,5-11,6c-9,5-12,7-23,10c-15,8-53,27-64,38c-2,1-7,4-9,5l-24-4c-18-8-30-6-49-2
				c-21-20-41-19-52-43c3-7,6-15,8-22c-11,0-19-4-28-1c-6-5-7-6-12-12l-2-5c-6,3-17,5-24,7c-12-8-18-12-31-17c26-14,62-32,86-47
				c16-7,32-15,47-23C4150,858,4147,728,4151,613L4151,613z"/>
			<path fill="#FADA8F" d="M4150,974c17-7,33-14,50-21c125-47,263-63,394-37c29,6,57,14,85,22c14,4,27,9,41,12c71,32,111,47,171,100
				c44,40,84,76,126,117c-10,4-18,3-28,3c-14-10-32-25-46-36c-3-3-29-18-34-21c-10-1-13-5-25-6l-3,2c-1,12,1,26,2,38
				c-35-23-59-37-96-57c-6-10-19-41-25-54c-13,3-27,6-39,10l-7,6c-13-4-14-9-17-21c-5-2-9-11-11-16c-2-6-2-5-5-10c-5-2-3-2-8,1
				c-11,1-23,1-34,3c-21-9-89-1-107,13l-1,13l-3,2l-6-3l-2,2c-28,4-47,7-75,15l-4,3c-5,0-11-1-16-1l-1,1c-6,3-11,6-16,10l-7,3
				c-4-2-8-3-12-5c-5,1-19,4-23,5c-11,4-20,9-30,14c-4,2-7,5-11,6c-9,5-12,7-23,10c-15,8-53,27-64,38c-2,1-7,4-9,5l-24-4
				c-18-8-30-6-49-2c-21-20-41-19-52-43c3-7,6-15,8-22c-11,0-19-4-28-1c-6-5-7-6-12-12l-2-5c-6,3-17,5-24,7c-12-8-18-12-31-17
				c26-14,62-32,86-47C4118,989,4135,982,4150,974L4150,974z"/>
			<path fill="#FEB519" d="M4305,963c189-47,349-5,516,91c35,20,57,40,88,60c-10-1-13-5-25-6l-3,2c-1,12,1,26,2,38
				c-35-23-59-37-96-57c-6-10-19-41-25-54c-13,3-27,6-39,10l-7,6c-13-4-14-9-17-21c-5-2-9-11-11-16c-2-6-2-5-5-10c-5-2-3-2-8,1
				c-11,1-23,1-34,3c-21-9-89-1-107,13l-1,13l-3,2l-6-3l-2,2c-28,4-47,7-75,15l-4,3c-5,0-11-1-16-1l-1,1c-6,3-11,6-16,10l-7,3
				c-4-2-8-3-12-5c-5,1-19,4-23,5c-11,4-20,9-30,14c-4-11-9-40-11-51c0-10-1-37-4-46c0-10-2-12,6-18C4319,966,4314,964,4305,963
				L4305,963z"/>
			<path fill="#F2DF6E" d="M4446,1032c20-38,73-70,88-9l-1,13l-3,2l-6-3l-2,2c-28,4-47,7-75,15l8-10C4449,1036,4453,1047,4446,1032z
				"/>
			<path fill="#B5651C" d="M4454,1042c16-14,57-39,69-7l-2,2c-28,4-47,7-75,15L4454,1042z"/>
			<path fill="#672515" d="M4328,967c8,3,11,4,14,12c5,14,18,60,19,73c2,6,3,9,6,15c-11,4-20,9-30,14c-4-11-9-40-11-51
				c0-10-1-37-4-46C4321,976,4320,973,4328,967z"/>
			<path fill="#A6361E" d="M4398,1058c-1-8-2-11,5-15c8,0,11,3,19,8l3,5c-6,3-11,6-16,10l-7,3c-4-2-8-3-12-5
				C4395,1062,4393,1062,4398,1058z"/>
			<path fill="#CC7920" d="M4698,1033c6-2,9-4,16-4c8,5,7,9,8,18l-7,6C4703,1050,4701,1045,4698,1033z"/>
			<path fill="#84311B" d="M4361,1053c14-2,23-1,37,5c-5,4-3,3-8,5c-5,1-19,4-23,5C4364,1062,4363,1060,4361,1053z"/>
			<path fill="#EFDC72" d="M4446,1032c7,15,3,3,8,10l-8,10l-4,3c-5,0-11-1-16-1c5-5,9-11,14-16L4446,1032z"/>
			<path fill="#CC7920" d="M4422,1051c2-6,3-8,5-14c6-2,5-1,13,1c-4,5-9,11-14,16l-1,1L4422,1051z"/>
			
				<linearGradient id="SVGID_00000101103967496430683100000011314819495249844916_" gradientUnits="userSpaceOnUse" x1="4210.9189" y1="1827.9045" x2="4195.73" y2="1772.6444" gradientTransform="matrix(1 0 0 1 0 -778)">
				<stop  offset="0" style="stop-color:#CB7E1C"/>
				<stop  offset="1" style="stop-color:#E8972A"/>
			</linearGradient>
			<path fill="url(#SVGID_00000101103967496430683100000011314819495249844916_)" d="M4072,1053c85-34,136-69,233-90c10,1,14,3,23,4
				c-8,6-7,8-6,18c3,9,4,36,4,46c2,12,7,40,11,51c-4,2-7,5-11,6c-9,5-12,7-23,10c-15,8-53,27-64,38c-2,1-7,4-9,5l-24-4
				c-18-8-30-6-49-2c-21-20-41-19-52-43c3-7,6-15,8-22c-11,0-19-4-28-1c-6-5-7-6-12-12L4072,1053z"/>
			<path fill="#F0D7CE" d="M4128,1062c39,5,82,14,121,23c14,3,42,9,54,13c-15,8-53,27-64,38c-2,1-7,4-9,5l-24-4c-18-8-30-6-49-2
				c-21-20-41-19-52-43c3-7,6-15,8-22C4120,1068,4122,1067,4128,1062L4128,1062z"/>
			<path fill="#BE361F" d="M4292,1028c6,0,15,0,20,1c6,4,4,4,14,3c2,12,7,40,11,51c-4,2-7,5-11,6c-9,5-12,7-23,10c-13-4-40-10-54-13
				c-39-9-82-19-121-23c5-7,6-6,15-7c29,2,68-3,97-9c23-5,41-11,65-13C4302,1031,4295,1029,4292,1028L4292,1028z"/>
			<path fill="#A6361E" d="M4292,1028c6,0,15,0,20,1c6,4,4,4,14,3c2,12,7,40,11,51c-4,2-7,5-11,6c-3-18-3-49-21-57
				C4302,1031,4295,1029,4292,1028L4292,1028z"/>
			<path fill="#672515" d="M4132,1050c45-13,114-20,160-23c3,1,11,3,14,5c-24,2-42,9-65,13c-29,6-68,12-97,9c-9,1-10,0-15,7
				c-7,5-8,6-15,9c-11,0-19-4-28-1c-6-5-7-6-12-12C4093,1056,4112,1053,4132,1050L4132,1050z"/>
			<path fill="#84311B" d="M4312,1029c-2-12-8-43,0-52c6,1,5,2,9,9c3,9,4,36,4,46C4316,1033,4318,1033,4312,1029L4312,1029z"/>
			<path fill="#F7BA50" d="M5266,1301c57,14,118,26,172,50c18,8,43,30,60,37c30,13,62,22,92,34c60,25,102,73,140,124
				c15,21,31,41,44,63c-1,22-3,42-9,64c-2,14-17,65-23,76l-6,9c19,26,43,51,63,77c-13,11-33,28-44,39c-148,106-306,168-482,205
				c-1,0-3,6-3,7v-407v-12c0-26-1-52-1-78c1-25,0-51,0-76c-3-39-1-100-1-141C5266,1349,5266,1323,5266,1301L5266,1301z"/>
			<path fill="#F7BA50" d="M5266,1301c57,14,118,26,172,50c18,8,43,30,60,37c30,13,62,22,92,34c60,25,102,73,140,124
				c15,21,31,41,44,63c-1,22-3,42-9,64c-2,14-17,65-23,76l-6,9c-34-35-63-67-104-94c-103-69-242-98-363-75c1-25,0-51,0-76
				c-3-39-1-100-1-141C5266,1349,5266,1323,5266,1301L5266,1301z"/>
			<path fill="#FADA8F" d="M5266,1301c57,14,118,26,172,50c18,8,43,30,60,37c30,13,62,22,92,34c60,25,102,73,140,124
				c15,21,31,41,44,63c-1,22-3,42-9,64c-7-5-19-12-27-18c-32-23-62-47-82-82c-4,0-16-5-20-6c-42-43-73-69-136-63
				c-78,7-125-63-185-100c-14-9-29-23-44-32l-3-2C5266,1349,5266,1323,5266,1301L5266,1301z"/>
			<path fill="#FEB519" d="M5635,1568c3-7,1-6,7-10c7,3,10,9,13,16C5651,1574,5639,1569,5635,1568z"/>
			<path fill="#F7BA50" d="M5389,1385c17,1,51,15,53,34C5423,1425,5391,1407,5389,1385z"/>
			<path fill="#F7BA50" d="M5666,1514c17,3,25,31,23,46C5673,1559,5664,1528,5666,1514z"/>
			<path fill="#F7BA50" d="M5524,1452c17,0,30,10,33,27C5541,1479,5528,1466,5524,1452z"/>
			<path fill="#B5651C" d="M5268,1512c16,10,43,31,59,16l6,15c7,7,12,11,22,12c50,9,102,14,151,30c53,18,106,45,152,77
				c31,21,57,58,82,85l-6,9c-34-35-63-67-104-94c-103-69-242-98-363-75C5268,1564,5268,1537,5268,1512z"/>
			<path fill="#DA883A" d="M5327,1529c6-8,9-13,18-16c24,3,17,35-12,32L5327,1529z"/>
			<path fill="#FEB519" d="M5676,1667c-8-11-17-18-10-33c10-4,16,3,19,12l2,6c6,3,8,4,11,10c0,7,1,4-4,10
				C5685,1676,5683,1673,5676,1667z"/>
			<path fill="#DA883A" d="M5687,1653c6,3,8,4,11,10c0,7,1,4-4,10c-9,3-11,1-17-5C5680,1663,5684,1658,5687,1653z"/>
			<path fill="#FEB519" d="M5513,1550c11,2,23,6,26,18c-2,8-1,5-7,12C5518,1581,5505,1563,5513,1550z"/>
			<path fill="#DA883A" d="M5325,1424c7,1,12,5,16,11c1,7,2,4-3,10c-8-1-15-1-19-9C5320,1427,5319,1430,5325,1424z"/>
			<path fill="#FADA8F" d="M5267,1589c121-23,260,6,363,75c41,27,70,59,104,94c19,26,43,51,63,77c-13,11-33,28-44,39
				c-15-16-33-32-49-48l-19-18l-14-15c-17-19-17-34-43-40l-9-5c-7-8-68-47-79-53c-21-12-96-33-120-34c-31-6-50-8-81-4
				c-12,1-28,3-40,5l12,1c-8,4-20,8-25,13c-8,3-9,3-18,3v-12C5268,1641,5267,1615,5267,1589z"/>
			<path fill="#FEB519" d="M5268,1667c8-2,23-4,31-5l12,1c-8,4-20,8-25,13c-8,3-9,3-18,3V1667z"/>
			<path fill="#FEB519" d="M5339,1657c31-4,50-2,81,4l-1,3c-14,8-63,14-78,5C5338,1663,5339,1665,5339,1657z"/>
			<path fill="#FEB519" d="M5311,1662c8,0,4-1,10,2c8,19-18,25-35,11C5292,1671,5304,1666,5311,1662z"/>
			<path fill="#FEB519" d="M5671,1794l14,15c-3,7-4,12-10,17c-10-5-19-9-18-22C5662,1797,5664,1797,5671,1794z"/>
			<path fill="#FEB519" d="M5685,1808l19,18c-11,8-17,5-28-1C5681,1820,5682,1815,5685,1808z"/>
			<path fill="#FEB519" d="M5620,1748l9,5l1,5c1,5,3,7,1,13c-5,0-12-7-18-10c5-2,4-2,8-7L5620,1748z"/>
			<path fill="#FEB519" d="M5423,1670c12-1,29-1,33,12l-2,5c-7,5-10,6-18,8c-12,1-22,0-31-7c-3-6-3-3-1-9
				C5409,1673,5416,1672,5423,1670z"/>
			<path fill="#FEB519" d="M5492,1892c7,3,7,1,10,6l-2,4c-11,10-29,16-43,21c-8,0-5,1-10-2v-4C5457,1905,5479,1897,5492,1892z"/>
			<path fill="#FEB519" d="M5443,1799c14-1,33,4,25,21c-5,4-7,4-14,5c-4-5-2-4-7-11c-5,1-18-1-22-4v-4
				C5433,1800,5432,1802,5443,1799z"/>
			<path fill="#FEB519" d="M5509,1698c10-1,33-3,31,13c-4,5-5,5-10,7c-1,0-1,0-2,0h-3c-9,0-25,0-27-11
				C5499,1701,5503,1700,5509,1698z"/>
			<path fill="#FEB519" d="M5385,1814c7-1,11-1,14,5c-2,12-20,16-29,18c-7,1-10,1-15-3l1-4C5366,1820,5371,1819,5385,1814z"/>
			<path fill="#FEB519" d="M5525,1801c8-1,14-3,20,5c-3,9-13,11-21,14c-10,2-15,5-23-3C5502,1803,5514,1803,5525,1801z"/>
			<path fill="#FEB519" d="M5407,1738c13,0,38,3,44,15l-2,5c-13,1-31,2-42-7C5405,1743,5405,1746,5407,1738z"/>
			<path fill="#FEB519" d="M5572,1746c12-1,26-1,34,9c1,7,1,4-1,10c-11-1-30,1-37-7C5567,1750,5567,1752,5572,1746z"/>
			<path fill="#FEB519" d="M5491,1942c8,0,5-1,11,3v4c-7,10-18,14-29,18c-3,1-4,0-8,0l-1-3C5467,1954,5482,1947,5491,1942z"/>
			<path fill="#FEB519" d="M5398,1868c5,3,4,1,6,6c-4,9-24,15-34,18c-6,1-3,2-8-1l1-4C5374,1876,5384,1873,5398,1868z"/>
			<path fill="#FEB519" d="M5502,1866c6,0,10-1,14,4c-4,8-23,14-31,17c-2,0-6,1-9,1l-2-2C5478,1877,5493,1870,5502,1866z"/>
			<path fill="#FEB519" d="M5398,1969l5,2l2,4c-4,9-18,15-27,20c-2,0-4,0-7-1l-1-3C5374,1983,5390,1974,5398,1969z"/>
			<path fill="#FEB519" d="M5595,1906c5,2,3,1,6,6c-3,9-17,15-26,19l-6-1l-1-3C5573,1917,5586,1911,5595,1906z"/>
			<path fill="#FEB519" d="M5667,1883c9,0,8-1,14,3l-1,4c-6,7-8,7-16,11c-6,1-7,1-12-1v-3C5657,1888,5660,1887,5667,1883z"/>
			<path fill="#FEB519" d="M5300,1990c6,3,4,1,7,6c-4,8-15,11-23,13l-6-1l-2-2C5278,1998,5292,1993,5300,1990z"/>
			<path fill="#FEB519" d="M5359,1721c8,0,13,0,17,8c-3,6-2,4-10,8c-6-1-12-2-15-7C5352,1724,5352,1726,5359,1721z"/>
			<path fill="#CC7920" d="M5450,1857c3,1,5,2,7,4v3c-6,5-9,5-17,7c-8-1-6,1-10-3l2-3C5440,1859,5441,1859,5450,1857z"/>
			<path fill="#FEB519" d="M5320,1759c13,5,15,11,11,23c-7-3-9-5-13-10C5316,1763,5316,1767,5320,1759z"/>
			
				<linearGradient id="SVGID_00000133521036108723379680000007574380159924275096_" gradientUnits="userSpaceOnUse" x1="5392.5098" y1="2380.2588" x2="4416.9922" y2="2264.6208" gradientTransform="matrix(1 0 0 1 0 -778)">
				<stop  offset="0" style="stop-color:#373D43"/>
				<stop  offset="1" style="stop-color:#717480"/>
			</linearGradient>
			<path fill="url(#SVGID_00000133521036108723379680000007574380159924275096_)" d="M4831,189c34-7,73-11,108-15
				c82-11,155-29,229,21c90,61,94,129,94,227v108c0,102,4,210,0,311c1,51,1,102,1,153c0,25,3,62,1,87c2,26,1,57,1,84v136
				c0,22-1,48,0,70c0,41-2,102,1,141c0,25,0,51,0,76c0,26,0,52,1,78v12v407l1,402c0,17,0,35,0,52c-1,115,16,178-61,273
				c-23,28-95,69-131,64c-59,3-157,4-219,2c-48,2-117,0-166,0l-329-1c-7-5-88,1-107-10c-3-6-2-6-1-13c3-4,4-4,9-4c24-2,146,5,157-4
				l150-1c11,0,56-1,65,0c28-2,74-1,103-1h187c44,0,100,4,142-7c25-7,47-26,69-40c18-19,32-41,41-66c17-48,11-144,11-199l-1-289
				l-4-1073l-2-560l1-184c0-61,7-110-19-166c-27-41-53-59-100-73c-12-2-18-3-31-3c-34,0-70,6-104,11l-140,19c-14,2-58,9-68,9
				c-16-6-93,14-99,10c1-3,9-14,11-14c29-4,59-9,87-12h3v-3c6-2,53-8,62-9C4800,192,4815,190,4831,189L4831,189z"/>
			<path fill="#B7B8BD" d="M5163,260c30,4,47,62,48,90c0,60,0,120,0,180l2,308l3,966l2,606l1,172c0,34,2,86-4,119
				c-7,43-32,81-67,105c-4,3-5,4-10,5l-2-2c1-3,2-6,4-8c18-19,32-41,41-66c17-48,11-144,11-199l-1-289l-4-1073l-2-560l-3-188
				C5182,365,5190,316,5163,260z"/>
			<path fill="#626772" d="M5032,184l2-3c7-4,22-1,31-1c76,3,144,75,155,146c2,14,8,33,9,47c2,77-1,155,0,233v637l3,958l2,311
				c0,49,1,99,0,148c-1,59-25,111-68,151c-26,24-74,54-111,57c-10,1-19-8-26-12c-3-2-20-3-25-3c-89,0-179,0-268,0c-15,0-87,1-98-2
				c28-2,74-1,103-1h187c44,0,100,4,142-7c25-7,47-26,69-40c-1,3-2,6-4,8l2,2c5-1,6-2,10-5c36-25,60-63,67-105c6-32,4-85,4-119
				l-1-172l-2-606l-3-968l-1-308c0-60,0-120,0-180c0-27-17-85-48-90c-27-41-53-59-100-73C5051,185,5044,184,5032,184L5032,184z"/>
			<path fill="#202123" d="M5265,1081c-1,12,3,28-11,32c-6-2-8-5-13-9c-10-28-4-231-5-274c0-10,2-20,11-26c5-3,4-3,9-2
				c7,7,6,27,8,38c1,51,1,102,1,153C5264,1020,5266,1057,5265,1081z"/>
			<path fill="#626772" d="M4859,2880c-15-3-69-2-87-2c-59,0-117,0-176-1c23-3,81,0,107-1c84-1,169,2,253,0l1-7c3-2,5-4,8-5
				c-2-11-8-3-15-9c7-5,45-5,49-2c-3,3-4,5-7,8l1,3c4,1,7,2,11,3c1,6,0,4,2,8c19,4,48-2,71,2C5019,2881,4921,2882,4859,2880z"/>
			<path fill="#626772" d="M4784,195c16-2,31-4,47-6l2,2c-5,9-33,11-43,10C4788,198,4786,197,4784,195z"/>
			<path fill="#626772" d="M4145,345c17-33,63-59,96-71c35-13,70-15,106-20l109-15l165-22c32-4,70-10,102-13v3h-3c-29,2-59,8-87,12
				c-2,0-10,11-11,14c6,4,83-17,99-10c-37,7-87,13-125,18l-217,29c-64,8-141,11-195,48C4176,321,4150,343,4145,345L4145,345z"/>
			<path fill="#FEB519" d="M5033,1248c2,0,5-2,7-3c7-9-3-6-3-17c5-3,13-4,19-4l12,2c23,14,35,17,58,34c4,6,6,6,12,9v2
				c-2,37,1,81,0,119c-8-6-15-6-23-12c-15-20-28-25-46-54c10,2,12,7,19,5c7-30-38-56-60-68C5031,1255,5031,1254,5033,1248z"/>
			<path fill="#835A1E" d="M5139,1271c3,17,2,66,2,85c0,61-1,122-2,182c0,35,3,88,1,119c-1-10-1-33-1-44c-17,9-33,18-51,26
				c17-37,42-59,36-106c-3-20-5-34-10-54l-12-39c-5-18,7-47,13-63c9,7,15,7,23,12C5139,1352,5136,1308,5139,1271z"/>
			<path fill="#B68825" d="M5115,1377c9,7,15,7,23,12l-1,62c-15-6-21-8-36-12C5097,1423,5108,1394,5115,1377z"/>
			<path fill="#AF8C21" d="M5102,1440c16,4,22,5,36,12v37c-8-3-17-6-25-9L5102,1440z"/>
			<path fill="#626772" d="M4124,2770c16,14,26,31,44,45c70,56,170,28,253,34c-11,9-134,1-157,4c-5,1-6,1-9,4c-1,6-1,7,1,13
				c20,11,100,5,107,10c-81,1-164-3-219-73C4135,2793,4130,2786,4124,2770L4124,2770z"/>
			<path fill="#626772" d="M4699,377c11-2,13-3,20,6c1,7,2,4-2,10c-14,10-139,23-163,26c-10,1-14,3-22-4c-2-9,1-15,11-17
				c17-3,34-5,50-7L4699,377z"/>
			<path fill="#202123" d="M3555,2806c64-3,141-1,207,0h384c55,71,138,74,219,73l329,1c49,0,118,2,166,0c61,2,159,1,219-2
				c36,4,108-36,131-64c77,1,185,13,264,20l119,11c22,2,50,4,71,8c-112,19-232,35-345,52l-143,22c-21,3-66,11-85,12
				c-41,1-88,0-130,0l-269-5c-230-4-461-12-691-23c27-7,54-14,81-21c-29-3-56-7-85-11c-149-23-300-42-449-66L3555,2806z"/>
			
				<linearGradient id="SVGID_00000139268837599368499740000007219211410166939022_" gradientUnits="userSpaceOnUse" x1="3737.2659" y1="2510.8696" x2="3705.0217" y2="2542.4167" gradientTransform="matrix(1 0 0 1 0 -778)">
				<stop  offset="0" style="stop-color:#2C1F14"/>
				<stop  offset="1" style="stop-color:#372D2D"/>
			</linearGradient>
			<path fill="url(#SVGID_00000139268837599368499740000007219211410166939022_)" d="M3512,1498c89,143,199,255,322,370
				c37,35,83,78,122,109c-21-8-72-46-90-60c-135-109-282-260-360-416L3512,1498z"/>
			<path fill="#864518" d="M3847,1300c8,5,19,22,24,30c-6,29,11,34,14,51l-20-13c-2,5-2,7-3,12c-1,11,24,44,16,50c-9,2-17,4-26,6
				c-9-7-20-5-31-7c-13-10-29-57-34-74c1-1,16-20,19-25C3813,1322,3838,1306,3847,1300L3847,1300z"/>
			<path fill="#FEB519" d="M3847,1300c8,5,19,22,24,30c-6,29,11,34,14,51l-20-13l-6-7c-17-12-36-15-53-29c7-8,32-24,41-30V1300z"/>
			<path fill="#B5651C" d="M3847,1300c8,5,19,22,24,30c-6,29,11,34,14,51l-20-13l-6-7c-1-5-5-18-7-24c-4-15-2-19-4-33v-3L3847,1300z
				"/>
			
				<linearGradient id="SVGID_00000055676155979993458610000014758494379707002505_" gradientUnits="userSpaceOnUse" x1="3743.5972" y1="2278.5601" x2="3731.696" y2="2286.0149" gradientTransform="matrix(1 0 0 1 0 -778)">
				<stop  offset="0" style="stop-color:#1E190E"/>
				<stop  offset="1" style="stop-color:#352E2C"/>
			</linearGradient>
			<path fill="url(#SVGID_00000055676155979993458610000014758494379707002505_)" d="M3834,1660c-75-88-142-208-187-315
				c2,1,33,53,37,61c49,85,101,168,154,250L3834,1660z"/>
			
				<linearGradient id="SVGID_00000174578852785181725870000004261571553442761145_" gradientUnits="userSpaceOnUse" x1="3789.5662" y1="2481.9468" x2="3778.1411" y2="2491.146" gradientTransform="matrix(1 0 0 1 0 -778)">
				<stop  offset="0" style="stop-color:#2C200B"/>
				<stop  offset="1" style="stop-color:#352D2D"/>
			</linearGradient>
			<path fill="url(#SVGID_00000174578852785181725870000004261571553442761145_)" d="M3689,1580c23,25,51,67,71,95
				c40,54,82,106,130,153l-3,2c-20-20-44-39-64-60C3773,1718,3719,1646,3689,1580z"/>
			<path fill="#141004" d="M3475,1422c13,26,22,50,37,76l-6,3C3493,1473,3484,1452,3475,1422z"/>
			<path fill="#141004" d="M3838,1656c5,7,38,53,38,56l2,2c-3-5-37-45-44-54L3838,1656z"/>
			<path fill="#141004" d="M3514,2806c14,0,27,0,41,1l-8,5C3538,2810,3523,2809,3514,2806z"/>
			<path fill="#AF8C21" d="M3891,1828c5,4,10,7,12,13c-6-1-11-6-15-11L3891,1828z"/>
		</g>
	</g>
</g>
</svg>
