<?xml version="1.0" encoding="utf-8"?>
<!-- Generator: Adobe Illustrator 27.9.0, SVG Export Plug-In . SVG Version: 6.00 Build 0)  -->
<svg version="1.1" id="svg" xmlns="http://www.w3.org/2000/svg" xmlns:xlink="http://www.w3.org/1999/xlink" x="0px" y="0px"
	 viewBox="0 0 2000.666 3000" enable-background="new 0 0 2000.666 3000" xml:space="preserve">
<g>
	<g>
		<defs>
			<rect id="SVGID_1_" x="0.999" y="0" width="1998.667" height="2998.001"/>
		</defs>
		<clipPath id="SVGID_00000167354327765941273100000005143259184967957934_">
			<use xlink:href="#SVGID_1_"  overflow="visible"/>
		</clipPath>
		<g clip-path="url(#SVGID_00000167354327765941273100000005143259184967957934_)">
			<path fill="#F13322" d="M0.999,0h1870.753h127.915v146.902V1889.74v562.625v64.957v479.68H0.999V1894.737V532.645V356.762V0z"/>
			<path fill="#9E9D9D" d="M1356.096,1006.329l8.994,2.998c8.994,2.998,32.978,13.991,39.973,18.987l8.994,4.997
				c-7.995,15.989-16.989,31.979-23.984,47.968c-1.999,4.997-6.995,12.991-7.995,17.988c-4.997,3.997-7.995,2.998-13.991,2.998
				h-3.997c-9.993-2.998-15.989-5.996-23.984-11.992l-11.992-5.996l-8.994-3.997l3.997-7.995l6.995-15.989
				C1336.109,1049.3,1354.097,1013.324,1356.096,1006.329L1356.096,1006.329z"/>
			<path fill="#2C2C2B" d="M1356.096,1006.329l8.994,2.998l-2.998,8.994c-10.993,20.986-21.985,42.971-32.978,63.957l-8.994-3.997
				l3.997-7.995l6.995-15.989C1336.109,1049.3,1354.097,1013.324,1356.096,1006.329L1356.096,1006.329z"/>
			<path fill="#FEEEE2" d="M1362.092,1018.321c9.993,17.988-12.991,52.965-20.986,70.953l-11.992-5.996
				C1339.107,1061.292,1351.099,1040.306,1362.092,1018.321L1362.092,1018.321z"/>
			<path fill="#2C2C2B" d="M1405.063,1028.314l8.994,4.997c-7.995,15.989-16.989,31.979-23.984,47.968
				c-1.999,4.997-6.995,12.991-7.995,17.988c-4.997,3.997-7.995,2.998-13.991,2.998
				C1379.08,1093.271,1400.067,1042.305,1405.063,1028.314L1405.063,1028.314z"/>
			<path fill="#FEEEE2" d="M0.999,0h1870.753h127.915v146.902V1889.74c-56.962-10.993-139.907-19.987-197.868-26.982
				c13.991-127.915,1.999-286.809-52.965-403.731c-60.959-128.914-166.889-237.842-285.809-315.79
				c-19.987-12.991-57.961-36.975-79.947-44.97c1-4.997,5.996-12.991,7.995-17.988c6.995-16.989,14.99-32.978,23.984-47.968
				l-8.994-4.997c-7.995-4.997-31.979-15.989-39.973-18.987l-8.994-2.998c-2.998,6.995-20.986,42.971-24.983,48.967l-6.995,15.989
				c-11.992-4.997-22.985-8.994-34.977-12.991c-6.995-3.997-33.977-11.992-43.971-15.989
				c-86.942-34.977-157.895-48.967-250.833-54.963h-10.993c-63.957,0-122.918,3.997-184.877,19.987
				c-4.997,0.999-13.991,3.997-19.987,1.999c-15.989,7.995-39.973,14.99-56.962,20.986c-25.983,9.993-51.965,20.986-76.949,33.977
				l-9.993,4.997c-9.993,4.997-17.988,8.994-26.982,14.99c-2.998,1.999-6.995,3.997-9.993,6.995l-4.997,3.997
				c-19.987,10.993-41.972,28.981-60.959,42.971c-7.995,5.996-17.988,14.99-25.983,19.987c-2.998,4.997-18.987,18.987-23.984,23.984
				c-186.875,178.881-273.817,425.716-230.846,683.544c-76.949,5.996-173.884,18.987-251.832,29.98V532.645V356.762L0.999,0z"/>
			<path fill="#FEEEE2" d="M632.578,807.462c39.973-41.972,47.968-81.945,66.955-135.909c6.995-19.987,18.987-43.971,35.976-56.962
				c63.957-45.969,179.88-56.962,254.83-58.961c67.955-1.999,216.855,7.995,264.823,57.961
				c48.967,50.966,51.965,134.91,110.926,196.869c-59.96-15.989-114.923-26.982-173.884,5.996
				c-35.976,19.987-68.954,63.957-81.945,102.931c4.997,10.993,10.993,20.986,21.985,27.981
				c36.975,34.977,151.899,82.945,199.867,105.929l-6.995,15.989c-11.992-4.997-22.985-8.994-34.977-12.991
				c-6.995-3.997-33.977-11.992-43.971-15.989c-86.942-34.977-157.895-48.967-250.833-54.963h-10.993
				c-63.957,0-122.918,3.997-184.877,19.987c-4.997,0.999-13.991,3.997-19.987,1.999h0.999
				c15.989-4.997,60.959-40.973,72.951-54.963c5.996-7.995,13.991-16.989,11.992-26.982c-4.997-27.981-39.973-69.953-60.959-87.941
				c-36.975-31.979-80.946-43.971-128.914-36.975c-12.991,1.999-28.981,5.996-41.972,6.995H632.578z"/>
			<path fill="#2C2C2B" d="M986.342,896.402c-16.989,0-64.957,3.997-74.95-7.995c-8.994-14.99-9.993-49.967,14.99-49.967
				c40.973-0.999,73.951,0,115.923,0.999c33.977,0,36.975,33.977,22.985,53.964c-4.997,6.995-53.964,3.997-67.955,3.997
				c-0.999,29.98-2.998,60.959-3.997,89.94h-10.993C985.343,958.361,986.342,924.384,986.342,896.402z"/>
			<path fill="#FEEEE2" d="M916.389,866.422c0-5.996-0.999-10.993,1.999-15.989c8.994-6.995,33.977-4.997,45.969-4.997
				c26.982,0,54.963-0.999,81.945,1.999c11.992,0.999,12.991,9.993,13.991,19.987c0,3.997,0,7.995-1.999,11.992
				c-1.999,2.998-4.997,3.997-7.995,4.997c-11.992,1.999-124.917,1.999-130.913-1.999
				C916.389,877.415,916.389,871.419,916.389,866.422L916.389,866.422z"/>
			<path fill="#9E9D9D" d="M916.389,866.422c25.983,1.999,56.962,0.999,83.944,1.999c14.99,0,45.969,0.999,60.959,0
				c0,3.997,0,7.995-1.999,11.992c-1.999,2.998-4.997,3.997-7.995,4.997c-11.992,1.999-124.917,1.999-130.913-1.999
				C916.389,877.415,916.389,871.419,916.389,866.422L916.389,866.422z"/>
			<path fill="#F13322" d="M632.578,807.462h0.999c12.991-0.999,28.981-4.997,41.972-6.995
				c47.968-5.996,91.939,5.996,128.914,36.975c20.986,17.988,56.962,58.961,60.959,87.941c1.999,9.993-5.996,19.987-11.992,26.982
				c-10.993,13.991-56.962,49.967-72.951,54.963h-0.999c-15.989,7.995-39.973,14.99-56.962,20.986
				c-25.983,9.993-51.965,20.986-76.949,33.977l-9.993,4.997c-9.993,4.997-17.988,8.994-26.982,14.99
				c-2.998,1.999-6.995,3.997-9.993,6.995l-4.997,3.997c-19.987,10.993-41.972,28.981-60.959,42.971
				c-7.995,5.996-17.988,14.99-25.983,19.987c-4.997,1.999-13.991,4.997-17.988,5.996c-26.982,10.993-116.922,35.976-134.91,1.999
				c-67.955-130.913,0-211.859,108.927-278.814l8.994-3.997c36.975-20.986,73.951-39.973,111.925-56.962
				c3.997-1.999,7.995-3.997,11.992-5.996C600.599,819.454,626.582,810.46,632.578,807.462L632.578,807.462z"/>
			<path fill="#6F130F" d="M611.592,995.336c10.993,22.985,22.985,45.969,33.977,68.954l-9.993,4.997
				c-9.993,4.997-17.988,8.994-26.982,14.99c-2.998,1.999-6.995,3.997-9.993,6.995l-4.997,3.997
				c-19.987,10.993-41.972,28.981-60.959,42.971c-7.995,5.996-17.988,14.99-25.983,19.987c-4.997,1.999-13.991,4.997-17.988,5.996
				c-27.981,1.999-98.934,31.979-123.917,6.995c-12.991-13.991,42.971-57.961,53.964-65.956
				c42.971-30.979,89.94-56.962,136.909-80.946l10.993-4.997c9.993-5.996,20.986-9.993,30.979-14.99L611.592,995.336z"/>
			<path fill="#9E9D9D" d="M611.592,995.336c10.993,22.985,22.985,45.969,33.977,68.954l-9.993,4.997
				c-9.993,4.997-17.988,8.994-26.982,14.99c-2.998,1.999-6.995,3.997-9.993,6.995c-6.995-16.989-13.991-33.977-20.986-50.966
				c-4.997-8.994-6.995-12.991-9.993-22.985c9.993-5.996,20.986-9.993,30.979-14.99L611.592,995.336z"/>
			<path fill="#2C2C2B" d="M611.592,995.336c10.993,22.985,22.985,45.969,33.977,68.954l-9.993,4.997
				c-12.991-23.984-22.985-43.971-36.975-67.955L611.592,995.336z"/>
			<path fill="#FEEEE2" d="M577.615,1040.306l0.999-5.996c9.993-1.999,26.982,41.972,29.98,50.966
				c-2.998,1.999-6.995,3.997-9.993,6.995C590.606,1074.284,583.611,1057.295,577.615,1040.306z"/>
			<path fill="#2C2C2B" d="M566.622,1017.322c2.998,8.994,4.997,13.991,9.993,22.985c6.995,16.989,13.991,33.977,20.986,50.966
				l-4.997,3.997c-8.994-5.996-31.979-60.959-36.975-72.951L566.622,1017.322z"/>
			<path fill="#6F130F" d="M611.592,995.336c43.971-22.985,185.876-79.947,240.839-72.951c1.999,0,4.997,2.998,5.996,4.997
				c2.998,5.996-0.999,10.993-1.999,14.99c-3.997,18.987-71.952,58.961-74.95,64.957h-0.999
				c-15.989,7.995-39.973,14.99-56.962,20.986c-25.983,9.993-51.965,20.986-76.949,33.977
				C633.578,1042.305,622.585,1018.321,611.592,995.336z"/>
			<path fill="#FDB3B0" d="M528.648,899.4c10.993-0.999,21.985,0,32.978,0c-16.989,38.974-17.988,50.966-9.993,92.938
				c-25.983,9.993-56.962,19.987-82.945,28.981c-8.994,2.998-18.987,4.997-27.981,7.995
				C417.721,954.364,453.697,908.394,528.648,899.4L528.648,899.4z"/>
			<path fill="#F13322" d="M1109.26,920.386c12.991-38.974,45.969-82.945,81.945-102.931
				c58.961-32.978,112.925-21.985,173.884-5.996c6.995,2.998,15.989,5.996,23.984,6.995c13.991,7.995,68.954,32.978,83.944,37.975
				c7.995,5.996,41.972,21.985,51.965,25.983c53.964,29.98,98.934,57.961,129.913,112.925
				c29.98,52.965,19.987,108.927-5.996,160.893c-9.993,18.987-25.983,16.989-43.971,10.993
				c-28.981-2.998-181.879-71.952-214.857-86.942c6.995-16.989,14.99-32.978,23.984-47.968l-8.994-4.997
				c-7.995-4.997-31.979-15.989-39.973-18.987l-8.994-2.998c-2.998,6.995-20.986,42.971-24.983,48.967
				c-48.967-22.985-163.891-71.952-199.867-105.929C1120.253,941.372,1114.257,932.378,1109.26,920.386L1109.26,920.386z"/>
			<path fill="#6F130F" d="M1131.246,948.368c-3.997-6.995-13.991-16.989-12.991-23.984c20.986-14.99,209.86,68.954,238.841,81.945
				c-2.998,6.995-20.986,42.971-24.983,48.967C1282.145,1031.312,1167.222,983.344,1131.246,948.368z"/>
			<path fill="#6F130F" d="M1415.057,1033.311c39.973,17.988,203.864,93.937,217.855,127.915c0.999,1.999,0.999,2.998,0,4.997
				c-5.996,3.997-19.987,1.999-27.981,1.999c-28.981-2.998-181.879-71.952-214.857-86.942
				C1397.068,1065.29,1406.063,1049.3,1415.057,1033.311L1415.057,1033.311z"/>
			<path fill="#FDB3B0" d="M1254.164,849.434c29.98-1.999,59.96,12.991,83.944,29.98c-11.992,13.991-21.985,29.98-29.98,46.969
				c-2.998,6.995-12.991,32.978-15.989,35.976l-2.998-0.999c-27.981-10.993-61.959-22.985-88.941-34.977v-0.999
				C1210.193,901.399,1229.18,861.426,1254.164,849.434z"/>
			<path fill="#74A52F" d="M1871.752,0h127.915v146.902c-11.992,16.989-20.986,26.982-34.977,41.972
				c-72.951,73.951-209.86,102.931-310.793,101.932c34.977-99.933,78.947-201.865,169.887-264.823
				C1836.775,17.988,1857.761,7.995,1871.752,0z"/>
			<path fill="#FEEEE2" d="M511.659,848.434c2.998-0.999,5.996-1.999,9.993-3.997c14.99-6.995,27.981-17.988,41.972-25.983
				c62.958-39.973,73.951-87.941,96.935-153.897c14.99-43.971,44.97-78.947,90.939-97.935
				c129.913-52.965,326.782-51.965,459.693-6.995c84.943,28.981,104.93,90.939,134.91,162.891
				c15.989,37.975,42.971,68.954,76.949,89.94c12.991,7.995,17.988,13.991,33.977,19.987c0-1.999-0.999-8.994,0-10.993
				c10.993-24.983,17.988-61.959,52.965-48.967c0,19.987-20.986,51.965-30.979,71.952c4.997,2.998,15.989,7.995,17.988,12.991
				c-7.995,1.999-15.99,1.999-23.984,0.999c-14.99-4.997-70.953-30.979-83.944-37.975c-6.995-0.999-16.989-3.997-23.984-6.995
				c-58.961-61.959-61.959-145.903-110.926-196.869c-47.968-49.967-196.869-60.959-264.823-57.961
				c-74.95,1.999-191.872,12.991-254.83,58.961c-16.989,12.991-28.981,35.976-35.976,56.962
				c-18.987,53.964-25.983,92.938-66.955,135.909c-4.997,0-30.979,8.994-35.976,8.994c-3.997,1.999-7.995,3.997-11.992,5.996
				c-38.974,16.989-75.949,35.976-111.925,56.962c0-1.999,0-3.997,0-5.996c2.998-4.997,7.995-7.995,12.991-10.993
				c-8.994-12.991-15.989-26.982-22.985-40.973c-9.993-22.985-9.993-36.975,14.99-46.969c5.996,5.996,25.983,57.961,32.978,72.951
				L511.659,848.434z"/>
			<path fill="#2C2C2B" d="M595.603,819.454c45.969-35.976,66.955-74.95,80.946-129.913c19.987-74.95,60.959-103.931,134.91-121.919
				c116.922-28.981,245.836-33.977,362.758-4.997c134.91,31.979,114.923,124.917,179.88,220.853
				c6.995,9.993,24.983,26.982,34.977,35.976c-6.995-0.999-16.989-3.997-23.984-6.995
				c-58.961-61.959-61.959-145.903-110.926-196.869c-47.968-49.967-196.869-60.959-264.824-57.961
				c-74.95,1.999-191.872,12.991-254.83,58.961c-16.989,12.991-28.981,35.976-35.976,56.962
				c-18.987,53.964-25.983,92.938-66.955,135.909C626.582,810.46,600.599,819.454,595.603,819.454L595.603,819.454z"/>
			<path fill="#74A52F" d="M0.999,356.762c117.921,28.981,192.871,99.933,226.849,217.855
				c-74.95,8.994-162.891,1.999-226.849-41.972V356.762z"/>
			<path fill="#2C2C2B" d="M540.64,823.451c74.95-50.966,78.947-62.958,108.927-149.9c6.995-19.987,14.99-38.974,26.982-56.962
				c34.977-52.965,101.932-69.953,159.893-82.945c115.923-24.983,339.773-25.983,438.707,41.972
				c16.989,11.992,30.979,26.982,41.972,43.971c32.978,49.967,41.972,115.923,82.945,160.893
				c12.991,14.99,31.979,26.982,48.967,37.975c6.995-13.991,12.991-33.977,21.985-45.969c17.988-24.983,62.958-10.993,71.952,14.99
				c6.995,19.987-14.99,55.963-23.984,73.951c6.995,8.994,6.995,9.993,6.995,20.986c-9.993-3.997-43.971-19.987-51.965-25.983
				c7.995,0.999,15.989,0.999,23.984-0.999c-1.999-4.997-12.991-9.993-17.988-12.991c8.994-19.987,30.979-52.965,30.979-71.952
				c-34.977-12.991-41.972,23.984-52.965,48.967c-0.999,1.999,0,7.995,0,10.993c-15.989-5.996-20.986-11.992-33.977-19.987
				c-33.977-20.986-61.959-51.965-76.949-89.94c-29.98-71.952-49.967-134.91-134.91-162.891
				c-132.911-44.97-328.781-45.969-459.693,6.995c-45.969,18.987-75.949,53.964-90.939,97.935
				c-22.985,65.956-33.977,113.924-96.935,153.897c-12.991,7.995-25.983,18.987-41.972,25.983c-2.998,0.999-5.996,2.998-9.993,3.997
				l-2.998,2.998c-7.995-13.991-26.982-66.955-32.978-72.951c-24.983,9.993-25.983,23.984-14.99,46.969
				c5.996,13.991,12.991,28.981,22.985,40.973c-4.997,2.998-9.993,5.996-12.991,10.993c0,1.999,0,3.997,0,5.996l-8.994,3.997
				c0-10.993,0.999-11.992,7.995-20.986c-7.995-16.989-16.989-34.977-22.985-49.967c-11.992-32.978,25.983-57.961,54.963-48.967
				C520.653,772.485,533.644,810.46,540.64,823.451L540.64,823.451z"/>
			<path fill="#9E9D9D" d="M1510.993,771.486c34.977,16.989,18.987,46.969,5.996,73.951c-2.998,5.996-5.996,11.992-8.994,16.989
				c-2.998-1.999-7.995-5.996-10.993-5.996c-1.999-4.997-12.991-9.993-17.988-12.991
				C1489.007,823.451,1510.993,791.472,1510.993,771.486z"/>
			<path fill="#9E9D9D" d="M476.682,776.482c35.976-5.996,41.972,23.984,54.963,51.965c-5.996,4.997-15.989,12.991-18.987,19.987
				l-2.998,0.999C502.665,834.444,482.678,782.478,476.682,776.482z"/>
			<path fill="#FEC624" d="M0.999,1894.737c76.949-11.992,174.883-24.983,251.832-29.98c8.994,31.979,12.991,60.959,24.983,93.937
				c45.969,131.912,136.909,269.82,245.836,357.761l3.997,2.998c10.993,7.995,21.985,15.99,32.978,24.983
				c10.993,6.995,19.987,12.991,29.98,20.986l3.997,3.997c1.999,2.998,4.997,5.996,6.995,9.993
				c-16.989,23.984-32.978,47.968-49.967,71.952c-8.994,11.992-39.973,46.969-44.97,57.961l1.999,8.994
				c-1.999,24.983-10.993,36.975-34.977,43.97c39.973,6.996,58.961-9.993,92.938-19.987c23.984-6.995,59.96-7.995,85.943-14.99
				c26.982-4.997,43.971-9.993,70.953-11.992c-4.997,2.998-7.995,4.997-9.993,9.993c1.999,14.99,40.973,21.985,54.963,23.984
				c75.949,13.991,153.897,17.988,231.845,20.986c160.893,6.995,319.787,1.999,480.68-2.998c23.984-1,44.97,1.999,69.953,0.999
				c29.98-0.999,55.963-7.994,84.943-9.993c122.918-7.995,242.838-20.986,364.757-37.975V3000H0.999V1894.737z"/>
			<path fill="#2C2C2B" d="M522.651,2315.456l3.997,2.998c10.993,7.995,21.985,15.989,32.978,24.983
				c10.993,6.995,19.987,12.991,29.98,20.986l3.997,3.997c1.999,2.998,4.997,5.996,6.995,9.993
				c-16.989,23.984-32.978,47.968-49.967,71.952c-8.994,11.992-39.973,46.969-44.97,57.961l1.999,8.994
				c-1.999,24.983-10.993,36.975-34.977,43.971c-13.991,0-24.983,0-37.975-7.995c-9.993-5.996-16.989-15.99-18.987-27.981
				c-4.997-26.982,10.993-43.971,35.976-48.967c17.988-52.965,36.975-106.929,63.957-155.896
				C515.656,2318.454,520.653,2316.456,522.651,2315.456z"/>
			<path fill="#9E9D9D" d="M559.627,2342.438c10.993,6.995,19.987,12.991,29.98,20.986l3.997,3.997
				c-11.992,21.985-31.979,46.969-45.969,68.954c-11.992-5.996-20.986-11.992-31.979-18.987
				C530.646,2394.404,546.635,2366.422,559.627,2342.438z"/>
			<path fill="#FEEEE2" d="M526.649,2317.455c10.993,7.995,21.985,15.99,32.978,24.983c-12.991,23.984-28.981,51.965-43.971,75.949
				c-8.994-4.997-18.987-10.993-27.981-15.99C495.669,2382.412,516.656,2336.442,526.649,2317.455L526.649,2317.455z"/>
			<path fill="#9E9D9D" d="M485.676,2409.394c9.993,3.997,17.988,9.993,27.981,14.99c9.993,5.996,20.986,11.992,30.979,17.988
				l-44.97,56.962c-5.996-5.996-11.992-11.992-19.987-14.99c-5.996-1.999-11.992-3.997-17.988-4.997L485.676,2409.394z"/>
			<path fill="#FEEEE2" d="M485.676,2409.394c9.993,3.997,17.988,9.993,27.981,14.99c-4.997,8.994-28.981,52.965-33.977,58.96
				c-5.996-1.999-11.992-3.997-17.988-4.997L485.676,2409.394z"/>
			<path fill="#9E9D9D" d="M428.714,2532.312c-8.994-33.977,6.995-48.967,39.973-41.972
				C543.638,2517.322,452.698,2586.276,428.714,2532.312z"/>
			<path fill="#FEEEE2" d="M428.714,2532.312c-8.994-33.977,6.995-48.967,39.973-41.972
				C473.684,2520.32,452.698,2525.316,428.714,2532.312z"/>
			<path fill="#C01F1A" d="M1383.078,1099.267c21.985,7.995,59.96,31.979,79.947,44.97c118.921,77.948,224.85,186.875,285.81,315.79
				c54.963,116.922,66.955,275.816,52.965,403.731c57.961,6.995,141.905,15.989,197.868,26.982v562.625v64.957
				c-121.919,16.989-241.839,29.98-364.757,37.975c-28.981,1.999-53.964,8.994-84.943,9.993c-24.983,1-46.969-0.999-69.953-0.999
				c-160.893,4.997-319.787,10.993-480.68,2.998c-76.949-3.997-154.897-6.995-231.845-20.986
				c-13.991-2.998-52.965-8.994-54.963-23.984c1.999-4.997,4.997-6.995,9.993-9.993c-26.982,1.999-44.97,6.995-70.953,11.992
				c-25.983,6.995-60.959,6.995-85.943,14.99c-33.977,10.993-52.965,26.982-92.938,19.987c23.984-6.995,32.978-18.987,34.977-43.97
				l-1.999-8.994c4.997-10.993,35.976-45.969,44.97-57.961c16.989-23.984,33.977-47.968,49.967-71.952
				c-1.999-3.997-3.997-5.996-6.995-9.993l-3.997-3.997c15.989,4.997,50.966,25.983,69.953,33.977
				c82.945,34.977,171.885,53.964,261.825,55.963c196.869,2.998,385.743-70.953,529.647-205.863
				c136.909-129.913,216.855-309.793,221.852-498.667c3.997-201.865-42.971-394.737-186.875-543.638
				c-21.985-22.985-45.969-44.97-70.953-64.957c-13.991-10.993-38.974-25.983-50.966-38.974h3.997
				C1375.083,1102.265,1378.081,1103.265,1383.078,1099.267L1383.078,1099.267z"/>
			<path fill="#FEC624" d="M1801.799,1863.757c57.961,6.995,141.905,15.989,197.868,26.982v562.625
				c-21.985-2.998-55.963-3.997-77.948-4.997c-56.962-2.998-114.923-3.997-171.885-3.997c-79.947,0-169.887-0.999-248.834,2.998
				c-6.995-18.987-10.993-38.974-17.988-58.961c6.995-2.998,33.977-24.983,39.973-29.98
				C1675.883,2231.512,1780.813,2062.625,1801.799,1863.757z"/>
			<path fill="#2C2C2B" d="M1403.064,2318.454l1.999-3.997c8.994-5.996,28.981-1.999,38.974,0c6.995,1.999,9.993,2.998,13.991,9.993
				c7.995,15.99,18.987,45.969,23.984,62.958c6.995,19.987,11.992,39.973,17.988,58.96c2.998,9.993,5.996,20.986,9.993,30.979
				c12.991,4.997,22.985,10.993,28.981,23.984c4.997,9.993,4.997,20.986,1,30.979c-7.995,18.987-25.983,27.981-44.97,28.981
				c-33.977-2.998-50.966-21.985-42.971-55.963c-7.995-13.991-30.979-47.968-39.974-57.961l-6.995-9.993
				c-5.996-13.99-39.973-63.957-40.973-71.952c1.999-4.997,3.997-6.995,7.995-10.993
				C1381.079,2342.438,1393.071,2330.446,1403.064,2318.454L1403.064,2318.454z"/>
			<path fill="#FEEEE2" d="M1403.064,2318.454c16.989,29.98,29.98,66.955,44.97,96.935c-10.993,4.997-22.985,10.993-33.977,15.989
				c-12.991-20.986-32.978-54.963-43.971-76.948C1381.079,2342.438,1393.071,2330.446,1403.064,2318.454z"/>
			<path fill="#9E9D9D" d="M1403.064,2318.454l1.999-3.997c8.994-5.996,28.981-1.999,38.974,0
				c11.992,25.983,21.985,59.96,31.979,87.941c-6.995,3.997-20.986,9.993-27.981,12.991
				C1433.044,2385.41,1420.053,2348.434,1403.064,2318.454z"/>
			<path fill="#FEEEE2" d="M1451.033,2422.385c8.994-3.997,19.987-7.995,27.981-12.991c6.995,22.985,13.991,46.969,20.986,69.953
				c-3.997,0.999-16.989,3.997-20.986,4.997c-8.994,4.997-11.992,6.995-19.987,13.991c-12.991-20.986-26.982-39.973-41.972-59.96
				L1451.033,2422.385z"/>
			<path fill="#9E9D9D" d="M1451.033,2422.385c8.994-3.997,19.987-7.995,27.981-12.991c6.995,22.985,13.991,46.969,20.986,69.953
				c-3.997,0.999-16.989,3.997-20.986,4.997L1451.033,2422.385z"/>
			<path fill="#9E9D9D" d="M1490.006,2490.34c9.993-1,23.984-1.999,31.979,5.996c31.979,33.977-23.984,79.947-52.965,45.969
				C1452.032,2516.323,1465.023,2500.333,1490.006,2490.34z"/>
			<path fill="#FEEEE2" d="M1490.006,2490.34c23.984,23.984,2.998,44.97-21.985,51.965
				C1452.032,2516.323,1465.023,2500.333,1490.006,2490.34z"/>
			<path fill="#E3231C" d="M600.599,2377.415c17.988,11.992,35.976,25.983,53.964,37.975
				c47.968,30.979,91.939,50.966,143.904,71.952c-49.967,1-199.867,1-238.841,23.984c-12.991,7.995-34.977,10.993-49.967,12.991
				l-1.999-1l-0.999-6.995l-1.999-8.994c4.997-10.993,35.976-45.969,44.97-57.961
				C567.622,2425.383,584.61,2401.399,600.599,2377.415z"/>
			<path fill="#F13322" d="M1405.063,2438.374l6.995,9.993c-7.995,1-19.987,1-27.981,1L1405.063,2438.374z"/>
			<path fill="#C01F1A" d="M1290.14,1057.295c11.992,3.997,22.985,7.995,34.977,12.991l-3.997,7.995
				C1314.124,1073.284,1293.138,1066.289,1290.14,1057.295z"/>
			<path fill="#FEC624" d="M362.758,1960.693c-12.991-24.983-26.982-76.949-31.979-104.93
				c-34.977-169.887-0.999-347.768,94.937-492.672s243.837-249.833,414.723-285.809c119.92-24.983,244.837-16.989,358.761,28.981
				c25.983,9.993,62.958,26.982,85.943,42.971c12.991,6.995,24.983,14.99,36.975,22.985
				c113.924,78.947,198.867,197.868,240.839,330.779c54.963,169.887,38.974,353.764-42.971,512.658
				c-80.946,153.897-218.854,269.82-383.744,322.785c-155.896,48.967-324.784,32.978-469.687-42.971
				c-115.923-59.96-209.86-152.898-271.819-266.822C385.743,2012.658,367.755,1978.681,362.758,1960.693L362.758,1960.693z"/>
			<path fill="#FEE67A" d="M898.401,1172.219c8.994,7.995,14.99,14.99,22.985,23.984l-8.994,2.998
				c5.996,18.987,21.985,21.985,38.974,25.983c11.992-2.998,17.988-5.996,26.982-15.989l3.997-1.999
				c5.996-3.997,10.993-10.993,17.988-16.989c3.997,0,16.989,7.995,22.985,8.994c33.977-13.991,23.984,27.981,58.961,31.979
				c8.994,0.999,10.993,0.999,18.987-0.999c13.991-3.997,18.987-3.997,30.979,5.996c1.999,3.997,1.999,4.997,2.998,8.994
				c3.997,17.988,6.995,25.983,17.988,40.973c8.994,18.987,34.977,26.982,53.964,31.979c48.967-11.992,72.951-11.992,122.918-11.992
				l20.986,0.999l0.999,24.983v23.984c1,1,3.997,1.999,4.997,1.999c-0.999,1.999,1.999,23.984,2.998,25.983
				c-6.995,11.992-5.996,36.975-5.996,51.965c-6.995,31.979-16.989,61.959-41.972,84.943c-3.997,2.998-17.988,15.989-17.988,18.987
				c-6.995,3.997-13.99,7.995-20.986,11.992c-5.996,0-21.985,3.997-28.981,6.995c-20.986,6.995-59.96,6.995-79.947-2.998
				c-48.967,38.974-100.933,77.948-148.901,116.922c3.997,13.991,5.996,20.986,5.996,35.976
				c24.983,17.988,46.969,29.98,27.981,62.958l7.995-0.999c10.993-2.998,25.983,0.999,33.977-2.998l2.998,10.993
				c2.998-2.998,1.999-2.998,4.997-2.998c8.994,16.989,14.99,27.981,18.987,46.969c12.991,26.982,11.992,46.969,3.997,74.95
				c-0.999,3.997-2.998,6.995-2.998,9.993c-2.998,3.997-21.985,29.98-22.985,31.979c-25.983,53.964-20.986,102.931,15.989,150.9
				c8.994,20.986,33.977,37.975,54.963,45.969c20.986,7.995,36.975,10.993,58.961,8.994c3.997,0,15.989-1,18.987,0
				c-5.996,5.996-7.995,8.994-12.991,15.989c-6.995,8.994-9.993,16.989-14.99,25.983c-16.989,8.994-23.984,7.995-42.971,6.995
				c17.988,14.99,22.985,23.984,2.998,40.973c-47.968,12.991-61.959-10.993-102.931,9.993
				c-17.988-0.999-17.988-11.992-11.992-25.983c-3.997,1.999-9.993,7.995-12.991,11.992c-15.989,17.988-27.981,19.987-50.966,24.983
				c3.997-2.998,8.994-4.997,12.991-6.995c35.976-17.988,56.962-57.961,54.963-97.935c-0.999-10.993,0-20.986-6.995-29.98
				c-0.999,106.928-96.935,153.897-186.875,100.933c10.993,20.986,42.971,21.985,36.975,50.966
				c-3.997,4.997-1.999,3.997-7.995,5.996c-10.993,0-18.987-12.991-27.981-19.987c-18.987-15.99-47.968-8.994-65.956-24.983
				c-12.991-11.992-9.993-29.98-24.983-41.972c-7.995-5.996-18.987-13.991-28.981-12.991c-21.985-3.997-33.977-4.997-55.963,1.999
				c-4.997,1-9.993,3.997-14.99,4.997c-8.994,12.991-12.991,21.985,1.999,32.978l-8.994,1.999c9.993,4.997,18.987,6.995,29.98,7.995
				c5.996,53.964,30.979,7.995,56.962,21.985c7.995,3.997,12.991,22.985,28.981,18.987c6.995-0.999,10.993-8.994,15.989-10.993
				c10.993-5.996,29.98-1,40.973,4.997c10.993,5.996,23.984,20.986,17.988,32.978c-18.987,18.987-80.946-28.981-91.939,2.998
				c-7.995-1.999-29.98-10.993-37.975-14.99c-58.961-24.983-140.906-76.949-184.877-124.917c1.999-1.999,4.997-3.997,6.995-5.996
				c6.995-1,4.997-1,11.992,1.999c-17.988-27.981-16.989-52.965,20.986-58.961c-20.986-7.995-22.985-14.99-36.975-32.978
				c-6.995-7.995-21.985-15.989-30.979-6.995c-3.997,10.993,12.991,12.991,14.99,24.983c-2.998,7.995-17.988,12.991-24.983,10.993
				c-30.979-7.995-31.979-54.963-46.969-78.947c-7.995-12.991-26.982-22.985-23.984-37.975c9.993-8.994,35.976,5.996,52.965-5.996
				c18.987-13.991,27.981-42.971-2.998-47.968c-2.998-14.99-5.996-22.985-15.989-34.977c-14.99-16.989-41.972-28.981-61.959-11.992
				c-7.995-9.993-14.99-30.979-3.997-40.973c6.995-1.999,5.996-1,13.991,0c-0.999,0-0.999-1-1.999-1
				c-16.989-10.993-27.981-34.977-15.989-54.963c4.997-7.995,13.991-8.994,22.985-10.993c-3.997-3.997-10.993-12.991-15.989-18.987
				c-13.991-2.998-23.984-1.999-24.983-18.987c-0.999-14.99,0-31.979,1.999-46.969c0.999-11.992,1.999-28.981,15.989-31.979
				c3.997-16.989,5.996-23.984,14.99-38.974l-5.996-3.997c-4.997,2.998-6.995,9.993-14.99,8.994
				c-0.999-2.998-1.999-8.994-1.999-11.992c1.999-9.993,15.989-23.984,20.986-33.977c5.996-12.991,4.997-27.981,14.99-37.975
				c3.997-5.996,17.988,4.997,22.985,2.998c31.979-13.991-5.996-30.979-5.996-40.973c-0.999-21.985,20.986-19.987,29.98-30.979
				c11.992-14.99-10.993-23.984-11.992-37.975c3.997-26.982,16.989-18.987,33.977-16.989c9.993,0.999,14.99-15.989,19.987-20.986
				c6.995-7.995,21.985-3.997,32.978-3.997c5.996,0,11.992-0.999,17.988-2.998c20.986-6.995,34.977-22.985,44.97-41.972
				c14.99-4.997,8.994-29.98,14.99-37.975c16.989-22.985,12.991-25.983,5.996-48.967c-9.993-30.979,30.979-47.968,50.966-23.984
				c4.997,6.995,27.981-1.999,23.984-13.991c-6.995-3.997-14.99-6.995-10.993-15.989c7.995-6.995,22.985-1.999,23.984,2.998
				c5.996,24.983-11.992,28.981,6.995,55.963c3.997,6.995,8.994,13.991,15.989,18.987c5.996,3.997,12.991,5.996,19.987,3.997
				c14.99-2.998,22.985-15.989,29.98-26.982c10.993-3.997,19.987-6.995,29.98-11.992c34.977-13.991-14.99-39.973,19.987-51.965
				c17.988-5.996,29.98,0,45.969-15.989L898.401,1172.219z"/>
			<path fill="#2C2C2B" d="M999.334,1192.205c3.997,0,16.989,7.995,22.985,8.994c33.977-13.991,23.984,27.981,58.961,31.979
				c8.994,0.999,10.993,0.999,18.987-0.999c13.991-3.997,18.987-3.997,30.979,5.996c1.999,3.997,1.999,4.997,2.998,8.994
				c3.997,17.988,6.995,25.983,17.988,40.973c8.994,18.987,34.977,26.982,53.964,31.979c48.967-11.992,72.951-11.992,122.918-11.992
				l20.986,0.999l0.999,24.983v23.984c0.999,0.999,3.997,1.999,4.997,1.999c-0.999,1.999,1.999,23.984,2.998,25.983
				c-6.995,11.992-5.996,36.975-5.996,51.965c-6.995,31.979-16.989,61.959-41.972,84.943c-3.997,2.998-17.988,15.989-17.988,18.987
				c-6.995,3.997-13.991,7.995-20.986,11.992c-5.996,0-21.985,3.997-28.981,6.995c-20.986,6.995-59.96,6.995-79.947-2.998
				c-48.967,38.974-100.933,77.948-148.901,116.922c3.997,13.991,5.996,20.986,5.996,35.976
				c24.983,17.988,46.969,29.98,27.981,62.958c-25.983,5.996-42.971,13.991-64.957,28.981c-9.993-10.993-47.968,4.997-63.957-28.981
				l0.999-2.998c3.997-6.995,6.995-13.991,10.993-20.986c0-2.998-0.999-5.996-0.999-7.995c-5.996-0.999-8.994-1.999-13.991-0.999
				c-0.999,5.996-5.996,14.99-8.994,20.986c-23.984-23.984-27.981-41.972-22.985-74.95
				c-49.967-31.979-109.927-65.956-142.905-114.923c-3.997-6.995-7.995-12.991-11.992-19.987l-18.987-33.977
				c0-2.998-0.999-4.997-2.998-5.996c6.995,0.999,11.992,1.999,19.987,2.998c4.997,0.999,11.992,2.998,15.989,4.997
				c8.994,2.998,14.99,4.997,23.984,7.995c3.997,1.999,10.993,6.995,14.99,7.995c7.995,4.997,14.99,8.994,22.985,13.991
				c27.981,19.987,75.949,70.953,103.931,96.935c3.997-1.999,8.994-4.997,13.991-7.995c-8.994-86.942-15.989-127.915,6.995-212.858
				c-5.996-9.993-45.969-21.985-54.963-52.965c-21.985-32.978-35.976-66.955-22.985-106.929
				c9.993-31.979,28.981-50.966,57.961-66.955c5.996,18.987,21.985,21.985,38.974,25.983c11.992-2.998,17.988-5.996,26.982-15.989
				l3.997-1.999C987.342,1204.197,992.338,1197.202,999.334,1192.205z"/>
			<path fill="#FEE67A" d="M999.334,1192.205c3.997,0,16.989,7.995,22.985,8.994c33.977-13.991,23.984,27.981,58.961,31.979
				c8.994,0.999,10.993,0.999,18.987-0.999c13.991-3.997,18.987-3.997,30.979,5.996c1.999,3.997,1.999,4.997,2.998,8.994
				c3.997,17.988,6.995,25.983,17.988,40.973c8.994,18.987,34.977,26.982,53.964,31.979c-5.996,1.999-11.992,3.997-17.988,6.995
				c-52.965,22.985-108.927,93.937-86.942,152.898c4.997,12.991,12.991,24.983,23.984,32.978
				c-6.995,8.994-17.988,16.989-16.989,25.983c2.998,2.998,3.997,2.998,7.995,3.997c-37.975,32.978-85.943,70.953-124.917,101.932
				c-10.993-4.997-17.988-7.995-29.98-9.993c-1.999-83.944,8.994-123.917-17.988-204.864l-7.995-18.987l-4.997,15.989
				c-5.996-9.993-45.969-21.985-54.963-52.965c-21.985-32.978-35.976-66.955-22.985-106.929
				c9.993-31.979,28.981-50.966,57.961-66.955c5.996,18.987,21.985,21.985,38.974,25.983c11.992-2.998,17.988-5.996,26.982-15.989
				l3.997-1.999C987.342,1204.197,992.338,1197.202,999.334,1192.205L999.334,1192.205z"/>
			<path fill="#F13322" d="M999.334,1192.205c3.997,0,16.989,7.995,22.985,8.994l4.997,3.997
				c0.999,11.992,6.995,22.985,9.993,33.977c6.995,29.98-1.999,65.956-19.987,89.94c-19.987,26.982-50.966,44.97-84.943,48.967
				c-19.987,2.998-48.967-7.995-53.964-5.996l-1.999,0.999c-21.985-32.978-35.976-66.955-22.985-106.929
				c9.993-31.979,28.981-50.966,57.961-66.955c5.996,18.987,21.985,21.985,38.974,25.983c11.992-2.998,17.988-5.996,26.982-15.989
				l3.997-1.999C987.342,1204.197,992.338,1197.202,999.334,1192.205z"/>
			<path fill="#E3231C" d="M977.348,1210.193l3.997-1.999c8.994,7.995,13.991,2.998,26.982,3.997
				c-17.988,5.996-39.973,14.99-57.961,12.991C963.358,1223.185,969.354,1219.187,977.348,1210.193L977.348,1210.193z"/>
			<path fill="#FE8672" d="M906.396,1231.179c40.973-0.999,54.963,57.961,9.993,71.952
				C874.417,1305.13,865.423,1244.171,906.396,1231.179z"/>
			<path fill="#E3231C" d="M1028.314,1205.197c27.981,18.987,41.972,41.972,51.965,73.951c11.992,16.989,12.991,44.97,9.993,64.957
				c-9.993,59.96-62.958,94.937-121.919,88.941c-7.995-0.999-15.989-1.999-22.985-2.998l-7.995-18.987l-4.997,15.989
				c-5.996-9.993-45.969-21.985-54.963-52.965l1.999-0.999c4.997-1.999,33.977,8.994,53.964,5.996
				c33.977-3.997,64.957-21.985,84.943-48.967c17.988-24.983,26.982-59.96,19.987-89.94
				C1035.31,1227.182,1029.314,1217.188,1028.314,1205.197L1028.314,1205.197z"/>
			<path fill="#FEC150" d="M1080.28,1279.147c11.992,16.989,12.991,44.97,9.993,64.957c-9.993,59.96-62.958,94.937-121.919,88.941
				c-7.995-0.999-15.989-1.999-22.985-2.998l-7.995-18.987l-4.997,15.989c-5.996-9.993-45.969-21.985-54.963-52.965l1.999-0.999
				c40.973,46.969,129.913,49.967,171.885,1.999C1078.281,1341.106,1081.279,1319.12,1080.28,1279.147L1080.28,1279.147z"/>
			<path fill="#FEC624" d="M1034.31,1477.015c4.997,0,7.995-0.999,12.991,0c5.996,5.996,2.998,15.99,0,22.985
				c-7.995,23.984-14.99,40.973-42.971,40.973c-1.999-0.999-2.998-0.999-4.997-1.999c-14.99-6.995-18.987-23.984-9.993-37.975
				C1000.333,1486.009,1015.323,1482.012,1034.31,1477.015L1034.31,1477.015z"/>
			<path fill="#FEC624" d="M1134.244,1286.142c3.997-0.999,7.995,1,9.993,4.997c0.999,3.997-0.999,7.995-4.997,9.993
				c-2.998,0.999-5.996,0.999-7.995-1c-1.999-1.999-2.998-4.997-2.998-7.995C1129.247,1289.141,1131.246,1287.142,1134.244,1286.142
				z"/>
			
				<linearGradient id="SVGID_00000079449566883318594530000001314289957816421291_" gradientUnits="userSpaceOnUse" x1="1185.3682" y1="2107.1619" x2="1271.8043" y2="2295.3516" gradientTransform="matrix(1 0 0 1 0 -778)">
				<stop  offset="0" style="stop-color:#69A110"/>
				<stop  offset="1" style="stop-color:#547F17"/>
			</linearGradient>
			<path fill="url(#SVGID_00000079449566883318594530000001314289957816421291_)" d="M1330.113,1307.129l20.986,0.999l0.999,24.983
				v23.984c0.999,0.999,3.997,1.999,4.997,1.999c-0.999,1.999,1.999,23.984,2.998,25.983c-6.995,11.992-5.996,36.975-5.996,51.965
				c-6.995,31.979-16.989,61.959-41.972,84.943c-3.997,2.998-17.988,15.989-17.988,18.987c-6.995,3.997-13.991,7.995-20.986,11.992
				c-5.996,0-21.985,3.997-28.981,6.995c-20.986,6.995-59.96,6.995-79.947-2.998c5.996-4.997,12.991-9.993,18.987-14.99
				c21.985-16.989,51.965-42.971,73.951-60.959c3.997-2.998,8.994-6.995,12.991-8.994c13.991-13.991,58.961-53.964,54.963-73.951
				c-3.997-3.997-3.997-2.998-9.993-3.997c-7.995,6.995-21.985,14.99-31.979,20.986c-7.995,4.997-14.99,9.993-22.985,14.99
				l-5.996,4.997c-4.997,3.997-11.992,8.994-17.988,12.991c-6.995,5.996-11.992,10.993-19.987,15.989
				c-1.999-0.999-17.988-3.997-21.985-3.997c-3.997,3.997-7.995,6.995-9.993,11.992c0.999,5.996,0.999,5.996,6.995,10.993
				l0.999,0.999c-23.984,17.988-53.964,41.972-76.949,60.959c-3.997-0.999-4.997-0.999-7.995-3.997
				c-0.999-7.995,9.993-15.99,16.989-25.983c-10.993-8.994-18.987-19.987-23.984-32.978
				c-21.985-58.961,33.977-129.913,86.942-152.898c5.996-1.999,11.992-4.997,17.988-6.995
				C1256.162,1307.129,1281.146,1307.129,1330.113,1307.129L1330.113,1307.129z"/>
			<path fill="#A7C95A" d="M1163.224,1477.015c5.996-4.997,5.996-10.993,4.997-17.988c-3.997-38.974-0.999-78.947,30.979-106.929
				c7.995-6.995,33.977-21.985,45.969-20.986c-4.997,7.995-27.981,8.994-42.971,26.982c-26.982,33.977-23.984,65.956-20.986,104.93
				c17.988-14.99,33.977-29.98,49.967-46.969c1.999-32.978,2.998-56.962,37.975-72.951c13.991-5.996,12.991,6.995,21.985,10.993
				c4.997,0,7.995-1.999,11.992-4.997c0,2.998-50.966,53.964-57.961,60.96c12.991,0.999,22.985,1.999,35.976-1.999l4.997,2.998
				c-7.995,4.997-14.99,9.993-22.985,14.99l-5.996,4.997c-4.997,3.997-11.992,8.994-17.988,12.991
				c-6.995,5.996-11.992,10.993-19.987,15.99c-1.999-0.999-17.988-3.997-21.985-3.997c-3.997,3.997-7.995,6.995-9.993,11.992
				c0.999,5.996,0.999,5.996,6.995,10.993l0.999,0.999c-23.984,17.988-53.964,41.972-76.949,60.96
				c-3.997-0.999-4.997-0.999-7.995-3.997c-0.999-7.995,9.993-15.989,16.989-25.983c2.998-5.996-2.998-15.989-5.996-21.985
				c-2.998-7.995-15.99-48.967-2.998-51.965c0.999,9.993,8.994,56.962,21.985,54.964l0.999-3.997
				C1145.236,1482.012,1155.23,1478.015,1163.224,1477.015L1163.224,1477.015z"/>
			<path fill="#74A52F" d="M1215.19,1441.039c6.995,1.999,15.989,2.998,22.985,3.997c-6.995,5.996-11.992,10.993-19.987,15.989
				c-1.999-0.999-17.988-3.997-21.985-3.997C1203.198,1452.032,1209.194,1447.035,1215.19,1441.039z"/>
			<path fill="#74A52F" d="M1256.162,1432.045c-5.996-0.999-16.989-0.999-20.986-4.997v0.999l-0.999-0.999
				c9.993-0.999,17.988-0.999,27.981,0L1256.162,1432.045z"/>
			<path fill="#FEC150" d="M1353.098,1357.095c0.999,0.999,3.997,1.999,4.997,1.999c-0.999,1.999,1.999,23.984,2.998,25.983
				c-6.995,11.992-5.996,36.975-5.996,51.965c-6.995,31.979-16.989,61.959-41.972,84.943c-3.997,2.998-17.988,15.989-17.988,18.987
				c-6.995,3.997-13.991,7.995-20.986,11.992c-5.996,0-21.985,3.997-28.981,6.995c-20.986,6.995-59.96,6.995-79.947-2.998
				c5.996-4.997,12.991-9.993,18.987-14.99c54.963,0.999,105.929-18.987,137.908-64.957
				C1346.103,1440.04,1350.1,1398.068,1353.098,1357.095z"/>
			<path fill="#74A52F" d="M1141.239,1398.068c1.999-6.995,11.992-17.988,16.989-23.984c0.999,22.985,1.999,46.969,2.998,70.953
				c0,9.993,2.998,23.984,1.999,32.978c-7.995,1-17.988,4.997-21.985,11.992c-2.998-3.997-4.997-7.995-6.995-12.991
				c3.997-6.995,0-31.979,0.999-42.971C1137.242,1424.051,1141.239,1403.064,1141.239,1398.068L1141.239,1398.068z"/>
			<path fill="#A7C95A" d="M1141.239,1398.068c0.999,5.996-2.998,26.982-3.997,34.977c-1.999,11.992,1.999,36.975-0.999,42.971
				C1127.248,1447.035,1127.248,1424.051,1141.239,1398.068L1141.239,1398.068z"/>
			<path fill="#91BF36" d="M1280.146,1410.06c0-5.996,29.98-15.99,35.976-16.989c-7.995,6.995-21.985,14.99-31.979,20.986
				L1280.146,1410.06z"/>
			<path fill="#A7C95A" d="M1271.152,1470.02l21.985-6.995c-9.993,5.996-22.985,15.99-34.977,15.99
				C1263.158,1477.015,1267.155,1473.018,1271.152,1470.02z"/>
			<path fill="#F13322" d="M919.387,1738.841c-14.99-6.995-21.985-24.983-20.986-40.973c0.999-12.991,7.995-25.983,17.988-33.977
				c22.985-18.987,48.967-13.991,66.955,8.994c3.997,39.973-5.996,62.958-49.967,66.955
				C928.381,1737.841,924.384,1736.842,919.387,1738.841z"/>
			<path fill="#FDB3B0" d="M928.381,1659.893c6.995,0,13.991-0.999,16.989,5.996c-2.998,8.994-12.991,11.992-20.986,15.989
				c-4.997,2.998-6.995,3.997-10.993,0C910.393,1670.886,920.386,1664.89,928.381,1659.893z"/>
			<path fill="#FEC150" d="M1023.318,1707.861c24.983,17.988,46.969,29.98,27.981,62.958c-25.983,5.996-42.971,13.991-64.957,28.981
				c-9.993-10.993-47.968,4.997-63.957-28.981l0.999-2.998C973.351,1786.809,1015.323,1759.827,1023.318,1707.861L1023.318,1707.861
				z"/>
			<path fill="#E3231C" d="M983.344,1671.885c7.995,12.991,12.991,24.983,8.994,40.973c-2.998,11.992-9.993,21.985-20.986,28.981
				c-11.992,7.995-22.985,7.995-36.975,5.996c0-2.998-0.999-5.996-0.999-7.995C977.348,1734.843,987.342,1711.859,983.344,1671.885z
				"/>
			<path fill="#91BF36" d="M1194.204,1481.013L1194.204,1481.013c-5.996-4.997-6.995-4.997-7.995-11.992
				c1.999-4.997,5.996-7.995,9.993-11.992c2.998,0.999,19.987,2.998,21.985,3.997
				C1211.192,1467.022,1201.199,1474.017,1194.204,1481.013L1194.204,1481.013z"/>
			<path fill="#F13322" d="M633.578,1517.988c-11.992-13.991-19.987-26.982-25.983-43.971
				c-12.991-34.977-11.992-73.951,2.998-108.927c31.979-69.953,129.913-92.938,189.874-44.97
				c15.989,12.991,30.979,30.979,37.975,50.966c3.997,8.994,4.997,14.99,7.995,24.983c2.998,41.972,0,78.947-28.981,111.925
				c-9.993,10.993-20.986,19.987-32.978,26.982c-2.998-0.999-10.993-5.996-14.99-7.995c-8.994-3.997-13.991-5.996-23.984-7.995
				c-4.997-1.999-11.992-3.997-15.989-4.997c-6.995-1.999-11.992-1.999-19.987-2.998c1.999,1.999,2.998,3.997,2.998,5.996
				l18.987,33.977C689.54,1551.965,667.555,1543.971,633.578,1517.988L633.578,1517.988z"/>
			<path fill="#E3231C" d="M770.486,1526.982c11.992-6.995,19.987-10.993,30.979-19.987c36.975-30.979,40.973-72.951,39.973-117.922
				c0-6.995-3.997-9.993-2.998-17.988c3.997,8.994,4.997,14.99,7.995,24.983c2.998,41.972,0,78.947-28.981,111.925
				c-9.993,10.993-20.986,19.987-32.978,26.982C781.479,1533.977,773.484,1528.981,770.486,1526.982L770.486,1526.982z"/>
			<path fill="#F13322" d="M730.513,1513.991c1.999-8.994,3.997-16.989,15.989-14.99c8.994,6.995,5.996,11.992,0.999,19.987
				C742.505,1516.989,735.51,1514.99,730.513,1513.991z"/>
			<path fill="#FE8672" d="M713.524,1516.989c0,3.997-2.998,6.995-5.996,7.995c-3.997,0.999-6.995-0.999-8.994-3.997
				c-1.999-2.998-0.999-6.995,1.999-9.993c2.998-2.998,6.995-1.999,9.993,0C712.525,1511.992,713.524,1513.991,713.524,1516.989z"/>
			<path fill="#E3231C" d="M690.539,1476.016c-4.997-2.998-4.997-3.997-6.995-9.993c1.999-24.983,58.961-10.993,39.973,13.991
				c1.999,0.999,0.999,0,1.999,2.998c-0.999,2.998-0.999,4.997-3.997,6.995C705.529,1498.001,696.536,1487.009,690.539,1476.016z"/>
			<path fill="#FE8672" d="M690.539,1476.016c14.99-11.992,17.988-5.996,31.979,3.997c1.999,0.999,0.999,0,1.999,2.998
				c-0.999,2.998-0.999,4.997-3.997,6.995C705.529,1498.001,696.536,1487.009,690.539,1476.016z"/>
			<path fill="#FE8672" d="M652.565,1349.1c17.988,0,35.976,13.991,14.99,27.981c-1.999,0-2.998,0-4.997,0
				c-6.995,0-12.991-3.997-16.989-8.994c-1.999-2.998-2.998-6.995-1.999-9.993C644.57,1354.097,648.568,1352.099,652.565,1349.1z"/>
			<path fill="#FE8672" d="M782.478,1357.095c18.987,0,36.975,17.988,22.985,34.977c-2.998,0.999-3.997,0.999-6.995,0.999
				C789.474,1387.075,778.481,1369.087,782.478,1357.095z"/>
			<path fill="#E3231C" d="M701.532,1351.099c21.985-1.999,25.983,15.989,4.997,28.981
				C689.54,1383.078,681.545,1363.091,701.532,1351.099z"/>
			<path fill="#FE8672" d="M665.556,1472.019c13.991,1.999,29.98,17.988,11.992,31.979
				C655.563,1506.995,649.567,1488.008,665.556,1472.019z"/>
			<path fill="#E3231C" d="M744.504,1365.09c20.986,0,28.981,9.993,17.988,28.981C743.504,1399.067,734.51,1381.079,744.504,1365.09
				z"/>
			<path fill="#FE8672" d="M736.509,1405.063c22.985-2.998,29.98,15.989,10.993,22.985c-7.995-2.998-21.985-6.995-21.985-16.989
				C728.514,1407.062,731.512,1407.062,736.509,1405.063z"/>
			<path fill="#FE8672" d="M781.479,1472.019c2.998,0,4.997,1.999,7.995,3.997c3.997,12.991-9.993,20.986-19.987,23.984
				c-6.995-2.998-9.993-4.997-8.994-12.991C765.49,1479.014,772.485,1476.016,781.479,1472.019L781.479,1472.019z"/>
			<path fill="#E3231C" d="M779.48,1428.048c15.989,6.995,25.983,15.99,6.995,28.981c-9.993-2.998-12.991-8.994-18.987-16.989
				C771.486,1436.043,776.482,1432.045,779.48,1428.048L779.48,1428.048z"/>
			<path fill="#FE8672" d="M678.548,1396.069c5.996,0,9.993,0,13.991,4.997c2.998,10.993-4.997,14.99-12.991,18.987
				c-5.996,0.999-10.993-0.999-12.991-6.995C668.554,1403.064,671.552,1402.065,678.548,1396.069L678.548,1396.069z"/>
			<path fill="#E3231C" d="M628.581,1387.075c5.996-1.999,11.992,0.999,13.991,6.995c1.999,5.996-0.999,11.992-6.995,13.991
				c-5.996,1.999-11.992-0.999-13.991-6.995C619.587,1395.07,623.584,1389.074,628.581,1387.075z"/>
			<path fill="#E3231C" d="M714.524,1313.125c16.989,0.999,17.988,12.991,3.997,20.986c-5.996-0.999-6.995,0-11.992-3.997
				C700.533,1320.12,706.529,1317.122,714.524,1313.125z"/>
			<path fill="#FE8672" d="M754.497,1319.12c8.994,0.999,14.99,1.999,16.989,10.993c-0.999,4.997-1.999,5.996-5.996,9.993
				c-8.994,0-14.99-0.999-17.988-9.993C748.501,1324.117,750.5,1322.119,754.497,1319.12z"/>
			<path fill="#FE8672" d="M811.459,1409.061c3.997-0.999,7.995,0,9.993,2.998c2.998,2.998,3.997,6.995,2.998,9.993
				c-0.999,2.998-3.997,6.995-7.995,7.995c-5.996,0.999-10.993-1.999-12.991-6.995
				C803.464,1416.056,806.462,1410.06,811.459,1409.061z"/>
			<path fill="#FE8672" d="M723.518,1345.103c3.997-2.998,9.993-1.999,13.991,1.999c2.998,3.997,1.999,9.993-1.999,13.991
				c-3.997,2.998-9.993,1.999-13.991-1.999C718.521,1354.097,719.52,1348.101,723.518,1345.103L723.518,1345.103z"/>
			<path fill="#FE8672" d="M636.576,1413.058c12.991,1.999,15.989,10.993,5.996,19.987c-6.995-2.998-9.993-2.998-12.991-9.993
				C630.58,1418.055,632.578,1417.055,636.576,1413.058z"/>
			<path fill="#FE8672" d="M638.574,1446.036c2.998-0.999,5.996,0,7.995,1.999c1.999,1.999,2.998,5.996,1.999,8.994
				c-0.999,2.998-2.998,4.997-5.996,5.996c-4.997,0.999-8.994-1.999-9.993-5.996
				C631.579,1451.033,634.577,1447.035,638.574,1446.036L638.574,1446.036z"/>
			<path fill="#FE8672" d="M711.526,1434.044c11.992,0.999,18.987,4.997,14.99,17.988c-6.995,0-11.992-1.999-15.989-6.995
				C709.527,1438.041,709.527,1441.039,711.526,1434.044L711.526,1434.044z"/>
			<path fill="#F13322" d="M921.386,2019.653c2.998-12.991,2.998-14.99,6.995-26.982c1.999,10.993,2.998,14.99,6.995,25.983
				c11.992-1.999,18.987-1.999,30.979,0.999l0,0c4.997,1.999,2.998,0.999,6.995,6.995c3.997-1.999,7.995-3.997,12.991-4.997
				c9.993,4.997,20.986,9.993,28.981,17.988c26.982,22.985,40.973,44.97,44.97,79.947
				c-0.999,106.928-96.935,153.897-186.875,100.933c-4.997-3.997-9.993-9.993-14.99-14.99
				c-23.984-22.985-34.977-63.957-28.981-96.935c6.995-35.976,24.983-56.962,54.963-76.949c-1.999-8.994-1.999-16.989-2.998-26.982
				c5.996,8.994,5.996,11.992,14.99,22.985C905.396,2023.651,910.393,2022.651,921.386,2019.653z"/>
			<path fill="#E3231C" d="M1014.324,2039.64c26.982,22.985,40.973,44.97,44.97,79.947
				c-0.999,106.929-96.935,153.897-186.875,100.933c-4.997-3.997-9.993-9.993-14.99-14.99c3.997,0,10.993,0.999,14.99,1.999
				c57.961,16.989,119.92-17.988,140.906-73.951c6.995-18.987,6.995-36.975,6.995-56.962l0.999-1l-2.998-1.999
				c0-12.991-2.998-20.986-6.995-32.978L1014.324,2039.64z"/>
			<path fill="#74A52F" d="M921.386,2019.653c2.998-12.991,2.998-14.99,6.995-26.982c1.999,10.993,2.998,14.99,6.995,25.983
				c4.997,11.992,5.996,17.988,8.994,30.979l-1.999,0.999c3.997,4.997,9.993,15.99,11.992,17.988h1.999
				c0.999,1.999,1.999,4.997,2.998,5.996h-0.999c-12.991,9.993-12.991,18.987-20.986,29.98
				c-2.998-10.993-1.999-17.988-13.991-17.988c-2.998-3.997-39.973-8.994-47.968-9.993c12.991-1.999,16.989-2.998,28.981-6.995
				l1.999-1.999c-11.992-14.99-13.991-14.99-19.987-34.977c-1.999-8.994-1.999-16.989-2.998-26.982
				c5.996,8.994,5.996,11.992,14.99,22.985C905.396,2023.651,910.393,2022.651,921.386,2019.653z"/>
			<path fill="#3A6610" d="M941.372,2050.633c3.997,4.997,9.993,15.99,11.992,17.988
				C936.376,2087.608,920.386,2064.624,941.372,2050.633z"/>
			<path fill="#F13322" d="M921.386,2019.653c0,8.994-0.999,17.988,0,26.982c-8.994-7.995-13.991-12.991-24.983-17.988
				C905.396,2023.651,910.393,2022.651,921.386,2019.653z"/>
			<path fill="#FE8672" d="M862.425,2077.615h10.993c6.995,1,44.97,5.996,47.968,9.993l-0.999,0.999
				c4.997,16.989,2.998,38.974-12.991,49.967c-7.995,4.997-16.989,6.995-25.983,4.997c-30.979-6.995-23.984-39.973-18.987-61.958v-1
				V2077.615z"/>
			<path fill="#3A6610" d="M862.425,2077.615h10.993c6.995,1,44.97,5.996,47.968,9.993l-0.999,0.999
				c-20.986,1.999-38.974,1-57.961-6.995v-1V2077.615z"/>
			<path fill="#548B11" d="M934.377,2018.654c11.992-1.999,18.987-1.999,30.979,0.999l0,0c4.997,1.999,2.998,1,6.995,6.995
				c3.997-1.999,7.995-3.997,12.991-4.997c-4.997,10.993-10.993,24.983-16.989,34.977c-3.997,2.998-6.995,5.996-10.993,8.994
				l-0.999-1l-1.999,3.997h-1.999c-1.999-2.998-7.995-12.991-11.992-17.988l1.999-0.999
				C940.373,2036.642,939.374,2030.646,934.377,2018.654z"/>
			<path fill="#F13322" d="M934.377,2018.654c11.992-1.999,18.987-1.999,30.979,0.999l0,0c-11.992,10.993-14.99,14.99-22.985,29.98
				C940.373,2036.642,939.374,2030.646,934.377,2018.654z"/>
			<path fill="#91BF36" d="M972.352,2027.648c3.997-1.999,7.995-3.997,12.991-4.997c-4.997,10.993-10.993,24.983-16.989,34.977
				c-3.997,2.998-6.995,5.996-10.993,8.994l-0.999-0.999C958.361,2048.634,962.358,2040.64,972.352,2027.648z"/>
			<path fill="#F13322" d="M985.343,2021.652c9.993,4.997,20.986,9.993,28.981,17.988l-1.999,2.998
				c2.998,11.992,5.996,19.987,6.995,32.978l-7.995-3.997c-13.991-10.993-24.983-12.991-41.972-14.99
				C974.35,2046.635,980.346,2032.645,985.343,2021.652z"/>
			<path fill="#91BF36" d="M956.362,2065.623L956.362,2065.623c4.997-1.999,7.995-4.997,11.992-7.995
				c17.988,0.999,27.981,3.997,41.972,14.99c-16.989-1.999-36.975-1.999-52.965,2.998c-0.999-1-1.999-3.997-2.998-5.996
				L956.362,2065.623z"/>
			<path fill="#3A6610" d="M957.362,2074.617c16.989-4.997,35.976-4.997,52.965-2.998l7.995,3.997l2.998,1.999l-0.999,1
				c-23.984-1.999-43.971,2.998-63.957,1.999v-4.997L957.362,2074.617z"/>
			<path fill="#3A6610" d="M935.376,2105.596c7.995-10.993,7.995-19.987,20.986-29.98v4.997
				c-5.996,9.993-9.993,24.983-15.989,33.977l-1.999,1C935.376,2110.593,935.376,2110.593,935.376,2105.596z"/>
			<path fill="#FAAA89" d="M862.425,2077.615c16.989-11.992,19.987-13.99,39.973-6.995c-11.992,3.997-15.989,4.997-28.981,6.995
				H862.425z"/>
			<path fill="#74A52F" d="M1093.271,1765.823l2.998,10.993c2.998-2.998,1.999-2.998,4.997-2.998
				c8.994,16.989,14.99,27.981,18.987,46.969c12.991,26.982,11.992,46.969,3.997,74.95c-0.999,3.997-2.998,6.995-2.998,9.993
				c-2.998,3.997-21.985,29.98-22.985,31.979c-3.997,0.999-10.993,12.991-16.989,17.988c-11.992,8.994-24.983,14.99-37.975,21.985
				c-6.995,0.999-9.993,1.999-16.989,4.997c-24.983,2.998-57.961,1.999-79.947-6.995c-1.999,0-7.995,0-8.994-1.999
				c-7.995-11.992-7.995-52.965-6.995-65.956c3.997-50.966,21.985-75.949,57.961-107.928c21.985-14.99,37.975-22.985,64.957-28.981
				l7.995-1C1070.286,1766.822,1085.276,1769.82,1093.271,1765.823z"/>
			<path fill="#A7C95A" d="M1093.271,1765.823l2.998,10.993c-7.995,15.989,4.997,29.98,6.995,46.969
				c0.999,7.995,1.999,13.991,1.999,21.985c-6.995-13.991-12.991-32.978-22.985-43.971h-1.999
				c-5.996,20.986,19.987,54.963-2.998,97.935c0-16.989-3.997-59.96-19.987-67.955c-5.996,3.997-3.997,24.983-2.998,31.979
				c3.997,32.978-2.998,51.965-26.982,75.949c9.993-28.981,9.993-40.973-3.997-68.954c-3.997,23.984-2.998,44.97-24.983,60.959
				c-4.997,2.998-7.995,4.997-13.991,5.996c-4.997-1.999-2.998,0-5.996-4.997c-0.999-7.995,2.998-13.991,5.996-20.986
				c-6.995,5.996-28.981,22.985-36.975,24.983c-3.997-3.997-2.998-9.993-2.998-14.99c1.999-24.983,33.977-29.98,52.965-33.977
				c4.997-4.997,9.993-8.994,11.992-14.99l-0.999-1.999c-14.99-1.999-55.963,23.984-60.959,21.985
				c-0.999-6.995,0.999-11.992,5.996-16.989c19.987-20.986,39.973-25.983,66.955-17.988c3.997,0.999,26.982-31.979,29.98-35.976
				c-13.991,3.997-25.983,4.997-38.974,7.995c-11.992,2.998-24.983,5.996-35.976,9.993l-0.999-0.999
				c1.999-5.996,15.989-14.99,22.985-17.988c21.985-10.993,40.973-8.994,63.957-9.993c3.997-5.996,10.993-13.991,13.991-20.986
				c-10.993,0-44.97,6.995-60.959,7.995c13.991-6.995,47.968-19.987,61.959-9.993c4.997-4.997,10.993-11.992,14.99-17.988
				l-28.981,0.999C1070.286,1766.822,1085.276,1769.82,1093.271,1765.823L1093.271,1765.823z"/>
			<path fill="#FEC150" d="M1120.253,1820.786c12.991,26.982,11.992,46.969,3.997,74.95c-0.999,3.997-2.998,6.995-2.998,9.993
				c-2.998,3.997-21.985,29.98-22.985,31.979c-3.997,0.999-10.993,12.991-16.989,17.988c-11.992,8.994-24.983,14.99-37.975,21.985
				c-6.995,0.999-9.993,1.999-16.989,4.997c-24.983,2.998-57.961,1.999-79.947-6.995
				C1036.309,1975.683,1129.247,1926.715,1120.253,1820.786z"/>
			
				<linearGradient id="SVGID_00000003083942297278464660000017943816663362124688_" gradientUnits="userSpaceOnUse" x1="748.7241" y1="2415.0098" x2="775.8969" y2="2583.0027" gradientTransform="matrix(1 0 0 1 0 -778)">
				<stop  offset="0" style="stop-color:#70A911"/>
				<stop  offset="1" style="stop-color:#598915"/>
			</linearGradient>
			<path fill="url(#SVGID_00000003083942297278464660000017943816663362124688_)" d="M655.563,1672.885
				c38.974-25.983,73.951-42.971,121.919-32.978c56.962,11.992,86.942,48.967,101.932,102.931l-3.997,3.997
				c-1.999,3.997-2.998,2.998-7.995,4.997c4.997,2.998,5.996,1.999,7.995,5.996l-0.999,0.999c-4.997,3.997-10.993,9.993-14.99,14.99
				c-47.968,53.964-113.924,30.979-163.891-3.997c-20.986-21.985-29.98-35.976-43.971-62.958
				c-2.998-6.995-5.996-15.989-8.994-23.984L655.563,1672.885z"/>
			<path fill="#A7C95A" d="M745.503,1649.9c18.987,0.999,42.971,6.995,53.964,24.983c8.994,14.99,5.996,28.981,9.993,44.97v1.999
				c8.994,7.995,27.981,11.992,39.973,14.99c-14.99-33.977-19.987-44.97-41.972-73.951c31.979,17.988,45.969,39.973,48.967,76.949
				c6.995,1.999,12.991,4.997,19.987,6.995c-1.999,3.997-2.998,2.998-7.995,4.997c-7.995-3.997-19.987-6.995-27.981-9.993
				c-24.983,15.989-62.958,42.971-94.937,37.975l-0.999-1.999c34.977-8.994,48.967-14.99,73.951-42.971
				c-6.995-2.998-9.993-3.997-17.988-5.996c-5.996-1.999-10.993-2.998-16.989,0c-34.977,19.987-75.949,42.971-105.929,0
				c12.991,0,47.968,0,52.965-15.989c-5.996-12.991-45.969-13.991-48.967-29.98c5.996-9.993,22.985-11.992,31.979-4.997
				c6.995,4.997,5.996,13.991,7.995,21.985c4.997,3.997,14.99,4.997,20.986,6.995c-9.993-25.983-13.991-31.979-36.975-44.97
				l1.999-1.999c22.985-5.996,40.973,1.999,56.962,17.988c-3.997,7.995-12.991,20.986-17.988,27.981
				c15.989,6.995,33.977,11.992,51.965,14.99C786.476,1680.879,777.482,1670.886,745.503,1649.9z"/>
			<path fill="#91BF36" d="M840.44,1757.828l1.999,0.999v3.997c-5.996,7.995-15.989,12.991-24.983,16.989l-2.998-1
				C816.456,1775.816,835.443,1761.825,840.44,1757.828z"/>
			<path fill="#F13322" d="M560.626,1563.957c9.993,3.997,21.985,7.995,29.98,14.99c-0.999,8.994,5.996,22.985,6.995,33.977
				c7.995,68.954-54.963,133.911-122.918,134.91c-8.994,0-37.975-6.995-41.972-5.996c-21.985-17.988-29.98-61.959-25.983-88.941
				c3.997-16.989,5.996-23.984,14.99-38.974c6.995,4.997,11.992,4.997,18.987,7.995c22.985,6.995,28.981,8.994,52.965,10.993
				l2.998,15.99c0.999-1.999,21.985-21.985,25.983-25.983l-0.999-5.996l2.998-3.997l1.999,0.999
				c3.997-3.997,5.996-5.996,10.993-7.995C546.635,1589.94,552.631,1577.948,560.626,1563.957z"/>
			<path fill="#FE8672" d="M442.705,1621.919c22.985,6.995,28.981,8.994,52.965,10.993l2.998,15.99l1.999,8.994
				c-1.999,21.985-26.982,31.979-45.969,21.985c-7.995-3.997-14.99-11.992-16.989-19.987
				C432.711,1645.903,436.709,1633.911,442.705,1621.919z"/>
			<path fill="#91BF36" d="M525.649,1611.925l1.999,0.999c3.997-3.997,5.996-5.996,10.993-7.995
				c12.991,2.998,31.979,11.992,41.972,21.985c-20.986-7.995-34.977-5.996-56.962-4.997l-0.999-5.996L525.649,1611.925z"/>
			<path fill="#3A6610" d="M523.651,1621.919c21.985-0.999,35.976-2.998,56.962,4.997c-2.998,1.999-51.965,1.999-58.961,0.999
				c-4.997,7.995-14.99,21.985-21.985,28.981l-1.999-8.994C498.668,1645.903,519.654,1625.916,523.651,1621.919z"/>
			<path fill="#E3231C" d="M590.606,1577.948c22.985,16.989,32.978,31.979,44.97,57.961c1.999,11.992,4.997,21.985,3.997,33.977
				c-3.997,100.933-112.925,138.907-190.873,84.943c-2.998-1.999-4.997-3.997-7.995-5.996l-6.995-7.995
				c3.997-0.999,32.978,5.996,41.972,5.996c67.955-0.999,129.913-65.956,122.918-134.91
				C597.602,1601.932,590.606,1587.941,590.606,1577.948L590.606,1577.948z"/>
			<path fill="#F13322" d="M1063.291,2217.521c29.98-35.976,69.953-43.971,111.925-24.983c17.988,14.99,22.985,23.984,2.998,40.973
				c-47.968,12.991-61.959-10.993-102.931,9.993C1057.295,2242.505,1057.295,2230.513,1063.291,2217.521z"/>
			<path fill="#FEC150" d="M635.576,1636.909c12.991,14.99,12.991,24.983,19.987,35.976l-13.991,9.993
				c2.998,7.995,5.996,15.99,8.994,23.984c-2.998,10.993-4.997,21.985-8.994,32.978c-30.979,82.945-153.897,81.945-198.867,13.991
				c-0.999-0.999-0.999-1.999-1.999-3.997c2.998,1.999,4.997,3.997,7.995,5.996c77.948,54.963,186.875,15.989,190.873-84.943
				C640.573,1658.894,637.575,1647.901,635.576,1636.909z"/>
			
				<linearGradient id="SVGID_00000128470954722722809180000014141181152323486116_" gradientUnits="userSpaceOnUse" x1="443.5103" y1="2397.7207" x2="518.4863" y2="2335.5652" gradientTransform="matrix(1 0 0 1 0 -778)">
				<stop  offset="0" style="stop-color:#4F9106"/>
				<stop  offset="1" style="stop-color:#75AE21"/>
			</linearGradient>
			<path fill="url(#SVGID_00000128470954722722809180000014141181152323486116_)" d="M493.671,1521.985
				c0.999,17.988,2.998,24.983,9.993,40.973c4.997,10.993,5.996,17.988,8.994,29.98v1.999c0.999,7.995,4.997,14.99,8.994,22.985
				l1.999-0.999l0.999,5.996c-3.997,4.997-24.983,24.983-25.983,25.983l-2.998-15.99c-23.984-1.999-29.98-3.997-52.965-10.993
				c-6.995-2.998-11.992-3.997-18.987-7.995l-5.996-3.997h8.994c7.995-9.993,13.991-15.99,23.984-24.983
				c-7.995-12.991-8.994-21.985-10.993-36.975c6.995,11.992,11.992,20.986,23.984,27.981l21.985-8.994
				C486.675,1548.967,487.675,1538.974,493.671,1521.985z"/>
			<path fill="#F13322" d="M449.7,1583.944c10.993,19.987,11.992,14.99,24.983,26.982c-14.99-0.999-35.976,0-47.968-1.999
				C433.711,1598.934,439.707,1592.938,449.7,1583.944L449.7,1583.944z"/>
			<path fill="#3A6610" d="M511.659,1592.938v1.999c0.999,7.995,4.997,14.99,8.994,22.985c-6.995,3.997-14.99,8.994-19.987,0.999
				c0-4.997,0-10.993,3.997-14.99C509.66,1598.934,508.661,1596.935,511.659,1592.938z"/>
			<path fill="#F13322" d="M462.691,1574.95l21.985-8.994c0,11.992,0.999,15.99,3.997,27.981
				C480.68,1587.941,470.686,1578.947,462.691,1574.95z"/>
			<path fill="#FE7507" d="M592.605,2097.602c84.943,19.987,39.973,116.922-20.986,58.96
				C553.631,2128.581,554.63,2102.598,592.605,2097.602z"/>
			<path fill="#F13322" d="M919.387,1738.841c4.997-0.999,8.994,0,13.991,0.999c0,2.998,0.999,5.996,0.999,7.995
				c-3.997,6.995-7.995,12.991-10.993,20.986l-0.999,2.998c-18.987,32.978-38.974,73.951-55.963,106.929
				c-6.995,12.991-13.991,25.983-20.986,38.974c-4.997,10.993-24.983,50.966-30.979,58.961l-7.995-7.995
				c5.996-7.995,23.984-44.97,28.981-55.963c6.995-13.991,13.991-27.981,19.987-41.972l32.978-67.955
				c5.996-11.992,15.989-29.98,19.987-41.972C913.391,1753.831,918.388,1743.837,919.387,1738.841z"/>
			<path fill="#FEC150" d="M874.417,1757.828l0.999,0.999c-0.999,3.997-0.999,2.998,0,5.996
				c4.997,20.986-18.987,41.972-34.977,49.967c-40.973,20.986-88.941,5.996-122.918-19.987
				c-5.996-3.997-21.985-18.987-23.984-24.983c48.967,34.977,114.923,57.961,163.891,3.997c3.997-4.997,9.993-9.993,14.99-14.99
				L874.417,1757.828z"/>
			<path fill="#FE7507" d="M431.712,1768.821c42.971,14.99,41.972,73.951-4.997,66.955c-0.999,0-0.999-0.999-1.999-0.999
				c-16.989-10.993-27.981-34.977-15.989-54.963C413.724,1771.819,422.718,1770.819,431.712,1768.821z"/>
			<path fill="#FEC150" d="M847.435,1396.069c20.986,32.978,5.996,110.926-22.985,136.909c-4.997,3.997-12.991,11.992-15.989,15.989
				c-7.995-4.997-14.99-8.994-22.985-13.991c11.992-6.995,23.984-15.989,32.978-26.982
				C847.435,1475.017,849.434,1438.041,847.435,1396.069z"/>
			<path fill="#548B11" d="M558.628,1548.967l2.998,3.997c-0.999,2.998-0.999,2.998-2.998,5.996h3.997l-0.999,4.997
				c-8.994,13.991-14.99,25.983-21.985,40.973c-4.997,2.998-6.995,4.997-10.993,7.995l-1.999-0.999l-2.998,3.997l-1.999,0.999
				c-2.998-6.995-6.995-14.99-8.994-22.985v-1.999c-1.999-11.992-3.997-18.987-8.994-29.98c14.99-1.999,21.985-1.999,36.975-1.999
				C546.635,1555.963,551.632,1552.965,558.628,1548.967L558.628,1548.967z"/>
			<path fill="#F13322" d="M502.665,1561.959c14.99-1.999,21.985-1.999,36.975-1.999c-9.993,8.994-22.985,29.98-27.981,33.977
				v-1.999C508.661,1580.946,507.661,1573.951,502.665,1561.959z"/>
			<path fill="#A7C95A" d="M558.628,1558.961h3.997l-0.999,4.997c-8.994,13.991-14.99,25.983-21.985,40.973
				c-4.997,2.998-6.995,4.997-10.993,7.995l-1.999-0.999C532.645,1589.94,539.64,1572.951,558.628,1558.961z"/>
			<path fill="#FEC150" d="M633.578,1517.988c32.978,25.983,55.963,33.977,98.934,31.979c3.997,6.995,7.995,12.991,11.992,19.987
				c-18.987,0.999-37.975-0.999-55.963-6.995C665.556,1554.963,645.57,1540.973,633.578,1517.988z"/>
			<path fill="#FEC624" d="M836.442,1911.725c-25.983-31.979-11.992-83.944,19.987-41.972
				C849.434,1883.744,843.438,1897.735,836.442,1911.725z"/>
			<path fill="#FEC624" d="M866.422,1877.748c8.994,2.998,13.991,5.996,17.988,14.99c1.999,4.997,1.999,10.993,0,15.989
				c-6.995,14.99-25.983,14.99-38.974,7.995C853.431,1904.73,859.427,1891.739,866.422,1877.748z"/>
			<path fill="#FEC624" d="M1024.317,1983.677c5.996-2.998,9.993-2.998,16.989-4.997c4.997,4.997,7.995,7.995,7.995,15.989
				c0,3.997-1.999,7.995-3.997,10.993c-6.995,6.995-17.988,8.994-25.983,1.999
				C1013.324,1998.667,1018.321,1990.673,1024.317,1983.677z"/>
			<path fill="#FEC624" d="M676.549,2221.519c-5.996-3.997-15.989-14.99-15.989-22.985c3.997-6.995,14.99-8.994,22.985-11.992
				c-8.994,12.991-12.991,21.985,1.999,32.978L676.549,2221.519z"/>
			<path fill="#FFF7D0" d="M801.466,2002.665c-1.999-3.997-0.999-29.98,0.999-35.976l2.998-0.999l1.999,1.999l7.995,7.995
				c1.999,3.997,1.999,4.997,4.997,8.994C808.461,1989.673,807.462,1991.672,801.466,2002.665L801.466,2002.665z"/>
			<path fill="#91BF36" d="M879.414,1741.839c3.997,6.995,13.991,3.997,19.987,16.989l-0.999,1.999
				c-8.994,2.998-12.991,0-21.985-2.998l-0.999-0.999c-1.999-4.997-2.998-3.997-7.995-5.996c4.997-1.999,5.996-0.999,7.995-4.997
				L879.414,1741.839z"/>
			<path fill="#74A52F" d="M1003.331,1998.667c-4.997,5.996-13.991,16.989-16.989,22.985c-4.997,1.999-7.995,2.998-12.991,4.997
				c-2.998-6.995-1.999-4.997-6.995-6.995l0,0C978.348,2012.658,990.34,2004.663,1003.331,1998.667z"/>
			<path fill="#FEEEE2" d="M801.466,2002.665c5.996-10.993,6.995-12.991,17.988-17.988
				C823.451,1997.668,816.456,2012.658,801.466,2002.665z"/>
			<path fill="#74A52F" d="M558.628,1548.967c10.993-4.997,17.988-6.995,28.981-10.993c-10.993,7.995-14.99,10.993-25.983,20.986
				h-3.997c1.999-1.999,2.998-2.998,2.998-5.996L558.628,1548.967z"/>
			<path fill="#F13322" d="M524.65,1942.705c-6.995-5.996-2.998-14.99-1.999-22.985c5.996-53.964,76.949-112.925,131.912-101.932
				c0,0.999,0,0.999,0,1.999l-9.993,1.999c43.971,0,68.954,6.995,102.931,37.975c4.997,4.997,17.988,19.987,19.987,26.982
				c9.993,12.991,14.99,25.983,20.986,40.973c10.993,11.992,11.992,53.964,10.993,69.953c-2.998,32.978-17.988,62.958-43.971,83.944
				c-25.983,21.985-59.96,31.979-93.937,28.981c-33.977-3.997-65.956-20.986-86.942-47.968c-0.999-1.999-1.999-1.999-1.999-3.997
				c0-0.999-5.996-7.995-6.995-8.994c0,0-0.999,0-0.999-0.999C536.642,2017.655,525.649,1981.679,524.65,1942.705z"/>
			<path fill="#FEC150" d="M788.474,1927.715c10.993,11.992,11.992,53.964,10.993,69.953c-2.998,32.978-17.988,62.958-43.971,83.944
				c-25.983,21.985-59.96,31.979-93.937,28.981c-33.977-3.997-65.956-20.986-86.942-47.968c-0.999-1.999-1.999-1.999-1.999-3.997
				h0.999c32.978,24.983,63.957,37.975,105.929,30.979c35.976-5.996,67.955-24.983,89.94-53.964
				C794.47,2000.666,794.47,1967.688,788.474,1927.715z"/>
			<path fill="#E3231C" d="M767.488,1886.742c9.993,12.991,14.99,25.983,20.986,40.973c5.996,39.973,5.996,73.951-18.987,108.927
				c-21.985,28.981-53.964,48.967-89.94,53.964c-41.972,5.996-72.951-6.995-105.929-30.979h-0.999c0-1-5.996-7.995-6.995-8.994
				c4.997,0,25.983,17.988,38.974,21.985c19.987,5.996,18.987,7.995,41.972,7.995c37.975,1,74.95-13.99,101.932-39.973
				c36.975-36.975,42.971-89.94,24.983-136.909C770.486,1896.735,767.488,1892.738,767.488,1886.742L767.488,1886.742z"/>
			<path fill="#FFF7D0" d="M524.65,1942.705c-6.995-5.996-2.998-14.99-1.999-22.985c5.996-53.964,76.949-112.925,131.912-101.932
				c0,0.999,0,0.999,0,1.999l-9.993,1.999c-37.975,4.997-66.955,17.988-90.939,48.967
				C537.641,1892.738,527.648,1916.722,524.65,1942.705z"/>
			<path fill="#FE8672" d="M707.528,1915.723c5.996-2.998,8.994-7.995,14.99-7.995c3.997,0.999,14.99,3.997,17.988,1.999
				l2.998,1.999v1.999c0.999,6.995,1.999,13.991-4.997,17.988c-6.995,9.993-6.995,11.992-18.987,13.991
				c-10.993-2.998-21.985-9.993-19.987-22.985C702.531,1917.721,702.531,1917.721,707.528,1915.723L707.528,1915.723z"/>
			<path fill="#FB604B" d="M722.518,1907.728c3.997,0.999,14.99,3.997,17.988,1.999l2.998,1.999v1.999
				c0.999,6.995,1.999,13.991-4.997,17.988l-4.997-0.999C729.514,1925.716,724.517,1913.724,722.518,1907.728z"/>
			<path fill="#FB604B" d="M719.52,1944.703c-10.993-2.998-21.985-9.993-19.987-22.985c2.998-3.997,2.998-3.997,7.995-5.996
				C703.531,1927.715,712.525,1935.709,719.52,1944.703z"/>
			<path fill="#E3231C" d="M623.584,1849.767c4.997,0,5.996,0,9.993,0.999c7.995,6.995-0.999,9.993-0.999,18.987
				c0,1.999,2.998,10.993,3.997,14.99c-1.999,5.996-3.997,6.995-7.995,10.993C603.597,1891.739,603.597,1863.757,623.584,1849.767z"
				/>
			<path fill="#F13322" d="M682.545,1994.67c26.982-0.999,29.98,21.985,3.997,28.981c-10.993,0-19.987-2.998-22.985-14.99
				C665.556,1996.669,673.551,1995.669,682.545,1994.67z"/>
			<path fill="#FE8672" d="M608.594,1935.709c16.989,2.998,28.981,30.979,6.995,40.973
				C590.606,1973.684,594.604,1949.7,608.594,1935.709z"/>
			<path fill="#FE8672" d="M656.562,2033.644c8.994,0,18.987-1.999,23.984,6.995c-0.999,10.993-12.991,14.99-21.985,18.987
				c-6.995,0-15.989-1-21.985-4.997c-2.998-4.997-1.999-2.998-0.999-7.995C640.573,2037.641,647.568,2036.642,656.562,2033.644z"/>
			<path fill="#FE8672" d="M681.545,1955.696c7.995-0.999,13.991,0,18.987,7.995c2.998,14.99-8.994,18.987-20.986,19.987
				c-6.995-0.999-15.989-3.997-18.987-11.992C661.559,1961.692,672.552,1958.694,681.545,1955.696z"/>
			<path fill="#FE8672" d="M586.609,1913.724c-26.982-5.996-22.985-42.971,0-34.977c4.997,1.999,8.994,4.997,10.993,9.993
				c2.998,6.995,1.999,10.993-0.999,17.988L586.609,1913.724z"/>
			<path fill="#E3231C" d="M645.57,1983.677c7.995,0.999,11.992,1.999,15.989,8.994c1.999,10.993-5.996,14.99-13.991,17.988
				c-6.995-0.999-12.991-1.999-16.989-8.994C629.58,1989.673,635.576,1987.675,645.57,1983.677z"/>
			<path fill="#E3231C" d="M564.623,1923.717c20.986-0.999,17.988,18.987,7.995,31.979
				C554.63,1954.697,552.631,1935.709,564.623,1923.717z"/>
			<path fill="#E3231C" d="M596.602,1905.729c33.977,1.999,4.997,37.975-10.993,22.985c-1.999-6.995-1.999-8.994,0.999-14.99
				L596.602,1905.729z"/>
			<path fill="#E3231C" d="M721.519,1975.683c2.998,1,5.996,1.999,8.994,3.997c10.993,8.994,3.997,19.987-3.997,27.981
				C708.528,2001.666,705.529,1987.675,721.519,1975.683z"/>
			<path fill="#FE8672" d="M681.545,1848.767c6.995,0,13.991,0,14.99,7.995c-3.997,8.994-7.995,8.994-16.989,12.991
				c-6.995,0-9.993,0-15.989-3.997C660.56,1855.763,673.551,1851.765,681.545,1848.767L681.545,1848.767z"/>
			<path fill="#E3231C" d="M709.527,1869.754c9.993,0.999,14.99,2.998,14.99,12.991c-1.999,4.997-3.997,5.996-7.995,8.994
				C700.533,1892.738,697.535,1880.746,709.527,1869.754z"/>
			<path fill="#FE8672" d="M740.506,1909.727c-0.999-7.995,0-13.991,8.994-15.989c9.993,2.998,15.989,16.989,5.996,22.985
				c-4.997,0-6.995-0.999-11.992-4.997v-1.999H740.506z"/>
			<path fill="#FE8672" d="M564.623,1979.68c1.999,0.999,3.997,1.999,5.996,2.998c9.993,5.996,13.991,10.993,6.995,20.986
				C565.623,2000.666,557.628,1992.671,564.623,1979.68z"/>
			<path fill="#FE8672" d="M607.595,2011.659c6.995,0.999,12.991,1.999,16.989,8.994c0.999,5.996,0.999,3.997-2.998,10.993
				c-6.995-0.999-12.991-1.999-15.989-8.994C604.597,2015.656,604.597,2018.654,607.595,2011.659z"/>
			<path fill="#FE8672" d="M713.524,2021.652c2.998-0.999,6.995-0.999,8.994,0.999c2.998,1.999,3.997,4.997,3.997,8.994
				c0,2.998-2.998,5.996-5.996,6.995c-4.997,1.999-9.993,0-11.992-4.997C707.528,2029.647,709.527,2024.65,713.524,2021.652z"/>
			<path fill="#FE8672" d="M749.5,1954.697c2.998,0,3.997,0.999,5.996,1.999c6.995,6.995,3.997,14.99-0.999,21.985
				C741.505,1972.685,742.505,1964.69,749.5,1954.697z"/>
			<path fill="#FE8672" d="M632.578,1915.723c6.995,0.999,10.993,1.999,14.99,7.995c0,5.996,0.999,3.997-2.998,9.993
				C632.578,1932.711,629.58,1925.716,632.578,1915.723z"/>
			<path fill="#FEC624" d="M870.42,1488.008c3.997,0.999,4.997,0.999,8.994,2.998c8.994,9.993,5.996,34.977-2.998,45.969
				c-5.996,1.999-4.997,1.999-11.992,0.999c-3.997-1.999-11.992-4.997-12.991-8.994
				C843.438,1513.991,858.428,1495.003,870.42,1488.008z"/>
			<path fill="#FEC624" d="M521.652,1423.051c21.985,3.997,35.976,33.977,12.991,43.971
				C510.659,1461.026,499.667,1437.042,521.652,1423.051z"/>
			<path fill="#FEC624" d="M678.548,2131.579c20.986-0.999,52.965,11.992,21.985,27.981c-13.991,1-41.972-4.997-33.977-22.985
				C671.552,2133.577,673.551,2133.577,678.548,2131.579z"/>
			<path fill="#FEC624" d="M662.558,1585.943c22.985-1.999,50.966,16.989,22.985,29.98c-13.991,0.999-36.975-4.997-33.977-21.985
				C654.563,1588.941,656.562,1587.941,662.558,1585.943z"/>
			<path fill="#FEC624" d="M540.64,1496.003c19.987-1.999,48.967,10.993,22.985,27.981
				C541.639,1526.982,517.655,1515.989,540.64,1496.003z"/>
			<path fill="#FEC624" d="M1100.266,2128.581c11.992-0.999,31.979,1,33.977,15.99c-1.999,4.997-2.998,4.997-7.995,7.995
				C1109.26,2156.562,1080.28,2148.567,1100.266,2128.581z"/>
			<path fill="#FEC624" d="M753.498,2111.592c4.997-1.999,10.993-1.999,14.99,1.999c4.997,2.998,6.995,8.994,5.996,13.991
				c-0.999,5.996-3.997,9.993-8.994,11.992c-7.995,2.998-16.989,0-19.987-7.995C742.505,2123.584,746.502,2114.59,753.498,2111.592z
				"/>
			<path fill="#FEC624" d="M495.669,2010.659c17.988,1.999,31.979,15.989,16.989,31.979
				C493.671,2042.638,480.68,2025.65,495.669,2010.659z"/>
			<path fill="#FEC624" d="M633.578,2202.531c14.99,1,36.975,11.992,24.983,28.981
				C643.571,2232.511,623.584,2220.52,633.578,2202.531z"/>
			<path fill="#FEEEE2" d="M485.676,1827.781c17.988,0.999,22.985,17.988,6.995,28.981
				C476.682,1857.761,474.684,1839.774,485.676,1827.781z"/>
			<path fill="#FEEEE2" d="M865.423,1960.693c13.991,2.998,11.992,14.99,2.998,23.984c-3.997,0-3.997,0-6.995-1.999
				C854.43,1972.685,857.428,1967.688,865.423,1960.693L865.423,1960.693z"/>
			<path fill="#FEEEE2" d="M705.529,1256.162c4.997-0.999,9.993,1.999,10.993,6.995c0.999,4.997-0.999,9.993-5.996,11.992
				c-2.998,0.999-6.995,0-9.993-1.999c-2.998-1.999-3.997-5.996-2.998-9.993C698.534,1259.161,701.532,1257.162,705.529,1256.162z"
				/>
			<path fill="#FFF7D0" d="M618.588,1792.805c7.995,0,10.993-0.999,13.991,6.995c-0.999,4.997-2.998,5.996-6.995,9.993
				c-1.999,0-4.997,0-6.995,0c-3.997-2.998-2.998-0.999-4.997-5.996C613.591,1797.801,615.589,1796.802,618.588,1792.805z"/>
			<path fill="#FEC624" d="M915.39,1812.791c4.997,0.999,6.995,1.999,8.994,6.995c0,4.997-2.998,7.995-5.996,11.992h-4.997
				C905.396,1826.782,911.392,1819.787,915.39,1812.791L915.39,1812.791z"/>
			<path fill="#FEE67A" d="M1294.137,1540.973c68.954-25.983,150.899-2.998,178.881,69.953c4.997,8.994,6.995,14.99,10.993,24.983
				c5.996,6.995,10.993,15.989,10.993,24.983l-1.999,0.999c0.999,5.996,1.999,13.991,3.997,19.987
				c-0.999,10.993-1.999,16.989,1.999,27.981c-11.992,25.983-20.986,43.971-32.978,68.954l-1.999,4.997
				c-1.999,6.995-1.999,3.997,0.999,10.993c-5.996,1.999-9.993,0.999-12.991,3.997c-6.995,9.993-1.999,11.992-3.997,21.985
				c-12.991,3.997-17.988,5.996-29.98,12.991c-41.972,25.983-48.967,99.933-1.999,123.917c0.999,0.999,1.999,0.999,3.997,1.999
				c10.993,10.993,12.991,23.984,0,33.977c-17.988,12.991-43.971,30.979-63.957,39.973c3.997-25.983,3.997-35.976,0-61.959
				c-15.99-92.938-121.919-137.908-201.865-90.939c-13.991,7.995-21.985,14.99-33.977,25.983c0-3.997,1.999-6.995,2.998-9.993
				c8.994-27.981,9.993-48.967-3.997-74.95c-3.997-18.987-9.993-28.981-18.987-46.969c-2.998,0-1.999,0-4.997,2.998l-2.998-10.993
				c-7.995,3.997-21.985,0-33.977,2.998l-7.995,1c18.987-32.978-2.998-44.97-27.981-62.958c0-13.991-1.999-21.985-5.996-35.976
				c47.968-38.974,99.933-77.948,148.901-116.922c19.987,10.993,58.961,9.993,79.947,2.998c6.995-1.999,21.985-6.995,28.981-6.995
				C1280.146,1547.968,1287.142,1544.97,1294.137,1540.973L1294.137,1540.973z"/>
			<path fill="#F13322" d="M1294.137,1540.973c68.954-25.983,150.899-2.998,178.881,69.953c4.997,8.994,6.995,14.99,10.993,24.983
				c5.996,6.995,10.993,15.989,10.993,24.983l-1.999,0.999c0.999,5.996,1.999,13.991,3.997,19.987
				c-0.999,10.993-1.999,16.989,1.999,27.981c-11.992,25.983-20.986,43.971-32.978,68.954c-0.999,0-0.999,0-1.999-0.999
				c-14.99,11.992-26.982,21.985-44.97,28.981c-35.976,12.991-75.95,12.991-110.926-2.998c-21.985-9.993-47.968-29.98-55.963-53.964
				l-5.996-8.994l-0.999-1c-35.976-53.964-36.975-125.916,11.992-173.884c5.996-5.996,10.993-9.993,16.989-14.99
				C1280.146,1547.968,1287.142,1544.97,1294.137,1540.973L1294.137,1540.973z"/>
			<path fill="#FEC150" d="M1484.01,1634.91c5.996,6.995,10.993,15.989,10.993,24.983l-1.999,0.999
				c0.999,5.996,1.999,13.991,3.997,19.987c-0.999,10.993-1.999,16.989,1.999,27.981c-11.992,25.983-20.986,43.971-32.978,68.954
				c-0.999,0-0.999,0-1.999-0.999c-14.99,11.992-26.982,21.985-44.97,28.981c-35.976,12.991-75.95,12.991-110.926-2.998
				c-21.985-9.993-47.968-29.98-55.963-53.964c6.995,5.996,10.993,10.993,18.987,15.989c30.979,22.985,68.954,31.979,105.929,25.983
				c33.977-4.997,64.957-23.984,84.943-51.965C1486.009,1709.86,1490.006,1672.885,1484.01,1634.91L1484.01,1634.91z"/>
			<path fill="#E3231C" d="M1473.018,1609.927c4.997,8.994,6.995,14.99,10.993,24.983c5.996,38.974,1.999,74.95-21.985,106.929
				c-19.987,27.981-50.966,46.969-84.943,51.965c-37.975,5.996-75.949-3.997-105.929-25.983
				c-6.995-5.996-11.992-9.993-18.987-15.989l-5.996-8.994c4.997,0,42.971,30.979,55.963,31.979
				c5.996,0.999,22.985,4.997,31.979,5.996c34.977,2.998,69.953-8.994,95.936-31.979c35.976-30.979,49.967-75.949,43.971-120.919
				C1473.018,1621.919,1473.018,1615.923,1473.018,1609.927L1473.018,1609.927z"/>
			<path fill="#E3231C" d="M1355.096,1749.833c-2.998-0.999-11.992-0.999-14.99-0.999c-48.967-1.999-81.945-35.976-89.94-84.943
				c-4.997-36.975,20.986-78.947,53.964-93.937c6.995-2.998,17.988-7.995,24.983-1.999c4.997,3.997,3.997,15.989,3.997,22.985
				c1.999-7.995,3.997-16.989,10.993-21.985c14.99-2.998,14.99,25.983,16.989,34.977c2.998-13.991-1.999-42.971,20.986-36.975
				c19.987,4.997,41.972,22.985,51.965,39.973c11.992,18.987,7.995,39.973,5.996,60.959l1.999,0.999
				c0.999,18.987-8.994,40.973-19.987,55.963C1412.058,1737.841,1370.087,1761.825,1355.096,1749.833L1355.096,1749.833z"/>
			
				<linearGradient id="SVGID_00000050632493125275492960000014118953962650906810_" gradientUnits="userSpaceOnUse" x1="1390.5403" y1="2487.0847" x2="1303.7853" y2="2382.9302" gradientTransform="matrix(1 0 0 1 0 -778)">
				<stop  offset="0" style="stop-color:#FFA730"/>
				<stop  offset="1" style="stop-color:#FE913E"/>
			</linearGradient>
			<path fill="url(#SVGID_00000050632493125275492960000014118953962650906810_)" d="M1333.111,1590.939
				c1.999-7.995,3.997-16.989,10.993-21.985c14.99-2.998,14.99,25.983,16.989,34.977c-0.999,8.994-2.998,16.989,1.999,24.983
				c17.988,9.993,51.965-30.979,62.958-9.993c-4.997,12.991-43.971,17.988-44.97,32.978c7.995,8.994,28.981,3.997,42.971,13.991
				c2.998,3.997,1.999,2.998,1,6.995c-9.993,5.996-31.979-8.994-44.97-3.997c-3.997,4.997-2.998,2.998-2.998,9.993
				c-2.998,2.998-1.999,1.999-7.995,2.998c-2.998,8.994,16.989,30.979,7.995,43.971c-9.993-3.997-12.991-28.981-23.984-35.976
				c-11.992,3.997-2.998,41.972-16.989,44.97c-13.991-12.991,6.995-48.967-10.993-54.963c-15.989,2.998-33.977,29.98-46.969,26.982
				c-3.997-3.997-2.998-1.999-3.997-7.995c3.997-15.989,34.977-19.987,36.975-31.979c-10.993-8.994-46.969,0-49.967-12.991
				c7.995-13.991,40.973,2.998,53.964-6.995c0.999-3.997-1.999-7.995-3.997-12.991l1.999-1.999
				c7.995-2.998,9.993,0.999,15.989-0.999C1335.11,1622.918,1333.111,1599.933,1333.111,1590.939L1333.111,1590.939z"/>
			<path fill="#FB604B" d="M1441.039,1667.888l1.999,0.999c0.999,18.987-8.994,40.973-19.987,55.963
				c-9.993,13.991-51.965,36.975-67.955,24.983C1405.063,1736.842,1431.046,1720.853,1441.039,1667.888L1441.039,1667.888z"/>
			<path fill="#FEC150" d="M1305.13,1592.938c9.993,2.998,16.989,21.985,15.989,30.979
				C1309.127,1618.921,1298.135,1606.929,1305.13,1592.938z"/>
			<path fill="#FEC150" d="M1384.077,1679.88c11.992,0,25.983,5.996,28.981,18.987
				C1399.067,1700.866,1389.074,1692.871,1384.077,1679.88z"/>
			<path fill="#FEC150" d="M1273.151,1616.922c11.992-0.999,25.983,4.997,28.981,16.989
				C1290.14,1632.911,1274.151,1632.911,1273.151,1616.922z"/>
			<path fill="#FEC150" d="M1416.056,1640.906c6.995,0,9.993,0.999,11.992,6.995c-1.999,4.997-1.999,2.998-6.995,5.996
				c-1.999,0-2.998-0.999-4.997-0.999c-4.997-0.999-7.995-1.999-10.993-5.996C1409.06,1642.905,1411.059,1642.905,1416.056,1640.906
				z"/>
			<path fill="#FEC150" d="M1393.071,1590.939c3.997,2.998,2.998,0.999,4.997,4.997c-0.999,7.995-6.995,11.992-13.991,16.989h-1.999
				l-1.999-0.999C1382.078,1602.931,1388.074,1595.936,1393.071,1590.939L1393.071,1590.939z"/>
			<path fill="#91BF36" d="M1093.271,1765.823c3.997-6.995,12.991-23.984,21.985-17.988c1.999,8.994-7.995,21.985-13.991,25.983
				c-2.998,0-1.999,0-4.997,2.998L1093.271,1765.823z"/>
			<path fill="#FEC624" d="M1119.254,1626.915c53.964-0.999,53.964,60.959,12.991,80.946c-20.986,1.999-37.975-4.997-42.971-25.983
				C1084.277,1653.897,1090.273,1632.911,1119.254,1626.915z"/>
			<path fill="#FEC624" d="M1181.212,1748.834c9.993,0,73.951,41.972,34.977,69.953c-18.987,7.995-39.973,4.997-44.97-18.987
				C1169.22,1787.808,1174.217,1758.827,1181.212,1748.834z"/>
			<path fill="#FEC624" d="M1313.125,1813.791c27.981,2.998,37.975,27.981,3.997,33.977c-11.992,0-35.976-1.999-27.981-21.985
				C1292.138,1817.788,1305.13,1815.789,1313.125,1813.791z"/>
			<path fill="#FEEEE2" d="M1117.255,1728.847c8.994,0,15.989-0.999,18.987,7.995c-0.999,4.997-0.999,4.997-3.997,8.994
				c-4.997,0.999-5.996,0.999-10.993,0.999C1114.257,1742.838,1112.258,1736.842,1117.255,1728.847z"/>
			<path fill="#FEEEE2" d="M1384.077,1963.691c4.997-0.999,8.994,1.999,9.993,6.995c0.999,4.997-1.999,8.994-5.996,9.993
				c-2.998,0.999-5.996,0-8.994-1.999c-1.999-1.999-2.998-5.996-1.999-8.994C1378.081,1966.689,1381.079,1964.69,1384.077,1963.691z
				"/>
			
				<linearGradient id="SVGID_00000111889713148061296780000006317403131950310545_" gradientUnits="userSpaceOnUse" x1="784.5645" y1="2240.1235" x2="1322.415" y2="3017.7161" gradientTransform="matrix(1 0 0 1 0 -778)">
				<stop  offset="0" style="stop-color:#F3CEA6"/>
				<stop  offset="1" style="stop-color:#FFFFEF"/>
			</linearGradient>
			<path fill="url(#SVGID_00000111889713148061296780000006317403131950310545_)" d="M1254.164,1172.219v-1.999
				c-1.999-2.998-3.997-3.997-6.995-5.996c0-7.995,1.999-0.999,4.997-9.993c-1.999-4.997-2.998-5.996-2.998-10.993l2.998-1.999
				c13.991-0.999,20.986,4.997,32.978,7.995h0.999c12.991,6.995,24.983,14.99,36.975,22.985
				c113.924,78.947,198.867,197.868,240.839,330.779c54.963,169.887,38.974,353.764-42.971,512.658
				c-80.946,153.897-218.854,269.82-383.744,322.785c-155.896,48.967-324.784,32.978-469.687-42.971
				c-116.922-59.96-210.859-152.898-272.818-266.823c-8.994-15.989-26.982-50.966-31.979-67.955
				c0.999-12.991-23.984-66.955-24.983-85.943c2.998,0,4.997,3.997,8.994,1.999c8.994-2.998,18.987-1.999,24.983-9.993
				c0.999,2.998,0.999,2.998,2.998,3.997l2.998-2.998c6.995,13.991,5.996,38.974,15.989,50.966
				c1.999,4.997,2.998,8.994,4.997,13.991c28.981,87.941,86.942,161.892,152.898,225.85
				c42.971,46.969,125.916,99.933,184.877,124.917c7.995,3.997,29.98,12.991,37.975,14.99
				c109.927,39.974,183.877,40.973,299.8,18.987c158.894-30.979,303.797-128.914,393.738-263.824
				c95.936-144.903,112.925-327.781,80.946-495.669C1516.989,1385.077,1399.067,1265.156,1254.164,1172.219L1254.164,1172.219z"/>
			<path fill="#E5BE91" d="M362.758,1960.693c-12.991-24.983-26.982-76.949-31.979-104.93
				c-34.977-169.887-0.999-347.768,94.937-492.672s243.837-249.833,414.723-285.809c119.92-24.983,244.837-16.989,358.761,28.981
				c25.983,9.993,62.958,26.982,85.943,42.971h-0.999c-11.992-1.999-18.987-8.994-32.978-7.995l-2.998,1.999
				c0,4.997,0.999,5.996,2.998,10.993c-2.998,8.994-4.997,1.999-4.997,9.993c2.998,1.999,4.997,2.998,6.995,5.996v1.999
				l-0.999-0.999c-12.991-5.996-24.983-13.991-36.975-19.987c-140.906-72.951-304.797-58.961-449.7-6.995
				c-52.965,18.987-113.924,45.969-154.897,86.942c-29.98,30.979-62.958,60.959-93.937,91.939
				c-54.963,53.964-82.945,126.915-109.927,196.869c-44.97,116.922-54.963,232.845-23.984,354.764
				c2.998,13.991,9.993,31.979,11.992,45.969c-9.993-11.992-9.993-35.976-15.989-50.966l-2.998,2.998
				c-1.999-1.999-1.999-1.999-2.998-3.997c-4.997,7.995-14.99,5.996-24.983,9.993c-4.997,1.999-6.995-1.999-8.994-1.999
				C338.774,1893.737,363.757,1947.701,362.758,1960.693L362.758,1960.693z"/>
			<path fill="#F13322" d="M1120.253,1906.729c10.993-10.993,19.987-17.988,33.977-25.983
				c79.947-46.969,185.876-1.999,201.866,90.939c0,93.937-61.959,152.898-154.897,153.897c-33.977,0-62.958-13.99-87.941-35.976
				c-35.976-47.968-41.972-96.935-15.989-150.899C1098.268,1936.709,1117.255,1910.726,1120.253,1906.729z"/>
			<path fill="#E3231C" d="M1183.211,2022.651c2.998,0,6.995,0.999,9.993,1.999c15.99,5.996,26.982,23.984,3.997,31.979
				c-1.999,0-3.997-0.999-4.997-0.999C1172.218,2051.632,1158.228,2034.644,1183.211,2022.651z"/>
			<path fill="#E3231C" d="M1240.173,1928.714c17.988-0.999,30.979,19.987,15.989,37.975
				C1236.176,1965.689,1225.183,1945.703,1240.173,1928.714z"/>
			<path fill="#E3231C" d="M1266.156,2002.665c2.998-7.995,7.995-13.991,15.989-16.989c12.991,0.999,6.995,14.99,5.996,21.985
				l0.999,4.997c-2.998,10.993-10.993,14.99-21.985,11.992C1259.161,2017.655,1262.158,2011.659,1266.156,2002.665
				L1266.156,2002.665z"/>
			<path fill="#F13322" d="M1266.156,2002.665c2.998-7.995,7.995-13.991,15.989-16.989c12.991,0.999,6.995,14.99,5.996,21.985
				C1279.147,1999.667,1277.148,2000.666,1266.156,2002.665z"/>
			<path fill="#FE8672" d="M1149.234,2042.638c18.987,2.998,29.98,21.985,6.995,32.978
				C1136.242,2069.62,1128.248,2055.629,1149.234,2042.638z"/>
			<path fill="#FE8672" d="M1143.238,1914.724c19.987-0.999,34.977,15.989,11.992,28.981c-11.992-0.999-24.983-7.995-22.985-20.986
				C1135.243,1917.721,1138.241,1916.722,1143.238,1914.724z"/>
			<path fill="#FE8672" d="M1286.142,1928.714c19.987,1.999,31.979,20.986,16.989,37.975c-12.991-0.999-20.986-18.987-22.985-29.98
				C1282.145,1931.712,1281.146,1933.711,1286.142,1928.714L1286.142,1928.714z"/>
			<path fill="#FE8672" d="M1268.155,2050.633c5.996-1,7.995,0,11.992,3.997c1.999,12.991-11.992,20.986-21.985,23.984
				c-6.995-1.999-11.992-3.997-11.992-12.991C1252.165,2056.629,1259.161,2054.63,1268.155,2050.633z"/>
			<path fill="#E3231C" d="M1195.203,1917.721c8.994,0,12.991-0.999,17.988,6.995c2.998,10.993-3.997,14.99-11.992,19.987
				C1182.212,1946.702,1177.215,1928.714,1195.203,1917.721z"/>
			<path fill="#FE8672" d="M1229.18,1976.682c21.985-1,29.98,19.987,8.994,24.983c-7.995-2.998-23.984-8.994-21.985-18.987
				C1220.186,1977.681,1223.184,1977.681,1229.18,1976.682z"/>
			<path fill="#E3231C" d="M1115.256,1947.701c20.986,0.999,16.989,16.989,5.996,28.981c-3.997,0-7.995-0.999-10.993-3.997
				c-1.999-1.999-3.997-4.997-3.997-8.994C1106.262,1956.696,1110.26,1952.698,1115.256,1947.701z"/>
			<path fill="#FE8672" d="M1169.22,1963.691c6.995,0,10.993,3.997,11.992,10.993c-2.998,8.994-5.996,10.993-14.99,14.99
				c-6.995-0.999-10.993-1.999-12.991-8.994C1156.229,1972.685,1162.225,1969.687,1169.22,1963.691z"/>
			<path fill="#E3231C" d="M1210.193,1877.748c17.988-0.999,22.985,9.993,8.994,21.985c-9.993,0-17.988-1.999-17.988-12.991
				C1204.197,1881.745,1206.196,1880.746,1210.193,1877.748z"/>
			<path fill="#FE8672" d="M1312.125,1982.678c5.996,0,8.994,0.999,11.992,5.996c2.998,9.993-2.998,13.991-10.993,17.988
				c-5.996-0.999-6.995-0.999-10.993-3.997C1297.135,1993.671,1304.13,1988.674,1312.125,1982.678z"/>
			<path fill="#FE8672" d="M1254.164,1887.741c9.993,0,14.99,1.999,17.988,11.992c-0.999,6.995,0,3.997-4.997,9.993
				C1252.165,1910.726,1241.172,1901.732,1254.164,1887.741z"/>
			<path fill="#E3231C" d="M1223.184,2074.617c7.995,0,11.992,1.999,14.99,9.993c-1.999,5.996-0.999,3.997-5.996,8.994
				c-8.994,0-14.99-1-15.989-9.993C1217.188,2078.614,1219.187,2077.615,1223.184,2074.617z"/>
			<path fill="#FE8672" d="M1118.254,2012.658c2.998-1.999,6.995-1.999,9.993,0c2.998,1.999,4.997,5.996,3.997,8.994
				c0,3.997-2.998,6.995-6.995,7.995c-4.997,1.999-9.993-0.999-11.992-4.997C1112.258,2019.653,1114.257,2014.657,1118.254,2012.658
				z"/>
			<path fill="#FE8672" d="M1202.198,2005.663c6.995,1.999,9.993,3.997,12.991,9.993c-1.999,4.997-0.999,2.998-5.996,7.995
				c-6.995-2.998-10.993-3.997-12.991-10.993C1198.201,2006.662,1197.202,2008.661,1202.198,2005.663z"/>
			<path fill="#FE8672" d="M1120.253,1979.68c2.998-0.999,5.996-0.999,8.994,0.999c2.998,1.999,3.997,4.997,2.998,7.995
				c-0.999,2.998-2.998,5.996-5.996,6.995c-3.997,0.999-8.994-0.999-10.993-4.997
				C1114.257,1986.676,1116.256,1981.679,1120.253,1979.68L1120.253,1979.68z"/>
			<path fill="#FE8672" d="M1187.208,2082.611c4.997,1,6.995,1.999,9.993,5.996c-0.999,5.996,0,3.997-4.997,8.994
				c-5.996-1.999-6.995-1-10.993-4.997C1182.212,2085.61,1183.211,2086.609,1187.208,2082.611z"/>
			<path fill="#FEE67A" d="M1132.245,1238.175c0.999-8.994-11.992-36.975-16.989-41.972c-34.977-37.975-26.982-56.962,23.984-38.974
				c2.998,0.999,28.981-4.997,34.977-1.999c21.985,6.995,44.97,16.989,65.956,25.983c23.984,9.993,23.984,19.987,31.979,40.973
				l0.999,0.999c18.987,17.988,35.976,3.997,55.963,17.988c16.989,10.993,11.992,27.981,19.987,42.971
				c6.995,10.993,20.986,9.993,29.98,16.989c5.996,3.997,6.995,13.991,10.993,18.987c6.995,9.993,15.989,19.987,23.984,29.98
				c3.997,4.997,5.996,10.993,1.999,15.989c-1.999,2.998-3.997,2.998-7.995,2.998c-17.988-11.992-10.993-60.959-56.962-36.975
				l-0.999-24.983l-20.986-1c-49.967,0-73.951,0-122.918,11.992c-18.987-4.997-44.97-11.992-53.964-31.979
				c-10.993-14.99-13.991-22.985-17.988-40.973C1134.244,1242.172,1133.244,1241.172,1132.245,1238.175L1132.245,1238.175z"/>
			<path fill="#F13322" d="M1135.243,1246.169c0.999-12.991,1.999-22.985,11.992-30.979c26.982-23.984,42.971,9.993,55.963,15.989
				c24.983,11.992,35.976-5.996,53.964,26.982c3.997,4.997,4.997,6.995,7.995,11.992c2.998,6.995,6.995,28.981,15.989,28.981
				c15.989,0,27.981-19.987,44.97-0.999c1.999,1.999,2.998,5.996,4.997,7.995c-49.967,0-73.951,0-122.918,11.992
				c-18.987-4.997-44.97-11.992-53.964-31.979C1142.238,1272.152,1139.24,1264.157,1135.243,1246.169z"/>
			<path fill="#FEC624" d="M1257.162,1259.161c3.997,4.997,4.997,6.995,7.995,11.992c2.998,6.995,6.995,28.981,15.989,28.981
				c15.989,0,27.981-19.987,44.97-0.999c1.999,1.999,2.998,5.996,4.997,7.995c-49.967,0-73.951,0-122.918,11.992
				c-18.987-4.997-44.97-11.992-53.964-31.979c19.987,13.991,39.973,20.986,63.957,17.988
				C1245.17,1301.133,1261.159,1287.142,1257.162,1259.161L1257.162,1259.161z"/>
			<path fill="#FEC624" d="M1134.244,1164.224c7.995,0,17.988,0.999,21.985,8.994c0.999,2.998,1.999,5.996,0.999,8.994
				c-1.999,5.996-7.995,8.994-13.991,10.993C1121.252,1196.203,1110.26,1175.217,1134.244,1164.224z"/>
			<path fill="#FEE67A" d="M1357.095,1359.094c19.987,10.993,66.955,9.993,57.961,45.969c-25.983,9.993-36.975,31.979-26.982,59.96
				c5.996,16.989,20.986,27.981,35.976,36.975c15.99,17.988,44.97,29.98,68.954,23.984c4.997-0.999,12.991-0.999,16.989,2.998
				c16.989,20.986,12.991,59.96,15.989,85.943c1.999,14.99-10.993,46.969-27.981,47.968l-2.998-0.999
				c0-8.994-5.996-17.988-10.993-24.983c-3.997-9.993-5.996-14.99-10.993-24.983c-27.981-72.951-109.927-95.936-178.881-69.953
				c0-2.998,13.991-15.99,17.988-18.987c24.983-21.985,34.977-51.965,41.972-84.943c0-13.991,0-39.973,5.996-51.965
				C1359.094,1383.078,1357.095,1361.093,1357.095,1359.094L1357.095,1359.094z"/>
			<path fill="#FEC624" d="M1360.093,1385.077c6.995,0.999,13.991,3.997,16.989,9.993c11.992,23.984-3.997,37.975-23.984,41.972
				C1354.097,1423.051,1353.098,1397.069,1360.093,1385.077z"/>
			<path fill="#FEC624" d="M1411.059,1533.977c-6.995-3.997-11.992-4.997-14.99-12.991c2.998-12.991,19.987-8.994,24.983-1
				c7.995,5.996,17.988,7.995,18.987,16.989C1432.045,1545.969,1419.054,1543.971,1411.059,1533.977z"/>
			<path fill="#FEE67A" d="M1411.059,1533.977c-6.995-3.997-11.992-4.997-14.99-12.991c2.998-12.991,19.987-8.994,24.983-1
				c-5.996,2.998-6.995,2.998-8.994,10.993C1412.058,1531.979,1412.058,1532.978,1411.059,1533.977L1411.059,1533.977z"/>
			<path fill="#FEC624" d="M1491.006,1561.959c16.989,2.998,24.983,19.987,12.991,33.977
				C1487.009,1592.938,1478.015,1574.95,1491.006,1561.959z"/>
			<path fill="#F13322" d="M1460.026,1820.786c22.985,2.998,29.98,7.995,39.973,29.98c-1.999,45.969-18.987,29.98-36.975,56.962
				c-13.991,21.985,3.997,51.965-41.972,52.965c-0.999-0.999-1.999-0.999-3.997-1.999c-47.968-23.984-39.973-97.935,1.999-123.917
				c11.992-6.995,16.989-8.994,29.98-12.991L1460.026,1820.786z"/>
			<path fill="#FEE67A" d="M1178.214,2233.511c33.977-4.997,17.988-24.983,41.972-32.978c10.993-3.997,51.965,14.99,29.98,32.978
				c-12.991,11.992-21.985,8.994-34.977,1.999c-10.993-4.997-21.985,10.993-26.982,16.989c-18.987,18.987-47.968-9.993-67.955,6.995
				c-9.993,7.995-12.991,17.988-25.983,24.983c-44.97,21.985-101.932,19.987-150.899,23.984
				c-24.983,1.999-9.993-33.977,3.997-37.975c36.975-16.989,57.961,26.982,94.937,8.994c19.987-9.993,17.988-21.985,32.978-35.976
				C1116.256,2222.518,1130.246,2246.502,1178.214,2233.511z"/>
			<path fill="#FEE67A" d="M924.384,1121.252c22.985-4.997,88.941-13.991,82.945,24.983c7.995-2.998,13.991-3.997,21.985-5.996
				l-17.988,13.991c-3.997,5.996-14.99,27.981-18.987,35.976c2.998,0.999,3.997,1.999,6.995,1.999
				c-6.995,5.996-11.992,11.992-17.988,16.989l-3.997,1.999c-8.994,8.994-13.991,12.991-26.982,15.989
				c-17.988-3.997-32.978-7.995-38.974-25.983l8.994-2.998c-7.995-8.994-13.991-15.989-22.985-23.984
				c-4.997-1.999-9.993-3.997-12.991-7.995l2.998-1.999c-0.999-2.998-3.997-6.995-3.997-11.992
				c0-16.989,16.989-12.991,27.981-17.988C916.389,1129.247,920.386,1125.25,924.384,1121.252L924.384,1121.252z"/>
			<path fill="#74A52F" d="M932.378,1136.242c10.993,12.991,18.987,23.984,23.984,39.973c1.999,4.997,3.997,10.993,5.996,15.989
				c7.995-3.997,11.992-30.979,45.969-44.97c7.995-2.998,13.991-3.997,21.985-5.996l-17.988,13.991
				c-3.997,5.996-14.99,27.981-18.987,35.976c2.998,0.999,3.997,1.999,6.995,1.999c-6.995,5.996-11.992,11.992-17.988,16.989
				l-3.997,1.999c-8.994,8.994-13.991,12.991-26.982,15.989c-17.988-3.997-32.978-7.995-38.974-25.983l8.994-2.998
				c4.997,4.997,9.993,11.992,15.989,12.991c3.997-3.997,2.998-4.997,2.998-11.992
				C943.371,1179.214,936.376,1153.231,932.378,1136.242L932.378,1136.242z"/>
			<path fill="#A7C95A" d="M977.348,1210.193l-1.999-1.999c0-14.99,19.987-51.965,35.976-54.963
				c-3.997,5.996-14.99,27.981-18.987,35.976c2.998,0.999,3.997,1.999,6.995,1.999c-6.995,5.996-11.992,11.992-17.988,16.989
				L977.348,1210.193z"/>
			<path fill="#3A6610" d="M956.362,1175.217c1.999,4.997,3.997,10.993,5.996,15.989c1.999,5.996,3.997,16.989-1.999,20.986
				C950.366,1206.196,952.365,1184.211,956.362,1175.217L956.362,1175.217z"/>
			<path fill="#548B11" d="M898.401,1172.219c-4.997-1.999-9.993-3.997-12.991-7.995l2.998-1.999
				c20.986,14.99,26.982,4.997,51.965,34.977c-0.999,5.996,0,7.995-2.998,11.992c-5.996-0.999-10.993-7.995-15.989-12.991
				C913.391,1187.208,907.395,1181.212,898.401,1172.219L898.401,1172.219z"/>
			<path fill="#F13322" d="M1415.057,1405.063c15.989-1.999,27.981-1.999,40.973,8.994c11.992,9.993,19.987,23.984,21.985,38.974
				c3.997,34.977-17.988,59.96-54.963,48.967c-14.99-8.994-28.981-19.987-35.976-36.975
				C1378.081,1437.042,1389.074,1415.057,1415.057,1405.063L1415.057,1405.063z"/>
			<path fill="#FE7507" d="M557.628,1385.077c-9.993-2.998-16.989-5.996-22.985-14.99c-27.981-42.971,51.965-112.925,84.943-71.952
				c7.995,9.993,2.998,29.98,0,41.972c-8.994,19.987-23.984,34.977-44.97,41.972C569.62,1384.077,563.624,1385.077,557.628,1385.077
				L557.628,1385.077z"/>
			<path fill="#FE7507" d="M800.466,1192.205c23.984,4.997,55.963,20.986,30.979,48.967c-10.993,4.997-18.987,7.995-29.98,11.992
				c-7.995,10.993-15.989,23.984-29.98,26.982c-6.995,1.999-13.991,0-19.987-3.997c-6.995-4.997-11.992-11.992-15.989-18.987
				c-6.995-38.974,15.989-55.963,50.966-63.957L800.466,1192.205z"/>
			<path fill="#F13322" d="M416.722,1877.748c18.987-16.989,46.969-4.997,61.959,11.992c9.993,11.992,12.991,19.987,15.989,34.977
				c0,1.999,0,2.998,0,4.997c0,5.996-1.999,16.989-4.997,22.985C456.695,2010.659,413.724,1905.729,416.722,1877.748z"/>
			<path fill="#FE7507" d="M1246.169,2143.571c13.991-7.995,34.977-19.987,50.966-13.99c54.963,20.986-5.996,93.937-47.968,74.95
				c-20.986-9.993-21.985-25.983-15.989-44.97C1238.174,2152.565,1240.173,2149.567,1246.169,2143.571z"/>
			<path fill="#F13322" d="M683.544,2185.543c4.997-1,9.993-3.997,14.99-4.997c21.985-5.996,33.977-5.996,55.963-1.999
				c15.989,8.994,30.979,18.987,36.975,36.975c4.997,16.989-5.996,20.986-18.987,23.984c-23.984,5.996-29.98-8.994-48.967-15.99
				c-10.993-3.997-23.984,0-36.975-4.997C670.553,2208.528,674.55,2198.534,683.544,2185.543z"/>
			<path fill="#FE7507" d="M1498.001,1681.879c8.994-23.984,39.973-65.956,55.963-20.986c4.997,12.991,4.997,67.955-1.999,78.947
				c-19.987,30.98-43.971-11.992-51.965-29.98C1496.003,1698.867,1497.002,1692.871,1498.001,1681.879z"/>
			<path fill="#FEE67A" d="M1510.993,1773.817c0-7.995,0-24.983,1.999-30.979h1.999c4.997,6.995,17.988,38.974,18.987,46.969
				c0.999,10.993-7.995,40.973-10.993,52.965c-2.998,10.993-6.995,52.965-23.984,47.968c-7.995-12.991,7.995-25.983-0.999-41.972
				c-8.994-20.986-16.989-26.982-39.973-29.98l-11.992,0.999c1.999-9.993-2.998-11.992,3.997-21.985
				c2.998-2.998,6.995-2.998,12.991-3.997c-2.998-7.995-2.998-4.997-0.999-10.993
				C1469.021,1810.793,1500.999,1788.807,1510.993,1773.817z"/>
			<path fill="#FEC624" d="M1452.032,1799.8c5.996,0,6.995-0.999,10.993,1.999c0,7.995-6.995,11.992-2.998,18.987l-11.992,0.999
				C1450.033,1811.792,1445.036,1809.793,1452.032,1799.8z"/>
			<path fill="#FE7507" d="M1082.278,1233.178c-12.991-6.995-33.977-23.984-18.987-38.974c23.984-23.984,75.949,4.997,38.974,37.975
				C1092.272,1234.177,1091.272,1234.177,1082.278,1233.178z"/>
			<path fill="#FEE67A" d="M785.476,1193.204c-45.969-20.986,40.973-40.973,51.965-15.989c0.999,19.987-28.981,10.993-37.975,15.989
				H785.476z"/>
			<path fill="#FEE67A" d="M1462.025,1972.685c7.995,6.995,2.998,23.984,0.999,32.978c-3.997,17.988-29.98,25.983-37.975,38.974
				c-17.988,30.979-17.988,55.963-59.96,63.957c-3.997,1-15.99,6.995-21.985,9.993c-0.999-1-1.999-2.998-3.997-4.997
				c-1.999-9.993,2.998-28.981,5.996-38.974c14.99-45.969,68.954,3.997,73.951-53.964c1-8.994,15.99-15.989,24.983-19.987
				C1450.033,1986.676,1449.034,1981.679,1462.025,1972.685L1462.025,1972.685z"/>
			<path fill="#FEE67A" d="M402.731,1891.739c12.991,6.995,14.99,18.987,3.997,28.981h-3.997
				C393.737,1915.723,397.735,1899.734,402.731,1891.739L402.731,1891.739z"/>
			<path fill="#FEE67A" d="M1329.114,2117.588c14.99,4.997,12.991,16.989,0.999,24.983c-6.995-4.997-8.994-5.996-8.994-13.991
				C1323.118,2122.585,1325.116,2121.586,1329.114,2117.588z"/>
			<path fill="#FEE67A" d="M543.638,2101.599c2.998-0.999,6.995,0,9.993,1.999c2.998,1.999,3.997,5.996,2.998,8.994
				c-0.999,2.998-2.998,5.996-6.995,6.995c-4.997,0.999-9.993-1.999-11.992-5.996
				C536.642,2108.594,538.641,2103.597,543.638,2101.599z"/>
			<path fill="#FEE67A" d="M504.664,1372.085c2.998-0.999,5.996-0.999,7.995,0.999c1.999,1.999,3.997,3.997,2.998,6.995
				c0,2.998-1.999,4.997-4.997,5.996c-3.997,1.999-7.995,0-9.993-3.997C499.667,1379.081,500.666,1374.084,504.664,1372.085
				L504.664,1372.085z"/>
			<path fill="#FEE67A" d="M887.408,2302.465c2.998-1.999,7.995-0.999,9.993,1.999c1.999,2.998,1.999,7.995-1.999,9.993
				c-1.999,1.999-4.997,1.999-7.995,1c-2.998-1-3.997-3.997-4.997-5.996C883.411,2306.462,885.41,2303.464,887.408,2302.465z"/>
			<path fill="#FEE67A" d="M921.386,2252.498c6.995,0,10.993-1,15.989,3.997c1.999,4.997,1.999,2.998,0,8.994
				c-5.996,0.999-7.995,0.999-12.991-1.999C921.386,2258.494,922.385,2257.495,921.386,2252.498z"/>
			<path fill="#FEE67A" d="M1432.045,1371.086c2.998-1.999,6.995,0,7.995,1.999c1.999,2.998,0.999,6.995-1.999,7.995
				c-2.998,1.999-6.995,0.999-7.995-1.999C1428.048,1377.082,1429.047,1373.084,1432.045,1371.086L1432.045,1371.086z"/>
			<path fill="#FDB3B0" d="M914.39,1013.324c13.991,0,34.977,0,47.968,2.998c-32.978,3.997-64.957,5.996-98.934,11.992
				c-125.916,20.986-243.837,75.949-340.773,157.895c-119.92,99.933-201.865,236.842-234.843,388.741
				c-8.994,42.971-12.991,77.948-16.989,120.92c-0.999,14.99-1.999,29.98-3.997,44.97c-0.999-10.993-1.999-20.986-1.999-31.979
				C252.831,1350.1,556.629,1025.316,914.39,1013.324z"/>
		</g>
	</g>
</g>
</svg>
