<?xml version="1.0" encoding="utf-8"?>
<!-- Generator: Adobe Illustrator 27.9.0, SVG Export Plug-In . SVG Version: 6.00 Build 0)  -->
<svg version="1.1" id="svg" xmlns="http://www.w3.org/2000/svg" xmlns:xlink="http://www.w3.org/1999/xlink" x="0px" y="0px"
	 viewBox="0 0 6117 3000" enable-background="new 0 0 6117 3000" xml:space="preserve">
<g>
	<g>
		<defs>
			<rect id="SVGID_1_" x="0" width="6117" height="3000"/>
		</defs>
		<clipPath id="SVGID_00000031194169648997045340000012802066149276953773_">
			<use xlink:href="#SVGID_1_"  overflow="visible"/>
		</clipPath>
		<g clip-path="url(#SVGID_00000031194169648997045340000012802066149276953773_)">
			<path fill="#161616" d="M0,0h6117v3000H0V0z"/>
			<path fill="#6E3A14" d="M3786,1965c6-1.5,9-3,13.5-6c3-9-30-52.5-30-73.5c0-28.5,15-28.5,37.5-31.5c43.5-4.5,69,12,100.5,37.5
				c90-52.5,84,13.5,127.5,12c12,0,31.5-28.5,64.5-25.5c19.5,1.5,36,16.5,48,30c18,9,36,12,55.5,12c22.5-37.5,61.5,7.5,90,4.5
				c9-1.5,36-24,39-30c58.5-7.5,81,16.5,93,72c25.5,6,37.5,13.5,52.5,36c1.5,10.5,3,15,1.5,25.5c-1.5,10.5-3,21,1.5,28.5
				c6,3,7.5,3,15,4.5c27,7.5,37.5,19.5,45,45c36,13.5,66,60,45,99c12-1.5,27-3,39-4.5c1.5,1.5,1.5,3,3,4.5c33,46.5,58.5,57,105,21
				c58.5,21,52.5,12,70.5-30c6-12,31.5-6,43.5-6c55.5-4.5,36-103.5,55.5-123c37.5-6,55.5,36,120,1.5c10.5-12,12-13.5,19.5-27
				c82.5,21,157.5-15,234-43.5c109.5-43.5,214.5-82.5,327-114c94.5-27,252-16.5,298.5,87c21,67.5,36,177-55.5,193.5
				c-147,27-298.5,63-447,85.5c21,12,54,27,63,49.5c18,43.5,24,133.5,9,178.5c-6,16.5-21,22.5-37.5,28.5
				c-100.5,37.5-208.5,69-312,100.5l-561,166.5l-319.5,94.5c-45,13.5-115.5,34.5-159,43.5c-24,4.5-118.5-25.5-147-33
				c-54-15-109.5-31.5-165-46.5c-217.5-63-435-126-652.5-190.5c-45-13.5-88.5-25.5-132-39c-48-15-82.5-43.5-88.5-96
				c-1.5-9-1.5-22.5-4.5-31.5c-148.5-15-256.5-93-301.5-240c-4.5-19.5-15-33-10.5-57c4.5-22.5,28.5-46.5,48-58.5
				c150-84,396-85.5,561-51c46.5,9,123,34.5,148.5,75c15,25.5,4.5,63-1.5,90c13.5-1.5,130.5-42,153-48c-1.5-12,0-27,0-39l-1.5-1.5
				l-3-3c-37.5-36-42-87,19.5-100.5l3-3c7.5-37.5,21-55.5,60-34.5c1.5-9,4.5-18,7.5-27c9-13.5,28.5-25.5,43.5-30
				c49.5-13.5,72,0,112.5,19.5C3753,1966.5,3765,1965,3786,1965L3786,1965z"/>
			<path fill="#BC5E1D" d="M2593.5,2236.5c-4.5-19.5-15-33-10.5-57c4.5-22.5,28.5-46.5,48-58.5c150-84,396-85.5,561-51
				c46.5,9,123,34.5,148.5,75c15,25.5,4.5,63-1.5,90c13.5-1.5,130.5-42,153-48c4.5,10.5,6,16.5,12,25.5c12,12,16.5,15,31.5,22.5
				c9,0,16.5,1.5,25.5,0c27,1.5,39,6,39,34.5c0,12,3,18,7.5,30l-24,21c-43.5,40.5-27,69,19.5,93c61.5,22.5,123,15,166.5,48
				c-28.5,13.5-271.5,87-273,87c1.5,3,4.5,6,4.5,7.5h1.5c57,15,114,31.5,169.5,49.5c15,4.5,73.5,24,84,25.5l27,9
				c-13.5,66-3,132-10.5,192c-217.5-63-435-126-652.5-190.5c-45-13.5-88.5-25.5-132-39c-48-15-82.5-43.5-88.5-96
				c-1.5-9-1.5-22.5-4.5-31.5C2746.5,2461.5,2638.5,2382,2593.5,2236.5L2593.5,2236.5z"/>
			<path fill="#6E3A14" d="M2593.5,2236.5c-4.5-19.5-15-33-10.5-57c4.5-22.5,28.5-46.5,48-58.5c150-84,396-85.5,561-51
				c46.5,9,123,34.5,148.5,75c15,25.5,4.5,63-1.5,90c-7.5,6-43.5,19.5-52.5,21c-24,13.5-46.5,24-72,34.5l-195,54
				c-22.5,6-96,19.5-108,37.5c-18,21-10.5,76.5-16.5,94.5C2746.5,2461.5,2638.5,2382,2593.5,2236.5L2593.5,2236.5z"/>
			<path fill="#552C0F" d="M2593.5,2236.5c3,0,12,0,13.5-1.5c70.5,66,247.5,82.5,340.5,79.5c40.5-1.5,78-10.5,111-12
				c58.5,16.5,208.5-54,228-48c-24,13.5-46.5,24-72,34.5l-195,54c-22.5,6-96,19.5-108,37.5c-18,21-10.5,76.5-16.5,94.5
				C2746.5,2461.5,2638.5,2382,2593.5,2236.5L2593.5,2236.5z"/>
			<path fill="#A88C76" d="M2607,2236.5c15-1.5,115.5,31.5,156,36c60,6,103.5,10.5,163.5,12c30,1.5,162-6,172.5-1.5
				c-1.5,12-31.5,18-42,21c-33,1.5-70.5,12-111,12C2854.5,2319,2677.5,2302.5,2607,2236.5L2607,2236.5z"/>
			<path fill="#D45901" d="M2979,2094c429-1.5,358.5,172.5-21,178.5c-87,1.5-210-6-283.5-58.5c-16.5-12-18-37.5-1.5-49.5
				C2751,2103,2884.5,2097,2979,2094L2979,2094z"/>
			<path fill="#EC8315" d="M2995.5,2143.5c3,0,6,0,10.5,0c18,0,33,0,45,12c3,19.5-27,19.5-42,21c-19.5,0-51,3-63-15l1.5-6
				C2961,2145,2979,2145,2995.5,2143.5L2995.5,2143.5z"/>
			<path fill="#552C0F" d="M3126,2458.5c58.5,10.5,127.5,33,187.5,46.5c61.5,18,124.5,34.5,187.5,51h1.5c57,15,114,31.5,169.5,49.5
				c15,4.5,73.5,24,84,25.5l27,9c-13.5,66-3,132-10.5,192c-217.5-63-435-126-652.5-190.5C3115.5,2608.5,3121.5,2494.5,3126,2458.5
				L3126,2458.5z"/>
			<path fill="#975326" d="M3579,2304c1.5,4.5,3,13.5,3,16.5c-43.5,40.5-27,69,19.5,93c61.5,22.5,123,15,166.5,48
				c-28.5,13.5-271.5,87-273,87c1.5,3,3,6,4.5,7.5c-61.5-18-124.5-33-187.5-51c-60-13.5-130.5-36-187.5-46.5l-3-1.5
				c21,0,145.5-43.5,174-52.5c73.5-19.5,151.5-42,222-66C3537,2332.5,3562.5,2316,3579,2304L3579,2304z"/>
			<path fill="#BC5E1D" d="M3601.5,2413.5c61.5,22.5,123,15,166.5,48c-28.5,13.5-271.5,87-273,87c1.5,3,3,6,4.5,7.5
				c-61.5-18-124.5-33-187.5-51c6-4.5,54-18,63-21l142.5-43.5C3544.5,2433,3579,2422.5,3601.5,2413.5L3601.5,2413.5z"/>
			<path fill="#6E3A14" d="M2895,2476.5c6-16.5-1.5-73.5,16.5-94.5c7.5,15,18,19.5,33,22.5c22.5,4.5,67.5,19.5,88.5,21
				c30,13.5,58.5,25.5,90,33l3,1.5c-3,36-10.5,150-6,184.5c-45-13.5-88.5-25.5-132-39c-48-15-82.5-43.5-88.5-96
				C2899.5,2499,2898,2484,2895,2476.5L2895,2476.5z"/>
			<path fill="#EC8315" d="M3033,2425.5c7.5-21,414-136.5,465-147c31.5-7.5,73.5-18,81,27c-16.5,12-40.5,28.5-60,34.5
				c-72,24-150,46.5-222,66c-28.5,7.5-153,52.5-174,52.5C3090,2451,3063,2439,3033,2425.5L3033,2425.5z"/>
			<path fill="#975326" d="M3490.5,2187c4.5,10.5,6,16.5,12,25.5c-7.5,3-24,9-33,10.5c-67.5,12-192,70.5-256.5,66
				c25.5-10.5,46.5-21,72-34.5c9-1.5,45-16.5,52.5-21C3352.5,2232,3469.5,2193,3490.5,2187L3490.5,2187z"/>
			<path fill="#EC8315" d="M3786,1965c6-1.5,9-3,13.5-6c3-9-30-52.5-30-73.5c0-28.5,15-28.5,37.5-31.5c43.5-4.5,69,12,100.5,37.5
				c90-52.5,84,13.5,127.5,12c12,0,31.5-28.5,64.5-25.5c19.5,1.5,36,16.5,48,30c18,9,36,12,55.5,12c22.5-37.5,61.5,7.5,90,4.5
				c9-1.5,36-24,39-30c58.5-7.5,81,16.5,93,72c25.5,6,37.5,13.5,52.5,36c1.5,10.5,3,15,1.5,25.5c-1.5,10.5-3,21,1.5,28.5
				c6,3,7.5,3,15,4.5c27,7.5,37.5,19.5,45,45c36,13.5,66,60,45,99c-4.5,9-6,10.5-3,19.5c10.5,25.5,19.5,40.5,22.5,67.5l-4.5,22.5
				c-4.5,9-9,19.5-16.5,27c-25.5,15-34.5,10.5-64.5,10.5c-7.5,31.5-16.5,54-45,72c-21,13.5-48,15-72,7.5c-45-16.5-18,72-73.5,64.5
				c-22.5-3-42-30-64.5-13.5c-25.5,19.5-39,46.5-78,39c-27-4.5-49.5-22.5-67.5-42c-96,40.5-63-55.5-109.5-43.5
				c-22.5,15-19.5,31.5-52.5,27c-43.5-6-33-43.5-45-57c-24-4.5-34.5-15-37.5-39c-10.5-3-28.5-1.5-39-1.5c-49.5,30-63,73.5-108-4.5
				c-3,1.5-7.5,3-10.5,4.5c-36,15-52.5,1.5-66-31.5l-4.5-10.5c-18-7.5-28.5-13.5-42-25.5c-6-12-7.5-16.5-7.5-30
				c0-28.5-12-34.5-39-34.5c-10.5,1.5-16.5,0-25.5,0c-15-9-18-12-31.5-22.5c-4.5-9-7.5-16.5-12-25.5c-1.5-12,0-27,0-39l-1.5-1.5
				l-3-3c-37.5-36-42-87,19.5-100.5l3-3c7.5-37.5,21-55.5,60-34.5c1.5-9,4.5-18,7.5-27c9-13.5,28.5-25.5,43.5-30
				c49.5-13.5,72,0,112.5,19.5C3753,1966.5,3765,1965,3786,1965L3786,1965z"/>
			<path fill="#BC5E1D" d="M4497,2062.5c27,7.5,37.5,19.5,45,45c36,13.5,66,60,45,99c-4.5,9-6,10.5-3,19.5
				c10.5,25.5,19.5,40.5,22.5,67.5l-4.5,22.5c-4.5,9-9,19.5-16.5,27c-25.5,15-34.5,10.5-64.5,10.5c-7.5,31.5-16.5,54-45,72
				c-21,13.5-48,15-72,7.5c-45-16.5-18,72-73.5,64.5c-22.5-3-42-30-64.5-13.5c-25.5,19.5-39,46.5-78,39c-27-4.5-49.5-22.5-67.5-42
				c-96,40.5-63-55.5-109.5-43.5c-22.5,15-19.5,31.5-52.5,27c-43.5-6-33-43.5-45-57c73.5-12,25.5-40.5,36-69
				c15-7.5,22.5,7.5,40.5,1.5c24-9,4.5-36,22.5-42c18,3,51,52.5,75,4.5c15-30-51-49.5-37.5-72c24-10.5,34.5,12,73.5,21
				c10.5-4.5,24-12,33-18c9,18,15,37.5,36,45c10.5,3,19.5,4.5,21,16.5c-28.5,31.5-34.5-12-63,57c-57-42-81,6-36,46.5
				c24,21,58.5,28.5,79.5-1.5c6-9,6-15,15-24c24-12,85.5,43.5,100.5-24c6-30-43.5-25.5-55.5-40.5c10.5-40.5,78,3,109.5-21
				c36-27,9-64.5,37.5-82.5c10.5,9,25.5,24,37.5,28.5c70.5,22.5,37.5-63,42-75c7.5-3,9-1.5,18,0c-3-7.5-19.5-33-27-34.5
				c22.5-15,28.5-27,15-52.5l-1.5-1.5l7.5-3L4497,2062.5z"/>
			<path fill="#F69711" d="M4497,2062.5c27,7.5,37.5,19.5,45,45c1.5,25.5-7.5,64.5-42,48c-3-7.5-19.5-33-27-34.5
				c22.5-15,28.5-27,15-52.5l-1.5-1.5l7.5-3L4497,2062.5z"/>
			<path fill="#EC8315" d="M4531.5,2185.5c1.5,0,3,0,4.5,1.5c37.5,18,33,34.5,25.5,67.5c-10.5,46.5-3,45-49.5,57
				c-18,36-27,52.5-67.5,61.5c-60,1.5-58.5-66,7.5-73.5c15-48,16.5-28.5,51-48C4531.5,2235,4497,2212.5,4531.5,2185.5L4531.5,2185.5
				z"/>
			<path fill="#FCAA1A" d="M3786,1965c6-1.5,9-3,13.5-6c3-9-30-52.5-30-73.5c0-28.5,15-28.5,37.5-31.5c43.5-4.5,69,12,100.5,37.5
				c90-52.5,84,13.5,127.5,12c12,0,31.5-28.5,64.5-25.5c19.5,1.5,36,16.5,48,30c-1.5,7.5-3,22.5-6,30c22.5,12,55.5,36,39,66
				c-4.5,7.5-10.5,12-19.5,13.5c-25.5,4.5-40.5-16.5-52.5-34.5c-19.5,12-24,18-46.5,16.5c-19.5-1.5-27-28.5-40.5-16.5
				c-25.5,21-42,93-84,42c-6-7.5-4.5-22.5-3-31.5c3-18,25.5-40.5,18-55.5c-19.5-7.5-63,27-81-10.5l1.5,22.5
				c12,13.5,19.5,19.5,19.5,37.5c-10.5,21-27,12-43.5,25.5l-1.5,6c18,30,45,88.5-22.5,75c-15-3-22.5-24-24-39
				C3763.5,2020.5,3759,2008.5,3786,1965L3786,1965z"/>
			<path fill="#D07839" d="M3837,1911c12,3,31.5,4.5,36,15l1.5,22.5c-13.5-7.5-18-3-31.5-9C3837,1932,3837,1920,3837,1911z"/>
			<path fill="#FCAA1A" d="M3577.5,1980c9-13.5,28.5-25.5,43.5-30c49.5-13.5,72,0,112.5,19.5c28.5,78-60,42-81,49.5
				c-4.5,9,4.5,18,12,21c27,67.5-66,37.5-73.5,45c4.5,21,18,70.5-7.5,82.5c-13.5,1.5-27-6-37.5-13.5l-7.5,9
				c7.5,13.5,12,19.5,22.5,30c15,16.5,10.5,24-1.5,40.5c-10.5,1.5-16.5,0-25.5,0c-15-9-18-12-31.5-22.5c-4.5-9-7.5-16.5-12-25.5
				c-1.5-12,0-27,0-39l-1.5-1.5l-3-3c-37.5-36-42-87,19.5-100.5l3-3c7.5-37.5,21-55.5,60-34.5
				C3571.5,1996.5,3574.5,1989,3577.5,1980L3577.5,1980z"/>
			<path fill="#F69711" d="M3490.5,2148C3490.5,2146.5,3490.5,2146.5,3490.5,2148l-4.5-4.5c-37.5-36-42-87,19.5-100.5
				c10.5,16.5,18,16.5,33,28.5c0,1.5,0,3,0,4.5l-1.5,1.5c0,19.5,0,58.5,7.5,76.5l-7.5,9c7.5,13.5,12,19.5,22.5,30
				c15,16.5,10.5,24-1.5,40.5c-10.5,1.5-16.5,0-25.5,0c-15-9-18-12-31.5-22.5c-4.5-9-7.5-16.5-12-25.5
				C3489,2175,3490.5,2160,3490.5,2148L3490.5,2148z"/>
			<path fill="#D07839" d="M3514.5,2097c7.5-7.5,13.5-15,24-18c0,19.5,0,58.5,7.5,76.5l-7.5,9C3528,2133,3534,2131.5,3514.5,2097
				L3514.5,2097z"/>
			<path fill="#EC8315" d="M3561,2194.5c15,16.5,10.5,24-1.5,40.5c-10.5,1.5-16.5,0-25.5,0C3543,2220,3552,2211,3561,2194.5z"/>
			<path fill="#D07839" d="M3577.5,1980c6,10.5,10.5,15,10.5,27c-3,4.5-1.5,3-7.5,4.5c-3-1.5-9-4.5-10.5-6
				C3571.5,1996.5,3574.5,1989,3577.5,1980z"/>
			<path fill="#FCAA1A" d="M4333.5,1896c58.5-7.5,81,16.5,93,72c25.5,6,37.5,13.5,52.5,36c-7.5,6-13.5,12-21,19.5
				c-66,19.5-61.5-37.5-96-36c-3,10.5,13.5,18,7.5,33c-16.5,42-54-1.5-72,7.5c1.5,1.5,1.5,3,3,3c7.5,10.5,9,15,6,28.5
				c-3,18-13.5,10.5-28.5,21c-3,13.5,10.5,25.5,9,31.5c-21,57-168,21-69-46.5c-3-12-9-27-4.5-39c7.5-24,27-21,42-30
				c-1.5-30-60-7.5-51-76.5c22.5-37.5,61.5,7.5,90,4.5C4302,1924.5,4330.5,1902,4333.5,1896L4333.5,1896z"/>
			<path fill="#D45901" d="M3907.5,2227.5c9-7.5,21-19.5,31.5-21c18,12,16.5,57-12,61.5c-3,42,4.5,45-46.5,51c15,18,4.5,30-3,49.5
				c-10.5-3-28.5-1.5-39-1.5c-49.5,30-63,73.5-108-4.5c-3,1.5-7.5,3-10.5,4.5c-36,15-52.5,1.5-66-31.5c34.5,15,42,12,64.5-18
				c24,10.5,57,27,75-6c13.5-27-34.5-39-51-46.5c-4.5-1.5-4.5-6-4.5-10.5c3-10.5,4.5-10.5,12-18c19.5,24,58.5,33,78,6
				c10.5-18,13.5-30,37.5-21C3880.5,2229,3888,2230.5,3907.5,2227.5L3907.5,2227.5z"/>
			<path fill="#F69711" d="M3880.5,2319c-55.5-28.5-7.5-96,46.5-51C3924,2310,3931.5,2314.5,3880.5,2319z"/>
			<path fill="#D45901" d="M3664.5,2041.5c19.5-3,24,1.5,40.5,12c9,6,24,12,27,22.5c-9,10.5-36,9-51,18c-10.5,6-13.5,22.5-18,25.5
				c7.5,12,13.5,25.5,25.5,28.5c-19.5-1.5-49.5,13.5-52.5,33l1.5,3c6,16.5,7.5,16.5,24,25.5c6,13.5,0,21-1.5,36l-7.5,10.5
				c-21-24-48-15-55.5,13.5c0-28.5-12-34.5-39-34.5c12-18,16.5-24,1.5-40.5c-10.5-12-15-16.5-22.5-30l7.5-9
				c10.5,7.5,24,15,37.5,13.5c25.5-12,10.5-61.5,7.5-82.5C3598.5,2079,3691.5,2109,3664.5,2041.5L3664.5,2041.5z"/>
			<path fill="#F69711" d="M3636,2181c-4.5-31.5-9-52.5,28.5-61.5c7.5,12,13.5,25.5,25.5,28.5
				C3670.5,2146.5,3640.5,2161.5,3636,2181z"/>
			<path fill="#FCAA1A" d="M3690,2148c73.5-55.5,117,31.5,34.5,36l-1.5,3c-9,25.5,0,58.5-25.5,75c-12,9-30-6-37.5-15
				c1.5-15,7.5-22.5,1.5-36c-16.5-9-18-9-24-25.5l-1.5-3C3640.5,2161.5,3670.5,2146.5,3690,2148L3690,2148z"/>
			<path fill="#F69711" d="M3597,2271c7.5-28.5,34.5-37.5,55.5-13.5l12,10.5c22.5,21,15,51-16.5,58.5c-18-7.5-28.5-13.5-42-25.5
				C3600,2289,3598.5,2283,3597,2271L3597,2271z"/>
			<path fill="#FCAA1A" d="M4474.5,2122.5c-30,4.5-75-15-67.5-48c10.5-18,34.5-18,51-9c12,7.5,24,0,39,0l-7.5,3l1.5,1.5
				C4503,2095.5,4497,2107.5,4474.5,2122.5z"/>
			<path fill="#FCAA1A" d="M3747,2238c-1.5-34.5,28.5-61.5,57-33c10.5,10.5,1.5,21,10.5,31.5c6-1.5,6-1.5,12-4.5l1.5,1.5
				c0,4.5-1.5,7.5-1.5,12C3805.5,2271,3766.5,2262,3747,2238z"/>
			<path fill="#F69711" d="M4479,2004c1.5,10.5,3,15,1.5,25.5c-3,1.5-9,4.5-12,7.5c-9-3,1.5-3-9-13.5
				C4465.5,2017.5,4471.5,2010,4479,2004z"/>
			<path fill="#FCAA1A" d="M4015.5,2046c27,1.5,31.5,6,43.5,30c16.5,9,49.5,28.5,24,58.5c-6,7.5-39-1.5-51-4.5
				c-1.5,1.5-10.5,4.5-10.5,9c4.5,33,3,103.5-46.5,57c-3-1.5-6-21-7.5-27c-1.5-4.5-1.5-3-6-7.5c-13.5,1.5-25.5,27-45,28.5
				c-15,1.5-28.5-12-28.5-27c1.5-49.5,33-151.5,96-84C3994.5,2061,3997.5,2055,4015.5,2046L4015.5,2046z"/>
			<path fill="#F69711" d="M4053,2166c37.5-3,91.5,31.5,46.5,55.5C4069.5,2224.5,4000.5,2197.5,4053,2166z"/>
			<path fill="#FCAA1A" d="M4369.5,2089.5c43.5,6,58.5,42,15,60C4347,2149.5,4324.5,2109,4369.5,2089.5z"/>
			<path fill="#F69711" d="M4297.5,2208c13.5,0,18,0,25.5,10.5c6,24-18,39-36,46.5c-13.5-1.5-22.5-4.5-31.5-15
				C4249.5,2223,4278,2214,4297.5,2208L4297.5,2208z"/>
			<path fill="#BC5E1D" d="M5043,2043c82.5,21,157.5-15,234-43.5c109.5-43.5,214.5-82.5,327-114c94.5-27,252-16.5,298.5,87
				c21,67.5,36,177-55.5,193.5c-147,27-298.5,63-447,85.5l-4.5-1.5v3c15,12,58.5,30,61.5,46.5l-3,3c-18,0-51-24-69-34.5
				c-84-46.5-150-13.5-229.5,15c-42,15-84,28.5-126,42l-207,64.5c-21,6-69,19.5-85.5,27v-1.5l7.5-10.5l-4.5-3
				c-25.5,7.5-124.5,43.5-144,43.5c55.5-42,28.5-67.5-13.5-100.5c7.5-7.5,12-16.5,16.5-27l4.5-22.5c-3-27-12-43.5-22.5-67.5
				c-4.5-9-1.5-10.5,3-19.5c12-1.5,27-3,39-4.5c1.5,1.5,1.5,3,3,4.5c33,46.5,58.5,57,105,21c58.5,21,52.5,12,70.5-30
				c6-12,31.5-6,43.5-6c55.5-4.5,36-103.5,55.5-123c37.5-6,55.5,36,120,1.5C5034,2059.5,5035.5,2056.5,5043,2043L5043,2043z"/>
			<path fill="#6E3A14" d="M5904,1972.5c21,67.5,36,177-55.5,193.5c-147,27-298.5,63-447,85.5l-4.5-1.5c-55.5-42-231-90-45-123
				c139.5-24,280.5-72,421.5-93C5824.5,2026.5,5881.5,2022,5904,1972.5L5904,1972.5z"/>
			<path fill="#552C0F" d="M4734,2227.5c58.5,21,52.5,12,70.5-30c6-12,31.5-6,43.5-6c55.5-4.5,36-103.5,55.5-123
				c37.5-6,55.5,36,120,1.5l30,13.5c19.5,15,54,30,64.5,48l15,16.5l6,16.5c-6,15-16.5,31.5-33,37.5c-70.5,24-145.5,30-217.5,49.5
				c-73.5,19.5-138,52.5-213,54c-33-1.5-39,1.5-70.5-10.5c-3-27-12-43.5-22.5-67.5c-4.5-9-1.5-10.5,3-19.5c12-1.5,27-3,39-4.5
				c1.5,1.5,1.5,3,3,4.5C4660.5,2254.5,4687.5,2265,4734,2227.5z"/>
			<path fill="#975326" d="M5209.5,2146.5c85.5,39-27,61.5-60,75c-15,6-40.5,12-54,21c-19.5,4.5-57,13.5-73.5,21
				c-54,21-228,97.5-267,130.5c-3,3-7.5,10.5-9,10.5l-4.5-3c-25.5,7.5-124.5,43.5-144,43.5c55.5-42,28.5-67.5-13.5-100.5
				c7.5-7.5,12-16.5,16.5-27l4.5-22.5c31.5,12,37.5,10.5,70.5,10.5c76.5-1.5,141-34.5,213-54c72-19.5,147-25.5,217.5-49.5
				c16.5-6,27-21,33-37.5C5160,2163,5194.5,2157,5209.5,2146.5z"/>
			<path fill="#6E3A14" d="M4606.5,2295c31.5,12,37.5,10.5,70.5,10.5c-28.5,3-46.5,3-75,12L4606.5,2295z"/>
			<path fill="#D07839" d="M5095.5,2244c37.5-6,130.5-36,159-19.5c-4.5,25.5-367.5,129-412.5,145.5c-10.5,4.5-75,24-85.5,24
				c39-33,213-108,267-130.5C5038.5,2257.5,5076,2248.5,5095.5,2244L5095.5,2244z"/>
			<path fill="#6E3A14" d="M5152.5,2122.5c15,4.5,25.5,9,39,15l18,7.5c-15,10.5-49.5,15-69,19.5l-6-16.5l-15-16.5
				C5127,2127,5139,2130,5152.5,2122.5z"/>
			<path fill="#975326" d="M5152.5,2122.5c15,4.5,25.5,9,39,15c-22.5,0-36,3-57,10.5l-15-16.5C5127,2127,5139,2130,5152.5,2122.5z"
				/>
			<path fill="#6E3A14" d="M5053.5,2083.5c28.5,6,70.5,27,97.5,39c-13.5,7.5-25.5,3-33,9C5107.5,2113.5,5073,2098.5,5053.5,2083.5
				L5053.5,2083.5z"/>
			<path fill="#EC8315" d="M5706,1935c18-1.5,49.5-3,55.5,18c-6,43.5-168,66-204,76.5c-91.5,24-180,48-274.5,58.5
				c-15,0-45,4.5-55.5-9c0-1.5,1.5-4.5,1.5-6c27-37.5,330-112.5,390-124.5C5649,1941,5677.5,1938,5706,1935L5706,1935z"/>
			<path fill="#D07839" d="M4738.5,2418c16.5-7.5,64.5-21,85.5-27l207-64.5c42-13.5,84-27,126-42c79.5-28.5,144-61.5,229.5-15
				c16.5,9,49.5,34.5,69,34.5l3-3c-3-16.5-46.5-34.5-61.5-46.5v-3l4.5,1.5c21,12,54,27,63,49.5c-18,13.5-151.5,46.5-187.5,57
				c-261,79.5-522,162-781.5,246c-121.5,39-244.5,79.5-366,118.5c-16.5,6-45,13.5-61.5,10.5c-40.5-7.5-88.5-34.5-127.5-43.5v-1.5
				c-48-12-109.5-31.5-156-46.5l-27-9c-12-1.5-69-21-84-25.5c-55.5-18-112.5-34.5-169.5-49.5h-1.5c0-3-3-6-4.5-7.5
				c0-1.5,244.5-75,273-87c-43.5-33-106.5-25.5-166.5-48c-46.5-24-63-52.5-19.5-93l24-21c13.5,13.5,24,19.5,42,25.5l4.5,10.5
				c12,33,30,46.5,66,31.5c3-1.5,7.5-3,10.5-4.5c46.5,76.5,60,34.5,108,4.5c12,0,28.5-1.5,39,1.5c3,24,13.5,34.5,37.5,39
				c12,13.5,0,51,45,57c33,4.5,30-13.5,52.5-27c46.5-10.5,13.5,84,109.5,43.5c19.5,19.5,42,37.5,67.5,42c39,7.5,52.5-19.5,78-39
				c22.5-15,42,10.5,64.5,13.5c55.5,9,28.5-79.5,73.5-64.5c24,9,51,6,72-7.5c28.5-18,37.5-42,45-72c30,0,39,4.5,64.5-10.5
				c42,33,69,58.5,13.5,100.5c19.5,0,117-36,144-43.5l4.5,3l-7.5,10.5L4738.5,2418z"/>
			<path fill="#552C0F" d="M3606,2299.5c13.5,13.5,24,19.5,42,25.5l4.5,10.5c12,33,30,46.5,66,31.5c3-1.5,7.5-3,10.5-4.5
				c46.5,76.5,60,34.5,108,4.5c12,0,28.5-1.5,39,1.5c3,24,13.5,34.5,37.5,39c12,13.5,0,51,45,57c33,4.5,30-13.5,52.5-27
				c46.5-10.5,13.5,84,109.5,43.5c19.5,19.5,42,37.5,67.5,42c39,7.5,52.5-19.5,78-39c22.5-15,42,10.5,64.5,13.5
				c55.5,9,28.5-79.5,73.5-64.5c24,9,51,6,72-7.5c28.5-18,37.5-42,45-72c30,0,39,4.5,64.5-10.5c42,33,69,58.5,13.5,100.5
				c-15,7.5-48,25.5-60,33c-61.5,22.5-136.5,42-193.5,66c-72,31.5-105,25.5-178.5,27c-39-1.5-84-15-118.5-33
				c-97.5-57-165-33-255-61.5l-24-16.5c-43.5-33-106.5-25.5-166.5-48c-46.5-24-63-52.5-19.5-93L3606,2299.5z"/>
			<path fill="#BC5E1D" d="M3769.5,2461.5l24,16.5c90,28.5,159,4.5,255,61.5c-85.5,30-175.5,54-262.5,82.5c-10.5,3-19.5,9-28.5,10.5
				c-12-1.5-69-21-84-25.5c-55.5-18-112.5-34.5-169.5-49.5h-1.5c0-3-3-6-4.5-7.5C3496.5,2548.5,3741,2473.5,3769.5,2461.5
				L3769.5,2461.5z"/>
			<path fill="#975326" d="M3769.5,2461.5l24,16.5c-58.5,18-121.5,34.5-181.5,51c-25.5,7.5-81,24-103.5,25.5l-4.5,4.5h-1.5
				c0-3-3-6-4.5-7.5C3496.5,2548.5,3741,2473.5,3769.5,2461.5z"/>
			<path fill="#975326" d="M4599,2445c19.5,0,117-36,144-43.5l4.5,3l-7.5,10.5v1.5l1.5,1.5c7.5,10.5,18,16.5,21,27
				c-4.5,21-88.5,49.5-111,58.5c-136.5,57-277.5,106.5-426,78c-9-1.5-18-7.5-27-7.5c-13.5,0-19.5-1.5-33-3
				c73.5-1.5,105,4.5,178.5-27c58.5-25.5,133.5-43.5,193.5-66C4551,2470.5,4584,2452.5,4599,2445L4599,2445z"/>
			<path fill="#6E3A14" d="M4599,2445c19.5,0,117-36,144-43.5l4.5,3l-7.5,10.5c-40.5,15-88.5,28.5-129,42
				c-13.5,4.5-58.5,19.5-70.5,21C4551,2470.5,4584,2452.5,4599,2445L4599,2445z"/>
			<path fill="#EC8315" d="M4048.5,2538c34.5,18,79.5,31.5,118.5,33c13.5,3,19.5,3,33,3c4.5,3,9,6,12,7.5c-10.5,7.5-51,18-64.5,22.5
				c-27,9-196.5,60-210,72c1.5,4.5,1.5,7.5,3,10.5c-48-12-109.5-31.5-156-46.5l-27-9c10.5-3,19.5-7.5,28.5-10.5
				C3871.5,2592,3961.5,2568,4048.5,2538z"/>
			<path fill="#EC8315" d="M5091,415.5c1.5-3,1.5-4.5,3-7.5c21-40.5,48-16.5,73.5-1.5c43.5-10.5,58.5-1.5,72,42
				c19.5,10.5,27,7.5,49.5,4.5c21,16.5,60,58.5,61.5,85.5c1.5,19.5-6,25.5-16.5,40.5c12,9,22.5,15,25.5,30c6,30-39,60-66,64.5
				c-31.5,24-33,43.5-61.5,69c-18,16.5-58.5,22.5-73.5,31.5c-46.5,30-126,145.5-138,198c-7.5,30,1.5,52.5-31.5,90
				c-4.5,6-21,24-24,28.5c0,19.5,1.5,63-10.5,79.5c-4.5,6-24,4.5-31.5,12c-46.5,43.5,25.5,76.5-66,91.5c42,109.5-40.5,63-58.5,76.5
				c-51,39-27,73.5-118.5,42c-22.5,24-28.5,30-60,37.5c-12-3-30-9-42-12c-48-12-43.5,55.5-91.5,49.5c-24-3-34.5-9-55.5-21
				c-21,1.5-39,6-57-6c-9-7.5-18-25.5-27-22.5c-21,6-46.5,37.5-73.5,25.5c-18-16.5-13.5-48-10.5-70.5c-84-22.5-27-58.5-87-84
				c-45-4.5-51-27-58.5-64.5c-52.5-52.5-48-96,22.5-126c-4.5-57,6-63,52.5-88.5c-18-19.5-22.5-34.5-36-49.5h-3
				c1.5,12,12,28.5,7.5,40.5c-1.5,18-43.5,12-46.5,16.5c-21,30-58.5,15-51-22.5c1.5-10.5-16.5-34.5-7.5-54c13.5-12,24-1.5,39,0
				c6,0,12-10.5,18-15c4.5-4.5,9-6,15-4.5c9,1.5,19.5,12,25.5,19.5h3c3-19.5,10.5-21,27-34.5c-12-19.5-22.5-39-24-63
				c-1.5-39,48-28.5,66-48c12-12,21-61.5,46.5-60c15,1.5,31.5,19.5,40.5,31.5V765c-7.5-67.5,72-48,105-18c52.5-16.5,105,0,136.5,45
				c10.5,12,18,19.5,33,25.5c21-36,37.5-36,72-16.5c27-37.5,54-42,94.5-21c3,1.5,4.5,3,7.5,1.5c33-30,52.5-28.5,85.5-52.5l3,3
				c22.5-22.5,39-18,67.5-16.5c1.5-6,4.5-24,7.5-28.5c18-30,48-31.5,54,7.5l1.5-7.5c16.5-34.5,28.5-54-16.5-70.5
				c7.5-12,21-34.5,36-36c15,15-4.5,75,63,52.5c3-4.5,7.5-15,12-18c27-9,40.5-1.5,45-36c-9-61.5-43.5-34.5-67.5-55.5
				c-4.5-9-25.5-3-43.5-13.5c4.5-3,12-9,16.5-13.5c1.5-12-6-19.5-9-30C5005.5,415.5,5053.5,414,5091,415.5z"/>
			<path fill="#D45901" d="M5091,415.5c1.5-3,1.5-4.5,3-7.5c21-40.5,48-16.5,73.5-1.5c43.5-10.5,58.5-1.5,72,42
				c19.5,10.5,27,7.5,49.5,4.5c21,16.5,60,58.5,61.5,85.5c1.5,19.5-6,25.5-16.5,40.5c12,9,22.5,15,25.5,30c6,30-39,60-66,64.5
				c-31.5,24-33,43.5-61.5,69c-18,16.5-58.5,22.5-73.5,31.5c-46.5,30-126,145.5-138,198c-7.5,30,1.5,52.5-31.5,90
				c-4.5,6-21,24-24,28.5c0,19.5,1.5,63-10.5,79.5c-4.5,6-24,4.5-31.5,12c-46.5,43.5,25.5,76.5-66,91.5c42,109.5-40.5,63-58.5,76.5
				c-51,39-27,73.5-118.5,42c-22.5,24-28.5,30-60,37.5c-12-3-30-9-42-12c-48-12-43.5,55.5-91.5,49.5c-24-3-34.5-9-55.5-21
				c-21,1.5-39,6-57-6c-9-7.5-18-25.5-27-22.5c-21,6-46.5,37.5-73.5,25.5c-18-16.5-13.5-48-10.5-70.5c-84-22.5-27-58.5-87-84
				c48-57-48-75-34.5-123l4.5-1.5c12,7.5,22.5,31.5,33,42c7.5,12,33,12,40.5,0c31.5-48-48-66-4.5-112.5c15-4.5,27-10.5,40.5-4.5
				l3,4.5c-9,13.5-27,39-22.5,54c12,36,52.5,39,27,85.5c-1.5,3-1.5,3-6,6c-13.5,1.5-25.5-1.5-34.5,10.5c-28.5,39,25.5,60,54,64.5
				c7.5,25.5,12,45,36,60c25.5,18,67.5,1.5,57-34.5c-9-27-55.5-21-42-54c7.5-21,31.5-48,55.5-45c30,21-13.5,33-10.5,52.5
				c9,43.5,115.5,61.5,141,27c22.5-31.5-54-49.5-61.5-61.5c16.5-21,54,0,63-21c19.5-45,22.5-30,64.5-34.5c34.5-9,33-33,81-6
				c28.5,21,52.5,9,58.5-24c6-4.5,6-3,15-4.5c51,46.5,94.5-22.5,111-63c16.5-6,45-28.5,28.5-48c-37.5-39-82.5,28.5-126,18
				c-24-6-25.5-49.5-3-60c15,4.5,10.5,10.5,27,19.5c37.5,4.5,31.5-30,58.5-39c15-4.5,45,6,61.5-4.5c37.5-22.5,6-63,10.5-81
				c16.5-10.5,30,6,49.5,6c6,0,10.5-1.5,15-6c12-12,10.5-31.5,10.5-48c18-10.5,55.5-27,43.5-54c-15-12-30-4.5-46.5-9
				c-13.5-40.5,87-39,93-76.5c13.5-70.5-54-27-82.5-40.5l-3-1.5c16.5-34.5,28.5-54-16.5-70.5c7.5-12,21-34.5,36-36
				c15,15-4.5,75,63,52.5c3-4.5,7.5-15,12-18c27-9,40.5-1.5,45-36c-9-61.5-43.5-34.5-67.5-55.5c-4.5-9-25.5-3-43.5-13.5
				c4.5-3,12-9,16.5-13.5c1.5-12-6-19.5-9-30C5005.5,415.5,5053.5,414,5091,415.5L5091,415.5z"/>
			<path fill="#D07839" d="M5091,415.5c1.5-3,1.5-4.5,3-7.5c21-40.5,48-16.5,73.5-1.5c43.5-10.5,58.5-1.5,72,42
				c19.5,10.5,27,7.5,49.5,4.5c21,16.5,60,58.5,61.5,85.5c1.5,19.5-6,25.5-16.5,40.5c12,9,22.5,15,25.5,30c6,30-39,60-66,64.5
				l-3-1.5c-7.5,1.5-9,1.5-15,7.5l-3,3c7.5-39,25.5-58.5,28.5-93c1.5-13.5-27-34.5-36-28.5c-12,9-3,31.5-15,54l-1.5,3
				c-9,6-18,9-27,13.5c-7.5-1.5-24-4.5-31.5-3c-31.5,1.5-30,37.5-66,34.5c-27-3-22.5-13.5-39-30c-10.5-3-10.5-1.5-22.5,1.5
				c3-4.5,7.5-15,12-18c27-9,40.5-1.5,45-36c-9-61.5-43.5-34.5-67.5-55.5c-4.5-9-25.5-3-43.5-13.5c4.5-3,12-9,16.5-13.5
				c1.5-12-6-19.5-9-30C5005.5,415.5,5053.5,414,5091,415.5z"/>
			<path fill="#F69711" d="M5091,415.5c1.5-3,1.5-4.5,3-7.5c21-40.5,48-16.5,73.5-1.5c43.5-10.5,58.5-1.5,72,42
				c-4.5,3-18,12-21,16.5c6,52.5-34.5,40.5-66,27c-9-6-18-4.5-30-4.5c-10.5-7.5-22.5-15-34.5-21c0,21,3,28.5-13.5,43.5
				c-10.5,4.5-12,4.5-21,13.5c-4.5-9-25.5-3-43.5-13.5c4.5-3,12-9,16.5-13.5c1.5-12-6-19.5-9-30C5005.5,415.5,5053.5,414,5091,415.5
				z"/>
			<path fill="#EC8315" d="M5167.5,406.5c43.5-10.5,58.5-1.5,72,42c-4.5,3-18,12-21,16.5c-18-18-25.5-21-49.5-27
				c-3-10.5-4.5-15-6-27L5167.5,406.5z"/>
			<path fill="#EC8315" d="M5028,496.5c21,10.5,24,12,46.5,13.5c-10.5,4.5-12,4.5-21,13.5c-4.5-9-25.5-3-43.5-13.5
				C5017.5,505.5,5023.5,501,5028,496.5z"/>
			<path fill="#BC5E1D" d="M5088,466.5c12,6,22.5,13.5,34.5,21c12,0,22.5-1.5,30,4.5l1.5,1.5c19.5,22.5,60,24,63,51
				c1.5,30-34.5,30-55.5,31.5c-18,3-21,15-39,3c-9-61.5-43.5-34.5-67.5-55.5c7.5-9,10.5-9,21-13.5C5091,495,5088,487.5,5088,466.5
				L5088,466.5z"/>
			<path fill="#BC5E1D" d="M4626,1225.5c16.5,1.5,40.5,34.5,48,48c16.5,30-9,36-33,40.5c-15,15-16.5,16.5-36,21
				c-13.5,3-22.5,9-34.5,1.5c-4.5-9-3-19.5-3-30c-37.5-36,10.5-42,36-58.5C4608,1245,4620,1231.5,4626,1225.5z"/>
			<path fill="#BC5E1D" d="M4737,1267.5c42,13.5,24,61.5,7.5,91.5c-7.5,15-22.5,18-37.5,22.5c-12-1.5-15-3-21-9
				c0-16.5,22.5-21,36-46.5l1.5-3C4722,1294.5,4710,1284,4737,1267.5z"/>
			<path fill="#BC5E1D" d="M4455,1369.5c19.5-1.5,49.5-3,60,16.5c-3,10.5-1.5,7.5-10.5,16.5c-16.5,0-57,4.5-63-16.5
				C4444.5,1377,4447.5,1375.5,4455,1369.5L4455,1369.5z"/>
			<path fill="#FCAA1A" d="M4917,714c1.5-6,4.5-24,7.5-28.5c18-30,48-31.5,54,7.5c40.5,69-40.5,52.5-58.5,84c-9,15,36,52.5,3,69
				c-25.5,15-57-34.5-81-30c0,4.5,0,4.5,1.5,7.5c9,30-7.5,31.5-30,36c7.5,10.5,21,28.5,18,39c-6,25.5-40.5,27-52.5,3
				c-6-15-4.5-33-19.5-39c-10.5-3-21-4.5-31.5-1.5c-15,12-6,48-42,43.5c-4.5,0-21-6-22.5-4.5c-43.5,22.5-54,7.5-99-4.5
				c-10.5,49.5-36,46.5-76.5,33c-25.5,79.5-75,0-102,30c4.5,24,49.5,57-7.5,70.5c-37.5,9-40.5-49.5-64.5-49.5c-13.5,9-9,30-24,37.5
				c-19.5,10.5-45-7.5-51,21c-6,28.5-1.5,36-24,57c-43.5,45,37.5,64.5,4.5,112.5c-7.5,12-33,12-40.5,0c-10.5-12-21-36-33-42
				l-4.5,1.5c-15,46.5,81,64.5,34.5,123c-45-4.5-51-27-58.5-64.5c-52.5-52.5-48-96,22.5-126c-4.5-57,6-63,52.5-88.5
				c-18-19.5-22.5-34.5-36-49.5h-3c1.5,12,12,28.5,7.5,40.5c-1.5,18-43.5,12-46.5,16.5c-21,30-58.5,15-51-22.5
				c1.5-10.5-16.5-34.5-7.5-54c13.5-12,24-1.5,39,0c6,0,12-10.5,18-15c4.5-4.5,9-6,15-4.5c9,1.5,19.5,12,25.5,19.5h3
				c3-19.5,10.5-21,27-34.5c-12-19.5-22.5-39-24-63c-1.5-39,48-28.5,66-48c12-12,21-61.5,46.5-60c15,1.5,31.5,19.5,40.5,31.5v-1.5
				c-7.5-67.5,72-48,105-18c52.5-16.5,105,0,136.5,45c10.5,12,18,19.5,33,25.5c21-36,37.5-36,72-16.5c27-37.5,54-42,94.5-21
				c3,1.5,4.5,3,7.5,1.5c33-30,52.5-28.5,85.5-52.5l3,3C4872,709.5,4888.5,714,4917,714L4917,714z"/>
			<path fill="#EC8315" d="M4314,765L4314,765c-9-69,72-49.5,105-19.5c52.5-16.5,105,0,136.5,45c-18,58.5-57,13.5-66,34.5
				c-25.5,64.5-112.5-33-139.5,7.5l-10.5-1.5c-15-18-27-9-36-22.5c3-9,3-6,12-13.5c3-6,3-6,4.5-12c-1.5-7.5-3-10.5-7.5-16.5
				L4314,765z"/>
			<path fill="#F69711" d="M4314,765L4314,765c-9-69,72-49.5,105-19.5c10.5,10.5,30,22.5,28.5,39c-4.5,36-46.5,34.5-66,10.5
				c-1.5-1.5-3-3-4.5-6c-9,0-16.5,0-25.5-3c-9-1.5-21-12-28.5-7.5c0,12,1.5,9-4.5,15h-3c3-6,3-6,4.5-12c-1.5-7.5-3-10.5-7.5-16.5
				H4314z"/>
			<path fill="#D45901" d="M4555.5,790.5c10.5,12,18,19.5,33,25.5c-1.5,9-6,18-10.5,27c-13.5,13.5-18,19.5-25.5,36
				c-37.5-3-48,3-72,33c-37.5-27-54-30-88.5,3c-49.5-13.5-63-9-102,24c-22.5,3-28.5,1.5-45,16.5c-6-28.5,12-75,40.5-85.5l10.5,6
				c13.5-1.5,30,0,40.5-9c6-9,6-24,6-34.5l10.5,1.5c27-40.5,114,57,139.5-7.5C4498.5,804,4537.5,849,4555.5,790.5z"/>
			<path fill="#F69711" d="M4339.5,832.5l10.5,1.5c24,34.5-28.5,51-55.5,42c13.5-1.5,30,0,40.5-9C4339.5,858,4338,843,4339.5,832.5z
				"/>
			<path fill="#EC8315" d="M4660.5,799.5c27-37.5,54-42,94.5-21c-4.5,3-19.5,16.5-22.5,18c-18,7.5-39,4.5-55.5,18
				c-13.5,12-9,45-36,39c-30-6-24-24-63-10.5c4.5-9,9-16.5,10.5-27C4609.5,780,4624.5,781.5,4660.5,799.5z"/>
			<path fill="#EC8315" d="M4206,909c34.5-18,13.5-19.5,27-45c3-4.5,12-7.5,19.5-6c21,1.5,19.5-1.5,33,13.5
				c-28.5,12-45,57-40.5,85.5c-1.5,3-4.5,6-6,9C4218,967.5,4207.5,922.5,4206,909z"/>
			<path fill="#EC8315" d="M4848,727.5l3,3c-4.5,18,6,34.5,3,39c-19.5,10.5-19.5,6-22.5,28.5c-13.5,10.5-51-13.5-69-18
				C4794,750,4815,751.5,4848,727.5L4848,727.5z"/>
			<path fill="#F69711" d="M4804.5,1074L4804.5,1074c30,6,31.5,6,45,33c-16.5,42-60,109.5-111,63c-15-39,0-48,37.5-54
				C4783.5,1095,4786.5,1090.5,4804.5,1074z"/>
			<path fill="#F69711" d="M4663.5,1198.5c-4.5-18-7.5-40.5,12-51c6-3,13.5-4.5,19.5-1.5c13.5,4.5,21,16.5,27,28.5
				C4716,1207.5,4692,1221,4663.5,1198.5z"/>
			<path fill="#FCAA1A" d="M4581,972c18,3,40.5,15,31.5,36c-9,21-24,25.5-45,33c-10.5,25.5-12,33-36,45c-52.5,0-37.5-48,6-67.5
				C4548,993,4551,979.5,4581,972z"/>
			<path fill="#F69711" d="M4608,1114.5c16.5,0,27,3,37.5,16.5c22.5,27-36,48-55.5,60c-49.5,15-51-39-9-54
				C4585.5,1134,4603.5,1119,4608,1114.5z"/>
			<path fill="#F69711" d="M4420.5,1104c21,1.5,33,9,34.5,30c-7.5,19.5-25.5,13.5-34.5,22.5c-6,4.5-6,13.5-19.5,25.5
				c-15,0-30-1.5-36-18C4365,1137,4395,1111.5,4420.5,1104z"/>
			<path fill="#F69711" d="M4648.5,979.5c36-3,64.5,33,34.5,63C4647,1044,4615.5,1011,4648.5,979.5z"/>
			
				<linearGradient id="SVGID_00000088092930089347997160000011171783757224836285_" gradientUnits="userSpaceOnUse" x1="4007.217" y1="2329.813" x2="3328.5552" y2="1865.7651" gradientTransform="matrix(1 0 0 1 0 -878)">
				<stop  offset="0" style="stop-color:#D45D00"/>
				<stop  offset="1" style="stop-color:#F79005"/>
			</linearGradient>
			<path fill="url(#SVGID_00000088092930089347997160000011171783757224836285_)" d="M3510,849c36-37.5,64.5,4.5,97.5,16.5
				c28.5,10.5,54-24,85.5,9c22.5,24,19.5,34.5,54,37.5c25.5,3,36,27,49.5,45c103.5,1.5,60,33,79.5,51c31.5,30,63-15,66,79.5
				c52.5,28.5,79.5,78,27,123c10.5,66-6,66-40.5,117c1.5,18,3,25.5,9,43.5c12,9,36,22.5,43.5,34.5c13.5,21,13.5,43.5,30,63
				c-9,3-18,6-24,7.5l-16.5,12c6,9,39,63,43.5,73.5c57,1.5,36,73.5,78,99c-10.5,3-9,1.5-13.5,7.5c9,21,42,36,30,64.5
				c-16.5,39-72,34.5-106.5,34.5c-1.5,0-15,18-30,19.5c-48,4.5-87-33-112.5-70.5c-27-6-33-9-51-30c-4.5-34.5-3-46.5-34.5-67.5
				c-43.5-22.5-31.5-30-61.5-63c-13.5-15-31.5,6-57-15c-10.5-4.5-30-1.5-43.5-6c-37.5-12-43.5-45-69-69l-1.5-1.5
				c-48,6-69-28.5-93-64.5c-42,3-66-16.5-79.5-55.5c-63-27-31.5-43.5-52.5-76.5c-10.5-16.5-55.5,18-51-69c-30-31.5-34.5-46.5-15-87
				C3240,1080,3237,1065,3261,1038c-7.5-21-18-57,0-75c10.5-10.5,28.5-9,42-9c12-10.5,0-31.5,25.5-49.5c28.5-21,57-4.5,70.5-18
				C3418.5,834,3463.5,837,3510,849L3510,849z"/>
			<path fill="#D45901" d="M3330,1090.5c24,7.5,21,0,37.5-1.5v3c4.5,40.5-21,94.5,51,82.5h1.5c6,25.5,12,48,36,63
				c28.5,16.5,52.5-3,43.5-34.5c-3-7.5-10.5-19.5-15-27c57-15,13.5-45,18-72c6-4.5,4.5-3,13.5-3c22.5,9,15,37.5,40.5,48
				c27,12,57-15,55.5,28.5c3,48,55.5,46.5,90,34.5l4.5,1.5c31.5,6,43.5,6,55.5-25.5c40.5,18,54,37.5,25.5,76.5
				c19.5,55.5-15,55.5-9,73.5c27,16.5,58.5,9,70.5,55.5c6,21-1.5,55.5,19.5,67.5c18,12,28.5,15,37.5,36l1.5,1.5
				c19.5-6,4.5-39,60-7.5c6,9,39,63,43.5,73.5c57,1.5,36,73.5,78,99c-10.5,3-9,1.5-13.5,7.5c9,21,42,36,30,64.5
				c-16.5,39-72,34.5-106.5,34.5c-1.5,0-15,18-30,19.5c-48,4.5-87-33-112.5-70.5c-27-6-33-9-51-30c-4.5-34.5-3-46.5-34.5-67.5
				c-43.5-22.5-31.5-30-61.5-63c-13.5-15-31.5,6-57-15c-10.5-4.5-30-1.5-43.5-6c-37.5-12-43.5-45-69-69l-1.5-1.5
				c-45,3-66-31.5-90-67.5c0-6,1.5-19.5,1.5-25.5c-3-16.5-12-33-15-49.5c4.5-9,1.5-6,9-10.5c21-36-7.5-103.5-66-73.5
				c-21-76.5-49.5-39-67.5-55.5c-3-36,54-34.5,16.5-81C3327,1095,3325.5,1099.5,3330,1090.5L3330,1090.5z"/>
			<path fill="#D45901" d="M3906,1495.5l1.5,1.5c19.5-6,4.5-39,60-7.5c6,9,39,63,43.5,73.5c57,1.5,36,73.5,78,99
				c-10.5,3-9,1.5-13.5,7.5c9,21,42,36,30,64.5c-16.5,39-72,34.5-106.5,34.5c-1.5,0-15,18-30,19.5c-48,4.5-87-33-112.5-70.5
				c64.5-27-4.5-85.5-22.5-112.5l-1.5-3c16.5-25.5,19.5-27,46.5-13.5c-1.5-31.5-31.5-48-33-69
				C3841.5,1467,3880.5,1480.5,3906,1495.5L3906,1495.5z"/>
			<path fill="#F69711" d="M3906,1495.5l1.5,1.5c19.5-6,4.5-39,60-7.5c6,9,39,63,43.5,73.5c12,24,37.5,72,6,93c-30,9-55.5-48-63-66
				c-1.5,0-3,0-4.5,0c-13.5,18,15,60-16.5,76.5c-37.5,0-51-48-52.5-78c-1.5-31.5-31.5-48-33-69
				C3841.5,1467,3880.5,1480.5,3906,1495.5z"/>
			<path fill="#EC8315" d="M3763.5,1186.5c40.5,18,54,37.5,25.5,76.5c19.5,55.5-15,55.5-9,73.5c27,16.5,58.5,9,70.5,55.5
				c6,21-1.5,55.5,19.5,67.5c18,12,28.5,15,37.5,36c-25.5-15-66-28.5-61.5,24c1.5,21,33,37.5,33,69c-27-15-30-12-46.5,13.5l1.5,3
				c18,25.5,87,84,22.5,112.5c-27-6-33-9-51-30c-4.5-34.5-3-46.5-34.5-67.5c4.5-27-21-57-16.5-82.5c4.5-34.5,40.5-7.5,55.5-4.5
				l4.5-3c3-21-28.5-63-40.5-82.5c-9-15-34.5,4.5-51,0c-36-10.5-81-58.5-72-99c6-27,49.5-6,67.5-16.5c9-22.5-15-36-13.5-52.5
				c3-34.5,48-30,0-67.5C3738,1218,3750,1218,3763.5,1186.5L3763.5,1186.5z"/>
			<path fill="#EC8315" d="M3448.5,1399.5c0-6,1.5-19.5,1.5-25.5c-3-16.5-12-33-15-49.5c4.5-9,1.5-6,9-10.5c4.5,6,7.5,12,15,12
				c54,0,88.5,61.5,91.5,112.5c-3,7.5-6,19.5-9,25.5C3493.5,1470,3472.5,1435.5,3448.5,1399.5L3448.5,1399.5z"/>
			<path fill="#EC8315" d="M3550.5,1438.5c13.5,13.5,18,18,33,28.5c19.5,0,28.5-1.5,46.5,6c30,13.5,48,37.5,25.5,67.5
				c-10.5-4.5-30-1.5-43.5-6c-37.5-12-43.5-45-69-69l-1.5-1.5C3544.5,1458,3549,1446,3550.5,1438.5z"/>
			<path fill="#F69711" d="M3526.5,1218h3c36,0,66,45,36,69C3532.5,1282.5,3498,1248,3526.5,1218z"/>
			<path fill="#FCAA1A" d="M3397.5,885c15,6,72-22.5,91.5,6c7.5,27-16.5,31.5-27,43.5c7.5,4.5,13.5,3,22.5,6
				c3,1.5,19.5,19.5,19.5,19.5c18,3,37.5,0,45,24c7.5,22.5-37.5,43.5-52.5,25.5c-9-9-18-21-28.5-24c-43.5,4.5-3,49.5-12,75
				c0,1.5,0,3,0,3c12,15,31.5,40.5,25.5,60c-16.5,51-51,1.5-63-18l-1.5-1.5c-22.5-1.5-33,1.5-48-18c-16.5,1.5-13.5,10.5-37.5,1.5
				c-4.5,9-3,6-1.5,16.5c37.5,46.5-19.5,45-16.5,81c18,15,46.5-22.5,67.5,55.5c58.5-31.5,87,36,66,73.5c-7.5,4.5-6,3-9,10.5
				c1.5,16.5,10.5,33,15,49.5c1.5,6-1.5,18-1.5,25.5c-42,3-66-16.5-79.5-55.5c-63-27-31.5-43.5-52.5-76.5c-10.5-16.5-55.5,18-51-69
				c-30-31.5-34.5-46.5-15-87C3243,1080,3240,1065,3264,1038c-7.5-21-18-57,0-75c10.5-10.5,28.5-9,42-9c12-10.5,0-31.5,25.5-49.5
				C3355.5,883.5,3384,898.5,3397.5,885z"/>
			<path fill="#D07839" d="M3328.5,1105.5c-6-3-25.5-6-25.5-12c3-45,13.5-40.5-13.5-79.5c0-9,3-15,12-19.5c21,6,7.5,40.5,10.5,58.5
				c1.5,12,9,25.5,16.5,36l1.5,1.5C3325.5,1099.5,3327,1095,3328.5,1105.5z"/>
			<path fill="#D07839" d="M3366,931.5c7.5,0,28.5,16.5,36,22.5c-19.5,39-9,33-10.5,75c0,6-10.5,12-16.5,16.5
				c-36-21,27-55.5-34.5-94.5C3348,943.5,3358.5,937.5,3366,931.5z"/>
			<path fill="#BC5E1D" d="M3730.5,1005c4.5-25.5,16.5-36,43.5-30c30,7.5,31.5,52.5,46.5,70.5c6,0,7.5,0,13.5-3
				c25.5-1.5,37.5,10.5,49.5,30l7.5-1.5c19.5,22.5,39,48,57,72c1.5,18,3,36,4.5,52.5c0,7.5-6,12-10.5,18c-1.5,21-10.5,93-34.5,99
				l-3-15c0,7.5-1.5,24-1.5,31.5c4.5,7.5,1.5,4.5,3,10.5c4.5,43.5,34.5,120,78,138l-16.5,12c-55.5-33-40.5,1.5-60,7.5l-1.5-1.5
				c-7.5-22.5-18-25.5-37.5-36c-21-13.5-13.5-46.5-19.5-67.5c-12-46.5-43.5-37.5-70.5-55.5c-6-16.5,28.5-18,9-73.5
				c28.5-39,15-60-25.5-76.5c7.5-40.5,0-63-45-64.5c-15-3-39-22.5-39-39c10.5-7.5,39-1.5,48-12c21-24-9-40.5-7.5-60L3730.5,1005z"/>
			<path fill="#F69711" d="M3730.5,1005c4.5-25.5,16.5-36,43.5-30c30,7.5,31.5,52.5,46.5,70.5c6,0,7.5,0,13.5-3
				c25.5-1.5,37.5,10.5,49.5,30c1.5,9,3,21,6,31.5c9,24,40.5,85.5,7.5,103.5c-31.5,16.5-46.5-3-57-25.5c1.5-16.5,7.5-36-6-49.5
				c-13.5-3-28.5,10.5-39,9c-31.5-4.5-27-67.5-25.5-88.5C3751.5,1036.5,3741,1027.5,3730.5,1005L3730.5,1005z"/>
			<path fill="#EC8315" d="M3904.5,1330.5c-51,51-70.5-76.5-37.5-105c30-7.5,30,48,37.5,70.5l1.5,3
				C3904.5,1306.5,3903,1323,3904.5,1330.5z"/>
			<path fill="#F69711" d="M3613.5,1176c1.5-4.5,9-19.5,7.5-22.5c-9-18-24-48,0-64.5c27-16.5,51,43.5,70.5,48
				c10.5-1.5,19.5-9,28.5-16.5c45,1.5,52.5,24,45,64.5c-12,31.5-25.5,31.5-55.5,25.5h-6C3669,1222.5,3615,1224,3613.5,1176
				L3613.5,1176z"/>
			<path fill="#F69711" d="M3510,849c36-37.5,64.5,4.5,97.5,16.5c28.5,10.5,54-24,85.5,9c22.5,24,19.5,34.5,54,37.5
				c-34.5,0-21,28.5-43.5,31.5c-66,9-49.5-58.5-121.5-34.5C3546,900,3522,883.5,3510,849L3510,849z"/>
			<path fill="#D45901" d="M3834,1042.5c-9-4.5-10.5-4.5-15-12c0-3,0-6,3-7.5c52.5-21,57,27,69,49.5h-7.5
				C3871.5,1053,3859.5,1041,3834,1042.5z"/>
			<path fill="#FDE06F" d="M3600,934.5c21,0,19.5,9,36,21c13.5,0,16.5-1.5,25.5,7.5c28.5,28.5-3,54-21,73.5
				C3570,1044,3546,960,3600,934.5z"/>
			<path fill="#EC8315" d="M4782,1482c34.5-36,57-42,102-16.5c112.5-21,90,48,141,60c-28.5,1.5-18,6-42,21l7.5,12l1.5,3
				c12,12,18,52.5,31.5,54c7.5-12,10.5-12,22.5-19.5c9-7.5,7.5-9,9-21l15-1.5c42,12,58.5,30,54,75c57,34.5,61.5,87,30,142.5
				c16.5,28.5,31.5,48,15,79.5c4.5,18,22.5,27,10.5,49.5c-10.5,19.5-51,1.5-61.5,21c-15,28.5,6,51-39,60c-4.5,1.5-18,1.5-22.5,3
				c-1.5,10.5-3,30-7.5,39c-7.5,13.5-9,16.5-19.5,27c-64.5,34.5-82.5-7.5-120-1.5c-19.5,19.5,1.5,118.5-55.5,123
				c-12,1.5-37.5-6-43.5,6c-19.5,40.5-13.5,51-70.5,30c-46.5,36-73.5,25.5-105-21c-1.5-1.5-1.5-3-3-4.5c-12,1.5-27,3-39,4.5
				c21-37.5-7.5-85.5-45-99c-7.5-27-18-39-45-45c-7.5-1.5-9-1.5-15-4.5c-4.5-7.5-3-18-1.5-28.5c3-10.5,1.5-15-1.5-25.5
				c-15-22.5-25.5-30-52.5-36c-12-55.5-36-79.5-93-72c0-10.5,9-18,16.5-27c12,3,24,4.5,34.5,6v-1.5c6-13.5,7.5-24,22.5-28.5
				c24,1.5,27,28.5,43.5,34.5c39,15,36-48,46.5-64.5c-1.5-13.5-3-33,13.5-37.5c42-9,21-46.5,36-61.5c18-1.5,24,28.5,58.5,16.5
				c18-4.5,33-21,45-19.5l16.5,10.5l-3-3c19.5,7.5,13.5,12,24,18c-13.5-34.5,3-46.5,36-43.5c-3-9-13.5-21-21-30
				c7.5-9,76.5-22.5,37.5-60c-18-16.5-28.5-13.5-51-13.5c-10.5-16.5-13.5-18-28.5-30c24-21,57-13.5,43.5-58.5
				c16.5-16.5,25.5-22.5,49.5-21C4764,1480.5,4773,1480.5,4782,1482z"/>
			
				<linearGradient id="SVGID_00000059282456252978779480000006121300561445581241_" gradientUnits="userSpaceOnUse" x1="4342.5176" y1="2727.4287" x2="5166.3145" y2="2823.1138" gradientTransform="matrix(1 0 0 1 0 -878)">
				<stop  offset="0" style="stop-color:#C24D02"/>
				<stop  offset="1" style="stop-color:#D66700"/>
			</linearGradient>
			<path fill="url(#SVGID_00000059282456252978779480000006121300561445581241_)" d="M5065.5,1573.5c42,12,58.5,30,54,75
				c57,34.5,61.5,87,30,142.5c16.5,28.5,31.5,48,15,79.5c4.5,18,22.5,27,10.5,49.5c-10.5,19.5-51,1.5-61.5,21c-15,28.5,6,51-39,60
				c-4.5,1.5-18,1.5-22.5,3c-1.5,10.5-3,30-7.5,39c-7.5,13.5-9,16.5-19.5,27c-64.5,34.5-82.5-7.5-120-1.5
				c-19.5,19.5,1.5,118.5-55.5,123c-12,1.5-37.5-6-43.5,6c-19.5,40.5-13.5,51-70.5,30c-46.5,36-73.5,25.5-105-21
				c-1.5-1.5-1.5-3-3-4.5c-12,1.5-27,3-39,4.5c21-37.5-7.5-85.5-45-99c-7.5-27-18-39-45-45c-7.5-1.5-9-1.5-15-4.5
				c-4.5-7.5-3-18-1.5-28.5c3-10.5,1.5-15-1.5-25.5c-15-22.5-25.5-30-52.5-36c-12-55.5-36-79.5-93-72c0-10.5,9-18,16.5-27
				c12,3,24,4.5,34.5,6v-1.5c6-13.5,7.5-24,22.5-28.5c24,1.5,27,28.5,43.5,34.5c39,15,36-48,46.5-64.5c10.5-9,24-21,37.5-9
				c15,33-10.5,91.5-12,127.5c0,4.5-4.5,7.5-7.5,9h3c-21,18-46.5,57-22.5,85.5c19.5,22.5,61.5-19.5,78-18c4.5,7.5,0,19.5-3,30
				c21,15,25.5,18,51,24l-6,10.5c40.5-7.5,24,60,60,82.5c4.5,3,10.5,4.5,15,3c46.5-19.5,10.5-55.5,22.5-76.5c37.5-19.5,54,69,99,21
				c28.5-30-30-108,30-109.5c28.5,12,10.5,60,52.5,58.5c25.5,0,22.5-25.5,22.5-43.5c13.5,10.5,18,15,33,22.5c45-6,63-15,63-63
				c34.5-10.5,58.5-28.5,15-51c4.5-6,13.5-15,19.5-19.5c39,1.5,42-12,28.5-45c6-1.5,13.5-3,19.5-7.5c6-6,9-13.5,9-21
				c0-18-10.5-27-22.5-37.5c-4.5,0-12-4.5-15-6l1.5-3c1.5-9-9-22.5-15-31.5c-4.5-21,0-33-10.5-49.5c0-33-18-48-22.5-78
				c7.5-12,10.5-12,22.5-19.5c9-7.5,7.5-9,9-21L5065.5,1573.5z"/>
			<path fill="#EC8315" d="M5043,1596c51,12,43.5,43.5,54,85.5c6,25.5,31.5,61.5-4.5,79.5c-10.5,7.5-10.5,9-10.5,24
				c-4.5,0-12-4.5-15-6l1.5-3c1.5-9-9-22.5-15-31.5c-4.5-21,0-33-10.5-49.5c0-33-18-48-22.5-78C5028,1603.5,5031,1603.5,5043,1596
				L5043,1596z"/>
			<path fill="#EC8315" d="M5053.5,1744.5c12,7.5,24,15,37.5,16.5c-10.5,7.5-10.5,9-10.5,24c-4.5,0-12-4.5-15-6l1.5-3
				C5068.5,1767,5059.5,1753.5,5053.5,1744.5L5053.5,1744.5z"/>
			<path fill="#F69711" d="M4572,2040c21,15,25.5,18,51,24l-6,10.5C4587,2076,4579.5,2064,4572,2040L4572,2040z"/>
			<path fill="#FCAA1A" d="M4782,1482c34.5-36,57-42,102-16.5c112.5-21,90,48,141,60c-28.5,1.5-18,6-42,21l7.5,12l1.5,3
				c12,12,18,52.5,31.5,54c6,30,24,46.5,22.5,78c10.5,18,6,28.5,10.5,49.5c6,9,15,22.5,15,31.5l-1.5,3c4.5,1.5,12,4.5,15,6
				c12,10.5,21,21,22.5,37.5c0,7.5-3,15-9,21c-4.5,4.5-12,6-19.5,7.5c13.5,34.5,9,46.5-28.5,45c-6,6-15,15-19.5,19.5
				c-6-7.5-7.5-21-10.5-30c-52.5,22.5-93,9-87-55.5c-4.5-39-31.5-15-45-63c-19.5-10.5-30,19.5-58.5,9c-22.5-9-31.5-46.5-51-49.5
				c-6,4.5-4.5,1.5-7.5,10.5c-4.5-33-18-28.5-42-43.5l-3-1.5c-3-9-13.5-21-21-30c7.5-9,76.5-22.5,37.5-60
				c-18-16.5-28.5-13.5-51-13.5c-10.5-16.5-13.5-18-28.5-30c24-21,57-13.5,43.5-58.5c16.5-16.5,25.5-22.5,49.5-21
				C4764,1480.5,4773,1480.5,4782,1482L4782,1482z"/>
			<path fill="#EC8315" d="M4782,1482c34.5-36,57-42,102-16.5c112.5-21,90,48,141,60c-28.5,1.5-18,6-42,21l7.5,12l1.5,3
				c-3,27-18,37.5-45,33l-1.5,3c-58.5,15-10.5,52.5,12,73.5c-19.5-6-33-10.5-54-12c-9-60-69-64.5-61.5,1.5
				c-22.5-10.5-58.5-30-72,4.5c-10.5,25.5,19.5,43.5,34.5,57c73.5,70.5,81-1.5,93-6c12,3,28.5,15,24,28.5c-18,13.5-18,3-33,27
				c-19.5-10.5-30,19.5-58.5,9c-22.5-9-31.5-46.5-51-49.5c-6,4.5-4.5,1.5-7.5,10.5c-4.5-33-18-28.5-42-43.5l-3-1.5
				c-3-9-13.5-21-21-30c7.5-9,76.5-22.5,37.5-60c-18-16.5-28.5-13.5-51-13.5c-10.5-16.5-13.5-18-28.5-30c24-21,57-13.5,43.5-58.5
				c16.5-16.5,25.5-22.5,49.5-21C4764,1480.5,4773,1480.5,4782,1482L4782,1482z"/>
			<path fill="#FCAA1A" d="M4944,1593c-30-18-15-21-36-42c-15-7.5-30-4.5-40.5-21c-18-31.5,22.5-45,48-34.5c18,7.5,24,15,33,31.5
				c12,6,21,10.5,33,18l7.5,12l1.5,3C4986,1588.5,4971,1599,4944,1593z"/>
			<path fill="#FCAA1A" d="M4773,1503c30-1.5,81,27,96,54c10.5,18-12,33-27,37.5c-1.5,0-3,0-3,0c-21-4.5-27-15-37.5-31.5
				C4749,1563,4717.5,1530,4773,1503z"/>
			<path fill="#D45901" d="M5010,1710c1.5-12,3-16.5,13.5-22.5c12,0,7.5-1.5,19.5,6c10.5,18,6,28.5,10.5,49.5c6,9,15,22.5,15,31.5
				l-1.5,3c4.5,1.5,12,4.5,15,6c12,10.5,21,21,22.5,37.5c0,7.5-3,15-9,21c-4.5,4.5-12,6-19.5,7.5c13.5,34.5,9,46.5-28.5,45
				c-6,6-15,15-19.5,19.5c-6-7.5-7.5-21-10.5-30c-52.5,22.5-93,9-87-55.5c12,25.5,48,55.5,64.5,13.5c10.5-25.5-9-57-21-81
				c16.5,4.5,34.5,9,49.5-4.5C5041.5,1743,5023.5,1722,5010,1710L5010,1710z"/>
			<path fill="#EC8315" d="M5065.5,1779c4.5,1.5,12,4.5,15,6c12,10.5,21,21,22.5,37.5c0,7.5-3,15-9,21c-4.5,4.5-12,6-19.5,7.5
				c-9-3-18-9-22.5-16.5C5037,1812,5046,1792.5,5065.5,1779z"/>
			<path fill="#EC8315" d="M4989,1561.5c12,12,18,52.5,31.5,54c6,30,24,46.5,22.5,78c-12-7.5-7.5-6-19.5-6
				c-10.5,4.5-13.5,10.5-13.5,22.5c-36-16.5-40.5-3-60-43.5c13.5,6,52.5,21,58.5-1.5c10.5-37.5-40.5-58.5-67.5-69l1.5-3
				C4971,1599,4986,1588.5,4989,1561.5z"/>
			<path fill="#BC5E1D" d="M4689,1735.5c-13.5-34.5,3-46.5,36-43.5l3,1.5c24,15,36,10.5,42,43.5c3-9,0-6,7.5-10.5
				c19.5,4.5,28.5,42,51,49.5c28.5,10.5,39-19.5,58.5-9c13.5,48,42,24,45,63c-6,63,34.5,78,87,55.5c3,9,4.5,22.5,10.5,30
				c43.5,22.5,19.5,40.5-15,51c0,48-18,57-63,63c-15-9-19.5-12-33-22.5l-19.5-39c4.5-6,7.5-12,10.5-18c21-45-16.5-105-58.5-123
				c-10.5-6-19.5-9-31.5-7.5c-30,6-27-18-55.5-28.5c-10.5-4.5-37.5,4.5-46.5,1.5c-27-37.5-82.5-46.5-93,10.5c-1.5,6-49.5,3-46.5,30
				c4.5,51-64.5,24-34.5,82.5l-6,19.5c-4.5,1.5-12,6-16.5,6h-3c3-3,7.5-4.5,7.5-9c0-36,27-94.5,12-127.5c-13.5-12-27,0-37.5,9
				c-1.5-13.5-3-33,13.5-37.5c42-9,21-46.5,36-61.5c18-1.5,24,28.5,58.5,16.5c18-4.5,33-21,45-19.5l16.5,10.5l-3-3
				C4684.5,1726.5,4678.5,1731,4689,1735.5L4689,1735.5z"/>
			<path fill="#FCAA1A" d="M4689,1735.5c-13.5-34.5,3-46.5,36-43.5l3,1.5c24,15,36,10.5,42,43.5
				C4749,1774.5,4714.5,1750.5,4689,1735.5z"/>
			<path fill="#F69711" d="M4716,1794c34.5-54,78,9,102,27c-30,6-27-18-55.5-28.5C4752,1788,4725,1797,4716,1794z"/>
			<path fill="#FCAA1A" d="M4542,1917c-31.5-58.5,39-33,34.5-82.5c-3-27,46.5-24,46.5-30c12-57,66-48,93-10.5
				c7.5,3,34.5-4.5,46.5-1.5c27,10.5,25.5,34.5,55.5,28.5c12-1.5,21,1.5,31.5,7.5c43.5,46.5,12,88.5-39,43.5
				c-6,16.5-4.5,19.5-21,25.5c-3,0-9,0-10.5,0l-3-1.5c-34.5-19.5-19.5-48-54-64.5c-10.5-4.5-15-3-24,4.5c1.5,12,19.5,18,22.5,30
				c4.5,18-16.5,31.5-33,31.5c-18,1.5-31.5-19.5-48-21C4599,1893,4599,1930.5,4542,1917L4542,1917z"/>
			<path fill="#FCAA1A" d="M4536,1936.5c7.5,1.5,19.5,1.5,25.5,6c31.5,21,40.5-43.5,76.5-34.5c58.5,13.5,40.5,49.5-7.5,63
				c-1.5,12,28.5,31.5,36,40.5c7.5-15,12-27,28.5-33c31.5-10.5,73.5,13.5,85.5,42c6,15,0,30-16.5,34.5c-21,0-21-13.5-43.5-10.5
				c-22.5,3-33-6-49.5-21l-13.5,24c-10.5,0-19.5-1.5-30,3c-4.5,4.5-6,6-9,12c-25.5-4.5-28.5-7.5-51-24c1.5-10.5,6-21,3-30
				c-15-1.5-58.5,40.5-78,18c-24-28.5,1.5-66,22.5-85.5C4522.5,1942.5,4531.5,1938,4536,1936.5L4536,1936.5z"/>
			<path fill="#F69711" d="M4779,1897.5c3,0,9-1.5,10.5,0l-6,3c43.5,31.5-19.5,88.5-52.5,52.5c-7.5-7.5-10.5-9-10.5-21
				c4.5-13.5,7.5-12,16.5-19.5C4755,1893,4762.5,1902,4779,1897.5z"/>
			<path fill="#FCAA1A" d="M4612.5,1531.5c1.5-3,1.5-4.5,3-7.5c7.5-13.5,19.5-24,36-28.5c21-6,37.5-4.5,57,6
				c13.5,46.5-19.5,39-43.5,58.5c16.5,12,18,13.5,28.5,30c21-1.5,33-3,51,13.5c39,36-31.5,49.5-37.5,60c7.5,10.5,19.5,21,21,30
				c-33-3-49.5,7.5-36,43.5c-9-4.5-4.5-10.5-24-18l3,3l-16.5-10.5c-12,0-27,16.5-45,19.5c-36,12-42-16.5-58.5-16.5
				c-15,15,4.5,52.5-36,61.5c-16.5,4.5-15,22.5-13.5,37.5c-10.5,16.5-9,81-46.5,64.5c-15-6-19.5-33-43.5-34.5
				c-13.5,6-16.5,15-22.5,28.5v1.5c-12-1.5-24-3-34.5-6c-7.5,9-16.5,16.5-16.5,27c-34.5-3-58.5-13.5-60-52.5
				c-1.5-10.5-4.5-28.5,1.5-39c-12-43.5-4.5-46.5,28.5-73.5c-36-51-13.5-96,52.5-84c3,0,16.5-10.5,21-13.5c31.5-19.5,54-36,93-25.5
				c6-7.5,6-15,10.5-24c15-31.5,36-27,63-21C4563,1554,4600.5,1545,4612.5,1531.5z"/>
			<path fill="#D45901" d="M4354.5,1647c3,0,16.5-10.5,21-13.5c31.5-19.5,54-36,93-25.5c27,49.5-7.5,57-49.5,60l-6,4.5l3,9
				c22.5,4.5,45,16.5,67.5,19.5c-3,6-4.5,13.5-10.5,15c-18,4.5-69,9-75,31.5c-7.5,31.5,28.5,33,45,33c-6,16.5-13.5,28.5-6,46.5
				c15,34.5,49.5,6,54-18c1.5-10.5,3-21,4.5-31.5c13.5-9,37.5-19.5,40.5-34.5c1.5-12-1.5-21,4.5-30c19.5-9,31.5,18,63,16.5l3,1.5
				c-36,12-42-16.5-58.5-16.5c-15,15,4.5,52.5-36,61.5c-16.5,4.5-15,22.5-13.5,37.5c-10.5,16.5-9,81-46.5,64.5
				c-15-6-19.5-33-43.5-34.5c-13.5,6-16.5,15-22.5,28.5v1.5c-12-1.5-24-3-34.5-6c-7.5,9-16.5,16.5-16.5,27
				c-34.5-3-58.5-13.5-60-52.5c-1.5-10.5-4.5-28.5,1.5-39c-12-43.5-4.5-46.5,28.5-73.5C4266,1681.5,4288.5,1636.5,4354.5,1647
				L4354.5,1647z"/>
			<path fill="#F69711" d="M4354.5,1647c3,0,16.5-10.5,21-13.5c31.5-19.5,54-36,93-25.5c27,49.5-7.5,57-49.5,60l-6,4.5
				c-6,21-42,58.5-60,75c15,40.5,15,55.5-25.5,76.5c-4.5-1.5-9-3-12-4.5c-12-4.5-12-9-18-19.5l-1.5-3l-4.5-1.5c-7.5,3-12,6-18,10.5
				c-12-43.5-4.5-46.5,28.5-73.5C4266,1681.5,4288.5,1636.5,4354.5,1647z"/>
			<path fill="#EC8315" d="M4302,1731c-36-51-13.5-96,52.5-84c-13.5,15-33,33-39,52.5C4311,1716,4320,1723.5,4302,1731z"/>
			<path fill="#EC8315" d="M4273.5,1806c6-4.5,12-7.5,18-10.5l4.5,1.5l1.5,3c4.5,12,6,16.5,18,19.5c4.5,1.5,9,3,12,4.5
				c-6,1.5-18,3-24,1.5c-9,0-19.5-9-30-7.5c-4.5,7.5-3,15-3,24C4272,1833,4269,1815,4273.5,1806L4273.5,1806z"/>
			<path fill="#EC8315" d="M4612.5,1531.5c15,18,13.5,16.5,34.5,28.5c-7.5,4.5-12,6-19.5,10.5c-9,6-18,36-30,30
				c-25.5-13.5-51-34.5-82.5-21c-15,6-25.5,21-22.5,37.5c15,21,45,16.5,57,28.5c-10.5,25.5-57,9-66,57c-22.5-4.5-45-16.5-67.5-19.5
				l-3-9l6-4.5c42-3,76.5-10.5,49.5-60c6-7.5,6-15,10.5-24c15-31.5,36-27,63-21C4563,1554,4600.5,1545,4612.5,1531.5z"/>
			<path fill="#EC8315" d="M4704,1662c7.5,10.5,19.5,21,21,30c-33-3-49.5,7.5-36,43.5c-9-4.5-4.5-10.5-24-18l3,3l-16.5-10.5
				c-12,0-27,16.5-45,19.5l-3-1.5c18-18,22.5-21,39-42C4674,1692,4690.5,1696.5,4704,1662L4704,1662z"/>
			<path fill="#669D24" d="M4720.5,144c61.5-3,31.5,24,36,52.5c9,10.5,31.5-10.5,55.5,0c15,21-40.5,67.5-55.5,82.5
				c13.5,3,28.5,7.5,36,19.5c-4.5,21-57,37.5-78,49.5c-13.5,7.5-25.5,18-36,30c-28.5,33-9,64.5-19.5,78c-22.5-3-39-49.5-75-61.5
				c-42-18-88.5-21-135-22.5c-15,0-60,3-63-15c6-9,12-10.5,21-15c-12-6-25.5-12-30-25.5c0-9,3-10.5,7.5-18c16.5-3,28.5,0,46.5-1.5
				c0-12-3-22.5,7.5-28.5c25.5,4.5,57,49.5,75,46.5l-1.5,1.5h3c-19.5-25.5-70.5-52.5-75-85.5c4.5-13.5,19.5-18,31.5-24
				c13.5,3,24,7.5,37.5,13.5c-1.5-16.5-9-54,25.5-46.5c22.5,4.5,34.5,28.5,45,46.5c7.5-12,9-19.5,24-21C4629,216,4611,294,4632,312
				c22.5-18,1.5-111,27-147c7.5-4.5,4.5-4.5,13.5-3c9,4.5,12,13.5,18,22.5C4702.5,166.5,4707,156,4720.5,144z"/>
			<path fill="#5D921B" d="M4524,330h3v4.5c-13.5,13.5-37.5,7.5-52.5,0c-1.5,0-1.5-3-3-3C4488,333,4510.5,339,4524,330z"/>
			<path fill="#669D24" d="M5325,1068c19.5-1.5,54-6,58.5,19.5c-3,12-9,12-18,22.5c3,10.5,36,7.5,51,27c3,25.5-36,27-55.5,28.5
				c24,7.5,81,21,79.5,52.5c-4.5,10.5-9,10.5-18,16.5l-4.5,4.5c3,15,12,34.5,10.5,49.5c0,6-3,6-7.5,10.5c-16.5,3-34.5-6-49.5-12
				c-3,10.5-4.5,21-13.5,28.5c-43.5,15-49.5-103.5-105-120c-7.5-1.5-12-6-19.5-1.5c0,9,37.5,51,46.5,61.5c4.5,12,7.5,16.5,0,28.5
				c-9,4.5-18,1.5-28.5,1.5c-7.5,13.5,6,51-13.5,58.5c-33,13.5-49.5-28.5-60-52.5c-6,16.5-10.5,33-30,36c-25.5-9-19.5-40.5-18-61.5
				c-15,9-25.5,12-43.5,12c-31.5-15,31.5-78,39-99c-3-25.5-31.5-49.5-25.5-69c21-21,102-3,136.5-12
				C5274,1090.5,5293.5,1081.5,5325,1068z"/>
			<path fill="#F69711" d="M4930.5,628.5c-12-9-24-16.5-24-33c7.5-18,40.5-66,54-82.5c7.5-7.5,39-4.5,51-4.5
				c16.5,12,37.5,4.5,43.5,13.5c25.5,22.5,60-6,67.5,55.5c-4.5,34.5-19.5,27-45,36c-4.5,1.5-10.5,12-12,18
				c-67.5,22.5-48-37.5-63-52.5c-15,1.5-28.5,24-36,36c43.5,15,33,34.5,16.5,70.5l-1.5,7.5c-7.5-39-36-37.5-54-7.5
				c-3,4.5-6,22.5-7.5,28.5c-28.5,0-45-4.5-67.5,16.5l-3-3c7.5-9,18-28.5,22.5-31.5C4921.5,660,4909.5,688.5,4930.5,628.5z"/>
			<path fill="#EC8315" d="M4009.5,1470c49.5,19.5,76.5,30,72,90c25.5,16.5,60,48,43.5,85.5c-3,7.5-25.5,16.5-33,15
				c-43.5-25.5-22.5-97.5-78-99c-4.5-10.5-37.5-64.5-43.5-73.5l16.5-12C3991.5,1476,4000.5,1473,4009.5,1470L4009.5,1470z"/>
			<path fill="#FCAA1A" d="M3556.5,1656c18,3,43.5-1.5,57,4.5c16.5,19.5-6,52.5-9,75l-7.5,6c-39,7.5-81-9-61.5-58.5
				C3535.5,1683,3556.5,1656,3556.5,1656z"/>
			<path fill="#FCAA1A" d="M3403.5,1515c27,1.5,85.5,25.5,76.5,60c-6,9-15,10.5-25.5,15c-37.5,37.5-51,7.5-66-27
				C3391.5,1543.5,3390,1527,3403.5,1515z"/>
			<path fill="#FCAA1A" d="M3790.5,675c9,0,25.5-1.5,31.5,4.5c18,18,7.5,49.5-9,66c-6,6-15,4.5-22.5,4.5c-16.5-9-42-19.5-43.5-39
				C3753,693,3774,685.5,3790.5,675L3790.5,675z"/>
			<path fill="#FCAA1A" d="M3303,1615.5c34.5,0,55.5,51,33,76.5c-9,6-18,4.5-28.5,4.5c-30-4.5-34.5-27-40.5-52.5
				C3286.5,1635,3288,1633.5,3303,1615.5z"/>
			<path fill="#EC8315" d="M5023.5,1525.5c12,0,22.5,6,28.5,15c9,10.5,10.5,19.5,13.5,33l-15,1.5c-1.5,12,0,13.5-9,21
				c-12,7.5-13.5,7.5-22.5,19.5c-13.5-1.5-19.5-42-31.5-54l-1.5-3l-7.5-12C5005.5,1531.5,4995,1527,5023.5,1525.5z"/>
			<path fill="#D45901" d="M4989,1558.5l4.5-6c16.5-1.5,43.5,13.5,58.5,21c-1.5,12,0,13.5-9,21c-12,7.5-13.5,7.5-22.5,19.5
				c-13.5-1.5-19.5-42-31.5-54L4989,1558.5z"/>
			<path fill="#FCAA1A" d="M4092,1356c43.5-1.5,40.5,39,43.5,70.5c-16.5,0-22.5,0-37.5,4.5c-19.5,1.5-33-22.5-37.5-39
				C4054.5,1374,4078.5,1378.5,4092,1356L4092,1356z"/>
			<path fill="#FCAA1A" d="M3721.5,540c4.5,0,13.5-1.5,15,3c7.5,21,4.5,49.5-16.5,61.5c-9,4.5-22.5,0-31.5-3s-18-6-24-15
				C3663,564,3703.5,544.5,3721.5,540z"/>
			<path fill="#FCAA1A" d="M3936,699c36-1.5,63,15,43.5,57c-1.5,4.5-12,4.5-16.5,4.5c-33,10.5-48-16.5-42-46.5
				C3921,705,3928.5,702,3936,699L3936,699z"/>
			<path fill="#FCAA1A" d="M3594,652.5c15,1.5,36,18,36,36c-4.5,10.5-1.5,7.5-12,13.5c-15-6-31.5-9-37.5-25.5
				C3580.5,666,3586.5,660,3594,652.5z"/>
			<path fill="#FCAA1A" d="M3852,816c19.5,3,40.5,28.5,30,49.5C3835.5,871.5,3844.5,850.5,3852,816z"/>
			<path fill="#FCAA1A" d="M3427.5,1741.5c1.5,0,6,0,7.5,0c13.5,9,22.5,18,18,34.5c-6,7.5-3,6-15,9c-15-6-30-15-28.5-33
				C3415.5,1744.5,3415.5,1746,3427.5,1741.5z"/>
		</g>
	</g>
</g>
</svg>
