<?xml version="1.0" encoding="utf-8"?>
<!-- Generator: Adobe Illustrator 27.9.0, SVG Export Plug-In . SVG Version: 6.00 Build 0)  -->
<svg version="1.1" id="svg" xmlns="http://www.w3.org/2000/svg" xmlns:xlink="http://www.w3.org/1999/xlink" x="0px" y="0px"
	 viewBox="0 0 3000 3000" enable-background="new 0 0 3000 3000" xml:space="preserve">
<g>
	<defs>
		<rect id="SVGID_1_" width="2999.91" height="2999.91"/>
	</defs>
	<clipPath id="SVGID_00000062893900071739148790000006533965149712054669_">
		<use xlink:href="#SVGID_1_"  overflow="visible"/>
	</clipPath>
	<g clip-path="url(#SVGID_00000062893900071739148790000006533965149712054669_)">
		<path fill="#C71814" d="M0,0h3000v3000H0V0z"/>
		<path fill="#FEF6D8" d="M637.73,1057.944c-40.525-54.023-81.341-129.356-69.475-199.477c6.195-36.609,60.661-46.078,91.222-38.934
			c21.125,3.116,44.017,18.469,54.958,37.002c19.333,11.079,46.312,14.64,67.742,21.939c15.592,5.31,28.535,18.779,43.279,23.77
			c10.878,3.681,28.106,0.054,40.573,1.809c12.579,1.769,28.704,15.685,37.676,17.521c27.51,5.625,57.485,5.865,85.291,12.186
			c20.498,2,71.848,8.301,88.679,16.466c20,3.36,52.749,9.517,72.529,9.133c17.241,2.452,49.34,4.286,67.024,5.191l1.866-1.885
			c3.482,4.213,37.456,11.568,43.655,11.842c5.716-0.494,7.462-0.672,12.967-2.103c6.904,4.37,7.776,4.072,15.712,5.505l2.589,0.492
			l1.557,0.275c28.504,2.644,113.24,9.094,132.977,28.053c1.211,4.585,2.366,7.66,2.128,12.423l1.021,1.159
			c-4.717,10.354-34.065,22.759-44.464,28.491c-8.752,4.824-19.635,14.101-27.659,18.35c-19.395,10.27-45.899,23.572-56.851,43.792
			c-11.244,20.761-16.837,59.613-20.506,83.375c-1.312,8.496-7.872,65.741-7.201,73.266l1.362,0.189l2.596-2.635
			c23.855,4.185,54.595,25.544,68.842,46.288c21.564,31.396,22.898,61.21,39.413,93.078c2.736,5.278,12.929,16.472,14.08,20.492
			c18.034,14.995,46.931,1.157,53.643,18.173c-3.173,46.563-86.704,31.358-104.66-29.244l-1.129,0.879
			c-6.088,4.834-17.552,15.466-17.81,23.71c-0.52,16.607,23.591,23.423,37.015,32.146c28.504,18.516,24.835,73.52-14.177,72.188
			c-24.583-0.85-30.725-22.266-41.946-39.624c-10.493-16.113-29.458-22.427-44.933-32.007c-0.284,4.937-0.832,7.017,1.184,11.558
			c31.009,16.157,29.804,19.277,51.617,46.157c12.601,15.527,97.931,104.971,87.91,122.593c-18.486,6.665-74.613-13.74-96.22-17.139
			c50.297,24.653,137.555,64.497,191.814,76.143c-10.913-37.866-24.8-67.778-35.786-103.33
			c11.909-10.562,20.244-17.124,35.625-22.734c18.911,63.237,46.011,137.446,44.927,202.383c-19.35,0.234-45.776,0.63-64.98-1.348
			c45.732,20.713,64.321,27.598,86.104,73.594c14.297-16.523,28.726-34.907,47.607-46.435c9.697-5.918,32.666-12.466,39.99-19.482
			c-6.724-1.26-10.972,0.366-14.399-1.816c-0.205-5.889,32.095-83.481,36.738-94.483c42.905-100.928,86.558-201.548,130.928-301.837
			c44.956-101.695,96.357-207.578,119.78-316.622c10.225-47.549,8.687-85.312,7.837-132.848c7.178-1.563,15.366-3.595,22.559-4.534
			c2.388,19.015,13.784,74.134,24.038,85.225c34.731,37.535,21.064,57.615,25.562,105.029c1.875,19.729,11.411,41.569,19.453,59.95
			c25.342,65.266,42.554,91.86,98.115,134.931c15.088,11.467,30.396,22.632,45.938,33.486
			c-10.825,15.439-20.742,29.187-32.315,44.06c-56.748-37.343-78.735-21.486-102.392-94.087
			c-5.889-18.205-11.396-36.538-16.494-54.984c-5.2-19.074-9.858-43.96-17.637-62.117c-2.109-4.916-4.629-4.937-8.408-4.573
			c-4.219,3.543-4.482,9.201-4.893,14.36c-4.731,58.846-0.015,267.041,36.064,307.939c7.603,8.613,17.051,14.18,26.572,20.347
			c-4.306,7.925-6.665,12.334-12.041,19.629c-16.582,5.127-80.654,26.206-94.028,26.499c-6.548,0.073-13.022-1.538-18.779-4.673
			c-14.062-7.5-66.387-56.323-81.753-69.478c-40.84,69.478-92.549,135.439-132.671,202.808
			c62.71-24.961,118.872-47.607,183.457-68.877c33.399-11.001,87.012-24.199,117.188-36.064
			c-21.328,44.722-42.949,89.297-64.849,133.726c-12.803,26.499-28.345,62.109-43.125,87.012
			c-19.014,32.007-44.59,62.974-64.233,95.244c-83.042,136.348-173.057,266.792-281.631,384.404
			c-25.342,27.451-44.707,70.869-72.642,94.629c-12.642-33.853-17.798-66.577-17.095-102.847c-1.04-8.232-0.703-18.501-1.758-27.935
			l-2.007-1.143c-2.915,35.625-13.853,121.992-21.646,153.545c-128.033,24.683-381.863,61.143-452.837-81.416
			c-39.042-78.413-40.717-178.271-39.851-263.95c0.561-55.62-42.996-107.183-36.129-163.843
			c19.512-142.471,260.764-172.017,302.445-300.981c-28.046,13.682-53.906,32.856-80.256,49.541
			c-60.375,39.434-132.867,76.055-186.926,123.442c-67.712,59.37-116.653,84.463-208.466,91.611
			c32.309,7.251,98.76,18.809,124.893,37.31c25.248,17.871,38.016,81.797,41.433,112.603c-20.855,26.616-71.246,78.311-99.057,98.95
			c-66.737,49.541-186.037,125.918-264.517,145.957c-45.665-95.361-57.8-163.359-59.574-268.857
			c27.246-30.718,71.555-63.091,106.642-85.005c18.445-11.528,63.64-29.077,76.192-43.184c14.665-22.764,18.936-56.675,27.93-82.192
			c38.202-108.369,125.197-195.425,217.062-263.467c0.335-59.802-16.018-132.48-26.917-191.474
			c-4.923-26.65-9.327-54.709-18.337-80.263c-3.57-10.122-8.247-16.084-16.023-23.518c-9.615-0.504-20.335-0.065-28.994-3.56
			l-1.282-1.843l-1.228-0.163c-8.41-7.21-21.138-14.597-30.71-20.632c-24.948-15.729-42.337-28.731-60.795-51.533
			c22.37-24.082,46.015-32.357,76.868-42.612c18.357-11.917,26.719-10.312,33.943-32.171c2.666-20.544,5.72-41.641-18.22-48.924
			c-13.857,0.691-46.62,2.943-59.341,1.37c-14.196,0.642-33.886,1.194-47.421,4.175
			C690.22,1038.366,664.537,1049.912,637.73,1057.944L637.73,1057.944z"/>
		
			<linearGradient id="SVGID_00000158715522819649222520000007179132041789835433_" gradientUnits="userSpaceOnUse" x1="932.954" y1="1990.2313" x2="1439.8312" y2="1312.608" gradientTransform="matrix(1 0 0 -1 0 3002)">
			<stop  offset="0" style="stop-color:#FA8215"/>
			<stop  offset="1" style="stop-color:#FFB51D"/>
		</linearGradient>
		<path fill="url(#SVGID_00000158715522819649222520000007179132041789835433_)" d="M637.73,1057.944
			c-40.525-54.023-81.341-129.356-69.475-199.477c6.195-36.609,60.661-46.078,91.222-38.934
			c21.125,3.116,44.017,18.469,54.958,37.002c19.333,11.079,46.312,14.64,67.742,21.939c15.592,5.31,28.535,18.779,43.279,23.77
			c10.878,3.681,28.106,0.054,40.573,1.809c12.579,1.769,28.704,15.685,37.676,17.521c27.51,5.625,57.485,5.865,85.291,12.186
			c20.498,2,71.848,8.301,88.679,16.466c20,3.36,52.749,9.517,72.529,9.133c17.241,2.452,49.34,4.286,67.024,5.191l1.866-1.885
			c3.482,4.213,37.456,11.568,43.655,11.842c5.716-0.494,7.462-0.672,12.967-2.103c6.904,4.37,7.776,4.072,15.712,5.505l2.589,0.492
			l1.557,0.275c28.504,2.644,113.24,9.094,132.977,28.053c1.211,4.585,2.366,7.66,2.128,12.423l1.021,1.159
			c-4.717,10.354-34.065,22.759-44.464,28.491c-8.752,4.824-19.635,14.101-27.659,18.35c-19.395,10.27-45.899,23.572-56.851,43.792
			c-11.244,20.761-16.837,59.613-20.506,83.375c-1.312,8.496-7.872,65.741-7.201,73.266l1.362,0.189l2.596-2.635
			c23.855,4.185,54.595,25.544,68.842,46.288c21.564,31.396,22.898,61.21,39.413,93.078c2.736,5.278,12.929,16.472,14.08,20.492
			c18.034,14.995,46.931,1.157,53.643,18.173c-3.173,46.563-86.704,31.358-104.66-29.244l-1.129,0.879
			c-6.088,4.834-17.552,15.466-17.81,23.71c-0.52,16.607,23.591,23.423,37.015,32.146c28.504,18.516,24.835,73.52-14.177,72.188
			c-24.583-0.85-30.725-22.266-41.946-39.624c-10.493-16.113-29.458-22.427-44.933-32.007c-0.284,4.937-0.832,7.017,1.184,11.558
			c-2.234,9.097-1.479,56.499-1.209,68.247c1.185,51.665-1.056,104.795,0.856,156.211c0.829,21.372,1.983,42.715,3.464,64.043
			c0.807,12.012,1.913,23.979,1.976,36.021c0.042,8.027-6.705,14.37-7.471,20.845l-2.259,0.688
			c-4.62-8.892-16.298-15.776-16.865-28.037c-0.633-21.958,2.777-44.824,5.659-66.709c10.852-82.427-2.224-165.191-10.431-247.222
			c-1.106-11.06-2.982-22.679-2.745-33.734c-105.18-1.589-189.155-3.642-286.053,50.536c0.234,11.25-0.873,23.467-1.86,34.731
			c-3.561,40.591-4.942,81.079-5.539,121.802c-0.076,5.273-2.53,11.265-6.908,14.37l-5.782,1.392
			c-5.162-2.153-10.071-7.866-10.09-13.418c-0.127-35.2-0.236-69.99-4.037-105.146c-1.094-10.122-0.883-24.609-3.683-33.794
			c0.335-59.802-16.018-132.48-26.917-191.474c-4.923-26.65-9.327-54.709-18.337-80.263c-3.57-10.122-8.247-16.084-16.023-23.518
			c-9.615-0.504-20.335-0.064-28.994-3.559l-1.282-1.843l-1.227-0.163c-8.41-7.21-21.138-14.597-30.71-20.632
			c-24.948-15.729-42.337-28.731-60.795-51.533c22.37-24.082,46.015-32.357,76.868-42.612
			c18.357-11.917,26.719-10.312,33.943-32.171c2.666-20.544,5.72-41.641-18.22-48.924c-13.857,0.691-46.62,2.943-59.341,1.37
			c-14.196,0.642-33.886,1.194-47.421,4.175C690.22,1038.366,664.537,1049.912,637.73,1057.944L637.73,1057.944z"/>
		<path fill="#FEC350" d="M637.73,1057.944c-40.525-54.023-81.341-129.356-69.475-199.477c6.195-36.609,60.661-46.078,91.222-38.934
			c21.125,3.116,44.017,18.469,54.958,37.002c19.333,11.079,46.312,14.64,67.742,21.939c15.592,5.31,28.535,18.779,43.279,23.77
			c10.878,3.681,28.106,0.054,40.573,1.809c12.579,1.769,28.704,15.685,37.676,17.521c27.51,5.625,57.485,5.865,85.291,12.186
			c20.498,2,71.848,8.301,88.679,16.466c20,3.36,52.749,9.517,72.529,9.133c17.241,2.452,49.34,4.286,67.024,5.191l1.866-1.885
			c3.482,4.213,37.456,11.568,43.655,11.842c5.716-0.494,7.462-0.672,12.967-2.103c6.904,4.37,7.776,4.072,15.712,5.505l2.589,0.492
			l1.557,0.275c28.504,2.644,113.24,9.094,132.977,28.053c1.211,4.585,2.366,7.66,2.128,12.423
			c-11.342,9.833-23.619,16.348-36.65,23.767c-3.24-2.433-5.026-3.398-8.505-5.389c-21.404,7.897-31.194,12.885-54.015,14.941
			c-30.993,37.327-65.185,25.264-107.047,38.643c-12.122,3.875-26.915,19.487-40.636,20.799c-30.346-4.235-46.05,6.056-73.614,14.47
			c-5.517,1.685-20.565-1.794-27.218-0.958c-14.125,2.473-35.905,6.29-49.361,9.63c-31.201,7.745-32.067,17.565-67.879,16.563
			c-7.021-8.31-16.623-21.04-21.634-30.54l0.467-1.736l2.659-0.674c-28.153-5.782-48.086-10.198-73.14-26.115
			c-13.424-4.967-20.834-7.793-32.057-16.724c2.666-20.544,5.72-41.641-18.22-48.924c-13.857,0.691-46.62,2.943-59.341,1.37
			c-14.196,0.642-33.886,1.194-47.421,4.175C690.22,1038.366,664.537,1049.912,637.73,1057.944L637.73,1057.944z"/>
		<path fill="#FEC350" d="M637.73,1057.944c-40.525-54.023-81.341-129.356-69.475-199.477c6.195-36.609,60.661-46.078,91.222-38.934
			c21.125,3.116,44.017,18.469,54.958,37.002c-1.481,10.115-4.869,12.609-9.428,21.596l9.258,12.644
			c0.337,1.31,1.039,4.371,1.504,5.502l2.161,1.118c1.784,4.19,4.241,8.64,4.361,12.915c5.685,0.535,6.961,2.769,10.517,7.305
			c1.088,12.734,2.758,18.124,8.752,29.755c6.456,21.573,19.745,27.385,37.06,39.438c2.426,1.689,8.076,4.988,9.773,6.79
			c1.714,11.375,26.307,27.026,35.433,33.306c-13.857,0.691-46.62,2.943-59.341,1.37c-14.196,0.642-33.886,1.194-47.421,4.175
			C690.219,1038.366,664.536,1049.912,637.73,1057.944L637.73,1057.944z"/>
		<path fill="#F77314" d="M659.477,819.533c21.125,3.116,44.017,18.469,54.958,37.002c-1.481,10.115-4.869,12.609-9.428,21.596
			l9.258,12.644c0.337,1.31,1.039,4.371,1.504,5.502l2.161,1.118c1.784,4.19,4.241,8.64,4.361,12.916
			c5.685,0.535,6.961,2.769,10.517,7.305c1.088,12.734,2.758,18.125,8.752,29.755c6.456,21.573,19.745,27.385,37.06,39.438
			c2.426,1.689,8.076,4.988,9.773,6.79c1.714,11.375,26.307,27.026,35.433,33.306c-13.857,0.691-46.62,2.943-59.341,1.37
			c-2.476-14.225-34.951-27.044-42.916-40.457c-6.417-10.81-6.835-21.286-10.049-32.456c-5.886-20.465-22.131-54.463-43.907-61.478
			c-9.149-2.949-20.602-5.647-29.149-9.771c-3.022-1.457-2.846-2.533-3.395-4.903C647.062,859.616,703.787,873.126,659.477,819.533
			L659.477,819.533z"/>
		<path fill="#D72911" d="M704.786,896.348c-1.925-7.074-17.212-8.572-20.927-19.162l2.092-1.532
			c7.989-0.705,11.332,0.605,19.056,2.477l9.258,12.645c0.337,1.31,1.039,4.371,1.504,5.502
			C711.548,895.194,708.019,892.885,704.786,896.348z"/>
		<path fill="#C71814" d="M704.786,896.348c3.233-3.463,6.762-1.154,10.983-0.07l2.161,1.118c1.784,4.19,4.241,8.64,4.361,12.915
			C712.879,907.683,709.578,904.68,704.786,896.348z"/>
		<path fill="#E94810" d="M874.104,1092.554c-10.541-13.881-10.635-29.512,4.938-39.672c27.051-17.65,67.163-17.21,97.935-12.422
			c20.878,3.123,73.041,21.873,65.105,48.602c-9.032,30.425-72.463,30.886-94.838,29.607
			C919.091,1112.887,899.158,1108.471,874.104,1092.554z"/>
		<path fill="#E94810" d="M741.561,947.372c21.316-19.27,42.429-17.471,72.943-19.484c24.771-1.633,119.769,32.142,83.241,68.871
			c-21.595,21.715-80.345,10.712-109.351-3.16c-1.698-1.802-7.348-5.101-9.773-6.79
			C761.306,974.757,748.017,968.944,741.561,947.372L741.561,947.372z"/>
		<path fill="#E94810" d="M988.995,933.76c20.498,2,71.848,8.301,88.679,16.466c10.487,9.568,28.51,15.533,24.199,33.967
			c-1.403,6.002-7.537,11.473-13.053,13.885c-31.72,13.869-71.833,13.699-104.817,4.412c-16.087-4.606-50.75-22.071-41.843-43.339
			c8.313-19.854,27.39-20.152,45.122-24.543C987.852,934.326,988.424,934.043,988.995,933.76z"/>
		<path fill="#E94810" d="M1295.572,978.677c28.504,2.644,113.24,9.094,132.977,28.053l-7.809,3.202
			c-31.835,11.413-56.418,20.361-90.786,13.764c-13.348-2.562-55.28-8.815-51.21-29.711
			C1279.97,987.699,1290.272,982.062,1295.572,978.677z"/>
		<path fill="#E94810" d="M1150.203,959.36c17.241,2.452,49.34,4.286,67.024,5.191l1.866-1.885
			c3.482,4.213,37.456,11.568,43.655,11.842l0.491,0.779l-0.407,1.474c-33.917,13.572-64.163,22.816-101.2,20.675
			c-12.983-0.752-37.361-0.171-40.693-16.711c2.675-11.766,21.472-13.072,30.983-19.2L1150.203,959.36z"/>
		<path fill="#E94810" d="M714.265,890.776c3.656-1.134,5.835-1.792,9.236-4.192c8.38-5.911,22.254-2.59,31.477-0.653
			c8.054,2.194,14.247,4.884,19.301,12.154c2.257,16.647-25.005,17.505-36.825,18.708l-4.645,0.825
			c-3.557-4.537-4.832-6.771-10.517-7.305c-0.12-4.276-2.577-8.726-4.361-12.915l-2.161-1.118
			C715.304,895.147,714.602,892.085,714.265,890.776L714.265,890.776z"/>
		<path fill="#D72911" d="M717.93,897.396l2.376-5.549c11.005-3.245,17.912,6.255,20.7,15.795c-1.046,4.642-1.444,5.035-3.552,9.149
			l-4.645,0.825c-3.557-4.537-4.833-6.771-10.518-7.305C722.171,906.035,719.714,901.585,717.93,897.396L717.93,897.396z"/>
		<path fill="#FE9E1D" d="M1420.74,1009.932l7.809-3.202c1.211,4.585,2.366,7.66,2.129,12.423
			c-11.342,9.833-23.619,16.348-36.651,23.767c-3.24-2.433-5.026-3.398-8.505-5.389c9.546-2.499,28.592-17.417,35.682-24.488
			L1420.74,1009.932z"/>
		<path fill="#E94810" d="M1111.381,1018.647c10.326-1.57,29.142-1.223,39.581-0.921c63.719,1.843,100.764,50.922,14.764,69.152
			C1088.297,1099.014,996.333,1031.83,1111.381,1018.647z"/>
		<path fill="#C71814" d="M953.42,1503.662c-2.007-17.886,0.454-42.028,0.618-60.148c0.552-61.175,2.729-119.382,20.298-178.622
			c6.656-22.443,10.261-80.944,34.692-93.018c36.647-18.11,87.57-23.924,127.737-32.956c13.712-2.981,44.205-0.81,51.781,11.192
			c11.224,5.014,23.162,25.022,22.096,37.838l2.574,1.496c3.303,15.977-4.415,45.003-3.054,62.919
			c0.382,5.027,1.383,21.378-0.724,25.336c6.311,9.754,5.593,12.164,15.195,18.434c7.194,0.239,6.467-0.954,11.049,2.602
			c2.459,10.288,2.229,47.556,0.151,57.968l1.286,24.193c3.908,12.611-2.347,24.861-2.919,38.55c-0.45,10.78,4.973,25.6,5.273,33.68
			C1134.293,1451.537,1050.318,1449.485,953.42,1503.662z"/>
		<path fill="#FEF6D8" d="M1188.546,1150.11c11.224,5.014,23.162,25.022,22.096,37.838l2.574,1.496
			c3.303,15.977-4.415,45.003-3.054,62.919c0.382,5.027,1.383,21.378-0.724,25.336c6.311,9.754,5.593,12.164,15.195,18.434
			c7.194,0.239,6.467-0.954,11.049,2.602c2.459,10.288,2.229,47.556,0.151,57.968l1.286,24.193
			c-17.849-7.61-36.853-15.022-47.411-33.057c-10.178-17.38,5.463-38.681,3.651-57.822c-1.176-12.434-8.183-21.231-13.679-32.621
			C1162.695,1222.194,1178.02,1185.412,1188.546,1150.11z"/>
		<path fill="#A9120D" d="M1224.633,1296.133c7.194,0.239,6.467-0.954,11.049,2.602c2.459,10.288,2.229,47.556,0.151,57.968
			c-3.741-2.136-7.352-4.493-10.812-7.059C1203.76,1333.994,1209.932,1313.952,1224.633,1296.133z"/>
		<path fill="#A9120D" d="M1210.642,1187.949l2.574,1.496c3.303,15.977-4.415,45.003-3.054,62.919
			c0.382,5.027,1.383,21.378-0.724,25.336C1188.47,1246.279,1199.339,1219.459,1210.642,1187.949z"/>
		<path fill="#FEF6D8" d="M1430.678,1019.153l1.021,1.159c-4.717,10.353-34.065,22.759-44.464,28.491
			c-8.752,4.824-19.635,14.1-27.659,18.35c-19.394,10.27-45.899,23.572-56.851,43.792c-11.244,20.761-16.837,59.613-20.506,83.375
			c-1.312,8.496-7.872,65.741-7.201,73.266l1.362,0.189l2.596-2.635c23.855,4.185,54.595,25.544,68.842,46.288
			c21.564,31.396,22.898,61.21,39.413,93.078c2.736,5.278,12.929,16.472,14.08,20.492c18.034,14.995,46.931,1.157,53.643,18.173
			c-3.173,46.563-86.704,31.358-104.66-29.244l-1.13,0.879c-6.088,4.834-17.552,15.466-17.81,23.71
			c-0.52,16.607,23.591,23.423,37.015,32.146c28.504,18.516,24.835,73.52-14.177,72.188c-24.583-0.85-30.725-22.266-41.946-39.624
			c-10.493-16.113-29.458-22.427-44.933-32.007c-1.182-9.816-4.32-23.808,0.177-32.61c-2.988-13.664-4.911-31.865-0.983-45.417
			c0.847-10.537-1.995-26.621,0.86-36.564c-1.324-8.496-0.513-22.83,2.613-30.841c-0.507-6.533-0.502-11.975-0.476-18.491
			c0.873-57.829,10.232-125.81,24.028-182c3.751-15.283,15.554-30.631,28.938-38.988c23.295-14.543,47.084-30.825,71.556-43.384
			C1407.058,1035.501,1419.335,1028.987,1430.678,1019.153L1430.678,1019.153z"/>
		<path fill="#A9120D" d="M1267.368,1356.624c-1.324-8.496-0.513-22.83,2.613-30.841c14.874,9.646,39.549,19.015,42.062,37.73
			c5.568,41.475-58.176,75.771-3.562,112.756c12.81,8.672,54.025,23.73,42.996,43.975c-7.783,1.904-19.761-17.549-26.395-21.929
			c-29.824-19.688-44.982-23.394-57.59-59.71c-2.988-13.664-4.912-31.865-0.983-45.417
			C1267.355,1382.651,1264.513,1366.567,1267.368,1356.624L1267.368,1356.624z"/>
		<path fill="#FEF6D8" d="M1267.368,1356.624c20.881,18.596,26.585,23.764,18.812,51.905c-8.237-5.058-12.954-7.897-19.671-15.341
			C1267.355,1382.651,1264.513,1366.567,1267.368,1356.624z"/>
		<path fill="#A9120D" d="M1430.678,1019.153l1.021,1.159c-4.717,10.353-34.065,22.759-44.464,28.491
			c-8.752,4.824-19.635,14.1-27.659,18.35c-19.394,10.27-45.899,23.572-56.851,43.792c-11.244,20.761-16.837,59.613-20.506,83.375
			c-1.312,8.496-7.872,65.741-7.201,73.266l1.362,0.189l2.596-2.635c23.855,4.185,54.595,25.544,68.842,46.288
			c21.564,31.396,22.898,61.21,39.413,93.078c2.736,5.278,12.929,16.472,14.08,20.492c-16.986-11.108-25.585-36.759-30.532-55.002
			c-10.764-41.062-30.63-75.448-70.592-93.678c-6.851-3.125-15.571-10.827-21.901-6.356c-2.2,6.127-1.178,13.326-0.863,20.046
			c22.585,25.222,40.749,10.578,55.295,50.35c-21.387-19.888-36.281-22.633-63.212-33.063c0.873-57.829,10.232-125.81,24.028-182
			c3.752-15.283,15.554-30.631,28.938-38.988c23.296-14.543,47.085-30.825,71.556-43.384
			C1407.059,1035.5,1419.335,1028.986,1430.678,1019.153L1430.678,1019.153z"/>
		<path fill="#FEC350" d="M808.104,1108c23.014,2.219,39.567-5.196,62.925,8.594c8.899,5.253,25.963,8.285,27.038,20.909
			c-2.251,5.394-7.991,9.85-13.345,11.911c-29.29,11.876-60.609,40.009-61.981,73.364c-8.41-7.21-21.138-14.597-30.71-20.632
			c-24.948-15.729-42.337-28.731-60.795-51.533C753.607,1126.531,777.252,1118.256,808.104,1108L808.104,1108z"/>
		<path fill="#AB7321" d="M895.055,1151.65c19.534-5.833,40.869,9.396,33.517,30.466c-6.113,9.804-14.509,15.655-25.059,20.25
			c-24.756,10.285-51.454,24.308-78.261,22.418l-1.282-1.843l-1.227-0.163c1.371-33.354,32.691-61.488,61.981-73.364
			L895.055,1151.65z"/>
		<path fill="#F77314" d="M884.723,1149.415l10.332,2.235l0.17,1.02c-23.955,14.542-52.917,34.128-67.305,58.286
			c-3.451,4.132-3.65,6.618-3.949,11.985l-1.227-0.163C824.114,1189.424,855.433,1161.29,884.723,1149.415z"/>
		<path fill="#A9120D" d="M895.225,1152.669l4.6,1.055c-9.875,5.854-72.709,57.461-71.905,57.231
			C842.307,1186.797,871.27,1167.211,895.225,1152.669z"/>
		<path fill="#9E6D20" d="M903.513,1202.366l-0.92-1.935c0.309-9.709,6.73-22.017,17.172-23.802
			c5.339,1.632,5.008,1.403,8.807,5.487C922.459,1191.92,914.063,1197.771,903.513,1202.366z"/>
		<path fill="#C71814" d="M925.96,1200.596c1.364,0.157,3.791,0.845,5.215,1.197c23.955,21.729,21.791,234.318,2.757,271.649
			c-35.262-12.87-13.787-206.106-21.026-243.968C910.941,1219.201,917.865,1207.705,925.96,1200.596z"/>
		<path fill="#FEF6D8" d="M931.928,1512.773c7.661,13.374,6.066,98.159,2.656,114.902c-1.192,0.146-0.333,0.132-2.382-0.981
			C931.087,1610.889,928.947,1524.126,931.928,1512.773z"/>
		<path fill="#FE9E1D" d="M933.331,1675.957l5.782-1.392c-1.156,17.183,9.201,30.923,5.697,47.388
			c-1.247,5.845-9.996,8.101-15.513,4.028C920.26,1706.045,937.592,1689.419,933.331,1675.957z"/>
		<path fill="#FE9E1D" d="M1266.114,1828.14c5.786,10.562,13.394,24.756,3.773,34.775c-14.402-0.044-8.301-25.298-6.032-34.087
			L1266.114,1828.14z"/>
		<path fill="#EBC0A3" d="M1468.184,2263.535l1.406-20.156l-0.205,1.567c0.278-0.615,2.183-4.673,2.153-5.215l-1.362,0.41
			l0.894-2.08l-1.04,3.794l1.89,0.103c0.439,11.528,1.289,39.316,0.029,50.654c-1.04-8.232-0.703-18.501-1.758-27.935
			L1468.184,2263.535z"/>
		<path fill="#A9120D" d="M1033.572,2292.773c5.051,0.513,7.638,0.41,12.228,2.695c-5.95,3.647-13.641,4.292-19.705,8.555
			c-16.121,11.294,1.137,40.151,17.549,41.235c3.351,0.234,6.669-0.806,9.277-2.915c8.681-7.031,5.807-15.674,9.048-19.028
			c3.804,3.003,4.431,6.87,6.059,11.602c-2.187,46.67-51.044,29.282-57.19-4.863C1007.08,2309.18,1012.38,2297.71,1033.572,2292.773
			z"/>
		<path fill="#FEF6D8" d="M116.468,2378.262c-6.757-27.876-16.731-52.031-19.828-82.749
			c-17.734-175.84,92.062-341.777,138.65-505.151c12.757-44.736,22.622-88.843,32.836-133.945
			c5.164-22.793,4.919-46.494,13.976-67.471c22.755-52.69,52.91-100.43,80.905-150.067c23.991-42.832,46.061-86.713,66.139-131.512
			c15.712-34.258,12.927-70.018,32.903-97.223c14.622-14.959,35.2-21.557,50.561-36.17c18.4-17.751,39.561-35.423,57.82-53.13
			c30.422-32.565,64.356-43.818,102.429-60.435c49.446-21.582,78.407-18.88,130.042-23.244
			c43.945-3.715,36.362,31.102,12.495,48.201c-24.866,17.815-66.492,18.122-93.684,32.928
			c-56.996,24.107-89.585,72.063-144.277,98.594c-10.557,5.123-27.498,8.259-36.185,15.59c9.182,18.481,66.456-6.601,80.962-11.966
			c19.336-7.301,38.884-14.029,58.617-20.175c28.985-9.278,46.129-14.358,76.116-0.308c31.581,14.798,83.364,40.771,59.106,83.878
			c-4.403,12.034-18.85,14.726-30.05,9.497c-46.173-21.564-85-12.125-130.749,4.925c-11.72,4.368-59.922,14.78-65.786,26.459
			c17.092,14.812,151.652-25.188,183.048-9.936c10.954,5.322,39.727,13.235,46.589,27.762c5.644,11.875,4.709,25.791,0.779,38.055
			c-10.875,34.02-39.01,7.797-56.412,8.75c-15.481,0.847-126.491,17.146-130.17,27.904c36.581,22.891,202.477-40.203,156.979,55.652
			c-19.393,40.854-97.771,24.961-136.609,33.311l2.169,1.699c-1.368,0.645-15.079,8.643-14.956,8.481
			c-15.933,20.757-32.898,40.283-51.136,59.399c-13.239,13.389-32.206,24.829-46.169,37.881
			c-5.585,4.731-17.767,43.081-19.025,50.64c2.539,7.939,15.486,2.959,21.363,1.26c13.543-3.926,35.669-13.066,45.815-22.954
			c33.155-32.329,58.44-71.426,77.877-113.276c0.809-1.743,1.226-3.97,1.594-5.698c-5.019-3.765-9.664-4.38-10.336-7.778
			c4.63-0.908,9.377,1.934,13.371,4.6c0.85,0.557,1.689,1.143,2.518,1.729c-10.973,24.814-33.508,63.018-49.603,83.965
			c-21.1,27.451-44.271,58.359-79.327,66.797c-18.466,4.731-43.245,5.288-53.161,23.291c-4.515,8.203-7.667,25.415-12.913,31.377
			c-3.18,0.674-5.14,1.069-8.251,1.978c-0.136,31.069-1.57,73.931-4.89,104.312c-18.038,165.073,16.651,320.61,30.962,483.164
			c7.815,88.755-32.915,194.531-95.062,257.329c-34.298,34.644-109.094,76.538-160.15,80.259
			c-35.02,0.952-65.278-17.827-90.072-40.415c-55.314-50.376-26.234-126.782-26.794-196.055c4.21-6.372,10.836-14.443,15.582-20.757
			c12.413-16.377,22.496-34.38,29.959-53.511c7.916-19.863,14.9-45.63,19.238-66.709c3.089-15.029,19.443-97.266,10.208-104.077
			c-5.508,8.657-14.085,33.428-18.234,43.813C163.677,2268.53,150.251,2334.873,116.468,2378.262z"/>
		<path fill="#A9120D" d="M653.672,1506.284l2.169,1.699c-1.368,0.645-15.079,8.643-14.956,8.481
			c-15.933,20.757-32.898,40.283-51.136,59.399c-13.239,13.389-32.206,24.829-46.169,37.881
			c-5.585,4.731-17.767,43.081-19.025,50.64c2.539,7.939,15.486,2.959,21.363,1.26c13.542-3.926,35.669-13.066,45.814-22.954
			c33.155-32.329,58.44-71.426,77.877-113.276c0.809-1.743,1.226-3.97,1.594-5.698c-5.019-3.765-9.664-4.38-10.336-7.778
			c4.63-0.908,9.376,1.934,13.371,4.6c0.85,0.557,1.689,1.143,2.518,1.729c-10.973,24.814-33.508,63.018-49.602,83.965
			c-21.1,27.451-44.271,58.359-79.327,66.797c-18.466,4.731-43.245,5.288-53.161,23.291c-4.515,8.203-7.667,25.415-12.913,31.377
			c-3.18,0.674-5.14,1.069-8.251,1.978c-17.856,1.567-35.531,4.761-52.806,9.551c-15.086,4.058-49.553,16.729-62.525,6.401
			c4.088-8.965,30.634-16.45,40.749-29.795c10.512-10.708,12.535-37.31,26.733-43.799c65.678-30.044,128.209-59.839,177.441-114.683
			C616.948,1541.924,634.585,1513.521,653.672,1506.284L653.672,1506.284z"/>
		<path fill="#A9120D" d="M196.396,2481.226c3.161,5.566,7.296,17.974,9.275,24.258c13.412,42.627,19.493,52.632,57.601,74.341
			C201.375,2573.467,201.708,2530.562,196.396,2481.226z"/>
		<path fill="#A9120D" d="M530.514,1331.761c5.55-0.132,3.744-1.148,7.252,1.287c-1.557,9.823-20.424,23.377-28.737,28.616
			c-4.773,0.176-6.315-0.053-8.065-4.361C505.012,1341.334,515.499,1335.22,530.514,1331.761z"/>
		<path fill="#A9120D" d="M573.688,1413.596c3.182-0.271,3.787-0.136,6.989,0.239l0.497,2.764
			c-4.299,10.126-16.711,19.787-26.713,24.16c-5.924-0.772-5.807,0.264-9.215-3.032
			C546.321,1428.511,565.906,1418.059,573.688,1413.596z"/>
		<path fill="#FEF6D8" d="M2489.048,1425.101c20.64-0.749,43.359,3.419,61.729,2.688c83.701-3.333,129.067,2.801,159.624,91.796
			c-37.998-23.994-44.106-82.099-111.182-64.522c-30.63,6.64-43.33,26.993-59.092,51.602
			c-18.076,28.213-35.112,60.396-55.254,87.378c-83.584,112.676-159.111,232.383-244.644,343.447
			c-71.133,92.344-156.548,177.173-233.364,264.609c-103.564,117.891-206.631,230.2-316.963,341.719l-99.8,102.437
			c-40.488,42.1-81.782,83.423-123.838,123.955c-34.86,33.472-70.975,65.947-106.211,98.994l-67.983,63.164
			c-11.354,10.488-31.419,29.663-43.368,38.291c-27.48,0.103-54.961,0.044-82.44-0.19
			c75.917-61.318,139.285-142.251,199.277-219.009l-1.443-3.882c-66.091,73.916-142.463,143.394-226.374,196.685
			c-55.878,35.493-80.855,27.949-145.582,26.133c8.953-18.677,21.13-45.498,35.148-60.293
			c31.878-33.267,73.339-55.825,108.905-84.668c30.696-24.771,57.979-53.247,86.687-80.112c15.88-14.868,31.799-31.831,47.839-46.04
			c51.209-45.396,87.869-97.104,129.702-150.688c41.339-52.075,82.163-104.561,122.476-157.441
			c33.091-43.462,55.151-76.611,93.486-116.177c32.432-33.633,66.943-65.171,103.33-94.468
			c83.013-65.933,176.265-126.196,251.104-201.46c58.359-58.711,113.921-123.618,172.251-182.827
			c23.306-23.657,52.734-86.836,80.801-100.093c4.189,1.274,3.311,1.773,6.431,6.445c1.772,8.408-14.473,39.097-18.721,48.809
			c-33.706,77.095-77.856,172.617-96.387,253.931c54.536-84.316,98.394-192.129,142.617-282.817
			c8.35-17.109,15.396-37.046,23.32-53.511c3.633-7.559,26.602-32.168,33.384-39.858c13.271-15.234,26.411-30.571,39.448-46.011
			c27.554-32.153,54.858-64.512,81.929-97.075C2450.625,1468.462,2473.316,1440.084,2489.048,1425.101L2489.048,1425.101z"/>
		<path fill="#DF7357" d="M1379.75,2729.634l0.39,4.072c-3.448,4.263-11.124,14.238-14.6,17.754l-1.443-3.882L1379.75,2729.634z"/>
		<path fill="#EBC0A3" d="M1394.515,2712.759c-3.965,7.573-8.279,14.839-14.376,20.947l-0.39-4.072
			C1384.831,2722.017,1388.12,2719.072,1394.515,2712.759z"/>
		<path fill="#C71814" d="M1701.24,2255.522c0.205,1.113,0.615,2.769,0.234,3.838c-45.19,129.038-120.923,243.823-210.762,346.128
			c-19.614,22.324-39.103,45.557-60.757,64.849c1.427-7.998,18.164-29.326,23.657-37.134
			C1540.107,2510.273,1618.154,2380.752,1701.24,2255.522z"/>
		<path fill="#FEF6D8" d="M2598.589,1495.386c20.918-1.523,87.261,18.647,107.007,27.861c11.646,5.479,22.632,12.231,32.783,20.142
			c41.895,32.153,52.002,62.402,78.193,103.696c64.658,101.953,101.851,203.687,115.327,323.877
			c4.175,37.266,5.566,76.948,10.371,114.434c-1.011,1.626-2.08,3.223-3.179,4.79c-20.566,29.282-51.211,56.792-87.319,63.354
			c0.601-32.549,4.16-66.387,5.273-98.467c2.373-68.203,3.398-174.858-19.863-239.663c-3.413,23.892-3.193,75.234-4.16,101.719
			c-2.344,57.759-5.801,115.488-10.371,173.13c-1.406,18.413-3.032,50.845-4.79,67.002c-6.24,57.407-97.896,100.649-143.936,135.337
			c-31.45,27.144-63.281,45.688-95.596,70.518c-28.711,22.061-57.085,46.04-86.162,68.35c-0.615-14.604-3.354-33.735-4.746-48.721
			c-2.651-28.784-4.644-57.627-6.006-86.499c-3.442-78.691,4.043-191.602,13.345-269.502c3.237,3.413,6.592,6.724,10.063,9.902
			c57.29,52.749,155.991,118.198,235.4,114.858c-13.711-3.091-27.349-6.431-40.928-10.02
			c-236.001-62.871-196.201-258.706-190.151-451.113c0.571-18.149-1.304-76.348,3.604-90.088
			C2527.749,1558.345,2559.331,1517.695,2598.589,1495.386z"/>
		<path fill="#FEF6D8" d="M1388.059,348.759c18.448,0.242,37.865,1.427,56.77,1.737c4.853,11.75,10.053,24.057,18.696,33.546
			c24.038,26.386,70.649,44.256,105.63,46.872c5.669,3.483,14.619,11.09,19.629,15.504c25.605,22.569,37.09,22.211,68.467,24.201
			c3.867,2.899,7.471,6.877,10.869,10.37c2.095,11.985,2.051,40.418,6.313,50.418c12.979,30.441,38.643,75.53,57.788,102.145
			c13.667,18.232,48.369,44.291,55.21,65.915c10.635,33.583-22.676,62.878-42.744,83.899c-9.229,14.616-14.15,26.703-26.895,38.965
			c-14.297,13.759-51.006,24.672-58.14,43.55c-15.703,41.546,38.965,44.83,53.174,69.497c2.549,4.443-3.604,12.267-6.035,15.645
			c12.832-3.001,53.13-14.571,43.184-30.734c-9.888-16.04-89.165-9.075-86.323-43.075c1.318-15.685,44.941-31.491,58.389-40.761
			c3.633,6.516,7.734,14.21,12.964,19.487c26.045,27.138,80.273,16.626,101.968,50.577c20.098,31.472,2.607,69.792-26.602,87.967
			c-17.637,10.964-32.227,10.958-52.148,8.054c-2.095-0.308-1.406-0.18-2.622-2.007c25.386-19.456,62.212-19.078,61.89-64.569
			c-0.059-7.437-2.607-17.711-7.866-22.953c-5.317,8.685,5.42,23.647-11.016,40.257c-27.788,28.084-60.278,13.695-90.044,32.881
			c-3.032,1.953-6.182,7.926-5.64,11.492c4.131,29.607,40.459,22.414,60.85,28.09c17.227,4.799,30.674,10.92,41.484,23.375
			c19.219,22.153,17.52,48.801,16.128,75.33l17.358-9.341c-6.812,10.693-15.894,47.899-5.376,56.169
			c2.959-29.559,26.221-44.317,48.135-64.51c-6.724,22.043-21.094,37.86-26.177,57.586c-3.047,11.843,10.444,41.263-7.09,52.837
			c-12.671,8.36-40.254,11.669-50.552-1.874c-11.47-16.885-4.585-38.645-1.904-57.256c6.021-41.87-58.11-38.058-57.993-0.986
			c0.059,15.861,18.267,12.949,27.246,20.812l-1.172,2.49c-6.753,4.261-7.544,4.726-15.864,3.826
			c-47.9-5.175-54.434-68.272-14.092-89.697c20.771-11.029,32.725-10.458,54.624-4.682c-1.758-1.148-3.545-2.26-5.361-3.337
			c-40.21-23.748-88.433,0.009-88.55,48.129c-0.029,10.572,2.256,17.136,5.552,26.94c-24.346-15.36-46.055-35.001-44.839-66.866
			c0.908-23.698,16.919-37.679,32.93-52.724l-1.055-2.002c-8.716,0.58-15.352,1.419-22.222-4.885
			c-7.603-6.964-14.399-19.446-13.726-30.133c1.919-30.268,30.601-52.453,5.376-83.188c-3.354-4.077-10.225-9.059-14.634-12.221
			c17.417,31.979,18.53,42.116-1.86,73.104c-3.325-28.465-20.2-39.259-40.869-56.632c9.331,14.115,22.646,30.378,28.081,49.566
			c7.954,28.122-20.537,86.653,11.982,104.553c0.586,0.327,2.783,0.252,3.413,0.255l1.67,0.377c0.19,6.145,0,12.778-0.059,18.967
			c-22.427-5.792-50.903-13.018-69.712-26.946c8.335,23.955,6.768,35.556,5.024,61.276c-16.787-54.412-33.208-42.747-67.822-63.728
			c-10.093-6.155-18.369-14.893-23.965-25.312c-18.94-34.793,2.681-49.458,7.72-84.435c2.666-18.481,1.172-32.451-3.589-50.325
			c66.255,50.922,0.688,78.917,31.099,133.981c-0.586-6.245-2.314-12.595-1.597-18.987c2.93-25.935,19.233-42.372,15.132-70.283
			c-7.896-53.609-62.109-71.752-100.661-100.566c18.047-28.15,17.279-56.691-12.724-79.043c-18.57-13.834-37.228-8.266-58.252-4.37
			l-0.872,1.664c4.449,4.568,10.922,4.863,17.292,4.31c25.603-2.184,68.919,24.256,49.015,53.303
			c-7.578,11.057-20.156,9.478-29.887,2.862c-43.337-28.822-85.815,28.969-127.975-4.853c-31.392-23.823,5.158-58.66,14.676-85.597
			c14.843-42.012,20.946-85.343,54.097-118.191c11.335-11.232,22.545-9.327,37.046-9.119c-11.025-5.735-32.338-12.394-32.695-26.687
			c-0.429-17.232,0.715-36.58,0.154-54.25c-6.932,30.199-10.641,76.818-52.334,55.465c-6.753-3.458-23.067-1.055-28.938-9.297
			c-3.625-20.331,11.364-33.154,18.785-50.807c13.254-31.532,17.548-62.596,24.103-95.37c4.906-24.533,16.481-57.754,41.259-67.597
			C1367.983,359.16,1369.743,360.372,1388.059,348.759L1388.059,348.759z"/>
		<path fill="#D72911" d="M1675.151,1010.454c10.02,10.09,11.514,15.64,23.804,21.816c-2.402,5.889-5.874,3.88-10.693,9.68
			l-1.055-2.003C1691.953,1030.323,1680.439,1020.265,1675.151,1010.454z"/>
		<path fill="#A9120D" d="M1375.947,532.805c1.874,7.242,2.635,14.953,4.1,22.512c14.628,75.445,93.044,11.228,134.441,4.409
			c32.153-5.294,62.959,12.268,87.48,28.907c-30.732-10.121-57.437-22.043-89.663-10.417c-10.752,3.88-42.231,18.933-47.417,29.086
			c3.516,8.999,17.153,7.944,26.265,8.391c48.896,2.399,89.443,23.234,133.184,43.395c-8.276-0.12-16.758-0.798-25.034-1.327
			c-14.502-0.425-39.639-12.472-54.829-16.878c-19.043-5.524-26.528-6.501-46.201-6.779c0.146,11.872,1.421,35.118-7.266,41.747
			c-2.651,2.026-4.307,4.942-5.127,8.125c2.051,2.221,3.193,2.49,6.138,3.102c40.869,8.476,61.729-3.349,94.116-24.258
			c-8.13,15.92-15.908,25.583-32.256,34.704c-19.629,10.95-45.718,14.594-67.368,8.528c-23.742-6.656-23.714-24.025-38.524-39.655
			c-4.091-4.318-15.06-10.012-20.85-13.33c-15.891-9.108-29.17-24.898-37.86-40.813
			C1371.76,580.181,1365.349,568.44,1375.947,532.805L1375.947,532.805z"/>
		<path fill="#A9120D" d="M1430.099,472.257c16.731-1.365,34.579-0.092,50.536,5.339c-16.745-0.374-31.882-1.104-48.611,0.722
			c-25.292,2.764-46.827,15.253-71.959,10.4c-21.647-6.535-23.793-7.937-46.132-8.167l-1.057-1.355l1.588-1.997
			c19.509-6.967,44.433,4.409,58.837,4.468C1388.695,481.732,1411.103,473.694,1430.099,472.257L1430.099,472.257z"/>
		<path fill="#C71814" d="M1439.339,433.515c-19.274,1.062-34.195,6.571-51.98,8.865c-13.488,1.74-40.604-4.928-55.954-7.244
			c8.949-3.255,36.11,1.985,46.658,1.706c28.566-0.753,44.856-8.938,74.158-6.114
			C1448.316,431.524,1443.037,432.441,1439.339,433.515L1439.339,433.515z"/>
		<path fill="#EBC0A3" d="M1452.221,430.728c4.622-0.048,5.5-0.283,10.046,0.899l-0.267,0.841
			c-8.941,1.897-13.688,1.387-22.661,1.046C1443.037,432.441,1448.316,431.524,1452.221,430.728z"/>
		<path fill="#FEF6D8" d="M1380.917,190.062c14.713-6.102,47.752-8.207,50.459-22.554c8.865-46.967,48.599-63.926,92.427-49.225
			c13.77,4.617,29.575,19.538,41.499,23.1c15.322-6.849,10.181-52.813,73.74-30.62c14.707,5.136,28.696,14.649,42.539,23.411
			c68.979-12.523,78.765,20.557,95.903,72.515c2.783,8.407,13.945,13.043,22.222,16.225c-11.045-32.648-13.096-58.806,25.078-70.261
			c15.659-4.698,29.736-2.213,45.645-2.918c37.368-3.97,52.295-7.342,87.1,11.436c24.272,13.097,29.854,27.792,46.406,42.961
			c35.391,3.391,57.847,6.853,82.632,35.279c21.753,24.96,17.827,46.497,27.349,67.075c22.603,10.588,83.438,17.792,70.151,60.649
			c-5.391,17.376-33.062,18.806-45.63,9.806c-13.008-7.879-18.486-18.721-26.382-30.782l0.249,2.338
			c4.688,39.771,37.31,82.288-18.516,105.409c13.931,4.012,33.618,9.127,39.258,24.149c13.843,36.82,2.49,66.653,48.984,86.856
			c8.804,3.82,16.304,0.173,21.167,3.703c2.886,21.082-47.036,48.23-70.122,23.812c-24.316-25.705-24.961-35.821-23.408-71.039
			c1.187-25.75-12.319-43.466-23.584-65.398c-25.254-12.042-53.276-23.927-72.671-44.823c-17.988-19.368-34.922-42.57-43.799-67.67
			c-1.201-3.451-2.241-6.958-3.105-10.509l1.304-1.437c7.925-8.623,19.585-16.329,25.356-25.494
			c23.906-37.944,9.024-47.653-11.206-75.626c-23.95-33.122-38.906-47.408-82.148-46.598c-18.076,1.037-38.306,9.009-50.566,23.319
			c-12.759,14.604-15.688,32.877-17.124,51.535c10.503,15.822,73.828,57.362,43.652,79.699c-4.131,0.62-8.452,0.303-11.426-2.889
			c-24.434-26.208-43.008-41.293-74.15-59.405c3.384-10.622,6.416-21.352,9.111-32.172c-32.725,26.717-76.641,41.394-110.684,2.137
			c-16.084-18.533-30.688-19.91-48.12-34.206c8.818-13.944,16.582-23.955,34.131-27.461c33.105-6.615,54.697,14.366,79.937,24.725
			c-20.391-36.615-59.707-60.848-101.807-39.646c-15.132,7.624-19.79,24.845-31.362,35.89l-1.934-1.105
			c-19.116-11.036-50.391-52.422-69.478-34.948c-2.021,4.824-1.699,2.306-0.352,7.865c6.108,6.869,23.716,10.389,31.89,17.212
			c14.897,12.45,24.888,26.632,40.415,38.433c33.311,0.094,55.591,4.787,75.337,33.822c3.779,5.539,9.771,10.431,9.976,17.625
			c-6.021,12.206-44.956,16.903-53.101,0.384c-1.011-13.471,10.635-16.54,7.031-20.443c-25.854-5.108-31.523,19.812-17.065,35.584
			c17.695,19.327,51.694,9.943,71.191-1.8c30.63-18.45,48.472-17.971,65.01,15.923c13.682,4.063,25.107,6.63,36.431,15.688
			c25.269,20.222,36.533,47.867,60.366,70.168c29.604,27.691,72.891,31.772,92.71,69.256c11.323,21.401,11.235,40.414,5.142,63.283
			c-11.177,41.858-78.618,60.582-57.114,106.819c1.963,4.225,3.442,6.5,7.515,8.435c2.534-0.763,5.728-1.81,6.123-4.705
			c3.428-25.752,8.188-32.363,25.327-52.446c3.208,30.437-1.45,45.037-3.003,74.479c6.387-12.059,12.949-47.64,27.334-48.196
			c17.388-0.672,56.748,16.135,69.771,27.765c23.262,20.782,25.488,42.791,28.931,70.348c5.713-30.891,6.108-42.026-2.651-72.308
			c6.548,0.388,15.498,0.647,21.768,1.704c10.02,10.953,14.37,20.627,13.477,35.29c-2.959,48.274-26.558,78.599-56.309,113.796
			c-17.432,20.627-31.597,48.592-54.756,65.997c-25.4,22.163-78.896,70.649-107.871,27.749
			c-3.867,13.661-10.737,42.76-29.824,39.119c-15.732-24.538-5.493-63.138-51.943-73.945c-23.569-5.486-54.946,5.972-71.865-12.757
			c-7.134-7.903-1.348-21.007,3.149-28.853c25.884,8.941,75.952-2.206,88.359,24.151l6.841-4.255
			c0.674-4.509,0.19-4.972-1.685-8.864c-12.568-26.067-69.492-3.888-79.775-24.126c-0.41-4.551,0.381-5.181,2.329-9.328
			c12.891-10.998,63.955-10.846,77.944,0.359c14.341,11.496,15.132,15.149,18.398,31.79c13.74,11.874,20.317,16.49,30.967,31.335
			c-10.063-24.454-29.443-48.016-32.3-77.322c3.94-2.202,4.014-2.628,8.394-3.168l-1.699,5.938l2.446,0.911
			c11.895-3.037,21.387-8.698,24.639-21.319c7.837-30.327-4.644-44.613-17.564-67.794l-1.435-2.602
			c-43.081-14.616-77.593-27.915-99.287-70.458c-51.299-100.585,56.528-89.44,78.735-155.058
			c8.994-26.578-10.283-49.078-18.735-71.767c-2.827-7.575-0.176-30.283-4.146-37.446c-5.435,1.805-12.495,11.215-17.725,14.395
			c-43.228,26.295-104.268,34.09-145.723,2.855l-1.626-1.245c40.239,10.896,85.356,5.751,117.92-21.839
			c-30.938,13.482-67.192,18.431-100.518,12.135c-30.322-5.729-49.6-23.247-66.211-48.163c0.557,4.081,2.241,16.726,3.691,20.042
			c10.825,24.927,33.501,52.217,57.158,65.952c8.115,4.71,22.661,10.352,27.935,15.089c-8.789,13.113-43.447,6.306-54.551-1.528
			c-20.552-14.498-24.419-31.704-29.209-54.406c-22.72,74.64,37.983,75.801,42.905,85.559
			c-57.583,13.755-97.09-52.904-81.797-101.934c13.74-44.086,33.12-76.052-9.111-113.862
			c37.002,81.189-23.335,86.972-24.624,134.105c-0.527,19.926,18.516,36.983,17.769,46.386c-0.146,1.752-2.871,4.512-4.438,5.423
			c-2.725,1.566-4.775,1.736-7.764,1.03c-10.093-2.382-24.419-19.837-29.282-28.825c-16.201-29.944,9.009-54.757,16.86-82.03
			c4.233-14.747,3.838-30.842-4.277-44.215c-15.542-25.582-45.659-32.215-72.434-38.877c12.463,9.504,22.863,14.038,35.563,22.157
			c52.5,33.561,11.323,67.326,3.896,108.85c-2.651,14.804-0.029,24.54,3.252,38.462c-3.662-1.037-7.31-2.161-10.928-3.371
			c-58.419-19.633-30.205-78.436-52.46-119.474c-9.561-19.166-26.136-33.445-46.714-39.732c-9.99-3.053-31.875,2.115-34.222,13.765
			c16.308,14.77,47.232-14.127,71.808,44.106c-23.99,0.775-36.866,2.462-59.607-4.661c18.746,21.357,30.251,19.198,52.292,33.514
			c3.921,2.547,5.492,5.348,6.016,9.674l-2.2,2.123c-23.089,7.685-47.798-3.003-63.551-19.985
			c-12.179-13.131-17.464-25.586-24.139-41.893c-2.518,30.318-2.424,32.099,17.061,56.549c4.976,6.243,12.183,15.189,7.874,23.106
			c-22.481,8.455-42.617-29.382-50.933-44.678c-0.028,27.019,5.405,31.543,20.212,53.87c2.842,4.283,2.952,5.358,1.862,9.142
			c-15.242,13.699-33.794-6.202-43.925-16.686c1.129,21.938,1.052,22.39,10.268,43.528c-1.898,16.403-4.059,23.458-10.597,38.663
			c-54.482-16.387-42.198-63.586-26.128-103.255c-19.818,11.085-30.064,24.631-30.623,48.4
			c-0.56,23.856,10.001,46.327,28.143,61.705c5.038,4.269,10.417,6.983,15.015,11.9l-0.958,1.26
			c-70.506,2.766-88.247-127.066-37.242-162.514c23.118-16.068,33.705-9.587,57.669-5.906c11.32-11.546,20.098-27.782,29.199-41.452
			c-45.252-49.109,9.628-118.794,62.883-73.516c8.805,7.485,0.813,16.683-7.475,21.577l-1.519,0.877L1380.917,190.062z"/>
		<path fill="#A9120D" d="M1380.917,190.062c-11.386,4.644-23.738,14.58-34.745,15.51c-15.079-5.281-17.016-44.391,34.028-21.851
			L1380.917,190.062z"/>
		<path fill="#A9120D" d="M1838.232,830.489c9.478,11.43,23.921,17.955,31.597,30.606c7.5,12.374,7.778,35.007-1.23,46.632
			l-1.377,0.513c1.377-24.56,3.765-29.963-13.521-50.454c-5.244-6.217-19.351-17.761-22.31-23.042L1838.232,830.489z"/>
		<path fill="#A9120D" d="M1991.382,644.811c10.605-1.481,19.351-0.385,29.414,3.608c45.645,18.381,32.769,83.668,18.501,119.221
			c-12.876,32.09-32.549,59.093-64.761,73.065c18.662-19.56,36.372-38.061,44.429-65.123c8.716-29.137,12.993-64.251-1.304-92.405
			c-6.812-13.419-19.541-10.365-30.029-4.012c-6.138,6.182-15.073,21.709-21.489,30.426c23.818,23.641,45.835,69.286,4.116,92.593
			c-12.817,7.16-49.893,26.124-62.227,19.532c-0.923-1.478-1.846-2.955-2.769-4.431c3.208-13.559,12.803-29.996,17.388-42.669
			c2.109-5.864,3.34-17.972,3.94-22.887c9.229,3.376,18.062,7.768,26.968,11.966c-1.714-8.423-4.233-16.456-7.573-24.363
			c-8.979-21.202-4.6-42.568,4.79-62.751C1959.521,657.769,1972.983,651.348,1991.382,644.811L1991.382,644.811z"/>
		<path fill="#A9120D" d="M1903.652,483.164l1.392,2.442c0.088,19.726-16.274,68.843-26.455,86.849
			c-18.809,33.223-15.688,76.499,20.42,96.113c14.458,7.854,30.483,1.611,44.355-3.697c-15.542,30.839-39.8,28.19-69.199,21.015
			l-0.249-1.105c4.497-0.672,2.988,0.362,5.977-2.046c-17.183-28.792-41.353-15.05-42.158-67.529
			c5.742-21.108,14.619-31.625,28.33-48.185c5.435-6.567,20.376-22.441,20.596-30.732l-2.388-1.107
			c-9.521,2.357-20.537,10.843-28.271,17.016c-22.969,18.352-39.39,37.307-43.096,67.245l-1.699-0.668
			c-3.237-7.797-2.344-16.807-1.274-24.746c5.464-40.639,41.162-52.255,68.833-74.279
			C1889.546,511.159,1897.69,495.754,1903.652,483.164L1903.652,483.164z"/>
		<path fill="#A9120D" d="M1984.614,320.433c19.526,1.011,24.463,18.738,45.586,25.169c23.569,7.176,76.392-20.081,69.565,18.891
			C2069.326,384.422,1996.26,357.694,1984.614,320.433z"/>
		<path fill="#A9120D" d="M1504.248,164.224c13.726-1.141,29.766-0.146,38.936,11.726c2.109,15.642-41.777,25.74-53.789,28.6
			c-8.862,1.891-41.033,4.422-40.479-9.363c7.793-9.11,15.973-0.215,24.029-4.929
			C1486.978,182.043,1487.373,171.997,1504.248,164.224z"/>
		<path fill="#FEF6D8" d="M2506.787,1605.132c1.758,15.337-7.046,60.732-9.858,78.252c-3.501,21.797-6.475,43.667-8.892,65.61
			c-9.185,80.684-13.813,158.994-24.185,240.029c-13.975,109.175-31.904,216.519-47.651,325.151
			c-5.801,39.902-11.235,79.863-16.289,119.868c-7.295,56.001-7.456,95.098-36.431,144.99
			c-44.414,76.523-81.885,79.497-160.869,98.745c18.75-20.64,41.177-43.081,55.781-66.372
			c44.78-71.484,65.244-153.823,86.47-234.463c16.802-62.036,31.611-124.6,44.414-187.573c-8.921,16.172-19.658,40.356-28.008,57.48
			c-17.329,35.947-35.83,71.323-55.459,106.069c-55.986,97.178-152.944,209.033-233.877,287.534
			c-25.796,25.02-77.358,64.292-107.314,88.315c-44.209,34.277-88.301,69.434-134.165,101.499
			c-66.533,46.846-139.336,82.529-210.659,120.923c-42.598,22.925-38.467,20.903-88.022,19.834
			c74.634-40.02,149.678-93.223,214.6-147.598c124.072-103.945,300.864-294.932,370.972-440.332
			c23.965-49.702,38.716-102.334,56.968-154.189c17.842-50.508,38.921-99.814,63.12-147.612
			c19.629-38.716,41.66-77.959,64.028-115.181c12.759-21.226,28.125-42.1,41.704-62.959c16.509-25.869,32.549-52.031,48.091-78.486
			C2431.201,1756.934,2468.994,1676.265,2506.787,1605.132z"/>
		<path fill="#FEF6D8" d="M2148.926,1316.944c25.269-17.875,80.273-45.749,102.1-9.643c7.266,12.029,5.845,19.964-0.132,32.144
			c-20.464,43.938-56.602,79.378-82.705,119.149c-17.856,27.196-33.706,63.642-49.087,93.012l-45.439,85.547
			c-12.29,23.159-31.934,58.33-38.291,83.042c17.446-15.395,30.835-36.636,43.433-56.191c23.584-37.06,45.527-75.146,65.771-114.155
			c12.451-24.229,24.287-50.156,37.31-73.828c15.352-27.889,38.701-53.679,56.792-79.825c15.864-23.114,29.546-47.593,46.157-70.197
			c13.667-18.938,29.092-18.996,49.717-19.402c49.556-0.976,52.31,16.994,67.822,56.528c55.781,1.015,94.556-8.248,118.213,53.859
			c-44.956-34.323-66.299-1.012-97.017,33.245c-26.353,29.512-52.192,59.483-77.49,89.908
			c-48.633,57.656-89.077,101.909-153.105,143.027c-36.138,23.188-69.902,39.492-107.285,59.707
			c-24.199,13.096-48.53,45.996-54.463,72.627c-4.072,17.754,0.996,30.454,10.679,44.854l3.501,1.142
			c-13.184,17.798-28.843,33.12-43.11,49.893c-50.098,58.857-106.523,105.908-166.011,154.995l-149.399,121.538
			c39.507-52.573,83.54-110.977,116.323-167.197c50.757-87.056,115.063-165.645,157.734-256.729
			c11.147-23.774,22.837-47.52,34.292-71.177c26.982-55.181,55.137-109.775,84.448-163.77
			c17.051-31.978,33.311-64.783,52.397-95.603c12.539-20.246,69.536-89.405,69.419-106.701c-0.029-3.076-0.776-5.118-3.354-7.066
			C2189.062,1312.806,2160.146,1316.764,2148.926,1316.944L2148.926,1316.944z"/>
		<path fill="#C71814" d="M2381.294,1353.248c9.346,0.501,12.788,4.676,19.658,10.616c-44.795,12.024-56.719,54.514-87.803,86.962
			l-1.421,1.468c-4.043,3.179-5.845,5.01-10.796,3.999c-8.262-18.833,47.871-82.342,64.116-93.41
			C2370.527,1359.144,2375.229,1356.095,2381.294,1353.248z"/>
		<path fill="#FEF6D8" d="M2224.277,2023.916c7.383,24.917-36.929,100.635-48.604,128.218
			c-29.312,66.108-53.848,136.26-88.594,199.775c-72.554,132.612-182.388,262.222-290.024,367.734
			c-85.254,83.979-180.044,157.69-282.437,219.639c-8.965,5.449-46.04,28.901-53.906,29.648
			c-42.133,4.014-101.421,2.256-144.051,1.816c-0.117-3.486,20.474-15.688,24.94-18.823c47.555-33.369,91.85-71.66,135.283-110.273
			c59.399-52.778,123.179-106.553,178.931-162.935c77.593-78.442,150.073-164.004,223.711-246.445
			c66.738-74.692,134.59-150.293,198.091-227.651c19.058-23.232,35.479-48.589,53.438-72.788
			C2156.382,2097.671,2203.623,2058.223,2224.277,2023.916L2224.277,2023.916z"/>
		<path fill="#FEF6D8" d="M1001.09,2391.899c24.051,54.434,73.34,99.668,127.932,122.3c39.356,16.318,72.838,5.742,110.474-9.111
			c60.397-23.833,124.292-29.458,188.701-28.008c-45.633,52.734-86.361,114.155-132.347,166.494
			c-31.928,36.343-78.98,74.648-115.367,107.095c-15.664,13.96-45.053,40.649-62.225,49.453
			c-40.456-2.93-70.749-12.173-78.337-56.924c-0.794-9.536-0.886-19.321-1.131-28.916c1.835-16.421,1.806-28.711-0.122-45.073
			c-16.969-1.816-23.429-2.021-35.291-15.117c-10.523-11.631-15.172-33.574-16.806-48.281c-1.563-14.048-3.041-66.519,7.913-75.527
			c9.098,1.89,19.087,15.41,24.599,22.72c19.944,26.484,14.411,75.322,51.961,84.668c14.096,3.516,27.3-2.065,38.955-8.379
			c-13.724-3.911-35.946-9.697-46.222-19.541c-17.36-16.626-25.799-46.509-36.839-67.31c-9.202-17.344-20.013-32.3-27.16-50.42
			C991.963,2468.496,997.264,2416.846,1001.09,2391.899L1001.09,2391.899z"/>
		<path fill="#FEF6D8" d="M1667.695,1155.407l1.392,1.425c12.686,12.669,24.683,11.889,27.964,23.131
			c-3.633,10.408-23.262,17.027-32.944,20.451c13.447,7.392,33.926-7.953,48.281-8.524l2.314,1.354
			c1.509,9.624-1.978,12.256-6.079,19.661c-16.655,30.106-84.229,17.676-82.412,57.694c0.923,20.525,35.493,48.983,48.955,66.438
			c-21.768-74.237-5.391-75.35,54.653-106.78c5.757-3.018,7.163-19.79,13.491-24.39c15.82,0.709,15.469-13.449,25.972-9.009
			c14.077,20.578-5.61,39.186-21.152,50.681c9.565-2.723,12.334-3.504,21.299-7.847c8.174-3.958,15.249-13.103,20.684-13.509
			c3.12,2.833,4.761,6.939,4.453,11.139c-1.172,17.558-27.363,36.331-32.9,47.824c-8.423,17.496-2.842,27.454-20.039,45.655
			c-16.963,17.942-39.858,29.819-56.982,45.368c-6.196,26.252-12.568,32.394-31.772,50.382
			c-19.614,18.379-33.164,28.078-60.63,32.437c-15.352-6.806-23.438-22.157-16.919-38.84c7.031-17.987,45.981-8.567,55.342-24.932
			c6.123-9.898,0.894-25.704-9.917-30.901c-5.581-4.33-2.417-8.191-9.434-14.902c-0.703-2.941-1.436-5.978-4.482-7.585
			c-22.485-11.877-46.216-26.518-53.086-53.323c-4.775-18.63-3.34-53.738,8.525-70.468
			C1592.373,1175.588,1636.494,1206.284,1667.695,1155.407z"/>
		<path fill="#A9120D" d="M1734.141,1288.049c1.113-0.16,4.292-0.151,5.537-0.177c2.725,6.281-18.369,23.969-20.112,32.137
			c-1.772,8.253-3.618,15.423-11.191,19.406c-11.88-7.674-16.553-21.501-7.544-33.725
			C1710.146,1293.063,1719.595,1290.589,1734.141,1288.049L1734.141,1288.049z"/>
		<path fill="#A9120D" d="M1613.101,1322.316c29.81,3.076,49.6,26.892,45.381,56.906l-2.212-0.196
			C1643.232,1333.23,1631.147,1346.612,1613.101,1322.316L1613.101,1322.316z"/>
		<path fill="#FEF6D8" d="M1466.792,1054.232c21.899,31.667,50.537,26.738,75.293,47.165
			c46.626,38.484,25.444,89.473-12.056,123.258c-9.316,8.388-12.202,21.369-11.162,33.418l0.19,2.074
			c-2.827-1.655-5.625-3.366-8.394-5.134c-44.092-28.446,5.01-63.151,23.218-86.89c10.137-13.205,10.4-27.133,7.456-43.002
			c-7.266,51.227-53.818,50.667-61.875,93.483c-7.017,37.241,31.494,50.244,59.443,52.326c-4.014,4.712-8.188,8.723-12.568,13.077
			c-41.865,26.81-71.475,1.806-90.457-35.256c-10.702-20.894-14.834-39.835-7.616-63.032c3.674-11.807,17.309-28.775,16.915-40.083
			l-2.061-1.093c-10.95,3.976-18.083,18.228-23.14,28.159c-9.803,19.245-8.376,40.185-7.651,60.992
			c-5.71-8.788-11.993-18.69-18.64-26.984c-20.988-26.186-47.266-44.804-31.292-82.26c17.849-41.851,48.428-25.997,82.896-39.151
			c0.401,14.651,6.192,35.247,23.376,37.261c4.307-2.108,2.651-0.549,4.907-5.101c-1.26-8.958-16.727-16.755-19.671-25.285
			C1450.664,1082.792,1462.443,1067.089,1466.792,1054.232L1466.792,1054.232z"/>
		<path fill="#FEF6D8" d="M1415.521,1245.974c9.483,9.101,20.572,31.947,24.776,44.58c-6.409,24.34-14.497,48.836-0.637,72.636
			c3.035,5.212,10.57,11.534,16.834,10.846c-0.283-0.384-0.567-0.766-0.85-1.148l-1.305-1.846
			c-10.05-13.956-16.666-64.165,12.35-61.805c2.373,0.193,3.047,5.063,2.812,7.06c-2.314,20.41,2.432,26.612,12.876,43.563
			c-2.842-30.256-5.435-36.883,27.656-46.932c-17.944,38.591-8.774,47.821,20.039,73.494c24.287,21.652,35.273,55.814,36.05,88.002
			c-0.806,49.131-67.998,64.98-94.819,41.382c0.85-13.066,58.843-23.936,47.007-57.11c-24.067-67.471-122.178-36.126-142.28-106.68
			c-8.972-31.491,6.958-56.177,24.533-80.222C1405.583,1264.65,1410.696,1253.892,1415.521,1245.974z"/>
		<path fill="#FEF6D8" d="M2169.331,397.707c17.725,4.55,30.234,61.2,38.979,76.289c8.848,15.267,25.796,31.104,31.348,47.618
			c8.35,24.863,11.484,61.056,0.381,85.403c28.521,60.179,35.449,120.793-44.561,145.68c-14.619,4.547-30.894,2.932-45.879,1.219
			c-9.141-2.092-19.658-5.487-23.262-14.858c0.806-24.92,55.576-25.657,70.195-49.806c18.823-31.1,21.943-83.252,19.028-119.325
			c-0.776-9.615-15.762-13.295-24.229-18.296c-31.025-18.322-34.116-62.537-40.078-95.265c-3.311-18.36-7.295-36.592-11.953-54.656
			C2148.442,400.082,2159.956,398.909,2169.331,397.707z"/>
		<path fill="#A9120D" d="M2236.904,610.216c1.421,1.619,2.183,2.971,2.534,5.2c4.233,27.113,6.929,58.286-12.041,80.893
			c-10.693,12.747-22.485,16.249-37.808,19.706l-3.428-0.057c-0.029-0.483-0.073-0.967-0.117-1.45
			c13.521-10.331,22.969-17.533,32.124-31.802C2231.836,661.425,2227.295,630.469,2236.904,610.216z"/>
		<path fill="#FEF6D8" d="M2009.268,443.922c68.745-5.407,28.315,84.07,47.329,84.952c13.14-10.154,10.62-43.472,10.063-58.859
			c0.469,0.28,0.938,0.561,1.421,0.842l2.329,1.449c30.894,18.885,30.117,40.384,22.427,71.402
			c-5.054,20.418,8.701,36.079,19.629,52.047c2.754,4.601,7.178,15.357,3.75,19.419c-18.135,21.488-77.549-2.641-94.849-9.738
			c-51.709-21.218-24.712-60.271-26.001-99.809c-0.425-13.024-10.049-33.308-14.692-45.96
			C1990.708,453.469,1998.691,449.27,2009.268,443.922L2009.268,443.922z"/>
		<path fill="#FEF6D8" d="M1806.826,388.648c8.687,4.326,15.088,9.816,19.497,18.624c25.166,50.374-26.235,71.698-58.521,96.552
			c-28.374,21.842-42.715,63.908-23.76,96.721c1.948,3.365,2.153,2.817,2.959,6.57l-2.93,0.71
			c-20.259-9.352-25.342-32.276-36.27-46.981c-28.506-38.333-27.495-54.291-11.704-100.134
			c12.993-30.262,31.055-56.619,66.929-60.365c7.104-0.743,24.331-7.046,29.019-3.451c5.288,24.472-21.738,37.131-39.229,48.681
			c-28.403,18.765-34.731,34.825-40.825,66.71c17.139-32.739,32.051-46.862,64.57-64.532
			C1804.731,432.442,1811.294,419.552,1806.826,388.648L1806.826,388.648z"/>
		<path fill="#FEF6D8" d="M1366.298,857.215c60.284-3.199,133.893,31.453,117.062,102.959c-9.683,41.101-20.385,51.349-0.146,92.839
			c-12.085-12.831-16.187-18.529-24.249-34.188c-12.385-26.787-13.352-54.647-31.819-76.87l-1.443,0.384l-0.259,8.851l-1.513,1.233
			c-20.953-10.062-32.78-22.657-45.104-41.927c0.573,10.55,2.361,22.821,3.674,33.473c-21.072-6.836-37.789-15.88-44.568-38.725
			C1330.126,878.94,1341.488,863.893,1366.298,857.215z"/>
		<path fill="#FEF6D8" d="M1902.642,201.123c0.396-0.057,0.806-0.116,1.201-0.174c17.139-2.011,34.365,2.851,47.915,13.52
			c6.489,5.206,11.909,11.791,17.695,17.685c18.223,18.609,30.674,36.48,10.122,59.635c-26.089-2.613-31.816,1.564-55.327,12.104
			c-13.945,4.959-30.073,8.167-40.239-6.595c-8.291-12.04-4.878-25.194-2.124-38.464c-34.512,22.825-42.48-5.582-25.327-31.827
			C1866.68,211.519,1884.551,204.251,1902.642,201.123z"/>
		<path fill="#A9120D" d="M1342.008,1119.371c4.107,0.475,2.268-0.217,5.681,2.257c1.941,8.955-7.459,28.638-0.078,45.331
			c14.484,32.758,48.33,36.747,48.737,79.386c1.081,18.293-6.845,30.091-20.285,41.994c-12.94,11.464-24.96,13.305-36.646,0.432
			c-0.472-6.453-1.083-8.095-5.398-12.381c-25.226-25.061-49.784-32.905-43.682-75.313c0.987-6.861,3.716-26.862,9.456-31.512
			c4.028,2.795,6.965,10.26,10.225,15.548l1.909,0.202c4.837-9.262,2.347-22.604,7.654-32.966
			C1325.694,1140.41,1336.682,1131.425,1342.008,1119.371z"/>
		<path fill="#FEF6D8" d="M1344.401,1123.219c0.939,10.828-4.356,30.688-1.148,39.886c14.225,40.597,72.754,55.441,42.795,109.598
			c-6.486,11.728-26.849,29.568-40.258,18.117c0.133-4.488,9.929-10.062,12.746-15.482c14.344-27.593-2.758-45.417-26.552-57.497
			c-5.798,6.694,23.454,28.405,17.505,41.902c-2.417,5.486,0.608,17.152-11.537,15.494c-10.477-8.121-36.056-27.719-40.657-39.382
			c-8.631-21.876-5.268-42.413,3.092-62.996c5.619,13.165,9.532,18.557,18.258,29.31
			C1311.101,1164.018,1321.992,1151.151,1344.401,1123.219L1344.401,1123.219z"/>
		<path fill="#FEF6D8" d="M1861.699,937.513c7.148-0.245,14.531-0.002,21.694,0.114c18.076,11.375,32.183,29.944,27.319,52.769
			c-5.684,21.754-31.479,27.265-49.263,38.131c-18.999,11.609-17.065,26.02,5.347,28.876c17.256,2.202,11.924-19.854,18.926-26.971
			c5.508-5.588,13.081-12.453,19.131-18.661c1.26,2.799-0.791,7.441-1.787,11.307c-2.959,16.875,2.886,43.358-8.452,56.311
			c-13.682,15.649-52.427,3.815-64.702-9.615c-9.404-10.285-15.674-20.364-15.527-34.159c0.22-23.103,17.461-33.883,32.256-48.167
			C1862.065,971.839,1862.153,957.596,1861.699,937.513z"/>
		<path fill="#FEF6D8" d="M2099.004,820.669c19.116-43.121,35.859-67.03,86.411-47.392c6.943,11.927,8.76,26.04,16.392,36.432
			l2.461,0.242c13.096-7.516,3.809-22.79,8.232-33.061c3.267-2.801,4.57-4.44,8.774-5.44c-5.859,17.2,3.501,18.902,0.894,33.514
			c-9.551,53.42-51.694,12.932-84.668,41.03l-1.436,1.247c-3.516,3.951-11.147,13.701-15.615,14.837
			c6.504-12.649,9.39-22.891,17.593-35.033c10.605-15.712,27.173-9.242,35.464-18.601c1.245-4.73,4.263-13.276-2.314-14.873
			c-21.87-5.978-41.162,5.842-48.53,27.905c-7.339,21.91-14.854,67.192-49.248,41.087c-22.676-17.213-20.01-33.974-4.614-56.556
			c1.655,8.672,4.658,16.705,11.426,22.745c4.336-0.133,4.072-1.38,5.42-7.096c6.284-26.742,10.854-39.438,30.938-58.182
			C2105.303,786.927,2100.454,794.487,2099.004,820.669z"/>
		<path fill="#FEF6D8" d="M2015.156,882.486c5.947-9.139,10.313-13.579,17.974-21.302c14.604,14.694,20.288,20.241,40.474,26.569
			c7.134,2.235,12.319,3.939,18.662,7.878c23.628,37.853-1.23,76.48-34.277,97.358c-23.027,14.547-37.061,8.14-58.096-3.541
			l-1.948-1.333l0.952-5.742c12.363,6.25,25.986,2.468,38.862-0.823c-21.475-13.364-37.266-25.233-44.194-51.16
			c-2.065-7.693-2.769-22.255,6.577-24.888c15.015,7.868,38.54,85.456,62.578,39.86c2.651-5.045-2.153-17.769-5.156-22.153
			C2044.175,904.355,2028.34,903.366,2015.156,882.486z"/>
		<path fill="#FEF6D8" d="M1038.07,2870.552c-8.161-4.453-25.039-16.128-26.449-25.649c-6.306-42.568-6.357-83.804-17.802-126.079
			c-3.5-12.935-3.205-39.038-3.637-52.808c12.766,27.378,26.067,26.382,46.119,46.714l2.49,1.553
			c0.245,9.595,0.337,19.38,1.131,28.916l-4.201-1.538c-1.576,58.784,3.044,57.979,46.116,90.967
			C1067.393,2847.861,1055.72,2859.038,1038.07,2870.552z"/>
		<path fill="#DF7357" d="M1036.301,2712.729l2.49,1.553c0.245,9.595,0.337,19.38,1.131,28.916l-4.201-1.538
			C1035.19,2734.189,1036.023,2720.684,1036.301,2712.729z"/>
		<path fill="#FEF6D8" d="M1918.477,323.915c32.754-2.285,28.638,20.572,42.158,41.72c10.239,16.036,34.893,30.344,37.075,50.908
			c1.89,17.851-23.042,13.764-33.369,12.621c-27.437-2.197-67.383-23.75-76.626-51.185
			C1878.691,351.22,1892.651,331.78,1918.477,323.915z"/>
		<path fill="#FEF6D8" d="M2125.122,884.788l2.944-3.448c17.065,35.632,26.909,79.201,13.33,117.593
			c-8.818,25.648-27.598,46.663-52.09,58.308c-13.828,6.681-54.053,18.214-68.98,14.325c-14.224-12.459,16.773-19.531,24.639-20.281
			C2134.702,1042.733,2095.312,927.627,2125.122,884.788z"/>
		<path fill="#FEF6D8" d="M1301.215,859.534c18.735,6.45,23.591,12.505,24.87,33.716c0.931,15.442,1.535,26.889,5.481,41.804
			c-24.88,3.819-29.515,1.866-38.624-22.673c-4.966,18.179-6.081,29.744-4.002,48.807l-1.668-1.163
			c-13.474-9.536-13.248-12.075-21.066-25.915c-1.827-3.234-2.626-6.396-5.219-6.804c-1.223,17.537,3.06,31.633,14.728,45.098
			c-5.505,1.431-7.251,1.61-12.967,2.104c-6.199-0.274-40.173-7.629-43.655-11.842c2.539-16.373,12.035-33.926,24.403-44.603
			C1261.254,902.733,1282.61,871.601,1301.215,859.534L1301.215,859.534z"/>
		<path fill="#FEF6D8" d="M1467.422,1447.974c11.909,5.922,13.682,14.041,17.681,25.907c-6.753,20.698-19.189,27.1-24.823,45.864
			c-7.39,24.624-21.453,50.962-50.241,48.735c-29.574-11.44-16.503-18.354-11.462-44.648c4.067-21.211,21.45-26.367,38.789-35.142
			C1457.003,1478.745,1461.009,1467.905,1467.422,1447.974L1467.422,1447.974z"/>
		<path fill="#FEF6D8" d="M635.884,2320.181c3.133,0.161,2.536,0.205,5.609,1.157c0.924,2.168,2.136,4.307,0.675,6.724
			c-25.815,42.935-76.102,83.584-118.885,107.666l-4.736-1.494c-10.273-11.455,16.27-51.841,25.901-60.981
			c26.871-6.665,35.115-13.14,55.793-31.611C610.103,2332.822,623.782,2325.527,635.884,2320.181z"/>
		<path fill="#FEF6D8" d="M1777.72,92.694c37.954-2.253,67.397,12.15,79.219,50.18c-17.52-12.151-29.15-14.241-48.252-4.228
			l-19.233,13.643c-27.729-21.224-23.73-21.118-58.403-34.962C1745.493,100.578,1756.274,96.1,1777.72,92.694z"/>
		<path fill="#FEF6D8" d="M1587.261,1089.234c22.192,11.843,102.612,48.979,36.533,81.974c-10.649,5.322-9.375-0.353-23.13,10.122
			l-1.699,1.305c-12.202,11.32-13.535,11.855-28.462,17.921c4.556-31.001,21.914-48.396,31.919-78.224
			C1598.042,1111.282,1592.021,1101.464,1587.261,1089.234L1587.261,1089.234z"/>
		<path fill="#EBC0A3" d="M1616.909,1127.477c5.303,5.604,6.064,10.879,6.313,18.508
			C1618.975,1142.369,1618.11,1133.326,1616.909,1127.477z"/>
		<path fill="#FEF6D8" d="M1794.814,686.336c1.157,0.215,2.563,0.432,3.574,0.901c27.422,12.661,36.196,15.245,50.229,40.957
			c-0.776-7.277-2.388-13.354,0.645-19.714l3.677-1.27c15.146,8.323,8.394,37.059,1.714,49.408c-1.04,1.061-5.874,5.896-6.812,5.851
			c-17.871-0.863-35.244-2.357-53.32-2.017C1832.49,728.43,1820.288,721.537,1794.814,686.336z"/>
		<path fill="#FEF6D8" d="M1241.562,448.015c5.169,8.269,11.139,13.335,18.283,19.639c6.958-1.04,14.146-3.669,19.217,1.695
			c1.683,13.163-9.803,50.21-13.991,64.676c-2.44,3.051-1.033,1.852-4.55,3.265c-6.171-1.392-8.067-6.195-13.521-9.98l-2.351,1.285
			C1227.333,517.598,1234.488,465.239,1241.562,448.015z"/>
		<path fill="#FEF6D8" d="M1988.643,971.936c4.731,4.185,6.284,5.594,10.254,10.438l-0.952,5.742l1.948,1.333
			c4.102,10.942,13.066,19.323,24.771,21.801c24.917,5.278,44.355-7.296,64.072-20.46c-1.641,6.948-3.062,14.379-6.943,20.404
			c-7.559,11.619-19.541,19.644-33.149,22.21c-13.945,2.691-27.524,0.488-39.507-7.463
			C1990.972,1013.881,1992.422,992.854,1988.643,971.936z"/>
		<path fill="#FEF6D8" d="M1428.259,1041.825c20.568-1.292,33.82,2.439,17.092,25.685c-7.948,11.045-20.982,14.758-34.163,16.121
			c-10.966-0.22-21.233,0.207-24.486-11.873C1389.995,1053.375,1412.026,1044.94,1428.259,1041.825L1428.259,1041.825z"/>
		<path fill="#FEF6D8" d="M2188.242,617.455l2.314,1.45c8.232,19.024,3.149,41.846-10.474,57.275
			c-11.631,13.181-36.211,14.695-52.793,15.748l-3.442,0.551l-1.245-2.432c2.651-12.457,12.012-17.35,23.232-20.928
			C2172.188,660.708,2172.114,636.873,2188.242,617.455L2188.242,617.455z"/>
		<path fill="#FEF6D8" d="M2155.664,853.824c3.999,4.567-4.307,19.68,4.907,26.798c6.753-5.128,6.035-20.84,18.135-25.86
			c26.367,0.048,17.769,18.17,5.815,30.968c-7.749,6.29-30.557,18.372-40.4,23.899
			C2134.541,887.76,2138.789,869.899,2155.664,853.824z"/>
		<path fill="#FEF6D8" d="M1546.143,1312.302c11.631,14.15,17.461,25.002,35.054,35.971c3.501,2.19,5.068,3.361,8.071,6.078
			l-1.729,2.698c-6.548,3.409-7.939,3.495-15.322,5.112c-13.989,0.317-30.894-0.031-40.371-12.24
			c-3.018-3.828-4.38-8.708-3.765-13.547C1529.458,1326.075,1538.569,1318.329,1546.143,1312.302z"/>
		<path fill="#FEF6D8" d="M1611.313,1349.414c7.017,6.71,3.853,10.572,9.434,14.902c-22.207,26.801-34.629,22.173-60.747,38.689
			c-2.856-5.987-5.508-12.981-8.042-19.188c12.715-8.336,24.8-9.677,36.782-15.691
			C1589.78,1367.603,1607.124,1352.534,1611.313,1349.414L1611.313,1349.414z"/>
		<path fill="#FEF6D8" d="M2156.968,617.143c4.541,0.8,7.412,3.394,9.141,7.685c0.337,19.913-17.168,25.373-32.959,28.704
			c-5.024,0.899-2.754,1.236-7.104-0.425c-4.321-8.063,0.908-17.085,5.947-23.628
			C2139.858,619.261,2144.751,618.579,2156.968,617.143z"/>
		<path fill="#FEF6D8" d="M1642.749,1080.365c-2.651-8.925-9.023-30.236,1.934-34.617c5.625,1.075,8.145,4.479,12.422,8.521
			c-4.351,8.637-9.082,17.556-12.686,26.473L1642.749,1080.365z"/>
		<path fill="#FEF6D8" d="M1277.754,601.701c6.806,2.268,29.745,10.34,29.729,18.13l-2.977,1.143l-13.623,6.762
			C1285.247,617.915,1282.28,612.072,1277.754,601.701z"/>
		<path fill="#FEF6D8" d="M2041.904,1860.352c6.577-17.095,20.596-36.284,34.849-47.754c-7.28,19.731-17.798,32.769-31.348,48.896
			L2041.904,1860.352z"/>
		<path fill="#C71814" d="M2136.064,847.239c-0.161,2.738-6.548,24.365-7.998,34.1l-2.944,3.448
			c-0.908-6.908-1.611-15.236-6.299-20.042l1.626-2.669C2124.917,860.94,2132.549,851.19,2136.064,847.239z"/>
		<path fill="#FEF6D8" d="M1302.353,640.717c10.63,5.298,7.724,16.255,6.836,26.266
			C1305.044,659.587,1303.466,649.113,1302.353,640.717z"/>
	</g>
</g>
</svg>
