<?xml version="1.0" encoding="utf-8"?>
<!-- Generator: Adobe Illustrator 27.9.0, SVG Export Plug-In . SVG Version: 6.00 Build 0)  -->
<svg version="1.1" id="svg" xmlns="http://www.w3.org/2000/svg" xmlns:xlink="http://www.w3.org/1999/xlink" x="0px" y="0px"
	 viewBox="0 0 5625 3000" enable-background="new 0 0 5625 3000" xml:space="preserve">
<g>
	<g>
		<defs>
			<rect id="SVGID_1_" width="5625" height="3000"/>
		</defs>
		<clipPath id="SVGID_00000096029265622240269210000003743384934981023400_">
			<use xlink:href="#SVGID_1_"  overflow="visible"/>
		</clipPath>
		<g clip-path="url(#SVGID_00000096029265622240269210000003743384934981023400_)">
			<path fill="#D62931" d="M0,0h5625v3000H0V0z"/>
			<path fill="#F8AF11" d="M4413,660c28.5-1.5,79.5,0,108,7.5c22.5,7.5,22.5,9,30,31.5l3,3c24,22.5,48,28.5,70.5,43.5
				c42,27,61.5,148.5,61.5,196.5c0,12-3,18-7.5,28.5c66-4.5,130.5-9,196.5-13.5c7.5,0,9,0,15,3c118.5,58.5,237,117,354,175.5l135,66
				c18,9,55.5,27,70.5,36c-6,28.5-18,100.5-31.5,121.5c-7.5,3-7.5,3-16.5,4.5c-25.5,109.5-51,220.5-76.5,330
				c-10.5,43.5-28.5,108-36,151.5c-3,7.5-6,16.5-12,18c-28.5,7.5-72,3-102,3c-120,0-262.5-3-381,1.5c48,31.5,91.5,69,127.5,112.5
				c88.5,88.5,94.5,204,94.5,321c0,40.5-6,76.5-48,94.5c-3,1.5-10.5,3-12,4.5c6,45,27,136.5,12,178.5c-4.5,12-85.5,0-100.5-1.5
				c3,61.5,4.5,99-46.5,142.5c-16.5,39-34.5,72-63,102c-88.5,94.5-252,94.5-343.5,3c-72-72-87-156-87-253.5c-33-9-102-34.5-132-49.5
				c-7.5-3-24-4.5-31.5-6c-73.5-15-111-48-135-118.5c-33-13.5-81-22.5-115.5-37.5c-175.5-75-420-132-552-274.5
				c-19.5,52.5-51,105-97.5,136.5c-19.5,16.5-49.5,31.5-73.5,40.5c-69,25.5-144,21-210-12c-237-115.5-241.5-510,3-621
				c13.5-6,28.5-10.5,42-15c-37.5-6-81-21-106.5-51c3-36,24-58.5,52.5-76.5c85.5-55.5,202.5-63,300-43.5c9-27-15-42,12-64.5
				l31.5-28.5c7.5-9,46.5-46.5,57-55.5c19.5-22.5,51-63,82.5-63c7.5-4.5,45-39,54-45c37.5-33,76.5-64.5,115.5-96c9-9,19.5-15,24-27
				l7.5-3l52.5-9c22.5,9,55.5,12,79.5,16.5c58.5,15,97.5,48,127.5,99l7.5-4.5c13.5-15,39-46.5,55.5-58.5c25.5-16.5,66,0,88.5-21
				c6-10.5,6-19.5,6-31.5c-3-12,4.5-34.5,10.5-45l3-9v-3c1.5-13.5,3-7.5-3-19.5c-10.5-6-16.5-6-28.5-6l-10.5-3
				c28.5-48,87-84,135-117c1.5-15,3-25.5,7.5-40.5c9-18,16.5-22.5,31.5-34.5c10.5-18,16.5-25.5,30-42c15-16.5,64.5-37.5,87-37.5
				c9-10.5,12-16.5,25.5-22.5C4384.5,666,4392,663,4413,660L4413,660z"/>
			<path fill="#EB8602" d="M3655.5,1060.5l52.5-9c22.5,9,55.5,12,79.5,16.5c58.5,15,97.5,48,127.5,99c18,40.5-10.5,45,6,69
				c4.5,30,3,46.5,1.5,76.5c-3,19.5-6,42-7.5,61.5l-1.5,9c-15,66-27,117-48,183c-31.5,75-51,117-94.5,187.5
				c-28.5,40.5-39,57-76.5,91.5c13.5,36,18,94.5,33,139.5c3,21,13.5,48,22.5,67.5l6,1.5c21-3,45-1.5,66,3l21-6l13.5-1.5l3-6
				c4.5-15,9-30,12-45c7.5-7.5,7.5-10.5,19.5-9c28.5,1.5,102,13.5,112.5,43.5l-9,13.5c3,7.5,6,16.5,7.5,22.5c6,10.5,4.5,18,6,30
				c-3,28.5-7.5,55.5-10.5,84l-1.5,21c10.5,18,226.5,87,256.5,94.5c4.5,1.5,9,1.5,13.5,3c16.5,7.5,31.5,12,45,24l-3,10.5l-9,7.5
				c-3-9-3-10.5-10.5-18l-10.5-7.5l-16.5,15c-6,9-7.5,15-12,24l-7.5,12c-13.5,13.5-18,16.5-33,28.5c-21,6-33,7.5-54,10.5h-6
				c-43.5,3-78-3-120-13.5c-33-13.5-81-22.5-115.5-37.5c-175.5-75-420-132-552-274.5c-19.5,52.5-51,105-97.5,136.5
				c-19.5,16.5-49.5,31.5-73.5,40.5c-69,25.5-144,21-210-12c-237-115.5-241.5-510,3-621c13.5-6,28.5-10.5,42-15
				c-37.5-6-81-21-106.5-51c3-36,24-58.5,52.5-76.5c85.5-55.5,202.5-63,300-43.5c9-27-15-42,12-64.5L3315,1350
				c7.5-9,46.5-46.5,57-55.5c19.5-22.5,51-63,82.5-63c7.5-4.5,45-39,54-45c37.5-33,76.5-64.5,115.5-96c9-9,19.5-15,24-27
				L3655.5,1060.5z"/>
			<path fill="#313131" d="M3030,1614c82.5-12,138-12,210,37.5c85.5,64.5,91.5,97.5,132,184.5c18,10.5,19.5,16.5,25.5,36
				c3,15,7.5,33,13.5,48c-3,10.5-1.5,13.5-9,19.5l-15-1.5v33c-3,39-9,78-22.5,115.5c-19.5,52.5-51,105-97.5,136.5
				c-19.5,16.5-49.5,31.5-73.5,40.5c-69,25.5-144,21-210-12c-237-115.5-241.5-510,3-621C3000,1623,3015,1618.5,3030,1614L3030,1614z
				"/>
			<path fill="#272425" d="M3030,1614c82.5-12,138-12,210,37.5c-6,0-33-9-42-10.5c-16.5,9-42,3-60,9c-96,27-139.5,96-174,183
				c-19.5,48-18,151.5-51,175.5c-7.5,1.5-7.5,1.5-15-1.5c9,34.5,18,66,36,96c52.5,87,147,169.5,255,142.5c21-4.5,58.5-24,76.5-24
				C3246,2238,3216,2253,3192,2262c-69,25.5-144,21-210-12c-237-115.5-241.5-510,3-621C3000,1623,3015,1618.5,3030,1614z"/>
			<path fill="#484747" d="M2898,2005.5c-31.5-159,27-375,223.5-378c24,0,51,7.5,75,13.5c-16.5,9-42,3-60,9c-96,27-139.5,96-174,183
				c-19.5,48-18,151.5-51,175.5C2905.5,2008.5,2905.5,2008.5,2898,2005.5L2898,2005.5z"/>
			<path fill="#DB3210" d="M3372,1834.5c18,10.5,19.5,16.5,25.5,36c3,15,7.5,33,13.5,48c-3,10.5-1.5,13.5-9,19.5l-15-1.5l-1.5-13.5
				C3382.5,1890,3379.5,1867.5,3372,1834.5z"/>
			
				<linearGradient id="SVGID_00000072250150167962744670000007255303808350623872_" gradientUnits="userSpaceOnUse" x1="3310.6482" y1="2755.6707" x2="2983.3633" y2="2904.6086" gradientTransform="matrix(1 0 0 1 0 -878)">
				<stop  offset="0" style="stop-color:#AEAEAE"/>
				<stop  offset="1" style="stop-color:#D0D0D1"/>
			</linearGradient>
			<path fill="url(#SVGID_00000072250150167962744670000007255303808350623872_)" d="M3120,1723.5c241.5-19.5,282,396,57,456
				C2935.5,2194.5,2887.5,1786.5,3120,1723.5z"/>
			<path fill="#858684" d="M3130.5,1752c43.5,3,94.5,13.5,118.5,54c7.5,13.5,28.5,40.5,31.5,52.5l-1.5,4.5c-16.5-16.5-7.5-48-66-48
				c-3,0-7.5,0-10.5,0c18,30,61.5,100.5,36,132c-1.5,48-3,85.5-36,126h-4.5l-1.5-3c-12-19.5-24-40.5-34.5-61.5l6-12
				c-25.5,18-39,18-64.5,1.5c-22.5-30-21-45-15-81c-1.5-6-1.5-19.5-1.5-27l-3-3c4.5-3,7.5-7.5,12-12c-9-22.5-21-58.5-28.5-82.5
				l-12,3v-4.5C3069,1773,3106.5,1758,3130.5,1752z"/>
			<path fill="#C5C8C7" d="M3096,1878c9,3,18,0,28.5-1.5c16.5,9,19.5,6,33,10.5l-1.5,3c16.5,19.5,18,24,30,46.5c12-1.5,28.5-3,39-3
				l10.5,6c-3,21,3,31.5-15,42l-39-13.5c-3,9-7.5,19.5-12,27c-25.5,18-39,18-64.5,1.5c-22.5-30-21-45-15-81c-1.5-6-1.5-19.5-1.5-27
				l-3-3C3088.5,1885.5,3091.5,1881,3096,1878L3096,1878z"/>
			<path fill="#DCDBD7" d="M3090,1918.5c4.5-15,12-19.5,24-28.5c22.5,3,39,6,42,31.5C3142.5,1962,3096,1944,3090,1918.5L3090,1918.5
				z"/>
			<path fill="#99A9AE" d="M3096,1878c9,3,18,0,28.5-1.5c16.5,9,19.5,6,33,10.5l-1.5,3c-13.5,0-28.5,0-42,0c-12,9-18,13.5-24,28.5
				l-1.5-1.5c-1.5-6-1.5-19.5-1.5-27l-3-3C3088.5,1885.5,3091.5,1881,3096,1878z"/>
			<path fill="#D62931" d="M3106.5,1782c15,1.5,24,0,34.5,10.5c22.5,7.5,28.5,10.5,42,30c-9,21-18,43.5-27,64.5
				c-13.5-4.5-16.5-3-33-10.5c-10.5,1.5-19.5,4.5-28.5,1.5c-9-22.5-21-58.5-28.5-82.5C3079.5,1785,3090,1785,3106.5,1782z"/>
			<path fill="#C5C8C7" d="M3141,1792.5c22.5,7.5,28.5,10.5,42,30c-9,21-18,43.5-27,64.5c-13.5-4.5-16.5-3-33-10.5L3141,1792.5z"/>
			<path fill="#D62931" d="M3184.5,1822.5l12,12c16.5,42,24,54,28.5,100.5c-12,0-27,1.5-39,3c-10.5-22.5-13.5-27-30-46.5l1.5-3
				C3166.5,1866,3175.5,1845,3184.5,1822.5L3184.5,1822.5z"/>
			<path fill="#D62931" d="M3168,1998c4.5-7.5,9-18,12-27l39,13.5c9,19.5-15,66-22.5,87c-12-19.5-24-40.5-34.5-61.5L3168,1998z"/>
			<path fill="#636A6A" d="M3196.5,1834.5c9,6,12,9,19.5,16.5c10.5,19.5,33,69,19.5,90l-10.5-6
				C3220.5,1890,3213,1876.5,3196.5,1834.5L3196.5,1834.5z"/>
			<path fill="#73736C" d="M3106.5,1782c57-6,87,15,109.5,69c-7.5-7.5-10.5-10.5-19.5-16.5l-12-12c-15-18-19.5-22.5-42-30
				C3130.5,1782,3121.5,1783.5,3106.5,1782z"/>
			<path fill="#858684" d="M3025.5,1828.5c31.5,19.5,39,58.5,58.5,60l3,3c0,7.5,0,19.5,1.5,27c-4.5,36-6,51,15,81
				c27,16.5,39,18,64.5-1.5l-6,12c-7.5,4.5-16.5,9-16.5,18c-1.5,28.5,9,42,7.5,73.5c1.5,3,0,3-1.5,7.5c-15,9-46.5,16.5-63,7.5
				c-9-19.5,7.5-63,15-88.5c-10.5-6-13.5-9-25.5-13.5c-7.5-9-16.5-30-22.5-40.5c9-10.5,3-16.5-1.5-28.5c-18-6-48-4.5-57-16.5
				c-4.5-24,15-70.5,25.5-91.5L3025.5,1828.5z"/>
			<path fill="#D62931" d="M3103.5,2026.5c12,0,15-1.5,24,3c18,18,13.5,45,24,70.5c1.5,3,0,3-1.5,7.5c-15,9-46.5,16.5-63,7.5
				C3079.5,2095.5,3096,2052,3103.5,2026.5z"/>
			<path fill="#D62931" d="M3024,1836c10.5,16.5,36,49.5,42,61.5c-3,13.5-7.5,33-10.5,45c-18-6-48-4.5-57-16.5
				C2994,1903.5,3013.5,1857,3024,1836z"/>
			<path fill="#989C9B" d="M3103.5,1998c-49.5,6-31.5-81-16.5-108c0,7.5,0,19.5,1.5,27C3082.5,1954.5,3081,1969.5,3103.5,1998z"/>
			<path fill="#D62931" d="M3055.5,1971c6,10.5,15,31.5,22.5,40.5c-12,24-25.5,43.5-39,66c-19.5-27-27-48-36-79.5L3055.5,1971z"/>
			<path fill="#C5C8C7" d="M3025.5,1828.5c13.5-60,82.5-81,136.5-81c-12,1.5-19.5,1.5-30,3c-24,6-61.5,21-78,40.5v4.5l12-3
				c9,24,19.5,60,28.5,82.5c-4.5,4.5-7.5,7.5-12,12C3064.5,1888.5,3057,1849.5,3025.5,1828.5z"/>
			<path fill="#FDDD28" d="M3655.5,1060.5l52.5-9c22.5,9,55.5,12,79.5,16.5c58.5,15,97.5,48,127.5,99c18,40.5-10.5,45,6,69
				c4.5,30,3,46.5,1.5,76.5c-3,19.5-6,42-7.5,61.5l-1.5,9c-15,66-27,117-48,183c-31.5,75-51,117-94.5,187.5
				c-28.5,40.5-39,57-76.5,91.5c13.5,36,18,94.5,33,139.5c3,21,13.5,48,22.5,67.5c12,30,58.5,76.5,87,96c10.5,7.5,28.5,10.5,37.5,21
				l-3,1.5c-51-18-66-24-103.5-67.5c-4.5-6-22.5-25.5-27-30c-76.5-91.5-94.5-451.5-90-574.5c-60-13.5-151.5-57-207-84
				c-3,0-19.5-6-22.5-7.5l-9-9c-42-15-109.5-13.5-124.5-24l27-24c7.5-9,46.5-46.5,57-55.5c19.5-22.5,51-63,82.5-63
				c7.5-4.5,45-39,54-45c37.5-33,76.5-64.5,115.5-96c9-9,19.5-15,24-27L3655.5,1060.5z"/>
			<path fill="#FDC10B" d="M3696,1846.5c-6-7.5-13.5-124.5-13.5-145.5c-1.5-63-7.5-147,4.5-208.5c1.5-10.5,45-60,55.5-70.5
				c57-61.5,114-123,171-184.5c3,0,6,0,9,0c4.5,30,3,46.5,1.5,76.5c-3,19.5-6,42-7.5,61.5l-1.5,9c-15,66-27,117-48,183
				c-31.5,75-51,117-94.5,187.5C3744,1795.5,3732,1812,3696,1846.5z"/>
			<path fill="#FDDD28" d="M3655.5,1060.5l52.5-9c22.5,9,55.5,12,79.5,16.5c-102,88.5-199.5,192-297,286.5c-10.5,10.5-27,43.5-30,57
				c-6,1.5-10.5,1.5-16.5,4.5c-3,0-19.5-6-22.5-7.5l-9-9c-42-15-109.5-13.5-124.5-24l27-25.5c7.5-9,46.5-46.5,57-55.5
				c19.5-22.5,51-63,82.5-63c7.5-4.5,45-39,54-45c37.5-33,76.5-64.5,115.5-96c9-9,19.5-15,24-27L3655.5,1060.5z"/>
			<path fill="#FDC10B" d="M3655.5,1060.5l52.5-9c22.5,9,55.5,12,79.5,16.5c-102,88.5-199.5,192-297,286.5c-10.5,10.5-27,43.5-30,57
				c-6,1.5-10.5,1.5-16.5,4.5c-3,0-19.5-6-22.5-7.5l-9-9c16.5-3,72-63,90-79.5c76.5-72,151.5-142.5,231-211.5
				c-36-7.5-73.5-7.5-109.5-19.5c9-9,19.5-15,24-27L3655.5,1060.5z"/>
			<path fill="#FDD534" d="M3394.5,1291.5c27,0,51,1.5,78,9c4.5,4.5,3,3,4.5,7.5c-7.5,1.5-12,3-19.5,4.5l-3,4.5v7.5
				c-12,3-57-1.5-73.5-1.5l-12,6c-13.5,1.5-10.5-1.5-19.5,6l3,4.5l9,1.5l-12,7.5c-12,1.5-12-1.5-21,4.5c7.5,7.5,16.5,7.5,27,9
				c-13.5,4.5-16.5,4.5-27,0c-4.5-6-6-7.5-12-12c7.5-9,46.5-46.5,57-55.5l18,4.5L3394.5,1291.5z"/>
			<path fill="#392E18" d="M3381,1323l-9-3v-4.5c16.5-7.5,64.5,0,84,1.5v7.5C3442.5,1327.5,3397.5,1323,3381,1323z"/>
			<path fill="#423E1B" d="M3394.5,1291.5c27,0,51,1.5,78,9c4.5,4.5,3,3,4.5,7.5c-21-1.5-69-4.5-88.5-9L3394.5,1291.5z"/>
			<path fill="#FAF8F1" d="M3372,1294.5c19.5-22.5,51-63,82.5-63c-19.5,27-54,49.5-60,60l-6,9L3372,1294.5z"/>
			<path fill="#392E18" d="M3361.5,1341l-9-1.5l-3-4.5c9-7.5,6-4.5,19.5-6c16.5,1.5,43.5,3,58.5,7.5l1.5,6h1.5l1.5-4.5l3,4.5v-3l3,3
				C3415.5,1347,3384,1344,3361.5,1341z"/>
			<path fill="#513318" d="M3349.5,1348.5c16.5,1.5,54,4.5,66,15c-19.5,7.5-40.5-1.5-60-1.5c-10.5-1.5-19.5-1.5-27-9
				C3337.5,1348.5,3337.5,1350,3349.5,1348.5z"/>
			<path fill="#FAF8F1" d="M3709.5,1231.5c136.5-7.5,40.5,102-12,141C3609,1407,3604.5,1269,3709.5,1231.5z"/>
			
				<linearGradient id="SVGID_00000128448974097093731110000003726651502859979962_" gradientUnits="userSpaceOnUse" x1="3174.3726" y1="2694.9141" x2="3333.4807" y2="2342.0708" gradientTransform="matrix(1 0 0 1 0 -878)">
				<stop  offset="0" style="stop-color:#FDB200"/>
				<stop  offset="1" style="stop-color:#FDDE27"/>
			</linearGradient>
			<path fill="url(#SVGID_00000128448974097093731110000003726651502859979962_)" d="M2923.5,1563c3-36,24-58.5,52.5-76.5
				c85.5-55.5,202.5-63,300-43.5c75,18,144,48,186,118.5c55.5,96,51,262.5,33,367.5c-13.5,21-21,25.5-48,27
				c-22.5-7.5-25.5-16.5-36-37.5c-6-13.5-10.5-31.5-13.5-48c-6-19.5-7.5-25.5-25.5-36c-40.5-87-46.5-120-132-184.5
				c-72-51-127.5-49.5-210-37.5C2991,1608,2949,1593,2923.5,1563z"/>
			<path fill="#EB8602" d="M2923.5,1563c117-3,310.5,42,397.5,123c51,48,78,106.5,91.5,174c10.5,48,7.5,55.5,34.5,96
				c-22.5-7.5-25.5-16.5-36-37.5c-6-13.5-10.5-31.5-13.5-48c-6-19.5-7.5-25.5-25.5-36c-40.5-87-46.5-120-132-184.5
				c-72-51-127.5-49.5-210-37.5C2991,1608,2949,1593,2923.5,1563z"/>
			<path fill="#F8AF11" d="M3421.5,1410c4.5,1.5,19.5,6,22.5,7.5c54,27,147,70.5,207,84c-3,123,13.5,483,90,574.5c4.5,6,9,15,12,21
				c-60,3-186,0-217.5-60c-16.5-31.5-4.5-109.5-3-145.5c3-129-1.5-267-48-388.5C3472.5,1474.5,3441,1434,3421.5,1410L3421.5,1410z"
				/>
			<path fill="#3356AD" d="M3874.5,1999.5c7.5-7.5,7.5-10.5,19.5-9c28.5,1.5,102,13.5,112.5,43.5l-9,13.5c3,7.5,6,16.5,7.5,22.5
				c6,10.5,4.5,18,6,30c-3,28.5-7.5,55.5-10.5,84c-66-24-133.5-54-199.5-78c-16.5-12-33-34.5-45-51c21-3,45-1.5,66,3l21-6l13.5-1.5
				l3-6C3867,2029.5,3871.5,2014.5,3874.5,1999.5L3874.5,1999.5z"/>
			<path fill="#FAAF91" d="M3874.5,1999.5c7.5-7.5,7.5-10.5,19.5-9c28.5,1.5,102,13.5,112.5,43.5l-9,13.5c3,7.5,6,16.5,7.5,22.5
				c-54,7.5-91.5-60-132-28.5c-6,4.5-9,6-15,9l3-6C3867,2029.5,3871.5,2014.5,3874.5,1999.5L3874.5,1999.5z"/>
			<path fill="#E17A53" d="M3874.5,1999.5c7.5-7.5,7.5-10.5,19.5-9c28.5,1.5,102,13.5,112.5,43.5l-9,13.5
				c-25.5-19.5-73.5-39-106.5-39c-22.5,0-15,21-31.5,36C3867,2029.5,3871.5,2014.5,3874.5,1999.5L3874.5,1999.5z"/>
			<path fill="#C5C8C7" d="M3876,2041.5c10.5,4.5,19.5,4.5,27,13.5l-1.5,6c-21,7.5-54,3-76.5-3l21-6l13.5-1.5
				C3867,2047.5,3870,2046,3876,2041.5L3876,2041.5z"/>
			<path fill="#FDD534" d="M3751.5,2053.5l6,1.5c12,16.5,28.5,39,45,51c66,25.5,133.5,54,199.5,78l-1.5,21
				c10.5,18,226.5,87,256.5,94.5c4.5,1.5,9,1.5,13.5,3c16.5,7.5,31.5,12,45,24l-3,10.5l-9,7.5c-3-9-3-10.5-10.5-18l-10.5-7.5
				c-27,0-129-39-157.5-49.5c-75-25.5-150-54-223.5-81c-61.5-24-105-36-145.5-93c-4.5-6-9-15-12-21c4.5,3,22.5,24,27,30
				c37.5,42,52.5,49.5,103.5,67.5l3-1.5c-10.5-10.5-27-13.5-37.5-21C3810,2128.5,3762,2083.5,3751.5,2053.5L3751.5,2053.5z"/>
			<path fill="#FAF8F1" d="M3802.5,2106c66,25.5,133.5,54,199.5,78l-1.5,21C3951,2199,3829.5,2149.5,3802.5,2106z"/>
			<path fill="#DF5C05" d="M3411,1918.5c9,19.5,12,30,36,37.5c27-1.5,33-6,48-27c12,70.5-69,45-102,18l-4.5,22.5v-33l15,1.5
				C3409.5,1932,3408,1929,3411,1918.5L3411,1918.5z"/>
			
				<linearGradient id="SVGID_00000147913687074324566070000003288604962143418302_" gradientUnits="userSpaceOnUse" x1="4529.2573" y1="3310.7905" x2="4474.6553" y2="2803.9299" gradientTransform="matrix(1 0 0 1 0 -878)">
				<stop  offset="0" style="stop-color:#F9AE01"/>
				<stop  offset="1" style="stop-color:#FDCB0A"/>
			</linearGradient>
			<path fill="url(#SVGID_00000147913687074324566070000003288604962143418302_)" d="M4113,1783.5c160.5-19.5,282-36,444-4.5
				c31.5,6,81,13.5,109.5,28.5c66,21,78,37.5,127.5,58.5c48,31.5,91.5,69,127.5,112.5c88.5,88.5,94.5,204,94.5,321
				c0,40.5-6,76.5-48,94.5c-3,1.5-10.5,3-12,4.5c6,45,27,136.5,12,178.5c-4.5,12-85.5,0-100.5-1.5c3,61.5,4.5,99-46.5,142.5
				c-16.5,39-34.5,72-63,102c-88.5,94.5-252,94.5-343.5,3c-72-72-87-156-87-253.5c-33-9-102-34.5-132-49.5c-7.5-3-24-4.5-31.5-6
				c-73.5-15-111-48-135-118.5c42,10.5,76.5,16.5,120,13.5h6c21-3,33-4.5,54-10.5c15-10.5,21-15,33-28.5l7.5-12c4.5-10.5,6-15,12-24
				l16.5-15l10.5,7.5c6,7.5,7.5,9,10.5,18l9-7.5l3-10.5c-13.5-12-28.5-16.5-45-24c-4.5-1.5-9-1.5-13.5-3c-30-7.5-246-78-256.5-94.5
				l1.5-21c4.5-28.5,7.5-55.5,10.5-84c0-12,0-19.5-6-30c-3-6-6-16.5-7.5-22.5l9-13.5c10.5-1.5,28.5-6,39-7.5l4.5-6
				c6-37.5,12-150,13.5-190.5l3-49.5C4083,1780.5,4098,1782,4113,1783.5L4113,1783.5z"/>
			<path fill="#313131" d="M4282.5,2320.5l10.5,7.5c6,7.5,7.5,9,10.5,18l9-7.5l3-10.5c13.5-4.5,19.5,0,31.5,9c6,13.5,15,31.5,21,45
				c7.5,3,18,10.5,25.5,10.5c27,4.5,52.5,10.5,78,16.5c13.5,1.5,72,18,78,16.5c10.5,4.5,13.5,4.5,24,6c28.5,3,57,1.5,78,18
				c30,9,58.5,18,90,25.5c6,1.5,16.5,4.5,24,4.5c9,13.5,46.5,24,61.5,25.5l4.5-4.5h1.5v15c24,12,33,36,37.5,61.5
				c3,61.5,4.5,99-46.5,142.5c-16.5,39-34.5,72-63,102c-88.5,94.5-252,94.5-343.5,3c-72-72-87-156-87-253.5c-33-9-102-34.5-132-49.5
				c-7.5-3-24-4.5-31.5-6c-73.5-15-111-48-135-118.5c42,10.5,76.5,16.5,120,13.5h6c21-3,33-4.5,54-10.5c15-10.5,21-15,33-28.5
				l7.5-12c4.5-10.5,6-15,12-24L4282.5,2320.5z"/>
			<path fill="#272425" d="M4333.5,2554.5c12-4.5,19.5,0,34.5,1.5c12,4.5,24,4.5,37.5,4.5c15,18,22.5,27,42,40.5
				c16.5,10.5,30,13.5,34.5,31.5l1.5-9c13.5-4.5,28.5,7.5,43.5,13.5v1.5c16.5,3,40.5,6,46.5,24l4.5-3c7.5,3,16.5,7.5,24,10.5
				c34.5,7.5,25.5,21,34.5,49.5l3,22.5l6,1.5c13.5-4.5,27-12,30-27c9-4.5,9-9,15-18c9-4.5,6-3,18-1.5c7.5,3,33,12,39,13.5l15,6
				l15,4.5c21,7.5,25.5,4.5,45-1.5c-16.5,39-34.5,72-63,102c-88.5,94.5-252,94.5-343.5,3c-72-72-87-156-87-253.5L4333.5,2554.5z"/>
			<path fill="#99A9AE" d="M4485,2632.5l1.5-9c13.5-4.5,28.5,7.5,43.5,13.5v1.5c16.5,3,40.5,6,46.5,24l4.5-3c7.5,3,16.5,7.5,24,10.5
				c34.5,7.5,25.5,21,34.5,49.5l3,22.5l6,1.5c13.5-4.5,27-12,30-27c9-4.5,9-9,15-18c9-4.5,6-3,18-1.5c7.5,3,33,12,39,13.5l15,6
				c-15,31.5-25.5,48-54,69c-76.5,58.5-187.5-3-208.5-90C4494,2676,4489.5,2653.5,4485,2632.5z"/>
			<path fill="#858684" d="M4678.5,2718c9-4.5,9-9,15-18c9-4.5,6-3,18-1.5c7.5,3,33,12,39,13.5c-40.5,57-97.5,97.5-163.5,48
				c16.5-1.5,43.5-4.5,55.5-16.5l6,1.5C4660.5,2739,4674,2733,4678.5,2718L4678.5,2718z"/>
			<path fill="#D62931" d="M4603.5,2670c34.5,7.5,25.5,21,34.5,49.5l3,22.5c-12,12-39,13.5-55.5,16.5
				C4575,2748,4599,2688,4603.5,2670z"/>
			<path fill="#D62931" d="M4528.5,2638.5c16.5,3,40.5,6,46.5,24c-10.5,21-19.5,40.5-31.5,61.5c-4.5-6-24-40.5-27-43.5
				C4513.5,2656.5,4509,2650.5,4528.5,2638.5z"/>
			<path fill="#989C9B" d="M4485,2632.5l1.5-9c13.5-4.5,28.5,7.5,43.5,13.5v1.5c-19.5,12-15,18-10.5,40.5c-6-10.5-7.5-18-18-24
				c-1.5,16.5,6,24,4.5,40.5C4494,2676,4489.5,2653.5,4485,2632.5L4485,2632.5z"/>
			<path fill="#C5C8C7" d="M4539,2530.5c6-27-6-52.5,10.5-73.5c12-7.5,7.5-4.5,22.5-6c34.5,9,174,42,196.5,54c18,36,18,99,4.5,136.5
				c-3,9-7.5,18-16.5,22.5c-13.5,6-184.5-52.5-208.5-63c-7.5-3-12-6-15-13.5c-4.5-10.5-1.5-25.5,0-36
				C4534.5,2548.5,4537.5,2535,4539,2530.5L4539,2530.5z"/>
			<path fill="#858684" d="M4213.5,2400c15-10.5,21-15,33-28.5c15,15,28.5,36,42,46.5c12,12,49.5,58.5,58.5,73.5v4.5l-18,7.5l-24,6
				l-31.5,1.5l-13.5,4.5l-9,9l-48-1.5c-7.5-3-24-4.5-31.5-6c-73.5-15-111-48-135-118.5c42,10.5,76.5,16.5,120,13.5h6
				C4180.5,2407.5,4192.5,2406,4213.5,2400L4213.5,2400z"/>
			<path fill="#828169" d="M4033.5,2397c42,10.5,76.5,16.5,120,13.5c0,33,22.5,48,45,67.5l-1.5,6c15,13.5,40.5,28.5,60,31.5l-9,9
				l-48-1.5c-7.5-3-24-4.5-31.5-6C4095,2500.5,4057.5,2467.5,4033.5,2397L4033.5,2397z"/>
			<path fill="#73736C" d="M4213.5,2400c15-10.5,21-15,33-28.5c15,15,28.5,36,42,46.5c12,12,49.5,58.5,58.5,73.5v4.5
				c-6-3-7.5-3-13.5-4.5C4287,2476.5,4236,2442,4213.5,2400L4213.5,2400z"/>
			<path fill="#73736C" d="M4153.5,2410.5h6c43.5,61.5,91.5,96,168,93l-24,6l-31.5,1.5l-13.5,4.5c-19.5-3-46.5-18-60-31.5l1.5-6
				C4176,2457,4155,2443.5,4153.5,2410.5z"/>
			<path fill="#858684" d="M4198.5,2478c22.5,10.5,49.5,24,72,33l-13.5,4.5c-19.5-3-46.5-18-60-31.5L4198.5,2478z"/>
			
				<linearGradient id="SVGID_00000070087249038874804870000017407945360648431751_" gradientUnits="userSpaceOnUse" x1="4506.2695" y1="3291.7729" x2="4488.9702" y2="3341.9165" gradientTransform="matrix(1 0 0 1 0 -878)">
				<stop  offset="0" style="stop-color:#565756"/>
				<stop  offset="1" style="stop-color:#7A7A79"/>
			</linearGradient>
			<path fill="url(#SVGID_00000070087249038874804870000017407945360648431751_)" d="M4362,2380.5l4.5,1.5c7.5,3,18,10.5,25.5,10.5
				c27,4.5,52.5,10.5,78,16.5c13.5,1.5,72,18,78,16.5c10.5,4.5,13.5,4.5,24,6c28.5,3,57,1.5,78,18c-24,1.5-61.5-18-76.5-7.5l-3,9
				c-16.5,0-10.5-1.5-22.5,6c-15,21-3,46.5-10.5,73.5c-1.5-15,0-39,0-55.5c-10.5-3-93-24-97.5-22.5c-15-1.5-72-45-84-55.5
				L4362,2380.5z"/>
			
				<linearGradient id="SVGID_00000091708915159658199250000011582118742983683200_" gradientUnits="userSpaceOnUse" x1="4445.1064" y1="3353.0515" x2="4309.9551" y2="3226.8071" gradientTransform="matrix(1 0 0 1 0 -878)">
				<stop  offset="0" style="stop-color:#878685"/>
				<stop  offset="1" style="stop-color:#A6A6A6"/>
			</linearGradient>
			<path fill="url(#SVGID_00000091708915159658199250000011582118742983683200_)" d="M4282.5,2320.5l10.5,7.5c6,7.5,7.5,9,10.5,18
				l9-7.5l3-10.5c13.5-4.5,19.5,0,31.5,9c6,13.5,15,31.5,21,45l-4.5-1.5l-4.5,18c12,10.5,69,54,84,55.5c10.5,15,12,31.5-6,42
				c-22.5,0-45-25.5-61.5-40.5c-33-31.5-67.5-61.5-102-94.5c-3-7.5-4.5-16.5-7.5-24L4282.5,2320.5z"/>
			<path fill="#858684" d="M4314,2328c13.5-4.5,19.5,0,31.5,9c6,13.5,15,31.5,21,45l-4.5-1.5c-30-12-34.5-15-51-42L4314,2328z"/>
			<path fill="#636A6A" d="M4312.5,2338.5c15,27,21,28.5,51,42l-4.5,18c-16.5-10.5-48-34.5-54-52.5L4312.5,2338.5z"/>
			<path fill="#DCDBD7" d="M4282.5,2320.5l10.5,7.5c0,15,3,12-4.5,24c-4.5,3-10.5,6-16.5,7.5c-3-7.5-4.5-16.5-7.5-24L4282.5,2320.5z
				"/>
			<path fill="#484747" d="M4441.5,2452.5c4.5-1.5,85.5,19.5,97.5,22.5c0,15-1.5,40.5,0,55.5c-1.5,4.5-4.5,18-6,21
				c-15-7.5-51,10.5-85.5-10.5c-25.5-15-66-61.5-73.5-88.5c16.5,15,40.5,40.5,61.5,40.5C4455,2484,4452,2469,4441.5,2452.5
				L4441.5,2452.5z"/>
			<path fill="#907844" d="M4302,2511c31.5,1.5,28.5-3,54-13.5l3-1.5l15,7.5c12,7.5,34.5,39,33,55.5c-13.5,0-25.5,0-37.5-4.5
				c-15-3-22.5-6-34.5-1.5l-3,18c-33-9-102-34.5-132-49.5l48,1.5l9-9l13.5-4.5L4302,2511z"/>
			<path fill="#392E18" d="M4200,2523l48,1.5l16.5,4.5c15,7.5,54,28.5,70.5,25.5l-3,18C4299,2563.5,4230,2538,4200,2523L4200,2523z"
				/>
			<path fill="#7E6F3E" d="M4264.5,2527.5l1.5-6c34.5-19.5,64.5,15,94.5,27c6,3,4.5,0,9,6c-15-3-22.5-6-34.5-1.5
				C4318.5,2556,4278,2536.5,4264.5,2527.5z"/>
			<path fill="#7E6F3E" d="M4554,2628c51,19.5,103.5,39,156,55.5l1.5,15c-12-1.5-10.5-4.5-18,1.5c-6,10.5-6,13.5-15,18
				c-3,15-16.5,22.5-30,27l-6-1.5l-3-22.5c-10.5-30-1.5-42-34.5-49.5c-7.5-4.5-15-7.5-24-10.5l-4.5,3c-7.5-18-30-21-46.5-24v-1.5
				C4534.5,2635.5,4549.5,2629.5,4554,2628L4554,2628z"/>
			<path fill="#99A9AE" d="M4635,2674.5c34.5,7.5,34.5,9,43.5,42c-3,15-16.5,22.5-30,27l-6-1.5l-3-22.5
				C4641,2707.5,4636.5,2688,4635,2674.5L4635,2674.5z"/>
			<path fill="#545329" d="M4834.5,2515.5c24,12,33,36,37.5,61.5c3,61.5,4.5,99-46.5,142.5c-19.5,6-25.5,9-45,1.5l-15-4.5l-15-6
				c-6-1.5-31.5-10.5-39-13.5l-1.5-15c28.5,9,55.5,15,84,21c7.5-3,15-4.5,21-9c37.5-18,51-58.5,48-99
				C4860,2566.5,4848,2544,4834.5,2515.5L4834.5,2515.5z"/>
			<path fill="#545329" d="M4365,2481l3,3c31.5,28.5,54,61.5,82.5,91.5c16.5,16.5,79.5,42,103.5,52.5c-4.5,1.5-19.5,7.5-24,9
				c-15-4.5-28.5-16.5-43.5-13.5l-1.5,9c-4.5-18-18-21-34.5-31.5c-19.5-13.5-27-22.5-42-40.5c1.5-16.5-21-48-33-55.5L4365,2481z"/>
			<path fill="#7E6F3E" d="M4254,2361c24,19.5,34.5,31.5,54,55.5c16.5,18,45,48,57,66l7.5,22.5l-15-7.5l-3,1.5
				c-25.5,10.5-22.5,15-54,13.5l24-6l18-7.5v-4.5c-9-15-45-63-58.5-73.5c-12-10.5-25.5-31.5-42-46.5L4254,2361z"/>
			<path fill="#FDC10B" d="M4113,1783.5c160.5-19.5,282-36,444-4.5c31.5,6,81,13.5,109.5,28.5c-27,1.5-63-12-90-13.5
				c-45-4.5-84,12-124.5,18c-16.5,7.5-40.5,16.5-54,28.5c-93,40.5-148.5,157.5-141,256.5c1.5,21,6,34.5,10.5,54
				c19.5,45,43.5,69,90,87c7.5,6,15,10.5,16.5,18c-9,3-10.5,1.5-21,0c-6,3-13.5,9-19.5,12c-15,9-42,30-55.5,31.5l-9,6
				c-4.5-1.5-9-1.5-13.5-3c-30-7.5-246-78-256.5-94.5l1.5-21c4.5-28.5,7.5-55.5,10.5-84c0-12,0-19.5-6-30c-3-6-6-16.5-7.5-22.5
				l9-13.5c10.5-1.5,28.5-6,39-7.5l4.5-6c6-37.5,12-150,13.5-190.5l3-49.5C4083,1780.5,4098,1782,4113,1783.5L4113,1783.5z"/>
			<path fill="#EB8602" d="M4278,2298c1.5-7.5-12-18-18-24c-81-81-67.5-217.5-15-310.5c37.5-66,129-135,207-154.5v3
				c-16.5,7.5-40.5,16.5-54,28.5c-93,40.5-148.5,157.5-141,256.5c1.5,21,6,34.5,10.5,54c19.5,45,43.5,69,90,87
				c7.5,6,15,10.5,16.5,18c-9,3-10.5,1.5-21,0c-6,3-13.5,9-19.5,12C4318.5,2275.5,4291.5,2296.5,4278,2298L4278,2298z"/>
			<path fill="#DF5C05" d="M4266,2151c19.5,45,43.5,69,90,87c7.5,6,15,10.5,16.5,18c-9,3-10.5,1.5-21,0
				C4317,2244,4230,2193,4266,2151z"/>
			<path fill="#F8AF11" d="M4008,2032.5c10.5-1.5,28.5-6,39-7.5c-12,51-28.5,33-34.5,75c0-12,0-19.5-6-30c-3-6-6-16.5-7.5-22.5
				L4008,2032.5z"/>
			<path fill="#F8AF11" d="M4069.5,1780.5c15,0,28.5,1.5,43.5,3c-12,15-30,34.5-46.5,45L4069.5,1780.5z"/>
			<path fill="#EB8602" d="M4357.5,2236.5c34.5,1.5,51,0,76.5-25.5c3-3,7.5-6,10.5-10.5c21,21,46.5,43.5,75,55.5
				c82.5,33,376.5,130.5,453,136.5c-3,1.5-10.5,3-12,4.5c6,45,27,136.5,12,178.5c-4.5,12-85.5,0-100.5-1.5
				c-4.5-25.5-13.5-48-37.5-61.5v-15h-1.5l-4.5,4.5c-15-1.5-52.5-13.5-61.5-25.5c-6,0-16.5-3-24-4.5c-31.5-6-60-16.5-90-25.5
				c-21-16.5-51-16.5-78-18c-10.5-1.5-13.5-3-24-6c-6,1.5-64.5-15-78-16.5c-27-6-51-12-78-16.5c-7.5-1.5-19.5-7.5-25.5-10.5
				c-7.5-13.5-15-31.5-21-45c-12-9-16.5-13.5-31.5-9c-13.5-12-28.5-16.5-45-24l9-6c13.5-1.5,40.5-22.5,55.5-31.5
				c6-3,13.5-7.5,19.5-12c10.5,1.5,12,3,21,0C4371,2247,4365,2244,4357.5,2236.5L4357.5,2236.5z"/>
			<path fill="#313131" d="M4606.5,2317.5l144,40.5c28.5,28.5,57,72,70.5,111c3,9,7.5,22.5,9,31.5l-4.5,4.5
				c-15-1.5-52.5-13.5-61.5-25.5c-6,0-16.5-3-24-4.5c-31.5-6-60-16.5-90-25.5c-21-16.5-51-16.5-78-18c-10.5-1.5-13.5-3-24-6
				c-6,1.5-64.5-15-78-16.5C4504.5,2356.5,4552.5,2334,4606.5,2317.5L4606.5,2317.5z"/>
			<path fill="#99A9AE" d="M4549.5,2425.5c82.5-70.5,168-34.5,216,55.5c-6,0-16.5-3-24-4.5c-31.5-6-60-16.5-90-25.5
				c-21-16.5-51-16.5-78-18C4563,2430,4560,2430,4549.5,2425.5L4549.5,2425.5z"/>
			<path fill="#73736C" d="M4573.5,2431.5c72-34.5,121.5-21,168,43.5c-31.5-6-60-16.5-90-25.5
				C4630.5,2433,4600.5,2434.5,4573.5,2431.5L4573.5,2431.5z"/>
			<path fill="#DB3210" d="M4350,2268c36-10.5,153,19.5,190.5,33c22.5,4.5,45,10.5,67.5,16.5c-55.5,18-102,39-135,91.5
				c-27-6-51-12-78-16.5c-7.5-1.5-19.5-7.5-25.5-10.5c-7.5-13.5-15-31.5-21-45c-12-9-16.5-13.5-31.5-9c-13.5-12-28.5-16.5-45-24l9-6
				c13.5-1.5,40.5-22.5,55.5-31.5C4338,2266.5,4344,2268,4350,2268L4350,2268z"/>
			<path fill="#272425" d="M4540.5,2301c22.5,4.5,45,10.5,67.5,16.5c-55.5,18-102,39-135,91.5c-27-6-51-12-78-16.5
				C4432.5,2341.5,4476,2314.5,4540.5,2301z"/>
			<path fill="#EE7606" d="M4333.5,2266.5c4.5,1.5,10.5,1.5,16.5,3c-9,25.5-6,42-4.5,67.5c-12-9-16.5-13.5-31.5-9
				c-13.5-12-28.5-16.5-45-24l9-6C4291.5,2296.5,4318.5,2275.5,4333.5,2266.5L4333.5,2266.5z"/>
			<path fill="#DF5C05" d="M4752,2358c40.5,6,174,43.5,199.5,42c0,27,7.5,43.5-7.5,58.5l-15,4.5c-30,16.5-63,28.5-94.5,39h-1.5
				c-1.5-9-6-22.5-9-31.5C4809,2430,4780.5,2386.5,4752,2358L4752,2358z"/>
			<path fill="#EE7606" d="M4822.5,2469c21-10.5,79.5-7.5,106.5-7.5c-30,16.5-63,28.5-94.5,39h-1.5
				C4830,2491.5,4825.5,2479.5,4822.5,2469z"/>
			<path fill="#FDDD28" d="M4452,1812c40.5-7.5,81-22.5,124.5-18c27,3,64.5,15,90,13.5c66,21,78,37.5,127.5,58.5
				c48,31.5,91.5,69,127.5,112.5c-15-3-45-19.5-58.5-25.5c-88.5-46.5-195-67.5-292.5-33c-99,34.5-153,97.5-154.5,202.5
				c-51-1.5-114-13.5-153-48c10.5-124.5,54-157.5,132-232.5C4411.5,1828.5,4435.5,1819.5,4452,1812L4452,1812z"/>
			<path fill="#3356AD" d="M4413,660c28.5-1.5,79.5,0,108,7.5c22.5,7.5,22.5,9,30,31.5l3,3c24,22.5,48,28.5,70.5,43.5
				c42,27,61.5,148.5,61.5,196.5c0,12-3,18-7.5,28.5c-7.5,6-18,16.5-25.5,21c-7.5,30-7.5,67.5-16.5,103.5c-1.5,10.5-3,21-6,31.5
				c-4.5,19.5-10.5,39-22.5,55.5l-3,7.5c-4.5,42-13.5,85.5-18,127.5c0,13.5,3,39,1.5,52.5c4.5,24,10.5,43.5,0,66l-9-1.5
				c-19.5,9-34.5,10.5-55.5,15v27c-4.5,54-10.5,76.5-45,121.5c-34.5,34.5-37.5,27-75,48c-30,10.5-84,13.5-115.5,15
				c-27-9-63-9-105-22.5c-37.5-13.5-82.5-49.5-112.5-52.5l1.5,97.5c0,31.5,0,67.5-3,97.5l-4.5,49.5c-1.5,40.5-7.5,153-13.5,190.5
				l-4.5,6c-10.5,1.5-30,6-39,7.5c-12-30-84-42-112.5-43.5c-12,0-12,1.5-19.5,9c-4.5,15-7.5,30-12,45l-3,6l-13.5,1.5l-21,6
				c-21-4.5-45-6-66-3l-6-1.5c-7.5-19.5-18-48-22.5-67.5c-15-45-19.5-103.5-33-139.5c36-34.5,48-51,76.5-91.5
				c43.5-70.5,63-112.5,94.5-187.5c19.5-66,33-117,48-183l1.5-9c1.5-19.5,4.5-42,7.5-61.5c1.5-31.5,3-46.5-1.5-76.5
				c-15-22.5,12-28.5-6-69l7.5-4.5c13.5-15,39-46.5,55.5-58.5c25.5-16.5,66,0,88.5-21c6-10.5,6-19.5,6-31.5c-3-12,4.5-34.5,10.5-45
				l3-9v-3c1.5-13.5,3-7.5-3-19.5c-10.5-6-16.5-6-28.5-6l-10.5-3c28.5-48,87-84,135-117c1.5-15,3-25.5,7.5-40.5
				c9-18,16.5-22.5,31.5-34.5c10.5-18,16.5-25.5,30-42c15-16.5,64.5-37.5,87-37.5c9-10.5,12-16.5,25.5-22.5
				C4384.5,666,4392,663,4413,660L4413,660z"/>
			<path fill="#EE4319" d="M4413,660c28.5-1.5,79.5,0,108,7.5c22.5,7.5,22.5,9,30,31.5l3,3c24,22.5,48,28.5,70.5,43.5
				c42,27,61.5,148.5,61.5,196.5c0,12-3,18-7.5,28.5c-7.5,6-18,16.5-25.5,21c-7.5,30-7.5,67.5-16.5,103.5c-1.5,10.5-3,21-6,31.5
				c-4.5,19.5-10.5,39-22.5,55.5c-126,13.5-229.5-43.5-328.5-115.5c-13.5,16.5-12,15-34.5,15l-6-4.5c-34.5,25.5-34.5,4.5-60,12
				c-10.5,0-9-4.5-22.5-1.5c-12,0-13.5,0-22.5-6c-4.5-9-4.5-10.5-4.5-21l-1.5-3c-15,0-37.5-4.5-52.5-6c-3-12,4.5-34.5,10.5-45l3-9
				v-3c1.5-13.5,3-7.5-3-19.5c-10.5-6-16.5-6-28.5-6l-10.5-3c28.5-48,87-84,135-117c1.5-15,3-25.5,7.5-40.5
				c9-18,16.5-22.5,31.5-34.5c10.5-18,16.5-25.5,30-42c15-16.5,64.5-37.5,87-37.5c9-10.5,12-16.5,25.5-22.5
				C4384.5,666,4392,663,4413,660L4413,660z"/>
			<path fill="#FAAF91" d="M4504.5,948c21-16.5,43.5-24,70.5-27c28.5-3,88.5-6,79.5,39l-1.5,30c-7.5,30-7.5,67.5-16.5,103.5
				c-1.5,10.5-3,21-6,31.5c-4.5,19.5-10.5,39-22.5,55.5c-126,13.5-229.5-43.5-328.5-115.5c-13.5,16.5-12,15-34.5,15l-6-4.5
				c-34.5,25.5-34.5,4.5-60,12c-10.5,0-9-4.5-22.5-1.5c-12,0-13.5,0-22.5-6c-4.5-9-4.5-10.5-4.5-21l-1.5-3c-15,0-37.5-4.5-52.5-6
				c-3-12,4.5-34.5,10.5-45l3-9c46.5-4.5,42-22.5,82.5-16.5c121.5,24,171,49.5,282,82.5c13.5,4.5,28.5,9,40.5,13.5c4.5-12,6-84,6-99
				L4504.5,948z"/>
			<path fill="#F38D64" d="M4504.5,948c21-16.5,43.5-24,70.5-27c28.5-3,88.5-6,79.5,39c-16.5-19.5-31.5-28.5-58.5-30
				c-82.5-6-76.5,97.5-79.5,153c-7.5-1.5-16.5-4.5-24-6c4.5-12,6-84,6-99L4504.5,948z"/>
			<path fill="#E17A53" d="M4161,999c3,18,1.5,37.5,13.5,52.5c9-3,12-16.5,19.5-28.5l3,1.5c0,10.5,0,16.5,3,27l4.5,3
				c16.5-6,7.5-16.5,22.5-25.5l3,7.5l1.5,19.5l7.5,19.5c-34.5,25.5-34.5,4.5-60,12c-10.5,0-9-4.5-22.5-1.5c-12,0-13.5,0-22.5-6
				c-4.5-9-4.5-10.5-4.5-21C4155,1059,4155,1021.5,4161,999z"/>
			<path fill="#484747" d="M4084.5,1006.5c13.5,3,28.5,6,42,6c0,13.5-1.5,31.5,0,45c-15,0-37.5-4.5-52.5-6
				C4071,1039.5,4080,1018.5,4084.5,1006.5z"/>
			<path fill="#989C9B" d="M4249.5,1027.5c12,0,13.5,0,22.5,7.5c7.5,10.5,7.5,18,7.5,31.5c-13.5,16.5-12,15-34.5,15l-6-4.5
				l-7.5-19.5l-1.5-19.5C4237.5,1036.5,4243.5,1032,4249.5,1027.5L4249.5,1027.5z"/>
			<path fill="#F6CDBF" d="M4230,1036.5c7.5,0,13.5-6,19.5-10.5c6,10.5,9,12,7.5,22.5c-9,9-13.5,9-25.5,7.5L4230,1036.5z"/>
			<path fill="#E17A53" d="M4182,849c10.5-6,16.5-10.5,28.5-12l7.5,3l1.5,6c4.5,19.5-6,15-16.5,28.5l-3,7.5l-12-12l-4.5-1.5
				c-16.5,12-31.5,22.5-48,31.5c16.5,12,37.5,24,40.5,43.5c-3,12-6,24-6,37.5c-40.5-6-36,13.5-82.5,16.5v-3c1.5-13.5,3-7.5-3-19.5
				c-10.5-6-16.5-6-28.5-6l-10.5-3C4077,918,4135.5,882,4182,849L4182,849z"/>
			<path fill="#989C9B" d="M4182,849c10.5-6,16.5-10.5,28.5-12l7.5,3l1.5,6c4.5,19.5-6,15-16.5,28.5l-3,7.5l-12-12l-4.5-1.5
				c-16.5,12-31.5,22.5-48,31.5c-40.5,27-45,40.5-78,69l-10.5-3C4077,918,4135.5,882,4182,849L4182,849z"/>
			<path fill="#858684" d="M4219.5,846c4.5,19.5-6,15-16.5,28.5l-3,7.5l-12-12l-4.5-1.5C4189.5,853.5,4204.5,850.5,4219.5,846z"/>
			<path fill="#DB3210" d="M4452,1062c-24-81,27-225,78-291c-21,57-27,102-36,163.5h-9c-4.5,6-4.5,6-4.5,13.5c6-3,10.5-4.5,16.5-7.5
				c4.5,3,4.5,1.5,6,7.5l-6,30c0,15-1.5,87-6,99C4480.5,1071,4465.5,1066.5,4452,1062L4452,1062z"/>
			<path fill="#B13609" d="M4480.5,948c6-3,10.5-4.5,16.5-7.5c4.5,3,4.5,1.5,6,7.5l-6,30C4485,966,4482,964.5,4480.5,948z"/>
			<path fill="#99A9AE" d="M4221,774l15-3c15,10.5,52.5,4.5,58.5,31.5c4.5,21-7.5,40.5-4.5,60l-7.5-1.5c-28.5,31.5-40.5,51-79.5,12
				c10.5-13.5,19.5-9,16.5-28.5l-1.5-6l-7.5-3c-10.5,1.5-18,6-28.5,12c1.5-15,3-25.5,7.5-40.5C4198.5,792,4206,787.5,4221,774
				L4221,774z"/>
			<path fill="#DB3210" d="M4413,660c28.5-1.5,79.5,0,108,7.5c22.5,7.5,22.5,9,30,31.5c-42-3-84-12-126-12c-25.5,0-63,12-85.5,9
				c9-10.5,12-16.5,25.5-22.5C4384.5,666,4392,663,4413,660z"/>
			<path fill="#DB3210" d="M4494,934.5c54-42,139.5-39,192,6c0,12-3,18-7.5,28.5c-7.5,6-18,16.5-25.5,21l1.5-30
				c9-43.5-52.5-40.5-79.5-39c-27,1.5-49.5,10.5-70.5,27c-3-4.5-1.5-3-6-7.5c-6,3-10.5,4.5-16.5,7.5c0-7.5,0-7.5,4.5-13.5H4494z"/>
			<path fill="#FAF8F1" d="M4236,771c40.5-7.5,64.5-7.5,81,36c-7.5,27-9,34.5-27,55.5c-3-21,9-39,4.5-60
				C4290,775.5,4251,781.5,4236,771L4236,771z"/>
			<path fill="#858684" d="M4317,807c6,40.5-16.5,88.5-61.5,94.5c-18,3-37.5-3-51-15c-1.5-1.5-3-3-4.5-4.5l3-7.5
				c39,37.5,52.5,19.5,79.5-12l7.5,1.5C4309.5,843,4311,834,4317,807z"/>
			<path fill="#B13609" d="M4183.5,868.5l4.5,1.5c-3,19.5-6,55.5-12,73.5c-4.5-19.5-25.5-31.5-40.5-43.5
				C4153.5,891,4168.5,879,4183.5,868.5z"/>
			<path fill="#DB3210" d="M4074,1053c15,1.5,37.5,4.5,52.5,6l1.5,3c0,10.5,0,12,4.5,21c9,6,10.5,6,22.5,6c13.5-3,12,0,22.5,1.5
				c25.5-9,25.5,13.5,60-12l6,4.5c22.5,0,21,0,34.5-15c99,72,202.5,129,328.5,115.5l-3,7.5c-4.5,42-13.5,85.5-18,127.5
				c0,13.5,3,39,1.5,52.5c4.5,24,10.5,43.5,0,66l-9-1.5c-19.5,9-34.5,10.5-55.5,15V1407c-21-7.5-45-21-67.5-28.5
				c-109.5-42-196.5-61.5-312-39l-7.5-3c-51-18-102-40.5-156-33c-21,3-39,6-58.5,12c1.5-31.5,3-46.5-1.5-76.5c-15-22.5,12-28.5-6-69
				l7.5-4.5c13.5-15,39-46.5,55.5-58.5c25.5-16.5,66,0,88.5-21C4075.5,1074,4074,1065,4074,1053z"/>
			<path fill="#D62931" d="M4074,1053c15,1.5,37.5,4.5,52.5,6l1.5,3c0,10.5,0,12,4.5,21c9,6,10.5,6,22.5,6c13.5-3,12,0,22.5,1.5
				c-6,6-9,7.5-9,18c-1.5,79.5-13.5,150-31.5,228c-51-18-102-40.5-156-33c-21,3-39,6-58.5,12c1.5-31.5,3-46.5-1.5-76.5
				c-15-22.5,12-28.5-6-69l7.5-4.5c13.5-15,39-46.5,55.5-58.5c25.5-16.5,66,0,88.5-21C4075.5,1074,4074,1065,4074,1053z"/>
			<path fill="#E17A53" d="M4074,1053c15,1.5,37.5,4.5,52.5,6l1.5,3c0,10.5,0,12,4.5,21c9,6,10.5,6,22.5,6
				c-34.5,40.5-94.5,99-145.5,112.5c-34.5-9-75-37.5-87-37.5c13.5-15,39-46.5,55.5-58.5c25.5-16.5,66,0,88.5-21
				C4075.5,1074,4074,1065,4074,1053z"/>
			<path fill="#EE4319" d="M4588.5,1419c-52.5-21-97.5-52.5-154.5-70.5c-52.5-16.5-100.5-30-156-37.5c-19.5-3-54-9-69-25.5
				c-13.5-15-13.5-48,6-60c3,1.5,13.5,10.5,15,10.5c88.5-16.5,157.5,28.5,240,48c37.5,9,93-13.5,115.5,33c0,13.5,3,39,1.5,52.5
				C4579.5,1381.5,4587,1404,4588.5,1419z"/>
			<path fill="#F38D64" d="M4279.5,1065c99,72,202.5,129,328.5,115.5l-3,7.5c-85.5,94.5-247.5-58.5-330-100.5
				c-13.5-7.5-16.5-3-30-7.5C4266,1080,4266,1081.5,4279.5,1065z"/>
			<path fill="#97221C" d="M4525.5,1405.5c15,6,42,18,55.5,28.5c-19.5,9-34.5,10.5-55.5,15V1405.5z"/>
			<path fill="#21397F" d="M4146,1338c115.5-24,202.5-3,312,39c22.5,9,46.5,21,67.5,28.5v43.5v27c-4.5,54-10.5,76.5-45,121.5
				c-34.5,34.5-37.5,27-75,48c-30,10.5-84,13.5-115.5,15c-27-9-63-9-105-22.5c-37.5-13.5-82.5-49.5-112.5-52.5
				c-3-13.5-3-37.5-4.5-54c-4.5-31.5-9-63-10.5-94.5l3-4.5c57-18,183,145.5,319.5,139.5c34.5-1.5,75-15,99-42
				c25.5-27,27-61.5,25.5-97.5c-1.5-1.5-1.5-3-3-4.5c-27-43.5-171-90-207-57v4.5l9,4.5c-22.5,0-40.5-1.5-61.5,1.5
				C4212,1371,4174.5,1353,4146,1338z"/>
			<path fill="#D62931" d="M3867,1567.5c-3,133.5-24,286.5-22.5,420c10.5,4.5,21,9,31.5,12c-4.5,15-7.5,30-12,45l-3,6l-13.5,1.5
				l-21,6c-21-4.5-45-6-66-3l-6-1.5c-7.5-19.5-18-48-22.5-67.5c-15-45-19.5-103.5-33-139.5c36-34.5,48-51,76.5-91.5
				C3814.5,1684.5,3835.5,1642.5,3867,1567.5L3867,1567.5z"/>
			<path fill="#313131" d="M3772.5,1755c6,22.5-6,220.5-19.5,246l-24-16.5c-15-45-19.5-103.5-33-139.5
				C3732,1812,3744,1795.5,3772.5,1755L3772.5,1755z"/>
			<path fill="#F8AF11" d="M3729,1986l24,16.5c21,16.5,67.5,36,93,51l-21,6c-21-4.5-45-6-66-3l-6-1.5
				C3742.5,2034,3732,2005.5,3729,1986L3729,1986z"/>
			<path fill="#21397F" d="M3915,1384.5c1.5,51-6,117-9,169.5c-4.5,103.5-4.5,207,0,312c1.5,28.5,1.5,78,6,105
				c43.5,10.5,106.5,22.5,141,49.5l-4.5,6c-10.5,1.5-30,6-39,7.5c-12-30-84-42-112.5-43.5c-12,0-12,1.5-19.5,9
				c-10.5-3-21-7.5-31.5-12c0-132,19.5-286.5,22.5-420C3886.5,1503,3900,1450.5,3915,1384.5z"/>
			<path fill="#20356E" d="M4242,1383c22.5-4.5,40.5-3,61.5-1.5c12,1.5,34.5,4.5,43.5,12c-6,13.5-30,15-45,18
				C4281,1402.5,4261.5,1393.5,4242,1383z"/>
			<path fill="#20356E" d="M3924,1314c21-6,37.5-7.5,58.5-12c-40.5,21-48,31.5-66,73.5C3918,1356,3921,1333.5,3924,1314z"/>
			<path fill="#313131" d="M4072.5,1584c30,3,76.5,39,112.5,52.5c42,13.5,78,13.5,105,22.5c31.5-3,85.5-4.5,115.5-15
				c37.5-21,40.5-13.5,75-48c60,3,190.5-4.5,253.5-6c4.5,19.5-9,43.5-3,55.5l7.5,1.5c18-12,10.5-31.5,24-43.5c7.5,1.5,15,3,19.5,3
				c19.5,4.5,91.5,40.5,114,51c94.5,43.5,190.5,88.5,285,133.5c-4.5,28.5-25.5,45-7.5,70.5c1.5,1.5,1.5,3,3,4.5
				c-120,0-262.5-3-381,1.5c-51-21-61.5-37.5-127.5-58.5c-28.5-15-78-22.5-109.5-28.5c-162-31.5-285-15-444,4.5c-15-3-28.5-3-43.5-3
				c3-31.5,3-66,3-97.5L4072.5,1584z"/>
			<path fill="#484747" d="M4405.5,1644c58.5,7.5,163.5,18,205.5,64.5l1.5,7.5c-9,10.5-22.5,13.5-37.5,13.5c-90,3-178.5-9-270-4.5
				c-36,1.5-145.5,34.5-171,28.5c-16.5-21,7.5-58.5,22.5-76.5c52.5-15,82.5-9,132-16.5C4321.5,1657.5,4375.5,1656,4405.5,1644z"/>
			<path fill="#272425" d="M4072.5,1584c30,3,76.5,39,112.5,52.5c-27,3-85.5,1.5-105,13.5c-6,12-3,19.5-6,33L4072.5,1584z"/>
			<path fill="#DF5C05" d="M4678.5,1665c16.5-1.5,72-4.5,84-1.5c37.5,12,85.5,36,121.5,52.5c73.5,33,145.5,67.5,219,102
				c-22.5,1.5-96,6-117,1.5c-4.5,3-21,10.5-25.5,12c-24,1.5-139.5,12-154.5,3l-1.5-12c7.5-7.5,12-4.5,24-6c3-15,4.5-18-1.5-33
				c-30-19.5-175.5-96-208.5-109.5l-1.5-4.5C4624.5,1665,4668,1665,4678.5,1665z"/>
			<path fill="#B13609" d="M4618.5,1671c6-6,49.5-4.5,60-4.5c-6,1.5-40.5,7.5-40.5,7.5c1.5,0,3,0,3,0c31.5-3,136.5,60,169.5,78
				l18,28.5v4.5c-30-19.5-175.5-96-208.5-109.5L4618.5,1671z"/>
			<path fill="#93705D" d="M4897.5,1807.5c18,1.5,37.5,1.5,55.5,6h10.5c6,1.5,16.5,6,21,7.5c-4.5,3-21,10.5-25.5,12
				c-24,1.5-139.5,12-154.5,3l-1.5-12c7.5-7.5,12-4.5,24-6C4849.5,1821,4879.5,1813.5,4897.5,1807.5z"/>
			<path fill="#EE4319" d="M4828.5,1779c27,9,49.5,7.5,69,28.5c-18,6-49.5,13.5-69,10.5c3-15,4.5-18-1.5-33L4828.5,1779z"/>
			<path fill="#B13609" d="M4953,1813.5c-3-12-4.5-10.5-1.5-21c15-4.5,31.5,1.5,37.5,15l-1.5,4.5c-9,1.5-13.5,1.5-22.5,1.5H4953z"/>
			<path fill="#272425" d="M4545,1648.5c21,3,60,3,73.5,22.5l1.5,4.5l-6,4.5C4593,1668,4564.5,1657.5,4545,1648.5z"/>
			<path fill="#EB8602" d="M4678.5,969c66-4.5,130.5-9,196.5-13.5c-9,22.5-12,45-16.5,69c-3,16.5-13.5,48-4.5,61.5l-13.5-3l-6,30
				c-28.5,105-48,219-72,325.5c-6,24-28.5,132-30,151.5c-64.5,1.5-195,9-253.5,6c34.5-43.5,40.5-66,45-121.5v-27
				c21-4.5,36-6,55.5-15l9,1.5c9-21,3-42,0-66c0-13.5-1.5-37.5-1.5-52.5c3-42,12-85.5,18-127.5l3-7.5c12-16.5,18-36,22.5-55.5
				c3-10.5,4.5-21,6-31.5c9-36,9-73.5,16.5-103.5C4660.5,985.5,4671,975,4678.5,969L4678.5,969z"/>
			<path fill="#F8AF11" d="M4678.5,969c66-4.5,130.5-9,196.5-13.5c-9,22.5-12,45-16.5,69c-3,16.5-13.5,48-4.5,61.5l-13.5-3l-6,30
				l-36,3l6-31.5c6-22.5,16.5-54,6-76.5l-9-3c-22.5,19.5-25.5,55.5-30,84c-45,1.5-90,3-135,6c9-36,9-73.5,16.5-103.5
				C4660.5,985.5,4671,975,4678.5,969L4678.5,969z"/>
			<path fill="#DF5C05" d="M4806,1083h36l-6,30l-36,3L4806,1083z"/>
			<path fill="#484747" d="M4771.5,1087.5c4.5-28.5,7.5-64.5,30-84l9,3c10.5,21,0,54-6,76.5l-6,31.5c-6,31.5-15,97.5-27,123
				c-10.5,4.5-6,4.5-18,3c-21-18,3-91.5,9-117C4767,1116,4770,1096.5,4771.5,1087.5z"/>
			<path fill="#EE7606" d="M4636.5,1093.5c45-3,90-4.5,135-6c-1.5,9-4.5,28.5-6,36l-4.5-4.5c-12-3-112.5,4.5-132,6
				C4632,1114.5,4633.5,1104,4636.5,1093.5z"/>
			<path fill="#DF5C05" d="M4581,1434l9,1.5c-13.5,28.5-34.5,33-63,40.5v-27C4546.5,1444.5,4561.5,1443,4581,1434z"/>
			<path fill="#484747" d="M4875,955.5c7.5,0,9,0,15,3c118.5,58.5,237,117,354,175.5l135,66c18,9,55.5,27,70.5,36
				c-6,28.5-18,100.5-31.5,121.5c-7.5,3-7.5,3-16.5,4.5l-3-10.5l-9-3c7.5-28.5,13.5-57,19.5-85.5l-516-255l-91.5,414
				c-7.5,33-34.5,145.5-36,172.5c7.5,6,7.5,6,15,12c-6-1.5-12-1.5-19.5-3c-13.5,12-6,31.5-24,43.5l-7.5-1.5c-6-12,7.5-36,3-55.5
				c0-19.5,24-127.5,30-151.5c24-106.5,43.5-220.5,72-325.5l6-30l13.5,3c-9-13.5,0-45,4.5-61.5C4863,1000.5,4866,978,4875,955.5
				L4875,955.5z"/>
			<path fill="#FDC10B" d="M4875,955.5c7.5,0,9,0,15,3c118.5,58.5,237,117,354,175.5l135,66c18,9,55.5,27,70.5,36
				c-6,28.5-18,100.5-31.5,121.5c-7.5,3-7.5,3-16.5,4.5l-3-10.5l-9-3c7.5-28.5,13.5-57,19.5-85.5l10.5-4.5c1.5-3,3-10.5,3-13.5
				c-12-18-282-142.5-330-168c-46.5-25.5-159-79.5-210-102c-3,13.5-7.5,28.5-10.5,43.5c-4.5,1.5-10.5,3-15,6
				C4863,1000.5,4866,978,4875,955.5L4875,955.5z"/>
			<path fill="#29341D" d="M5410.5,1263l10.5-4.5c-6,28.5-13.5,66-21,94.5l-9-3C5397,1320,5404.5,1291.5,5410.5,1263z"/>
			<path fill="#FDC10B" d="M4858.5,1024.5c4.5-1.5,10.5-3,15-6c-3,16.5-7.5,58.5-19.5,66C4846.5,1072.5,4855.5,1041,4858.5,1024.5z"
				/>
			<path fill="#433830" d="M5389.5,1348.5l9,3l3,10.5c-25.5,109.5-51,220.5-76.5,330c-10.5,43.5-28.5,108-36,151.5l-12-7.5
				L5389.5,1348.5z"/>
			<path fill="#313131" d="M5181,1791l96,45l12,7.5c-3,7.5-6,16.5-12,18c-28.5,7.5-72,3-102,3c-1.5-1.5-1.5-3-3-4.5
				C5155.5,1836,5176.5,1819.5,5181,1791z"/>
			<path fill="#FDD534" d="M4338,277.5c124.5-142.5,376.5-30,345,159c-1.5,7.5-3,22.5-6,28.5c-4.5,22.5-18,93-36,105
				c-10.5,1.5-12,1.5-22.5,1.5c-6,9-12,18-21,25.5c-27,25.5-42,16.5-67.5,37.5c-7.5,6-6,22.5-7.5,31.5v1.5c-28.5-7.5-79.5-9-108-7.5
				c-21,4.5-28.5,6-49.5,13.5c0-19.5,1.5-39,3-58.5c-28.5-13.5-67.5-12-55.5-55.5c1.5-25.5-7.5-60-4.5-84c1.5-19.5,18-58.5,22.5-78
				c0-3,1.5-22.5,3-28.5l-1.5-3c-22.5-18-30-18-55.5-40.5c-4.5-3-9-9-10.5-15c-3-30,51-30,69-31.5L4338,277.5z"/>
			<path fill="#FAAF91" d="M4332,369c45,3,147-1.5,174,30c-12,48-18,66-13.5,115.5L4509,501c7.5,7.5,18,18,21,25.5l6,9
				c6,10.5,24,36,27,46.5c-4.5,3-4.5,4.5-9,6c12,0,30,0,42,3l3,6c-27,25.5-42,16.5-67.5,37.5c-7.5,6-6,22.5-7.5,31.5v1.5
				c-28.5-7.5-79.5-9-108-7.5c-21,4.5-28.5,6-49.5,13.5c0-19.5,1.5-39,3-58.5c-28.5-13.5-67.5-12-55.5-55.5c1.5-25.5-7.5-60-4.5-84
				c1.5-19.5,18-58.5,22.5-78C4329,394.5,4330.5,375,4332,369L4332,369z"/>
			<path fill="#E17A53" d="M4530,526.5l6,9c6,10.5,24,36,27,46.5c-4.5,3-4.5,4.5-9,6c12,0,30,0,42,3l3,6c-27,25.5-42,16.5-67.5,37.5
				c-7.5,6-6,22.5-7.5,31.5v1.5c-28.5-7.5-79.5-9-108-7.5c-21,4.5-28.5,6-49.5,13.5c0-19.5,1.5-39,3-58.5
				c37.5,4.5,49.5,7.5,79.5-13.5c1.5-4.5,3-7.5,6-10.5C4480.5,570,4503,549,4530,526.5L4530,526.5z"/>
			<path fill="#FAAF91" d="M4530,526.5l6,9c6,10.5,24,36,27,46.5c-4.5,3-4.5,4.5-9,6c-22.5,0-85.5,7.5-100.5,3
				C4480.5,570,4503,549,4530,526.5z"/>
			<path fill="#FAAF91" d="M4413,660l-10.5-3c12-36,99-37.5,118.5-9c0,6,1.5,12,1.5,18v1.5C4492.5,660,4443,658.5,4413,660z"/>
			
				<linearGradient id="SVGID_00000090277579222160529050000001926634913145268403_" gradientUnits="userSpaceOnUse" x1="4386.2686" y1="1391.8146" x2="4448.7798" y2="1467.1146" gradientTransform="matrix(1 0 0 1 0 -878)">
				<stop  offset="0" style="stop-color:#45332C"/>
				<stop  offset="1" style="stop-color:#393B3C"/>
			</linearGradient>
			<path fill="url(#SVGID_00000090277579222160529050000001926634913145268403_)" d="M4507.5,499.5c7.5,7.5,18,18,21,25.5
				c-25.5,22.5-49.5,43.5-76.5,64.5c-4.5,3-4.5,6-6,10.5c-28.5,21-42,18-79.5,13.5c-28.5-13.5-67.5-12-55.5-55.5
				c51,73.5,144,6,180-46.5L4507.5,499.5z"/>
			<path fill="#E17A53" d="M4333.5,280.5c22.5,18,31.5,18,52.5,31.5c21,4.5,132,31.5,126,58.5l-1.5-1.5l-6,30
				c-27-30-129-25.5-174-30l-1.5-3c-22.5-18-30-18-55.5-40.5c-4.5-3-9-9-10.5-15C4263,282,4317,282,4333.5,280.5L4333.5,280.5z"/>
			<path fill="#B13609" d="M4333.5,280.5c22.5,18,31.5,18,52.5,31.5c21,4.5,132,31.5,126,58.5l-1.5-1.5
				c-28.5-28.5-121.5-43.5-163.5-52.5c-10.5,21-12,28.5-18,51c-22.5-18-30-18-55.5-40.5c-4.5-3-9-9-10.5-15
				C4263,282,4317,282,4333.5,280.5L4333.5,280.5z"/>
			<path fill="#DF5C05" d="M4333.5,280.5c22.5,18,31.5,18,52.5,31.5c-34.5-4.5-93-22.5-111,15c-4.5-3-9-9-10.5-15
				C4263,282,4317,282,4333.5,280.5z"/>
			<path fill="#F8AF11" d="M4507.5,499.5c-18-19.5-9-57,3-78c-1.5,19.5-3,37.5-4.5,57c27,36,36,49.5,79.5,64.5
				c51-18,55.5-43.5,91.5-79.5c-4.5,22.5-18,93-36,105c-10.5,1.5-12,1.5-22.5,1.5c-6,9-12,18-21,25.5l-3-6c-12-4.5-28.5-3-42-3
				c4.5-1.5,6-3,9-6c-1.5-10.5-19.5-34.5-27-46.5l-6-9C4525.5,517.5,4515,507,4507.5,499.5z"/>
			<path fill="#F38D64" d="M4536,535.5c33,18,46.5,25.5,82.5,36c-6,9-12,18-21,25.5l-3-6c-12-4.5-28.5-3-42-3c4.5-1.5,6-3,9-6
				C4560,571.5,4542,546,4536,535.5z"/>
			<path fill="#EE7606" d="M4338,277.5c4.5,3,103.5,24,123,31.5c72,27,67.5,49.5,49.5,114c-10.5,21-21,58.5-3,78l-16.5,13.5
				c-4.5-49.5,1.5-67.5,13.5-115.5l6-30l1.5,1.5c6-27-106.5-54-126-58.5c-21-13.5-30-12-52.5-31.5L4338,277.5z"/>
			<path fill="#484747" d="M4576.5,430.5c13.5-28.5,27-37.5,58.5-24c10.5,13.5,18,25.5,16.5,43.5c-1.5,10.5-6,21-15,27
				C4602,507,4569,474,4576.5,430.5z"/>
			<path fill="#73736C" d="M4576.5,430.5c13.5-28.5,27-37.5,58.5-24C4615.5,424.5,4602,424.5,4576.5,430.5z"/>
			
				<linearGradient id="SVGID_00000107546479788969620690000011444765536762435467_" gradientUnits="userSpaceOnUse" x1="3840.2761" y1="2015.7589" x2="3903.3662" y2="1758.8826" gradientTransform="matrix(1 0 0 1 0 -878)">
				<stop  offset="0" style="stop-color:#F1AC00"/>
				<stop  offset="1" style="stop-color:#FDCE0E"/>
			</linearGradient>
			<path fill="url(#SVGID_00000107546479788969620690000011444765536762435467_)" d="M3802.5,804c18,7.5,24,13.5,40.5,24
				c49.5,9,90,19.5,124.5,58.5c18,25.5,24,43.5,39,69l40.5,12l10.5,3c12,0,18,0,28.5,6c4.5,10.5,4.5,6,3,19.5v3l-3,9
				c-4.5,12-12,33-10.5,45c0,12,1.5,21-6,31.5c-22.5,21-63,4.5-88.5,21c-16.5,10.5-42,42-55.5,58.5l-7.5,4.5
				c-31.5-51-69-84-127.5-99c-25.5-4.5-57-7.5-79.5-16.5l-52.5,9c13.5-15,16.5-24,18-42c4.5-16.5-1.5-19.5-12-31.5
				c-7.5-51,39-105,75-135C3757.5,825,3772.5,816,3802.5,804L3802.5,804z"/>
			<path fill="#FAF8F1" d="M3802.5,804c18,7.5,24,13.5,40.5,24l4.5,16.5c18,37.5-18,51-31.5,91.5c-25.5,27-43.5,45-79.5,58.5
				c-3,1.5-4.5,1.5-6,3c-31.5,1.5-40.5,3-69-9c-7.5-51,39-105,75-135C3757.5,825,3772.5,816,3802.5,804z"/>
			<path fill="#DCDBD7" d="M3802.5,804c18,7.5,24,13.5,40.5,24l4.5,16.5c-48-16.5-63-10.5-111,9C3757.5,825,3772.5,816,3802.5,804z"
				/>
			<path fill="#FDDD28" d="M3843,828c49.5,9,90,19.5,124.5,58.5c-21,33-84,19.5-120,19.5c-9,9-21,24-33,28.5
				c13.5-40.5,49.5-54,31.5-91.5L3843,828z"/>
			<path fill="#EB8602" d="M3730.5,996c33,0,57-27,84,4.5c0,24-82.5,48-105,52.5l-52.5,9c13.5-15,16.5-24,18-42
				c4.5-16.5-1.5-19.5-12-31.5C3690,1000.5,3699,999,3730.5,996z"/>
			<path fill="#FDDD28" d="M4087.5,994.5c-30,18-111-19.5-153-24c-6,4.5-9,7.5-15,12l-1.5-6c10.5-42,55.5-25.5,88.5-22.5l40.5,12
				l10.5,3c12,0,18,0,28.5,6C4090.5,987,4090.5,981,4087.5,994.5z"/>
			<path fill="#BBC5C7" d="M3673.5,1018.5c-1.5,18-4.5,27-18,42l-7.5,3c-16.5-12-4.5-10.5-15-18c-3,6-3,7.5-6,12
				c-12,0-7.5,1.5-19.5-6c-4.5-10.5-4.5-6-3-16.5c9-7.5,4.5-6,16.5-7.5c4.5,7.5,6,9,12,15l7.5-15
				C3651,1021.5,3661.5,1021.5,3673.5,1018.5z"/>
			<path fill="#DB3210" d="M4189.5,808.5l-3-6c4.5-21,43.5-66,66-69c-15,16.5-19.5,22.5-30,42C4206,787.5,4198.5,792,4189.5,808.5z"
				/>
		</g>
	</g>
</g>
</svg>
