<?xml version="1.0" encoding="utf-8"?>
<!-- Generator: Adobe Illustrator 27.9.0, SVG Export Plug-In . SVG Version: 6.00 Build 0)  -->
<svg version="1.1" id="svg" xmlns="http://www.w3.org/2000/svg" xmlns:xlink="http://www.w3.org/1999/xlink" x="0px" y="0px"
	 viewBox="0 0 5874.499 3000" enable-background="new 0 0 5874.499 3000" xml:space="preserve">
<g>
	<g>
		<defs>
			<rect id="SVGID_1_" x="0" y="0" width="5874.499" height="3000"/>
		</defs>
		<clipPath id="SVGID_00000016763255068183813450000017004777115245524903_">
			<use xlink:href="#SVGID_1_"  overflow="visible"/>
		</clipPath>
		<g clip-path="url(#SVGID_00000016763255068183813450000017004777115245524903_)">
			<path fill="#FFFFFF" d="M0,0h5874.499v3000H0V0z"/>
			<path fill="#2B2B2B" d="M1229.64,943.925c26.702-13.351,50.734-22.697,76.101-33.378
				c72.096-33.378,126.836-37.383,204.272-30.708c25.367,1.335,56.075,0,81.442,6.676c33.378,5.34,84.112,16.021,116.155,28.037
				c5.34-2.67,10.681-1.335,16.021-1.335c133.511,9.346,275.034,22.697,407.21,34.713c44.059,4.005,319.092,21.362,337.784,33.378
				c110.814,0,101.469,80.107,101.469,164.219v116.155c128.171-13.351,257.677-34.713,385.848-48.064
				c33.378-4.005,137.517-18.692,165.554-17.356c5.341,4.005,4.005,4.005,6.676,12.016l-42.724,5.34
				c1.335,21.362-1.335,29.373,21.362,32.043h17.356c0,13.351,1.335,22.697,0,36.048c-58.745,10.681-129.506,18.692-188.251,26.702
				l-365.821,49.399c-2.67,113.485,0,228.304-1.335,341.789c0,17.357,1.335,113.485-1.335,124.166
				c109.479,13.351,201.602,32.043,303.071,77.437c30.708,13.351,62.75,28.037,93.458,44.059
				c38.718,18.692,80.107,25.367,106.809,62.75c32.043,44.059,54.74,100.133,32.043,153.538
				c101.469,14.687,256.342,36.048,363.151,53.405c1.335,1.335,1.335,1.335,2.67,2.67l1.335,8.011
				c8.011-2.67,9.346-4.005,16.021-1.335c6.676,10.681,4.005,22.697,4.005,36.048l-1.335,1.335
				c-1.335,4.005-2.67,14.686-6.676,16.021c-56.075,18.691-117.49,42.723-173.565,57.41c0,21.362,2.67,72.096-5.341,88.118
				c-13.351,12.016-117.49,42.724-140.187,50.734c29.372,6.676,58.745,12.016,86.782,20.027
				c17.356,4.005,60.08,10.681,66.755,26.702c-5.34,12.016-28.037,18.691-40.053,22.697
				c-64.085,22.697-128.171,42.724-193.592,64.086l-320.427,104.139l-234.98,77.437c-32.042,10.681-128.171,45.394-154.873,46.729
				c-64.085,2.67-168.224-26.702-232.31-41.389l-483.311-110.814c-61.415-13.351-122.83-30.708-184.246-42.724
				c-16.021-2.67-33.378,5.34-49.399,8.011c-93.458,16.021-190.921,56.075-285.714,36.048
				c-46.729-10.681-108.144-30.708-154.873-45.394c-74.766-22.697-149.533-45.394-224.299-66.756l-293.725-86.782
				c-20.027-6.676-97.463-22.697-104.139-38.718c6.676-12.016,82.777-28.037,98.798-30.708
				c-46.729-48.064-28.037-50.734-34.713-104.139c-26.702,4.005-53.404,9.346-80.107,4.005
				c-17.357-2.67-76.102-20.027-88.117-34.713c-4.005-5.34-4.005-10.681-2.67-16.021c1.335-8.011,8.011-24.032,12.016-29.373
				c28.037-37.383,128.171-173.565,158.878-196.261c2.67,2.67,2.67,12.016,2.67,17.356c2.67-33.378,2.67-81.442,2.67-116.155
				v-177.57c-1.335-14.686,0-37.383,0-52.069c0-12.016-1.335-45.394,2.67-54.74c-4.005-5.34-2.67-44.059,0-50.734
				c-2.67-4.005-1.335-57.41-1.335-66.756v-122.83c0-88.117,0-177.57,1.335-265.688c0-46.729,18.692-89.453,53.405-121.495
				l1.335-1.335c21.362-16.021,45.394-28.037,72.096-32.043c20.027-4.005,73.431-5.34,98.798-6.676l206.943-14.686l232.31-16.021
				C1118.825,950.601,1205.607,941.255,1229.64,943.925L1229.64,943.925z"/>
			<path fill="#762B04" d="M2249.666,1806.408c48.064-4.005,113.485-4.005,162.884,0c9.346,0,20.027,1.335,29.373,1.335h17.356
				l17.356,1.335c17.357,1.335,36.048,4.005,53.405,6.676l34.713,4.005c109.479,13.351,201.602,32.043,303.071,77.437
				c30.708,13.351,62.75,28.037,93.458,44.059c38.718,18.692,80.107,25.367,106.809,62.75
				c32.043,44.059,54.74,100.134,32.043,153.538c-2.67,6.676-5.34,14.686-9.346,21.362c-17.356,26.702-22.697,29.372-45.394,49.399
				c-16.021,14.687-41.389,30.708-60.08,44.059c-8.011,6.676-26.702,20.027-33.378,25.367
				c-105.474,110.814-311.082,117.49-453.939,113.485c-20.027-2.67-64.085,0-86.782,0c-54.74,1.335-112.149,1.335-166.889-5.34
				c-6.676,0-18.691-1.335-25.367-1.335c-8.011-5.34-40.053-14.686-58.745-25.367c-4.005,0-6.676-1.335-9.346-1.335
				c-2.67-12.016-16.021-24.032-18.692-36.048c-4.005-2.67-6.675-5.341-10.681-8.011c0-5.34,0-2.67,4.006-6.675
				c-22.697-1.335-37.383-22.697-50.735,16.021c-13.351,5.34-17.356,6.676-32.042,10.681c-40.053,2.67-57.41-5.34-89.453-28.037
				c-6.676-2.67-13.351-4.005-20.027-6.676c-32.043,9.346-30.708,5.341-60.08,6.676l-1.335-1.335
				c-21.362-5.341-30.708-8.011-49.399-21.362c-4.005-4.005-8.011-6.676-12.016-10.681c-9.346-10.681-14.686-16.021-22.697-28.037
				l-2.67-17.357c5.34-2.67,6.676-2.67,10.681-8.011c-2.67-5.34-4.005-13.351-5.34-18.691c-5.34-1.335-5.34-2.67-8.011-5.34
				c-2.67-6.676,0-13.351,2.67-20.027c-6.676-13.351-12.016-65.42-14.686-82.777v-10.681c-1.335-9.346,0-26.702,0-36.048
				l1.335-12.016c1.335-24.032,10.681-61.415,18.692-84.112c5.34-12.016,9.346-20.027,16.021-32.043
				c26.702-41.388,72.096-61.415,117.49-77.437c6.676-2.67,17.357-6.676,24.032-8.011c28.037-8.011,62.75-17.356,90.788-22.697
				c13.351-2.67,33.378-6.676,46.729-6.676C2137.517,1811.749,2196.262,1807.744,2249.666,1806.408L2249.666,1806.408z"/>
			<path fill="#FEE5B2" d="M2249.666,1806.408c48.064-4.005,113.485-4.005,162.884,0c9.346,0,20.027,1.335,29.373,1.335h17.356
				l17.356,1.335c17.357,1.335,36.048,4.005,53.405,6.676l34.713,4.005c109.479,13.351,201.602,32.043,303.071,77.437
				c30.708,13.351,62.75,28.037,93.458,44.059c38.718,18.692,80.107,25.367,106.809,62.75
				c32.043,44.059,54.74,100.134,32.043,153.538c-2.67,6.676-5.34,14.686-9.346,21.362c-17.356,26.702-22.697,29.372-45.394,49.399
				c-16.021,14.687-41.389,30.708-60.08,44.059c-8.011,6.676-26.702,20.027-33.378,25.367
				c-105.474,110.814-311.082,117.49-453.939,113.485c-20.027-2.67-64.085,0-86.782,0c-54.74,1.335-112.149,1.335-166.889-5.34
				c16.021-9.346,42.724-12.016,62.75-22.697c26.702,0,38.718-2.67,62.75-12.016c10.681-5.34,17.357-9.346,29.373-13.351
				c1.335-6.676,10.681-9.346,12.016-14.686c12.016-32.043-18.691-41.389-41.388-34.713c0-2.67-4.006-10.681-6.676-14.686
				c20.027-10.681,18.692-13.351,32.043-32.043c4.005-5.34,5.34-6.676,12.016-8.011c4.005,9.346,5.34,13.351,13.351,18.691
				c33.378,2.67,50.735-6.675,65.421-36.048c30.708-6.676,58.745-20.027,82.777,8.011c2.67,4.005,8.011,10.681,12.016,13.351
				c1.335-13.351,8.011-32.042,20.027-38.718l12.016-1.335c5.34-2.67,12.016-9.346,17.357-12.016
				c17.356-1.335,37.383,12.016,44.059,26.702c-5.34,1.335-9.346,2.67-13.351,5.34c10.681,1.335,22.697,2.67,33.378,6.676
				l4.005-2.67c17.356-5.34,21.362-5.34,37.383-13.351c9.346-16.021,8.01-20.027,0-36.048l36.048-8.011
				c4.005,1.335,8.011,2.67,12.016,1.335c2.67-2.67,12.016-6.676,17.357-9.346c26.702,8.011,46.729,13.351,73.431,4.005
				c14.686,2.67,14.686,4.005,32.043,4.005l5.34-2.67c8.011-5.341,10.681-8.011,18.691-12.016
				c-42.724-104.139-117.49-142.857-209.613-196.262c-85.447-49.399-158.878-65.421-249.666-93.458
				c-112.149-34.713-190.921-38.718-305.741-37.383c-21.362-9.346-70.761-16.021-82.777-25.367
				C2137.517,1811.749,2196.262,1807.744,2249.666,1806.408z"/>
			<path fill="#FDC068" d="M2249.666,1806.408c48.064-4.005,113.485-4.005,162.884,0c9.346,0,20.027,1.335,29.373,1.335h17.356
				l17.356,1.335c17.357,1.335,36.048,4.005,53.405,6.676l34.713,4.005c109.479,13.351,201.602,32.043,303.071,77.437
				c30.708,13.351,62.75,28.037,93.458,44.059c38.718,18.692,80.107,25.367,106.809,62.75
				c32.043,44.059,54.74,100.134,32.043,153.538c-2.67,6.676-5.34,14.686-9.346,21.362c-17.356,26.702-22.697,29.372-45.394,49.399
				c-16.021,14.687-41.389,30.708-60.08,44.059c-8.011,6.676-26.702,20.027-33.378,25.367
				c13.351-29.372,26.702-40.053,29.373-78.772c4.005-52.069-30.708-108.144-64.086-146.862
				c-100.133-113.485-246.996-169.559-388.518-212.283C2429.906,1827.77,2355.14,1814.419,2249.666,1806.408L2249.666,1806.408z"/>
			<path fill="#FEAB29" d="M2802.403,2178.905c26.702,8.011,46.729,13.351,73.431,4.005c14.686,2.67,14.686,4.005,32.042,4.005
				l5.34-2.67c10.681,14.686,6.676,21.362,13.351,36.048c4.005,0,9.346-2.67,12.016-4.005c-1.335,26.702-8.011,36.048-24.032,56.075
				h-1.335c-24.032,4.005-26.702,8.011-53.405,6.676c-12.016-2.67-25.367-5.341-37.383-9.346
				c-14.686,9.346-20.027,12.016-36.048,20.027l-9.346,2.67c-14.686,18.691-26.702,8.011-34.713,14.686
				c-21.362-6.676-32.042-17.356-45.394-21.362l-8.011-10.681l-4.006-6.675c1.335-12.016,4.006-13.351,10.681-21.362l4.005-2.67
				c17.356-5.34,21.362-5.34,37.383-13.351c9.346-16.021,8.01-20.027,0-36.048l36.048-8.011c4.005,1.335,8.011,2.67,12.016,1.335
				C2789.052,2186.916,2797.063,2182.911,2802.403,2178.905L2802.403,2178.905z"/>
			<path fill="#92AA2C" d="M2802.403,2178.905c26.702,8.011,46.729,13.351,73.431,4.005c14.686,2.67,14.686,4.005,32.042,4.005
				l5.34-2.67c10.681,14.686,6.676,21.362,13.351,36.048c-62.75,29.373-70.761,32.043-122.831-17.356
				c-6.676-5.34-10.681-9.346-18.691-13.351C2789.052,2186.916,2797.063,2182.911,2802.403,2178.905L2802.403,2178.905z"/>
			<path fill="#5D3F25" d="M2802.403,2178.905c26.702,8.011,46.729,13.351,73.431,4.005c14.686,2.67,14.686,4.005,32.042,4.005
				c-32.042,28.037-64.085,25.367-104.139,16.021c-6.676-5.34-10.681-9.346-18.691-13.351
				C2789.052,2186.916,2797.063,2182.911,2802.403,2178.905L2802.403,2178.905z"/>
			<path fill="#FEE5B2" d="M2736.983,2230.975c8.011,2.67,17.356,4.005,24.032,9.346l1.335,4.005c-4.005,2.67-5.34,2.67-9.346,4.005
				c0,4.005-22.697,34.713-26.702,40.053c-13.351-4.005-25.367-6.676-37.383-13.351l-4.005-6.675
				c1.335-12.016,4.005-13.351,10.681-21.362l4.005-2.67C2716.956,2238.985,2720.961,2238.985,2736.983,2230.975L2736.983,2230.975z
				"/>
			<path fill="#92AA2C" d="M2736.983,2230.975c8.011,2.67,17.356,4.005,24.032,9.346l1.335,4.005c-4.005,2.67-5.34,2.67-9.346,4.005
				c-22.697-4.005-30.708-4.005-53.405-4.005C2716.956,2238.985,2720.961,2238.985,2736.983,2230.975z"/>
			<path fill="#D0471D" d="M2688.918,2275.033c12.016,6.676,24.032,9.346,37.383,13.351c6.676,6.676,24.032,6.676,33.378,5.34
				c5.34,0,10.681,0,17.356-1.335c-14.687,18.691-26.702,8.011-34.713,14.686c-21.362-6.676-32.042-17.356-45.394-21.362
				L2688.918,2275.033z"/>
			<path fill="#762B04" d="M2488.652,2237.65c30.708-6.676,58.745-20.027,82.777,8.011c2.67,4.005,8.011,10.681,12.016,13.351
				c12.016,12.016,20.027,16.021,22.697,33.378c-1.335,10.681-4.005,22.697,1.335,32.043h-1.335l-6.676,4.005
				c1.335,6.675,2.67,9.346,0,16.021c-5.34,5.34-9.346,6.676-16.021,8.011c-6.676-2.67-17.356-8.011-20.027-13.351
				c-12.016-2.67-24.032-8.011-36.048-2.67c-5.34,5.341-5.34,9.346-6.676,16.021c-4.005-2.67-10.681-2.67-16.021-4.005
				c-18.692-2.67-28.038-5.34-48.064,0c-4.005,1.335-13.351,4.005-17.356,5.34c-8.011-2.67-13.351-2.67-21.362-2.67
				c-8.011,1.335-10.681,2.67-18.691,2.67c1.335-6.676,10.681-9.346,12.016-14.686c12.016-32.043-18.691-41.389-41.388-34.713
				c0-2.67-4.005-10.681-6.676-14.686c20.027-10.681,18.692-13.351,32.043-32.043c4.005-5.34,5.34-6.676,12.016-8.011
				c4.006,9.346,5.34,13.351,13.351,18.691C2456.609,2276.368,2472.63,2267.023,2488.652,2237.65L2488.652,2237.65z"/>
			<path fill="#D1782D" d="M2488.652,2237.65c30.708-6.676,58.745-20.027,82.777,8.011c2.67,4.005,8.011,10.681,12.016,13.351
				c12.016,12.016,20.027,16.021,22.697,33.378c-25.367,22.697-48.064-2.67-73.431-2.67c-8.011,21.362-17.357,22.697-38.718,18.691
				c-21.362-5.34-77.437,4.005-82.777-24.032c2.67-5.34,6.676-6.676,13.351-9.346
				C2456.609,2276.368,2472.63,2267.023,2488.652,2237.65z"/>
			<path fill="#AC3E0C" d="M2463.284,2317.757c16.021-2.67,29.373-2.67,46.729-2.67c-6.676,4.005-8.011,4.005-10.681,10.681
				c0,10.681,5.34,14.687,12.016,22.697l-5.34,1.335c-18.692-2.67-28.038-5.34-48.064,0c-4.005,1.335-13.351,4.005-17.356,5.34
				c-8.011-2.67-13.351-2.67-21.362-2.67C2440.587,2347.13,2444.593,2331.108,2463.284,2317.757L2463.284,2317.757z"/>
			<path fill="#DB520F" d="M2510.013,2316.422c9.346-2.67,13.351-2.67,22.697-2.67c10.681,4.005,46.729,14.686,29.373,28.038
				c-12.016-2.67-24.032-8.011-36.048-2.67c-5.34,5.341-5.34,9.346-6.676,16.021c-4.005-2.67-10.681-2.67-16.021-4.005l5.34-1.335
				c-6.676-8.011-12.016-13.351-12.016-22.697C2502.003,2320.427,2503.338,2320.427,2510.013,2316.422z"/>
			<path fill="#94340A" d="M2532.71,2312.417c13.351-2.67,28.038,9.346,38.718,13.351c2.67,1.335,26.702-5.34,33.378-1.335
				l-6.676,4.005c1.335,6.675,2.67,9.346,0,16.021c-5.34,5.34-9.346,6.676-16.021,8.011c-6.676-2.67-17.356-8.011-20.027-13.351
				C2580.774,2327.103,2543.391,2317.757,2532.71,2312.417L2532.71,2312.417z"/>
			<path fill="#FEAB29" d="M2632.844,2206.943c17.356-1.335,37.383,12.016,44.059,26.702c-5.34,1.335-9.346,2.67-13.351,5.341
				c10.681,1.335,22.697,2.67,33.378,6.676c-6.676,8.011-8.011,10.681-10.681,21.362l4.005,6.676l8.011,10.681
				c-9.346,1.335-16.021,1.335-22.697,8.01l-2.67,5.341c-1.335,1.335-2.67,4.005-4.005,5.34
				c-18.692,5.34-41.389,13.351-60.08,21.362c-5.341-9.346-2.67-21.362-1.335-32.043c-1.335-17.356-9.346-21.362-22.697-33.378
				c1.335-13.351,8.011-32.043,20.027-38.718l12.016-1.335C2620.828,2216.288,2627.503,2210.948,2632.844,2206.943
				L2632.844,2206.943z"/>
			<path fill="#2C3502" d="M2603.471,2221.629l12.016-1.335c-14.686,20.027-20.027,42.723,4.005,58.745
				c1.335,0,1.335,1.335,2.67,1.335c13.351,5.34,33.378,14.686,46.729,18.691c-1.335,1.335-2.67,4.005-4.005,5.34
				c-18.692,5.34-41.389,13.351-60.08,21.362c-5.341-9.346-2.67-21.362-1.335-32.043c-1.335-17.356-9.346-21.362-22.697-33.378
				C2584.78,2246.996,2591.455,2228.304,2603.471,2221.629L2603.471,2221.629z"/>
			<path fill="#224702" d="M2662.216,2240.321c10.681,1.335,22.697,2.67,33.378,6.676c-6.676,8.011-8.011,10.681-10.681,21.362
				l4.005,6.676l8.011,10.681c-9.346,1.335-16.021,1.335-22.697,8.01l-2.67,5.341c-13.351-4.005-33.378-13.351-46.729-18.692
				c8.011-8.011,10.681-4.005,22.697-9.346c5.341-5.34,4.005-8.011,5.341-16.021c-1.335-1.335-1.335-2.67-2.67-4.005
				C2651.535,2245.661,2658.211,2242.991,2662.216,2240.321L2662.216,2240.321z"/>
			<path fill="#527110" d="M2662.216,2240.321c10.681,1.335,22.697,2.67,33.378,6.676c-6.676,8.011-8.011,10.681-10.681,21.362
				c-13.351-6.676-20.027-9.346-33.378-14.686c-1.335-1.335-1.335-2.67-2.67-4.005
				C2651.535,2245.661,2658.211,2242.991,2662.216,2240.321z"/>
			<path fill="#DB520F" d="M2695.594,2285.714c14.687,4.005,25.367,14.686,45.394,21.362c-2.67,2.67-6.676,6.676-9.346,9.346
				c-20.027,1.335-38.718-2.67-45.394,22.697c-1.335,4.005-4.005,6.676-4.005,12.016c-8.011,4.005-12.016,8.011-18.691,13.351
				c-18.692,9.346-37.383,17.356-58.745,17.356c-2.67-6.676-18.691-21.362-24.032-28.037c6.676-2.67,10.681-4.005,16.021-8.011
				c1.335-6.676,1.335-9.346,0-16.021l6.675-4.005h1.335c17.357-6.676,41.389-14.687,60.08-21.362c1.335-2.67,2.67-4.005,4.005-5.34
				l2.67-5.34C2680.908,2287.05,2687.583,2287.05,2695.594,2285.714L2695.594,2285.714z"/>
			<path fill="#DB520F" d="M2822.43,2271.028c12.016,4.005,25.367,6.676,37.383,9.346c1.335,14.686,1.335,16.021-2.67,30.708
				l1.335,2.67c-26.702,16.021-48.064,38.718-80.107,41.389c-6.676-12.016-24.032-21.362-36.048-29.373
				c-5.34-4.005-5.34-4.005-10.681-9.346c2.67-2.67,6.676-6.676,9.346-9.346c9.346-6.676,21.362,4.005,34.713-14.686l9.346-2.67
				C2802.403,2283.044,2807.744,2280.374,2822.43,2271.028L2822.43,2271.028z"/>
			<path fill="#94340A" d="M2786.382,2291.055l1.335,2.67l-1.335,1.335c-22.697,20.027-12.016,30.708-44.059,32.043
				c-5.34-4.005-5.34-4.005-10.681-9.346c2.67-2.67,6.676-6.676,9.346-9.346c9.346-6.676,21.362,4.005,34.713-14.686
				L2786.382,2291.055z"/>
			<path fill="#AC3E0C" d="M2683.578,2351.135c0-5.34,2.67-6.676,4.005-12.016c6.676-25.367,24.032-22.697,45.394-22.697
				c4.005,5.34,4.005,6.676,10.681,9.346c12.016,8.011,29.373,17.357,36.048,29.373c-10.681,1.335-16.021,1.335-26.702,1.335
				C2722.296,2349.8,2714.286,2348.465,2683.578,2351.135L2683.578,2351.135z"/>
			<path fill="#AC3E0C" d="M2520.694,2355.14c1.335-8.011,1.335-10.681,6.676-16.021c10.681-6.676,22.697-1.335,36.048,2.67
				c2.67,5.34,14.686,9.346,20.027,13.351c5.34,6.676,20.027,22.697,24.032,28.037c-25.367,0-36.048-2.67-58.745-10.681
				C2538.051,2365.821,2530.04,2361.816,2520.694,2355.14z"/>
			<path fill="#FEAB29" d="M2440.587,2357.81c4.006,0,13.351-4.005,17.357-5.34c18.691-5.34,28.037-4.005,48.064,0
				c4.005,1.335,12.016,1.335,16.021,4.005c9.346,6.676,17.356,10.681,26.702,17.356h-25.367c-14.686-1.335-36.048,1.335-54.74,0
				l-12.016-1.335l-1.335-4.005C2449.933,2360.481,2447.263,2360.481,2440.587,2357.81L2440.587,2357.81z"/>
			<path fill="#FDC068" d="M2419.226,2353.805c8.011,0,13.351,0,21.362,2.67c6.676,2.67,9.346,4.005,14.687,9.346l1.335,4.005
				c-8.01,6.676-4.005,12.016-17.356,13.351l-2.67-2.67l2.67-9.346c-6.676-4.005-56.075-2.67-68.091-2.67
				c10.681-5.34,17.357-9.346,29.373-13.351C2409.88,2356.475,2412.55,2356.475,2419.226,2353.805L2419.226,2353.805z"/>
			<path fill="#AC3E0C" d="M2859.813,2280.374c26.702,1.335,29.373-2.67,53.405-6.676h1.335
				c-14.686,14.687-37.383,32.043-56.075,40.053l-1.335-2.67C2861.148,2296.395,2862.483,2295.06,2859.813,2280.374
				L2859.813,2280.374z"/>
			<path fill="#FCBA14" d="M2933.244,2172.229c5.34,18.692,8.011,24.032,6.676,45.394c-4.005,1.335-9.346,2.67-12.016,4.006
				c-6.675-14.687-1.335-21.362-13.351-36.048C2921.229,2178.905,2925.233,2176.235,2933.244,2172.229L2933.244,2172.229z"/>
			<path fill="#FEAB29" d="M2683.578,2351.135c30.708-2.67,38.718-1.335,68.091,4.005c-28.037,1.335-57.41,6.676-86.782,9.346
				C2671.562,2359.146,2676.903,2355.14,2683.578,2351.135L2683.578,2351.135z"/>
			<path fill="#FDC068" d="M2467.29,2372.497c20.027,1.335,40.053-1.335,54.74,0c-13.351,2.67-16.021,4.005-25.367,14.687
				C2479.306,2381.843,2481.976,2379.172,2467.29,2372.497L2467.29,2372.497z"/>
			<path fill="#DB520F" d="M2252.336,2148.198c16.021-10.681,29.373-12.016,46.729-4.005c29.373,10.681,48.064,21.362,64.085,49.399
				c-10.681,18.691-2.67,22.697-29.373,30.708l5.341,4.005c24.032,33.378-18.692,32.043-33.378,45.394
				c-1.335,8.011,0,9.346,5.34,14.687c5.34,2.67,14.687,8.011,20.027,10.681c1.335,8.011,2.67,13.351,9.346,18.691l4.005,1.335
				c8.011-4.005,18.691-6.676,26.702-9.346c22.697-6.676,54.74,2.67,41.388,34.713c-1.335,4.005-10.681,8.011-12.016,14.686
				c-12.016,4.005-18.692,6.676-29.373,13.351c-24.032,9.346-36.048,12.016-62.75,12.016c-21.362,12.016-46.729,13.351-62.75,22.697
				c-6.676,0-18.691-1.335-25.367-1.335c-8.011-5.34-40.053-14.686-58.745-25.367c-4.005,0-6.676-1.335-9.346-1.335
				c-2.67-12.016-16.021-24.032-18.692-36.048c-4.005-2.67-6.675-5.341-10.681-8.011c0-5.34,0-2.67,4.006-6.675l-1.335-13.351
				c-12.016-10.681-34.713-24.032-49.399-30.708c4.006-17.356,0-26.702-6.676-41.389l-5.34-6.676c10.681,0,13.351,0,24.032,1.335
				c-9.346-6.676-13.351-9.346-17.356-18.692v-8.011l-1.335-1.335c12.016-10.681,13.351-9.346,29.373-8.011
				c14.686-2.67,17.356-6.676,29.372-16.021c1.335-6.676,1.335-8.011,0-14.686c6.676-5.34,24.032-12.016,30.708-2.67
				c4.005-24.032,34.713-10.681,53.405-17.356C2226.969,2142.857,2233.645,2152.203,2252.336,2148.198L2252.336,2148.198z"/>
			<path fill="#DB520F" d="M2252.336,2148.198c16.021-10.681,29.373-12.016,46.729-4.005c29.373,10.681,48.064,21.362,64.085,49.399
				c-10.681,18.691-2.67,22.697-29.373,30.708c-9.346,1.335-22.697,0-32.042-1.335c-24.032-4.005-24.032,26.702-44.059,16.021
				h-1.335c-6.676,9.346-14.686,12.016-22.697,20.027c-4.006-6.676-6.676-8.011-13.351-12.016
				c-20.027-9.346-46.729-40.053-14.686-53.405c-4.005-1.335-13.351-4.005-18.691-5.34c-13.351-4.005-21.362-8.011-29.373-20.027
				c4.005-24.032,34.713-10.681,53.405-17.356C2226.969,2142.857,2233.645,2152.203,2252.336,2148.198L2252.336,2148.198z"/>
			<path fill="#E7933D" d="M2205.607,2192.256c13.351,0,14.686-10.681,53.405-6.676c18.692,6.676,24.032,16.021,36.048,30.708
				l6.676,5.341c-24.032-4.006-24.032,26.702-44.059,16.021h-1.335c-6.676,9.346-14.686,12.016-22.697,20.027
				c-4.005-6.676-6.676-8.011-13.351-12.016C2200.267,2237.65,2173.565,2206.943,2205.607,2192.256z"/>
			<path fill="#FD9928" d="M2246.996,2233.645c-2.67-2.67-4.005-4.005-5.34-8.01c6.676-12.016,24.032-6.676,32.042,1.335
				c1.335,6.675,1.335,4.005-2.67,10.681c-5.34,4.005-6.676,2.67-13.351,2.67h-1.335L2246.996,2233.645z"/>
			<path fill="#762B04" d="M2246.996,2233.645l9.346,5.341c-6.676,9.346-14.686,12.016-22.697,20.027
				c-4.006-6.676-6.676-8.011-13.351-12.016C2229.639,2244.326,2234.98,2237.65,2246.996,2233.645z"/>
			<path fill="#AC3E0C" d="M2210.948,2150.868c10.681,0,22.697,2.67,32.043,6.676l-5.34,4.005v2.67
				c8.011,6.675,22.697,8.01,33.378,14.686l-12.016,6.676c-38.718-4.005-40.053,6.676-53.405,6.676
				c-4.005-1.335-13.351-4.005-18.691-5.34c-13.351-4.005-21.362-8.011-29.373-20.027
				C2161.549,2142.857,2192.256,2156.208,2210.948,2150.868L2210.948,2150.868z"/>
			<path fill="#D0471D" d="M2252.336,2148.198c16.021-10.681,29.373-12.016,46.729-4.005c-13.351,8.011-8.011,17.356-14.686,25.367
				C2280.374,2160.214,2261.682,2152.203,2252.336,2148.198z"/>
			<path fill="#94340A" d="M2210.948,2150.868c16.021-8.011,24.032,2.67,41.389-2.67c9.346,4.005,28.038,12.016,30.708,21.362
				c-14.686,2.67-28.038-5.34-41.389-12.016C2232.31,2153.538,2220.294,2150.868,2210.948,2150.868L2210.948,2150.868z"/>
			<path fill="#94340A" d="M2269.693,2178.905c17.356,8.011,34.713,14.686,25.367,37.383
				c-12.016-14.686-18.692-24.032-36.048-30.708L2269.693,2178.905z"/>
			<path fill="#DB520F" d="M2126.836,2169.559c6.676-5.34,24.032-12.016,30.708-2.67c8.011,12.016,16.021,16.021,29.373,20.027
				c5.34,1.335,14.686,4.005,18.691,5.34c-30.708,14.686-5.34,44.059,14.686,53.405c8.011,4.005,9.346,4.005,13.351,12.016
				c-2.67,6.676-5.34,9.346-6.676,16.021c-38.718-14.686-33.378,10.681-53.405,0l-4.005-6.675
				c-13.351,4.005-16.021,4.005-30.708,2.67c-10.681-2.67-16.021-5.34-25.367-13.351c-9.346-13.351-12.016-14.686-28.037-20.027
				c-9.346-6.676-13.351-9.346-17.356-18.692v-8.011l-1.335-1.335c12.016-10.681,13.351-9.346,29.372-8.011
				c14.686-2.67,17.357-6.676,29.373-16.021C2129.506,2177.57,2129.506,2176.235,2126.836,2169.559z"/>
			<path fill="#2C3502" d="M2165.554,2204.272c6.675-12.016,6.675-16.021,21.362-17.356c5.34,1.335,14.686,4.005,18.691,5.34
				c-30.708,14.686-5.34,44.059,14.686,53.405c8.011,4.005,9.346,4.005,13.351,12.016c-2.67,6.676-5.34,9.346-6.676,16.021
				c-38.718-14.686-33.378,10.681-53.405,0l-4.005-6.676C2205.607,2248.331,2186.916,2225.634,2165.554,2204.272L2165.554,2204.272z
				"/>
			<path fill="#5D3F25" d="M2126.836,2169.559c6.676-5.34,24.032-12.016,30.708-2.67c8.011,12.016,16.021,16.021,29.373,20.027
				c-14.687,1.335-14.687,5.34-21.362,17.356c-13.351-9.346-22.697-14.686-38.719-20.027
				C2129.506,2177.57,2129.506,2176.235,2126.836,2169.559L2126.836,2169.559z"/>
			<path fill="#94340A" d="M2069.426,2216.288c25.367,6.676,45.394,8.011,58.745,33.378c4.005,8.011,4.005,12.016,10.681,18.692
				c-10.681-2.67-16.021-5.341-25.367-13.351c-9.346-13.351-12.016-14.686-28.037-20.027
				C2077.437,2229.639,2073.431,2226.969,2069.426,2216.288z"/>
			<path fill="#94340A" d="M2068.091,2208.278c12.016-10.681,13.351-9.346,29.372-8.011c6.676,4.005,10.681,6.676,13.351,13.351
				l-1.335,2.67c-17.356,2.67-28.037-9.346-40.053-6.676L2068.091,2208.278z"/>
			<path fill="#F57811" d="M2301.736,2222.964c9.346,0,22.697,1.335,32.043,1.335l5.34,4.005
				c24.032,33.378-18.692,32.042-33.378,45.394c-1.335,8.011,0,9.346,5.34,14.687c5.34,2.67,14.687,8.011,20.027,10.681
				c1.335,8.011,2.67,13.351,9.346,18.691l4.005,1.335c-8.011,2.67-18.691,6.676-25.367,12.016v4.005
				c-8.011-1.335-25.367-4.005-33.378-4.005c-6.676-6.676-9.346-9.346-16.021-17.357c-10.681-5.34-28.037-17.356-38.718-10.681
				c-4.005-12.016-4.005-13.351-5.34-25.367c1.335-8.011,2.67-9.346,6.676-16.021c8.011-8.011,16.021-10.681,22.697-20.027h1.335
				C2277.704,2249.666,2277.704,2218.958,2301.736,2222.964z"/>
			<path fill="#AC3E0C" d="M2283.044,2283.044c8.01,2.67,24.032,9.346,28.037,8.01l1.335-2.67c5.34,2.67,14.686,8.011,20.027,10.681
				c1.335,8.011,2.67,13.351,9.346,18.691l4.005,1.335c-8.011,2.67-18.692,6.676-25.367,12.016v4.005
				c-8.011-1.335-25.367-4.005-33.378-4.005c-6.676-6.676-9.346-9.346-16.021-17.357c6.676-2.67,10.681-4.005,14.686-10.681
				C2288.385,2293.725,2285.714,2289.72,2283.044,2283.044z"/>
			<path fill="#762B04" d="M2339.119,2228.304c24.032,33.378-18.692,32.043-33.378,45.394c-1.335,8.011,0,9.346,5.34,14.687
				l-1.335,2.67c-4.005,1.335-21.362-5.34-28.037-8.011c-9.346-18.692,1.335-22.697,17.356-28.038
				C2321.762,2245.661,2325.768,2246.996,2339.119,2228.304L2339.119,2228.304z"/>
			<path fill="#DB520F" d="M2371.162,2308.411c22.697-6.676,54.74,2.67,41.388,34.713c-1.335,4.005-10.681,8.011-12.016,14.686
				c-12.016,4.005-18.692,6.676-29.373,13.351c-24.032,9.346-36.048,12.016-62.75,12.016v-1.335
				c-18.691-4.005-26.702-6.676-44.059-12.016l-18.691-10.681c-4.005-9.346-8.011-13.351-2.67-24.032
				c10.681-6.675,29.372,2.67,42.724,2.67v-6.676c8.01,0,25.367,2.67,33.378,4.005v-4.005c5.34-5.34,17.356-9.346,25.367-12.016
				C2352.47,2313.752,2363.151,2311.081,2371.162,2308.411L2371.162,2308.411z"/>
			<path fill="#AC3E0C" d="M2246.996,2356.475c-4.005-9.346-8.011-13.351-2.67-24.032c10.681-6.676,29.372,2.67,42.724,2.67
				c-1.335,6.676-2.67,5.341,1.335,9.346l6.676,4.005l-4.006,1.335c4.006,4.005,10.681,6.676,17.357,8.011
				c5.34,8.011,9.346,12.016,9.346,20.027c-2.67,1.335-4.005,1.335-6.676,2.67c-18.692-4.005-26.702-6.676-44.059-12.016
				L2246.996,2356.475z"/>
			<path fill="#94340A" d="M2287.05,2329.773c8.011,0,25.367,2.67,33.378,4.005c2.67,14.687-14.686,17.357-25.367,16.021
				l-6.676-4.005c-2.67-5.34-1.335-2.67-1.335-9.346V2329.773z"/>
			<path fill="#92AA2C" d="M2062.75,2233.645c10.681,0,13.351,0,24.032,1.335c16.021,5.341,17.356,6.676,28.037,20.027
				c8.011,8.011,13.351,10.681,25.367,13.351c13.351,1.335,16.021,1.335,30.708-2.67l4.005,6.676
				c-6.676-1.335-10.681-4.005-17.356-2.67l-1.335,2.67c9.346,17.357,5.34,24.032,10.681,34.713l-5.341,9.346
				c-12.016,9.346-22.697,1.335-34.713-5.34c-12.016-10.681-34.713-24.032-49.399-30.708c4.005-17.356,0-26.702-6.676-41.388
				L2062.75,2233.645z"/>
			<path fill="#2C3502" d="M2062.75,2233.645c10.681,0,13.351,0,24.032,1.335c16.021,5.341,17.356,6.676,28.037,20.027
				c-13.351,6.676-28.037-9.346-42.724-14.686l-2.67-1.335L2062.75,2233.645z"/>
			<path fill="#FDC068" d="M2246.996,2356.475l18.691,10.681c17.357,6.676,26.702,9.346,44.059,12.016v1.335
				c-21.362,12.016-46.729,13.351-62.75,22.697c-6.676,0-18.691-1.335-25.367-1.335c-8.011-5.34-40.053-14.686-58.745-25.367
				c25.367-1.335,37.383-4.005,61.415-9.346C2229.639,2364.486,2240.321,2360.481,2246.996,2356.475L2246.996,2356.475z"/>
			<path fill="#FD9928" d="M2246.996,2356.475l18.691,10.681c-16.021,2.67-25.367,1.335-41.388,0
				C2229.639,2364.486,2240.321,2360.481,2246.996,2356.475z"/>
			<path fill="#FEE5B2" d="M2173.565,2275.033c20.027,10.681,14.687-14.686,53.405,0c1.335,12.016,1.335,14.687,5.34,25.367
				c-29.373,13.351-36.048,10.681-66.756,9.346c-5.341-12.016-2.67-17.356-10.681-34.713l1.335-2.67
				C2162.884,2271.028,2166.889,2272.363,2173.565,2275.033L2173.565,2275.033z"/>
			<path fill="#94340A" d="M2125.501,2312.417c10.681,6.676,22.697,16.021,34.713,5.34c9.346,0,20.027,0,29.373,0
				c-17.357,5.341-25.367,10.681-40.053,21.362c-5.34,4.005-10.681,2.67-16.021,0c-4.005-2.67-6.676-5.341-10.681-8.011
				c0-5.34,0-2.67,4.005-6.675L2125.501,2312.417z"/>
			<path fill="#FEAB29" d="M1806.409,2104.139c20.027-6.676,29.373-6.676,50.734-1.335c25.367,8.01,44.059,18.691,66.755,32.042
				c6.676,6.676,8.011,8.011,12.016,17.356c25.367,17.356,102.804,58.745,132.176,56.075l1.335,1.335v8.011
				c4.005,10.681,8.011,13.351,17.356,18.692c-10.681-1.335-13.351-2.67-24.032-1.335l5.34,6.676
				c6.676,16.021,10.681,24.032,6.676,41.389c14.686,6.676,37.383,20.027,49.399,30.708l1.335,13.351
				c-22.697-1.335-37.383-22.697-50.734,16.021c-13.351,5.34-17.356,6.676-32.043,10.681c-40.053,2.67-57.41-5.34-89.453-28.037
				c-6.676-2.67-13.351-4.005-20.027-6.676c-32.043,9.346-30.708,5.341-60.08,6.676l-1.335-1.335
				c-21.362-5.341-30.708-8.011-49.399-21.362c-4.005-4.005-8.011-6.676-12.016-10.681c-9.346-10.681-14.686-16.021-22.697-28.037
				l-2.67-17.357c5.34-2.67,6.676-2.67,10.681-8.011c-2.67-5.34-4.005-13.351-5.34-18.691c-5.34-1.335-5.34-2.67-8.011-5.34
				c-2.67-6.676,0-13.351,2.67-20.027c8.011-20.027,28.037-29.372,29.373-44.059
				C1803.738,2132.176,1783.712,2122.831,1806.409,2104.139L1806.409,2104.139z"/>
			<path fill="#DB520F" d="M1974.633,2257.677c2.67,2.67,2.67,2.67,5.34,4.005c12.016,10.681,22.697,21.362,36.048,30.708
				l13.351-2.67c13.351,5.34,14.686,5.34,29.373,4.005c6.676-2.67,10.681-8.011,16.021-13.351
				c14.686,6.676,37.383,20.027,49.399,30.708l1.335,13.351c-22.697-1.335-37.383-22.697-50.734,16.021
				c-13.351,5.34-17.356,6.676-32.043,10.681c-40.053,2.67-57.41-5.34-89.453-28.038c-4.005-8.011-9.346-8.011-13.351-13.351
				C1913.218,2272.363,1947.931,2264.352,1974.633,2257.677L1974.633,2257.677z"/>
			<path fill="#762B04" d="M2029.373,2291.055c13.351,5.34,14.686,5.34,29.373,4.005c4.005,4.005,2.67,1.335,4.005,6.676
				c-2.67,4.005-12.016,2.67-17.357,4.005c0,0-6.676,9.346-8.011,9.346c-8.011,2.67-25.367-2.67-34.713-5.34
				c6.675-4.005,13.351-4.005,16.021-10.681l-2.67-8.011H2029.373z"/>
			<path fill="#D1782D" d="M1797.063,2237.65c8.011-1.335,10.681-2.67,18.691-2.67c0,24.032,0,33.378,26.702,37.383
				c8.011-5.34,10.681-5.34,10.681-14.686c6.676,4.005,9.346,2.67,16.021,2.67c2.67,1.335,4.005,2.67,6.676,5.341
				c34.713-13.351,45.394-34.713,84.112-20.027c4.005,2.67,10.681,6.676,14.686,10.681c-25.367,6.676-61.415,14.686-32.043,53.405
				c4.005,5.34,9.346,5.34,13.351,13.351c-6.676-2.67-13.351-4.006-20.027-6.676c-32.043,9.346-30.708,5.341-60.08,6.676
				l-1.335-1.335c-21.362-5.341-30.708-8.011-49.399-21.362c-4.005-4.005-8.011-6.676-12.016-10.681
				c-9.346-10.681-14.686-16.021-22.697-28.037l-2.67-17.357C1793.057,2242.991,1794.392,2242.991,1797.063,2237.65
				L1797.063,2237.65z"/>
			<path fill="#D0471D" d="M1797.063,2237.65c8.011-1.335,10.681-2.67,18.691-2.67c0,24.032,0,33.378,26.702,37.383
				c6.676,6.676,8.011,8.011,16.021,13.351c-8.011,17.356,16.021,25.367,18.692,34.713l-4.005,1.335
				c-21.362-5.34-30.708-8.011-49.399-21.362c-4.005-4.005-8.011-6.676-12.016-10.681c-9.346-10.681-14.686-16.021-22.697-28.038
				l-2.67-17.356C1793.057,2242.991,1794.392,2242.991,1797.063,2237.65L1797.063,2237.65z"/>
			<path fill="#762B04" d="M1853.138,2259.012c6.676,4.005,9.346,2.67,16.021,2.67c2.67,1.335,4.005,2.67,6.676,5.341l4.005,8.01
				c-4.005,9.346-10.681,12.016-21.362,12.016c-8.011-5.34-9.346-6.676-16.021-13.351
				C1850.467,2268.358,1853.138,2267.023,1853.138,2259.012L1853.138,2259.012z"/>
			<path fill="#FEAB29" d="M1806.409,2104.139c20.027-6.676,29.373-6.676,50.734-1.335c25.367,8.01,44.059,18.691,66.755,32.042
				c6.676,6.676,8.011,8.011,12.016,17.356c-25.367,16.021-36.048,1.335-61.415-5.34c4.005,4.005,22.697,24.032,22.697,25.367
				c-4.005,2.67-4.005,5.34-10.681,9.346c-9.346,4.005-25.367-6.676-34.713-10.681c-8.011-8.011-24.032-22.697-36.048-22.697
				C1803.738,2132.176,1783.712,2122.831,1806.409,2104.139L1806.409,2104.139z"/>
			<path fill="#762B04" d="M1874.499,2146.863c25.367,6.676,37.383,21.362,61.415,5.34c25.367,17.356,102.804,58.745,132.176,56.075
				l1.335,1.335v8.011c4.005,10.681,8.011,13.351,17.356,18.692c-10.681-1.335-13.351-2.67-24.032-1.335
				c-49.399-49.399-113.485-40.053-170.895-45.394c1.335-6.676,2.67-9.346,5.34-14.686
				C1895.861,2170.894,1877.17,2150.868,1874.499,2146.863L1874.499,2146.863z"/>
			<path fill="#762B04" d="M1815.754,2149.533c12.016-1.335,28.037,13.351,36.048,22.697c-25.367,22.697-9.346,28.038-33.378,48.064
				c-1.335,5.341-2.67,10.681-2.67,16.021c-8.011,0-10.681,0-18.692,2.67c-2.67-5.341-4.005-13.351-5.34-18.692
				c-5.34-1.335-5.34-2.67-8.011-5.34c-2.67-6.676,0-13.351,2.67-20.027C1794.392,2172.229,1814.419,2162.884,1815.754,2149.533
				L1815.754,2149.533z"/>
			<path fill="#FEE5B2" d="M1791.722,2218.958c8.011,0,17.357,1.335,25.367,1.335c-1.335,5.341-2.67,10.681-2.67,16.021
				c-8.011,0-10.681,0-18.692,2.67C1794.392,2232.31,1793.057,2224.299,1791.722,2218.958L1791.722,2218.958z"/>
			<path fill="#5D3F25" d="M1853.138,2259.012c0-44.059,89.453-33.378,116.155-25.367c-5.34,5.341-6.675,6.676-9.346,13.351
				c-38.718-14.686-50.734,6.676-84.112,20.027c-2.67-2.67-4.005-2.67-6.676-5.34
				C1862.483,2261.682,1858.478,2261.682,1853.138,2259.012L1853.138,2259.012z"/>
			<path fill="#FEE5B2" d="M2000,2253.672c16.021,5.34,22.697,22.697,29.372,37.383l-13.351,2.67
				c-13.351-9.346-24.032-18.692-36.048-30.708C1986.649,2257.677,1993.324,2256.342,2000,2253.672z"/>
			<path fill="#2C3502" d="M1969.292,2233.645c10.681,5.341,25.367,9.346,30.708,20.027c-6.676,2.67-13.351,5.34-20.027,9.346
				c-2.67-1.335-4.005-2.67-5.34-4.005c-2.67-4.005-10.681-8.011-14.686-10.681
				C1962.617,2240.321,1963.952,2238.985,1969.292,2233.645L1969.292,2233.645z"/>
			<path fill="#FEAB29" d="M2408.545,2189.586c-12.016-8.011-25.367-16.021-38.718-22.697
				c-18.691-9.346-68.091-26.702-73.431-45.394c6.676-20.027,58.745-6.676,73.431-1.335c9.346,2.67,21.362,17.356,29.373,22.697
				c34.713,21.362,104.139,40.053,89.453,94.793c-14.687,29.372-32.043,38.718-65.421,36.048
				c-8.011-6.676-9.346-9.346-13.351-18.691c-5.34,1.335-8.011,2.67-12.016,8.011c-13.351,18.691-12.016,22.697-32.043,32.043
				c1.335,4.005,5.34,10.681,6.676,14.686c-8.011,2.67-18.691,5.34-26.702,9.346l-4.005-1.335
				c-6.676-5.34-8.011-12.016-9.346-18.691c-5.34-1.335-14.686-8.011-20.027-10.681c-5.34-5.341-6.676-6.676-5.34-14.687
				c13.351-13.351,56.075-12.016,33.378-45.394l-5.34-4.005c26.702-8.011,18.692-10.681,29.373-30.708
				C2377.837,2192.256,2393.858,2189.586,2408.545,2189.586z"/>
			<path fill="#94340A" d="M2332.443,2297.73c14.687,0,18.692,0,33.378-4.005c1.335,4.005,5.341,10.681,6.676,14.686
				c-8.011,2.67-18.691,5.34-26.702,9.346l-4.005-1.335C2335.114,2311.081,2333.778,2305.741,2332.443,2297.73z"/>
			<path fill="#D1782D" d="M1965.287,2118.825c6.676,1.335,8.011,0,14.686-2.67l1.335-2.67c-5.34-8.011-13.351-13.351-16.021-21.362
				c6.676-14.686,50.734-14.686,58.745-8.011c21.362,16.021,58.745,32.043,78.771,46.729c-2.67,20.027-45.394,13.351-61.415,12.016
				c37.383,20.027,53.404,9.346,84.112,25.367c2.67,6.676,2.67,8.011,0,14.687c-12.016,9.346-14.687,12.016-29.373,16.021
				c-16.021-1.335-17.356-2.67-29.373,8.011c-29.372,2.67-106.809-38.718-132.176-56.075c-4.005-9.346-5.34-10.681-12.016-17.356
				C1941.255,2129.506,1953.271,2121.495,1965.287,2118.825z"/>
			<path fill="#D1782D" d="M2802.403,2137.517c-10.681,0-17.356,0-30.708,1.335c-21.362,1.335-84.112,25.367-86.782-13.351
				c0-5.34,6.676-13.351,10.681-16.021c29.373-17.356,97.463-49.399,125.501-14.686c0,6.676,0,4.005-4.005,10.681
				c12.016,9.346,22.697-2.67,34.713,2.67c10.681,5.341,4.005,24.032,13.351,25.367c14.687,1.335,30.708-4.005,40.053,6.676
				c-1.335,12.016-18.691,13.351-18.691,20.027c-1.335,13.351,5.34,13.351-9.346,24.032c-26.702,9.346-46.729,5.34-73.431-4.005
				c-12.016-2.67-25.367-5.34-33.378-16.021C2767.69,2146.863,2789.052,2142.857,2802.403,2137.517L2802.403,2137.517z"/>
			<path fill="#FEE5B2" d="M1922.563,1858.478c22.697,2.67,74.767-4.005,90.788,5.34c-60.08,16.021-146.863,37.383-182.911,94.793
				c-14.686,22.697-16.021,48.064-22.697,72.096c-8.011,2.67-13.351,2.67-17.356,10.681c-1.335,8.011,1.335,12.016,6.676,18.692
				c2.67,2.67,5.34,5.34,6.676,8.01c0,8.011,0,18.692,1.335,26.702v10.681c-22.697,18.692-2.67,28.038,9.346,45.394
				c-1.335,13.351-21.362,22.697-29.373,44.059c-6.675-13.351-12.016-65.42-14.686-82.777v-10.681c-1.335-9.346,0-26.702,0-36.048
				l1.335-12.016c1.335-24.032,10.681-61.415,18.692-84.112c5.34-12.016,9.346-20.027,16.021-32.043
				C1833.111,1893.191,1878.505,1873.164,1922.563,1858.478L1922.563,1858.478z"/>
			<path fill="#DB520F" d="M2631.509,2162.884c22.697-18.691,46.729-9.346,70.761,2.67c9.346,8.01,30.708,20.027,34.713,29.372
				c8.011,16.021,9.346,20.027,0,36.048c-17.356,8.011-20.027,8.011-37.383,13.351l-4.005,2.67
				c-10.681-5.34-21.362-6.676-33.378-6.676c4.005-2.67,9.346-4.005,13.351-5.34c-6.676-14.686-26.702-28.038-44.059-26.702
				c-9.346-4.005-32.043-9.346-44.059-14.686c-9.346-4.005-21.362-9.346-29.372-12.016c8.011-6.676,26.702-8.011,37.383-9.346
				C2610.147,2166.889,2615.487,2172.229,2631.509,2162.884L2631.509,2162.884z"/>
			<path fill="#AC3E0C" d="M2558.077,2181.575c8.011-6.676,26.702-8.011,37.383-9.346c8.01,0,24.032,0,30.708,2.67
				c-4.005,5.34-4.005,2.67-2.67,8.011c8.011,6.676,34.713,13.351,49.399,21.362c5.34,8.011,13.351,20.027,10.681,29.372
				l-2.67,1.335l-4.005-1.335c-6.676-14.686-26.702-28.037-44.059-26.702c-9.346-4.005-32.043-9.346-44.059-14.686
				C2578.104,2189.586,2567.423,2184.246,2558.077,2181.575z"/>
			<path fill="#94340A" d="M2631.509,2162.884c9.346,8.011,30.708,12.016,33.378,21.362c-9.346,4.005-29.373-4.005-40.053-8.011
				c-6.676-4.006-22.697-2.67-30.708-2.67C2610.147,2166.889,2615.487,2172.229,2631.509,2162.884z"/>
			<path fill="#E7933D" d="M1805.073,2066.756c-2.67-2.67-5.34-5.34-6.675-8.01c-5.34-6.676-8.011-10.681-6.676-18.692
				c4.005-6.676,9.346-8.011,17.357-10.681l2.67,1.335c13.351,5.34,44.059,28.037,56.075,21.362l-1.335,4.005l-6.676,1.335v2.67
				c8.011,9.346,41.389,22.697,54.74,26.702c2.67,0,5.34-1.335,8.011-2.67c13.351,6.676,38.718,13.351,45.394,25.367
				c0,6.676,1.335,4.005-2.67,10.681c-12.016,2.67-24.032,10.681-41.389,16.021c-22.697-13.351-41.389-24.032-66.756-32.043
				c-21.362-4.005-30.708-5.34-50.734,1.335v-10.681C1805.073,2085.447,1805.073,2074.766,1805.073,2066.756L1805.073,2066.756z"/>
			<path fill="#762B04" d="M1806.409,2092.123v-25.367c10.681,8.011,45.394,29.373,50.734,34.713
				c-21.362-4.005-30.708-5.34-50.734,1.335V2092.123z"/>
			<path fill="#FDC068" d="M2038.718,1827.77c13.351-2.67,33.378-6.676,46.729-6.676c12.016,9.346,61.415,16.021,82.777,25.367
				c-46.729,6.676-110.814,8.011-154.873,17.356c-17.356-9.346-69.426-2.67-90.788-5.34c6.676-2.67,17.357-6.676,24.032-8.011
				C1975.968,1841.121,2010.681,1833.111,2038.718,1827.77z"/>
			<path fill="#FEAB29" d="M1878.505,2012.016c28.037,10.681,26.702,22.697,46.729,32.043c-1.335,12.016-1.335,13.351-10.681,21.362
				c-1.335,1.335-1.335,1.335-2.67,2.67c4.005,6.676,5.34,8.011,12.016,13.351c-2.67,1.335-5.34,4.005-8.011,2.67
				c-13.351-2.67-46.729-17.356-54.74-26.702v-2.67l6.676-1.335l1.335-4.005l-8.011-8.011c2.67-13.351-6.676-17.357-4.005-26.702
				C1861.148,2012.016,1870.494,2012.016,1878.505,2012.016L1878.505,2012.016z"/>
			<path fill="#D0471D" d="M2558.077,2181.575c9.346,2.67,20.027,8.011,29.372,12.016c12.016,4.005,34.713,9.346,44.059,14.686
				c-5.34,4.005-12.016,9.346-17.356,12.016l-12.016,1.335c-22.697,0-61.415-2.67-78.771-16.021c-2.67-5.34-2.67-2.67-1.335-8.011
				C2526.035,2193.592,2548.732,2185.581,2558.077,2181.575L2558.077,2181.575z"/>
			<path fill="#E7933D" d="M1923.898,2044.059c13.351,4.005,62.75,14.687,58.745,30.708c-25.367,21.362-49.399,0-72.096-6.676
				c1.335-1.335,1.335-1.335,2.67-2.67C1922.563,2057.41,1922.563,2056.075,1923.898,2044.059L1923.898,2044.059z"/>
			<path fill="#AC3E0C" d="M2703.605,2165.554c28.038-2.67,50.734-2.67,70.761,22.697l-36.048,8.011
				C2732.977,2185.581,2712.951,2173.565,2703.605,2165.554L2703.605,2165.554z"/>
			<path fill="#F57811" d="M1858.478,2042.724c-13.351-9.346-38.718-22.697-30.708-41.389c16.021-12.016,37.383,2.67,50.734,12.016
				c-8.011,0-16.021,0-24.032,2.67C1850.467,2024.032,1861.148,2029.372,1858.478,2042.724L1858.478,2042.724z"/>
			
				<linearGradient id="SVGID_00000136401491082867237500000016329049997067077545_" gradientUnits="userSpaceOnUse" x1="2575.7759" y1="2986.9167" x2="2580.7427" y2="2817.6094" gradientTransform="matrix(1 0 0 1 0 -878)">
				<stop  offset="0" style="stop-color:#E99336"/>
				<stop  offset="1" style="stop-color:#FEB962"/>
			</linearGradient>
			<path fill="url(#SVGID_00000136401491082867237500000016329049997067077545_)" d="M2468.625,1942.59
				c26.702,4.005,34.713-13.351,52.069-6.676c4.005,5.341,2.67,6.676,2.67,14.686c29.373-9.346,30.708-1.335,52.069,2.67
				c4.005,2.67,29.373,17.356,33.378,17.356c49.399,2.67,32.042,52.07,84.112,18.692c18.692-10.681,53.405,34.713,40.053,50.734
				c-5.34,6.676-18.691,6.676-25.367,14.686c0,6.676,5.34,18.692-1.335,22.697c-22.697,18.691-60.08,32.042-88.118,37.383
				c-12.016,2.67-30.708-29.372-33.378-38.718c-1.335-5.341,9.346-10.681,13.351-12.016l1.335-4.005
				c-8.011-6.676-40.053-17.356-49.399-20.027c-29.373-5.34-37.383,12.016-68.091-5.34c-2.67-1.335-40.053,28.037-60.08-6.676
				c0-4.005,0-6.676-1.335-10.681C2425.901,1959.947,2464.619,1977.303,2468.625,1942.59L2468.625,1942.59z"/>
			<path fill="#DB520F" d="M2522.029,1950.601c29.373-9.346,30.708-1.335,52.069,2.67c4.005,2.67,29.373,17.356,33.378,17.356
				c10.681,12.016,22.697,22.697,22.697,40.053c0,26.702-44.059,22.697-61.415,18.692c-5.34-1.335-12.016-1.335-16.021-5.34
				c5.34-17.356-26.702-25.367-41.389-36.048c-5.34-4.005-8.011-6.676-8.011-13.351
				C2506.008,1961.282,2512.684,1957.276,2522.029,1950.601L2522.029,1950.601z"/>
			<path fill="#AC3E0C" d="M2512.684,1987.984c16.021-6.676,33.378,4.005,46.729,12.016c5.34,8.011,10.681,14.686,12.016,25.367
				l-2.67,5.341c-5.34-1.335-12.016-1.335-16.021-5.341C2559.413,2006.676,2527.37,1998.665,2512.684,1987.984z"/>
			<path fill="#AC3E0C" d="M2522.029,1963.952c12.016,1.335,25.367,1.335,32.043,12.016l-2.67,5.34
				c-9.346-1.335-26.702-6.676-32.043-13.351L2522.029,1963.952z"/>
			<path fill="#D1782D" d="M2304.406,2014.686c-12.016-5.34-34.713-14.686-25.367-29.372
				c33.378-22.697,81.442,10.681,112.149,21.362c10.681,4.005,17.356,5.34,25.367,12.016c0,4.005,1.335,6.675,1.335,10.681
				c-24.032,12.016-33.378,9.346-58.745,9.346c36.048,14.686,49.399,10.681,86.782,12.016c21.362,1.335,48.064,17.356,66.756,26.702
				c16.021,6.676,37.383,8.011,49.399,22.697c2.67,20.027-45.394,17.357-57.41,18.692c20.027,5.34,33.378,6.676,53.405,8.011
				c18.691,1.335,60.08-5.34,68.091,16.021c-5.34,29.373-54.74,26.702-74.766,24.032c0,0-14.687,13.351-20.027,13.351
				c-30.708-1.335-66.756-18.692-93.458-34.713c-18.691-12.016-45.394-46.729-4.005-49.399c5.341,0,10.681-1.335,17.357-1.335
				c-17.357-10.681-33.378-12.016-49.399,0c-30.708,24.032-152.203-40.053-138.852-70.761
				C2273.698,2014.686,2291.055,2016.021,2304.406,2014.686L2304.406,2014.686z"/>
			<path fill="#FEAB29" d="M2045.394,2037.383c50.734-22.697,48.064-4.005,94.793,4.005c32.042,5.34,110.814-5.341,136.181,22.697
				c4.006,16.021-30.708,24.032-42.723,28.037l4.005,6.676c0,6.676,1.335,5.341-4.005,10.681
				c-13.351,8.011-37.383,4.005-53.405,2.67c9.346,5.341,32.042,14.686,26.702,28.038c-28.037,16.021-118.825-12.016-114.82-38.718
				c8.011-10.681,21.362-9.346,36.048-13.351c-28.038-17.357-86.782,0-106.809-29.373
				C2020.027,2042.724,2032.043,2041.389,2045.394,2037.383L2045.394,2037.383z"/>
			<path fill="#E7933D" d="M2189.586,2074.766c13.351,2.67,29.372,4.005,38.718,14.686c1.335,1.335,2.67,2.67,4.005,2.67
				l4.005,6.676c0,6.676,1.335,5.341-4.005,10.681c-13.351,8.011-37.383,4.005-53.405,2.67c9.346,5.341,32.042,14.686,26.702,28.038
				c-28.037,16.021-118.825-12.016-114.82-38.718c8.011-10.681,21.362-9.346,36.048-13.351h2.67
				C2158.878,2102.804,2170.894,2098.798,2189.586,2074.766L2189.586,2074.766z"/>
			<path fill="#FD9928" d="M2045.394,2037.383c4.005,10.681,12.016,14.686,21.362,21.362c33.378,1.335,49.399,0,77.437,16.021
				c-5.34,4.005-10.681,8.011-13.351,13.351h-2.67c-28.037-17.356-86.782,0-106.809-29.372
				C2020.027,2042.724,2032.043,2041.389,2045.394,2037.383L2045.394,2037.383z"/>
			<path fill="#D1782D" d="M2308.411,1862.483c14.686-1.335,49.399,0,53.405,17.357l-5.34,6.676l1.335,2.67
				c32.043,6.676,52.069,0,82.777,4.005c6.676,0,10.681,4.005,14.687,9.346c6.676,30.708-40.053,28.037-52.069,33.378
				c1.335,2.67,16.021,8.011,21.362,9.346l1.335,5.341c-5.34,21.362-46.729,18.692-64.085,16.021c-4.005,0-8.011-1.335-12.016-2.67
				c-45.394-10.681-64.086-26.702-8.011-45.394c-26.702-4.005-45.394,1.335-70.761,5.34c-14.686,1.335-41.388,0-50.734-12.016
				c-2.67-18.692,17.356-25.367,32.043-30.708C2268.358,1871.829,2287.05,1865.153,2308.411,1862.483L2308.411,1862.483z"/>
			<path fill="#F57811" d="M2142.857,1930.574c-13.351-8.011-26.702-16.021-22.697-33.378c8.01-10.681,18.691-8.011,29.372-2.67
				c25.367,14.686,52.069,36.048,72.096,46.729c-5.341,8.011-10.681,17.356-17.357,24.032c1.335,6.676,6.676,9.346,12.016,14.686
				c14.687,5.34,36.048,12.016,40.053,28.037c-5.34,48.064-89.452,0-108.144-14.686c-14.686-12.016-85.447-46.729-61.415-72.096
				c24.032-10.681,41.389,24.032,72.096,26.702h2.67C2156.208,1942.59,2149.533,1935.915,2142.857,1930.574z"/>
			<path fill="#FD9928" d="M2142.857,1930.574c-13.351-8.011-26.702-16.021-22.697-33.378c8.01-10.681,18.691-8.011,29.372-2.67
				c25.367,14.686,52.069,36.048,72.096,46.729c-5.341,8.011-10.681,17.356-17.357,24.032c1.335,6.676,6.676,9.346,12.016,14.686
				c-10.681,5.34-61.415-16.021-65.42-26.702c4.005-5.341,2.67-2.67,10.681-5.341
				C2156.208,1942.59,2149.533,1935.915,2142.857,1930.574z"/>
			<path fill="#F57811" d="M2142.857,1930.574c-13.351-8.011-26.702-16.021-22.697-33.378c8.01-10.681,18.691-8.011,29.372-2.67
				v2.67C2146.863,1909.212,2153.538,1925.234,2142.857,1930.574L2142.857,1930.574z"/>
			<path fill="#D1782D" d="M2038.718,1942.59c5.34,0,21.362-1.335,25.367,1.335c16.021,6.676,60.08,44.059,56.075,61.415
				c-14.687,16.021-68.091-6.676-77.437-1.335c4.005,6.676,5.34,5.341,4.005,12.016c-9.346,9.346-14.686,9.346-26.702,10.681
				c-8.011-1.335-22.697-4.005-30.708-4.005c-18.691,0-34.713,6.675-53.404,0c-9.346-2.67-14.686-16.021-9.346-22.697
				c8.011-9.346,32.043-12.016,44.059-14.686C1990.654,1953.271,2005.34,1950.601,2038.718,1942.59L2038.718,1942.59z"/>
			
				<linearGradient id="SVGID_00000013193588456324829670000007190908884518437036_" gradientUnits="userSpaceOnUse" x1="1901.0138" y1="2824.9512" x2="2069.9402" y2="2773.0432" gradientTransform="matrix(1 0 0 1 0 -878)">
				<stop  offset="0" style="stop-color:#EB8F33"/>
				<stop  offset="1" style="stop-color:#FFBE61"/>
			</linearGradient>
			<path fill="url(#SVGID_00000013193588456324829670000007190908884518437036_)" d="M2068.091,1869.159h1.335
				c17.356,5.34,32.042-1.335,42.723,9.346c0,14.686-38.718,26.702-50.734,30.708c-16.021,2.67-29.373,4.005-40.053,17.357
				c-6.676,21.362-64.086,44.059-73.431,24.032c2.67-13.351,26.702-20.027,38.718-32.043v-2.67l-8.011-1.335
				c-10.681,8.011-65.421,29.372-78.772,25.367c-5.34-5.34-4.005-2.67-5.34-9.346
				C1903.872,1906.542,2038.718,1870.494,2068.091,1869.159L2068.091,1869.159z"/>
			<path fill="#E7933D" d="M1978.638,1915.888c6.676-8.011,6.676-1.335,14.686-6.676l-4.005-2.67c1.335-2.67,1.335-1.335,5.34-2.67
				h-2.67l4.005,1.335v2.67c4.005,17.356,9.346,21.362,26.702,18.692c-6.676,21.362-64.086,44.059-73.431,24.032
				c2.67-13.351,26.702-20.027,38.718-32.043v-2.67H1978.638z"/>
			<path fill="#FD9928" d="M2068.091,1869.159h1.335c17.356,5.34,32.042-1.335,42.723,9.346c0,14.686-38.718,26.702-50.734,30.708
				C2062.75,1899.866,2066.756,1878.505,2068.091,1869.159L2068.091,1869.159z"/>
			<path fill="#FD9928" d="M2468.625,1942.59c-4.005-36.048,29.373-50.734,58.745-34.713c5.341,2.67,8.011,16.021,17.357,13.351
				c12.016,0,21.362-5.34,30.708,2.67c5.34,9.346,4.005,18.692,1.335,29.373c-21.362-2.67-22.697-12.016-52.069-2.67
				c0-8.011,1.335-8.011-2.67-14.686C2502.003,1929.239,2493.992,1946.595,2468.625,1942.59z"/>
			<path fill="#F57811" d="M1891.856,1961.282c34.713-2.67,44.059,21.362,22.697,48.064c-2.67,4.005-9.346,2.67-13.351,1.335
				c-14.686-5.34-33.378-14.686-40.053-29.372C1861.148,1965.287,1877.17,1965.287,1891.856,1961.282L1891.856,1961.282z"/>
			<path fill="#F57811" d="M2186.916,1859.813c10.681-2.67,21.362,0,26.702,10.681c4.005,8.011,5.34,17.356,1.335,25.367
				c-5.34,14.686-13.351,14.686-26.702,10.681c-12.016-6.676-29.373-17.357-36.048-29.372
				C2153.538,1861.148,2173.565,1862.483,2186.916,1859.813z"/>
			<path fill="#F57811" d="M2221.629,1941.255c13.351,4.005,57.41,14.686,52.069,33.378c-18.691,18.692-50.734-5.341-69.426-9.346
				C2210.948,1958.611,2216.288,1949.266,2221.629,1941.255z"/>
			<path fill="#FCBA14" d="M2503.338,1365.821l65.42-10.681c-2.67,113.485,0,228.304-1.335,341.789
				c0,17.357,1.335,113.485-1.335,124.166l-34.713-4.005c-17.357-2.67-36.048-4.005-53.405-6.676l-17.356-1.335h-17.356
				c-9.346-1.335-20.027-1.335-29.373-1.335c-49.399-4.005-114.82-4.005-162.884,0c-53.405,1.335-112.149,5.34-165.554,14.686
				c-12.016,0-33.378,4.005-46.729,6.676c-28.037,5.341-62.75,14.686-90.788,22.697c-6.676,2.67-18.692,5.341-24.032,8.011
				c-45.394,14.686-89.453,36.048-117.49,77.437c-6.676,10.681-10.681,20.027-16.021,32.043
				c-8.011,22.697-17.357,60.08-18.692,84.112l-1.335,12.016c-4.005-1.335-10.681-2.67-14.686-2.67
				c-1.335-8.011-2.67-6.676,0-12.016l-2.67-1.335c-10.681,0-37.383-5.34-49.399-8.011v12.016
				c-16.021-4.006-29.372-14.686-36.048-16.021c-1.335,6.675,0,10.681-4.005,14.686c-78.772,18.692-158.879,40.053-237.65,57.41
				v-16.021v-77.437v-36.048c1.335-38.718,0-82.777,1.335-121.495l213.618-48.064c1.335-8.011,0-81.442,0-94.793
				c0-69.426,1.335-138.852,0-209.613l21.362-4.005l8.011-2.67c10.681,0,25.367-4.005,36.048-5.34
				c9.346-1.335,21.362-4.005,30.708-5.34c4.005-1.335,9.346-1.335,13.351-1.335c22.697-4.005,45.394-9.346,68.091-13.351
				c61.415-13.351,152.203-28.037,213.618-37.383c44.059-6.676,124.166-20.027,165.554-29.372
				c22.697-4.005,46.729-6.676,69.426-10.681c14.686-1.335,30.708-4.005,45.394-5.34c17.357-4.005,49.399-8.011,68.091-9.346
				L2503.338,1365.821z"/>
			<path fill="#F57811" d="M2503.338,1365.821l65.42-10.681c-2.67,113.485,0,228.304-1.335,341.789
				c0,17.357,1.335,113.485-1.335,124.166l-34.713-4.005c-17.357-2.67-36.048-4.005-53.405-6.676l-17.356-1.335h-17.356
				c-9.346-1.335-20.027-1.335-29.373-1.335v-37.383v-14.686v-37.383c-44.059-10.681-116.155-18.692-162.884-26.702l-301.736-46.729
				c-65.42-9.346-142.857-18.692-206.943-32.043c0-36.048-1.335-72.096-2.67-106.809l-1.335-17.357
				c4.005-1.335,9.346-1.335,13.351-1.335c22.697-4.005,45.394-9.346,68.091-13.351c61.415-13.351,152.203-28.037,213.618-37.383
				c44.059-6.676,124.166-20.027,165.554-29.372c22.697-4.005,46.729-6.676,69.426-10.681c14.686-1.335,30.708-4.005,45.394-5.34
				c17.356-4.005,49.399-8.011,68.091-9.346L2503.338,1365.821z"/>
			<path fill="#C0BCBA" d="M2503.338,1365.821l65.42-10.681c-2.67,113.485,0,228.304-1.335,341.789
				c0,17.357,1.335,113.485-1.335,124.166l-34.713-4.005c-17.357-2.67-36.048-4.005-53.405-6.676l-17.356-1.335h-17.356
				c-9.346-1.335-20.027-1.335-29.373-1.335v-37.383v-14.686v-37.383v-122.83v-20.027v-26.702v-60.08
				c0-25.367,0-53.405,1.335-78.772c1.335-6.676,1.335-9.346-2.67-13.351c-17.356-5.34-74.766-4.005-97.463-4.005
				c17.357-4.005,49.399-8.011,68.091-9.346L2503.338,1365.821z"/>
			<path fill="#868585" d="M2313.752,1391.188c17.357-4.005,49.399-8.011,68.091-9.346l120.16-16.021l-1.335,6.676
				c-9.346,2.67-16.021,5.34-24.032,10.681c-6.676,0-10.681,0-17.356,2.67c1.335,138.852,1.335,285.714,0,424.566h-17.356
				c-9.346-1.335-20.027-1.335-29.373-1.335v-37.383v-14.686v-37.383v-122.83v-20.027v-26.702v-60.08
				c0-25.367,0-53.405,1.335-78.772c1.335-6.675,1.335-9.346-2.67-13.351C2392.523,1389.853,2336.448,1391.188,2313.752,1391.188
				L2313.752,1391.188z"/>
			<path fill="#61605A" d="M2437.917,1388.518c6.676-1.335,14.687-2.67,21.362-4.005c1.335,138.852,1.335,285.714,0,424.566h-17.356
				C2437.917,1801.068,2440.587,1431.242,2437.917,1388.518z"/>
			<path fill="#323237" d="M2503.338,1365.821l65.42-10.681c-2.67,113.485,0,228.304-1.335,341.789
				c0,17.357,1.335,113.485-1.335,124.166l-34.713-4.005l1.335-431.242c-12.016-9.346-14.687-13.351-30.708-13.351
				L2503.338,1365.821z"/>
			<path fill="#D1782D" d="M2459.279,1384.513c5.34-2.67,10.681-2.67,17.356-2.67c4.005,36.048,1.335,108.144,1.335,148.198v280.374
				l-17.356-1.335C2461.949,1670.227,2460.614,1523.365,2459.279,1384.513z"/>
			<path fill="#F57811" d="M2313.752,1391.188c21.362,0,78.772-1.335,97.463,4.005c4.005,4.005,4.005,8.011,2.67,13.351
				c-1.335,25.367-1.335,53.405-1.335,78.772v60.08c-50.734-9.346-129.506-16.021-182.911-22.697l-411.215-52.069
				c61.415-13.351,152.203-28.037,213.618-37.383c44.059-6.675,124.166-20.027,165.554-29.372
				c22.697-4.005,46.729-6.676,69.426-10.681C2283.044,1395.194,2299.065,1393.858,2313.752,1391.188z"/>
			<path fill="#FD9928" d="M2313.752,1391.188c21.362,0,78.772-1.335,97.463,4.005c4.005,4.005,4.005,8.011,2.67,13.351
				c-1.335,25.367-1.335,53.405-1.335,78.772c-66.756-5.341-146.863-18.692-213.618-28.037
				c-45.394-5.34-122.83-14.686-165.554-25.367c44.059-6.675,124.166-20.027,165.554-29.372
				c22.697-4.005,46.729-6.676,69.426-10.681C2283.044,1395.194,2299.065,1393.858,2313.752,1391.188z"/>
			<path fill="#A06013" d="M2313.752,1391.188c21.362,0,78.772-1.335,97.463,4.005c4.005,4.005,4.005,8.011,2.67,13.351
				c-50.734-4.005-93.458-10.681-145.527-12.016C2283.044,1395.194,2299.065,1393.858,2313.752,1391.188z"/>
			<path fill="#FEAB29" d="M1751.669,1485.981c22.697-4.005,45.394-9.346,68.091-13.351l411.215,52.069
				c52.07,6.676,132.176,13.351,182.911,22.697v26.702c-21.362,0-65.42-6.676-86.782-9.346l-165.554-21.362l-253.672-34.713
				C1854.473,1502.003,1801.068,1495.327,1751.669,1485.981z"/>
			<path fill="#D1782D" d="M1736.983,1488.652c4.005-1.335,9.346-1.335,13.351-1.335c50.734,9.346,104.139,14.686,154.873,22.697
				l253.672,34.713l165.554,21.362c22.697,2.67,65.42,9.346,86.782,9.346v20.027c-50.734-4.005-125.5-16.021-178.905-24.032
				l-276.369-36.048c-68.091-9.346-152.203-22.697-218.958-29.372L1736.983,1488.652z"/>
			<path fill="#F57811" d="M1743.658,1660.881c37.383,5.34,74.766,12.016,112.15,17.356l311.082,49.399
				c64.085,9.346,129.506,20.027,193.591,30.708c9.346,1.335,46.729,8.011,53.405,9.346v37.383
				c-49.399-4.005-114.82-4.005-162.884,0c-53.405,1.335-112.149,5.341-165.554,14.686c-12.016,0-33.378,4.005-46.729,6.676
				c-96.128-18.692-194.927-30.708-291.055-49.399C1747.663,1743.658,1744.993,1696.929,1743.658,1660.881z"/>
			<path fill="#F57811" d="M1427.236,1857.143l213.618-48.064c0,49.399,0,98.798,0,146.862c0,28.037-1.335,56.075,0,85.447
				c-61.415,14.686-154.873,40.053-214.953,50.734v-77.437v-36.048C1428.572,1939.92,1427.236,1895.861,1427.236,1857.143
				L1427.236,1857.143z"/>
			<path fill="#FCBA14" d="M1427.236,1978.638c44.059-10.681,89.453-20.027,133.511-30.708
				c24.032-5.341,56.075-12.016,80.107-18.692v37.383c-65.421,13.351-149.533,36.048-213.618,46.729V1978.638z"/>
			<path fill="#5D3F25" d="M1663.551,1500.667l8.011-2.67c2.67,90.788,0,196.262,0,288.385c0,58.745,0,117.49-1.335,176.235
				c0,21.362,0,50.734-1.335,72.096c-1.335,6.676,0,10.681-4.005,14.686c-78.772,18.691-158.879,40.053-237.65,57.41v-16.021
				c60.08-10.681,153.538-36.048,214.953-50.734c-1.335-29.372,0-56.075,0-85.447c0-49.399-1.335-98.798,0-146.863
				c1.335-8.011,0-81.442,0-94.793c0-69.426,1.335-138.852,0-209.613L1663.551,1500.667z"/>
			<path fill="#FCBA14" d="M1663.551,1500.667l8.011-2.67c2.67,90.788,0,196.262,0,288.385c0,58.745,0,117.49-1.335,176.235
				c0,21.362,0,50.734-1.335,72.096c-1.335,6.676,0,10.681-4.005,14.686c-5.34-14.686-2.67-162.884-2.67-189.586L1663.551,1500.667z
				"/>
			<path fill="#90714C" d="M1671.562,1497.997c10.681,0,25.367-4.005,36.048-5.34c-2.67,174.9,0,351.135-2.67,526.035
				c0,6.675,0,13.351,0,20.027v12.016c-16.021-4.005-29.372-14.686-36.048-16.021c1.335-21.362,1.335-50.734,1.335-72.096
				c1.335-58.745,1.335-117.49,1.335-176.235C1671.562,1694.259,1674.232,1590.12,1671.562,1497.997z"/>
			<path fill="#F57811" d="M1747.663,1813.084c64.086,13.351,138.852,21.362,200.267,36.048c-6.676,2.67-18.692,5.341-24.032,8.011
				c-45.394,14.686-89.453,36.048-117.49,77.437c-18.692-2.67-37.383-5.34-56.075-10.681
				C1750.334,1887.85,1747.663,1850.467,1747.663,1813.084z"/>
			<path fill="#D1782D" d="M1743.658,1660.881c0-6.676-1.335-10.681,1.335-16.021c17.357-1.335,137.517,21.362,165.554,25.367
				l502.003,82.777v14.686c-6.676-2.67-44.059-8.011-53.405-9.346c-64.085-10.681-128.171-21.362-193.591-30.708l-311.082-49.399
				C1818.425,1672.897,1781.041,1666.222,1743.658,1660.881z"/>
			<path fill="#F57811" d="M1751.669,1959.947c13.351,2.67,26.702,4.005,40.053,8.01c-8.011,22.697-17.356,60.08-18.692,84.112
				l-1.335,12.016c-4.005-1.335-10.681-2.67-14.686-2.67c-1.335-8.011-2.67-6.676,0-12.016l-2.67-1.335
				C1751.669,2033.378,1751.669,1977.303,1751.669,1959.947L1751.669,1959.947z"/>
			<path fill="#94340A" d="M1755.674,2048.064l16.021,2.67l-1.335,12.016c-4.005-1.335-10.681-2.67-14.686-2.67
				C1754.339,2053.405,1753.004,2054.74,1755.674,2048.064L1755.674,2048.064z"/>
			<path fill="#DB520F" d="M421.896,2295.06c38.718,13.351,85.447,25.367,126.836,36.048l158.879,42.724
				c138.852,37.383,283.044,78.772,421.896,113.485c0-30.708-2.67-88.118,0-117.49c0,13.351-1.335,69.426,1.335,81.442
				c0,53.405-8.01,125.5,30.708,166.889c1.335,1.335,2.67,2.67,4.005,4.005c0,2.67-1.335,2.67-2.67,5.34c-1.335,0-1.335,0-2.67,0
				c-9.346,0-620.828-182.91-676.903-201.602c-10.681-4.005-20.027-8.011-28.037-14.686
				c-46.729-48.064-28.037-50.734-34.713-104.139L421.896,2295.06z"/>
			<path fill="#DB520F" d="M1176.235,2484.646c46.729-12.016,104.139-25.367,150.868-34.713c1.335,1.335,1.335,2.67,2.67,4.005
				c32.043,57.41,69.426,10.681,121.495,25.367c20.027,6.676,49.399,13.351,69.426,18.692l112.15,28.037
				c-20.027,6.676-50.734,13.351-72.096,18.692c-33.378,8.011-66.756,16.021-100.134,25.367l-120.16,30.708
				c-37.383,9.346-84.112,28.037-120.16,9.346c-33.378-16.021-42.724-45.394-44.059-80.107
				C1176.235,2515.354,1176.235,2499.332,1176.235,2484.646z"/>
			<path fill="#323237" d="M1129.506,2451.268c2.67,12.016,2.67,24.032,2.67,37.383c9.346,0,36.048-1.335,42.724,0
				c0,4.005-2.67,30.708,0,41.388c1.335,33.378,10.681,64.085,44.059,80.107c36.048,17.356,82.777,0,120.16-9.346l120.16-30.708
				c33.378-8.011,66.756-17.356,100.133-25.367c21.362-5.34,52.07-12.016,72.096-18.691l57.41,12.016
				c-20.027,6.676-64.085,17.357-86.782,22.697l-172.23,44.059c-33.378,8.011-65.421,17.357-97.463,26.702
				c-48.064,13.351-93.458,30.708-141.522,8.011c-9.346-4.005-18.692-10.681-26.702-17.356c-1.335-1.335-2.67-2.67-4.005-4.005
				C1121.495,2576.769,1129.506,2504.673,1129.506,2451.268L1129.506,2451.268z"/>
			<path fill="#F57811" d="M480.641,1024.032c14.686,6.676,101.469,17.357,124.166,21.362l384.513,58.745l117.49,17.357
				c20.027,2.67,49.399,6.676,66.756,12.016c-30.708,28.037-42.724,53.404-44.059,94.793c-1.335,58.745-1.335,118.825-1.335,177.57
				v332.443c-162.884-24.032-324.433-52.069-485.981-86.782c-61.415-13.351-156.208-33.378-216.288-50.734
				c-2.67-4.005-1.335-57.41-1.335-66.756v-122.83c0-88.117,0-177.57,1.335-265.688
				C427.236,1098.798,445.928,1056.075,480.641,1024.032z"/>
			<path fill="#F57811" d="M425.901,1758.344c130.841,48.064,292.39,88.118,429.907,113.485
				c36.048,6.676,73.431,13.351,110.814,18.692c17.357,2.67,49.399,6.676,66.756,10.681v1.335
				c12.016,1.335,21.362,2.67,33.378,4.005v-1.335c5.34,0,10.681-1.335,16.021,1.335c16.021,1.335,34.713,2.67,49.399,5.34v303.071
				c0,46.729,1.335,109.479,0,154.873c-2.67,29.373-1.335,86.782,0,117.49c-138.852-34.713-283.044-76.101-421.896-113.485
				l-158.879-42.724c-40.053-10.681-86.782-22.697-126.836-36.048l-1.335,12.016c-26.702,4.005-53.405,9.346-80.107,4.005
				c-17.357-2.67-76.102-20.027-88.118-34.713c-4.005-5.34-4.005-10.681-2.67-16.021c1.335-8.011,8.011-24.032,12.016-29.373
				c28.037-37.383,128.171-173.565,158.879-196.262c2.67,2.67,2.67,12.016,2.67,17.357c2.67-33.378,2.67-81.442,2.67-116.155
				L425.901,1758.344z"/>
			<path fill="#323237" d="M340.454,2311.081c-17.356-2.67-76.102-20.027-88.118-34.713c-4.005-5.341-4.005-10.681-2.67-16.021
				c1.335-8.011,8.011-24.032,12.016-29.372c28.037-37.383,128.171-173.565,158.878-196.262c2.67,2.67,2.67,12.016,2.67,17.356
				c-1.335,18.692,0,112.15-4.005,121.495c5.34,17.357,2.67,68.091,1.335,89.453v32.043l-1.335,12.016
				C393.859,2309.746,365.821,2315.087,340.454,2311.081L340.454,2311.081z"/>
			<path fill="#EA5F27" d="M419.226,2173.565c5.34,17.357,2.67,68.091,1.335,89.453c-20.027,4.005-58.745,14.686-76.101,10.681
				C364.486,2245.661,395.194,2197.597,419.226,2173.565L419.226,2173.565z"/>
			<path fill="#323237" d="M1032.043,1902.537c12.016,1.335,21.362,2.67,33.378,4.005c6.676,9.346,4.005,97.463,4.005,114.82
				c-8.011-1.335-18.692-1.335-26.702-4.005c-5.34-1.335-8.011,0-10.681-4.005C1029.373,2000,1030.708,1914.553,1032.043,1902.537z"
				/>
			<path fill="#DB520F" d="M1064.085,1903.872c5.34,0,10.681-1.335,16.021,1.335c-4.005,8.011-1.335,109.479-1.335,128.171
				c-14.686-4.005-26.702-5.34-37.383-16.021c8.011,1.335,18.692,2.67,26.702,4.005c0-17.357,2.67-106.809-4.005-114.82
				L1064.085,1903.872z"/>
			<path fill="#C0BCBA" d="M3090.788,2178.905c106.809,16.021,229.64,36.048,335.114,48.064l-416.555,138.852
				c-192.256,65.421-381.843,133.511-576.769,188.251c-38.719,10.681-97.463,33.378-134.847,38.718
				c-9.346,1.335-80.107-13.351-94.793-17.356l-161.549-30.708c-210.948-40.053-432.577-77.437-640.854-124.166
				c17.356-4.005,134.846-33.378,146.863-40.053c44.059-13.351,93.458-25.367,137.517-37.383
				c20.027-5.34,110.815-33.378,124.166-33.378c5.34-1.335,10.681-5.34,14.686-8.011c18.692,13.351,28.037,14.686,49.399,21.362
				l1.335,1.335c29.372-1.335,29.372,2.67,60.08-6.676c6.676,2.67,13.351,4.005,20.027,6.676
				c32.043,22.697,49.399,30.708,89.453,28.037c14.686-2.67,18.692-4.005,32.043-10.681c14.686-40.053,28.038-18.692,50.734-16.021
				c-5.34,4.006-4.005,1.335-4.005,6.676c4.005,2.67,6.676,5.341,10.681,8.011c4.005,12.016,16.021,24.032,18.691,36.048
				c4.005,0,6.676,1.335,9.346,1.335c18.691,10.681,50.734,20.027,58.745,25.367c6.676,0,18.691,1.335,25.367,1.335
				c54.74,6.676,112.149,6.676,166.889,5.34c22.697,0,65.421-2.67,86.782,0c141.522,4.005,348.465-2.67,453.938-113.485
				c8.011-4.005,25.367-18.692,33.378-25.367c18.691-13.351,42.724-29.372,60.08-44.059
				C3068.091,2208.278,3074.766,2205.607,3090.788,2178.905L3090.788,2178.905z"/>
			<path fill="#636A77" d="M1823.765,2301.736c18.692,13.351,28.037,14.686,49.399,21.362l1.335,1.335
				c29.372-1.335,29.372,2.67,60.08-6.676c6.676,2.67,13.351,4.005,20.027,6.676c32.043,22.697,49.399,30.708,89.453,28.038
				c14.686-2.67,18.692-4.005,32.043-10.681c14.686-40.053,28.038-18.692,50.734-16.021c-5.34,4.005-4.005,1.335-4.005,6.676
				c4.005,2.67,6.676,5.34,10.681,8.011c4.005,12.016,16.021,24.032,18.691,36.048c4.005,0,6.676,1.335,9.346,1.335
				c18.691,10.681,50.734,20.027,58.745,25.367c6.676,0,18.691,1.335,25.367,1.335c54.74,6.676,112.149,6.676,166.889,5.34
				c22.697,0,65.421-2.67,86.782,0c21.362,8.011,8.011,12.016,18.691,22.697c5.341,1.335,8.011,1.335,14.687,2.67
				c6.676,0,26.702-1.335,32.042,0c-30.708,12.016-256.342,82.777-279.039,84.112c-8.011,0-726.302-134.847-738.318-138.852
				c44.059-13.351,93.458-25.367,137.517-37.383c20.027-5.341,110.814-33.378,124.166-33.378
				C1813.084,2308.411,1818.425,2304.406,1823.765,2301.736L1823.765,2301.736z"/>
			<path fill="#323237" d="M1823.765,2301.736c18.692,13.351,28.037,14.686,49.399,21.362l1.335,1.335
				c29.372-1.335,29.372,2.67,60.08-6.676c6.676,2.67,13.351,4.005,20.027,6.676c32.043,22.697,49.399,30.708,89.453,28.038
				c14.686-2.67,18.692-4.005,32.043-10.681c14.686-40.053,28.038-18.692,50.734-16.021c-5.34,4.005-4.005,1.335-4.005,6.676
				c4.005,2.67,6.676,5.34,10.681,8.011c4.005,12.016,16.021,24.032,18.691,36.048c4.005,0,6.676,1.335,9.346,1.335
				c18.691,10.681,50.734,20.027,58.745,25.367c6.676,0,18.691,1.335,25.367,1.335c54.74,6.676,112.149,6.676,166.889,5.34
				c22.697,0,65.421-2.67,86.782,0c21.362,8.011,8.011,12.016,18.691,22.697c5.341,1.335,8.011,1.335,14.687,2.67
				c-92.123,2.67-185.581-2.67-279.039-8.011c-134.846-6.676-283.044-2.67-415.22-37.383
				c-46.729-12.016-80.107-41.389-30.708-81.442C1813.084,2308.411,1818.425,2304.406,1823.765,2301.736L1823.765,2301.736z"/>
			<path fill="#FEE5B2" d="M2076.102,2341.789c14.686-40.053,28.037-18.692,50.734-16.021c-5.34,4.006-4.005,1.335-4.005,6.676
				c4.005,2.67,6.676,5.341,10.681,8.011c4.005,12.016,16.021,24.032,18.691,36.048c4.005,0,6.676,1.335,9.346,1.335
				c18.692,10.681,50.734,20.027,58.745,25.367c-106.809,2.67-257.677-17.356-347.13-80.107c29.372-1.335,29.372,2.67,60.08-6.676
				c6.676,2.67,13.351,4.005,20.027,6.676c32.043,22.697,49.399,30.708,89.453,28.038
				C2058.745,2349.8,2062.75,2348.465,2076.102,2341.789L2076.102,2341.789z"/>
			<path fill="#AC3E0C" d="M2076.102,2341.789c14.686-40.053,28.037-18.692,50.734-16.021c-5.34,4.006-4.005,1.335-4.005,6.676
				c4.005,2.67,6.676,5.341,10.681,8.011c4.005,12.016,16.021,24.032,18.691,36.048c-17.356-2.67-28.037-8.011-42.724-14.686
				C2097.463,2352.47,2090.788,2345.794,2076.102,2341.789z"/>
			<path fill="#FEAB29" d="M2076.102,2341.789c14.686,4.005,21.362,9.346,33.378,18.691c-18.691-5.34-45.394-9.346-65.42-9.346
				C2058.745,2349.8,2062.75,2348.465,2076.102,2341.789z"/>
			
				<linearGradient id="SVGID_00000108275547598051765690000002040801396691489716_" gradientUnits="userSpaceOnUse" x1="2789.7324" y1="3144.5249" x2="2857.1865" y2="3272.2498" gradientTransform="matrix(1 0 0 1 0 -878)">
				<stop  offset="0" style="stop-color:#41444D"/>
				<stop  offset="1" style="stop-color:#6E7480"/>
			</linearGradient>
			<path fill="url(#SVGID_00000108275547598051765690000002040801396691489716_)" d="M3046.729,2228.304
				c33.378,6.676,66.756,12.016,100.134,17.357c-48.064,22.697-94.793,45.394-142.857,69.426
				c-36.048,18.691-69.426,37.383-106.809,53.405c-98.798,44.059-205.607,60.08-312.417,65.42c-5.34,0-16.021,2.67-21.362,2.67
				c-5.341-1.335-24.032,0-32.043,0c-5.34-1.335-9.346-1.335-14.686-2.67c-10.681-10.681,1.335-14.686-18.692-22.697
				c141.522,4.005,348.465-2.67,453.939-113.485c8.011-4.005,25.367-18.691,33.378-25.367
				C3005.34,2259.012,3029.372,2244.326,3046.729,2228.304L3046.729,2228.304z"/>
			<path fill="#636A77" d="M2263.017,2560.748c9.346-1.335,30.708-4.006,38.718,2.67l-1.335,4.005
				c-9.346,1.335-29.373,4.005-37.383-1.335L2263.017,2560.748z"/>
			<path fill="#FD9928" d="M1229.64,943.925c26.702-13.351,50.734-22.697,76.101-33.378
				c72.096-33.378,126.836-37.383,204.272-30.708c25.367,1.335,56.075,0,81.442,6.676c33.378,5.34,84.112,16.021,116.155,28.037
				c5.34-2.67,10.681-1.335,16.021-1.335c133.511,9.346,275.034,22.697,407.21,34.713c44.059,4.005,319.092,21.362,337.784,33.378
				c-267.023,24.032-536.716,54.74-803.738,81.442l-291.055,28.037c-60.08,6.676-152.203,6.676-200.267,42.724
				c-18.692-5.34-48.064-9.346-66.756-12.016l-117.49-17.357l-383.178-58.745c-24.032-4.005-110.814-14.686-124.165-21.362
				l1.335-1.335c21.362-16.021,45.394-28.037,72.096-32.043c20.027-4.005,73.431-5.341,98.798-6.676l206.943-14.686l232.31-16.021
				C1118.825,950.601,1205.607,941.255,1229.64,943.925L1229.64,943.925z"/>
			<path fill="#454548" d="M1229.64,943.925c26.702-13.351,50.734-22.697,76.101-33.378
				c72.096-33.378,126.836-37.383,204.272-30.708c25.367,1.335,56.075,0,81.442,6.676c-17.357,1.335-33.378,1.335-50.734,1.335
				c-10.681,5.341-24.032,6.676-28.037,10.681c-21.362,2.67-65.42,18.692-85.447,28.037l-38.718,17.357
				c-38.719,20.027-44.059,24.032-72.096,57.41c-17.356,18.692-21.362,22.697-42.724,34.713
				c-38.718,5.34-118.825,17.356-154.873,14.686c-14.686,0-132.176-6.676-136.182-14.686
				c22.697-12.016,136.182-8.011,165.554-25.367C1180.24,990.654,1201.602,967.957,1229.64,943.925L1229.64,943.925z"/>
			<path fill="#323237" d="M1379.172,938.585c42.724-22.697,112.15-50.734,161.549-52.069c-10.681,5.341-24.032,6.676-28.037,10.681
				c-21.362,2.67-65.42,18.692-85.447,28.037l-38.718,17.356c-38.719,20.027-44.059,24.032-72.096,57.41
				c-17.356,18.692-21.362,22.697-42.724,34.713c-38.718,5.341-118.825,17.357-154.873,14.686
				c22.697-12.016,121.495-5.34,149.533-22.697C1316.422,998.665,1324.433,965.287,1379.172,938.585L1379.172,938.585z"/>
			<path fill="#FD9928" d="M1512.683,897.196c22.697,4.005,45.394,10.681,66.756,17.356c44.059,16.021,65.421,33.378,102.804,50.734
				c-5.34,2.67-352.47,37.383-367.156,36.048c28.037-33.378,33.378-36.048,72.096-57.41l38.718-17.356
				C1447.263,915.888,1491.322,899.867,1512.683,897.196L1512.683,897.196z"/>
			<path fill="#DB520F" d="M1512.683,897.196c22.697,4.005,45.394,10.681,66.756,17.356
				c-29.372,4.005-125.501,12.016-152.203,10.681C1447.263,915.888,1491.322,899.867,1512.683,897.196z"/>
			<path fill="#DB520F" d="M1683.578,965.287c34.713,13.351,74.766,10.681,104.139,18.692
				c-48.064,8.011-128.171,12.016-180.24,17.356c-76.101,9.346-153.538,17.357-229.639,24.032
				c-17.357,1.335-92.123,10.681-105.474,9.346c22.697-12.016,26.702-14.686,42.724-34.713
				C1331.108,1001.335,1678.238,966.622,1683.578,965.287z"/>
			<path fill="#2A191A" d="M1591.455,885.18c33.378,5.34,84.112,16.021,116.155,28.037c20.027,6.676,81.442,33.378,96.128,44.059
				c16.021,13.351,25.367,13.351,37.383,22.697c-20.027,2.67-34.713,2.67-53.405,2.67c-29.373-8.011-69.426-4.005-104.139-18.692
				c-37.383-16.021-60.08-33.378-102.804-50.734c-21.362-6.676-44.059-13.351-66.756-17.357c5.341-2.67,17.357-5.34,28.037-10.681
				C1558.077,886.515,1574.099,886.515,1591.455,885.18L1591.455,885.18z"/>
			<path fill="#454548" d="M1803.738,958.612c33.378-2.67,76.102-9.346,108.144-9.346c24.032,0,100.134,6.676,121.495,13.351
				c-18.692,5.341-174.9,20.027-192.256,18.692C1829.105,971.963,1819.76,971.963,1803.738,958.612L1803.738,958.612z"/>
			<path fill="#454548" d="M2568.758,1260.347c128.171-13.351,257.677-34.713,385.848-48.064
				c33.378-4.005,137.517-18.692,165.554-17.356c5.341,4.005,4.005,4.005,6.676,12.016l-42.724,5.34
				c1.335,21.362-1.335,29.373,21.362,32.043h17.356c0,13.351,1.335,22.697,0,36.048c-58.745,10.681-129.506,18.692-188.251,26.702
				l-365.821,49.399l-65.42,10.681l-120.16,16.021c-18.691,2.67-50.734,5.34-68.091,9.346c-14.686,1.335-30.708,4.005-45.394,5.34
				c-22.697,2.67-46.729,6.676-69.426,10.681c-10.681,0-32.043,2.67-44.059,4.005c-33.378,4.005-69.426,9.346-102.804,9.346v-38.718
				l9.346-1.335c1.335-13.351,4.005-29.373-6.676-40.053h-17.356c-1.335-2.67-4.005-8.011-5.34-12.016
				c10.681-4.005,101.469-13.351,120.16-16.021C2289.72,1295.06,2431.242,1280.374,2568.758,1260.347z"/>
			<path fill="#C0BCBA" d="M3105.474,1244.326h17.356c0,13.351,1.335,22.697,0,36.048c-58.745,10.681-129.506,18.692-188.251,26.702
				l-365.821,49.399l-65.42,10.681l-120.16,16.021c-18.691,2.67-50.734,5.34-68.091,9.346c-14.686,1.335-30.708,4.005-45.394,5.34
				c-22.697,2.67-46.729,6.676-69.426,10.681c-10.681,0-32.043,2.67-44.059,4.005c-33.378,4.005-69.426,9.346-102.804,9.346v-38.718
				l9.346-1.335c30.708-6.676,70.761-9.346,102.804-13.351l178.905-22.697l526.035-69.426
				C2947.931,1265.688,3026.702,1255.007,3105.474,1244.326z"/>
			<path fill="#C0BCBA" d="M2568.758,1260.347c128.171-13.351,257.677-34.713,385.848-48.064
				c33.378-4.005,137.517-18.692,165.554-17.356c5.341,4.005,4.005,4.005,6.676,12.016l-42.724,5.34
				c-236.315,29.373-473.965,58.745-710.281,90.788l-216.288,26.702c-24.032,2.67-81.442,12.016-104.139,12.016h-17.356
				c-1.335-2.67-4.005-8.011-5.34-12.016c10.681-4.005,101.469-13.351,120.16-16.021
				C2289.72,1295.06,2431.242,1280.374,2568.758,1260.347z"/>
			<path fill="#C0BCBA" d="M3448.598,2268.358c12.016-4.006,24.032-5.341,37.383-8.011c-1.335,4.005-2.67,14.686-6.676,16.021
				c-56.075,18.691-117.49,42.723-173.565,57.41c0,21.362,2.67,72.096-5.341,88.118c-13.351,12.016-117.49,42.724-140.187,50.734
				c-64.085,20.027-433.912,152.203-461.949,149.533c-52.069-6.676-38.718-22.697-40.053-69.426
				c-80.107,24.032-157.543,50.734-237.65,76.101c-29.372,9.346-61.415,22.697-90.788,25.367
				c-42.724,5.34-186.916-28.038-234.98-37.383l-401.869-78.772l-57.41-12.016l-112.149-28.037
				c-21.362-5.34-49.399-12.016-69.426-18.692c13.351,1.335,48.064,8.011,61.415,12.016l116.155,22.697l436.582,82.777
				l153.538,29.373c25.367,5.34,60.08,12.016,84.112,14.686c21.362,1.335,73.431-17.356,96.128-24.032
				c57.41-17.357,114.82-36.048,172.23-54.74l591.455-200.267C3257.677,2328.438,3352.47,2296.395,3448.598,2268.358
				L3448.598,2268.358z"/>
			<path fill="#9C9997" d="M2656.876,2551.402c14.686-2.67,24.032-8.011,37.383-13.351c0,22.697-1.335,62.75,2.67,84.112
				C2643.525,2614.152,2658.211,2598.131,2656.876,2551.402z"/>
			<path fill="#636A77" d="M3229.639,2357.81l38.718-13.351v60.08c-120.16,36.048-245.661,80.107-365.821,118.825l-106.809,36.048
				c-16.021,5.34-41.388,14.686-57.41,17.356v-32.042c0-6.676,0-10.681,0-17.357c5.34-6.676,230.975-81.442,259.012-90.788
				c6.676-1.335,13.351-5.34,21.362-6.675C3088.118,2405.875,3158.878,2380.507,3229.639,2357.81L3229.639,2357.81z"/>
			<path fill="#D0471D" d="M2997.33,2436.582c14.686,2.67,30.708,6.676,45.394,9.346c-69.426,22.697-138.852,45.394-206.943,69.426
				c-20.027,6.676-81.442,28.037-98.798,30.708c0-6.676,0-10.681,0-17.356C2743.658,2520.694,2969.292,2445.928,2997.33,2436.582
				L2997.33,2436.582z"/>
			<path fill="#EA5F27" d="M2997.33,2436.582c6.676-1.335,13.351-5.34,21.362-6.676c70.761-22.697,140.187-48.064,210.948-70.761
				v28.038c-53.405,12.016-106.809,34.713-160.214,50.734c-8.011,2.67-17.356,5.341-25.367,8.011
				C3028.037,2443.258,3012.016,2439.252,2997.33,2436.582z"/>
			<path fill="#FCBA14" d="M1668.892,2036.048c5.34,1.335,20.027,13.351,36.048,16.021v-12.016
				c12.016,2.67,38.718,8.011,49.399,8.011l2.67,1.335c-2.67,5.34-1.335,4.005,0,12.016c4.005,1.335,10.681,1.335,14.686,2.67
				c0,9.346,0,28.037,0,36.048v10.681c1.335,17.356,6.676,68.091,14.686,82.777c-1.335,8.011-4.005,13.351-2.67,20.027
				c4.005,4.005,4.005,4.005,8.011,5.34c1.335,6.676,2.67,14.686,5.34,18.692c-4.005,5.34-5.34,5.34-10.681,8.011l2.67,17.356
				c-32.043,8.011-349.8,94.793-359.146,93.458c-2.67-4.005-4.005-10.681-5.34-14.686c1.335-58.745-1.335-126.836,1.335-184.246
				v-14.686v-36.048c78.772-18.691,158.878-38.718,237.65-57.41C1668.892,2046.729,1667.557,2041.389,1668.892,2036.048z"/>
			<path fill="#868585" d="M1668.892,2036.048c5.34,1.335,20.027,13.351,36.048,16.021v-12.016
				c12.016,2.67,38.718,8.011,49.399,8.011l2.67,1.335c-2.67,5.34-1.335,4.005,0,12.016c4.005,1.335,10.681,1.335,14.686,2.67
				c0,9.346,0,28.037,0,36.048c-82.777-20.027-77.437-21.362-157.543,0c-41.389,10.681-82.777,20.027-124.166,30.708
				c-17.357,4.005-46.729,13.351-62.75,14.686v-36.048c78.772-18.691,158.878-38.718,237.65-57.41
				C1668.892,2046.729,1667.557,2041.389,1668.892,2036.048L1668.892,2036.048z"/>
			<path fill="#A06013" d="M1704.94,2040.053c12.016,2.67,38.718,8.011,49.399,8.011l2.67,1.335c-2.67,5.34-1.335,4.005,0,12.016
				c-17.357-2.67-34.713-6.676-52.069-9.346V2040.053z"/>
			<path fill="#636A77" d="M1424.566,2341.789c14.686-4.005,30.708-8.011,46.729-12.016
				c105.474-28.038,210.948-53.405,316.422-84.112l2.67,17.356c-32.043,8.011-349.8,94.793-359.146,93.458
				C1428.572,2352.47,1427.236,2347.13,1424.566,2341.789z"/>
			<path fill="#636A77" d="M1427.236,2144.192c16.021-1.335,45.394-10.681,62.75-14.686c41.389-9.346,82.777-20.027,124.166-30.708
				c81.442-21.362,74.766-18.691,157.543,0v10.681c-84.112-21.362-85.447-16.021-166.889,4.006l-178.905,44.059L1427.236,2144.192z"
				/>
			<path fill="#F57811" d="M427.236,1651.535c157.543,42.724,329.773,76.101,491.322,104.139
				c46.729,8.011,92.123,14.686,138.852,22.697c20.027,2.67,53.405,6.676,72.096,12.016v72.096
				c-16.021-1.335-50.734-5.34-64.085-4.005l-4.005-1.335c-17.357,16.021-40.053,2.67-29.372,45.394
				c-17.357-4.005-48.064-8.011-66.756-10.681c-37.383-5.341-73.431-12.016-110.814-18.692
				c-137.517-25.367-299.065-66.756-429.907-113.485c-1.335-14.686,0-37.383,0-52.069
				C425.901,1694.259,424.566,1659.546,427.236,1651.535L427.236,1651.535z"/>
			<path fill="#323237" d="M425.901,1706.275c142.857,50.734,288.384,89.453,437.917,117.49
				c42.724,8.011,86.782,14.686,129.506,21.362c13.351,1.335,57.41,8.011,68.091,10.681c-17.357,16.021-40.053,2.67-29.372,45.394
				c-17.357-4.005-48.064-8.01-66.756-10.681c-37.383-5.341-73.431-12.016-110.814-18.692
				c-137.517-25.367-299.065-66.756-429.907-113.485C424.566,1743.658,425.901,1720.961,425.901,1706.275L425.901,1706.275z"/>
			<path fill="#F57811" d="M1428.572,1540.721c8.011,0,18.692-2.67,26.702-4.005c62.75-10.681,124.166-22.697,186.916-32.043
				c0,69.426,0,138.852,0,209.613c0,13.351,1.335,86.782,0,94.793l-213.618,48.064v-38.718l1.335-129.506V1650.2
				C1429.907,1618.157,1428.572,1574.099,1428.572,1540.721z"/>
			<path fill="#FCBA14" d="M1427.236,1817.089c70.761-13.351,142.857-33.378,213.618-48.064c0,13.351,0,25.367,1.335,38.718
				l-213.618,48.064L1427.236,1817.089z"/>
			<path fill="#FCBA14" d="M1428.572,1650.2c70.761-14.686,142.857-29.373,212.283-45.394v38.718l-212.283,45.394L1428.572,1650.2z"
				/>
			<path fill="#C0BCBA" d="M1403.204,1535.38c1.335-2.67,2.67-2.67,5.34-4.005c4.005,6.675,12.016,8.01,20.027,10.681
				c0,33.378,1.335,77.437-1.335,109.479v38.718l-1.335,129.506v38.718c0,40.053,0,82.777-1.335,121.495v36.048v77.437v16.021
				v36.048v14.686c-2.67,57.41,0,125.501-1.335,184.246c1.335,5.34,4.005,10.681,5.341,14.686
				c-13.351-1.335-18.692,1.335-30.708,6.676c-12.016,0-20.027,2.67-30.708,8.011l4.005-822.43c4.005,0,8.011-1.335,12.016-2.67
				c6.675-1.335,13.351-2.67,17.356-8.011L1403.204,1535.38z"/>
			<path fill="#868585" d="M1400.534,1506.008c17.356-5.341,42.724-9.346,61.415-12.016l100.134-18.692l348.465-64.085
				c32.043-5.34,112.149-17.357,140.187-26.702v38.718c33.378,0,69.426-6.676,102.804-9.346c12.016-1.335,33.378-5.34,44.059-4.005
				c-41.389,9.346-122.83,21.362-165.554,29.372c-61.415,9.346-152.203,22.697-213.618,37.383
				c-22.697,4.005-45.394,8.011-68.091,13.351c-4.005,0-9.346,1.335-13.351,1.335c-9.346,1.335-21.362,4.005-30.708,5.34
				c-10.681,1.335-25.367,5.34-36.048,5.34l-8.011,2.67l-21.362,4.005c-62.75,9.346-124.166,21.362-186.916,32.043
				c-8.011,1.335-18.692,4.005-26.702,4.005c-8.011-2.67-16.021-2.67-20.027-10.681c2.67-8.011,2.67-10.681,0-17.356
				L1400.534,1506.008z"/>
			<path fill="#C0BCBA" d="M2030.708,1329.773c1.335,2.67,4.005,8.011,5.34,12.016c0,1.335-2.67,8.011-5.34,8.011
				c-44.059,8.011-88.118,16.021-133.511,24.032c-158.878,30.708-319.092,60.08-477.971,88.118c0-9.346-4.005-46.729,6.676-49.399
				C1485.981,1392.523,2014.686,1344.459,2030.708,1329.773z"/>
			<path fill="#9C9997" d="M1789.052,2263.017c6.676,12.016,13.351,17.356,22.697,28.037l-265.688,73.431
				c-32.043,9.346-106.809,32.043-136.182,36.048c0-13.351,1.335-16.021-6.675-28.038c0-1.335-1.335-8.011-2.67-9.346
				c12.016-5.34,17.357-8.011,30.708-6.676C1440.587,2357.81,1758.344,2271.028,1789.052,2263.017L1789.052,2263.017z"/>
			<path fill="#C0BCBA" d="M1061.415,1855.808l4.005,1.335c17.356,5.34,32.043,20.027,16.021,36.048l-4.005,1.335
				c-6.676-4.005-4.005-2.67-8.011-10.681l-2.67,1.335l-1.335,18.692v1.335c-12.016-1.335-21.362-2.67-33.378-4.005v-1.335
				C1021.362,1858.478,1044.059,1871.829,1061.415,1855.808L1061.415,1855.808z"/>
			<path fill="#454548" d="M1045.394,1870.494c12.016,6.676,12.016,17.356,5.34,26.702c-8.011-4.005-8.011-4.005-10.681-10.681
				C1040.053,1878.505,1041.389,1877.17,1045.394,1870.494z"/>
			<path fill="#323237" d="M3467.29,2222.964c8.011-2.67,9.346-4.006,16.021-1.335c6.676,10.681,4.005,22.697,4.005,36.048
				l-1.335,1.335c-13.351,2.67-24.032,5.34-37.383,8.011l-1.335-1.335c-2.67-6.676-2.67-17.356-4.005-20.027
				c-10.681-2.67-26.702,2.67-38.718,4.005C3425.901,2241.656,3447.263,2233.645,3467.29,2222.964z"/>
			<path fill="#C0BCBA" d="M1360.481,2404.539c0-1.335,0-2.67,0-4.005c-2.67-24.032,22.697-25.367,42.724-25.367
				c6.676,10.681,6.676,14.687,6.676,28.038l-26.702,13.351C1368.491,2415.22,1369.826,2415.22,1360.481,2404.539z"/>
			<path fill="#C0BCBA" d="M1408.545,1512.683c2.67,8.011,2.67,9.346,0,17.357c-4.005,1.335-4.005,1.335-5.34,4.005
				c-14.686,6.676-18.692,8.011-34.713,6.676C1372.497,1515.354,1385.848,1516.689,1408.545,1512.683z"/>
			<path fill="#9C9997" d="M1368.491,1542.056c-24.032-29.373,9.346-36.048,32.043-37.383l8.011,8.011
				C1385.848,1516.689,1372.497,1515.354,1368.491,1542.056z"/>
			<path fill="#323237" d="M1360.481,2404.539c8.011,12.016,8.011,10.681,21.362,10.681c1.335,0,4.005,2.67,4.005,2.67v4.005
				l-2.67,2.67c-12.016,4.005-18.692,4.005-25.367-6.676C1359.146,2411.215,1357.81,2409.88,1360.481,2404.539L1360.481,2404.539z"
				/>
			<path fill="#EA5F27" d="M1173.565,1787.717c-2.67-113.485,0-238.985,0-352.47V1292.39c0-25.367,0-52.069,2.67-77.437
				c9.346-82.777,104.139-77.437,168.224-84.112c50.734-5.34,102.804-10.681,153.538-16.021l400.534-42.724l391.188-41.389
				l116.155-12.016c21.362-2.67,46.729-5.341,69.426-6.676c73.431-1.335,65.42,84.112,65.42,134.846v106.809
				c-22.697-9.346-42.723-12.016-66.756-9.346c-81.442,6.676-162.884,20.027-244.326,30.708l-357.811,45.394l-356.475,41.389
				c-49.399,5.34-100.134,10.681-150.868,17.357c-8.011,1.335-20.027,8.011-26.702,12.016c-5.34,8.011-13.351,20.027-14.686,29.372
				c-2.67,36.048-1.335,76.101-1.335,112.15l1.335,226.969c-8.011,1.335-18.692,5.341-26.702,6.676
				C1264.353,1770.36,1206.943,1782.376,1173.565,1787.717L1173.565,1787.717z"/>
			<path fill="#DB520F" d="M1296.395,1766.355l-1.335-212.283c0-30.708,0-62.75,0-93.458c0-37.383,2.67-57.41,41.389-68.091
				c-5.34,8.011-13.351,20.027-14.686,29.372c-2.67,36.048-1.335,76.101-1.335,112.15l1.335,226.969
				C1315.087,1762.35,1303.071,1765.02,1296.395,1766.355L1296.395,1766.355z"/>
			<path fill="#EA5F27" d="M1295.06,1781.041l28.037-4.005l1.335,424.566c0,70.761-2.67,165.554,1.335,234.98l-29.372,6.676
				l-120.16,26.702c-1.335-88.118,0-181.575,0-269.693l-1.335-397.864C1214.953,1794.392,1255.007,1787.717,1295.06,1781.041
				L1295.06,1781.041z"/>
			<path fill="#DB520F" d="M1295.06,1781.041l28.037-4.005l1.335,424.566c0,70.761-2.67,165.554,1.335,234.98l-29.372,6.676
				c2.67-12.016,4.005-62.75-2.67-73.431l1.335-1.335c18.692-24.032,21.362-53.405-1.335-76.101l2.67-2.67
				c1.335-10.681,1.335-48.064,0-61.416c9.346-17.356,17.356-37.383,6.676-56.075c-2.67-8.01-5.34-12.016-10.681-17.356l1.335-4.005
				c4.005-10.681,2.67-33.378,2.67-44.059c-2.67-1.335-4.005-2.67-5.341-5.34c0-2.67,0-5.34,2.67-6.676
				c2.67-9.346,2.67-52.069-2.67-60.08c-2.67-9.346-1.335-14.686,0-24.032c0,0,1.335-2.67,2.67-2.67
				c1.335-12.016,2.67-45.394-4.005-54.74c24.032-26.702,22.697-54.74,4.005-82.777c0-13.351,0-30.708,1.335-42.724
				c-2.67-1.335-4.005-2.67-4.005-5.34s0-5.34,2.67-6.676C1296.395,1802.403,1296.395,1789.052,1295.06,1781.041L1295.06,1781.041z"
				/>
			<path fill="#573730" d="M1296.395,2089.453c2.67-2.67,8.011-4.005,10.681-1.335c2.67,2.67,4.005,6.676,2.67,10.681
				c-2.67,4.005-6.676,5.341-10.681,2.67c-2.67-1.335-4.005-2.67-5.341-5.34C1293.725,2094.793,1293.725,2092.123,1296.395,2089.453
				L1296.395,2089.453z"/>
			<path fill="#573730" d="M1296.395,1810.414c2.67-2.67,8.011-2.67,10.681,0c2.67,2.67,4.005,6.676,1.335,10.681
				c-2.67,4.005-6.676,5.34-9.346,2.67c-2.67-1.335-4.005-2.67-4.005-5.34C1292.39,1814.419,1293.725,1811.749,1296.395,1810.414z"
				/>
			<path fill="#FDC068" d="M1246.996,1855.808c21.362-4.005,29.373-4.005,46.729,8.011l1.335,1.335
				c18.692,29.373,20.027,57.41-4.005,82.777c-4.005,2.67-24.032,12.016-22.697,12.016
				C1198.932,1965.287,1197.597,1890.521,1246.996,1855.808L1246.996,1855.808z"/>
			<path fill="#454548" d="M1261.682,1863.818c60.08-4.005,61.415,65.421,10.681,89.453
				C1214.953,1958.611,1209.613,1886.515,1261.682,1863.818z"/>
			<path fill="#454548" d="M1221.629,2205.607c4.005-41.388,26.702-74.766,72.096-54.74c5.341,6.676,8.011,9.346,10.681,17.356
				c10.681,18.692,2.67,38.718-6.676,56.075c-8.011,8.011-13.351,10.681-22.697,17.356
				C1241.656,2244.326,1230.975,2236.315,1221.629,2205.607L1221.629,2205.607z"/>
			<path fill="#FDC068" d="M1221.629,2205.607c4.005-41.388,26.702-74.766,72.096-54.74c5.341,6.676,8.011,9.346,10.681,17.356
				c-38.718-44.059-84.112,0-72.096,48.064c30.708,53.405,81.442,6.676,72.096-48.064c10.681,18.692,2.67,38.718-6.676,56.075
				c-8.011,8.011-13.351,10.681-22.697,17.356C1241.656,2244.326,1230.975,2236.315,1221.629,2205.607L1221.629,2205.607z"/>
			<path fill="#FDC068" d="M1272.363,2283.044c9.346,2.67,12.016,2.67,21.362,6.676c21.362,24.032,20.027,52.069,1.335,76.101
				l-1.335,1.335c-16.021,10.681-18.692,10.681-38.718,12.016c-4.005-1.335-8.011-4.005-12.016-5.34
				c-9.346-6.676-16.021-16.021-18.692-28.037C1216.288,2313.752,1241.656,2291.055,1272.363,2283.044z"/>
			<path fill="#454548" d="M1263.017,2289.72c56.075-6.676,57.41,66.756,10.681,85.447
				C1222.964,2384.513,1214.953,2317.757,1263.017,2289.72z"/>
			<path fill="#323237" d="M1293.725,2029.372l-4.005,5.341c-5.34,2.67-44.059,10.681-50.734,10.681
				c-5.341-2.67-5.341-1.335-8.011-6.676c-14.686-30.708,48.064-40.053,64.086-33.378
				C1291.055,2014.686,1289.72,2021.362,1293.725,2029.372L1293.725,2029.372z"/>
			<path fill="#AC3E0C" d="M1255.007,2381.842c5.34,1.335,6.676,1.335,12.016,2.67l-1.335,2.67
				c-28.037,5.34-50.734-13.351-53.405-41.389c-1.335-18.691,4.005-36.048,16.021-50.734c18.692-21.362,45.394-26.702,68.091-8.011
				l-2.67,2.67c-9.346-4.005-12.016-4.005-21.362-6.676c-30.708,6.676-56.075,30.708-48.064,64.085
				c2.67,10.681,9.346,21.362,18.692,28.037C1246.996,2377.837,1251.001,2379.172,1255.007,2381.842z"/>
			<path fill="#DB520F" d="M1269.693,1961.282c-20.027,25.367-60.08-5.341-62.75-33.378c-2.67-25.367,0-48.064,22.697-65.421
				c5.34-4.005,13.351-8.01,18.692-6.675C1197.597,1890.521,1198.932,1965.287,1269.693,1961.282z"/>
			<path fill="#AC3E0C" d="M1212.283,2181.575c14.686-34.713,46.729-62.75,82.777-34.713l-1.335,4.005
				c-45.394-21.362-68.091,12.016-72.096,54.74c-4.005-1.335-2.67-13.351-4.005-17.356
				C1217.624,2188.251,1212.283,2182.911,1212.283,2181.575L1212.283,2181.575z"/>
			<path fill="#D0471D" d="M1273.698,2242.991l-1.335,4.005c-24.032,16.021-56.075-9.346-60.08-33.378
				c-2.67-12.016-1.335-17.356,0-30.708l5.341,6.676c1.335,4.005,0,16.021,4.005,17.356
				C1230.975,2236.315,1241.656,2244.326,1273.698,2242.991L1273.698,2242.991z"/>
			<path fill="#573730" d="M1280.374,2405.875c5.341,1.335,8.011,4.005,9.346,9.346c-1.335,6.676-4.005,8.011-9.346,12.016
				c-6.676-2.67-5.34-1.335-8.011-6.676C1273.698,2412.55,1276.369,2411.215,1280.374,2405.875L1280.374,2405.875z"/>
			<path fill="#573730" d="M1220.294,1821.095c4.005,0,8.011,4.005,8.011,8.011c0,4.005-4.005,8.011-8.011,8.011
				c-2.67,0-6.676-1.335-8.011-4.005c-1.335-2.67-1.335-6.676,0-9.346C1214.953,1822.43,1217.624,1821.095,1220.294,1821.095z"/>
			<path fill="#573730" d="M1236.315,2417.89c2.67-1.335,5.341-1.335,8.011,1.335c2.67,1.335,4.005,5.34,2.67,8.011
				c0,2.67-2.67,5.341-5.34,6.676c-4.005,1.335-9.346,0-10.681-5.34C1229.64,2424.566,1232.31,2419.226,1236.315,2417.89z"/>
			<path fill="#573730" d="M1257.677,1815.754c2.67-1.335,5.341,0,8.011,1.335c2.67,2.67,2.67,5.34,2.67,8.011
				c-1.335,2.67-2.67,5.34-5.34,5.34c-4.005,1.335-8.011-1.335-9.346-5.34C1251.001,1821.095,1253.672,1817.089,1257.677,1815.754
				L1257.677,1815.754z"/>
			<path fill="#573730" d="M1217.624,2104.139c2.67-1.335,6.676,0,8.011,1.335c2.67,2.67,2.67,5.34,2.67,8.011
				c-1.335,2.67-2.67,5.341-6.676,5.341c-4.005,1.335-8.011-1.335-9.346-5.341
				C1212.283,2110.814,1213.618,2106.809,1217.624,2104.139z"/>
			<path fill="#573730" d="M1256.342,2096.128c2.67-1.335,5.34-1.335,8.011,0c2.67,1.335,4.005,4.005,4.005,8.011
				c0,2.67-2.67,5.34-5.34,6.676c-4.005,1.335-9.346,0-10.681-4.005C1251.001,2104.139,1252.336,2098.798,1256.342,2096.128
				L1256.342,2096.128z"/>
			<path fill="#323237" d="M1376.502,1475.3l10.681-1.335c8.011,4.005,5.34,1.335,9.346,8.011c0,5.341,0,6.676-2.67,12.016
				c-6.676,1.335-10.681,4.005-16.021,1.335C1375.167,1489.987,1376.502,1481.976,1376.502,1475.3z"/>
			<path fill="#323237" d="M2305.741,2619.493c9.346,0,21.362-2.67,29.373,0l1.335,2.67l-2.67,5.34
				c-9.346,2.67-25.367,8.011-30.708-2.67L2305.741,2619.493z"/>
			<path fill="#323237" d="M3126.836,1206.943c10.681-1.335,10.681-2.67,17.357,1.335c4.005,6.676,2.67,21.362,1.335,29.373
				c-8.011,2.67-14.687,4.005-22.697,5.34h-17.356c-24.032-1.335-20.027-10.681-21.362-32.043L3126.836,1206.943z"/>
		</g>
	</g>
</g>
</svg>
