<?xml version="1.0" encoding="utf-8"?>
<!-- Generator: Adobe Illustrator 27.9.0, SVG Export Plug-In . SVG Version: 6.00 Build 0)  -->
<svg version="1.1" id="svg" xmlns="http://www.w3.org/2000/svg" xmlns:xlink="http://www.w3.org/1999/xlink" x="0px" y="0px"
	 viewBox="0 0 6118 3000" enable-background="new 0 0 6118 3000" xml:space="preserve">
<g>
	<g>
		<defs>
			<rect id="SVGID_1_" x="0" width="6117" height="3000"/>
		</defs>
		<clipPath id="SVGID_00000111160838318480076810000005724685471440567968_">
			<use xlink:href="#SVGID_1_"  overflow="visible"/>
		</clipPath>
		<g clip-path="url(#SVGID_00000111160838318480076810000005724685471440567968_)">
			<path fill="#A2CD2D" d="M1640,1237l5-1c3-4,3-7,4-12c7-7,18-8,26-3c4,8,2,13-1,22v2c2,5,1,5,4,10c2-2,4-3,6-5c3,20,0,38,4,56
				c-2,8-3,8-9,14c-12,4-28,19-42,26c-9-9-12-13-17-25c-2-5-2-6-3-11c-4-3-7-4-12-6c-7,4-14,7-18,13h-7c4-11,10-18,19-25
				c-4-2-9-4-13-6l2-3c13-14,21-5,30-22c8-2,9-6,12-13C1635,1241,1635,1241,1640,1237L1640,1237z"/>
			<path fill="#6CAB1E" d="M1589,1282c15,6,35-15,59-2l5,2c1,4,9,35,9,36c-14-1-18-6-36-2c-3,2-3,2-5,5c-2-5-2-6-3-11c-4-3-7-4-12-6
				c-7,4-14,7-18,13h-7c4-11,10-18,19-25c-4-2-9-4-13-6L1589,1282z"/>
			<path fill="#A2CD2D" d="M1600,1292c14-4,27-9,41-13c-1,10,0,19-5,27c-5,2-11,4-17,4c-4-3-7-4-12-6c-7,4-14,7-18,13h-7
				C1584,1306,1591,1299,1600,1292L1600,1292z"/>
			<path fill="#C7D62A" d="M1632,1248c9,5,15,7,25,5l5,3c1,9-3,15-8,22l-6,3c-24-13-44,8-59,2c13-14,21-5,30-22
				C1627,1258,1629,1254,1632,1248z"/>
			<polygon fill="#269A30" points="0,0 0,3000 1045,3000 6118,3000 6118,1318 6118,0 			"/>
			<path fill="#FEAA65" d="M917,991c40,63,130,116,197,150c10,5,19,11,30,13l12-8c51-42,60-75,67-138c22,25,36,68,60,87
				c46,35,108,52,163,69c20,6,48,12,66,23c14,9,49,45,56,59c3,7,14,37,19,41c4,2,9,4,13,6c-9,8-15,14-19,25h7c4-6,12-9,18-13
				c5,2,8,3,12,6c1,5,1,6,3,11c5,11,8,15,17,25c-11,8-20,13-32,20l-11,7c-24,16-36,27-57,47c8,10,21,16,31,26c5,5,11,15,15,19
				c8,19,11,37,9,58v13c-7,13-20,35-15,49c-7,7-16,6-25,6c-13-1-10,2-20,4c-10-3-35,7-55,7c-1,3-3,9-4,11c-9,11-17,22-24,35
				c-5,11-9,21-14,31c9,10,15,16,27,21c-3,7-4,8-9,14l-6,12c-6,6-8,8-16,13l-1,4c-1,28,22,139,29,173l57,310c10,52,23,109,30,160
				c3,10,4,20,6,30c10,54,17,109,29,162l4,3c-9,2-14,3-23,4c-25,0-47,6-72,9l-3,3c-9,9-16,10-28,13l-11-2c-10-4-31-9-43-13
				c-18,3-12,6-34,7c-17,3-42,2-55,4c-5,0-3,0-8-1c-9-14-18-74-18-91l-8-14c-40-37-61-75-97-112c-9-9-57-33-71-40
				c-42-22-85-45-127-68c-67-37-131-74-192-122c-19-15-38-30-57-44l-5-4c-6-5-12-9-20-13c-26-19-50-37-61-69c-4-10-10-28-15-37
				c-21-116-38-255-52-373c-14-83-22-167-35-250c-3-17-5-36-6-54c0-3,0-6,0-9c1-30,22-60,43-80c40-37,144-80,197-106
				c26-13,66-28,86-49C891,1053,897,1014,917,991L917,991z"/>
			<path fill="#15B928" d="M917,991c40,63,130,116,197,150c10,5,19,11,30,13l12-8c51-42,60-75,67-138c22,25,36,68,60,87
				c46,35,108,52,163,69c20,6,48,12,66,23c14,9,49,45,56,59c3,7,14,37,19,41c4,2,9,4,13,6c-9,8-15,14-19,25h7c4-6,12-9,18-13
				c5,2,8,3,12,6c1,5,1,6,3,11c5,11,8,15,17,25c-11,8-20,13-32,20l-11,7c-24,16-36,27-57,47c8,10,21,16,31,26c5,5,11,15,15,19
				c8,19,11,37,9,58v13c-7,13-20,35-15,49c-7,7-16,6-25,6c-13-1-10,2-20,4c-10-3-35,7-55,7c-1,3-3,9-4,11c-9,11-17,22-24,35
				c-5,11-9,21-14,31c9,10,15,16,27,21c-3,7-4,8-9,14l-6,12c-6,6-8,8-16,13c-11,6-16,8-28,8c-15,5-31,8-46,10c-7,3-8,3-15,4l-11-5
				l-7-1c0,2,1,6-1,6c-32,14-152,49-174,68c-20-42-66-125-89-164c0,5,4,16,1,18c-16,12-108,61-123,63c-7-13-23-83-29-104
				c-28-84-62-181-107-257l-8-1c18,39,37,78,47,120c6,24,16,54,17,78c-87-20-167-3-248,31c-7,3-16,7-23,9c-14-83-22-167-35-250
				c-3-17-5-36-6-54c0-3,0-6,0-9c1-30,22-60,43-80c40-37,144-80,197-106c26-13,66-28,86-49C891,1053,897,1014,917,991L917,991z"/>
			<path fill="#B77A35" d="M972,1500c14-6,37-13,52-19c64-26,132-47,195-74c7,15,37,72,47,84c15-8,24-11,40-15c13-1,26-2,39,1
				c15,8,34,17,49,25c0,4,0,6,1,10c6,5,6,10,8,18v3c15,35,34,60,74,69c-1,3-3,9-4,11c-9,11-17,22-24,35c-5,11-9,21-14,31
				c9,10,15,16,27,21c-3,7-4,8-9,14l-6,12c-6,6-8,8-16,13c-11,6-16,8-28,8c-15,5-31,8-46,10c-7,3-8,3-15,4l-11-5l-7-1c0,2,1,6-1,6
				c-32,14-152,49-174,68c-20-42-66-125-89-164c-3-9-28-51-33-61C1007,1568,989,1536,972,1500L972,1500z"/>
			<path fill="#A01721" d="M1307,1476c13-1,26-2,39,1c15,8,34,17,49,25c0,4,0,6,1,10c6,5,6,10,8,18v3c15,35,34,60,74,69
				c-1,3-3,9-4,11c-9,11-17,22-24,35c-13,1-43,2-55,6l-8-2l-5-6c-7-4-21-15-28-20c-5-5-11-10-16-14c-9-8-12-12-18-21v-3
				c-3-6-7-18-10-25l-7-9c-1-4-11-20-14-24l-23-38C1281,1483,1291,1479,1307,1476z"/>
			<path fill="#F5EE51" d="M1307,1476c13-1,26-2,39,1c15,8,34,17,49,25c0,4,0,6,1,10c-31,17-58,27-85,50l-7-9c-1-4-11-20-14-24
				l-23-38C1281,1483,1291,1479,1307,1476L1307,1476z"/>
			<path fill="#F2F897" d="M1307,1476c27,1,30,18,9,33c-9,7-18,13-27,19l-23-38C1281,1483,1291,1479,1307,1476z"/>
			<path fill="#E86124" d="M1396,1512c6,5,6,10,8,18v3c-8,1-7,2-15,8c-11,8-64,42-69,46c-3-6-7-18-10-25
				C1338,1538,1365,1528,1396,1512L1396,1512z"/>
			<path fill="#F04619" d="M1320,1587c4-5,58-39,69-46c-6,11-12,14-23,21c12,11,14,21,22,35c-14,16-30,16-50,15c-9-8-12-12-18-21
				L1320,1587z"/>
			<path fill="#D13E1E" d="M1388,1596c12,17,17,40-6,49c-7-4-21-15-28-20c-5-5-11-10-16-14C1358,1612,1375,1612,1388,1596L1388,1596
				z"/>
			<path fill="#6CAB1E" d="M1395,1654c11-4,41-5,55-6c-5,11-9,21-14,31c9,10,15,16,27,21c-3,7-4,8-9,14l-6,12c-6,6-8,8-16,13
				c-11,6-16,8-28,8c-15,5-31,8-46,10l-1-3c10-24,3-63,22-86l-5-1l2-2c11-3-1,3,12,5l4-3l4-9L1395,1654z"/>
			<path fill="#A4D633" d="M1404,1747c-9-1-20-2-26-10c-6-8-11-20,0-26c11,1,13,12,27,16c15,0,17,7,30-5c8-6,8-6,18-8l-6,12
				c-6,6-8,8-16,13C1422,1744,1417,1746,1404,1747z"/>
			<path fill="#74C428" d="M1395,1654c11-4,41-5,55-6c-5,11-9,21-14,31c-9,0-5,2-14,6l-7-1c-12-8-21-13-20-28L1395,1654z"/>
			<path fill="#15B928" d="M1422,1685c9-4,5-6,14-6c9,10,15,16,27,21c-3,7-4,8-9,14c-10,2-10,2-18,8l-5-1c0-11,2-24-4-34l-5-1V1685z
				"/>
			<path fill="#A4D633" d="M1422,1687l5,1c6,9,4,22,4,34c-12,6-24-1-23-15C1409,1696,1415,1693,1422,1687z"/>
			<path fill="#74BF30" d="M1373,1666l5,1c-19,23-12,63-22,86l1,3c-7,3-8,3-15,4l-11-5l-7-1l-1-2c7-9,7-13,7-25v-2l9,1
				C1342,1703,1357,1683,1373,1666z"/>
			<path fill="#6CAB1E" d="M1329,1726l9,1c0,11,1,20-7,28l-7-1l-1-2c7-9,7-13,7-25L1329,1726z"/>
			<path fill="#15B928" d="M1355,1626c7,5,21,16,28,20l5,6l8,2l-1,3l-4,9l-4,3c-13-1-1-8-12-5l-2,2c-17,17-31,38-36,62l-9-1
				c1-15,16-58,26-68l-4-7C1356,1639,1349,1637,1355,1626L1355,1626z"/>
			<path fill="#05653A" d="M1355,1626c7,5,21,16,28,20l5,6c-8,0-17-2-24,2c-4,6-3,3-4,10l-5-5l-4-7C1356,1639,1349,1637,1355,1626z"
				/>
			<path fill="#028335" d="M1360,1663c1-7-1-4,4-10c7-4,16-2,24-2l8,2l-1,3l-4,9c-4-4-3-5-9-7c-9,1-11,5-19,8L1360,1663z"/>
			<path fill="#A2CD2D" d="M1322,1752c-11,0-16,1-24-7c-1-16,19-18,31-18C1330,1739,1329,1743,1322,1752z"/>
			<path fill="#4A1D07" d="M1317,1591l3-1c7,9,10,13,18,21c5,5,11,10,16,14c-5,11,1,14-3,25C1340,1632,1329,1610,1317,1591
				L1317,1591z"/>
			<path fill="#AB6F30" d="M1303,1553l7,9c3,7,6,19,10,25v3l-3,1c-4-3-11-15-13-20C1300,1560,1300,1561,1303,1553L1303,1553z"/>
			<path fill="#A4D633" d="M1477,1413c21-3,41-4,61,7c8,10,21,16,31,26c5,5,11,15,15,19c8,19,11,37,9,58v13c-7,13-20,35-15,49
				c-7,7-16,6-25,6c-13-1-10,2-20,4c-10-3-35,7-55,7c-40-9-59-34-74-69v-3c-2-8-3-13-8-18c-1-4-1-6-1-10c8-3,11-27,18-39
				c13-23,31-39,57-47L1477,1413z"/>
			
				<linearGradient id="SVGID_00000098899052604439719430000000446750998634086589_" gradientUnits="userSpaceOnUse" x1="1492.6498" y1="2375.7439" x2="1500.1" y2="2293.2939" gradientTransform="matrix(1 0 0 1 0 -778)">
				<stop  offset="0" style="stop-color:#63BB1D"/>
				<stop  offset="1" style="stop-color:#A6E72C"/>
			</linearGradient>
			<path fill="url(#SVGID_00000098899052604439719430000000446750998634086589_)" d="M1430,1514c35,22,52-9,72-12l7,10
				c10,14,30,23,46,28c29,9,25,7,38-17v13c-7,13-20,35-15,49c-7,7-16,6-25,6c-13-1-10,2-20,4c-10-3-35,7-55,7c-40-9-59-34-74-69v-3
				C1407,1514,1417,1512,1430,1514z"/>
			<path fill="#F5EE51" d="M1413,1463c13-23,31-39,57-47c-5,11-16,8-23,17c3,4,3,4,8,6c0,3-1,4,0,7c2,22,3,28,21,43l2,1
				c-21-5-12-16-29-10c-13,5-16-1-26-9c-9,10,5,29,6,39l2,4c-14-2-23,0-26,16c-2-8-3-13-8-18c-1-4-1-6-1-10
				C1403,1499,1405,1475,1413,1463L1413,1463z"/>
			<path fill="#C7D62A" d="M1394,1502c8-3,11-27,18-39c7,20,2,27,15,46l2,4c-14-2-23,0-26,16c-2-8-3-13-8-18
				C1395,1508,1395,1506,1394,1502L1394,1502z"/>
			<path fill="#74C428" d="M1455,1446c26-6,64,22,21,43C1458,1474,1458,1469,1455,1446z"/>
			
				<linearGradient id="SVGID_00000176728622396888274130000004682052420729117850_" gradientUnits="userSpaceOnUse" x1="1559.4349" y1="2185.7161" x2="1545.6801" y2="2102.5278" gradientTransform="matrix(1 0 0 1 0 -778)">
				<stop  offset="0" style="stop-color:#B31336"/>
				<stop  offset="1" style="stop-color:#DA2A46"/>
			</linearGradient>
			<path fill="url(#SVGID_00000176728622396888274130000004682052420729117850_)" d="M1606,1304c5,2,8,3,12,6c1,5,1,6,3,11
				c5,11,8,15,17,25c-11,8-20,13-32,20l-11,7c-24,16-36,27-57,47c-20-10-40-10-61-7c-6-5-11-32-12-40l3-3l3-3c2-8,2-10,2-18l5-6l3-3
				l12-7c11-4,17-5,28-7c15-3,49,0,60-8h7C1592,1311,1599,1308,1606,1304L1606,1304z"/>
			<path fill="#EA2D3D" d="M1588,1317c4-6,12-9,18-13c3,4,3,5,6,7c4,8,6,10,3,19h-5l-1,1c-11,13-17,33-32,35c-7-3-4-1-8-8l-2-9
				c-1-7-3-9,0-15c5-5,7-4,14-5c3-2,4-3,7-6V1317z"/>
			<path fill="#ED3959" d="M1570,1359l-2-9c-1-7-3-9,0-15c5-5,7-4,14-5C1593,1345,1586,1362,1570,1359L1570,1359z"/>
			<path fill="#F04619" d="M1610,1331c-7-1-11-2-12-9c4-7,6-7,14-10c4,8,6,10,3,19H1610z"/>
			<path fill="#C72237" d="M1606,1304c5,2,8,3,12,6c1,5,1,6,3,11c5,11,8,15,17,25c-11,8-20,13-32,20c-3-1-1,0-4-2c0-13,7-22,13-33
				c3-10,1-11-3-19C1609,1309,1609,1308,1606,1304z"/>
			<path fill="#F2394C" d="M1477,1343l3-3c8,4,10,3,19,2c5,4,4,1,5,9c-2,7-1,6-7,11c-7,1-4,2-11-1C1481,1353,1481,1351,1477,1343
				L1477,1343z"/>
			<path fill="#ED3959" d="M1522,1342c11,0,13-1,19,8c1,8-1,12-3,21C1524,1371,1524,1353,1522,1342z"/>
			<path fill="#C72237" d="M1452,1354c6,6,10,10,16,15l-3,3c1,8,6,36,12,40l-8,4c-25,8-44,24-57,47c-7,12-10,36-18,39
				c-15-8-34-18-49-25c0-13-5-21-2-36v-6c8-11,13-14,25-19c9-2,21-4,30-6c2-9,4-21,5-31C1415,1358,1431,1357,1452,1354L1452,1354z"
				/>
			<path fill="#EA2D3D" d="M1369,1415c17,0,15-2,23,14l3,5c-4,7-3,7-9,10c-13-6-16-4-29,0c-7-2-8-5-12-10
				C1352,1424,1357,1421,1369,1415L1369,1415z"/>
			<path fill="#269A30" d="M1086,1188c-27,8-52,32-78,34c-13,1-50-23-59-33c-15-16-84-77-84-97c7-2,23,21,29,27c32,31,76,79,120,87
				c28,5,76-38,96-55c8,7,7,10,8,21l3,27C1108,1192,1101,1191,1086,1188L1086,1188z"/>
			<path fill="#269A30" d="M1156,1145c18,21,51,41,79,42v4l5,3c-1,0-3,0-4,1c-21,2-69,1-86-14c-5-4-4-11-5-18l-1-9L1156,1145z"/>
			<path fill="#74C428" d="M1392,1297c7,5,11,8,17,14c12,11,34,30,43,43c-21,3-37,4-47,24c0-6-1-7,0-13c5-5,7-6,9-12
				c-5-10-14-15-21-24c2-2,1-1,3-4l-4-6c2-1,3-2,5-3C1397,1309,1394,1304,1392,1297z"/>
			<path fill="#F5BC68" d="M1416,1299c18,8,35,17,49,32c5,8,5,9,7,18c1,8,0,10-2,18l-3,3c-7-6-10-9-16-15c-9-13-31-32-43-43
				C1411,1306,1413,1303,1416,1299L1416,1299z"/>
			<path fill="#269A30" d="M1235,1187c32-7,43-36,46-66h2c19,31-3,72-43,73l-5-3V1187z"/>
			<path fill="#74C428" d="M1465,1331c3-1,7-2,8-5c2-16-28-74-25-86c18,13,26,88,45,93l-12,7l-3,3l-5,6
				C1470,1340,1470,1339,1465,1331L1465,1331z"/>
			<path fill="#269A30" d="M794,1383c-12-18-21-37-33-55c-12-17-27-36-37-54c14,10,69,92,78,110L794,1383z"/>
			<path fill="#A2CD2D" d="M1316,1289c32,5,47,12,75,30l4,6c-2,4,0,3-3,4C1367,1314,1341,1304,1316,1289L1316,1289z"/>
			<path fill="#A4D633" d="M1392,1297c-7-5-24-14-28-19c10-1,42,16,53,21c-3,4-5,7-7,12C1403,1305,1398,1302,1392,1297L1392,1297z"
				/>
			<path fill="#15B928" d="M1114,1140c10,5,19,11,30,13l1,9c-10-9-24-6-25,10c-1-11-1-14-8-21l-1-2L1114,1140z"/>
			<path fill="#74C428" d="M1312,1315c14,0,74,33,82,44c-17-2-59-28-77-37C1315,1322,1313,1317,1312,1315L1312,1315z"/>
			<path fill="#B77A35" d="M1433,1738l-1,4c-1,28,22,139,29,173l57,310c10,52,23,109,30,160c-9,14,16,26-10,54c-15,4-13,9-36,10
				c-17,1-38-12-50-5c2-1-8,5-7,5c-19-5-34-34-47-46l-1-3l4-3c28,7,107,39,120,31c62-41-110-93-124-100l-2-1c-48-20-46-52-30-98
				c9-26,25-35,30-67v-3c0-19-1-39-14-54c-3-1-7-3-10-1c-16,12-24,38-37,54c-20,25-46,31-71,49c-8,6-27,26-32,27l-1-1c0-1,1-2,1-3
				c1-7-73-377-81-401l-1-3c21-18,142-54,174-68c2-1,1-4,1-6l7,1l11,5c7-1,9-1,15-4c16-2,31-6,46-10C1417,1746,1422,1744,1433,1738
				L1433,1738z"/>
			<path fill="#975C25" d="M1398,2125c22,54,6,79-18,126c1,27,8,46,17,71c1,2-1,5-2,6c-48-20-46-52-30-98c9-26,25-35,30-67v-3
				C1399,2153,1397,2134,1398,2125z"/>
			<path fill="#975C25" d="M1324,1754l7,1l11,5c-6,11-166,55-192,70l-1-3c21-18,142-54,174-68C1324,1759,1324,1756,1324,1754z"/>
			<path fill="#028335" d="M794,1383l8,1c45,77,79,174,107,257c7,20,22,90,29,104c15-2,107-51,123-63c3-2-1-13-1-18
				c24,39,70,122,89,164l1,3c7,25,81,395,81,401c0,1-1,2-1,3c-18-10-43-32-60-46c-76-63-142-137-212-206c-15-15-59-59-76-70
				c-2-15-2-30-2-45c0-77-4-154-14-230c-2-15-5-42-9-56c-1-24-11-55-17-78C830,1461,812,1422,794,1383z"/>
			<path fill="#AB6F30" d="M1537,2441c26-28,1-41,10-54c3,10,4,20,6,30c10,54,17,109,29,162l4,3c-9,2-14,3-23,4c-25,0-47,6-72,9
				l-3,3c-1-5-2-5-6-9l-4-4c20-1,61,0,70-18c-11,2-15,3-24-2c23-42-86-110-116-139l-2-2c-1-6-6-14-9-20c13,12,29,42,47,46
				c-1,0,9-6,7-5c11-7,33,6,50,5C1524,2450,1522,2444,1537,2441z"/>
			<path fill="#975C25" d="M1397,2403c13,12,29,42,47,46c-1,0,9-6,7-5c11-7,33,6,50,5c23-1,21-6,36-10c-16,23-68,8-91,3l2,3
				c31,36,103,71,100,121c-11,2-15,3-24-2c23-42-86-110-116-139l-2-2C1405,2417,1400,2409,1397,2403L1397,2403z"/>
			<path fill="#E68271" d="M1283,2503c9-2,12-5,18,0c21,16,36,39,54,58c14,14,40,25,51,36c-18,3-12,6-34,7c-17,3-42,2-55,4
				c-5,0-3,0-8-1c-9-14-18-74-18-91L1283,2503z"/>
			<path fill="#975C25" d="M1291,2516c20,30,46,74,81,87c-17,3-42,2-55,4c-5,0-3,0-8-1C1300,2593,1291,2533,1291,2516L1291,2516z"/>
			<path fill="#AA502D" d="M1388,2507l5-6c19,13,99,73,116,72c6,0,11-6,16-9c9,6,13,4,24,2c-10,19-51,17-70,18c-10-4-19-11-28-18
				c-6-6-14-10-20-16C1414,2538,1402,2523,1388,2507z"/>
			<path fill="#E68557" d="M799,1845c25,5,55,16,82,22c0,15-1,31,2,45C868,1906,815,1859,799,1845z"/>
			<path fill="#E68271" d="M1355,2488c15-1,22,11,34,19c14,15,26,31,42,44c7,6,14,10,20,16l2,8c-4,2-13-3-20-4
				C1406,2552,1370,2516,1355,2488L1355,2488z"/>
			<path fill="#D13E1E" d="M1317,2447c16,8,65,42,76,55l-5,6c-12-8-18-21-34-19C1343,2473,1330,2460,1317,2447z"/>
			<path fill="#E68557" d="M1342,2378c19,6,39,12,58,19l-4,3l1,3c3,6,7,14,9,20C1391,2415,1357,2389,1342,2378L1342,2378z"/>
			<path fill="#E68557" d="M1451,2567c9,6,18,14,28,18l4,4c-5,2-7,2-11,4c-9,0-30-16-39-22c7,1,16,5,20,4L1451,2567z"/>
			<path fill="#A4D633" d="M545,1318c-2-26-8-61-12-88l-22-161l-69-531l-20-154c-4-27-12-69-11-95c6-107,86-106,161-104l102,4
				l390,19l221,11c53,3,125-4,168,30c24,19,45,41,52,72c8,35,13,71,20,106l56,288l62,312c13,63,29,134,37,197c8-2,27-9,33-3
				c-3,6-5,6-11,11l-4,1v1l3-8l-1-2c-15,1-18,13-15,25c-2,2-4,3-6,5c-3-5-2-4-4-10v-2c3-9,5-14,1-22c-8-5-20-5-26,3c-1,5-1,8-4,12
				l-5,1c-6,4-5,5-8,11s-5,10-12,13c-10,18-17,9-30,22l-2,3c-5-4-16-34-19-41c-7-14-41-50-56-59c-18-11-45-17-66-23
				c-55-17-117-33-163-69c-25-19-38-61-60-87c-7,63-16,96-67,138l-12,8c-11-2-20-8-30-13c-67-33-157-86-197-150c-20,23-27,63-47,84
				s-60,36-86,49c-52,26-156,69-197,106c-21,20-42,51-43,80C545,1312,545,1315,545,1318L545,1318z"/>
			<path fill="#FEAA65" d="M1020,526c55-23,116-32,176-13c30,10,49,42,61,70c1,4,3,7,4,11c3,9,9,36,12,40c1,16,0,31,0,47
				c1,21,4,42,5,63c5,86-13,138-58,209l-1,11c0,11,0,34,5,43c-7,63-16,96-67,138l-12,8c-11-2-20-8-30-13c-67-33-157-86-197-150
				c12-21,4-136,2-164c-39,6-37,3-63-29c-24-30-51-76-31-116c5-10,17-11,27-13l9,4c13-15,36-76,64-67c32-2,56-47,75-68
				C1006,535,1014,529,1020,526L1020,526z"/>
			<path fill="#E68557" d="M1218,964c-13,15-23,41-43,50c-70,34-144-19-191-68c-12-13-58-59-53-78c5,2,9,10,13,15
				c51,58,147,100,225,88c18-3,34-13,50-17L1218,964z"/>
			<path fill="#E68557" d="M1020,526c55-23,116-32,176-13c30,10,49,42,61,70c1,4,3,7,4,11c-18-8-30-25-45-38c-37-31-92-36-137-20
				c-58,18-105,91-162,96c2-12,2-17,11-25c32-2,56-47,75-68C1006,535,1014,529,1020,526L1020,526z"/>
			<path fill="#271A11" d="M862,673c13-15,36-76,64-67c-8,8-9,13-11,25c-4,28-6,55-7,83C893,699,880,686,862,673z"/>
			<path fill="#AA502D" d="M1218,812l3,1c-4,11-25,26-36,30c-39,12-76,4-112-14c-6-4-7-5-11-11c0-1,1-2,1-3c16,3,31,7,47,10
				c27,5,54,5,81-2C1200,821,1209,816,1218,812z"/>
			<path fill="#4A1D07" d="M1024,600c5-1,10-1,15-1c16,0,37-2,49,10c3,6,3,6,1,12c-7,6-41,2-54,2c-29,2-36,5-62,18l1-2l2-3
				C988,613,998,605,1024,600z"/>
			<path fill="#4A1D07" d="M1206,594c18,0,52,2,56,25c-4,1-17-4-25-5c-18,0-49,12-62,2C1171,600,1195,596,1206,594L1206,594z"/>
			<path fill="#271A11" d="M1042,652c26,10,29,40,3,53C1017,696,1017,668,1042,652z"/>
			<path fill="#E68557" d="M1152,663h2c4,9,8,24,11,34c9,32,46,71,0,89c-18-2-31-3-49-9l-6-6v-2c39-2,91,31,58-47
				C1161,702,1155,684,1152,663z"/>
			<path fill="#271A11" d="M1199,649c28,5,27,32,9,49C1181,687,1180,668,1199,649z"/>
			<path fill="#E86124" d="M847,702c20,2,39,21,37,42c-2,20-2,17,8,33h-4c-30-24,17-59-44-65h-3l-1-3L847,702z"/>
			<path fill="#E68557" d="M1128,877c10-2,35-3,42,2C1162,879,1133,882,1128,877z"/>
			<path fill="#FAFBF9" d="M588,1229c-4-9-9-53-11-65l-21-162l-31-242c-5-39-11-79-14-117c-2-31,21-48,49-50c37-2,74-1,110,0
				c58,0,117,2,175,3c1,18,3,57,7,74c-10,2-22,4-27,13c-21,39,6,86,31,116c26,32,24,35,63,29c2,28,11,143-2,164c-20,23-27,63-47,84
				c-20,21-60,36-86,49C733,1149,628,1192,588,1229z"/>
			<path fill="#FAFBF9" d="M1273,605c36,2,71,3,107,3c52,0,135-13,150,54c10,43,18,88,27,132l48,245c7,35,13,69,20,104
				c5,26,15,69,16,94c-6,4-5,5-8,11c-3,6-5,10-12,13c-10,18-17,9-30,22l-2,3c-5-4-16-34-19-41c-7-14-41-50-56-59c-18-11-45-17-66-23
				c-55-17-117-33-163-69c-25-19-38-61-60-87c-5-9-5-32-5-43l1-11c45-71,63-122,58-209c-1-21-4-42-5-63c-1-15,0-31,0-47L1273,605z"
				/>
			<path fill="#271A11" d="M1568,1244c16,0,38-4,48,4c2,5,2,6,4,12c-10,18-17,9-30,22l-2,3C1582,1282,1571,1252,1568,1244L1568,1244
				z"/>
			
				<linearGradient id="SVGID_00000045581524132766145890000011479507817264216453_" gradientUnits="userSpaceOnUse" x1="1011.5726" y1="1139.7993" x2="1088.3297" y2="1362.9043" gradientTransform="matrix(1 0 0 1 0 -778)">
				<stop  offset="0" style="stop-color:#17AF39"/>
				<stop  offset="1" style="stop-color:#079242"/>
			</linearGradient>
			<path fill="url(#SVGID_00000045581524132766145890000011479507817264216453_)" d="M928,399c19-6,39-21,57-29c68-31,158-35,199,40
				c17,6,33,5,50,10c36,15,75,35,92,73c1,3,2,6,3,9c7,18,10,38,3,56c-17,21-33,31-58,41c-2,1-3,5-4,7l-1,29c-3-4-9-31-12-40
				c-1-4-2-7-4-11c-11-28-30-61-61-70c-60-19-120-10-176,13c-6,4-14,9-19,14c-20,21-44,66-75,68c-28-9-50,51-64,67l-9-4
				c-4-17-6-56-7-74c-1-14-1-38,1-52C848,480,872,431,928,399z"/>
			<path fill="#05653A" d="M1020,526c-1-2-2-5,0-7c28-35,67-71,110-84c58-18,124-8,168,34c11,10,21,28,33,33c7,18,10,38,3,56
				c-17,21-33,31-58,41c-2,1-3,5-4,7l-1,29c-3-4-9-31-12-40c-1-4-2-7-4-11c-11-28-30-61-61-70C1136,494,1075,503,1020,526L1020,526z
				"/>
			<path fill="#FAFBF9" d="M847,544C847,544,846,544,847,544c-8,4-239-1-264-3c-12-1-25-3-36-7c-25-9-45-27-56-51c-8-18-12-42-4-61
				c6-14,19-29,33-34c12-4,30-5,43-5c36,0,349,8,366,14C872,431,848,480,847,544z"/>
			<path fill="#FAFBF9" d="M1244,409c58,1,134-2,191,8c44,7,87,96,46,130c-18,15-41,16-64,14c-18-2-67,3-83-3c7-18,4-39-3-56
				c-1-3-2-6-3-9c-17-38-56-58-92-73c-4-3-5-3-7-7C1233,408,1237,409,1244,409z"/>
			<path fill="#F6FED8" d="M1185,409c7-6,48-2,59,0c-7,1-11,0-16,3c2,5,3,4,7,7C1218,414,1202,415,1185,409z"/>
			<path fill="#FAFBF9" d="M1400,267c25-1,47,13,56,36c13,32,4,50-25,62C1389,364,1342,294,1400,267L1400,267z"/>
			<path fill="#A2CD2D" d="M1413,317c2-4,1-2,6-5c9,7,13,10,20,19c-15,6-17,7-32,2l-4-4C1405,322,1407,321,1413,317z"/>
			<path fill="#A4D633" d="M1413,317c-3-8-9-9-11-18c6-7,14-7,21-2v4c-3,4-4,5-5,11C1414,314,1415,313,1413,317L1413,317z"/>
			<path fill="#F6FED8" d="M475,315c14-1,89,0,105,7c2,1,2,5,2,9c-22,0-81,3-102-5C477,325,476,319,475,315L475,315z"/>
			<path fill="#FAFBF9" d="M467,288c28-1,77,1,106,5c5,1,6,5,7,9c-17,2-89,1-105-2C468,296,470,296,467,288z"/>
			<path fill="#FAFBF9" d="M463,260c19,0,54-1,71,4c5,2,5,4,6,8c-12,2-64,5-74-3C464,268,464,263,463,260z"/>
			<path fill="#FAFBF9" d="M374,169c22-18,48-39,77-42c43-4,95,1,138,3c82,4,165,9,247,14l384,20c54,3,107,6,161,9
				c69,4,137,65,156,130c9,29,14,65,19,95l28,144l89,454c18,90,35,189,57,277l2,20c-19,2-27,12-44,14c-3-18,0-36-4-56
				c-3-13,0-24,15-25l1,2l-3,8v-1l4-1c5-4,7-5,11-11c-6-6-25,1-33,3c-9-63-25-134-37-197l-62-312l-56-288c-7-35-12-71-20-106
				c-7-31-29-53-52-72c-43-34-115-28-168-30l-221-11l-390-19l-102-4c-75-3-155-4-161,104c-2,26,7,68,11,95l20,154l69,531l22,161
				c4,27,10,61,12,88c1,18,3,37,6,54c13,83,22,167,35,250c14,117,31,256,52,373c5,9,12,27,15,37c11,31,35,50,61,69c7,4,13,7,20,13
				l5,4c19,14,38,29,57,44c61,47,125,84,192,122c42,23,84,46,127,68c14,7,62,31,71,40c36,37,56,75,97,112l8,14c0,17,9,77,18,91
				c5,1,3,1,8,1c13-3,38-2,55-4c22-1,16-4,34-7c11,3,32,9,43,13l11,2c12-3,19-5,28-13l3-3c25-3,47-9,72-9c9-1,14-2,23-4
				c14-4,35-6,50-8c54-11,132-28,186-36c6-2,52-9,59-9c8,63,15,122-25,177c-35,48-78,52-131,61c-40,7-80,14-119,22l-540,103l-94,17
				c-7,1-40,7-44,9c-21,3-63,8-83,4c-77-17-141-91-164-164c-12-40-16-92-22-134l-35-266l-115-871l-38-290c-7-51-13-108-22-159
				c-9-81-19-161-30-242l-43-340l-15-129c-4-27-9-61-9-88C351,223,366,191,374,169z"/>
			<path fill="#028335" d="M746,2272c5-39,1-97-1-137c0-3-4-10-6-13l-1-2l2-5c19,14,38,29,57,44c61,47,125,84,192,122
				c42,23,84,46,127,68c14,7,62,31,71,40c36,37,56,75,97,112l8,14c0,17,9,77,18,91c5,1,3,1,8,1l-3,5c3,1,1,1,4,0c12-4,20,2,34,3
				c-30,3-79,2-110,1c-55-1-110-2-165-3c-84,3-178-4-263-8c-31-1-63-6-95-6c-4-20-6-49-8-70c9-12,7-37,11-53c9-42,13-79,12-122l5-1
				l2-4c4-9,9-17,14-25c7-11,11-15,19-25l-1-1C760,2290,757,2280,746,2272z"/>
			<path fill="#15B928" d="M774,2300c17,14,39,37,55,53l84,82c59,57,122,114,178,173v3c-6,2-8,2-14,3c-84,3-178-4-263-8
				c-31-1-63-6-95-6c-4-20-6-49-8-70c9-12,7-37,11-53c9-42,13-79,12-122l5-1l2-4c4-9,9-17,14-25C762,2314,765,2310,774,2300
				L774,2300z"/>
			<path fill="#073054" d="M1586,2581c14-4,35-6,50-8c8,6,6,10,5,20c1,27,7,56,7,85l-526,91l-154,27c-29,5-71,14-100,14
				c-72-2-126-69-138-136c-4-24-5-47-10-71v-3c31,1,63,5,95,6c85,4,178,11,263,8c55,1,110,3,165,3c31,0,80,2,110-1c-15-1-23-7-34-3
				c-2,1-1,1-4,0l3-5c13-3,38-2,55-4c22-1,16-4,34-7c11,3,32,9,43,13l11,2c12-3,19-5,28-13l3-3c25-3,47-9,72-9
				C1572,2584,1577,2583,1586,2581z"/>
			<path fill="#15B928" d="M1489,2598l3-3c25-3,47-9,72-9l15,1c6,0,7,0,13,3l4,6c-44,12-89,17-135,18v-1
				C1472,2608,1480,2606,1489,2598L1489,2598z"/>
			<path fill="#269A30" d="M1406,2597c11,3,32,9,43,13l11,2v1c-16,5-89,5-109,4c-15-1-23-7-34-3c-2,1-1,1-4,0l3-5c13-3,38-2,55-4
				C1394,2603,1388,2599,1406,2597L1406,2597z"/>
			<path fill="#269A30" d="M1586,2581c14-4,35-6,50-8c8,6,6,10,5,20l-2-8c-7-2-31,8-44,10l-4-6c-6-3-6-3-13-3l-15-1
				C1572,2584,1577,2583,1586,2581z"/>
			<path fill="#74BF30" d="M639,1994c5,9,12,27,15,37c11,31,35,50,61,69c7,4,13,7,20,13l5,4l-2,5l1,2c2,3,6,9,6,13c2,40,6,98,1,137
				c11,8,14,18,28,27l1,1c-9,10-12,14-19,25c-5,9-9,16-14,25l-2,4l-5,1c1,43-3,80-12,122c-3,16-1,41-11,53c-4-15-8-48-10-65l-15-112
				C671,2233,654,2114,639,1994z"/>
			
				<linearGradient id="SVGID_00000048492861773591973050000003835199698607785406_" gradientUnits="userSpaceOnUse" x1="780.6901" y1="3035.9617" x2="702.099" y2="2996.4656" gradientTransform="matrix(1 0 0 1 0 -778)">
				<stop  offset="0" style="stop-color:#029181"/>
				<stop  offset="1" style="stop-color:#0D88AF"/>
			</linearGradient>
			<path fill="url(#SVGID_00000048492861773591973050000003835199698607785406_)" d="M735,2113l5,4l-2,5l1,2c2,3,6,9,6,13
				c2,40,6,98,1,137c11,8,14,18,28,27l1,1c-9,10-12,14-19,25c-5,9-9,16-14,25l-2,4l-5,1c-4-45-6-89-7-134
				C733,2189,734,2147,735,2113z"/>
			<path fill="#38871F" d="M746,2272c11,8,14,18,28,27l1,1c-9,10-12,14-19,25c-5,9-9,16-14,25C741,2330,743,2292,746,2272z"/>
			<path fill="#269A30" d="M755,2325c-1-8-3-15,1-22c6-5,10-4,17-4l1,1C765,2310,762,2314,755,2325z"/>
			<path fill="#51B8DA" d="M727,2221c-7-35-7-73-15-108c-2-7-1-8,3-13c7,4,13,7,20,13C734,2147,733,2189,727,2221z"/>
			<path fill="#15B928" d="M1636,2573c54-11,132-28,186-36c2,36,0,66-26,95c-9,10-20,18-33,24c-18,8-92,20-114,21c-1-29-7-57-7-85
				C1641,2583,1643,2579,1636,2573z"/>
			<path fill="#F5BC68" d="M1902,1707c1,0,15-2,17-3c13,49,25,146,35,198l72,414c6,36,11,72,17,108c2,13,6,45,10,58l5,1
				c0,8-7,10-13,13c-8,2-12,3-20,4c-46,9-98,17-143,27v1c-7,1-54,7-59,9c-54,8-132,25-186,36c-15,2-35,4-50,8l-4-3
				c-12-54-19-108-29-162c-2-10-3-20-6-30c-7-52-20-108-30-160l-57-310c-6-34-30-146-29-173l1-4c8-5,9-7,16-13c2,4,4,7,6,10
				c10,4,19,1,29,3c13,0,30-2,43-3C1652,1726,1778,1720,1902,1707L1902,1707z"/>
			<path fill="#E9A632" d="M1902,1707c1,0,15-2,17-3c13,49,25,146,35,198l72,414c6,36,11,72,17,108c2,13,6,45,10,58l-11,2
				c-3-27-12-71-17-99l-50-287l-37-223c-4-27-21-148-29-166L1902,1707z"/>
			<path fill="#B77A35" d="M2052,2481l5,1c0,8-7,10-13,13c-8,2-12,3-20,4c-46,9-98,17-143,27v1c-7,1-54,7-59,9c-54,8-132,25-186,36
				c-15,2-35,4-50,8l-4-3l5-1c2-3,7-14,11-14c77-14,155-28,233-42c17-3,33-5,50-10c35-6,71-12,106-19c18-3,37-7,55-10L2052,2481z"/>
			<path fill="#AB6F30" d="M1448,1726c2,4,4,7,6,10c10,4,19,1,29,3c-18,2-35,2-53,4l1-4C1440,1734,1442,1732,1448,1726L1448,1726z"
				/>
			<path fill="#F5BC68" d="M2399,2429c-17,3-51,10-66,11l1,5c-9,0-43,5-51,7c-26,7-139,17-154,30c-23-1-60,10-84,13c6-4,13-6,13-13
				l-5-1c-3-12-8-45-10-58c-5-36-11-72-17-108l-72-414c-9-53-21-150-35-198c104-17,212-17,316-32c5-1,6-4,8-8c8-11,32-31,43-38
				c55,0,111,0,166-1c12,0,24,0,36,1c-75,34-157,66-231,102c10,41,19,90,29,129c1,6,2,13,4,19l3,11c3,15,6,34,10,49L2399,2429z"/>
			<path fill="#E68557" d="M2057,2482c16-3,45-7,63-10c70-13,141-24,212-33l1,5c-9,0-43,5-51,7c-26,7-139,17-154,30
				c-23-1-60,10-84,13C2050,2492,2057,2490,2057,2482z"/>
			
				<linearGradient id="SVGID_00000172423181306847725590000014061041666624233881_" gradientUnits="userSpaceOnUse" x1="1895.166" y1="2562.5657" x2="1934.3929" y2="2254.0874" gradientTransform="matrix(1 0 0 1 0 -778)">
				<stop  offset="0" style="stop-color:#A66D2F"/>
				<stop  offset="1" style="stop-color:#D29446"/>
			</linearGradient>
			<path fill="url(#SVGID_00000172423181306847725590000014061041666624233881_)" d="M1830,1279c7,9,5,12,1,23c-2,5-4,8-6,13l-4,5
				c-1,10-2,12-5,21c11,13,15,15,16,32c21,1,36,8,52,9c9,1,18,5,24,6c26,6,55,21,75,39l6,5c1,2,7,8,8,9c7,13,10,16,9,30l-2,3l-19,10
				c0,7-1,7,6,12v2c7,4,15,9,22,14c15,13,22,22,23,42h2c6-2,8-17,15-29l2-1c12-6,20-7,33-11c4,2,9,4,12,7c17,10,18,6,20,27v2l27-3
				c4,0,7,0,11-1c9,0,6,0,13-2c17-3,32,1,54-1c9-1,16-1,25-1c12,0,31-3,42-6c9-2,10-3,13-9c31,11,58,3,93,4c-21,18-41,37-62,55
				c-10,9-41,33-49,42c-11,8-35,28-43,38c-2,4-3,8-8,8c-104,14-212,15-316,32c-2,0-15,2-17,3c-124,13-251,19-375,29c-13,1-30,3-43,3
				c-11-1-19,1-29-3c-2-4-4-7-6-10l6-12c5-6,5-7,9-14c-12-5-18-12-27-21c5-10,10-21,14-31c6-13,15-24,24-35c1-2,3-8,4-11
				c20,0,44-10,55-7c9-2,7-5,20-4c10,0,18,1,25-6c-4-14,9-36,15-49v-13c2-21-1-39-9-58c-4-4-10-13-15-19c-10-10-23-16-31-26
				c20-20,33-31,57-47l11-7c12-7,21-12,32-20c14-7,30-22,42-26c6-6,6-6,9-14c17-2,25-11,44-14c7,0,44-7,53-9c13-1,26-2,39-3
				L1830,1279z"/>
			<path fill="#74BF30" d="M1830,1279c7,9,5,12,1,23c-2,5-4,8-6,13l-4,5c-1,10-2,12-5,21c11,13,15,15,16,32c21,1,36,8,52,9
				c9,1,18,5,24,6c26,6,55,21,75,39l6,5c1,2,7,8,8,9c7,13,10,16,9,30l-2,3l-19,10c-55,0-87-9-141-23c-6,4-4,1-6,9l6,12
				c3,13,5,20-1,32l4,5l-8,13c-19-2-33,2-49,13c-2,2-1,1-4,2c-5-17-11-23-24-34c-11-7-13-9-25-13c-16-4-29-6-46-9c-24,0-35-1-57,9
				l-15,9l-5,6c-9,7-14,15-21,24v-13c2-21-1-39-9-58c-4-4-10-13-15-19c-10-10-23-16-31-26c20-20,33-31,57-47l11-7c12-7,21-12,32-20
				c14-7,30-22,42-26c6-6,6-6,9-14c17-2,25-11,44-14c7,0,44-7,53-9c13-1,26-2,39-3L1830,1279z"/>
			<path fill="#FCE324" d="M1775,1368l11,1c14,2,22,2,34,3l12,1c21,1,36,8,52,9c9,1,18,5,24,6c26,6,55,21,75,39l6,5c1,2,7,8,8,9
				c7,13,10,16,9,30l-2,3l-19,10c-55,0-87-9-141-23c-22-9-39-13-62-19c-23-9-21-24-39-30c-2,0-9-2-11-3c12-11,25-22,37-33
				C1771,1373,1773,1370,1775,1368z"/>
			<path fill="#E9A632" d="M1743,1411c9,1,15,1,24,3c60,11,117,24,176,40c14,4,50,11,62,17l-2,3l-19,10c-55,0-87-9-141-23
				c-22-9-39-13-62-19C1759,1432,1761,1418,1743,1411z"/>
			<path fill="#FCD417" d="M1775,1368l11,1c14,2,22,2,34,3c-9,0-13-1-19,5l-8,6c-3,2-2,1-5,3c-5,5-20,18-22,23v3c-9-1-15-2-24-3
				c-2,0-9-2-11-3c12-11,25-22,37-33C1771,1373,1773,1370,1775,1368L1775,1368z"/>
			<path fill="#F5EE51" d="M1830,1279c7,9,5,12,1,23c-2,5-4,8-6,13l-4,5c-1,10-2,12-5,21c11,13,15,15,16,32l-12-1c-12-2-20-1-34-3
				l-11-1c-2,2-4,4-6,6c-12,12-25,22-37,33h-7l-5-20c-1-4-2-8-3-13c-10-8-8-17-18-23l-4,1l-3,1l-14-2c-1,1-5,4-6,5
				c-10,9-33,31-44,35c-5,0-6,0-11,1l-3,1v-2l5-6c-5,0-7,0-12-1c-2-5-1-2,0-9c-4-4-5-3-11-4l11-7c12-7,21-12,32-20c14-7,30-22,42-26
				c6-6,6-6,9-14c17-2,25-11,44-14c7,0,44-7,53-9c13-1,26-2,39-3L1830,1279z"/>
			<path fill="#E9A632" d="M1717,1376c30-21,63-55,95-75c5-3,14,0,19,2c-2,5-4,8-6,13l-4,5c-1,10-2,12-5,21c11,13,15,15,16,32l-12-1
				c-12-2-20-1-34-3l-11-1c-2,2-4,4-6,6c-12,12-25,22-37,33h-7l-5-20C1719,1384,1718,1380,1717,1376L1717,1376z"/>
			<path fill="#6CAB1E" d="M1821,1320c-1,10-2,12-5,21c11,13,15,15,16,32l-12-1c-12-2-20-1-34-3l-11-1l1-5
				C1793,1349,1805,1336,1821,1320L1821,1320z"/>
			<path fill="#74BF30" d="M1786,1370c9,0,16,2,22-3c-2-11-3-18,5-27l2,1c11,13,15,15,16,32l-12-1C1808,1371,1800,1372,1786,1370z"
				/>
			<path fill="#FCD417" d="M1830,1279c7,9,5,12,1,23c-5-2-14-5-19-2c-32,20-65,54-95,75c-10-8-8-17-18-23l-4,1l-3,1l-14-2
				c5-4,13-11,18-16c38-33,86-25,127-47c4-2,4-3,5-7l-3-3L1830,1279z"/>
			<path fill="#FCE324" d="M1606,1376c30,3,24-18,66-19c-10,9-33,31-44,35c-5,0-6,0-11,1l-3,1v-2l5-6c-5,0-7,0-12-1
				C1604,1380,1604,1383,1606,1376z"/>
			<path fill="#A01721" d="M1782,1441c23,6,40,10,62,19c-6,4-4,1-6,9l6,12c3,13,5,20-1,32l4,5l-8,13c-19-2-33,2-49,13c-2,2-1,1-4,2
				c-5-17-11-23-24-34c3-7,5-18,6-25c-7-5,0-8-13-15c5-11,10-24,20-29L1782,1441z"/>
			<path fill="#6F375F" d="M1782,1441c23,6,40,10,62,19c-6,4-4,1-6,9l-9-7c-15,13-26,4-44,15l-7,1l-2,3l-4,4l-4,1c-7-5,0-8-13-15
				c5-11,10-24,20-29L1782,1441z"/>
			<path fill="#EA2D3D" d="M1800,1453c13,3,17,3,29,9c-15,13-26,4-44,15l-7,1C1783,1470,1793,1461,1800,1453L1800,1453z"/>
			<path fill="#F2394C" d="M1829,1462l9,7l6,12c-6,35-49,29-58-4C1803,1466,1814,1475,1829,1462z"/>
			<path fill="#EA2D3D" d="M1800,1472c15,0,26,7,35,19l-2,3C1813,1503,1800,1493,1800,1472z"/>
			<path fill="#EA2D3D" d="M1778,1478l7-1c9,33,52,39,58,4c3,13,5,20-1,32c-4,3-4,3-7,7c-21-3-57-15-60-39L1778,1478z"/>
			<path fill="#C72237" d="M1772,1485l4-4c2,24,38,36,60,39c-12,5-33,5-46,5C1784,1507,1777,1507,1772,1485z"/>
			<path fill="#C72237" d="M1725,1408h7c2,1,9,3,11,3c17,7,16,21,39,30l-7,1c-10,6-15,19-20,29c13,7,6,10,13,15c-1,8-3,19-6,25
				c-11-7-13-9-25-13c-16-4-29-6-46-9c1-10-5-26-3-32c4,0,8,0,12,0c6-4,4-3,8-11c3-8,1-8-2-15v-1C1706,1426,1720,1413,1725,1408
				L1725,1408z"/>
			<path fill="#E86124" d="M1725,1408h7c2,1,9,3,11,3c17,7,16,21,39,30l-7,1c-7-1-10-3-15-1l-2,7c-15,3-33,0-49-1c3-8,1-8-2-15v-1
				C1706,1426,1720,1413,1725,1408L1725,1408z"/>
			<path fill="#E9A632" d="M1706,1432c17,4,40,1,51,16c-15,3-33,0-49-1C1711,1439,1710,1439,1706,1432z"/>
			<path fill="#58234F" d="M1755,1471c13,7,6,10,13,15c-1,8-3,19-6,25c-11-7-13-9-25-13C1744,1490,1750,1481,1755,1471z"/>
			
				<linearGradient id="SVGID_00000016766620738372764110000003397414974937614512_" gradientUnits="userSpaceOnUse" x1="1598.824" y1="2223.2896" x2="1573.2939" y2="2163.4058" gradientTransform="matrix(1 0 0 1 0 -778)">
				<stop  offset="0" style="stop-color:#E5BE04"/>
				<stop  offset="1" style="stop-color:#FFF138"/>
			</linearGradient>
			<path fill="url(#SVGID_00000016766620738372764110000003397414974937614512_)" d="M1595,1373c6,1,7,0,11,4c-2,6-2,4,0,9
				c5,1,7,1,12,1l-5,6v2l3-1c5-1,6-1,11-1c4,14,2,15,3,28c-2,5-1,5-4,10c-7,6-11,10-13,19c-10,11-16,12-29,16c-4-4-10-13-15-19
				c-10-10-23-16-31-26C1558,1399,1571,1389,1595,1373z"/>
			<path fill="#A4D633" d="M1695,1354l4-1c9,6,7,15,18,23c1,4,2,8,3,13l5,20c-5,5-19,18-19,23v1c3,7,5,7,2,15c-4,8-2,7-8,11
				c-4,0-8,0-12,0c-7-9-25-4-30-17c2-9,7-13,16-16c8,0,18,0,19-9l-6-6c6-15,3-24,1-41l-5-3c2-4,5-7,8-11L1695,1354z"/>
			<path fill="#C7D62A" d="M1695,1354l4-1c9,6,7,15,18,23c1,4,2,8,3,13c-10-5-24-8-26-20c3-5,4-5,5-11L1695,1354z"/>
			<path fill="#38871F" d="M1614,1449c2,7,2,8,2,16l7,8l12,10c-6,6-6,4-8,11c3,3,3,3,7,5l-15,9l-5,6c-9,7-14,15-21,24v-13
				c2-21-1-39-9-58C1598,1461,1604,1459,1614,1449z"/>
			<path fill="#6CAB1E" d="M1616,1464l7,8l12,10c-6,6-6,4-8,11c3,3,3,3,7,5l-15,9c2-8,4-9,5-17l-2-2c-8,5-10,11-15,18
				c-2-12-4-20-8-31C1605,1470,1609,1468,1616,1464z"/>
			<path fill="#C7D62A" d="M1678,1352l14,2c-3,4-6,7-8,11c-5,15-10,38-32,27c-2-1-3-1-6-1c-8,9-11,17-16,29c-1-13,1-14-3-28
				c12-3,35-26,44-35C1673,1356,1677,1353,1678,1352L1678,1352z"/>
			<path fill="#A2CD2D" d="M1657,1424c-7,9-13,18-23,25l-5,2c-3,6-1,6,0,14l-6,7l-7-8c0-8,0-8-2-16c2-9,6-13,13-19
				C1634,1430,1650,1426,1657,1424L1657,1424z"/>
			<path fill="#A4D633" d="M1631,1420c4-11,7-19,16-29c2,15,10,16,11,33c-8,2-24,5-30,5C1629,1425,1629,1425,1631,1420L1631,1420z"
				/>
			<path fill="#74C428" d="M1629,1465c-1-8-2-8,0-14l5-2c8,11,6,3,15,11c7,4,7,2,9,8c-3,5-17,11-23,14l-12-10L1629,1465z"/>
			<path fill="#15B928" d="M1675,1424c-3-8-5-18,4-23c7,3,5,2,10,8l6,6C1692,1424,1683,1424,1675,1424z"/>
			<path fill="#FCD417" d="M1692,1489c17,3,29,5,46,9c12,5,14,6,25,13c12,12,19,17,24,34c-1,8-2,19-4,26c-9,12-22,9-37,9
				c-13,0-24,1-38,2c-32,3-65,5-97,9c-17,2-19,3-33-6c-4-14,9-36,15-49c7-9,11-17,21-24l5-6l15-9C1657,1488,1667,1489,1692,1489z"/>
			<path fill="#E9A632" d="M1593,1536c7-9,11-17,21-24l6,2c1,5-1,10-3,15c-6,18-7,42-7,61c-17,2-19,3-33-6
				C1573,1571,1586,1549,1593,1536z"/>
			<path fill="#F5EE51" d="M1708,1554c13-2,25-6,36,3c3,8,2,15,2,24c-13,0-24,1-38,2V1554z"/>
			<path fill="#F2F897" d="M1838,1469c2-7,0-5,6-9c53,14,85,23,141,23c0,7-1,7,6,12v2c7,4,15,9,22,14c15,13,22,22,23,42
				c-6,5-27,6-36,6c-24,2-76,7-99,7c-9,1-16,2-25,2l-2-2c-9-17-23-19-34-34l8-13l-4-5c5-13,3-19,1-32L1838,1469z"/>
			<path fill="#05653A" d="M1838,1469c2-7,0-5,6-9c53,14,85,23,141,23c0,7-1,7,6,12v2l-2-1c-8-5-10-6-20-6c-13,0-64,0-75,1
				c-10,2-17,3-26,9c-11,7-12,8-21,18l-4-5c5-13,3-19,1-32L1838,1469z"/>
			<path fill="#A4D633" d="M1894,1492c11-2,61-2,75-1c9,0,12,0,20,6c-10,7-46,14-60,11h-2C1914,1502,1906,1498,1894,1492z"/>
			<path fill="#F5EE51" d="M1847,1518c9-10,10-11,21-18c-8,17-8,22-2,40c-3,4-1,2-6,5c5,3,9,5,15,8v6c7,5,15,3,26,6c-9,1-16,2-25,2
				l-2-2c-9-17-23-19-34-34L1847,1518z"/>
			<path fill="#A4D633" d="M2012,1510c15,13,22,22,23,42c-6,5-27,6-36,6C2008,1533,2014,1545,2012,1510z"/>
			<path fill="#975C25" d="M1454,1736c20-8,169-20,197-23l297-24c59-5,119-16,178-19c26-1,94-14,116-6c-2,4-3,8-8,8
				c-104,14-212,15-316,32c-2,0-15,2-17,3c-124,13-251,19-375,29c-13,1-30,3-43,3C1473,1737,1464,1740,1454,1736L1454,1736z"/>
			<path fill="#A4D633" d="M1533,1595c9-2,7-5,20-4c-10,11-20,21-29,33c-8,16-20,22-30,38c-8,13-18,29-30,38c-12-5-18-12-27-21
				c5-10,10-21,14-31c6-13,15-24,24-35c1-2,3-8,4-11C1498,1602,1522,1592,1533,1595L1533,1595z"/>
			<path fill="#38871F" d="M1478,1602c20,0,44-10,55-7c-23,13-32,15-59,18C1475,1611,1477,1605,1478,1602L1478,1602z"/>
			<path fill="#15B928" d="M1523,1624c-8,16-20,22-30,38c-12-11-7-16,5-24C1506,1633,1515,1628,1523,1624z"/>
			<path fill="#EA2D3D" d="M1786,1546c3,0,1,0,4-2c16-11,30-15,49-13c11,16,25,17,34,34c-12,5-79,11-89,9l-1-2
				C1784,1565,1785,1554,1786,1546z"/>
			<path fill="#F2394C" d="M1831,1537c8,3,9,4,12,11c0,8,0,7-4,14c-9-3-10-2-15-8C1824,1547,1828,1543,1831,1537z"/>
			<path fill="#6B4AB2" d="M2086,1511c4,2,9,4,12,7c17,10,18,6,20,27v2c-12,2-73,9-81,5c6-2,8-17,15-29l2-1
				C2065,1516,2073,1514,2086,1511z"/>
			<path fill="#E2E1E2" d="M680,2757c-12-40-16-92-22-134l-35-266l-115-871l-38-290c-7-51-13-108-22-159c-9-81-19-161-30-242
				l-43-340l-15-123c-4-27-9-61-9-88c0-22,15-54,23-76c-108,46-73,162-62,253l40,314c2,21,0,44,2,61c5,41,11,84,17,125
				c7,47,11,113,22,159c1-8,1-15,1-23c0,8-1,15-1,23c3,44,14,116,20,162l35,269l85,659l53,415l13,98c10,82,21,137,87,196
				c47,42,98,54,160,41C767,2904,703,2830,680,2757z M400,1059c10,2,16,2,20,1C416,1062,410,1062,400,1059z M425,1056c-1,1-2,2-4,3
				C423,1058,424,1057,425,1056c2-2,4-4,7-7C429,1052,427,1054,425,1056z"/>
			<path fill="#49349A" d="M2008,1388l23-2l1,3c13,5,17,7,29,14c7,8,8,23,10,34c13,1,31,0,40,11c9,11,4,13,6,24l-2,4
				c-2,2-16,15-15,14l-3,7l-4,3l-7,11c-13,3-21,5-33,11l-2,1c-7,12-9,27-15,29h-2c-1-20-8-29-23-42c-7-5-14-9-22-14v-2
				c-7-5-6-4-6-12l19-10l2-3c2-14-1-17-9-30c-1-1-7-8-8-9l-6-5C1993,1407,1992,1407,2008,1388z"/>
			<path fill="#6B4AB2" d="M2062,1403c7,8,8,23,10,34c13,1,31,0,40,11c9,11,4,13,6,24l-2,4c-2,2-16,15-15,14c-12-2-22,6-34-6
				c-13-14,7-30-15-42c-2-1-3-5-4-8C2063,1424,2061,1420,2062,1403L2062,1403z"/>
			<path fill="#49349A" d="M2005,1474c12-6,26-5,38-1l6,9l2,12c2,12-1,17,0,28c-7,12-9,27-15,29h-2c-1-20-8-29-23-42
				c-7-5-14-9-22-14v-2c-7-5-6-4-6-12l19-10L2005,1474z"/>
			<path fill="#7D5BC3" d="M2005,1474c12-6,26-5,38-1l6,9C2041,1506,2004,1498,2005,1474z"/>
			<path fill="#6B4AB2" d="M1984,1483l19-10h2c-1,24,35,33,44,9l2,12l-2,5c-11,3-17,3-28,4c-13-7-16-8-31-9
				C1984,1490,1985,1491,1984,1483z"/>
			<path fill="#452B95" d="M1988,1431c18-6,11,11,28,12c12,1,25-2,33,8c15,21-5,45,37,48c2,0,4,0,6,0l-7,11c-13,3-21,5-33,11l-2,1
				c-1-11,2-17,0-28l-2-12l-6-9c-12-4-26-5-38,1h-2l2-3c2-14-1-17-9-30C1995,1440,1990,1433,1988,1431z"/>
			<path fill="#49349A" d="M1997,1441l3,1c6,2,18,6,24,6c12,0,47,15,21,25c-12-4-26-5-38,1h-2l2-3C2007,1457,2004,1453,1997,1441z"
				/>
			<path fill="#BF55D9" d="M2033,1389c13,5,17,7,29,14c-1,17,1,22-14,32C2041,1422,2028,1404,2033,1389L2033,1389z"/>
			<path fill="#74BF30" d="M1863,1293c2,4,2,7,3,11c6,3,7,0,15,1c2,3,9,11,11,13c4-3,6-2,13-6l-4,1c10-7,22-7,34-3c-4,6-10,13-12,20
				c5,3,11,0,16-2c4,9,4,7,15,12l-9,1c-22,0-27,3-38,21c-1,3,0,25,1,28c-5-1-15-4-24-6c-16-1-31-8-52-9c-1-17-5-19-16-32
				c3-10,4-11,5-21l4-5c10,1,11,0,20-4c5,1,3,0,6,3C1853,1302,1854,1300,1863,1293L1863,1293z"/>
			<path fill="#38871F" d="M1825,1315c10,1,11,0,20-4c5,1,3,0,6,3c2,9,3,17,5,25c-1,4-2,8-4,11c4,27,31,11,41,12c-3,9-10,2-10,20
				c-16-1-31-8-52-9c-1-17-5-19-16-32c3-10,4-11,5-21L1825,1315z"/>
			<path fill="#A4D633" d="M1863,1293c2,4,2,7,3,11c6,3,7,0,15,1c2,3,9,11,11,13c-5,11-24,29-36,22c-2-8-4-17-5-25
				C1853,1302,1854,1300,1863,1293L1863,1293z"/>
			<path fill="#74C428" d="M1737,1270c15-21,29-33,45-52c-6-11-3-19,10-22c6,3,4,1,6,9l-4,6c1,7,6,29,11,33c9,1,26-2,32,1
				c9,12,8,20,19,31l2,2c1,5,2,6,1,11c8-4,5-3,14-3c-2,1-9,6-10,7c-9,7-10,10-12,21c-3-3-1-2-6-3c-9,4-11,5-20,4c2-5,3-8,6-13
				c4-11,7-13-1-23l-5,1c-13,1-26,2-39,3c-9,2-46,8-53,9l-2-20L1737,1270z"/>
			<path fill="#A2CD2D" d="M1809,1246c24,8,7,23,21,33l-5,1c-13,1-26,2-39,3v-2c7-6,6-17,6-26l3-4C1801,1246,1800,1248,1809,1246
				L1809,1246z"/>
			<path fill="#74BF30" d="M1776,1265l3,2c6-1,9-7,14-12c0,9,1,20-6,26l-6-1c-5-4-4-4-6-12L1776,1265z"/>
			<path fill="#6CAB1E" d="M1776,1265c3-7,7-15,13-20l4,1l2,5l-3,4c-4,5-8,10-14,12L1776,1265z"/>
			<path fill="#F2394C" d="M1945,1339l9-1l1,1c22,10,23,25,27,47l7,3l19-1c-17,19-15,18-26,38c-20-18-49-32-75-39c0-3-1-25-1-28
				C1918,1342,1922,1338,1945,1339z"/>
			<path fill="#6B4AB2" d="M1907,1388c0-3-1-25-1-28l7,13c6,11,15,15,26,20l8,4c11-3,23-6,33-10h1l7,3l19-1c-17,19-15,18-26,38
				C1963,1409,1933,1394,1907,1388L1907,1388z"/>
			<path fill="#ED3959" d="M1907,1360c12-18,16-22,38-21c-7,4-17,8-21,14c3,5,1,3,8,5c4,32,24,27,48,28c-11,4-22,7-33,10l-8-4
				c-11-5-19-9-26-20L1907,1360z"/>
			<path fill="#EA2D3D" d="M1945,1339l9-1l1,1c4,10,3,5,1,15c-5,5-5,5-12,7l-12-3c-8-3-6,0-8-5C1928,1347,1938,1343,1945,1339
				L1945,1339z"/>
			<path fill="#A2CD2D" d="M2101,1490c-1,1,13-12,15-14l7,5c8,5,8,7,16,7c4-2,6-3,9-6c2,1,4,1,5,2h20c5,7,9,9,4,19c-9,2-14,7-27,9v1
				l6,4c1,8,2,19-2,26c-4,0-7,1-11,1l-27,3v-2c-2-21-2-17-20-27c-3-3-8-5-12-7l7-11l4-3L2101,1490z"/>
			<path fill="#988E0A" d="M2097,1497c15,3,28,11,41,20c6,4,7,7,12,4l2-8l6,4c1,8,2,19-2,26c-4,0-7,1-11,1l-27,3v-2
				c-2-21-2-17-20-27c-3-3-8-5-12-7l7-11L2097,1497z"/>
			<path fill="#D13E1E" d="M2098,1518c25,3,36,0,47,25l-27,3v-2C2116,1524,2115,1528,2098,1518z"/>
			<path fill="#D13E1E" d="M2153,1484h20c5,7,9,9,4,19c-9,2-14,7-27,9C2143,1502,2148,1494,2153,1484z"/>
			<path fill="#F04619" d="M2203,1501c14-5,19-4,33-3l5,1c3,9,6,29,6,39c-9,0-16,0-25,1c-22,2-37-2-54,1c-7,1-5,2-13,2
				c4-7,3-18,2-26l-6-4v-1c13-2,17-7,27-9c2,8,0,7,6,10C2193,1511,2196,1505,2203,1501z"/>
			<path fill="#D13E1E" d="M2157,1517c14,2,23,0,36,1c16,14,17,10,30,19l-1,3c-22,2-37-2-54,1c-7,1-5,2-13,2
				C2160,1536,2158,1524,2157,1517z"/>
			<path fill="#E68557" d="M2203,1501c14-5,19-4,33-3c-7,8-23,17-34,12C2203,1507,2203,1504,2203,1501z"/>
			<path fill="#C7D62A" d="M2118,1472c22-12,94-49,90,5c-1,8-3,17-4,25c-8,3-11,10-20,12c-5-4-4-2-6-10c4-10,1-11-4-19h-20
				c-1-1-4-1-5-2c-3,2-5,4-9,6c-8,0-8-2-16-7l-7-5L2118,1472z"/>
			<path fill="#6CAB1E" d="M2123,1481c14-6,55-21,68-12c-3,8-10,11-17,15h-20c-1-1-4-1-5-2c-3,2-5,4-9,6
				C2130,1488,2131,1486,2123,1481z"/>
			<path fill="#74C428" d="M1918,1257l4,2c-3,12,20,31,13,50c-12-4-23-3-34,3l4-1c-6,4-9,3-13,6c-3-2-9-10-11-13c-7-1-8,2-15-1
				c-1-4-2-7-3-11c1-1,8-6,10-7c6-4,11-5,18-7v-4c-3-3-3-4-5-9C1895,1260,1908,1259,1918,1257z"/>
			<path fill="#C7D62A" d="M1873,1286c17-1,46-11,51,14c-5,8-30,6-38,4l-4,1c-7-1-8,2-15-1c-1-4-2-7-3-11
				C1864,1292,1871,1287,1873,1286L1873,1286z"/>
			<path fill="#A2CD2D" d="M1886,1265c9-5,21-7,31-8c-5,7-7,10-14,14C1895,1271,1894,1271,1886,1265z"/>
			<path fill="#E68557" d="M2242,1500c21,6,42,15,62,24c-4,6-5,7-13,9c-12,2-31,6-42,6C2248,1530,2244,1509,2242,1500z"/>
			<path fill="#F5BC68" d="M2013,1357c12-13,18-20,34-28l3,28c-5,12-7,19-17,27c-15-5-5-7-15-19C2016,1361,2016,1362,2013,1357z"/>
			<path fill="#A2CD2D" d="M1921,1259c31,17,35,40,18,68c-5,2-11,5-16,2c1-7,7-14,12-20C1941,1290,1919,1271,1921,1259L1921,1259z"
				/>
			<path fill="#E9A632" d="M2013,1357c3,5,2,4,6,8c10,12,0,15,15,19l-2,1l-23,2l-19,3C1997,1378,2005,1368,2013,1357L2013,1357z"/>
			<path fill="#A2CD2D" d="M1823,1206c-7-22-1-23,14-38c4,6,7,13,10,20c-2,13-8,22-3,34c17,3,35,9,35,29c-4,8-1,5-8,9
				c-17,2-23-10-29-23c-15-4-24-1-39,2C1811,1223,1813,1219,1823,1206z"/>
			<path fill="#A2CD2D" d="M1776,1146c7,0,16,4,23,6c8,8,22,26,5,32c-6-3-4-3-8-11c-16-4-26,10-40,3C1753,1164,1768,1153,1776,1146z
				"/>
		</g>
	</g>
</g>
</svg>
