<?xml version="1.0" encoding="utf-8"?>
<!-- Generator: Adobe Illustrator 27.9.0, SVG Export Plug-In . SVG Version: 6.00 Build 0)  -->
<svg version="1.1" id="svg" xmlns="http://www.w3.org/2000/svg" xmlns:xlink="http://www.w3.org/1999/xlink" x="0px" y="0px"
	 viewBox="0 0 3698 3000" enable-background="new 0 0 3698 3000" xml:space="preserve">
<g>
	<g>
		<defs>
			<rect id="SVGID_1_" width="3698" height="3000"/>
		</defs>
		<clipPath id="SVGID_00000125588220334048586450000009834380913052449685_">
			<use xlink:href="#SVGID_1_"  overflow="visible"/>
		</clipPath>
		<g clip-path="url(#SVGID_00000125588220334048586450000009834380913052449685_)">
			<path fill="#FFFFFF" d="M0,0h3698v3000H0L0,0L0,0z"/>
			<path fill="#803B08" d="M2932,1177c5-1,11-8,13-9c23-13,25-51,29-55c47,10,53,32,53,76c28,14,34,20,44,52l1,2c23,14,38,25,46,52
				l1,8c5,10,31,19,42,25l7,4c8,2,16,9,23,14c54,35,85,93,115,148c10,19,21,39,31,59c72,20,155,50,209,103c19,19,29,26,43,51
				c3,5,6,10,8,16c18,20,31,63,32,91c6,230-332,311-511,320c-3,0-3,2-3,4l-1-3c-2,0-115,0-116,0c0,3-1,5-1,8l8,144c1,20,2,54,5,73
				c-71,30-147,51-224,61c-12,2-39,5-50,6c-45,4-86,4-131,4c-4,22-7,51-10,73c10,17,14,53,3,71c-4,6-16,11-23,15c5,25,8,41,6,66
				c-33,30-77,34-120,34l-8-18c-43,18-80,43-127,56c-64,17-131,10-193-12c-30-11-35-32-16-56c-6-8-4-18,0-27c18-43,60-64,104-66
				c12,0,23-1,34-2c13-3,22-6,32-14c-5-10-3-41,0-51c1-4,9-6,13-8c0-6-11-42-14-50c-6-22-12-45-19-67c-26-9-112-43-117-76
				c-3-20-1-62-1-84c0-98,7-195,15-292c-16-25-7-50-9-76c0-6-9-19-9-24c1-13,6-20,14-28l-1-3c-2-36-2-56,2-91c0-1,0,0,0-2
				c13-113,53-226,102-328c17-36,36-65,55-99l3-2c5-20,18-28,31-44l1-1c1-3,1-10,1-13c2-18,5-23,15-36c22,21,30,33,56,55
				c2,19,41,59,58,71c5,4,10,7,15,11c4,1,7,1,11,1c12-9,17-8,31-10c9,2,25,5,33,10c18,7,24-4,42-1c13,2,13,9,28,8c4-1,14-3,19-4
				c82-19,160-59,230-104C2906,1199,2924,1188,2932,1177L2932,1177z"/>
			<path fill="#D42311" d="M2161,1790l1,4c19,35,45,50,80,66l11,5c74,30,151,42,230,51c25,3,51,4,76,7l6,13c21,34,50,62,81,85
				c3,2,8,6,11,8c9,5,16,10,24,15c70,37,130,58,209,72c24,4,49,8,74,11c9,1,23-1,28,5l1,6l8,144c1,20,2,54,5,73
				c-71,30-147,51-224,61c-12,2-39,5-50,6c-45,4-86,4-131,4c-4,22-7,51-10,73c10,17,14,53,3,71c-4,6-16,11-23,15c5,25,8,41,6,66
				c-33,30-77,34-120,34l-8-18c-43,18-80,43-127,56c-64,17-131,10-193-12c-30-11-35-32-16-56c-6-8-4-18,0-27c18-43,60-64,104-66
				c12,0,23-1,34-2c13-3,22-6,32-14c-5-10-3-41,0-51c1-4,9-6,13-8c0-6-11-42-14-50c-6-22-12-45-19-67c-26-9-112-43-117-76
				c-3-20-1-62-1-84c0-98,7-195,15-292c-16-25-7-50-9-76c0-6-9-19-9-24C2147,1806,2153,1799,2161,1790L2161,1790z"/>
			<path fill="#241F1B" d="M2285,2546c22,12,48,21,71,29c68,25,145,39,215,10c5,25,8,41,6,66c-33,30-77,34-120,34l-8-18
				c-43,18-80,43-127,56c-64,17-131,10-193-12c-30-11-35-32-16-56c-6-8-4-18,0-27c18-43,60-64,104-66c12,0,23-1,34-2
				C2266,2557,2275,2554,2285,2546z"/>
			<path fill="#332D29" d="M2115,2656c-6-8-4-18,0-27c18-43,60-64,104-66c12,0,23-1,34-2c12,18,75,13,107,98c-64,37-133,33-203,15
				C2146,2669,2120,2657,2115,2656z"/>
			<path fill="#332D29" d="M2267,2370c77,29,175,43,257,51c26,3,52,3,78,5c-4,22-7,51-10,73c10,17,14,53,3,71c-4,6-16,11-23,15
				c-69,29-147,14-215-10c-23-9-50-17-71-29c-5-10-3-41,0-51c1-4,9-6,13-8c0-6-11-42-14-50C2279,2415,2274,2392,2267,2370L2267,2370
				z"/>
			<path fill="#950801" d="M2683,2045c-127,2-253-6-375-44c-37-11-120-41-138-76c98,74,281,100,402,104c24,1,62,2,86,0
				C2667,2034,2674,2039,2683,2045z"/>
			<path fill="#950801" d="M2162,1795c19,35,45,50,80,66l11,5c74,30,151,42,230,51c25,3,51,4,76,7l6,13c-101-5-211-17-305-54
				c-34-13-84-44-98-78C2160,1800,2160,1798,2162,1795z"/>
			<path fill="#F1EADF" d="M2932,1177c5-1,11-8,13-9c23-13,25-51,29-55c47,10,53,32,53,76c28,14,34,20,44,52l1,2c23,14,38,25,46,52
				l1,8c5,10,31,19,42,25l7,4c-79,43-111,112-129,197l-10,1c-150,14-325,58-428,178c0,1-1,1-1,2c-40,35-66,101-57,154
				c3,21,7,41,18,60c-25-3-51-4-76-7c-79-9-156-21-230-51l-11-5c-35-16-61-31-80-66l-1-4l-1-3c-2-36-2-56,2-91c0-1,0,0,0-2
				c13-113,53-226,102-328c17-36,36-65,55-99l3-2c5-20,18-28,31-44l1-1c1-3,1-10,1-13c2-18,5-23,15-36c22,21,30,33,56,55
				c2,19,41,59,58,71c5,4,10,7,15,11c4,1,7,1,11,1c12-9,17-8,31-10c9,2,25,5,33,10c18,7,24-4,42-1c13,2,13,9,28,8c4-1,14-3,19-4
				c82-19,160-59,230-104C2906,1199,2924,1188,2932,1177z"/>
			<path fill="#D42311" d="M2932,1177c5-1,11-8,13-9c23-13,25-51,29-55c47,10,53,32,53,76c28,14,34,20,44,52l1,2c23,14,38,25,46,52
				c-10-3-19-6-29-2c-29-3-116,40-146,53c-24,10-49,20-74,29c-39,14-99,30-141,32c-22,2-45,3-67,2c-14-13-25-25-43-32l-10,14
				c18,35,19,77,12,115c-9-32-11-67-21-101c-22,21-28,18-41,47c-23-5-31,3-54-5c-14-9-19-18-27-32c-28,24-53,50-83,71
				c24-39,38-65,78-88c-1-13,0-24,1-38c-6,2-10,3-16,3l1-4c-1-5-1-3-6-7c-41-32-89-75-96-129l1-1c1-3,1-10,1-13c2-18,5-23,15-36
				c22,21,30,33,56,55c2,19,41,59,58,71c5,4,10,7,15,11c4,1,7,1,11,1c12-9,17-8,31-10c9,2,25,5,33,10c18,7,24-4,42-1c13,2,13,9,28,8
				c4-1,14-3,19-4c82-19,160-59,230-104C2906,1199,2924,1188,2932,1177L2932,1177z"/>
			<path fill="#950801" d="M2370,1170c22,21,30,33,56,55c2,19,41,59,58,71c5,4,10,7,15,11c4,1,7,1,11,1c12-9,17-8,31-10
				c9,2,25,5,33,10c18,7,24-4,42-1c13,2,13,9,28,8c-8,4-7,3-10,13c-2,8-5,16-8,23c103-3,203-32,293-83c21-12,41-23,61-37
				c15-10,29-22,43-32c3-2,6-1,8,1c3,13-24,27-33,33c-87,55-187,99-289,119c-22,4-77,5-89,11l-1,2c9,13,34,25,48,28c20,5,41,4,62,7
				c-1,2-2,3-2,5c-22,2-45,3-67,2c-14-13-25-25-43-32l-10,14c18,35,19,77,12,115c-9-32-11-67-21-101c-22,21-28,18-41,47
				c-23-5-31,3-54-5c-14-9-19-18-27-32c-28,24-53,50-83,71c24-39,38-65,78-88c-1-13,0-24,1-38c-6,2-10,3-16,3l1-4c-1-5-1-3-6-7
				c-41-32-89-75-96-129l1-1c1-3,1-10,1-13C2358,1189,2360,1184,2370,1170L2370,1170z"/>
			<path fill="#D42311" d="M2542,1298c9,2,25,5,33,10c1,3,6,8,8,10c9-2,38-10,40,4c2,14-14,42-21,55c-6,9-33,52-45,43
				c-20-16-12-54,0-72c2-3,7-10,7-13c-20,4-37,58-30,76c2,5,9,23,9,26c-3,2-4,2-7,2c-35,2-50-31-51-61s7-48,27-69
				C2523,1300,2528,1301,2542,1298L2542,1298z"/>
			<path fill="#D42311" d="M2370,1170c22,21,30,33,56,55c2,19,41,59,58,71c5,4,10,7,15,11c-13,9-19,22-26,36c-48-21-85-51-107-98
				c-3-7-7-22-12-26c1-3,1-10,1-13C2358,1189,2360,1184,2370,1170L2370,1170z"/>
			<path fill="#D42311" d="M2323,1266c5-20,18-28,31-44c8,54,55,98,96,129c5,4,5,2,6,7l-1,4c6,0,11-2,16-3c-1,13-1,24-1,38
				c-40,24-55,49-78,88c30-21,55-47,83-71c8,14,13,23,27,32c-7,15-35,64-49,79c-30,29-115,76-159,73c-24-2-1-68,5-85
				c21-71,71-109,136-139c-47-9-107-51-111-103L2323,1266z"/>
			<path fill="#D42311" d="M2607,1390l10-14c18,7,29,19,43,32c21,27,35,55,33,90c-2,48-23,108-55,143c-19,21-61-36-69-51
				c-27-44-34-92-12-140c13-28,19-25,41-47c10,34,12,69,21,101C2626,1467,2625,1425,2607,1390L2607,1390z"/>
			<path fill="#A1998D" d="M2319,1267l3-2l1,4c-14,8-76,158-85,183c-9,23-16,45-23,68c-18,57-31,115-41,174c-3,20-6,40-9,60
				c-1,7-3,27-5,32c-2-36-2-56,2-91c0-1,0,0,0-2c13-113,53-226,102-328C2281,1330,2300,1301,2319,1267L2319,1267z"/>
			<path fill="#A1998D" d="M3160,1326l7,4c-79,43-111,112-129,197l-10,1c2-21,23-80,33-100C3082,1384,3111,1344,3160,1326L3160,1326
				z"/>
			<path fill="#A1998D" d="M2242,1861c5-61,12-123,26-183c4-15,14-63,21-73l2,1c1,5-1,9-2,13c-24,81-30,163-36,247L2242,1861z"/>
			<path fill="#950801" d="M3088,1291c10-4,19-1,29,2l1,8C3114,1302,3095,1294,3088,1291L3088,1291z"/>
			<path fill="#746C61" d="M2740,1475c17,0,31,7,36,24c3,10,2,21-3,30c-6,11-14,15-25,18C2700,1548,2696,1486,2740,1475z"/>
			<path fill="#746C61" d="M2336,1625c46-3,52,57,13,72C2305,1700,2294,1642,2336,1625z"/>
			<path fill="#746C61" d="M2315,1787c6,0,11,0,17,2c9,3,15,10,19,19c9,21-2,43-23,51c-6,0-11,0-16-2c-8-3-15-10-19-18
				c-4-9-4-20-1-30C2297,1797,2304,1792,2315,1787z"/>
			<path fill="#E0752C" d="M2542,1864c-9-53,17-119,57-154c-27,47-42,76-27,134c18,70,74,122,136,156c173,96,414,99,602,48
				c93-25,219-87,268-173c21-38,34-96,23-139c-1-5-3-10-5-15c18,20,31,63,32,91c6,230-332,311-511,320c-3,0-3,2-3,4l-1-3
				c-2,0-115,0-116,0c0,3-1,5-1,8l-1-6c-5-7-19-4-28-5c-25-3-49-7-74-11c-79-14-139-35-209-72c-8-6-15-10-24-15c-3-3-8-6-11-8
				c-32-23-61-51-81-85l-6-13C2549,1904,2544,1885,2542,1864L2542,1864z"/>
			<path fill="#803B08" d="M3628,1812c6,230-332,311-511,320c-3,0-3,2-3,4l-1-3c-2,0-115,0-116,0c0,3-1,5-1,8l-1-6c-5-7-19-4-28-5
				c-25-3-49-7-74-11c-79-14-139-35-209-72c-8-6-15-10-24-15c-3-3-8-6-11-8c-32-23-61-51-81-85l-6-13c-10-19-15-38-18-60l1-8
				c3,21,15,48,26,66c56,90,181,142,281,165c200,46,459,26,637-82c52-32,106-83,127-141C3620,1846,3624,1829,3628,1812L3628,1812z"
				/>
			<path fill="#F1EADF" d="M3167,1331c8,2,16,9,23,14c54,35,85,93,115,148c10,19,21,39,31,59c-113-26-184-29-298-23
				C3056,1442,3088,1373,3167,1331L3167,1331z"/>
			<path fill="#FEBE3D" d="M3073,1533c1,0,2,0,4,0c140-8,343,26,453,120c33,29,62,63,63,109c1,48-18,108-51,142
				c-115,119-285,157-444,165c-150,6-330-23-447-124c-77-67-101-173-23-251C2737,1582,2922,1539,3073,1533L3073,1533z"/>
			<path fill="#FEBE3D" d="M3059,1556c41-21,92-26,131,2c98,9,200,30,282,88c43,30,78,77,72,132c-8,70-68,122-127,153c-4,2-9,5-13,8
				c-4,7-14,8-23,10h-1c-7,4-32,14-41,17c-72,26-151,41-228,46c-139,9-315-12-425-104c-30-25-56-64-57-104c-2-97,94-161,172-195
				C2885,1573,2970,1561,3059,1556L3059,1556z"/>
			<path fill="#EF4708" d="M3380,1950c-7,4-32,14-41,17c-72,26-151,41-228,46c-139,9-315-12-425-104c-30-25-56-64-57-104
				c-2-97,94-161,172-195c84-37,168-48,258-53c-7,7-13,12-17,22c-20,7-35,10-56,12c-38-12-81-12-112,16c-9,9-12,13-13,26
				c0,21,2,27,18,41c-46-15-75-16-124-15l-6,4c9,22,18,43,32,63l9,10c-4,3-9,6-13,10c38,15,53,24,50,66c-7,18-18,26-35,35l1,1
				c16,11,27,11,37,29c-2,5-11,26-13,28l-7,14c-5,8-12,19-19,25c7,11,21,8,33,13c22,25,43,9,71,13c18,2,28,20,46,23c24,3,46-9,69-7
				c24,2,37,19,61,16c22-3,37-22,60-17c16,3,28,13,46,11c19-2,33-24,51-27c34-6,55,16,83-13C3332,1953,3361,1951,3380,1950
				L3380,1950z"/>
			<path fill="#EF4708" d="M2657,1778c16-25,47-36,75-37c11,0,39,3,45,3c38,15,53,24,50,66c-7,18-18,26-35,35c-22,8-39,12-63,10
				l-5-1c-16,0-27-5-41-11c-25-14-31-26-29-54C2654,1787,2656,1781,2657,1778z"/>
			<path fill="#D42311" d="M2654,1790c7,15,13,27,29,33c39,18,77,17,116-2c14-4,15-12,26-19l2,1l1,7c-7,18-18,26-35,35
				c-22,8-39,12-63,10l-5-1c-16,0-27-5-41-11C2658,1830,2652,1817,2654,1790L2654,1790z"/>
			<path fill="#E31D01" d="M2657,1778c16-25,47-36,75-37c11,0,39,3,45,3c38,15,53,24,50,66l-1-7l-2-1c-11,7-12,15-26,19
				c76-78-127-101-134-30c-1,13,10,24,18,31c-16-7-22-18-29-33C2654,1787,2656,1781,2657,1778z"/>
			<path fill="#FEBE3D" d="M2657,1778c-4-28,24-35,39-52c11-12,6-29,18-41c10-11,24-14,35-24c9,22,18,43,32,63l9,10c-4,3-9,6-13,10
				c-7,0-34-3-45-3C2704,1743,2673,1754,2657,1778z"/>
			<path fill="#EF4708" d="M2754,1740c-10-6-15-6-20-17l1-1c17,4,29,13,45,3l9,10c-4,3-9,6-13,10c-7,0-34-3-45-3
				C2737,1740,2748,1740,2754,1740L2754,1740z"/>
			<path fill="#FEDC7A" d="M2729,1856c24,2,41-2,63-10l1,1c16,11,27,11,37,29c-2,5-11,26-13,28c-5,2-10,3-15,4
				C2771,1911,2693,1902,2729,1856z"/>
			<path fill="#FEBE3D" d="M2754,1657c32-12,54-1,77-34c9-13,27-17,42-18c-9,9-12,13-13,26c0,21,2,27,18,41
				C2832,1657,2803,1656,2754,1657z"/>
			<path fill="#E0752C" d="M2724,1855l5,1c-35,46,43,56,73,51c5-1,10-2,15-4l-7,14c-5,8-12,19-19,25c-21-6-29,0-42-24
				c-12-6-14-4-27-13c-3-5-3-10-8-14c-1-2-1-4-1-6C2712,1870,2724,1861,2724,1855z"/>
			<path fill="#FEBE3D" d="M2749,1918c22,2,39,3,61-1c-5,8-12,19-19,25C2771,1936,2763,1942,2749,1918z"/>
			<path fill="#FEBE3D" d="M2683,1843c14,7,25,11,41,11c0,6-12,15-10,30c0,2,1,4,1,6C2688,1886,2678,1872,2683,1843z"/>
			<path fill="#EF4708" d="M3189,1559c98,9,200,30,282,88c43,30,78,77,72,132c-8,70-68,122-127,153c-4,2-9,5-13,8c-3-4-8-11-11-15
				c-4-4-9-10-12-15c-3-3-6-8-9-12c-18-20-26-27-50-40c11-13,19-15,36-20c21,5,38,5,60,2c3,3,8,9,11,11c10,4,12,15,13,25
				c47-26,66-23,53-86c35-61,21-46-22-88c-4-4-3-20-5-26c-11-22-38-15-56-28c-11-7-18-24-29-29c-15-6-35-3-51-6c-12-3-12-11-25-16
				c-21-10-47-7-68-1v-2c-8-4-33-19-41-20C3197,1568,3194,1564,3189,1559z"/>
			<path fill="#FEDC7A" d="M3359,1837c21,5,38,5,60,2c3,3,8,9,11,11c19,40-29,47-57,47c-18-20-26-27-50-40
				C3334,1844,3342,1842,3359,1837z"/>
			<path fill="#FEBE3D" d="M3417,1904c-8,10-12,13-23,20c-4-4-9-10-12-15C3394,1909,3404,1908,3417,1904L3417,1904z"/>
			<path fill="#5A911A" d="M3319,1642c39,2,89,5,120,30c-25,25-57,44-91,55c-56,19-109,31-161-6c-5,2-7,3-10-1v-3c4-4,3-3,9-4
				c7-29,19-37,42-53c6-2,11-5,16-8C3274,1644,3288,1643,3319,1642L3319,1642z"/>
			<path fill="#477314" d="M3233,1699c0,0,25-28,25-27c-4,6-13,17-13,23c6,1,11-3,14-7v3c3,0,2,1,4-1c20-2,76-12,93-10l-1,1
				c-17,5-26,4-41,7c-39,8-93,16-128,34c-5,2-7,3-10-1v-3c4-4,3-3,9-4C3204,1708,3214,1704,3233,1699z"/>
			<path fill="#477314" d="M3259,1688c4-5,10-13,16-15l1,2c-3,3-11,11-12,14v1c-3,1-1,1-4,1L3259,1688z"/>
			<path fill="#5A911A" d="M2754,1657c48-1,77,0,124,15c8,3,20,8,27,12c27,25,47,47,37,84c-1,2,5,3,2,9c-6,4-6,3-13-2
				c-10,1-16,3-27,4c-37,2-73-10-101-34c-4-3-8-8-12-11l-9-10c-14-20-23-41-32-63L2754,1657z"/>
			<path fill="#477314" d="M2870,1724c2,1,19,14,19,14l-2,1c-9-6-44-3-57-3c-3-1-7-2-10-4l1-1h-2c2-2,51,7,56-2L2870,1724z"/>
			<path fill="#EF4708" d="M3306,1788c0-1,0-2,0-4c0-76,178-76,176-2c0,35-32,51-63,57c-22,3-38,3-60-2
				C3333,1833,3308,1816,3306,1788z"/>
			<path fill="#D42311" d="M3455,1806c16-6,20-21,27-23c0,35-32,51-63,57c-22,3-38,3-60-2c-25-4-51-22-53-49l2-4c8,5,9,13,20,18
				c37,23,75,24,115,9C3446,1810,3452,1806,3455,1806L3455,1806z"/>
			<path fill="#E31D01" d="M3306,1788c0-1,0-2,0-4c0-76,178-76,176-2c-7,2-10,16-27,23c37-39,3-59-36-68c-38-9-132,10-92,65
				c-11-6-11-13-20-18L3306,1788z"/>
			<path fill="#5A911A" d="M2830,1875L2830,1875c6-5,17-16,21-18c28-16,54-22,86-19c25,2,32,14,51,13l3,2c2,13-18,27-21,36
				c-12,45-44,59-87,66c-18,3-38,4-58,0c-12-5-26-2-33-13c7-6,13-17,19-25l7-14C2818,1901,2827,1880,2830,1875z"/>
			<path fill="#477314" d="M2924,1874c3,1,2,0,4,3l-1,7c-1-1-1-4-2-6c-4,0-7,3-10,5c-19,11-19,29-32,45c-2,1-2,1-4,2
				c3-6,12-21,13-26l-3-2l1-2c9,1,11-7,17-13C2913,1881,2918,1878,2924,1874z"/>
			
				<linearGradient id="SVGID_00000101083618191328569220000007990410113519359126_" gradientUnits="userSpaceOnUse" x1="3312.1467" y1="2634.1621" x2="3282.6377" y2="2728.3372" gradientTransform="matrix(1 0 0 1 0 -778)">
				<stop  offset="0" style="stop-color:#629B18"/>
				<stop  offset="1" style="stop-color:#51851E"/>
			</linearGradient>
			<path fill="url(#SVGID_00000101083618191328569220000007990410113519359126_)" d="M3313,1952c-11,0-19-5-29-6c-13-2-25,0-38-4
				c-24-7-27-27-41-44c-5-6-16-11-20-18c1-5,0-3,3-6c3,0,7-1,10-3c37-28,83-28,126-13c24,12,32,20,50,40c3,4,6,9,9,12
				c4,5,8,11,12,15c3,4,8,11,11,15c-4,7-14,8-23,10h-1C3361,1951,3332,1953,3313,1952L3313,1952z"/>
			<path fill="#477314" d="M3302,1881c5,0,14,0,19,0v1l1-1h3c-4,0-2-1-5,1c-6,0-13,2-20,2c-4,1-10,2-12,5l3,2l-1,1c-5-1-4,0-6-3l1-3
				C3291,1882,3296,1882,3302,1881z"/>
			<path fill="#EF4708" d="M2873,1606c31-28,75-27,112-16c18,8,39,24,35,46c0,50-80,58-116,48c-7-4-19-9-27-12c-16-14-18-20-18-41
				C2861,1619,2865,1615,2873,1606L2873,1606z"/>
			<path fill="#D42311" d="M2860,1632c6,7,11,17,19,21c35,22,74,22,111,4c18-3,21-18,30-20c0,50-80,58-116,48c-7-4-19-9-27-12
				C2862,1659,2859,1652,2860,1632L2860,1632z"/>
			<path fill="#E31D01" d="M2873,1606c31-28,75-27,112-16c18,8,39,24,35,46c-9,2-12,17-30,20c33-27,16-52-19-62c-25-7-58-5-81,9
				c-21,13-23,29-10,49c-8-4-13-14-19-21C2861,1619,2865,1615,2873,1606z"/>
			<path fill="#EF4708" d="M3059,1556c41-21,92-26,131,2c4,5,7,9,10,16c2,9,2,11,2,21l-2-3c-8,3-10,12-24,17c-37,22-76,21-114,1
				c-11-5-12-16-20-24l1-7C3046,1569,3052,1563,3059,1556L3059,1556z"/>
			<path fill="#E31D01" d="M3059,1556c41-21,92-26,131,2c4,5,7,9,10,16c2,9,2,11,2,21l-2-3c-8,3-10,12-24,17c57-62-85-81-117-39
				c-5,6-7,14-6,22c1,7,5,12,8,18c-11-5-12-16-20-24l1-7C3046,1569,3052,1563,3059,1556L3059,1556z"/>
			<path fill="#FEDC7A" d="M3240,1596c21-6,48-10,68,1c10,16,29,24,11,45c-31,1-45,2-75,12c-28-8-54-23-22-50
				C3228,1603,3235,1599,3240,1596L3240,1596z"/>
			<path fill="#D42311" d="M3040,1585c8,9,9,20,20,24c38,20,77,21,114-1c14-5,16-14,24-17l2,3c-7,55-121,62-151,24
				C3039,1606,3039,1601,3040,1585z"/>
			<path fill="#E0752C" d="M3228,1662c-19-11-42-24-18-52c2-3,9-7,13-7c-32,27-6,43,22,50C3239,1657,3234,1660,3228,1662L3228,1662z
				"/>
			<path fill="#EF4708" d="M2985,1916c0-76,183-80,183-2c0,19-1,22-13,37c-36,43-171,39-170-32C2984,1918,2985,1917,2985,1916
				L2985,1916z"/>
			<path fill="#D42311" d="M3135,1943c15-6,23-17,33-29c0,19-1,22-13,37c-36,43-171,39-170-32c0-1,0-2,0-3c9,4,9,15,23,22
				c30,19,63,24,98,16C3116,1951,3126,1948,3135,1943z"/>
			<path fill="#E31D01" d="M2985,1916c0-76,183-80,183-2c-10,12-18,24-33,29c8-8,17-15,20-26c2-7,1-15-3-21c-22-36-104-39-138-16
				c-24,17-24,35-8,58C2994,1931,2994,1919,2985,1916z"/>
			<path fill="#EF4708" d="M2992,1710c10-44,77-52,112-43c34,9,49,23,48,58c-11,39-67,47-101,44c-13-2-21-5-33-10
				C2996,1744,2991,1735,2992,1710z"/>
			<path fill="#D42311" d="M2992,1710c7,10,9,19,20,24c32,18,60,20,95,10c4-1,14-6,17-7c13-4,15-13,26-20l2,1l1,7
				c-11,39-67,47-101,44c-13-2-21-5-33-10C2996,1744,2991,1735,2992,1710L2992,1710z"/>
			<path fill="#E31D01" d="M2992,1710c10-44,77-52,112-43c34,9,49,23,48,58l-1-7l-2-1c-11,7-12,16-26,20c11-11,23-25,12-42
				c-26-42-169-26-124,39C3001,1729,2999,1720,2992,1710L2992,1710z"/>
			<path fill="#EF4708" d="M3119,1799c16-61,162-57,160,1c0,2,0,5,0,7c-1,51-126,56-151,21C3118,1815,3118,1815,3119,1799z"/>
			<path fill="#D42311" d="M3119,1799c6,8,14,19,23,22c35,18,76,17,112-1c15-5,14-11,25-20c0,2,0,5,0,7c-1,51-126,56-151,21
				C3118,1815,3118,1815,3119,1799z"/>
			<path fill="#E31D01" d="M3119,1799c16-61,162-57,160,1c-11,9-10,15-25,20c35-35-4-54-37-58c-24-3-55,1-75,16c-17,13-11,28,1,42
				C3133,1817,3126,1807,3119,1799z"/>
			<path fill="#FEDC7A" d="M3018,1758c12,5,20,8,33,10c12,12,18,16,22,33c6,45-112,44-120,1c-2-10,3-29,13-31
				C2985,1759,2996,1762,3018,1758z"/>
			<path fill="#E0752C" d="M3073,1801c6,45-112,44-120,1c-2-10,3-29,13-31c-35,53,85,68,105,32C3072,1803,3073,1802,3073,1801
				L3073,1801z"/>
			<path fill="#FEAE64" d="M2460,592c-5-70-6-143-10-214c-2-27-4-54-7-81c-4-37-11-58,19-87c61-58,155-73,236-73
				c128,0,262,36,366,112c22,16,39,33,58,51c20,23,46,61,44,93c-1,15-66,140-76,162c-20,43-40,87-55,132l-1,5c1,38-5,69-19,104
				c7,1,12,2,18,3c10,0,38-7,43,5c11,26-16,53-33,64c10-3,24-9,34-3c14,8,1,31-5,39c-7,9-15,17-24,23c35,46,16,119-28,153
				c-14,11-27,9-39,15c-2,5-5,14-8,18c-4,5-5,43-29,55c-2,1-8,8-13,9c-9,11-27,22-38,30c-70,46-148,86-230,104c-5,1-15,3-19,4
				c-15,2-15-6-28-8c-18-3-24,8-42,1c-7-5-24-8-33-10c-15,2-19,2-31,10c-4,0-7-1-11-1c-5-4-10-7-15-11c-16-13-55-52-58-71
				c-26-22-34-34-56-55c0-2-16-25-18-31c-27-68-18-137,26-196c-1-36,1-68,39-82c-9-14-22-39,3-44h2c-6-14-21-29-15-47
				c6-18,38-8,43-27c2-8-1-20-5-27c-12-35-4-89,16-120L2460,592z"/>
			<path fill="#F1EADF" d="M2460,592c-5-70-6-143-10-214c-2-27-4-54-7-81c-4-37-11-58,19-87c61-58,155-73,236-73
				c128,0,262,36,366,112c22,16,39,33,58,51c20,23,46,61,44,93c-1,15-66,140-76,162c-20,43-40,87-55,132l-1,5c1,38-5,69-19,104
				c-39-14-78-43-113-66c-92-59-206-77-313-71c-52,3-109,16-144,58c-12-35-4-89,16-120L2460,592z"/>
			<path fill="#F1EADF" d="M2462,596c-1,0,54-39,76-45c133-36,290,1,409,66c16,9,37,27,51,39c9,7,31,34,37,35c1,38-5,69-19,104
				c-39-14-78-43-113-66c-92-59-206-77-313-71c-52,3-109,16-144,58C2434,681,2442,627,2462,596z"/>
			<path fill="#F1EADF" d="M3122,300c20,23,46,61,44,93c-1,15-66,140-76,162c-20,43-40,87-55,132c-10-17-34-39-50-51
				c28-73,58-146,88-219c14-34,30-68,45-101c2-5,1-5-1-10L3122,300z"/>
			<path fill="#A1998D" d="M2688,532c4-36,44-366,57-379l3,1c3,6-9,64-11,77c-9,57-17,115-25,173c-6,42-12,87-14,129
				c31,2,74,11,104,18c8-30,15-69,22-100c14-61,29-121,45-181c6-21,17-69,26-86h2c2,13-24,101-29,120c-21,82-41,165-58,248
				c36,10,62,19,95,33c27-92,58-183,91-274c9-23,17-47,26-70c1-4,2-4,5-5l2,2c1,6-23,67-26,77c-32,90-62,182-90,274
				c23,12,48,24,68,41c15-44,118-302,139-325c2,4,3,5,1,10c-15,33-31,67-45,101c-31,72-60,145-88,219c16,12,40,34,50,51l-1,5
				c-6-1-28-28-37-35c-14-12-35-29-51-39c-119-65-276-102-409-66c-23,6-77,45-76,45l-2-5c11-12,23-22,37-30c-3-42-8-349-2-364l3-1
				l2,1c1,2,1,4,1,6c-1,101,0,202,2,303c0,17,1,33,1,50c23-12,49-19,75-23c-1-113,9-229,12-342c0-7,0-34,7-37c6,8,2,41,1,52l-4,82
				c-3,81-6,163-7,244C2618,529,2658,529,2688,532L2688,532z"/>
			<path fill="#241F1B" d="M2446,716c36-41,92-55,144-58c107-6,221,12,313,71c36,23,74,52,113,66c7,1,12,2,18,3c10,0,38-7,43,5
				c11,26-16,53-33,64c10-3,24-9,34-3c14,8,1,31-5,39c-7,9-15,17-24,23c-23-22-41-25-71-16c-6,3-9,4-15,5c-7,6,3,56-17,65
				c-4-1-6-1-8-5c-43-60-37-162-29-230c-95-72-362-129-449-28c-3,45-11,127-29,168c-4,10-23,28-32,37c1-3,3-6,4-8c4-10,19-43,15-52
				c-9-14-22-39,3-44h2c-6-14-21-29-15-47c6-18,38-8,43-27C2453,735,2450,723,2446,716L2446,716z"/>
			<path fill="#332D29" d="M2963,915c-2-5-2-7-1-12c7-6,12,1,16,7C2972,912,2969,914,2963,915L2963,915z"/>
			<path fill="#332D29" d="M2427,1225c32,25,77,60,115,73c-15,2-19,2-31,10c-4,0-7-1-11-1c-5-4-10-7-15-11
				C2468,1284,2429,1244,2427,1225z"/>
			<path fill="#241F1B" d="M2932,1177c11-14,23-37,30-54c4-10,5-20,9-31c4-1,7,0,11,2c-2,5-5,14-8,18c-4,5-5,43-29,55
				C2944,1169,2937,1176,2932,1177L2932,1177z"/>
			<path fill="#241F1B" d="M2566,892c58-4,112,16,122,79c29-3,30,22,53,34c10,5,31,14,39,2c6-8,10-21,24-16c16,6,21,34,14,49
				c-18,34-62,52-98,56c-2,0-3,0-5,0c-8,19-14,29-29,45c-37,31-94,41-137,16c-28-19-35-36-43-67c-34-2-63-8-89-32
				c-13-12-21-26-22-44c0-14,5-36,23-36c10,0,10,13,16,18c10,11,28-1,37-8c9-7,18-16,27-24c1-2,0-11,2-17c6-22,14-30,32-42
				C2548,899,2551,897,2566,892L2566,892z"/>
			<path fill="#E0752C" d="M2566,892c58-4,112,16,122,79c-24,69-161,84-189-8c1-2,0-11,2-17c6-22,14-30,32-42
				C2548,899,2551,897,2566,892z"/>
			<path fill="#EF4708" d="M2550,1157c12-14,30-26,50-27c6,0,8,2,12,6c5,0,10-5,15-6c18-5,43,4,59,10C2650,1172,2593,1182,2550,1157
				L2550,1157z"/>
			<path fill="#F1EADF" d="M2597,1071c28,20,58,23,91,27c-22,8-40,11-63,12c-35,0-60-2-92-21C2557,1085,2575,1082,2597,1071z"/>
			<path fill="#241F1B" d="M2712,696c49-3,106,26,124,74c4,9,8,32-5,35c-5-1-6-3-9-6l-1-1c-28-31-64-45-105-48c-8-1-24,2-30-3
				c-10-8-5-31,3-40C2695,697,2703,697,2712,696z"/>
			<path fill="#241F1B" d="M2545,693c21-2,41-1,51,21c9,21,2,36-22,34c-26-2-40-3-63,7c-11,5-29,23-38,19c-1-1-2-3-2-5
				c-2-34,26-61,55-72C2533,696,2539,695,2545,693z"/>
			<path fill="#E0752C" d="M3010,943c40,2,36,53,23,79c-14,27-25,14-44,21h-1c-5,2-8,4-12,3c-3-15,37-28-9-65
				C2979,963,2988,949,3010,943L3010,943z"/>
			<path fill="#241F1B" d="M2744,841c49-3,47,68,7,88C2704,931,2704,861,2744,841z"/>
			<path fill="#241F1B" d="M2533,905c-10-6-13-9-18-19c-19-40,29-102,59-47c8,14-1,40-8,53C2551,897,2548,899,2533,905z"/>
			<path fill="#E0752C" d="M2483,1224c4,1,9,5,12,8c48,42,116,46,173,20c9-4,42-28,49-25c-1,6-1,4-5,9c-5,4-9,8-14,12
				c-63,52-149,53-209-9C2484,1235,2482,1231,2483,1224L2483,1224z"/>
			<path fill="#FEAE64" d="M1946,1011c3-25,6-49,10-75c4-29,36-38,53-15c11,14,8,47,8,65c10-16,67-121,97-48c8,20-32,81-44,105
				c12-9,22-16,37-20c46-13,98,37,100,82c0,5,0,12-1,17c42,10,16,41,10,68c-5,22-14,46-25,66c-9,12-43,47-55,55c8,12,13,21,20,34
				c33-21,126-65,164-76c-19,34-38,63-55,99c-49,102-89,215-102,328c0,1,0,1,0,2l-1-3c-3-1-44,8-53,9c-121,9-220-51-233-178
				c-35-46-34-61-21-115c2-9,2-25,4-36c6-36,26-59,51-83c-14-37-14-61-12-100c3-61-13-122-19-183c-2-16,3-29,20-34
				C1928,964,1938,990,1946,1011L1946,1011z"/>
			<path fill="#F1EADF" d="M2156,1344c33-21,126-65,164-76c-19,34-38,63-55,99c-49,102-89,215-102,328c0,1,0,1,0,2l-1-3
				c-3-1-44,8-53,9c-121,9-220-51-233-178c-35-46-34-61-21-115c2-9,2-25,4-36c6-36,26-59,51-83c4,7,5,10,10,16c-21,30-31,67-24,104
				c28,87,146,56,191,2c22-26,27-50,24-83l18-13c1-2,5-4,6-6C2144,1322,2149,1331,2156,1344L2156,1344z"/>
			<path fill="#F1EADF" d="M2129,1316c48,80,40,166-45,216c-42,25-99,38-147,26c-11-3-22-7-32-13c3-28,20-62-4-80c-12-9-16-14-21-27
				c4-14,4-20,15-30c28,87,146,56,191,2c22-26,27-50,24-83L2129,1316z"/>
			<path fill="#A1998D" d="M2129,1316c1-2,5-4,6-6c8,12,13,21,20,34c13,31,12,41,16,73c1,9,7,29,8,39c6,36,3,73-11,106
				c-2,5-5,11-9,14l-3-1c0-6,2-8,4-14c11-37,12-76,5-114c-16,49-41,77-90,104c-56,30-149,40-195-16c-2-2-2-6-1-8c9,8,16,13,26,18
				c10,6,21,10,32,13c48,12,105-1,147-26C2169,1481,2177,1396,2129,1316L2129,1316z"/>
			<path fill="#E0752C" d="M1946,1011c3-25,6-49,10-75c4-29,36-38,53-15c11,14,8,47,8,65c10-16,67-121,97-48c8,20-32,81-44,105
				c12-9,22-16,37-20c46-13,98,37,100,82c0,5,0,12-1,17c42,10,16,41,10,68c-5,22-14,46-25,66c-9,12-43,47-55,55c-2,2-5,4-6,6l-18,13
				c-4,2-9,4-13,5c-14,7-34,9-49,11c11-7,33-16,47-24c29-18,52-43,78-66c14-13,24-66,35-84c5-9,16-28,5-34c-12-7-28,3-41,6
				c-13,13-15,20-21,37c-7,19,0,18,10,34c2,4,4,12,5,16c-11-8-18-21-30-28c-11-7-25-4-36-12c-17-12-21-48-24-68c11-8,22-15,34-22
				c9-5,6-4,11-12c7,3,26,39,44,40c47,1,31-46,9-67c-45-43-66-33-110,0l-6,16c-2,6-4,11-10,13l-2-2c-2-13,7-40,12-54
				c9-26,80-100,25-113c-15-4-32,31-38,39c-31,38-31,63-31,111c0,7-1,17-7,23l-2-1c-7-12,6-129,4-148c-1-7-5-21-12-25
				c-27-11-34,3-35,27c-1,31-7,62-6,94c0,14,15,65,9,74h-3c-3-4-4-16-6-22c-9-34-13-76-33-106c-9-14-44-8-39,16c10,34,13,70,23,104
				c21,72-17,153,38,213c9,10,20,18,30,27c-27-8-37-17-56-37l-1-6c-5-6-6-9-10-16c-14-37-14-61-12-100c3-61-13-122-19-183
				c-2-16,3-29,20-34C1928,964,1938,990,1946,1011L1946,1011z"/>
			<path fill="#FFFFFF" d="M2122,1110c15,14,11,20,36,30c-16,16-15,24-22,44l-3,1c-33-4-33-26-39-55C2103,1122,2112,1116,2122,1110
				L2122,1110z"/>
			<path fill="#746C61" d="M1920,1306l1,6c-6,31-20,81-1,108c27,41,95,27,129,3c31-22,49-50,49-89c4-2,9-4,13-5c3,33-2,57-24,83
				c-45,54-163,84-191-2C1889,1373,1899,1336,1920,1306L1920,1306z"/>
			<path fill="#E0752C" d="M2049,1198c1,4-7,25-9,31c23,25,28,57,12,88c-2,4-10,13-15,11c0-5,5-12,7-16c11-27,6-57-15-78
				c-6-6-15-12-19-18l3-1c7,2,14,7,20,10C2038,1214,2041,1206,2049,1198L2049,1198z"/>
			<path fill="#332D29" d="M2994,2139c0-3,1-5,1-8c1,0,114,0,116,0l1,3c-7,134-16,269-27,403l9,4c3,1,6,2,6,5c1,8,2,17,2,25
				c-2,27,0,50-33,50c3,17,5,23,15,38c12,16,57,59,40,82c14,24,11,44-19,52c-64,18-143,25-204-4c-33-16-44-40-55-73
				c-62,17-56-46-48-86c-26-16-58-59-27-85l1-2c-9-33-29-89-40-123c12,0,38-4,50-6c77-10,152-30,224-61c-3-19-4-53-5-73L2994,2139z"
				/>
			<path fill="#241F1B" d="M2799,2632c82,24,161-28,245-13c7,1,20,1,26,4c3,17,5,23,15,38c12,16,57,59,40,82c14,24,11,44-19,52
				c-64,18-143,25-204-4c-33-16-44-40-55-73C2785,2735,2791,2671,2799,2632z"/>
			<path fill="#332D29" d="M2878,2723c31-65,98-92,167-75c13,3,26,12,39,13c12,16,57,59,40,82c-27,13-71,19-101,20
				C2974,2765,2916,2758,2878,2723z"/>
			<path fill="#332D29" d="M3086,2538l9,4c3,1,6,2,6,5c1,8,2,17,2,25c-2,27,0,50-33,50c-5-3-19-3-26-4c-84-16-162,37-245,13
				c-26-16-58-59-27-85l1-2c7-1,54,11,68,13C2923,2567,3006,2560,3086,2538L3086,2538z"/>
			<path fill="#241F1B" d="M3086,2538l9,4c-11,15-179,30-202,29c-24-1-105-3-120-24l1-2c7-1,54,11,68,13
				C2923,2567,3006,2560,3086,2538L3086,2538z"/>
		</g>
	</g>
</g>
</svg>
