<?xml version="1.0" encoding="utf-8"?>
<!-- Generator: Adobe Illustrator 27.9.0, SVG Export Plug-In . SVG Version: 6.00 Build 0)  -->
<svg version="1.1" id="svg" xmlns="http://www.w3.org/2000/svg" xmlns:xlink="http://www.w3.org/1999/xlink" x="0px" y="0px"
	 viewBox="0 0 5528 3000" enable-background="new 0 0 5528 3000" xml:space="preserve">
<g>
	<g>
		<defs>
			<rect id="SVGID_1_" x="0" width="5527" height="3000"/>
		</defs>
		<clipPath id="SVGID_00000116957496176887279850000010829833429660453516_">
			<use xlink:href="#SVGID_1_"  overflow="visible"/>
		</clipPath>
		<g clip-path="url(#SVGID_00000116957496176887279850000010829833429660453516_)">
			<path fill="#1A1A1E" d="M0,0h5528v3000H0V0z"/>
			<path fill="#657395" d="M750,1450c2-6,8-11,14-13c29-11,59-13,77,16c17,26,30,54,43,83c17,35,33,69,52,103c3,6,14,27,18,31l1,4
				l4,10c2,5,4,9,6,14c3,7,7,19,13,24c1,3,2,6,2,9l4,2c4-3,4-6,6-12c2-5,5-8,9-13c8-5,9-6,18-8c12,3,26,6,37,11l12,5c5-1,4,0,8-3
				l-1-4c8,3,18,7,26,9l7,2c1,4,2,8,3,11l5,13l5,5c0,5,1,5-1,8h-3v4c-2,1-2,1-5,2l-1,1h-1c-14,21-22,47-46,52h-2h-1c4,3,8,6,12,9
				c-6,7-12,12-17,20c4-3,8-5,13-7c-4,5-20,23-21,28c4,1,13,2,17,3c6,2,13,15,20,14c2,12,5,14,13,22c1,6,3,18,5,23c2-8,4-26,9-31
				c17,23,40,42,57,64l14-9c14-8,25-16,38-25c13-7,27-17,39-25l27-18c7-4,12-8,18-13c5-2,15-10,20-13c4-2,8-5,12-7v-1
				c1-9,7-26,10-35c0-4,3-9,4-13l3-6l2-6c17,5,63,16,54,40c-5,16-35,32-49,41l7,196c1,16,7,113-2,120c-14,11-51,30-68,43
				c6,4,19,7,26,9c31,11,76,27,109,30c14,0,38-7,49,1c2,7,0,8-4,14c27,5,141,21,160,33c2,10,1,42,1,54c30,7,125,23,59,62
				c-40,24-80,44-121,64c-52,25-105,50-158,75c-47,22-94,44-142,65c-114,51-109,51-230,24c-41-10-83-19-125-27
				c-135-28-272-46-404-86c-16-5-83-21-92-28c-9-2-65-11-66-18c-2-17-3-60,2-76c12-16,83-49,104-59l3-4c-4-8,30-71,39-79
				c10-8,11-9,24-9c38-5,64-11,100-22c-3-36-13-89-18-126c-9-62-18-125-28-187c-22-10-78-23-40-56c12-11,46-25,62-32
				c28-14,55-29,83-44l-3,5c5,2,11-1,18-2c-1,6-1,8-7,10c6,4,11,9,16,15l4,2l-3-16c6-3,11-6,17-9l-4-11v-4c-1-3-2-6-3-9
				c-2-7-4-13-3-20c7,1,21-3,28-4c31-11,32,6,41,32l3-2c2,2,2,1,3,3c0-1,0-1,1-2c15-20,30-11,46,0l1-6h1c3,4,2,3,6,4c4-3,5-6,6-11
				l5-8c4-2,10-2,14-3h3c5-3,11-6,16-10c-4-11-11-23-16-34l-5-10l-1-5l-4-7c-3-8-8-17-12-25C820,1606,788,1526,750,1450L750,1450z"
				/>
			<path fill="#F8F2F2" d="M1295,2231c6,4,19,7,26,9c31,11,76,27,109,30c14,0,38-7,49,1c2,7,0,8-4,14c27,5,141,21,160,33
				c2,10,1,42,1,54c30,7,125,23,59,62c-40,24-80,44-121,64c-52,25-105,50-158,75c-47,22-94,44-142,65c-114,51-109,51-230,24
				c-41-10-83-19-125-27c-135-28-272-46-404-86c-16-5-83-21-92-28c-9-2-65-11-66-18c-2-17-3-60,2-76c12-16,83-49,104-59l3-4
				c-4-8,30-71,39-79c10-8,11-9,24-9c38-5,64-11,100-22c8,37,71,36,94,58c15,15,23,7,41,16c10,5,12,13,25,20c19,0,20,0,37,9
				c9,23,30,14,53,26c3,6,7,14,14,15c22,5,24,2,44,13c16,45,57,3,85-9c22,6,33,7,37-19c3-4,15-10,19-12c27,7,29-1,37-24l-2-4
				c0-7-1-9,3-13c5-1,6-2,11-4h1c-4-3-10-5-15-8c0-7-2-16,2-21c7-4,15-10,22-14c7,2,15,5,21,8h1c0,2,10-29,9-28h1c0,7-1,15-1,22
				l13,6c13-7,21-11,31-21c0,4,1,6-1,9c6,1,7,0,9,4l1,7c0-3,0-8,0-11v-8l14-7v5c25,0,37,7,43-26L1295,2231z"/>
			<path fill="#E87E37" d="M1476,2285c27,5,141,21,160,33c2,10,1,42,1,54c30,7,125,23,59,62c-40,24-80,44-121,64
				c-52,25-105,50-158,75c-47,22-94,44-142,65c-114,51-109,51-230,24c-41-10-83-19-125-27c-135-28-272-46-404-86c-16-5-83-21-92-28
				c-9-2-65-11-66-18c-2-17-3-60,2-76c12-16,83-49,104-59c7,5,9,5,17,8c-5,7-11,18-16,24c-10,13-19,27-29,40c-4,5-10,12-12,18
				c1,6,0,4,4,8c6,2,26-2,34-2c46-2,96-1,141,5c35,10,99,20,136,26c92,16,184,31,276,45c23,3,45,6,68,9c7,1,33,3,38,4
				c38,0,118-42,155-60l2-1c5-2,10-5,14-7c7,3,11,4,19,6c3-6,5-12,7-19l10-4l2-1c1-7,5-22,3-28c2-5,5-8,9-11c12-13,25-28,40-39
				c14-12,37-22,49-36c15-18,28-43,41-63L1476,2285z"/>
			<path fill="#CC602F" d="M1476,2285c27,5,141,21,160,33c2,10,1,42,1,54c0,6-1,14-5,17c-12,7-26,14-38,20l-86,45l-243,124
				c-38,19-75,38-113,56c-9,4-17,8-27,7c-2-20-6-69-4-87c38,0,118-42,155-60l2-1c5-2,10-5,14-7c7,3,11,4,19,6c3-6,5-12,7-19l10-4
				l2-1c1-7,5-22,3-28c2-5,5-8,9-11c12-13,25-28,40-39c14-12,37-22,49-36c15-18,28-43,41-63L1476,2285z"/>
			<path fill="#FA9E39" d="M1476,2285c27,5,141,21,160,33c-25,10-48,24-72,36l-166,82c-16,8-52,27-68,33c1-7,5-22,3-28c2-5,5-8,9-11
				c12-13,25-28,40-39c14-12,37-22,49-36c15-18,28-43,41-63L1476,2285z"/>
			<path fill="#E87E37" d="M1471,2291c8,3,21,7,27,11c6,17-147,128-156,127c12-13,25-28,40-39c14-12,37-22,49-36
				C1445,2336,1458,2311,1471,2291z"/>
			<path fill="#BE4A22" d="M1327,2470c1,5-3,43-4,50c-10-7-17-12-28-17c-4-2-16-7-18-9c5-2,10-5,14-7c7,3,11,4,19,6c3-6,5-12,7-19
				L1327,2470z"/>
			<path fill="#BBBDE4" d="M1637,2372c30,7,125,23,59,62c-40,24-80,44-121,64c-52,25-105,50-158,75c-47,22-94,44-142,65
				c-114,51-109,51-230,24c-41-10-83-19-125-27c-135-28-272-46-404-86c-16-5-83-21-92-28c49,8,100,19,149,29c183,36,368,61,552,92
				c10,1,18-3,27-7c38-18,76-38,113-56l243-124l86-45c12-6,26-13,38-20C1636,2386,1636,2378,1637,2372L1637,2372z"/>
			<path fill="#FA9E39" d="M463,2368c7,5,9,5,17,8c-5,7-11,18-16,24c-10,13-19,27-29,40c-15-4-62-13-75-14
				C370,2411,442,2378,463,2368L463,2368z"/>
			<path fill="#DFD1DE" d="M1295,2231c6,4,19,7,26,9c31,11,76,27,109,30c-45,10-120,14-166,19c25,13,56,23,83,32c18,6,45,11,61,21
				c0,3,0,4-1,6c-15,21-130,37-160,45c-35,10-66,28-103,32c-30,3-61,1-91,3c-50,3-100,12-151,8c-37-2-67-21-102-28c-22-5-44-7-66-10
				c-55-7-109-14-161-33c-8-3-20-7-27-12c-2-2-4-4-5-7c0-6,3-8,8-11c35-16,74-31,110-46c-40-3-92-13-130-14c38-5,64-11,100-22
				c8,37,71,36,94,58c15,15,23,7,41,16c10,5,12,13,25,20c19,0,20,0,37,9c9,23,30,14,53,26c3,6,7,14,14,15c22,5,24,2,44,13
				c16,45,57,3,85-9c22,6,33,7,37-19c3-4,15-10,19-12c27,7,29-1,37-24l-2-4c0-7-1-9,3-13c5-1,6-2,11-4h1c-4-3-10-5-15-8
				c0-7-2-16,2-21c7-4,15-10,22-14c7,2,15,5,21,8h1c0,2,10-29,9-28h1c0,7-1,15-1,22l13,6c13-7,21-11,31-21c0,4,1,6-1,9c6,1,7,0,9,4
				l1,7c0-3,0-8,0-11v-8l14-7v5c25,0,37,7,43-26L1295,2231z"/>
			<path fill="#616C8D" d="M1158,2289c0,2,10-29,9-28h1c0,7-1,15-1,22l13,6c-4,3-6,3-11,4c-2,3-1,6-1,10l1,7c-5,37-22,22-43,27
				c-3,4-7,6-12,8l-2-4c0-7-1-9,3-13c5-1,6-2,11-4h1c-4-3-10-5-15-8c0-7-2-16,2-21c7-4,15-10,22-14C1143,2283,1151,2286,1158,2289
				L1158,2289z"/>
			<path fill="#DFD1DE" d="M1114,2295c7-4,15-10,22-14c7,2,15,5,21,8c0,6,0,12,0,18c-5,3-27,15-31,17c-4-3-10-5-15-8
				C1111,2310,1110,2300,1114,2295z"/>
			<path fill="#BBBDE4" d="M1158,2289L1158,2289c1,8,1,16,1,24c-6,3-15,9-19,13c-3,2-7,5-10,5c-1,2-3,4-3,6c-3,4-7,6-12,8l-2-4
				c0-7-1-9,3-13c5-1,6-2,11-4h1c4-1,26-14,31-17C1158,2301,1158,2295,1158,2289z"/>
			<path fill="#7581A3" d="M1112,2341c5-4,12-10,18-10c-1,2-3,4-3,6c-3,4-7,6-12,8L1112,2341z"/>
			<path fill="#8D9BBC" d="M1140,2326c4-4,13-10,19-13c-1,5-2,8-5,13C1148,2329,1146,2328,1140,2326z"/>
			<path fill="#616C8D" d="M1212,2269c0,4,1,6-1,9c6,1,7,0,9,4l1,7c-12,19-20,17-40,14l-1-5l-12,6c0-4-1-7,1-10c5,0,7-1,11-4
				C1194,2283,1202,2279,1212,2269z"/>
			
				<linearGradient id="SVGID_00000153664548488455296010000003653132759356081297_" gradientUnits="userSpaceOnUse" x1="1188.85" y1="3059.5618" x2="1193.2501" y2="3072.7307" gradientTransform="matrix(1 0 0 1 0 -778)">
				<stop  offset="0" style="stop-color:#8191B9"/>
				<stop  offset="1" style="stop-color:#A3A7C4"/>
			</linearGradient>
			<path fill="url(#SVGID_00000153664548488455296010000003653132759356081297_)" d="M1212,2269c0,4,1,6-1,9v1c-1,4-2,4-2,9
				c-7,10-14,3-28,10l-12,6c0-4-1-7,1-10c5,0,7-1,11-4C1194,2283,1202,2279,1212,2269z"/>
			<path fill="#7581A3" d="M1235,2263v5c-2,4-9,8-13,10v-8L1235,2263z"/>
			<path fill="#7581A3" d="M1181,2297l1,5c-4,3-7,5-12,7l-1-7L1181,2297z"/>
			<path fill="#FA9E39" d="M703,2464c15,8,67,9,86,11c91,9,181,14,273,10c37-2,77,2,114,2c19,1,82-1,98,9c-37,18-117,59-155,60
				c-5-1-31-3-38-4c-23-3-45-5-68-9c-92-14-184-29-276-45c-37-8-101-18-136-28C619,2470,691,2472,703,2464L703,2464z"/>
			<path fill="#E87E37" d="M703,2464c7-5,45-2,55-2c52,0,102,12,153,15c31,2,64-4,95-5c94-3,194-18,284,15c-5,2-9,5-14,7l-2,1
				c-16-10-79-8-98-9c-37-1-77-4-114-2c-92,4-182-1-273-10C770,2472,718,2471,703,2464z"/>
			<path fill="#DFD1DE" d="M466,2364c37,18,56,13,90,24c14,5,57,38,75,49c-39-5-77-5-114-15c-18-5-37-16-53-21c5-7,11-17,16-24
				c-8-3-10-4-17-8L466,2364z"/>
			<path fill="#E87E37" d="M1333,2441c2,6-2,21-3,28l-2,1l-10,4C1321,2462,1326,2452,1333,2441L1333,2441z"/>
			<path fill="#FB8A09" d="M750,1450c2-6,8-11,14-13c29-11,59-13,77,16c17,26,30,54,43,83c17,35,33,69,52,103c3,6,14,27,18,31l1,4
				l4,10c2,5,4,9,6,14c3,7,7,19,13,24c1,3,2,6,2,9l4,2c4-3,4-6,6-12c2-5,5-8,9-13c8-5,9-6,18-8c12,3,26,6,37,11l12,5c5-1,4,0,8-3
				l-1-4c8,3,18,7,26,9l7,2c1,4,2,8,3,11l5,13l5,5c0,5,1,5-1,8h-3v4c-2,1-2,1-5,2l-1,1h-1c-14,21-22,47-46,52h-2h-1c4,3,8,6,12,9
				c-6,7-12,12-17,20c4-3,8-5,13-7c-4,5-20,23-21,28c4,1,13,2,17,3c6,2,13,15,20,14c2,12,5,14,13,22c1,6,3,18,5,23
				c-3,22-11,65-10,84c-61,41-91,76-164,34l-14-5c-10-4-21-7-31-12c-16-6-32-13-49-19c-24-11-64-26-88-35c5-19-18-101-26-122
				c-1-4-6-9-9-12l2-4l4,2l-3-16c6-3,11-6,17-9l-4-11v-4c-1-3-2-6-3-9c-2-7-4-13-3-20c7,1,21-3,28-4c31-11,32,6,41,32l3-2
				c2,2,2,1,3,3c0-1,0-1,1-2c15-20,30-11,46,0l1-6h1c3,4,2,3,6,4c4-3,5-6,6-11l5-8c4-2,10-2,14-3h3c5-3,11-6,16-10
				c-4-11-11-23-16-34l-5-10l-1-5l-4-7c-3-8-8-17-12-25C820,1606,788,1526,750,1450L750,1450z"/>
			<path fill="#FEDB28" d="M750,1450c2-6,8-11,14-13c29-11,59-13,77,16c17,26,30,54,43,83c17,35,33,69,52,103c3,6,14,27,18,31l1,4
				l4,10c2,5,4,9,6,14c3,7,7,19,13,24c1,3,2,6,2,9l4,2c4-3,4-6,6-12l1,11l-4,11c3,8,17,42,21,48c0,4-1,6,1,8c15,11,18,8,23,27
				c-38-51-79,10-112-23c-2-8-17-31-24-36l-2-2c-4-11-11-23-16-34l-5-10l-1-5l-4-7c-3-8-8-17-12-25C820,1606,788,1526,750,1450
				L750,1450z"/>
			<path fill="#FEB604" d="M750,1450c13-6,14-10,31-14c16,29,34,68,49,98c25,53,51,105,77,158c14,27,33,68,50,92c10-4,16-7,21-18
				c1-3,3-7,4-11l-5-21h1c0-3-1-7-2-10l2,3h2l1,2l4,2c4-3,4-6,6-12l1,11l-4,11c3,8,17,42,21,48c0,4-1,6,1,8c15,11,18,8,23,27
				c-38-51-79,10-112-23c-2-8-17-31-24-36l-2-2c-4-11-11-23-16-34l-5-10l-1-5l-4-7c-3-8-8-17-12-25C820,1606,788,1526,750,1450
				L750,1450z"/>
			<path fill="#FDA804" d="M750,1450c2-6,8-11,14-13c29-11,59-13,77,16c17,26,30,54,43,83c17,35,33,69,52,103c3,6,14,27,18,31l1,4
				l4,10c2,5,4,9,6,14c3,7,7,19,13,24c1,3,2,6,2,9l-1-2h-2l-2-3c1,3,2,7,2,10h-1c-5-9-16-37-22-49c-13-25-25-50-39-74
				c-5-10-15-30-22-38c-14-32-37-81-55-110c-2-6-11-18-17-21c-16-9-25-9-42-5C764,1440,763,1445,750,1450L750,1450z"/>
			<path fill="#FEE424" d="M895,1573c-1,2-1,2-3,3l-3-2c-5-13-53-103-53-108l4-3C858,1492,881,1541,895,1573L895,1573z"/>
			<path fill="#FEB604" d="M1052,1844c4-3,8-5,13-7c-4,5-20,23-21,28c4,1,13,2,17,3c6,2,13,15,20,14c2,12,5,14,13,22c1,6,3,18,5,23
				c-3,22-11,65-10,84c-61,41-91,76-164,34c-8-21-33-103-31-123c1-6,2-11,7-14c11-8,39-10,52-7c14,3,20,17,27,28c0-7,0-14,1-21l-2-2
				c-2-17,22-25,35-27C1034,1870,1038,1861,1052,1844z"/>
			<path fill="#FEE424" d="M1052,1844c4-3,8-5,13-7c-4,5-20,23-21,28c4,1,13,2,17,3c6,2,13,15,20,14c2,12,5,14,13,22l-6-2l1,6
				c-9,8-26,10-38,14v3l3,1c-10,4-27,11-37,14c-1,1-2,3-3,4c-7-11-23-27-32-37l-2-2c-2-17,22-25,35-27
				C1034,1870,1038,1861,1052,1844z"/>
			<path fill="#FEB604" d="M1052,1844c4-3,8-5,13-7c-4,5-20,23-21,28c4,1,13,2,17,3c6,2,13,15,20,14c2,12,5,14,13,22l-6-2l1,6
				c-30-40-27-41-73-27l-1-2C1034,1870,1038,1861,1052,1844z"/>
			<path fill="#FDA804" d="M981,1909l-2-2c-2-17,22-25,35-27l1,2c-10,4-24,7-29,16c-2,13,23,33,34,37l30-12v3l3,1c-10,4-27,11-37,14
				c-1,1-2,3-3,4C1006,1934,990,1918,981,1909z"/>
			<path fill="#FB8A09" d="M981,1909c9,9,25,26,32,37c4,12,2,64,2,81c-10-35-23-63-35-97C980,1923,980,1916,981,1909z"/>
			<path fill="#FEE424" d="M930,1905c15-1,27-3,35,13c10,20,32,55,26,78c-2,8-21,11-28,13c-9,1-33,5-39-1c-10-13-16-40-20-56
				C896,1918,896,1911,930,1905z"/>
			<path fill="#FDA804" d="M747,1765c31-11,32,6,41,32l3-2c2,2,2,1,3,3c3,6,4,7,8,13c-2,1-4,4-6,5l6,13c11,6,43,73,53,89
				c6,3,17,7,22,11c-7-2-2,2-8-1v1l4,4c0,3-1,5-3,6c-13,17-26,29-47,37h7c4,5,3,12,5,19c-1,1-5,5-6,6l1,9c-24-11-64-26-88-35
				c5-19-18-101-26-122c-1-4-6-9-9-12l2-4l4,2l-3-16c6-3,11-6,17-9l-4-11v-4c-1-3-2-6-3-9c-2-7-4-13-3-20
				C726,1769,740,1766,747,1765z"/>
			<path fill="#FEDB28" d="M790,1958c-3-14-2-19-7-36c-8-28-28-62-29-91c0-4,3-6,5-7c3,0,8,1,10,4c16,35,30,78,70,90c8,3,19,7,27,11
				c4,2,4,5,4,9c-13,17-26,29-47,37C807,1974,803,1970,790,1958z"/>
			<path fill="#FB8A09" d="M729,1813c4,16,9,34,13,50h3c2,5,4,16,7,18c1-2,1-3,3-5c6,27,11,56,20,82c15,8,35,19,47,30c3,3,6,10,8,13
				l1,9c-24-11-64-26-88-35c5-19-18-101-26-122c-1-4-6-9-9-12l2-4l4,2l-3-16C718,1819,723,1816,729,1813z"/>
			<path fill="#1A1A1E" d="M729,1813c4,16,9,34,13,50c1,4,2,8,3,12l-1,1c-7-7-20-27-29-38l-3-16C718,1819,723,1816,729,1813
				L729,1813z"/>
			<path fill="#FEDB28" d="M747,1765c31-11,32,6,41,32l3-2c2,2,2,1,3,3c3,6,4,7,8,13c-2,1-4,4-6,5l6,13c5,14,28,47,29,60
				c-3,4-1,3-6,4c-13-4-31-33-37-45c-8-18-6-23-22-34C761,1797,757,1780,747,1765z"/>
			<path fill="#FDA804" d="M788,1797l3-2c2,2,2,1,3,3c3,6,4,7,8,13c-2,1-4,4-6,5C794,1812,790,1801,788,1797z"/>
			<path fill="#FEDB28" d="M878,1773c5-3,11-6,16-10l2,2c7,5,22,28,24,36c32,33,74-28,112,23c2,7-1,12-8,14c-28,7-55,16-82,22
				c-14,2-18-6-24-16c-13-22-36-39-55-55c-3-1-4-3-7-5l5-8c4-2,10-2,14-3L878,1773z"/>
			<path fill="#FA9E39" d="M878,1773c5-3,11-6,16-10l2,2c7,5,22,28,24,36c-16-9-26-16-43-22l-2-6H878z"/>
			<path fill="#616C8D" d="M878,1773c5-3,11-6,16-10l2,2c2,7,3,8,1,14C892,1782,883,1777,878,1773L878,1773z"/>
			<path fill="#FEB604" d="M876,1773l2,6c-6,1-10,1-14,5c-1,3-1,3-1,6c-3-1-4-3-7-5l5-8C866,1774,871,1774,876,1773z"/>
			<path fill="#FA9E39" d="M870,1938c2-2,3-4,3-6l-4-4v-1c6,3,0,0,8,1c7,4,6,5,9,12c9,25,16,74,26,96l-1,3c-10-4-21-7-31-12
				c-16-6-32-13-49-19l-1-9c1-1,4-4,6-6c-2-7-1-14-5-19h-7C845,1968,858,1956,870,1938z"/>
			<path fill="#FEDB28" d="M836,1995c11,5,43,21,45,33c-16-6-32-13-49-19l-1-9C831,1999,834,1996,836,1995z"/>
			<path fill="#FEDB28" d="M1073,1707c8,3,18,7,26,9l7,2c1,4,2,8,3,11l5,13l5,5c0,5,1,5-1,8h-3v4c-2,1-2,1-5,2l-1,1h-1
				c-14,21-22,47-46,52h-2h-1l-7-2c-4-1-5-2-9-4c-3-10,10-21,15-32c-1-5,0-12,1-17c0-10,0-25,1-36c-1-5-2-9-4-14l12,5c5-1,4,0,8-3
				L1073,1707z"/>
			<path fill="#616C8D" d="M1073,1707c8,3,18,7,26,9l7,2c1,4,2,8,3,11l5,13l5,5c0,5,1,5-1,8h-3c-8-5-15-9-24-14c-6,3-8,4-13,8
				c-4,8-13,18-19,27c-1-5,0-12,1-17c0-10,0-25,1-36c-1-5-2-9-4-14l12,5c5-1,4,0,8-3L1073,1707z"/>
			<path fill="#1A1A1E" d="M1076,1731l37,11l5,5c0,5,1,5-1,8h-3c-8-5-15-9-24-14c-6,3-8,4-13,8C1076,1745,1076,1737,1076,1731
				L1076,1731z"/>
			<path fill="#F1F0FA" d="M1073,1707c8,3,18,7,26,9l7,2c1,4,2,8,3,11c-8-3-19-8-27-11l-14-4c5-1,4,0,8-3L1073,1707z"/>
			<path fill="#1A1A1E" d="M1059,1724c8,6,5,4,8,15c1,5,2,16-2,20c-3,1-3,1-7,0C1057,1750,1058,1735,1059,1724z"/>
			<path fill="#FDA804" d="M1089,1742c9,4,16,9,24,14v4c-2,1-2,1-5,2l-1,1h-1c-5-6-10-10-18-11c-11,2-30,37-36,47c-3,5-3,10-1,15
				c-4-1-5-2-9-4c-3-10,10-21,15-32c6-8,16-18,19-27C1081,1746,1083,1745,1089,1742z"/>
			<path fill="#FEDB28" d="M794,1798c0-1,0-1,1-2c15-20,30-11,46,0c14,12,40,33,55,42c-7,16-21,30-37,19c-18-11-42-32-57-46
				C798,1805,797,1804,794,1798z"/>
			<path fill="#FEDB28" d="M1004,1709c10-4,37,1,44,9c1,8-34,60-40,70c-4-6-17-40-21-48l4-11l-1-11c2-5,5-8,9-13L1004,1709z"/>
			<path fill="#FEB604" d="M1000,1707l5,2c-7,8-9,12-13,21l-1-11C993,1714,996,1711,1000,1707z"/>
			<path fill="#F8F2F2" d="M649,1840c14-9,29-29,46-18c6,4,11,9,16,15l-2,4c3,3,7,8,9,12c7,22,31,104,26,122c24,8,64,24,88,35
				c16,6,33,12,49,19c10,5,21,9,31,12l14,5c73,42,103,8,164-34c0-19,7-62,10-84c2-8,4-26,9-31c17,23,40,42,57,64l14-9
				c14-8,25-16,38-25c13-7,27-17,39-25l27-18l5,4l-96,62c-10,6-30,19-39,26c3,9-2,9-5,18c-34,21-67,47-101,68c-18,11-38,29-59,25
				c-19-4-36-13-55-20l-88-35l-191-76c-32-13-64-25-95-38c-9-4-19-11-17-22c5-9,17-14,26-19c1,2,4,4,5,6c4-2,6-3,9-5
				c10-2,45-23,55-29L649,1840z"/>
			<path fill="#FEDB28" d="M649,1840c14-9,29-29,46-18c6,4,11,9,16,15l-2,4c3,3,7,8,9,12c7,22,31,104,26,122c-11-4-17-7-28-12
				c-14-5-31-13-45-19c-4-2-9-4-13-7c-2-8-4-14-7-21l-3-10c-4-14-9-27-11-42l3-14L649,1840z"/>
			<path fill="#FEB604" d="M649,1840c14-9,29-29,46-18c6,4,11,9,16,15l-2,4c-9-8-14-12-25-17c-10,4-30,14-23,27c18,37,40,73,55,111
				c-14-5-31-13-45-19c-4-2-9-4-13-7c-2-8-4-14-7-21l-3-10c-4-14-9-27-11-42l3-13L649,1840z"/>
			<path fill="#616C8D" d="M585,1879c10-2,45-23,55-29l-3,13c2,14,6,28,11,42l3,10c3,8,5,13,7,21c4,2,9,4,13,7v2c6,3,18,7,20,10
				c-5,2-13-7-21-6c-2,0-116-46-118-48v-3c4-4,18-11,24-15C579,1882,581,1881,585,1879L585,1879z"/>
			<path fill="#1A1A1E" d="M637,1863c2,14,6,28,11,42l-30,16c-9-4-20-9-30-13l-1-18C604,1881,620,1872,637,1863z"/>
			<path fill="#1A1A1E" d="M650,1915c3,8,5,13,7,21c-8-4-17-8-25-11C638,1922,644,1918,650,1915z"/>
			<path fill="#FB8A09" d="M1099,1928c2-8,4-26,9-31c17,23,40,42,57,64c-22,17-53,35-77,51C1088,1993,1096,1950,1099,1928z"/>
			<path fill="#657395" d="M1257,1902l27-18l5,4l-96,62c-10,6-30,19-39,26c-19,13-43,28-64,41c-28,17-55,40-86,51c-21,8-54-8-74-15
				c-31-12-62-23-92-35c-40-16-81-30-120-47c-15-6-37-14-51-22c9-1,17,7,21,6c-2-3-14-6-20-10v-2c14,6,31,14,45,19c10,5,17,8,28,12
				c24,8,64,24,88,35c16,6,33,12,49,19c10,5,21,9,31,12l14,5c73,42,103,8,164-34c24-16,54-34,77-51l14-9c14-8,25-16,38-25
				C1231,1920,1244,1910,1257,1902L1257,1902z"/>
			<path fill="#8199C5" d="M1147,2066c2,0,4,0,6,1c3,1,7,4,10,4l1,15c0,10-1,17,0,27c5-4,31-21,33-23c4-3,9-6,13-9c0,8,1,6-4,12
				c3,2,3,1,3,6c2,17,0,39,1,55c0,6-1,6-4,11c-11,10-19,11-28,18l-13,9c-1,14,0,28,0,41c0,6,2,22,2,27c1-1-10,30-9,28h-1
				c-7-4-14-6-21-8c-7,4-15,10-22,14c-3-5-3-3-2-9c4-2,8-6,12-9c3-1,10-5,13-7c-5-2-12-5-17-8c1-13,3-30,5-43c-5,2-9,5-14,7l-2-4
				l2-3c-3-6-4-57-2-64c-2-3-1-4-1-7c-1-17-3-42-1-59l2-1C1114,2088,1142,2070,1147,2066L1147,2066z"/>
			<path fill="#FB8A09" d="M1206,2094c3,2,3,1,3,6c2,17,0,39,1,55c-6,4-21,14-26,17c-6,5-14,10-20,14c0-22-1-44-1-66
				c13-7,27-16,39-24L1206,2094z"/>
			<path fill="#FEB604" d="M1206,2094c3,2,3,1,3,6c2,17,0,39,1,55c-6,4-21,14-26,17c1-17,12-61,19-76L1206,2094z"/>
			<path fill="#FB8A09" d="M1147,2066c2,0,4,0,6,1c0,3,0,9-1,11c-4,8-8,38-8,47c-12,8-25,17-36,24c-1-17-3-42-1-59l2-1
				C1114,2088,1142,2070,1147,2066L1147,2066z"/>
			<path fill="#FB8A09" d="M1150,2130c-6,21-14,53-17,75c-7,5-16,10-22,15c-3-6-4-57-2-64C1122,2149,1138,2138,1150,2130z"/>
			<path fill="#FA9E39" d="M1125,2221c9-7,22-15,32-21c0,19,2,38,2,56l-22,15c-5-2-12-5-17-8C1121,2250,1123,2234,1125,2221z"/>
			<path fill="#FEB604" d="M1150,2130h3c3,6,1,50,2,61c-7,5-15,11-22,14C1137,2183,1144,2152,1150,2130z"/>
			<path fill="#FA9E39" d="M1152,2078c1,16,7,37-8,47C1144,2116,1148,2086,1152,2078z"/>
			<path fill="#657395" d="M1096,2098c4-2,8-5,11-8c-2,16,0,42,1,59c0,3,0,4,1,7c-2,7-1,58,2,64l-2,3l2,4c5-2,9-5,14-7
				c-2,13-4,30-5,43c5,2,12,6,17,8c-3,2-10,6-13,7c-4,3-8,6-12,9c-1,6-1,4,2,9c-4,5-2,15-2,21c4,2,11,5,15,8h-1c-4,2-6,2-11,4
				c-4,4-2,7-3,13l2,4c-8,23-9,31-37,24c-5,2-16,9-19,12c0-7-2-17,1-22c2,1,4,1,6,2l1-4l-7-7c-1-5-1-14-1-20c-1-4-1-7-1-11
				c1-16-1-32,0-48c1-8,2-8,7-12c-3-1-3,0-6-2v-5c6-3,14-8,20-11c-1-13-10-42-15-55h-1c-3,0-3,0-5-1v-5c0-18-1-37-1-55
				c6-4,10-7,16-12c4-2,14-8,19-11l4-4L1096,2098z"/>
			<path fill="#FEB604" d="M1081,2248c4,5,5,8,9,14l10,5c0,9,1,17,1,26c1,5,3,8,1,13c-7,5-11-3-20,8c-5,6-18,13-25,17c-1-4-1-7-1-11
				c1-16-1-32,0-48c1-8,2-8,7-12L1081,2248z"/>
			<path fill="#8D9BBC" d="M1090,2301c5-2,7-4,12-8c1,5,3,8,1,13c-7,5-11-3-20,8c-5,6-18,13-25,17c-1-4-1-7-1-11
				C1072,2314,1077,2310,1090,2301L1090,2301z"/>
			<path fill="#DFD1DE" d="M1090,2261l10,5c0,9,1,17,1,26c-4,4-6,6-12,8C1091,2290,1087,2268,1090,2261z"/>
			<path fill="#FEB604" d="M1090,2103c5,14,4,34,8,43l1,2c-1,7,0,7-7,12c-11,8-23,15-34,21c0-18-1-37-1-55c6-4,10-7,16-12
				C1076,2113,1086,2106,1090,2103z"/>
			<path fill="#DFD1DE" d="M1083,2314c7,3,12,5,19,7c0,6,0,17,1,22c1,21-25,14-27,25l2,1c-5,2-16,9-19,12c0-7-2-17,1-22c2,1,4,1,6,2
				l1-4l-7-7c-1-5-1-14-1-20C1065,2327,1078,2320,1083,2314z"/>
			<path fill="#8D9BBC" d="M1103,2343c1,21-25,14-27,25l2,1c-5,2-16,9-19,12c0-7-2-17,1-22c2,1,4,1,6,2l1-4l-7-7l17,7
				C1084,2352,1094,2346,1103,2343z"/>
			<path fill="#FDA804" d="M1063,2187c11-9,24-15,36-24c0,9,0,22,0,31c1,37,4,28-21,48C1077,2228,1068,2200,1063,2187z"/>
			<path fill="#8199C5" d="M1098,2148c1-8,0-40,3-45c7,5,2,57,2,68c1,16,3,33,3,49c0,10-2,9-6,17c-4,2-8,5-12,7c-3,1-5,2-7,4l-17,12
				c-3-1-3,0-6-2v-5c6-3,14-8,20-11c25-20,23-11,21-48c0-9,0-22,0-31c-12,9-24,15-36,24h-1c-3,0-3,0-5-1v-5c11-7,24-13,34-21
				C1098,2155,1097,2155,1098,2148z"/>
			<path fill="#FB8A09" d="M1111,2228c5-2,9-5,14-7c-2,13-4,30-5,43l-9-1C1110,2251,1111,2239,1111,2228z"/>
			<path fill="#86756F" d="M1081,2248c2-3,4-3,7-4c1,5,7,7,12,10l1,13l-10-5C1086,2256,1086,2253,1081,2248z"/>
			<path fill="#E87E37" d="M1111,2262l9,1c5,2,12,6,17,8c-3,2-10,6-13,7l-13-7V2262z"/>
			<path fill="#FB8A09" d="M1094,2099c4,4,4,7,4,13c0,10,0,23,0,34c-3-9-2-29-8-43L1094,2099z"/>
			<path fill="#FDA804" d="M1100,2236c0,6,0,11,0,17c-5-3-11-5-12-10C1092,2241,1096,2239,1100,2236z"/>
			<path fill="#FA9E39" d="M1111,2270l13,7c-4,3-8,6-12,9C1111,2281,1111,2276,1111,2270L1111,2270z"/>
			<path fill="#1A1A1E" d="M1371,1836c11,2,12-5,21-3c-3,2-6,6-9,7c-12,10-65,44-81,54c-50,32-103,69-153,100c3-9,8-9,5-18
				c8-7,29-20,39-26l96-62l-5-4c7-4,12-8,18-13c5-2,15-10,20-13c4-2,8-5,12-7l-2,5l2,2c8-4,16-10,25-15L1371,1836z"/>
			<path fill="#616C8D" d="M1322,1859c4-2,8-5,12-7l-2,5l2,2c-8,8-34,23-45,30l-5-4c7-4,12-8,18-13C1306,1869,1317,1862,1322,1859z"
				/>
			<path fill="#F1F0FA" d="M1371,1836c11,2,12-5,21-3c-3,2-6,6-9,7c-15-3-16,7-25,3L1371,1836z"/>
			<path fill="#FDA804" d="M1256,2060h5c4,7,3,47,3,57c0,5,0,9-3,14c-1,1-4,4-5,4c-10,3-18,12-26,16c-5,1-6,2-10,1v-3l3-3l-2-1
				c-4-7-3-51-1-61l10-7C1238,2072,1249,2068,1256,2060z"/>
			<path fill="#FEDB28" d="M1221,2085l10-7c0,15,1,53-2,65l-5,3l-2-1C1218,2139,1219,2095,1221,2085z"/>
			<path fill="#8199C5" d="M1228,2144c8-3,32-18,36-26c0,5,0,9-3,14c-1,1-4,4-5,4c-10,3-18,12-26,16c-5,1-6,2-10,1v-3l3-3L1228,2144
				z"/>
			<path fill="#FA9E39" d="M1257,1993h3c3,7,4,48,1,56c-1,0-2,2-3,2l2,2c-2,3-3,4-4,7c-7,8-18,12-26,18l-10,7c-2-3-2-6-2-10
				c0-13-3-45,1-56c-2-3-2-7-2-10c4-2,6-3,9-6l10-7c0,4-1,8-1,11l11-7C1250,1998,1253,1996,1257,1993z"/>
			<path fill="#FEDB28" d="M1226,2004l10-7c0,4-1,8-1,11l11-7c0,9-13,56-16,67l-11,7c0-13-3-45,1-56c-2-3-2-7-2-10
				C1221,2007,1223,2006,1226,2004z"/>
			<path fill="#8199C5" d="M1226,2004l10-7c0,4-1,8-1,11l-17,12c-2-3-2-7-2-10C1221,2007,1223,2006,1226,2004z"/>
			<path fill="#8199C5" d="M1259,2051l2,2c-2,3-3,4-4,7c-7,8-18,12-26,18l-10,7c-2-3-2-6-2-10l11-7C1239,2062,1248,2055,1259,2051z"
				/>
			<path fill="#FB8A09" d="M1105,2044c2-11,34-28,45-35c0,7,3,41,1,46c1,5,0,4-3,10c-5,4-33,22-38,24l-2,1c-4,3-7,6-11,8
				c2-5,3-7,2-12c-1-6-1-15-1-22C1098,2053,1095,2048,1105,2044L1105,2044z"/>
			<path fill="#7393BB" d="M1097,2064c1-11-3-16,8-20c0,13,1,26,1,39c1,5,0,4,3,7l-2,1c-4,3-7,6-11,8c2-5,3-7,2-12
				C1097,2080,1097,2071,1097,2064L1097,2064z"/>
			<path fill="#8199C5" d="M1150,2056c1,5,0,4-3,10c-5,4-33,22-38,24c-3-3-2-2-3-7C1115,2079,1140,2062,1150,2056z"/>
			<path fill="#FB8A09" d="M1204,2028c4,4,4,10,4,17c0,3,0,5,0,8c0,7,0,23,1,29c-4,3-9,6-13,9c-2,3-28,19-33,23c0-10,0-17,0-27
				l-1-15c-1-10-1-11,4-18l4-1C1175,2045,1195,2035,1204,2028z"/>
			<path fill="#FEB604" d="M1196,2090c2-15,8-31,9-46v-2c4,4-1,2,3,10c0,7,0,23,1,29C1205,2084,1200,2087,1196,2090z"/>
			<path fill="#FEB604" d="M1167,2053l4-1c3,12-2,23-7,34l-1-15C1162,2061,1161,2060,1167,2053z"/>
			<path fill="#FB8A09" d="M1160,2002c15-10,31-20,46-30c0,15,1,30,1,46c0,5,0,6-3,10c-9,8-30,17-33,24l-4,1c-1,0-3-1-4-1l-1-4
				L1160,2002z"/>
			<path fill="#8199C5" d="M1207,2018c0,5,0,6-3,10c-9,8-30,17-33,24l-4,1c-1,0-3-1-4-1l-1-4C1176,2039,1194,2025,1207,2018
				L1207,2018z"/>
			<path fill="#FEB604" d="M1086,2051c5-3,4-4,9-4c3,4,2,11,2,17c0,6,0,16,1,22c1,5,0,7-2,12l-2,2l-4,4c-4,3-14,9-19,11s-8,3-14,3
				l-2-3c0-14,0-30,0-44C1066,2065,1076,2058,1086,2051z"/>
			<path fill="#FB8A09" d="M1086,2051c5-3,4-4,9-4c3,4,2,11,2,17c0,6,0,16,1,22c-3,4-3,5-7,7C1089,2078,1087,2066,1086,2051z"/>
			<path fill="#8199C5" d="M1091,2093c4-2,4-3,7-7c1,5,0,7-2,12l-2,2l-4,4c-4,3-14,9-19,11s-8,3-14,3l-2-3
				C1064,2109,1082,2099,1091,2093z"/>
			<path fill="#616C8D" d="M1348,1803c9,3,35,10,40,14c-1,10-10,14-17,19l-13,8c-9,5-17,10-25,15l-2-2l2-5v-1c1-9,7-26,10-35
				C1344,1812,1347,1806,1348,1803L1348,1803z"/>
			<path fill="#1A1A1E" d="M1344,1816c1,10,1,17,2,27l-12,8C1335,1841,1341,1825,1344,1816z"/>
			<path fill="#FEDB28" d="M1239,1951c6-4,15-11,21-14c0,14,1,31,0,45l1,5c-2,2-3,4-4,6c-3,3-7,6-10,8l-11,7c0-4,1-8,1-11l-10,7
				C1226,1992,1235,1963,1239,1951z"/>
			<path fill="#7393BB" d="M1260,1982l1,5c-2,2-3,4-4,6c-3,3-7,6-10,8l-11,7c0-4,1-8,1-11C1245,1991,1251,1987,1260,1982z"/>
			<path fill="#DFD1DE" d="M1183,2248c9-2,27,2,29,13c0,2,0,6,1,8c-11,11-18,14-31,21l-13-6c0-7,0-15,1-22l1-3
				C1175,2255,1178,2252,1183,2248z"/>
			<path fill="#DFD1DE" d="M1239,2215l28,9l-1,5c0,4,1,7-3,10c-12,10-23,18-37,10h-3c-2-5-1-16-1-22c2-3,3-3,6-5
				C1231,2219,1235,2217,1239,2215z"/>
			<path fill="#F1F0FA" d="M1239,2215l28,9l-1,5c-5,0-31-6-38-7C1231,2219,1235,2217,1239,2215z"/>
			<path fill="#1A1A1E" d="M1246,2160c6,2,13,5,19,7l1,18c-9,6-19,12-28,18l-12-4l-3-1c-3-4-2-2-2-9C1233,2180,1240,2174,1246,2160z
				"/>
			<path fill="#FB8A09" d="M1166,2193l13-9c5,6,12,3,22,9l-17-2c-3,6-6,27-8,35l14,7l1,2v6c-3,3-3,4-7,6v1c-5,4-8,7-13,11l-1,3h-1
				c1-5-1-21-2-27C1165,2221,1165,2207,1166,2193L1166,2193z"/>
			<path fill="#657395" d="M1176,2227l14,7l1,2v6c-3,3-3,4-7,6v1c-5,4-8,7-13,11c0-5,2-10,4-14C1173,2236,1174,2234,1176,2227z"/>
			<path fill="#8D9BBC" d="M1190,2235v6c-3,3-3,4-7,6v1c-5,4-8,7-13,11c0-5,2-10,4-14C1182,2245,1184,2240,1190,2235z"/>
			<path fill="#1A1A1E" d="M1176,2227c1-8,4-29,8-35c16,11,27,2,28,23c-2,9-13,16-21,19L1176,2227z"/>
			<path fill="#FEB604" d="M1062,2187h1c5,13,14,41,15,55c-6,3-14,9-20,11c-2-7-2-42-2-51C1056,2192,1057,2192,1062,2187z"/>
			<path fill="#FEB604" d="M1231,2152c8-4,16-13,26-16l-4,13c-3,4-5,6-7,11c-6,14-13,20-25,29C1221,2172,1215,2163,1231,2152
				L1231,2152z"/>
			<path fill="#FA9E39" d="M1216,1965c7-5,15-9,23-14c-4,11-13,41-13,52c-3,2-6,4-9,6C1216,1997,1216,1978,1216,1965z"/>
			<path fill="#FEB604" d="M1207,2166l3,2c2,9,1,18,2,27l-11-2c-10-6-16-2-22-9C1188,2178,1196,2177,1207,2166z"/>
			
				<linearGradient id="SVGID_00000167372147047140826190000010637346978490414764_" gradientUnits="userSpaceOnUse" x1="1255.5377" y1="3034.3657" x2="1241.1306" y2="3022.7937" gradientTransform="matrix(1 0 0 1 0 -778)">
				<stop  offset="0" style="stop-color:#7C89B0"/>
				<stop  offset="1" style="stop-color:#9EA8C9"/>
			</linearGradient>
			<path fill="url(#SVGID_00000167372147047140826190000010637346978490414764_)" d="M1267,2224c1,11,0,17-1,27c-6,2-8,4-14,6l-3-1
				c-6,3-8,4-13,8l-14,7c1-13-1-5,6-14l-2-8c14,8,26,0,37-10c4-3,3-6,3-10L1267,2224z"/>
			
				<linearGradient id="SVGID_00000109728991137878285080000009727433316842669202_" gradientUnits="userSpaceOnUse" x1="624.459" y1="2642.9197" x2="602.746" y2="2627.1428" gradientTransform="matrix(1 0 0 1 0 -778)">
				<stop  offset="0" style="stop-color:#BABFE0"/>
				<stop  offset="1" style="stop-color:#DCDEF1"/>
			</linearGradient>
			<path fill="url(#SVGID_00000109728991137878285080000009727433316842669202_)" d="M582,1872c15-5,51-25,67-32l-9,10
				c-9,6-45,26-55,29L582,1872z"/>
			<path fill="#7581A3" d="M1266,2186l1,3c-7,3-17,9-22,15l-1,2c-3,4-5,6-5,10c-4,2-8,4-11,7c-3,2-4,2-6,5c-2-6,1-11-1-20
				c2-5,1-3,5-7l12,4C1248,2198,1257,2192,1266,2186z"/>
			<path fill="#616C8D" d="M1221,2206c2-5,1-3,5-7l12,4c-5,4-5,5-11,6C1225,2208,1224,2208,1221,2206z"/>
			<path fill="#1A1A1E" d="M1348,1803l3-6c8,3,30,9,35,14l2,6C1383,1812,1357,1805,1348,1803L1348,1803z"/>
			
				<linearGradient id="SVGID_00000165203748439563873790000006838275676614447293_" gradientUnits="userSpaceOnUse" x1="1205.6042" y1="3012.0889" x2="1201.0422" y2="3006.2" gradientTransform="matrix(1 0 0 1 0 -778)">
				<stop  offset="0" style="stop-color:#737FA0"/>
				<stop  offset="1" style="stop-color:#9EA3BF"/>
			</linearGradient>
			<path fill="url(#SVGID_00000165203748439563873790000006838275676614447293_)" d="M1211,2214c1,7,2,14-2,20l2-1c-7,5-12,3-21,8
				v-6l-1-2C1198,2230,1209,2223,1211,2214z"/>
			<path fill="#F8F2F2" d="M1387,1810c8,7,15,13,5,23c-9-2-10,5-21,3c8-5,16-9,17-19L1387,1810z"/>
			<path fill="#1A1A1E" d="M1262,2132c5,5,6,16,0,21c-4,0-5-1-9-3l4-13C1257,2136,1261,2132,1262,2132z"/>
			
				<linearGradient id="SVGID_00000180362260226009212000000017192946045353540266_" gradientUnits="userSpaceOnUse" x1="1257.6986" y1="2978.103" x2="1254.2217" y2="2972.405" gradientTransform="matrix(1 0 0 1 0 -778)">
				<stop  offset="0" style="stop-color:#6F7DA1"/>
				<stop  offset="1" style="stop-color:#99A4C1"/>
			</linearGradient>
			<path fill="url(#SVGID_00000180362260226009212000000017192946045353540266_)" d="M1244,2205l1-2c5-5,16-11,22-15c-1,3-2,5-2,7
				c-5,5-8,7-14,11C1248,2204,1250,2204,1244,2205L1244,2205z"/>
			<path fill="#1A1A1E" d="M1251,2206c6-4,9-6,14-11c0,5,2,11,0,16C1260,2213,1256,2209,1251,2206z"/>
			<path fill="#7581A3" d="M570,1878h4c3-3,4-3,7-5h1l3,7c-4,2-6,3-9,5C574,1883,571,1880,570,1878L570,1878z"/>
			<path fill="#DFD1DE" d="M1252,2257c6-2,7-4,14-6c-4,6-2,5-8,7C1256,2258,1254,2257,1252,2257z"/>
			<path fill="#FEB604" d="M924,2078l18,7c39,16,51,23,90,2c5-3,5-4,9-4c3,4,2,16,2,22c2,74,1,153,4,226c0,5,1,6-1,11c0,2-1,8-2,10
				c-14-7-25-11-39-16c1,22-4,26-24,31c-14-4-19-6-32,1c-5-5-5-26-5-33c-2-18-4-37-5-55C933,2213,928,2145,924,2078z"/>
			<path fill="#FB8A09" d="M924,2078l18,7c1,11,12,39,16,54c11,38,25,81,34,120c0,0-1,4-2,4c-4,5-1,9,2,14c1,10,3,14,6,23
				c1,9,1,13,3,21c1,6,1,10,3,16c1,22-4,26-24,31c-14-4-19-6-32,1c-5-5-5-26-5-33c-2-18-4-37-5-55C933,2213,928,2145,924,2078
				L924,2078z"/>
			<path fill="#FEDB28" d="M938,2280l1-6h2c4,8,13,54,10,61c-4,1-4,1-8-1C941,2317,940,2299,938,2280z"/>
			<path fill="#616C8D" d="M1016,2320c11,9,17,10,31,12c0,5,1,6-1,11c0,2-1,8-2,10c-14-7-25-11-39-16c-2-5-3-10-3-16c4,2,9,4,13,6
				C1016,2325,1016,2322,1016,2320z"/>
			<path fill="#DFD1DE" d="M1016,2320c11,9,17,10,31,12c0,5,1,6-1,11c-9-5-21-11-31-16C1016,2325,1016,2322,1016,2320z"/>
			<path fill="#1A1A1E" d="M1006,2299c3,6,7,16,10,21c0,2-1,5-1,7c-4-1-9-4-13-6c-2-9-3-12-3-21L1006,2299z"/>
			<path fill="#FDA804" d="M1032,2087c5-3,5-4,9-4c3,4,2,16,2,22C1037,2101,1034,2094,1032,2087z"/>
			<path fill="#657395" d="M992,2278l6,4l8,18l-8,1C995,2291,994,2287,992,2278z"/>
			<path fill="#DFEEAC" d="M992,2278c-3-5-6-10-2-14c4,7,5,10,8,18L992,2278z"/>
			<path fill="#FB8A09" d="M861,2060l1-4c6-2,37,13,47,16c2,15,4,33,5,48c3,4,3,6,2,11c-2,13,2,47,4,61c10,8,6,15,2,27
				c1,13,2,31,4,44c1,5,2,7,1,13c0,9,0,18,1,27c2,12,3,28,5,40c-7-2-38-18-48-22l-1-7c-4,4-7,12-7,17c0,8,2,20,2,27c1,6,2,10,0,15
				c-4,1-6-1-10-3c-13-4-28-4-31-19c0-6-1-15-1-22l-1-8l-1-17l-1-11l-3-9l-4,4h-3l-1-2c-10-2-35-17-45-23l-2-14v-7c3,0,4,0,7-1
				c7-8,5-19,5-30c6,2,13,5,18,8c0-2,2-5,3-6c3,0,2,0,5-1c3-10-4-41-4-57c3,1,6,3,9,3l3-1c-1-3-2-6-3-9c12,4,21,7,33,12l7,5
				c3-1,3-1,4-3c1-6-1-19-1-26c5,7,6,13,8,22h2c-1-13-2-28-4-41c-5-7-3-22-2-30c0-6,0-11-1-17L861,2060z"/>
			<path fill="#FA9E39" d="M825,2230c9,4,20,8,28,13c4,2,8,4,12,4c6-3,9,0,13,5c8,3,29,12,34,16c4,2,10,5,14,6c0,9,0,18,1,27
				c2,12,3,28,5,40c-7-2-38-18-48-22l-1-7c-4,4-7,12-7,17c0,8,2,20,2,27c1,6,2,10,0,15c-4,1-6-1-10-3c-13-4-28-4-31-19
				c0-6-1-15-1-22l-1-8l-1-17l-1-11l-3-9c-2-12-3-27-4-39C823,2239,823,2235,825,2230L825,2230z"/>
			<path fill="#FB8A09" d="M877,2252c8,3,29,12,34,16c4,2,10,5,14,6c0,9,0,18,1,27c2,12,3,28,5,40c-7-2-38-18-48-22l-1-7
				C883,2303,877,2269,877,2252z"/>
			<path fill="#FEDB28" d="M911,2269c4,2,10,5,14,6c0,9,0,18,1,27C921,2298,914,2276,911,2269z"/>
			<path fill="#1A1A1E" d="M830,2294c8,4,30,15,38,15c1,3,3,5,3,8h-1c1,4,2,3,0,7c4,3,3,1,4,6c0,8,2,20,2,27c1,6,2,10,0,15
				c-4,1-6-1-10-3c-13-4-28-4-31-19c0-6-1-15-1-22l-1-8l-1-17L830,2294z"/>
			<path fill="#8D9BBC" d="M830,2294c8,4,30,15,38,15c1,3,3,5,3,8h-1c1,4,2,3,0,7c-5-2-9-4-13-7c-5,3-18,10-23,12l-1-8l-1-17
				L830,2294z"/>
			<path fill="#BBBDE4" d="M849,2313l7,4c-5,3-18,10-23,12l-1-8C837,2319,844,2315,849,2313z"/>
			<path fill="#DFD1DE" d="M831,2304c8,4,10,6,18,9c-5,2-12,6-17,8L831,2304z"/>
			<path fill="#BBBDE4" d="M835,2351c7,2,26,13,30,13l1,6C852,2366,838,2365,835,2351z"/>
			<path fill="#1A1A1E" d="M876,2357c1,6,2,10,0,15c-4,1-6-1-10-3l-1-6C869,2361,872,2359,876,2357z"/>
			<path fill="#8199C5" d="M865,2247c6-3,9,0,13,5c0,17,5,50,4,60c-4,4-7,12-7,17c-2-5,0-3-4-6c1-3,1-3,0-7h1c1-3-1-5-3-8
				c6-11,2-30,0-42C867,2259,867,2255,865,2247z"/>
			<path fill="#FB8A09" d="M853,2243c4,2,8,4,12,4c2,8,2,12,3,19C864,2263,856,2248,853,2243z"/>
			<path fill="#FEDB28" d="M861,2060l1-4c6-2,37,13,47,16c2,15,4,33,5,48c3,4,3,6,2,11c-2,13,2,47,4,61c10,8,6,15,2,27l-2-16
				c-9-4-21-9-31-13c-6-3-9-5-15-6l-3,2c-1,1,0,1-2,1c-1-9-2-17-2-26h2c-1-13-2-28-4-41c-5-7-3-22-2-30c0-6,0-11-1-17L861,2060z"/>
			<path fill="#FA9E39" d="M861,2060l1-4c6-2,37,13,47,16c2,15,4,33,5,48l-14-5c-10-3-22-6-30-11c-6-4-5-7-6-14c0-6,0-11-1-17
				L861,2060z"/>
			<path fill="#FEDB28" d="M861,2060c27,16,28,24,39,54c-10-3-22-6-30-11c-6-4-5-7-6-14c0-6,0-11-1-17L861,2060z"/>
			<path fill="#8199C5" d="M869,2160c1,6,0,10,4,14c5,2,7,3,12,4c11,4,23,9,34,14c10,8,6,15,2,27l-2-16c-9-4-21-9-31-13
				c-6-3-9-5-15-6l-3,2c-1,1,0,1-2,1c-1-9-2-17-2-26L869,2160z"/>
			<path fill="#8199C5" d="M863,2089c1,7,1,10,6,14c8,5,21,8,30,11l14,5c3,4,3,6,2,11c-13-5-35-16-48-18l-1,2l-1,4
				C860,2112,862,2097,863,2089z"/>
			<path fill="#FA9E39" d="M866,2114c6,10,12,47,18,64c-5-1-7-2-12-4c-4-4-3-8-4-14c-1-13-2-28-4-41L866,2114z"/>
			<path fill="#FB8A09" d="M871,2185l3-2c6,1,9,3,15,6c10,4,21,9,31,13l2,16c1,13,2,31,4,44c-6,0-10-2-16-5c-10-4-21-9-32-13
				c-1-9-2-17-3-25C873,2207,872,2196,871,2185z"/>
			<path fill="#FEDB28" d="M889,2189c10,4,21,9,31,13l2,16c1,13,2,31,4,44c-6,0-10-2-16-5C902,2240,893,2207,889,2189z"/>
			<path fill="#FB8A09" d="M784,2213c6,2,13,5,18,8c16,8,10,19,13,34l4,32c-10-2-35-17-45-23l-2-14v-7c3,0,4,0,7-1
				C786,2235,784,2223,784,2213L784,2213z"/>
			<path fill="#8199C5" d="M807,2156c3,1,6,3,9,3c0,4,0,10,1,13c1,17,3,32,5,49c-1,4-1,5,3,9c-2,5-2,9-2,15c1,12,2,28,4,39l-4,4h-3
				l-1-2l-4-32c-2-16,3-26-13-34c0-2,2-5,3-6c3,0,2,0,5-1C814,2203,807,2171,807,2156z"/>
			<path fill="#7393BB" d="M816,2254c4-6,8-16,5-22l2,1h-3c1,4,1,8,3,12c1,12,2,28,4,39l-4,4h-3l-1-2L816,2254z"/>
			
				<linearGradient id="SVGID_00000076594054692527742680000009907016819790094984_" gradientUnits="userSpaceOnUse" x1="888.0654" y1="3007.7107" x2="865.7234" y2="3035.9678" gradientTransform="matrix(1 0 0 1 0 -778)">
				<stop  offset="0" style="stop-color:#96A4BB"/>
				<stop  offset="1" style="stop-color:#799ECF"/>
			</linearGradient>
			<path fill="url(#SVGID_00000076594054692527742680000009907016819790094984_)" d="M864,2208c3,4,6,8,10,10c1,8,2,17,3,25
				c10,4,22,8,32,13c5,3,9,5,16,5c1,5,2,7,1,13c-4-1-10-4-14-6c-5-4-26-13-34-16c-4-6-6-9-13-5c-4,0-8-2-12-4c-8-5-19-9-28-13
				c-3-3-3-5-3-9c5,2,12,4,17,6l27,12L864,2208z"/>
			<path fill="#FEB604" d="M817,2173l2-7c4,2,16,39,19,45c3,5,4,10,2,16c-5-2-12-4-17-6C820,2204,818,2189,817,2173L817,2173z"/>
			<path fill="#8D9BBC" d="M859,2138c5,7,6,13,8,22c0,10,1,17,2,26c2,0,1,0,2-1c1,11,3,22,3,33c-4-2-7-7-10-10c-4-15,3-24-11-35l3-3
				v-4c3-1,3-1,4-3C861,2158,859,2145,859,2138L859,2138z"/>
			<path fill="#8199C5" d="M816,2149c12,4,21,7,33,12l7,5v4l-3,3c-8-5-24-10-34-15C817,2156,817,2153,816,2149z"/>
			<path fill="#7393BB" d="M691,1985c11,5,22,10,33,15c6,2,12,4,14,9l2,10l3,2c1,7,4,26,2,33c-7,3-10-3-16-1l-1,2h4c7,8,12,2,15,10
				c3,9,1,25,3,35c3,24,10,70,8,93l-2,2c-11-2-16-11-28-9l0,0l1,3h2c8,2,24,8,31,13c3,11,0,25,3,34l2,1c3-8-5-58-6-68c0-2,0-4,1-5
				l2,6c-1-8-4-27,1-32l9,4c8,3,26,10,33,15c0,16,7,47,4,57c-2,1-2,1-5,1c-1,2-3,5-3,6c-6-3-13-5-18-8c0,11,2,22-5,30c-3,1-3,1-7,1
				v7l-4-1l-4,4l-1,3l-1,4c-6,3-9,3-15,3c-4-1-15-7-19-10v-7c-4-3-6-6-6-10c-3-10-6-42-6-53c3,0,6-3,8-5c-3-1-7-3-9-6
				c-5-9-9-47-8-55l3-2c0-2-1-2-3-4l3-3l-4-2c-5-6-10-52-9-61l5-7l-5-3C696,2029,693,1995,691,1985L691,1985z"/>
			<path fill="#FB8A09" d="M765,2136l9,4c8,3,26,10,33,15c0,16,7,47,4,57c-2,1-2,1-5,1c-5-4-16-8-22-11l-15-6c-2-8-3-19-5-28
				C763,2160,759,2142,765,2136z"/>
			<path fill="#FEDB28" d="M765,2136l9,4c3,12,11,52,10,62l-15-6c-2-8-3-19-5-28C763,2160,759,2142,765,2136z"/>
			<path fill="#FEDB28" d="M726,2178c-3-1-7-3-9-6c-5-9-9-47-8-55l3-2c4,2,6,4,10,5c11,4,18,7,29,13c2,19,4,39,6,58c-8-3-15-5-22-10
				L726,2178z"/>
			<path fill="#FDA804" d="M726,2178c-3-1-7-3-9-6c-5-9-9-47-8-55l3-2c4,2,6,4,10,5c1,27,1,35,12,61L726,2178z"/>
			<path fill="#FA9E39" d="M691,1985c11,5,22,10,33,15c-1,14,5,25,4,47c-6-2-17-6-23-9l-5-3C696,2029,693,1995,691,1985L691,1985z"
				/>
			<path fill="#FEB604" d="M700,2045c8,2,19,6,27,11c1,18,2,39-2,57l-12-5l-4-2C705,2100,700,2054,700,2045L700,2045z"/>
			<path fill="#1A1A1E" d="M718,2183l3,1c5,2,9,4,13,7c4,11,6,15,12,26v11l3,7c-5,4-11,8-16,12h-3c-4-3-6-6-6-10
				C721,2226,718,2194,718,2183z"/>
			<path fill="#616C8D" d="M744,2225l1,2l3,7c-5,4-11,8-16,12h-3c-4-3-6-6-6-10C731,2232,737,2229,744,2225z"/>
			<path fill="#FEB604" d="M721,2184c5,2,9,4,13,7c4,11,6,15,12,26v11l-1-2C737,2211,728,2198,721,2184z"/>
			<path fill="#FEE424" d="M727,2055c6,3,11,5,17,6l6,61c-6-2-20-9-25-10C729,2095,728,2074,727,2055z"/>
			<path fill="#1A1A1E" d="M749,2234l3,5l11-1c1,5,2,11,2,16l-1,3l-1,4c-6,3-9,3-15,3c-4-1-15-7-19-10v-7h3
				C738,2242,744,2238,749,2234z"/>
			<path fill="#7581A3" d="M730,2246h3c7,3,25,11,30,15c-6,3-9,3-15,3c-4-1-15-7-19-10L730,2246z"/>
			<path fill="#FDA804" d="M763,2238c1,5,2,11,2,16l-1,3c-6-4-9-11-12-17L763,2238z"/>
			<path fill="#FEDB28" d="M734,2191c8,3,16,7,24,10c1,11,2,21,3,32l1,5l-11,1l-3-5l-3-7v-11C740,2206,739,2202,734,2191z"/>
			<path fill="#FEB604" d="M746,2217c5,7,8,13,16,16l1,5l-11,1l-3-5l-3-7V2217z"/>
			<path fill="#FEDB28" d="M724,2000c6,2,12,4,14,9l2,10c1,11,3,23,3,34c-4-2-11-5-15-6C730,2025,723,2014,724,2000z"/>
			<path fill="#FEDB28" d="M769,2205c5,3,10,5,16,7c0,11,2,22-5,30c-3,1-3,1-7,1C770,2231,770,2218,769,2205L769,2205z"/>
			<path fill="#FB8A09" d="M750,2025c-1-5-2-10-1-14c8,0,44,14,47,21c9,4,7,32,11,41l3,7l1,9c-4,9,1,27,2,38c1,7,1,16,2,23
				c1,3,2,6,3,9l-3,1c-3-1-6-2-9-3c-7-5-25-12-33-15l-9-4c-3-4-3-4-3-9c-2-10-5-30-5-40c-1-9-5-16,4-20c-3-4-2-6,0-9l-3-1
				C752,2052,750,2033,750,2025z"/>
			<path fill="#FB8A09" d="M750,2025c-1-5-2-10-1-14c8,0,44,14,47,21c0,16,1,27,3,43c-13-5-27-12-39-16l-3-1
				C752,2052,750,2033,750,2025L750,2025z"/>
			<path fill="#FEB604" d="M750,2025l1-9h1c2,5,9,36,8,40l-2,2C752,2052,750,2033,750,2025z"/>
			<path fill="#8199C5" d="M797,2032c9,4,7,32,11,41l3,7l1,9c-4,9,1,27,2,38c-1,7-4,10-7,15c-1-18-4-40-6-59c-13-6-25-10-38-15l-1-1
				c-3-4-2-6,0-9c13,5,27,11,39,16C798,2059,797,2048,797,2032z"/>
			
				<linearGradient id="SVGID_00000158710659570340930590000007575975174025310629_" gradientUnits="userSpaceOnUse" x1="806.3799" y1="2907.6636" x2="781.1929" y2="2928.8164" gradientTransform="matrix(1 0 0 1 0 -778)">
				<stop  offset="0" style="stop-color:#8B9EB2"/>
				<stop  offset="1" style="stop-color:#6E8FC4"/>
			</linearGradient>
			<path fill="url(#SVGID_00000158710659570340930590000007575975174025310629_)" d="M814,2126c1,7,1,16,2,23c1,3,2,6,3,9l-3,1
				c-3-1-6-2-9-3c-7-5-25-12-33-15l-9-4c-3-4-3-4-3-9l12,3c6,3,24,11,31,12l2-2C810,2136,813,2133,814,2126z"/>
			<path fill="#FEDB28" d="M756,2088c-1-9-5-16,4-20l1,1l1,7c3,13,11,44,11,56l-12-3C759,2118,757,2098,756,2088L756,2088z"/>
			<path fill="#FEE424" d="M756,2088c-1-9-5-16,4-20l1,1l1,7C760,2081,760,2083,756,2088L756,2088z"/>
			<path fill="#FB8A09" d="M808,2073c4-12-5-32,0-40l5,1c8,4,31,12,37,15c8,5,9,14,12,23c2,5,1,11,1,17c-1,8-3,23,2,30
				c2,13,3,28,4,41h-2c-2-8-4-15-8-22c1,7,3,20,1,26c-2,2-2,2-4,3l-7-5c-12-5-20-8-33-12c-1-7-1-16-2-23c-1-10-6-29-2-38l-1-9
				L808,2073z"/>
			<path fill="#FB8A09" d="M812,2089c6,2,12,5,18,7c8,3,17,6,26,9c1,10,2,23,3,33c1,7,3,20,1,26c-2,2-2,2-4,3l-7-5c-12-5-20-8-33-12
				c-1-7-1-16-2-23C813,2116,808,2098,812,2089z"/>
			<path fill="#FA9E39" d="M829,2096c8,3,17,6,26,9c1,10,2,23,3,33c1,7,3,20,1,26c-2,2-2,2-4,3l-7-5C848,2150,832,2116,829,2096z"/>
			<path fill="#7393BB" d="M850,2049c8,5,9,14,12,23c2,5,1,11,1,17c-1,8-3,23,2,30c2,13,3,28,4,41h-2c-2-8-4-15-8-22c-1-9-2-23-3-33
				c-8-3-17-6-26-9c-6-2-12-5-18-7l-1-9l12,4c7,4,21,11,29,8C856,2085,851,2060,850,2049z"/>
			<path fill="#FB8A09" d="M808,2073c4-12-5-32,0-40l5,1c-2,4-4,5-2,10c4,13,9,26,12,40l-12-4L808,2073z"/>
			<path fill="#1A1A1E" d="M1314,2015c1,4,3,8,0,12c1,20,1,39,1,59c-12,10-29,19-42,28c-1-22,0-41,0-61c-3-5-2-6-1-11l7-5
				C1291,2029,1303,2022,1314,2015z"/>
			<path fill="#7581A3" d="M1314,2015c1,4,3,8,0,12c-11,5-31,18-41,25c-3-5-2-6-1-11l7-5C1291,2029,1303,2022,1314,2015L1314,2015z"
				/>
			<path fill="#1A1A1E" d="M883,2319c10,4,41,20,48,22c3,6,3,17,2,23l1,9c1,5,1,4-1,8l0,0l1,3l2,17c-4-2-10-4-14-6c-8-1-18-3-26-5
				c-6-6-8-7-7-15l-2-17c0-1,0-8-1-10c-1-7-1-12-1-19h2C885,2326,884,2324,883,2319L883,2319z"/>
			<path fill="#8D9BBC" d="M883,2319c10,4,41,20,48,22c3,6,3,17,2,23c-1-3-1-5-2-8c-5-5-14-9-20-12l-7-3c-5,3-12,7-18,9
				c-1-7-1-12-1-19h2C885,2326,884,2324,883,2319z"/>
			<path fill="#DFD1DE" d="M885,2330c7,5,11,7,19,10c-5,3-12,7-18,9C886,2342,885,2337,885,2330z"/>
			<path fill="#BBBDE4" d="M934,2373c1,5,1,4-1,8l0,0l1,3l2,17c-4-2-10-4-14-6c-3-4-6-4-10-9C919,2385,931,2380,934,2373L934,2373z"
				/>
			<path fill="#8D9BBC" d="M935,2385c-5,2-8,4-13,5c2-3,8-6,12-8L935,2385z"/>
			<path fill="#BBBDE4" d="M889,2376c7,3,17,7,24,11c4,4,7,5,10,9c-8-1-18-3-26-5C890,2385,888,2384,889,2376z"/>
			<path fill="#BBBDE4" d="M904,2341l7,3c-6,3-23,10-24,16c0-1,0-8-1-10C892,2348,899,2344,904,2341z"/>
			<path fill="#1A1A1E" d="M1310,1959c5,5,4,47,4,56c-12,7-23,14-34,21l-7,5c-2-6-3-45-2-53c1-5,4-6,7-9c3-2,5-4,8-5c4-3,6-5,11-4
				C1299,1965,1306,1961,1310,1959z"/>
			<path fill="#FA9E39" d="M1278,1979c3-2,5-4,8-5c4-3,6-5,11-4c-5,22-12,45-16,67l-7,5c-2-6-3-45-2-53
				C1271,1983,1274,1982,1278,1979z"/>
			<path fill="#DFD1DE" d="M1005,2337c15,5,25,10,39,16l2,1c3,6,4,39-6,42c-7,2-18-1-25-2l-9-7c-6-5-7-4-9-11l-17-9
				C1002,2363,1006,2359,1005,2337L1005,2337z"/>
			<path fill="#BBBDE4" d="M1047,2355c3,6,4,39-6,42c-7,2-18-1-25-2l-9-7c-6-5-7-4-9-11c6,2,17,7,23,10c8-5,18-8,27-12L1047,2355z"
				/>
			<path fill="#1A1A1E" d="M648,2025c14,4,23,8,36,13c6,17,7,23,9,41c1,8,2,12,1,20c1,5,1,3,0,8c-4-2-10-4-14-5l-1-1l-3-10l-19-8
				C653,2066,650,2042,648,2025z"/>
			<path fill="#7393BB" d="M676,2091l6,1c4,2,8,5,13,7c1,5,1,3,0,8c-4-2-10-4-14-5l-1-1L676,2091z"/>
			<path fill="#FA9E39" d="M694,2079c1,8,2,12,1,20c-4-2-9-5-13-7C685,2088,690,2083,694,2079z"/>
			<path fill="#FB8A09" d="M1279,1925c11-8,23-16,33-24c0,7-1,16-1,22c2,8,2,27-2,33l1,2c-4,3-11,6-13,10c-4-1-6,1-11,4
				c-3,2-5,4-8,5l-5,1l-2-1l1-4l-2-5c-2-8-2-28,0-36C1271,1928,1275,1927,1279,1925L1279,1925z"/>
			<path fill="#8199C5" d="M1310,1924c2,8,2,27-2,33l1,2c-4,3-11,6-13,10c-4-1-6,1-11,4c-3,2-5,4-8,5l-5,1l-2-1l1-4c6-3,24-17,30-22
				L1310,1924z"/>
			<path fill="#FEB604" d="M1271,1969c-2-8-2-28,0-36c1-5,5-6,9-8C1277,1936,1275,1964,1271,1969z"/>
			<path fill="#1A1A1E" d="M1317,2097c0,17,1,37,2,53c-6,4-18,13-24,15l-20-9c-1-10-1-22-1-33C1290,2114,1301,2107,1317,2097z"/>
			<path fill="#1A1A1E" d="M777,2278l20,9l2,1c8,4,15,7,22,11c0,5,2,27,2,30l1,5c1,4,2,7,0,10c-8,2-22-4-29-7c-9-3-8-4-12-11
				c-2-10-2-17-3-26l-1-6L777,2278z"/>
			<path fill="#BBBDE4" d="M783,2328c8,3,17,7,25,11l15-9l1,5c1,4,2,7,0,10c-8,2-22-4-29-7C786,2336,786,2335,783,2328z"/>
			<path fill="#DFD1DE" d="M777,2278l20,9c-6,2-13,4-18,8L777,2278z"/>
			<path fill="#8199C5" d="M796,2287l2,1c-4,6-12,10-18,13l-1-6C784,2292,790,2290,796,2287L796,2287z"/>
			<path fill="#DFD1DE" d="M730,2304c0-11-7-42-3-50l3-1c4,3,15,9,19,10c5,3,13,6,17,9l2,19c1,5,4,25,2,28
				C762,2324,735,2313,730,2304z"/>
			<path fill="#8D9BBC" d="M768,2291c1,5,4,25,2,28c-9,4-35-7-40-16c7,3,14,6,22,8C763,2304,767,2306,768,2291z"/>
			<path fill="#1A1A1E" d="M657,2092l21,9l1,1c4,2,10,3,14,5c6,6,8,43,9,53v3l-2,1c-10-3-25-10-35-15C663,2131,661,2111,657,2092
				L657,2092z"/>
			<path fill="#FA9E39" d="M680,2102c4,2,10,3,14,5c6,6,8,43,9,53C685,2141,669,2130,680,2102z"/>
			<path fill="#1A1A1E" d="M668,2160c10,3,28,12,38,17c1,19,5,38,6,58c-11-5-23-11-34-17C673,2200,671,2179,668,2160z"/>
			<path fill="#1A1A1E" d="M639,1964l30,12c5,2,10,3,14,6c2,7,7,40,5,45h-3l-37-14C643,1999,641,1980,639,1964z"/>
			<path fill="#FEB604" d="M669,1977c5,2,10,3,14,6c2,7,7,40,5,45h-3C681,2022,671,1985,669,1977z"/>
			<path fill="#1A1A1E" d="M1323,1950c10-8,16-11,27-17c1,9,3,51,1,58c-1,4-3,9-4,13c-7,5-18,11-23,16c-2-5-1-13-1-19
				C1324,1990,1323,1964,1323,1950L1323,1950z"/>
			<path fill="#7581A3" d="M1351,1991c-1,4-3,9-4,13c-7,5-18,11-23,16c-2-5-1-13-1-19l2,4C1332,2007,1345,1996,1351,1991z"/>
			<path fill="#1A1A1E" d="M604,2008c10,2,24,7,32,12c3,20,7,39,9,59c-13-5-22-8-34-14C609,2045,606,2027,604,2008z"/>
			<path fill="#DFD1DE" d="M949,2369c13-7,18-5,32-1l17,9c2,6,3,6,9,11l-3,2c-8,6-44,24-52,20c-5-7-4-18-4-27c0-8,1-8,6-13L949,2369
				z"/>
			<path fill="#616C8D" d="M949,2369c13-7,18-5,32-1l17,9c2,6,3,6,9,11l-3,2c-14-5-38-20-51-20L949,2369z"/>
			<path fill="#1A1A1E" d="M624,2141c11,4,22,9,33,14c3,19,6,40,9,59c-8-3-26-11-33-15C628,2179,625,2160,624,2141z"/>
			<path fill="#1A1A1E" d="M1355,2074c1,12,3,38,1,52c-1,2-2,3-3,4c0,4,0,5-1,9l1,2c-7,5-15,10-22,15c-2-5-2-5-2-10c1-12-1-41-1-54
				C1337,2083,1344,2079,1355,2074L1355,2074z"/>
			<path fill="#7581A3" d="M1352,2129c0,4,0,5-1,9l1,2c-7,5-15,10-22,15c-2-5-2-5-2-10C1336,2141,1345,2134,1352,2129z"/>
			<path fill="#1A1A1E" d="M614,2076c11,2,23,8,33,13c1,17,6,36,7,55c-6,0-26-11-33-14C619,2115,616,2091,614,2076z"/>
			<path fill="#1A1A1E" d="M634,2209c19,7,34,7,35,30c2,11,7,23,2,32c-13,10-27-8-31-20C637,2236,635,2224,634,2209z"/>
			<path fill="#DFD1DE" d="M669,2239c2,11,7,23,2,32c-13,10-27-8-31-20C647,2249,664,2244,669,2239z"/>
			<path fill="#1A1A1E" d="M1347,2005l4,1c3,9,3,43,3,54c-10,8-17,12-27,19c0-11-1-50-3-59C1329,2016,1341,2010,1347,2005L1347,2005
				z"/>
			<path fill="#1A1A1E" d="M595,1946c9,3,23,9,32,13c3,17,6,34,8,51c-11-4-22-9-32-13C599,1981,597,1962,595,1946z"/>
			<path fill="#1A1A1E" d="M1292,2179c6,2,35,9,29,19c-8,14-29,22-43,30c-2-13-3-26-2-39C1283,2186,1287,2185,1292,2179L1292,2179z"
				/>
			<path fill="#1A1A1E" d="M1346,1881c1,0,1,1,2,2c1,12,1,25,2,37c-9,8-14,11-24,18h-2c-4-5-3-32-3-40
				C1328,1892,1338,1886,1346,1881z"/>
			<path fill="#1A1A1E" d="M1353,2140l3,2c1,7,5,40-8,42c-3,1-14-4-18-6c0-6-1-17,0-23C1338,2150,1346,2145,1353,2140L1353,2140z"/>
			<path fill="#DFD1DE" d="M713,2259c3,3,6,32,7,39c-7-2-13-5-20-8c-5-2-6-3-10-6c-3-5-2-3-2-8C692,2269,705,2263,713,2259z"/>
			<path fill="#DFD1DE" d="M679,2230c7,3,29,10,29,17l-6,4l-18,12C682,2252,680,2241,679,2230z"/>
			<path fill="#7581A3" d="M1319,2151c0,6,0,6-2,11c-11,9-16,1-25,17c-4,6-9,7-15,10c-1-6-2-10,2-14c9-2,10-1,15-8l1-1
				C1301,2163,1313,2155,1319,2151L1319,2151z"/>
			<path fill="#FEB604" d="M1310,1533c8-4,25-15,32-21c20-13,40-26,60-39c38-24,117-77,163-79c12-1,41,11,56,14h2c12,9,4,10,5,24
				c1,4,1,10-3,12c-23,14-52,27-75,39c-19,10-38,20-56,31c-89,53-182,115-268,173l-1,59c15,0,25,0,36,11c1,6,0,11,3,16
				c9-12,45-40,55-47c14-9,64-6,66,14c1,10-25,39-31,47l-2,6l-3,6c-2,4-4,9-4,13c-3,9-9,26-10,35v1c-4,2-8,5-12,7c-5,3-15,11-20,13
				c-6,5-11,8-18,13l-27,18c-13,8-26,18-39,25c-13,9-24,16-38,25l-14,9c-17-22-40-42-57-64c-6,5-7,23-9,31c-2-6-4-17-5-23
				c-8-9-11-11-13-22c-7,1-14-12-20-14c-3-1-13-3-17-3c1-5,17-23,21-28c-4,2-9,4-13,7c6-8,11-13,17-20c-3-3-8-6-12-9h1h2
				c24-5,32-31,46-52h1l1-1c3,0,3,0,5-2v-4h3c2-3,1-4,1-8l-5-5l-5-13c-1-4-2-8-3-11l1-6c8-45,69-90,104-114l8-6l16-11
				c9-5,21-12,28-19C1278,1556,1296,1543,1310,1533L1310,1533z"/>
			<path fill="#FEDB28" d="M1118,1748c2,2,3,4,5,6c12,3,17,18,20,29c1,4,2,11,2,15l1,1c2-1,4-3,6-5l-2,9l1,1l4-2c-9,17-19,35-29,52
				c-15,10-16,26-17,43c-6,5-7,23-9,31c-2-6-4-17-5-23c-8-9-11-11-13-22c-7,1-14-12-20-14c-3-1-13-3-17-3c1-5,17-23,21-28
				c-4,2-9,4-13,7c6-8,11-13,17-20c-3-3-8-6-12-9h1h2c24-5,32-31,46-52h1l1-1c3,0,3,0,5-2v-4h3C1119,1753,1118,1753,1118,1748
				L1118,1748z"/>
			<path fill="#FA9E39" d="M1118,1748c2,2,3,4,5,6c12,3,17,18,20,29c1,4,2,11,2,15l1,1c2-1,4-3,6-5l-2,9l1,1l4-2c-9,17-19,35-29,52
				c-15,10-16,26-17,43c-6,5-7,23-9,31c-2-6-4-17-5-23c-8-9-11-11-13-22c9-22,51-97,47-115c-4-4-5-4-10-5c-5,1-6,1-10,0l1-1
				c3,0,3,0,5-2v-4h3C1119,1753,1118,1753,1118,1748z"/>
			<path fill="#FB8A09" d="M1135,1827c2-12,3-23,4-35c2,2,3,4,5,6l1,1C1147,1808,1140,1818,1135,1827z"/>
			<path fill="#FDA804" d="M1106,1762h1c4,1,5,1,10,0c-11,11-20,29-29,43c-8,12-15,21-23,32c-4,2-9,4-13,7c6-8,11-13,17-20
				c-3-3-8-6-12-9h1h2C1085,1809,1093,1783,1106,1762L1106,1762z"/>
			<path fill="#FEE424" d="M1218,1890c0-8,1-15,6-23c12-20,30-65,50-76c5-2,30,3,36,6c8,6,9,9,10,18c-4,20-10,37-18,56
				c-6,5-11,8-18,13l-27,18C1244,1898,1230,1899,1218,1890L1218,1890z"/>
			<path fill="#FEDB28" d="M1154,1802c8-11,22-29,37-30c24-3,25,17,20,35c-10,42-22,68-69,74c-22,3-25-7-17-26
				C1135,1837,1145,1820,1154,1802z"/>
			<path fill="#FB8A09" d="M1214,1865c2-23,4-33,12-54c6-17,34-40,34-51c1,6,0,11,3,16l1,1C1263,1788,1223,1854,1214,1865z"/>
			<path fill="#BBBDE4" d="M1215,1696c2-3,6-4,9-6l-1,59c-6,0-14-1-20-2c-4-2-5-2-8-5c1-8,1-24,0-33l7-5
				C1206,1702,1211,1699,1215,1696z"/>
			<path fill="#616C8D" d="M1215,1696c2-3,6-4,9-6l-1,59c-6,0-14-1-20-2l4-2l4-1C1216,1737,1215,1706,1215,1696z"/>
			<path fill="#616C8D" d="M1195,1709l7-5c0,9-2,36,5,41l-4,2c-4-2-5-2-8-5C1196,1734,1196,1718,1195,1709z"/>
			<path fill="#FB8A09" d="M1179,1952c3-8,28-60,31-63l4,1c2,15,3,22,3,37C1204,1937,1193,1944,1179,1952z"/>
			<path fill="#FA9E39" d="M1319,1816c1,4,1,6,2,9h1c1-3,1-4,1-7c4,12,0,28-2,41c-5,3-15,11-20,13C1309,1853,1315,1836,1319,1816z"
				/>
			<path fill="#1A1A1E" d="M1195,1709c0,9,1,25,0,33c-9-7-10-12-14-23L1195,1709z"/>
			<path fill="#FEDB28" d="M1142,1783c5-1,9,1,14,2c-1,5-5,5-5,10c-2,2-4,3-6,5l-1-1C1144,1794,1143,1787,1142,1783z"/>
			<path fill="#FEDB28" d="M1217,1600c8-6,18-13,27-18c86-53,167-116,258-160c18-9,43-19,62-21c9-1,32,7,42,10c5,2,7,2,10,6
				c-2,2-54,18-62,21c-24,10-48,21-70,34c-82,48-147,97-219,159c-35,30-88,48-122,82c-4,3-9,7-14,7c-27-11,1-42,11-56
				C1162,1637,1188,1619,1217,1600L1217,1600z"/>
			<path fill="#FEDB28" d="M1324,1732c9-1,44-2,47,7c-18,13-36,27-54,39c-17,6-27,3-44-1C1280,1767,1314,1738,1324,1732L1324,1732z"
				/>
			<path fill="#1A1A1E" d="M1085,1578c13-33,32-47,57-70l77-73l117-112c39-37,75-77,131-85c49-6,101,25,60,75c-20,24-44,45-67,67
				c-42,42-82,85-124,127c-8,8-17,17-25,25l-1,1c-13,9-32,22-47,29c-7,6-19,14-28,19l-16,11l-8,6c-35,25-96,69-104,114l-1,6l-7-2
				c-7-2-18-6-26-9l-9-3l6-1l4-1c1-4,1-28,1-34C1076,1634,1075,1612,1085,1578L1085,1578z"/>
			<path fill="#616C8D" d="M1085,1578c13-33,32-47,57-70l77-73l117-112c39-37,75-77,131-85c49-6,101,25,60,75c-20,24-44,45-67,67
				c-42,42-82,85-124,127c-8,8-17,17-25,25l-1,1c-13,9-32,22-47,29c5-8,13-16,20-23c5-8,38-43,46-52c2-4,2-4,2-9c3-5,19-21,24-25
				c5-10,132-135,149-150l5-7c5-8,6-10,8-19l-3,1c-13-11-27-15-45-13c-51,4-85,47-120,81l-103,100c-24,23-48,46-72,69
				c-14,13-35,32-47,47c-32,39-25,102-23,150l2,1l-1,6l-7-2c-7-2-18-6-26-9l-9-3l6-1l4-1c1-4,1-28,1-34
				C1076,1634,1075,1612,1085,1578L1085,1578z"/>
			<path fill="#BBBDE4" d="M1160,1499c5-6,11-11,16-16c66-63,131-126,197-189c3-3,5-5,9-6c7,6,10,2,16-2c-4,7-98,96-112,107
				c-25,22-128,129-152,139C1143,1523,1158,1512,1160,1499L1160,1499z"/>
			<path fill="#BBBDE4" d="M1528,1268c1,7,1,14,1,21c-18,32-90,92-117,123c-15,17-118,123-130,127c5-8,38-43,46-52c2-4,2-4,2-9
				c3-5,19-21,24-25c5-10,132-135,149-150l5-7l5,1C1524,1287,1526,1282,1528,1268L1528,1268z"/>
			<path fill="#1A1A1E" d="M1355,1453l2,2c-9,13-16,21-28,32c2-4,2-4,2-9C1334,1473,1350,1458,1355,1453L1355,1453z"/>
			<path fill="#F1F0FA" d="M1509,1296l5,1c-3,3-4,6-8,7l-2-1L1509,1296z"/>
			<path fill="#BBBDE4" d="M1071,1703l4-1c1-4,1-28,1-34c0-35-1-57,9-91l4,3c-2,10-4,17-5,27c0,5,0,9,2,11c2-2,2-3,3-5
				c1,4,4,11,5,14c3,27,3,54,5,81l5,1l2,1l-1,6l-7-2c-7-2-18-6-26-9l-9-3L1071,1703z"/>
			
				<linearGradient id="SVGID_00000136401986095659362790000001788843778601868979_" gradientUnits="userSpaceOnUse" x1="1109.9836" y1="2426.3628" x2="1074.5167" y2="2421.9539" gradientTransform="matrix(1 0 0 1 0 -778)">
				<stop  offset="0" style="stop-color:#455D83"/>
				<stop  offset="1" style="stop-color:#727B9F"/>
			</linearGradient>
			<path fill="url(#SVGID_00000136401986095659362790000001788843778601868979_)" d="M1071,1703l4-1c1-4,1-28,1-34c0-35-1-57,9-91
				l4,3c-2,10-4,17-5,27c-2,18-4,78,0,95c5,6,7,5,15,6l5,1l2,1l-1,6l-7-2c-7-2-18-6-26-9l-9-3L1071,1703z"/>
			<path fill="#F8F2F2" d="M1160,1499c-2,13-17,24-25,34c-29,30-34,42-45,82c-1,3-2,3-3,5c-2-3-2-7-2-11c1-11,3-17,5-27
				C1103,1542,1130,1529,1160,1499z"/>
			<path fill="#F8F2F2" d="M1487,1244c18,3,31,8,41,24c-1,14-4,18-14,29l-5-1c5-8,6-10,8-19c0-12-12-18-20-23L1487,1244z"/>
			<path fill="#F8F2F2" d="M1405,1270c3,1,7,2,10,4c-7,5-11,7-17,13c-7,4-10,7-16,2C1389,1281,1396,1274,1405,1270L1405,1270z"/>
			<path fill="#BBBDE4" d="M1405,1270c6-4,21-13,28-9c-2,6-12,10-18,13C1412,1272,1409,1271,1405,1270z"/>
			<path fill="#1A1A1E" d="M1459,1246c10-1,18-4,28-1l9,10C1481,1249,1475,1247,1459,1246z"/>
			<path fill="#7581A3" d="M1514,1279l3-1c-2,9-3,11-8,19l-5,7c-17,15-144,141-149,150c-5,4-21,20-24,25c0,5,0,5-2,9
				c-8,9-41,44-46,52c-7,7-14,15-20,23c-7,6-19,14-28,19l-16,11c12-20,25-34,41-51c73-73,144-147,218-220
				C1491,1308,1505,1296,1514,1279L1514,1279z"/>
			<path fill="#F8F2F2" d="M1331,1478c0,5,0,5-2,9c-8,9-41,44-46,52c-7,7-14,15-20,23c-7,6-19,14-28,19
				C1244,1558,1310,1499,1331,1478z"/>
			<path fill="#FEDB28" d="M902,1102c11-5,20-8,31-3c32,15,43,64,48,97c19,118,31,237,53,354c1,7,2,24-1,29c-15,16-39,18-58,27
				c-17-2-20-14-21-29c-2-26-6-54-7-81l-41-280c-4-26-11-71-12-97l4-8l4-7L902,1102z"/>
			<path fill="#FEB604" d="M902,1105l5-1c10,64,17,126,28,190c2,12,4,31,7,42c8,48,16,95,21,143c0,3,1,11,2,14l2,21
				c3,28,10,74,49,56c5-2,9-5,12-8c0,4,0,12-1,16c3,1,3,2,6,2c-15,16-39,18-58,27c-17-2-20-14-21-29c-2-26-6-54-7-81l-41-280
				c-4-26-11-71-12-97l4-8L902,1105z"/>
			<path fill="#FB8A09" d="M971,1602c3-3,7-7,10-9c11-8,33-16,46-15c3,1,3,2,6,2c-15,16-39,18-58,27L971,1602z"/>
			<path fill="#FB8A09" d="M947,1497l2,1c3,21,7,88,21,102l1,1l4,5c-17-2-20-14-21-29C951,1551,947,1523,947,1497z"/>
			<path fill="#FB8A09" d="M898,1113c2,13,11,100,8,105c-4-26-11-71-12-97L898,1113z"/>
			<path fill="#FA9E39" d="M902,1102c11-5,20-8,31-3c32,15,43,64,48,97c19,118,31,237,53,354c1,7,2,24-1,29c-3,0-3,0-6-2
				c1-3,1-12,1-16c0-24-4-45-8-68c-5-34-13-69-18-104c-12-78-13-145-34-222l-5-19c-5-22-29-60-56-45l-5,1V1102z"/>
			<path fill="#FEE424" d="M935,1295l4-2c8,3,11,45,8,52h-1l-4-8C939,1326,937,1307,935,1295z"/>
			<path fill="#FEE424" d="M968,1168c-2,13,2,17,0,30c-2-10-12-39-8-47l4-1L968,1168z"/>
			<path fill="#FEE424" d="M965,1494l4-1c6,5,8,21,4,27c-3-2-3-2-5-5L965,1494z"/>
			<path fill="#FEDB28" d="M480,1485c-21-18-104-118-104-143c1-105,31-55,69-7l61,77c9,10,19,20,29,29c39,30,71,66,105,102
				c35,38,65,72,84,121c13,34,8,37-27,47c-18-8-47-37-59-53c-7-4-61-72-74-84C550,1562,487,1499,480,1485z"/>
			<path fill="#FEB604" d="M480,1485c-21-18-104-118-104-143c1-105,31-55,69-7l61,77c-21-7-94-126-116-126c-4,3-3,2-5,8
				c0,3,0,14,1,17c13,27,35,42,48,71c6,14,8,37,14,47c5,8,26,30,33,37c36,33,77,57,112,92c27,27,51,56,76,84c12,14,35,45,51,50
				c-5,2-18,10-22,11c-17,8-46-39-62-45c-7-4-61-72-74-84C550,1562,487,1499,480,1485L480,1485z"/>
			<path fill="#FA9E39" d="M480,1485c-21-18-104-118-104-143c1-105,31-55,69-7l61,77c-21-7-94-126-116-126c-4,3-3,2-5,8
				c-7,42-8,55,15,91C413,1404,476,1473,480,1485z"/>
			<path fill="#FDA804" d="M721,1692c6-9-1-23-5-32c-10-23-23-44-38-64c-30-38-64-73-98-108c-9-9-43-39-45-46c39,30,71,66,105,102
				c35,38,65,72,84,121c13,34,8,37-27,47c-18-8-47-37-59-53c16,6,44,53,62,45C703,1702,717,1694,721,1692z"/>
			<path fill="#FEB604" d="M427,857c17-1,44-5,57,7c16,15,28,37,43,53c26,26,53,50,80,75c32,31,64,62,95,95c10,10,41,41,48,51
				c17,19,25,33,36,56c5,14-9,54-21,62c-10,4-19-1-25-9c-77-112-181-205-280-297c-12-11-50-75-43-89C422,857,422,857,427,857
				L427,857z"/>
			<path fill="#FEDB28" d="M427,857c17-1,44-5,57,7c16,15,28,37,43,53c26,26,53,50,80,75c32,31,64,62,95,95c10,10,41,41,48,51
				c17,19,25,33,36,56c5,14-9,54-21,62c5-14,8-25,12-39c-14-30-49-38-73-63c-35-37-66-78-101-115c-20-21-40-41-61-60
				c-13-12-31-28-41-41c-14-18-15-41-23-62C470,858,442,863,427,857L427,857z"/>
			<path fill="#FDA804" d="M751,1137c17,19,25,33,36,56c-2,2-2,2-5,2C776,1187,752,1145,751,1137z"/>
			<path fill="#FEDB28" d="M648,289c7-5,9-8,17-7c5,3,8,9,12,14c5,0,11-1,15,1c0,5-1,6-4,11c21,23,23,47,28,76c5,25,9,50,13,75
				c7,44,11,71,30,112c16,36,30,74,46,110c7,17-4,52-13,67c-1,1-5,3-6,3c-26-9-49-69-59-94c-14-34-38-78-47-113c-10-40-16-85-24-126
				C644,371,634,339,648,289L648,289z"/>
			<path fill="#FEB604" d="M656,419c6-12-25-101,3-132c1,8,10,24,9,29c-3,26-1,46,5,72c2,10,1,25,4,36s11,24,13,36c5,26,5,51,9,77
				c10,64,48,121,77,178c3,6,9,18,16,20c-2,9-7,13-7,18c-26-9-49-69-59-94c-14-34-38-78-47-113C670,505,664,460,656,419L656,419z"/>
			<path fill="#FB8A09" d="M648,289c7-5,9-8,17-7c5,3,8,9,12,14c5,0,11-1,15,1c0,5-1,6-4,11c21,23,23,47,28,76c5,25,9,50,13,75
				c7,44,11,71,30,112c16,36,30,74,46,110c7,17-4,52-13,67c-1,1-5,3-6,3c0-5,5-9,7-18c14-41,12-50-10-90c-54-100-57-210-87-316
				c-1-3-32-40-37-41c-28,31,3,121-3,132C644,371,634,339,648,289L648,289z"/>
			<path fill="#F8F2F2" d="M677,296c5,0,11-1,15,1c0,5-1,6-4,11C683,304,681,301,677,296z"/>
			<path fill="#FEB604" d="M1224,736c14-31,24-45,55-62c10-5,26-19,39-15c3,1,6,5,6,8c0,28-33,69-43,95c-11,25-17,51-27,76
				c-19,47-35,97-52,145c-12,33-16,86-36,113c-16,23-39-9-38-33c2-54,10-110,33-159C1181,848,1202,792,1224,736L1224,736z"/>
			<path fill="#FEDB28" d="M1226,745c14-30,24-50,53-65c9-5,18-13,29-14l2,1c1,6-5,14-8,19c-8,12-18,23-25,36c-13,24-17,50-27,75
				c-6,15-19,29-22,45c-5,22-3,42-10,65c-7,21-21,36-30,54c-13,28-17,67-24,97c-2,11-4,30-15,36c-21-1-18-47-17-61
				c4-47,16-86,34-129c15-37,27-72,39-110C1211,779,1220,760,1226,745L1226,745z"/>
			<path fill="#FEDB28" d="M1154,505c-16,39-57,54-49-9c12-97-11-192-14-288c-1-31-6-57-16-87c-3-9-13-34-1-39c6,1,11,4,16,7
				c32,28,54,57,59,99c5,40,8,80,11,120C1164,364,1173,453,1154,505z"/>
			<path fill="#FEB604" d="M1154,505c-16,39-57,54-49-9c12-97-11-192-14-288c-1-31-6-57-16-87c-3-9-13-34-1-39c6,1,11,4,16,7
				c32,28,54,57,59,99c-2,10-2,14-1,24c-8-46-19-87-60-119c-2-1-3-2-6-2c-2,3-1,5-1,9c3,18,19,44,20,63c3,61,9,123,14,184
				c3,35,6,70,6,105c-1,16-2,31-3,47c0,9-3,23,5,30c14,2,25-19,29-30L1154,505z"/>
			<path fill="#FDA804" d="M1147,213c-1-10-1-14,1-24c5,40,8,80,11,120c4,55,13,144-6,196l-3-6c18-57,6-134,2-193
				C1151,275,1149,244,1147,213z"/>
			<path fill="#616C8D" d="M869,1708l4,7l1,5l5,10c5,11,12,23,16,34c-5,3-11,7-16,10h-3c-5,1-10,1-14,3l-5,8c-2,5-2,7-6,11
				c-5-1-3,0-6-4h-1l-1,6c-16-11-31-20-46,0c-1,1-1,1-1,2c-1-2-1-1-3-3l-3,2c-9-26-10-43-41-32c-7,1-21,5-28,4c8-8,34-13,45-14
				c7-1,9,1,14,5C804,1743,841,1723,869,1708z"/>
			<path fill="#1A1A1E" d="M803,1782c0-5,0-8,4-11c9-8,28-18,39-22c3,11,9,29,4,38l-6,4h-1l-1,6c-16-11-31-20-46,0c-1,1-1,1-1,2
				c-1-2-1-1-3-3l-3,2c-9-26-10-43-41-32c-7,1-21,5-28,4c8-8,34-13,45-14c7-1,9,1,14,5l3,7l2,5l3,11c6-2,8-5,13,1L803,1782z"/>
			<path fill="#FA9E39" d="M719,1769c8-8,34-13,45-14c7-1,9,1,14,5l3,7l2,5l3,11c6-2,8-5,13,1l4-1c19-7,24-5,39,8l-1,6
				c-16-11-31-20-46,0c-1,1-1,1-1,2c-1-2-1-1-3-3l-3,2c-9-26-10-43-41-32C740,1766,726,1769,719,1769L719,1769z"/>
			<path fill="#1A1A1E" d="M786,1782c6-2,8-5,13,1c-3,4-4,5-8,7C787,1788,788,1787,786,1782z"/>
			<path fill="#1A1A1E" d="M855,1743c7-5,16-9,24-14c5,11,12,23,16,34c-5,3-11,7-16,10h-3c-5,1-10,1-14,3
				C859,1765,857,1754,855,1743z"/>
			<path fill="#BBBDE4" d="M873,1715l1,5c-6,4-15,10-22,10l1-3C858,1721,866,1718,873,1715z"/>
			<path fill="#1A1A1E" d="M781,1766c5-2,6-4,11-4c-2,5-4,5-9,8L781,1766z"/>
			<path fill="#BBBDE4" d="M838,1734c1,0,1,0,2,1c-2,6-34,23-42,26l-2-4C800,1753,831,1738,838,1734z"/>
			<path fill="#F8F2F2" d="M954,1670c5,1,16,2,20,5c5,2,13,5,18,5c7,0,71,20,79,24l-6,1l9,3l1,4c-3,3-2,2-8,3l-12-5
				c-11-5-25-8-37-11c-9,2-10,3-18,8c-4,4-7,7-9,13c-2,6-2,9-6,12l-4-2c0-3-1-6-2-9c-6-5-10-17-13-24c-2-4-4-9-6-14l-4-10L954,1670z
				"/>
			<path fill="#616C8D" d="M960,1683c19,5,39,10,58,16c-9,2-10,3-18,8c-4,4-7,7-9,13c-2,6-2,9-6,12l-4-2c0-3-1-6-2-9
				c-6-5-10-17-13-24C963,1692,962,1688,960,1683L960,1683z"/>
			<path fill="#F1F0FA" d="M966,1697c7,2,7,1,12,6c2,7,1,11,1,19C973,1716,969,1704,966,1697L966,1697z"/>
			<path fill="#BBBDE4" d="M992,1679c7,0,71,20,79,24l-6,1C1041,1697,1015,1688,992,1679z"/>
			<path fill="#8199C5" d="M954,1670c5,1,16,2,20,5c-6,0-13-1-18-1L954,1670z"/>
			<path fill="#616C8D" d="M687,1809c12-6,23-13,35-19c1,3,2,7,3,9v4l4,11c-6,3-11,6-17,9l3,16l-4-2c-5-6-10-10-16-15c6-3,6-5,7-10
				c-6,1-13,4-18,2L687,1809z"/>
			<path fill="#616C8D" d="M687,1809c12-6,23-13,35-19c1,3,2,7,3,9l-20,11c-2,1-2,0-3,2c-6,1-13,4-18,2L687,1809z"/>
			<path fill="#1A1A1E" d="M725,1798v4c-5,3-11,8-17,9l-4-2L725,1798z"/>
			<path fill="#F8F2F2" d="M1064,993c4,2,17,14,21,18c-6,6-13,11-19,17c-4-1-16-13-21-17C1051,1006,1058,998,1064,993z"/>
			<path fill="#F8F2F2" d="M805,940c8,1,15,2,23,3c-1,10-2,19-4,29c-6-1-16-2-22-3C803,959,802,948,805,940z"/>
			<path fill="#F8F2F2" d="M1061,1108c3,4,7,23,9,28l-21,5c-3-4-7-22-9-28L1061,1108z"/>
			<path fill="#F8F2F2" d="M915,194l28,8l-8,23l-27-9L915,194z"/>
			<path fill="#F8F2F2" d="M1142,717l23,5l-7,29c-8-2-16-4-23-6C1137,736,1140,726,1142,717z"/>
			<path fill="#F8F2F2" d="M674,1296c7,2,16,3,22,4l-5,29l-23-5C671,1315,672,1306,674,1296z"/>
			<path fill="#F8F2F2" d="M1276,1001L1276,1001c5,3,10,20,12,26c-6,2-13,5-19,7h-1c-6-4-8-20-10-28L1276,1001z"/>
			<path fill="#F8F2F2" d="M590,728L590,728c5,3,7,12,9,17c-6,5-15,12-22,17c-3-6-8-15-11-21L590,728z"/>
			<path fill="#F8F2F2" d="M1250,495h2c3,3,5,13,7,18l-22,12c-5-3-7-15-8-21L1250,495z"/>
			<path fill="#F8F2F2" d="M974,767c4,1,17,5,22,6c-3,8-6,16-10,23c-5,1-16-3-21-5C967,784,971,774,974,767z"/>
			<path fill="#F8F2F2" d="M1203,600c3,2,16,13,20,16c-5,5-11,11-16,16l-2,1c-5-4-11-11-16-16C1194,610,1197,607,1203,600z"/>
			<path fill="#F8F2F2" d="M1167,547c9,2,18,12,16,22c-1,5-5,6-9,9c-11-1-20-11-16-22C1159,551,1163,549,1167,547z"/>
			<path fill="#F8F2F2" d="M968,515c4,4,7,12,9,18c-8,6-11,9-20,13c-6-2-11-4-12-11c2-9,12-10,21-18L968,515z"/>
			<path fill="#F8F2F2" d="M940,924c7,1,16,6,23,9l-10,19l-25-11L940,924z"/>
			<path fill="#F8F2F2" d="M554,1221l24,11l-12,18c-5,0-17-7-22-10C547,1233,551,1227,554,1221L554,1221z"/>
			<path fill="#F8F2F2" d="M1008,320c10,2,14,13,9,21c-3,4-8,3-13,4h-5c-6-4-7-14-4-20S1003,320,1008,320z"/>
			<path fill="#F8F2F2" d="M772,462l7-1c7,4,1,14-2,20c-4,6-5,5-11,7c-3-1-3-1-5-2c-4-5-4-13-6-20C760,465,766,463,772,462z"/>
			<path fill="#F8F2F2" d="M1263,1103c10-1,22,10,17,20c-1,3-4,3-7,4c-5,1-5,1-10,1c-5-3-9-11-12-16L1263,1103z"/>
			<path fill="#F8F2F2" d="M1087,1277h2c3,4,7,16,9,22l-15,5l-3-1c-4-6-6-15-9-22C1076,1281,1083,1279,1087,1277z"/>
			<path fill="#F8F2F2" d="M1222,361c4,2,9,14,12,18c-6,3-13,6-19,9c-5-5-9-14-12-20C1210,366,1216,363,1222,361z"/>
			<path fill="#F8F2F2" d="M1159,1209l19,9l-12,17c-4,2-14-6-18-8C1152,1222,1155,1216,1159,1209L1159,1209z"/>
			<path fill="#F8F2F2" d="M540,1120c4,2,17,5,22,6l-7,16l-25-3C533,1133,536,1127,540,1120z"/>
			<path fill="#F8F2F2" d="M656,795c6,4,11,8,17,12c-4,5-7,10-11,15l-17-10C647,807,653,799,656,795z"/>
			<path fill="#F8F2F2" d="M813,443l17,5c-1,5-2,13-5,16c-2,0-5-1-7-1c-6-1-7-1-10-6C807,452,810,448,813,443z"/>
			<path fill="#F8F2F2" d="M1043,368l16,7l-6,18l-15-4C1039,383,1041,375,1043,368z"/>
			<path fill="#F8F2F2" d="M840,1304l2,1c3,6,5,10,3,17c-3,4-5,3-11,3c-7-2-11-7-7-15C830,1306,835,1305,840,1304z"/>
			<path fill="#F8F2F2" d="M1077,604c3,2,7,12,9,16l-15,6c-4-1-7-11-9-15L1077,604z"/>
			<path fill="#F8F2F2" d="M692,675c4,1,9,10,12,13l-14,9h-1c-4-2-8-9-10-14C682,681,687,678,692,675z"/>
			<path fill="#F8F2F2" d="M801,246L801,246c5,3,7,12,9,17l-14,4h-1c-4-4-7-8-5-14C792,248,793,249,801,246L801,246z"/>
			<path fill="#F8F2F2" d="M695,616c6,2,8,5,8,11c-3,5-1,3-7,7c-5-2-7-4-10-8C688,621,691,619,695,616z"/>
			<path fill="#FB8A09" d="M902,1102l1,4l-4,7l-4,8c-1-4-1-6-1-10C895,1105,897,1105,902,1102z"/>
			<path fill="#F8F2F2" d="M1377,982c6-1,10-3,15,2C1387,985,1382,986,1377,982z"/>
		</g>
	</g>
</g>
</svg>
